<?xml version="1.0" encoding="UTF-8" standalone="no"?>
<!DOCTYPE svg PUBLIC "-//W3C//DTD SVG 1.1//EN"
 "http://www.w3.org/Graphics/SVG/1.1/DTD/svg11.dtd">
<!-- Generated by graphviz version 2.38.0 (20140413.2041)
 -->
<!-- Title: module_bl_ysu::tridin Pages: 1 -->
<svg width="407pt" height="28pt"
 viewBox="0.00 0.00 407.00 28.00" xmlns="http://www.w3.org/2000/svg" xmlns:xlink="http://www.w3.org/1999/xlink">
<g id="graph0" class="graph" transform="scale(1 1) rotate(0) translate(4 24)">
<title>module_bl_ysu::tridin</title>
<polygon fill="white" stroke="none" points="-4,4 -4,-24 403,-24 403,4 -4,4"/>
<!-- Node1 -->
<g id="node1" class="node"><title>Node1</title>
<polygon fill="#bfbfbf" stroke="black" points="0,-0.5 0,-19.5 109,-19.5 109,-0.5 0,-0.5"/>
<text text-anchor="middle" x="54.5" y="-7.5" font-family="Helvetica,sans-Serif" font-size="10.00">module_bl_ysu::tridin</text>
</g>
<!-- Node2 -->
<g id="node2" class="node"><title>Node2</title>
<g id="a_node2"><a xlink:href="classmodule__bl__ysu.html#afb152e741c8b1d0fc4c164cb95e39872" target="_top" xlink:title="module_bl_ysu::ysu2d">
<polygon fill="white" stroke="black" points="145,-0.5 145,-19.5 259,-19.5 259,-0.5 145,-0.5"/>
<text text-anchor="middle" x="202" y="-7.5" font-family="Helvetica,sans-Serif" font-size="10.00">module_bl_ysu::ysu2d</text>
</a>
</g>
</g>
<!-- Node1&#45;&gt;Node2 -->
<g id="edge1" class="edge"><title>Node1&#45;&gt;Node2</title>
<path fill="none" stroke="midnightblue" d="M119.374,-10C127.751,-10 136.287,-10 144.53,-10"/>
<polygon fill="midnightblue" stroke="midnightblue" points="119.265,-6.5001 109.265,-10 119.265,-13.5001 119.265,-6.5001"/>
</g>
<!-- Node3 -->
<g id="node3" class="node"><title>Node3</title>
<g id="a_node3"><a xlink:href="classmodule__bl__ysu.html#a3b97629a41ff90adec716d60fa477ebf" target="_top" xlink:title="module_bl_ysu::ysu">
<polygon fill="white" stroke="black" points="295,-0.5 295,-19.5 399,-19.5 399,-0.5 295,-0.5"/>
<text text-anchor="middle" x="347" y="-7.5" font-family="Helvetica,sans-Serif" font-size="10.00">module_bl_ysu::ysu</text>
</a>
</g>
</g>
<!-- Node2&#45;&gt;Node3 -->
<g id="edge2" class="edge"><title>Node2&#45;&gt;Node3</title>
<path fill="none" stroke="midnightblue" d="M269.118,-10C277.712,-10 286.411,-10 294.713,-10"/>
<polygon fill="midnightblue" stroke="midnightblue" points="269.107,-6.5001 259.107,-10 269.107,-13.5001 269.107,-6.5001"/>
</g>
</g>
</svg>
