<?xml version="1.0" encoding="UTF-8" standalone="no"?>
<!DOCTYPE svg PUBLIC "-//W3C//DTD SVG 1.1//EN"
 "http://www.w3.org/Graphics/SVG/1.1/DTD/svg11.dtd">
<!-- Generated by graphviz version 2.32.0 (20130809.1645)
 -->
<!-- Title: output::write_domain Pages: 1 -->
<svg width="326pt" height="115pt"
 viewBox="0.00 0.00 326.00 115.00" xmlns="http://www.w3.org/2000/svg" xmlns:xlink="http://www.w3.org/1999/xlink">
<g id="graph0" class="graph" transform="scale(1 1) rotate(0) translate(4 111)">
<title>output::write_domain</title>
<polygon fill="white" stroke="white" points="-4,5 -4,-111 323,-111 323,5 -4,5"/>
<!-- Node1 -->
<g id="node1" class="node"><title>Node1</title>
<polygon fill="#bfbfbf" stroke="black" points="0.5,-38.5 0.5,-57.5 107.5,-57.5 107.5,-38.5 0.5,-38.5"/>
<text text-anchor="middle" x="54" y="-45.5" font-family="Helvetica,sans-Serif" font-size="10.00">output::write_domain</text>
</g>
<!-- Node2 -->
<g id="node2" class="node"><title>Node2</title>
<g id="a_node2"><a xlink:href="classboundary__conditions.html#a07a42f467f470ada98e0a35fd5a75f66" target="_top" xlink:title=" Initialize the boundary conditions (read inital conditions, etc.) ">
<polygon fill="white" stroke="black" points="144,-77 144,-107 250,-107 250,-77 144,-77"/>
<text text-anchor="start" x="152" y="-95" font-family="Helvetica,sans-Serif" font-size="10.00">boundary_conditions</text>
<text text-anchor="middle" x="197" y="-84" font-family="Helvetica,sans-Serif" font-size="10.00">::bc_init</text>
</a>
</g>
</g>
<!-- Node1&#45;&gt;Node2 -->
<g id="edge1" class="edge"><title>Node1&#45;&gt;Node2</title>
<path fill="none" stroke="midnightblue" d="M95.3747,-60.5992C111.698,-65.6931 130.676,-71.6151 147.722,-76.9346"/>
<polygon fill="midnightblue" stroke="midnightblue" points="96.1835,-57.1852 85.5949,-57.5473 94.0983,-63.8674 96.1835,-57.1852"/>
</g>
<!-- Node3 -->
<g id="node3" class="node"><title>Node3</title>
<g id="a_node3"><a xlink:href="driver_8f90.html#ab1e5a5816a57fc6e95d9563c2bb53590" target="_top" xlink:title=" Main Program ">
<polygon fill="white" stroke="black" points="286,-38.5 286,-57.5 318,-57.5 318,-38.5 286,-38.5"/>
<text text-anchor="middle" x="302" y="-45.5" font-family="Helvetica,sans-Serif" font-size="10.00">icar</text>
</a>
</g>
</g>
<!-- Node1&#45;&gt;Node3 -->
<g id="edge3" class="edge"><title>Node1&#45;&gt;Node3</title>
<path fill="none" stroke="midnightblue" d="M118.042,-48C174.514,-48 253.309,-48 285.934,-48"/>
<polygon fill="midnightblue" stroke="midnightblue" points="117.773,-44.5001 107.773,-48 117.773,-51.5001 117.773,-44.5001"/>
</g>
<!-- Node4 -->
<g id="node4" class="node"><title>Node4</title>
<g id="a_node4"><a xlink:href="classtime__step.html#a2c022f11247af72e607b1493289aa974" target="_top" xlink:title=" Step forward one IO time step. ">
<polygon fill="white" stroke="black" points="155,-0.5 155,-19.5 239,-19.5 239,-0.5 155,-0.5"/>
<text text-anchor="middle" x="197" y="-7.5" font-family="Helvetica,sans-Serif" font-size="10.00">time_step::step</text>
</a>
</g>
</g>
<!-- Node1&#45;&gt;Node4 -->
<g id="edge4" class="edge"><title>Node1&#45;&gt;Node4</title>
<path fill="none" stroke="midnightblue" d="M100.44,-35.7538C119.875,-30.516 142.231,-24.4909 160.431,-19.5859"/>
<polygon fill="midnightblue" stroke="midnightblue" points="99.325,-32.4293 90.5803,-38.411 101.147,-39.1882 99.325,-32.4293"/>
</g>
<!-- Node2&#45;&gt;Node3 -->
<g id="edge2" class="edge"><title>Node2&#45;&gt;Node3</title>
<path fill="none" stroke="midnightblue" d="M242.625,-72.937C258.084,-66.3328 274.386,-59.3692 285.821,-54.4842"/>
<polygon fill="midnightblue" stroke="midnightblue" points="240.98,-69.8337 233.159,-76.9808 243.73,-76.2709 240.98,-69.8337"/>
</g>
<!-- Node4&#45;&gt;Node3 -->
<g id="edge5" class="edge"><title>Node4&#45;&gt;Node3</title>
<path fill="none" stroke="midnightblue" d="M233.572,-23.1236C251.456,-29.7216 272.183,-37.3684 285.885,-42.4236"/>
<polygon fill="midnightblue" stroke="midnightblue" points="234.585,-19.7667 223.991,-19.589 232.162,-26.334 234.585,-19.7667"/>
</g>
</g>
</svg>
