<?xml version="1.0" encoding="UTF-8" standalone="no"?>
<!DOCTYPE svg PUBLIC "-//W3C//DTD SVG 1.1//EN"
 "http://www.w3.org/Graphics/SVG/1.1/DTD/svg11.dtd">
<!-- Generated by graphviz version 2.32.0 (20130809.1645)
 -->
<!-- Title: module_mp_thompson::qi_aut_qs Pages: 1 -->
<svg width="598pt" height="77pt"
 viewBox="0.00 0.00 598.00 77.00" xmlns="http://www.w3.org/2000/svg" xmlns:xlink="http://www.w3.org/1999/xlink">
<g id="graph0" class="graph" transform="scale(1 1) rotate(0) translate(4 73)">
<title>module_mp_thompson::qi_aut_qs</title>
<polygon fill="white" stroke="white" points="-4,5 -4,-73 595,-73 595,5 -4,5"/>
<!-- Node1 -->
<g id="node1" class="node"><title>Node1</title>
<polygon fill="#bfbfbf" stroke="black" points="0.5,-17 0.5,-47 115.5,-47 115.5,-17 0.5,-17"/>
<text text-anchor="start" x="8.5" y="-35" font-family="Helvetica,sans-Serif" font-size="10.00">module_mp_thompson</text>
<text text-anchor="middle" x="58" y="-24" font-family="Helvetica,sans-Serif" font-size="10.00">::qi_aut_qs</text>
</g>
<!-- Node2 -->
<g id="node2" class="node"><title>Node2</title>
<g id="a_node2"><a xlink:href="classmodule__mp__thompson.html#a1f946ed505cb00dda905c9a8c773b9be" target="_top" xlink:title="module_mp_thompson\l::gammp">
<polygon fill="white" stroke="black" points="152.5,-17 152.5,-47 267.5,-47 267.5,-17 152.5,-17"/>
<text text-anchor="start" x="160.5" y="-35" font-family="Helvetica,sans-Serif" font-size="10.00">module_mp_thompson</text>
<text text-anchor="middle" x="210" y="-24" font-family="Helvetica,sans-Serif" font-size="10.00">::gammp</text>
</a>
</g>
</g>
<!-- Node1&#45;&gt;Node2 -->
<g id="edge1" class="edge"><title>Node1&#45;&gt;Node2</title>
<path fill="none" stroke="midnightblue" d="M115.709,-32C124.295,-32 133.223,-32 142.002,-32"/>
<polygon fill="midnightblue" stroke="midnightblue" points="142.211,-35.5001 152.211,-32 142.211,-28.5001 142.211,-35.5001"/>
</g>
<!-- Node3 -->
<g id="node3" class="node"><title>Node3</title>
<g id="a_node3"><a xlink:href="classmodule__mp__thompson.html#af4069d16cc3cbf9a1c493ae5314f4484" target="_top" xlink:title="module_mp_thompson\l::gser">
<polygon fill="white" stroke="black" points="313.5,-39 313.5,-69 428.5,-69 428.5,-39 313.5,-39"/>
<text text-anchor="start" x="321.5" y="-57" font-family="Helvetica,sans-Serif" font-size="10.00">module_mp_thompson</text>
<text text-anchor="middle" x="371" y="-46" font-family="Helvetica,sans-Serif" font-size="10.00">::gser</text>
</a>
</g>
</g>
<!-- Node2&#45;&gt;Node3 -->
<g id="edge2" class="edge"><title>Node2&#45;&gt;Node3</title>
<path fill="none" stroke="midnightblue" d="M267.505,-39.8183C279.151,-41.4297 291.517,-43.1407 303.48,-44.7959"/>
<polygon fill="midnightblue" stroke="midnightblue" points="303.024,-48.2661 313.409,-46.1698 303.983,-41.3322 303.024,-48.2661"/>
</g>
<!-- Node5 -->
<g id="node5" class="node"><title>Node5</title>
<g id="a_node5"><a xlink:href="classmodule__mp__thompson.html#ae708350e2b07c93cbab0a8f77752e063" target="_top" xlink:title="module_mp_thompson::gcf">
<polygon fill="white" stroke="black" points="304,-0.5 304,-19.5 438,-19.5 438,-0.5 304,-0.5"/>
<text text-anchor="middle" x="371" y="-7.5" font-family="Helvetica,sans-Serif" font-size="10.00">module_mp_thompson::gcf</text>
</a>
</g>
</g>
<!-- Node2&#45;&gt;Node5 -->
<g id="edge4" class="edge"><title>Node2&#45;&gt;Node5</title>
<path fill="none" stroke="midnightblue" d="M267.505,-24.1817C276.066,-22.9972 285.016,-21.7589 293.908,-20.5284"/>
<polygon fill="midnightblue" stroke="midnightblue" points="294.475,-23.9835 303.901,-19.1458 293.515,-17.0495 294.475,-23.9835"/>
</g>
<!-- Node4 -->
<g id="node4" class="node"><title>Node4</title>
<g id="a_node4"><a xlink:href="classmodule__mp__thompson.html#a529ff675223a2d57e5e67a26707638cd" target="_top" xlink:title="module_mp_thompson\l::gammln">
<polygon fill="white" stroke="black" points="474.5,-17 474.5,-47 589.5,-47 589.5,-17 474.5,-17"/>
<text text-anchor="start" x="482.5" y="-35" font-family="Helvetica,sans-Serif" font-size="10.00">module_mp_thompson</text>
<text text-anchor="middle" x="532" y="-24" font-family="Helvetica,sans-Serif" font-size="10.00">::gammln</text>
</a>
</g>
</g>
<!-- Node3&#45;&gt;Node4 -->
<g id="edge3" class="edge"><title>Node3&#45;&gt;Node4</title>
<path fill="none" stroke="midnightblue" d="M428.505,-46.1817C440.151,-44.5703 452.517,-42.8593 464.48,-41.2041"/>
<polygon fill="midnightblue" stroke="midnightblue" points="464.983,-44.6678 474.409,-39.8302 464.024,-37.7339 464.983,-44.6678"/>
</g>
<!-- Node5&#45;&gt;Node4 -->
<g id="edge5" class="edge"><title>Node5&#45;&gt;Node4</title>
<path fill="none" stroke="midnightblue" d="M438.049,-19.1389C446.635,-20.3268 455.436,-21.5446 464.036,-22.7345"/>
<polygon fill="midnightblue" stroke="midnightblue" points="463.63,-26.2116 474.015,-24.1153 464.589,-19.2776 463.63,-26.2116"/>
</g>
</g>
</svg>
