<?xml version="1.0" encoding="UTF-8" standalone="no"?>
<!DOCTYPE svg PUBLIC "-//W3C//DTD SVG 1.1//EN"
 "http://www.w3.org/Graphics/SVG/1.1/DTD/svg11.dtd">
<!-- Generated by graphviz version 2.32.0 (20130809.1645)
 -->
<!-- Title: module_sf_noahlsm::evapo Pages: 1 -->
<svg width="888pt" height="87pt"
 viewBox="0.00 0.00 888.00 87.00" xmlns="http://www.w3.org/2000/svg" xmlns:xlink="http://www.w3.org/1999/xlink">
<g id="graph0" class="graph" transform="scale(1 1) rotate(0) translate(4 83)">
<title>module_sf_noahlsm::evapo</title>
<polygon fill="white" stroke="white" points="-4,5 -4,-83 885,-83 885,5 -4,5"/>
<!-- Node1 -->
<g id="node1" class="node"><title>Node1</title>
<polygon fill="#bfbfbf" stroke="black" points="0,-24 0,-54 110,-54 110,-24 0,-24"/>
<text text-anchor="start" x="8" y="-42" font-family="Helvetica,sans-Serif" font-size="10.00">module_sf_noahlsm::</text>
<text text-anchor="middle" x="55" y="-31" font-family="Helvetica,sans-Serif" font-size="10.00">evapo</text>
</g>
<!-- Node2 -->
<g id="node2" class="node"><title>Node2</title>
<g id="a_node2"><a xlink:href="classmodule__sf__noahlsm.html#a6a17443ddbf15acdb25690cfbb3749a3" target="_top" xlink:title="module_sf_noahlsm::\lnopac">
<polygon fill="white" stroke="black" points="146,-49 146,-79 256,-79 256,-49 146,-49"/>
<text text-anchor="start" x="154" y="-67" font-family="Helvetica,sans-Serif" font-size="10.00">module_sf_noahlsm::</text>
<text text-anchor="middle" x="201" y="-56" font-family="Helvetica,sans-Serif" font-size="10.00">nopac</text>
</a>
</g>
</g>
<!-- Node1&#45;&gt;Node2 -->
<g id="edge1" class="edge"><title>Node1&#45;&gt;Node2</title>
<path fill="none" stroke="midnightblue" d="M119.991,-50.1095C128.561,-51.5974 137.284,-53.1119 145.667,-54.5672"/>
<polygon fill="midnightblue" stroke="midnightblue" points="120.481,-46.6424 110.03,-48.3802 119.284,-53.5392 120.481,-46.6424"/>
</g>
<!-- Node8 -->
<g id="node8" class="node"><title>Node8</title>
<g id="a_node8"><a xlink:href="classmodule__sf__noahlsm.html#a9d1e26133ed89bc5465a230d45d0625d" target="_top" xlink:title="module_sf_noahlsm::\lsnopac">
<polygon fill="white" stroke="black" points="146,-0 146,-30 256,-30 256,-0 146,-0"/>
<text text-anchor="start" x="154" y="-18" font-family="Helvetica,sans-Serif" font-size="10.00">module_sf_noahlsm::</text>
<text text-anchor="middle" x="201" y="-7" font-family="Helvetica,sans-Serif" font-size="10.00">snopac</text>
</a>
</g>
</g>
<!-- Node1&#45;&gt;Node8 -->
<g id="edge7" class="edge"><title>Node1&#45;&gt;Node8</title>
<path fill="none" stroke="midnightblue" d="M119.991,-28.3349C128.561,-26.9065 137.284,-25.4526 145.667,-24.0555"/>
<polygon fill="midnightblue" stroke="midnightblue" points="119.318,-24.8986 110.03,-29.995 120.469,-31.8033 119.318,-24.8986"/>
</g>
<!-- Node3 -->
<g id="node3" class="node"><title>Node3</title>
<g id="a_node3"><a xlink:href="classmodule__sf__noahlsm.html#a7cd9a2732205c21a5f59d679e0a1fddd" target="_top" xlink:title="module_sf_noahlsm::sflx">
<polygon fill="white" stroke="black" points="292.5,-29.5 292.5,-48.5 417.5,-48.5 417.5,-29.5 292.5,-29.5"/>
<text text-anchor="middle" x="355" y="-36.5" font-family="Helvetica,sans-Serif" font-size="10.00">module_sf_noahlsm::sflx</text>
</a>
</g>
</g>
<!-- Node2&#45;&gt;Node3 -->
<g id="edge2" class="edge"><title>Node2&#45;&gt;Node3</title>
<path fill="none" stroke="midnightblue" d="M265.894,-53.4911C275.892,-51.8466 286.178,-50.155 296.034,-48.5339"/>
<polygon fill="midnightblue" stroke="midnightblue" points="265.317,-50.0389 256.017,-55.1155 266.453,-56.9461 265.317,-50.0389"/>
</g>
<!-- Node4 -->
<g id="node4" class="node"><title>Node4</title>
<g id="a_node4"><a xlink:href="classmodule__sf__noahdrv.html#a329dccdd0c1fc2797bc8ebcc9bcc0ff6" target="_top" xlink:title="module_sf_noahdrv::\llsm_noah">
<polygon fill="white" stroke="black" points="454.5,-24 454.5,-54 561.5,-54 561.5,-24 454.5,-24"/>
<text text-anchor="start" x="462.5" y="-42" font-family="Helvetica,sans-Serif" font-size="10.00">module_sf_noahdrv::</text>
<text text-anchor="middle" x="508" y="-31" font-family="Helvetica,sans-Serif" font-size="10.00">lsm_noah</text>
</a>
</g>
</g>
<!-- Node3&#45;&gt;Node4 -->
<g id="edge3" class="edge"><title>Node3&#45;&gt;Node4</title>
<path fill="none" stroke="midnightblue" d="M428.109,-39C436.894,-39 445.74,-39 454.171,-39"/>
<polygon fill="midnightblue" stroke="midnightblue" points="427.853,-35.5001 417.853,-39 427.853,-42.5001 427.853,-35.5001"/>
</g>
<!-- Node5 -->
<g id="node5" class="node"><title>Node5</title>
<g id="a_node5"><a xlink:href="classland__surface.html#a5eda887fb43d0e56a673bbec669be5ad" target="_top" xlink:title="land_surface::lsm">
<polygon fill="white" stroke="black" points="598,-29.5 598,-48.5 692,-48.5 692,-29.5 598,-29.5"/>
<text text-anchor="middle" x="645" y="-36.5" font-family="Helvetica,sans-Serif" font-size="10.00">land_surface::lsm</text>
</a>
</g>
</g>
<!-- Node4&#45;&gt;Node5 -->
<g id="edge4" class="edge"><title>Node4&#45;&gt;Node5</title>
<path fill="none" stroke="midnightblue" d="M571.822,-39C580.617,-39 589.52,-39 597.927,-39"/>
<polygon fill="midnightblue" stroke="midnightblue" points="571.581,-35.5001 561.581,-39 571.581,-42.5001 571.581,-35.5001"/>
</g>
<!-- Node6 -->
<g id="node6" class="node"><title>Node6</title>
<g id="a_node6"><a xlink:href="classtime__step.html#a2c022f11247af72e607b1493289aa974" target="_top" xlink:title=" Step forward one IO time step. ">
<polygon fill="white" stroke="black" points="728,-29.5 728,-48.5 812,-48.5 812,-29.5 728,-29.5"/>
<text text-anchor="middle" x="770" y="-36.5" font-family="Helvetica,sans-Serif" font-size="10.00">time_step::step</text>
</a>
</g>
</g>
<!-- Node5&#45;&gt;Node6 -->
<g id="edge5" class="edge"><title>Node5&#45;&gt;Node6</title>
<path fill="none" stroke="midnightblue" d="M702.191,-39C710.834,-39 719.618,-39 727.853,-39"/>
<polygon fill="midnightblue" stroke="midnightblue" points="702.151,-35.5001 692.151,-39 702.151,-42.5001 702.151,-35.5001"/>
</g>
<!-- Node7 -->
<g id="node7" class="node"><title>Node7</title>
<g id="a_node7"><a xlink:href="driver_8f90.html#ab1e5a5816a57fc6e95d9563c2bb53590" target="_top" xlink:title=" Main Program ">
<polygon fill="white" stroke="black" points="848,-29.5 848,-48.5 880,-48.5 880,-29.5 848,-29.5"/>
<text text-anchor="middle" x="864" y="-36.5" font-family="Helvetica,sans-Serif" font-size="10.00">icar</text>
</a>
</g>
</g>
<!-- Node6&#45;&gt;Node7 -->
<g id="edge6" class="edge"><title>Node6&#45;&gt;Node7</title>
<path fill="none" stroke="midnightblue" d="M822.253,-39C831.521,-39 840.5,-39 847.66,-39"/>
<polygon fill="midnightblue" stroke="midnightblue" points="822.156,-35.5001 812.156,-39 822.156,-42.5001 822.156,-35.5001"/>
</g>
<!-- Node8&#45;&gt;Node3 -->
<g id="edge8" class="edge"><title>Node8&#45;&gt;Node3</title>
<path fill="none" stroke="midnightblue" d="M266.184,-25.1343C275.301,-26.5739 284.651,-28.0502 293.692,-29.4777"/>
<polygon fill="midnightblue" stroke="midnightblue" points="266.441,-21.6316 256.017,-23.5291 265.349,-28.546 266.441,-21.6316"/>
</g>
</g>
</svg>
