<?xml version="1.0" encoding="UTF-8" standalone="no"?>
<!DOCTYPE svg PUBLIC "-//W3C//DTD SVG 1.1//EN"
 "http://www.w3.org/Graphics/SVG/1.1/DTD/svg11.dtd">
<!-- Generated by graphviz version 2.32.0 (20130809.1645)
 -->
<!-- Title: advection::adv_init Pages: 1 -->
<svg width="298pt" height="28pt"
 viewBox="0.00 0.00 298.00 28.00" xmlns="http://www.w3.org/2000/svg" xmlns:xlink="http://www.w3.org/1999/xlink">
<g id="graph0" class="graph" transform="scale(1 1) rotate(0) translate(4 24)">
<title>advection::adv_init</title>
<polygon fill="white" stroke="white" points="-4,5 -4,-24 295,-24 295,5 -4,5"/>
<!-- Node1 -->
<g id="node1" class="node"><title>Node1</title>
<polygon fill="#bfbfbf" stroke="black" points="0,-0.5 0,-19.5 98,-19.5 98,-0.5 0,-0.5"/>
<text text-anchor="middle" x="49" y="-7.5" font-family="Helvetica,sans-Serif" font-size="10.00">advection::adv_init</text>
</g>
<!-- Node2 -->
<g id="node2" class="node"><title>Node2</title>
<g id="a_node2"><a xlink:href="classinit.html#ad066397f42956c6e9d50884a2e84d4e4" target="_top" xlink:title="init::init_physics">
<polygon fill="white" stroke="black" points="134.5,-0.5 134.5,-19.5 221.5,-19.5 221.5,-0.5 134.5,-0.5"/>
<text text-anchor="middle" x="178" y="-7.5" font-family="Helvetica,sans-Serif" font-size="10.00">init::init_physics</text>
</a>
</g>
</g>
<!-- Node1&#45;&gt;Node2 -->
<g id="edge1" class="edge"><title>Node1&#45;&gt;Node2</title>
<path fill="none" stroke="midnightblue" d="M108.233,-10C117.026,-10 125.954,-10 134.338,-10"/>
<polygon fill="midnightblue" stroke="midnightblue" points="108.013,-6.5001 98.0133,-10 108.013,-13.5001 108.013,-6.5001"/>
</g>
<!-- Node3 -->
<g id="node3" class="node"><title>Node3</title>
<g id="a_node3"><a xlink:href="driver_8f90.html#ab1e5a5816a57fc6e95d9563c2bb53590" target="_top" xlink:title=" Main Program ">
<polygon fill="white" stroke="black" points="258,-0.5 258,-19.5 290,-19.5 290,-0.5 258,-0.5"/>
<text text-anchor="middle" x="274" y="-7.5" font-family="Helvetica,sans-Serif" font-size="10.00">icar</text>
</a>
</g>
</g>
<!-- Node2&#45;&gt;Node3 -->
<g id="edge2" class="edge"><title>Node2&#45;&gt;Node3</title>
<path fill="none" stroke="midnightblue" d="M231.69,-10C241.326,-10 250.639,-10 257.975,-10"/>
<polygon fill="midnightblue" stroke="midnightblue" points="231.6,-6.5001 221.599,-10 231.599,-13.5001 231.6,-6.5001"/>
</g>
</g>
</svg>
