<?xml version="1.0" encoding="UTF-8" standalone="no"?>
<!DOCTYPE svg PUBLIC "-//W3C//DTD SVG 1.1//EN"
 "http://www.w3.org/Graphics/SVG/1.1/DTD/svg11.dtd">
<!-- Generated by graphviz version 2.32.0 (20130809.1645)
 -->
<!-- Title: boundary_conditions::remove_linear_winds Pages: 1 -->
<svg width="1170pt" height="493pt"
 viewBox="0.00 0.00 1170.00 493.00" xmlns="http://www.w3.org/2000/svg" xmlns:xlink="http://www.w3.org/1999/xlink">
<g id="graph0" class="graph" transform="scale(1 1) rotate(0) translate(4 489)">
<title>boundary_conditions::remove_linear_winds</title>
<polygon fill="white" stroke="white" points="-4,5 -4,-489 1167,-489 1167,5 -4,5"/>
<!-- Node1 -->
<g id="node1" class="node"><title>Node1</title>
<polygon fill="#bfbfbf" stroke="black" points="0,-130 0,-160 114,-160 114,-130 0,-130"/>
<text text-anchor="start" x="8" y="-148" font-family="Helvetica,sans-Serif" font-size="10.00">boundary_conditions</text>
<text text-anchor="middle" x="57" y="-137" font-family="Helvetica,sans-Serif" font-size="10.00">::remove_linear_winds</text>
</g>
<!-- Node2 -->
<g id="node2" class="node"><title>Node2</title>
<g id="a_node2"><a xlink:href="interfaceio__routines_1_1io__read.html#a9b6dacfccbb234dd949e7136e5b67f8c" target="_top" xlink:title=" Same as io_read6d but for 3&#45;dimensional data ">
<polygon fill="white" stroke="black" points="152.5,-228 152.5,-258 253.5,-258 253.5,-228 152.5,-228"/>
<text text-anchor="start" x="160.5" y="-246" font-family="Helvetica,sans-Serif" font-size="10.00">io_routines::io_read</text>
<text text-anchor="middle" x="203" y="-235" font-family="Helvetica,sans-Serif" font-size="10.00">::io_read3d</text>
</a>
</g>
</g>
<!-- Node1&#45;&gt;Node2 -->
<g id="edge1" class="edge"><title>Node1&#45;&gt;Node2</title>
<path fill="none" stroke="midnightblue" d="M74.7794,-160.208C92.5993,-175.893 122.005,-200.47 150,-218 152.802,-219.754 155.745,-221.472 158.747,-223.133"/>
<polygon fill="midnightblue" stroke="midnightblue" points="157.368,-226.362 167.846,-227.926 160.63,-220.169 157.368,-226.362"/>
</g>
<!-- Node3 -->
<g id="node3" class="node"><title>Node3</title>
<g id="a_node3"><a xlink:href="classboundary__conditions.html#a4ea743610f85b3c52d69af94085b5bfa" target="_top" xlink:title=" Smooth an array (written for wind but will work for anything) ">
<polygon fill="white" stroke="black" points="150,-179 150,-209 256,-209 256,-179 150,-179"/>
<text text-anchor="start" x="158" y="-197" font-family="Helvetica,sans-Serif" font-size="10.00">boundary_conditions</text>
<text text-anchor="middle" x="203" y="-186" font-family="Helvetica,sans-Serif" font-size="10.00">::smooth_wind</text>
</a>
</g>
</g>
<!-- Node1&#45;&gt;Node3 -->
<g id="edge2" class="edge"><title>Node1&#45;&gt;Node3</title>
<path fill="none" stroke="midnightblue" d="M102.38,-160.101C116.751,-164.992 132.853,-170.471 147.851,-175.574"/>
<polygon fill="midnightblue" stroke="midnightblue" points="146.924,-178.956 157.519,-178.864 149.179,-172.329 146.924,-178.956"/>
</g>
<!-- Node4 -->
<g id="node4" class="node"><title>Node4</title>
<g id="a_node4"><a xlink:href="classlinear__theory__winds.html#a248a832d459ec9cd399c372d2ae9cb0a" target="_top" xlink:title="linear_theory_winds\l::linear_perturb">
<polygon fill="white" stroke="black" points="151.5,-130 151.5,-160 254.5,-160 254.5,-130 151.5,-130"/>
<text text-anchor="start" x="159.5" y="-148" font-family="Helvetica,sans-Serif" font-size="10.00">linear_theory_winds</text>
<text text-anchor="middle" x="203" y="-137" font-family="Helvetica,sans-Serif" font-size="10.00">::linear_perturb</text>
</a>
</g>
</g>
<!-- Node1&#45;&gt;Node4 -->
<g id="edge3" class="edge"><title>Node1&#45;&gt;Node4</title>
<path fill="none" stroke="midnightblue" d="M114.086,-145C123.037,-145 132.333,-145 141.383,-145"/>
<polygon fill="midnightblue" stroke="midnightblue" points="141.465,-148.5 151.465,-145 141.465,-141.5 141.465,-148.5"/>
</g>
<!-- Node30 -->
<g id="node30" class="node"><title>Node30</title>
<g id="a_node30"><a xlink:href="classgeo.html#acb54dc322e31524d40cc746c37b28898" target="_top" xlink:title="geo::geo_interp">
<polygon fill="white" stroke="black" points="161.5,-85.5 161.5,-104.5 244.5,-104.5 244.5,-85.5 161.5,-85.5"/>
<text text-anchor="middle" x="203" y="-92.5" font-family="Helvetica,sans-Serif" font-size="10.00">geo::geo_interp</text>
</a>
</g>
</g>
<!-- Node1&#45;&gt;Node30 -->
<g id="edge31" class="edge"><title>Node1&#45;&gt;Node30</title>
<path fill="none" stroke="midnightblue" d="M101.205,-129.998C121.381,-122.993 145.169,-114.733 164.568,-107.997"/>
<polygon fill="midnightblue" stroke="midnightblue" points="165.971,-111.215 174.27,-104.628 163.675,-104.602 165.971,-111.215"/>
</g>
<!-- Node32 -->
<g id="node32" class="node"><title>Node32</title>
<g id="a_node32"><a xlink:href="classvertical__interpolation.html#a2d3f85573f18ea2ab18d6dcdec6a025a" target="_top" xlink:title="vertical_interpolation\l::vinterp">
<polygon fill="white" stroke="black" points="150,-24 150,-54 256,-54 256,-24 150,-24"/>
<text text-anchor="start" x="158" y="-42" font-family="Helvetica,sans-Serif" font-size="10.00">vertical_interpolation</text>
<text text-anchor="middle" x="203" y="-31" font-family="Helvetica,sans-Serif" font-size="10.00">::vinterp</text>
</a>
</g>
</g>
<!-- Node1&#45;&gt;Node32 -->
<g id="edge33" class="edge"><title>Node1&#45;&gt;Node32</title>
<path fill="none" stroke="midnightblue" d="M77.9928,-129.779C96.5566,-115.7 125.012,-94.2559 150,-76 157.202,-70.7383 165.016,-65.1271 172.346,-59.9065"/>
<polygon fill="midnightblue" stroke="midnightblue" points="174.534,-62.6452 180.662,-54.0018 170.482,-56.9377 174.534,-62.6452"/>
</g>
<!-- Node5 -->
<g id="node5" class="node"><title>Node5</title>
<g id="a_node5"><a xlink:href="classlinear__theory__winds.html#a5aed1fad471120ba77c203fa6158a5ba" target="_top" xlink:title="linear_theory_winds\l::setup_linwinds">
<polygon fill="white" stroke="black" points="304.5,-357 304.5,-387 407.5,-387 407.5,-357 304.5,-357"/>
<text text-anchor="start" x="312.5" y="-375" font-family="Helvetica,sans-Serif" font-size="10.00">linear_theory_winds</text>
<text text-anchor="middle" x="356" y="-364" font-family="Helvetica,sans-Serif" font-size="10.00">::setup_linwinds</text>
</a>
</g>
</g>
<!-- Node4&#45;&gt;Node5 -->
<g id="edge4" class="edge"><title>Node4&#45;&gt;Node5</title>
<path fill="none" stroke="midnightblue" d="M244.185,-160.014C248.464,-162.609 252.518,-165.592 256,-169 262.976,-175.829 319.018,-294.9 343.559,-347.435"/>
<polygon fill="midnightblue" stroke="midnightblue" points="340.489,-349.133 347.89,-356.715 346.833,-346.173 340.489,-349.133"/>
</g>
<!-- Node19 -->
<g id="node19" class="node"><title>Node19</title>
<g id="a_node19"><a xlink:href="classlinear__theory__winds.html#a352c9ebbb4416a470bc197c2c3b4c91a" target="_top" xlink:title="linear_theory_winds\l::linear_winds">
<polygon fill="white" stroke="black" points="618.5,-210 618.5,-240 721.5,-240 721.5,-210 618.5,-210"/>
<text text-anchor="start" x="626.5" y="-228" font-family="Helvetica,sans-Serif" font-size="10.00">linear_theory_winds</text>
<text text-anchor="middle" x="670" y="-217" font-family="Helvetica,sans-Serif" font-size="10.00">::linear_winds</text>
</a>
</g>
</g>
<!-- Node4&#45;&gt;Node19 -->
<g id="edge30" class="edge"><title>Node4&#45;&gt;Node19</title>
<path fill="none" stroke="midnightblue" d="M241.643,-160.008C257.054,-165.691 275.186,-171.796 292,-176 401.467,-203.368 532.858,-216.035 608.072,-221.431"/>
<polygon fill="midnightblue" stroke="midnightblue" points="608.085,-224.94 618.304,-222.145 608.572,-217.957 608.085,-224.94"/>
</g>
<!-- Node21 -->
<g id="node21" class="node"><title>Node21</title>
<g id="a_node21"><a xlink:href="classlinear__theory__winds.html#a2e662c05e82b0515704c9ab54f49373a" target="_top" xlink:title="linear_theory_winds\l::spatial_winds">
<polygon fill="white" stroke="black" points="304.5,-137 304.5,-167 407.5,-167 407.5,-137 304.5,-137"/>
<text text-anchor="start" x="312.5" y="-155" font-family="Helvetica,sans-Serif" font-size="10.00">linear_theory_winds</text>
<text text-anchor="middle" x="356" y="-144" font-family="Helvetica,sans-Serif" font-size="10.00">::spatial_winds</text>
</a>
</g>
</g>
<!-- Node4&#45;&gt;Node21 -->
<g id="edge21" class="edge"><title>Node4&#45;&gt;Node21</title>
<path fill="none" stroke="midnightblue" d="M254.701,-147.35C267.343,-147.936 281.029,-148.571 294.107,-149.177"/>
<polygon fill="midnightblue" stroke="midnightblue" points="294.282,-152.689 304.433,-149.656 294.606,-145.696 294.282,-152.689"/>
</g>
<!-- Node29 -->
<g id="node29" class="node"><title>Node29</title>
<g id="a_node29"><a xlink:href="classlinear__theory__winds.html#a00361916b4c433e510597f8af21db6ba" target="_top" xlink:title="linear_theory_winds\l::calc_domain_stability">
<polygon fill="white" stroke="black" points="298,-88 298,-118 414,-118 414,-88 298,-88"/>
<text text-anchor="start" x="306" y="-106" font-family="Helvetica,sans-Serif" font-size="10.00">linear_theory_winds</text>
<text text-anchor="middle" x="356" y="-95" font-family="Helvetica,sans-Serif" font-size="10.00">::calc_domain_stability</text>
</a>
</g>
</g>
<!-- Node4&#45;&gt;Node29 -->
<g id="edge29" class="edge"><title>Node4&#45;&gt;Node29</title>
<path fill="none" stroke="midnightblue" d="M254.701,-130.898C266.464,-127.626 279.131,-124.103 291.371,-120.698"/>
<polygon fill="midnightblue" stroke="midnightblue" points="292.374,-124.052 301.07,-118 290.498,-117.308 292.374,-124.052"/>
</g>
<!-- Node6 -->
<g id="node6" class="node"><title>Node6</title>
<g id="a_node6"><a xlink:href="classlinear__theory__winds.html#abd669b485ef98ac64dad6b8590974da3" target="_top" xlink:title="linear_theory_winds\l::set_module_options">
<polygon fill="white" stroke="black" points="462,-455 462,-485 572,-485 572,-455 462,-455"/>
<text text-anchor="start" x="470" y="-473" font-family="Helvetica,sans-Serif" font-size="10.00">linear_theory_winds</text>
<text text-anchor="middle" x="517" y="-462" font-family="Helvetica,sans-Serif" font-size="10.00">::set_module_options</text>
</a>
</g>
</g>
<!-- Node5&#45;&gt;Node6 -->
<g id="edge5" class="edge"><title>Node5&#45;&gt;Node6</title>
<path fill="none" stroke="midnightblue" d="M374.71,-387.114C393.855,-402.947 425.708,-427.853 456,-445 459.437,-446.946 463.056,-448.827 466.743,-450.624"/>
<polygon fill="midnightblue" stroke="midnightblue" points="465.437,-453.877 475.981,-454.91 468.383,-447.527 465.437,-453.877"/>
</g>
<!-- Node7 -->
<g id="node7" class="node"><title>Node7</title>
<g id="a_node7"><a xlink:href="classlinear__theory__winds.html#a9a4361691c200925fcb5da146c4f0691" target="_top" xlink:title="linear_theory_winds\l::add_buffer_topo">
<polygon fill="white" stroke="black" points="465.5,-406 465.5,-436 568.5,-436 568.5,-406 465.5,-406"/>
<text text-anchor="start" x="473.5" y="-424" font-family="Helvetica,sans-Serif" font-size="10.00">linear_theory_winds</text>
<text text-anchor="middle" x="517" y="-413" font-family="Helvetica,sans-Serif" font-size="10.00">::add_buffer_topo</text>
</a>
</g>
</g>
<!-- Node5&#45;&gt;Node7 -->
<g id="edge6" class="edge"><title>Node5&#45;&gt;Node7</title>
<path fill="none" stroke="midnightblue" d="M406.003,-387.101C422.249,-392.108 440.499,-397.732 457.394,-402.939"/>
<polygon fill="midnightblue" stroke="midnightblue" points="456.572,-406.348 467.159,-405.948 458.633,-399.659 456.572,-406.348"/>
</g>
<!-- Node9 -->
<g id="node9" class="node"><title>Node9</title>
<g id="a_node9"><a xlink:href="interfaceio__routines_1_1io__read.html#a35290f3b01bd8f36bae0173749f6b870" target="_top" xlink:title=" Same as io_read3d but for 2&#45;dimensional data ">
<polygon fill="white" stroke="black" points="466.5,-357 466.5,-387 567.5,-387 567.5,-357 466.5,-357"/>
<text text-anchor="start" x="474.5" y="-375" font-family="Helvetica,sans-Serif" font-size="10.00">io_routines::io_read</text>
<text text-anchor="middle" x="517" y="-364" font-family="Helvetica,sans-Serif" font-size="10.00">::io_read2d</text>
</a>
</g>
</g>
<!-- Node5&#45;&gt;Node9 -->
<g id="edge8" class="edge"><title>Node5&#45;&gt;Node9</title>
<path fill="none" stroke="midnightblue" d="M407.746,-372C423.104,-372 440.116,-372 456.018,-372"/>
<polygon fill="midnightblue" stroke="midnightblue" points="456.279,-375.5 466.279,-372 456.279,-368.5 456.279,-375.5"/>
</g>
<!-- Node10 -->
<g id="node10" class="node"><title>Node10</title>
<g id="a_node10"><a xlink:href="classlinear__theory__winds.html#a1c7117dad74a51614a026a50aec8b988" target="_top" xlink:title="linear_theory_winds\l::initialize_spatial_winds">
<polygon fill="white" stroke="black" points="456,-308 456,-338 578,-338 578,-308 456,-308"/>
<text text-anchor="start" x="464" y="-326" font-family="Helvetica,sans-Serif" font-size="10.00">linear_theory_winds</text>
<text text-anchor="middle" x="517" y="-315" font-family="Helvetica,sans-Serif" font-size="10.00">::initialize_spatial_winds</text>
</a>
</g>
</g>
<!-- Node5&#45;&gt;Node10 -->
<g id="edge9" class="edge"><title>Node5&#45;&gt;Node10</title>
<path fill="none" stroke="midnightblue" d="M406.003,-356.899C422.249,-351.892 440.499,-346.268 457.394,-341.061"/>
<polygon fill="midnightblue" stroke="midnightblue" points="458.633,-344.341 467.159,-338.052 456.572,-337.652 458.633,-344.341"/>
</g>
<!-- Node8 -->
<g id="node8" class="node"><title>Node8</title>
<g id="a_node8"><a xlink:href="interfaceio__routines_1_1io__write.html#a96eb70acfac04d289ad2eb5892062172" target="_top" xlink:title=" Same as io_write3d but for 2&#45;dimensional arrays ">
<polygon fill="white" stroke="black" points="618,-455 618,-485 722,-485 722,-455 618,-455"/>
<text text-anchor="start" x="626" y="-473" font-family="Helvetica,sans-Serif" font-size="10.00">io_routines::io_write</text>
<text text-anchor="middle" x="670" y="-462" font-family="Helvetica,sans-Serif" font-size="10.00">::io_write2d</text>
</a>
</g>
</g>
<!-- Node7&#45;&gt;Node8 -->
<g id="edge7" class="edge"><title>Node7&#45;&gt;Node8</title>
<path fill="none" stroke="midnightblue" d="M564.537,-436.101C579.822,-441.062 596.974,-446.627 612.892,-451.793"/>
<polygon fill="midnightblue" stroke="midnightblue" points="612.025,-455.191 622.617,-454.948 614.185,-448.533 612.025,-455.191"/>
</g>
<!-- Node11 -->
<g id="node11" class="node"><title>Node11</title>
<g id="a_node11"><a xlink:href="classlinear__theory__lut__disk__io.html#a7b4e839b4cee03c05190479e277bc34a" target="_top" xlink:title=" Write linear wind look up tables to disk along with the parameters for that table ...">
<polygon fill="white" stroke="black" points="614.5,-406 614.5,-436 725.5,-436 725.5,-406 614.5,-406"/>
<text text-anchor="start" x="622.5" y="-424" font-family="Helvetica,sans-Serif" font-size="10.00">linear_theory_lut_disk</text>
<text text-anchor="middle" x="670" y="-413" font-family="Helvetica,sans-Serif" font-size="10.00">_io::read_lut</text>
</a>
</g>
</g>
<!-- Node10&#45;&gt;Node11 -->
<g id="edge10" class="edge"><title>Node10&#45;&gt;Node11</title>
<path fill="none" stroke="midnightblue" d="M563.721,-338.098C568.772,-340.678 573.653,-343.635 578,-347 599.368,-363.544 593.019,-378.968 614,-396 616.031,-397.649 618.188,-399.213 620.427,-400.694"/>
<polygon fill="midnightblue" stroke="midnightblue" points="618.992,-403.913 629.38,-405.997 622.56,-397.89 618.992,-403.913"/>
</g>
<!-- Node17 -->
<g id="node17" class="node"><title>Node17</title>
<g id="a_node17"><a xlink:href="classlinear__theory__winds.html#a813750f1f575af521dd81654aff2ee54" target="_top" xlink:title="linear_theory_winds\l::calc_u">
<polygon fill="white" stroke="black" points="618.5,-357 618.5,-387 721.5,-387 721.5,-357 618.5,-357"/>
<text text-anchor="start" x="626.5" y="-375" font-family="Helvetica,sans-Serif" font-size="10.00">linear_theory_winds</text>
<text text-anchor="middle" x="670" y="-364" font-family="Helvetica,sans-Serif" font-size="10.00">::calc_u</text>
</a>
</g>
</g>
<!-- Node10&#45;&gt;Node17 -->
<g id="edge16" class="edge"><title>Node10&#45;&gt;Node17</title>
<path fill="none" stroke="midnightblue" d="M564.537,-338.101C579.822,-343.062 596.974,-348.627 612.892,-353.793"/>
<polygon fill="midnightblue" stroke="midnightblue" points="612.025,-357.191 622.617,-356.948 614.185,-350.533 612.025,-357.191"/>
</g>
<!-- Node18 -->
<g id="node18" class="node"><title>Node18</title>
<g id="a_node18"><a xlink:href="classlinear__theory__winds.html#adbd589b5f5daf777414839f415fe8dbb" target="_top" xlink:title="linear_theory_winds\l::calc_v">
<polygon fill="white" stroke="black" points="618.5,-308 618.5,-338 721.5,-338 721.5,-308 618.5,-308"/>
<text text-anchor="start" x="626.5" y="-326" font-family="Helvetica,sans-Serif" font-size="10.00">linear_theory_winds</text>
<text text-anchor="middle" x="670" y="-315" font-family="Helvetica,sans-Serif" font-size="10.00">::calc_v</text>
</a>
</g>
</g>
<!-- Node10&#45;&gt;Node18 -->
<g id="edge17" class="edge"><title>Node10&#45;&gt;Node18</title>
<path fill="none" stroke="midnightblue" d="M578.113,-323C588.002,-323 598.258,-323 608.164,-323"/>
<polygon fill="midnightblue" stroke="midnightblue" points="608.33,-326.5 618.33,-323 608.33,-319.5 608.33,-326.5"/>
</g>
<!-- Node10&#45;&gt;Node19 -->
<g id="edge18" class="edge"><title>Node10&#45;&gt;Node19</title>
<path fill="none" stroke="midnightblue" d="M535.114,-307.711C553.629,-291.687 584.476,-266.461 614,-249 616.606,-247.459 619.329,-245.958 622.11,-244.509"/>
<polygon fill="midnightblue" stroke="midnightblue" points="623.691,-247.631 631.109,-240.067 620.593,-241.354 623.691,-247.631"/>
</g>
<!-- Node20 -->
<g id="node20" class="node"><title>Node20</title>
<g id="a_node20"><a xlink:href="classlinear__theory__lut__disk__io.html#a839923739fe9f10f439952d059c3261d" target="_top" xlink:title=" Write linear wind look up tables to disk along with the parameters for that table ...">
<polygon fill="white" stroke="black" points="614.5,-259 614.5,-289 725.5,-289 725.5,-259 614.5,-259"/>
<text text-anchor="start" x="622.5" y="-277" font-family="Helvetica,sans-Serif" font-size="10.00">linear_theory_lut_disk</text>
<text text-anchor="middle" x="670" y="-266" font-family="Helvetica,sans-Serif" font-size="10.00">_io::write_lut</text>
</a>
</g>
</g>
<!-- Node10&#45;&gt;Node20 -->
<g id="edge19" class="edge"><title>Node10&#45;&gt;Node20</title>
<path fill="none" stroke="midnightblue" d="M564.537,-307.899C579.822,-302.938 596.974,-297.373 612.892,-292.207"/>
<polygon fill="midnightblue" stroke="midnightblue" points="614.185,-295.467 622.617,-289.052 612.025,-288.809 614.185,-295.467"/>
</g>
<!-- Node12 -->
<g id="node12" class="node"><title>Node12</title>
<g id="a_node12"><a xlink:href="classio__routines.html#a2f5490f632bd50662c7da9fd964e88e3" target="_top" xlink:title=" Tests to see if a file exists ">
<polygon fill="white" stroke="black" points="762,-303.5 762,-322.5 876,-322.5 876,-303.5 762,-303.5"/>
<text text-anchor="middle" x="819" y="-310.5" font-family="Helvetica,sans-Serif" font-size="10.00">io_routines::file_exists</text>
</a>
</g>
</g>
<!-- Node11&#45;&gt;Node12 -->
<g id="edge11" class="edge"><title>Node11&#45;&gt;Node12</title>
<path fill="none" stroke="midnightblue" d="M708.224,-405.975C714.337,-402.977 720.474,-399.623 726,-396 755.329,-376.771 784.614,-348.372 802.017,-330.281"/>
<polygon fill="midnightblue" stroke="midnightblue" points="804.8,-332.432 809.134,-322.764 799.717,-327.619 804.8,-332.432"/>
</g>
<!-- Node13 -->
<g id="node13" class="node"><title>Node13</title>
<g id="a_node13"><a xlink:href="classlinear__theory__lut__disk__io.html#a941618f7357edb1ceb9ecfa66f9c8151" target="_top" xlink:title=" Check that the dimensions of a LUT file and current expected LUT match ">
<polygon fill="white" stroke="black" points="763.5,-430 763.5,-460 874.5,-460 874.5,-430 763.5,-430"/>
<text text-anchor="start" x="771.5" y="-448" font-family="Helvetica,sans-Serif" font-size="10.00">linear_theory_lut_disk</text>
<text text-anchor="middle" x="819" y="-437" font-family="Helvetica,sans-Serif" font-size="10.00">_io::dims_match</text>
</a>
</g>
</g>
<!-- Node11&#45;&gt;Node13 -->
<g id="edge12" class="edge"><title>Node11&#45;&gt;Node13</title>
<path fill="none" stroke="midnightblue" d="M725.737,-429.937C734.729,-431.405 744.123,-432.938 753.329,-434.441"/>
<polygon fill="midnightblue" stroke="midnightblue" points="752.784,-437.899 763.217,-436.056 753.912,-430.99 752.784,-437.899"/>
</g>
<!-- Node16 -->
<g id="node16" class="node"><title>Node16</title>
<g id="a_node16"><a xlink:href="classlinear__theory__lut__disk__io.html#acd8076f02eabf99278d4b3f142688be2" target="_top" xlink:title=" Check that the dz level thicknesses of a LUT file and current domain match ">
<polygon fill="white" stroke="black" points="763.5,-381 763.5,-411 874.5,-411 874.5,-381 763.5,-381"/>
<text text-anchor="start" x="771.5" y="-399" font-family="Helvetica,sans-Serif" font-size="10.00">linear_theory_lut_disk</text>
<text text-anchor="middle" x="819" y="-388" font-family="Helvetica,sans-Serif" font-size="10.00">_io::check_dz</text>
</a>
</g>
</g>
<!-- Node11&#45;&gt;Node16 -->
<g id="edge15" class="edge"><title>Node11&#45;&gt;Node16</title>
<path fill="none" stroke="midnightblue" d="M725.737,-411.691C734.729,-410.162 744.123,-408.564 753.329,-406.998"/>
<polygon fill="midnightblue" stroke="midnightblue" points="753.945,-410.444 763.217,-405.317 752.772,-403.543 753.945,-410.444"/>
</g>
<!-- Node14 -->
<g id="node14" class="node"><title>Node14</title>
<g id="a_node14"><a xlink:href="classio__routines.html#ae987ea578b7a3fe5c0d51363e0f154a7" target="_top" xlink:title=" Read the dimensions of a variable in a given netcdf file ">
<polygon fill="white" stroke="black" points="912.5,-435.5 912.5,-454.5 1029.5,-454.5 1029.5,-435.5 912.5,-435.5"/>
<text text-anchor="middle" x="971" y="-442.5" font-family="Helvetica,sans-Serif" font-size="10.00">io_routines::io_getdims</text>
</a>
</g>
</g>
<!-- Node13&#45;&gt;Node14 -->
<g id="edge13" class="edge"><title>Node13&#45;&gt;Node14</title>
<path fill="none" stroke="midnightblue" d="M874.578,-445C883.621,-445 893.092,-445 902.41,-445"/>
<polygon fill="midnightblue" stroke="midnightblue" points="902.433,-448.5 912.433,-445 902.433,-441.5 902.433,-448.5"/>
</g>
<!-- Node15 -->
<g id="node15" class="node"><title>Node15</title>
<g id="a_node15"><a xlink:href="classio__routines.html#ac4835ed66f2e10d8e5bb40f6122f0ca1" target="_top" xlink:title=" Simple error handling for common netcdf file errors ">
<polygon fill="white" stroke="black" points="1066,-435.5 1066,-454.5 1162,-454.5 1162,-435.5 1066,-435.5"/>
<text text-anchor="middle" x="1114" y="-442.5" font-family="Helvetica,sans-Serif" font-size="10.00">io_routines::check</text>
</a>
</g>
</g>
<!-- Node14&#45;&gt;Node15 -->
<g id="edge14" class="edge"><title>Node14&#45;&gt;Node15</title>
<path fill="none" stroke="midnightblue" d="M1029.76,-445C1038.3,-445 1047.1,-445 1055.64,-445"/>
<polygon fill="midnightblue" stroke="midnightblue" points="1055.88,-448.5 1065.88,-445 1055.88,-441.5 1055.88,-448.5"/>
</g>
<!-- Node20&#45;&gt;Node12 -->
<g id="edge20" class="edge"><title>Node20&#45;&gt;Node12</title>
<path fill="none" stroke="midnightblue" d="M725.737,-288.522C740.992,-292.569 757.402,-296.923 772.092,-300.82"/>
<polygon fill="midnightblue" stroke="midnightblue" points="771.388,-304.255 781.952,-303.436 773.183,-297.489 771.388,-304.255"/>
</g>
<!-- Node22 -->
<g id="node22" class="node"><title>Node22</title>
<g id="a_node22"><a xlink:href="classlinear__theory__winds.html#a027dc1b837380d8d4fbe2e9689e9ed46" target="_top" xlink:title="linear_theory_winds\l::calc_stability">
<polygon fill="white" stroke="black" points="465.5,-162 465.5,-192 568.5,-192 568.5,-162 465.5,-162"/>
<text text-anchor="start" x="473.5" y="-180" font-family="Helvetica,sans-Serif" font-size="10.00">linear_theory_winds</text>
<text text-anchor="middle" x="517" y="-169" font-family="Helvetica,sans-Serif" font-size="10.00">::calc_stability</text>
</a>
</g>
</g>
<!-- Node21&#45;&gt;Node22 -->
<g id="edge22" class="edge"><title>Node21&#45;&gt;Node22</title>
<path fill="none" stroke="midnightblue" d="M407.746,-159.979C422.88,-162.358 439.621,-164.991 455.323,-167.46"/>
<polygon fill="midnightblue" stroke="midnightblue" points="455.041,-170.958 465.464,-169.054 456.129,-164.043 455.041,-170.958"/>
</g>
<!-- Node26 -->
<g id="node26" class="node"><title>Node26</title>
<g id="a_node26"><a xlink:href="classlinear__theory__winds.html#a5d36c6dd3036dc8a25e356c875f057f1" target="_top" xlink:title="linear_theory_winds\l::calc_direction">
<polygon fill="white" stroke="black" points="465.5,-113 465.5,-143 568.5,-143 568.5,-113 465.5,-113"/>
<text text-anchor="start" x="473.5" y="-131" font-family="Helvetica,sans-Serif" font-size="10.00">linear_theory_winds</text>
<text text-anchor="middle" x="517" y="-120" font-family="Helvetica,sans-Serif" font-size="10.00">::calc_direction</text>
</a>
</g>
</g>
<!-- Node21&#45;&gt;Node26 -->
<g id="edge26" class="edge"><title>Node21&#45;&gt;Node26</title>
<path fill="none" stroke="midnightblue" d="M407.746,-144.34C422.88,-142.056 439.621,-139.529 455.323,-137.159"/>
<polygon fill="midnightblue" stroke="midnightblue" points="456.098,-140.582 465.464,-135.628 455.053,-133.66 456.098,-140.582"/>
</g>
<!-- Node27 -->
<g id="node27" class="node"><title>Node27</title>
<g id="a_node27"><a xlink:href="classlinear__theory__winds.html#aee928bfcffbea89852741b027a26b8c3" target="_top" xlink:title="linear_theory_winds\l::calc_speed">
<polygon fill="white" stroke="black" points="465.5,-64 465.5,-94 568.5,-94 568.5,-64 465.5,-64"/>
<text text-anchor="start" x="473.5" y="-82" font-family="Helvetica,sans-Serif" font-size="10.00">linear_theory_winds</text>
<text text-anchor="middle" x="517" y="-71" font-family="Helvetica,sans-Serif" font-size="10.00">::calc_speed</text>
</a>
</g>
</g>
<!-- Node21&#45;&gt;Node27 -->
<g id="edge27" class="edge"><title>Node21&#45;&gt;Node27</title>
<path fill="none" stroke="midnightblue" d="M398.565,-136.948C405.83,-133.911 413.226,-130.552 420,-127 437.031,-118.071 438.981,-111.952 456,-103 459.123,-101.357 462.384,-99.7558 465.703,-98.2104"/>
<polygon fill="midnightblue" stroke="midnightblue" points="467.423,-101.276 475.139,-94.0156 464.58,-94.8795 467.423,-101.276"/>
</g>
<!-- Node28 -->
<g id="node28" class="node"><title>Node28</title>
<g id="a_node28"><a xlink:href="classlinear__theory__winds.html#a78baa74b650a59202683598d0b34fde2" target="_top" xlink:title="linear_theory_winds\l::calc_weight">
<polygon fill="white" stroke="black" points="465.5,-15 465.5,-45 568.5,-45 568.5,-15 465.5,-15"/>
<text text-anchor="start" x="473.5" y="-33" font-family="Helvetica,sans-Serif" font-size="10.00">linear_theory_winds</text>
<text text-anchor="middle" x="517" y="-22" font-family="Helvetica,sans-Serif" font-size="10.00">::calc_weight</text>
</a>
</g>
</g>
<!-- Node21&#45;&gt;Node28 -->
<g id="edge28" class="edge"><title>Node21&#45;&gt;Node28</title>
<path fill="none" stroke="midnightblue" d="M405.965,-136.893C411.039,-134.103 415.849,-130.83 420,-127 446.587,-102.469 429.447,-78.5676 456,-54 457.274,-52.8214 458.613,-51.6976 460.004,-50.6263"/>
<polygon fill="midnightblue" stroke="midnightblue" points="462.041,-53.4757 468.462,-45.0484 458.187,-47.632 462.041,-53.4757"/>
</g>
<!-- Node23 -->
<g id="node23" class="node"><title>Node23</title>
<g id="a_node23"><a xlink:href="classlinear__theory__winds.html#ad578ccb07e18c99e958d5ae7c43f3c19" target="_top" xlink:title="linear_theory_winds\l::calc_dry_stability">
<polygon fill="white" stroke="black" points="618.5,-161 618.5,-191 721.5,-191 721.5,-161 618.5,-161"/>
<text text-anchor="start" x="626.5" y="-179" font-family="Helvetica,sans-Serif" font-size="10.00">linear_theory_winds</text>
<text text-anchor="middle" x="670" y="-168" font-family="Helvetica,sans-Serif" font-size="10.00">::calc_dry_stability</text>
</a>
</g>
</g>
<!-- Node22&#45;&gt;Node23 -->
<g id="edge23" class="edge"><title>Node22&#45;&gt;Node23</title>
<path fill="none" stroke="midnightblue" d="M568.701,-176.664C581.343,-176.581 595.029,-176.49 608.107,-176.403"/>
<polygon fill="midnightblue" stroke="midnightblue" points="608.456,-179.901 618.433,-176.335 608.41,-172.901 608.456,-179.901"/>
</g>
<!-- Node24 -->
<g id="node24" class="node"><title>Node24</title>
<g id="a_node24"><a xlink:href="classlinear__theory__winds.html#af214d362ee340566892db3d7f0470c63" target="_top" xlink:title="linear_theory_winds\l::calc_moist_stability">
<polygon fill="white" stroke="black" points="615.5,-112 615.5,-142 724.5,-142 724.5,-112 615.5,-112"/>
<text text-anchor="start" x="623.5" y="-130" font-family="Helvetica,sans-Serif" font-size="10.00">linear_theory_winds</text>
<text text-anchor="middle" x="670" y="-119" font-family="Helvetica,sans-Serif" font-size="10.00">::calc_moist_stability</text>
</a>
</g>
</g>
<!-- Node22&#45;&gt;Node24 -->
<g id="edge24" class="edge"><title>Node22&#45;&gt;Node24</title>
<path fill="none" stroke="midnightblue" d="M563.305,-161.998C579.208,-156.732 597.252,-150.758 613.872,-145.254"/>
<polygon fill="midnightblue" stroke="midnightblue" points="615.073,-148.543 623.466,-142.077 612.873,-141.898 615.073,-148.543"/>
</g>
<!-- Node25 -->
<g id="node25" class="node"><title>Node25</title>
<g id="a_node25"><a xlink:href="classlinear__theory__winds.html#afe0e22332a64bd0a17cc533e6f1048fd" target="_top" xlink:title="linear_theory_winds\l::calc_sat_lapse_rate">
<polygon fill="white" stroke="black" points="764,-112 764,-142 874,-142 874,-112 764,-112"/>
<text text-anchor="start" x="772" y="-130" font-family="Helvetica,sans-Serif" font-size="10.00">linear_theory_winds</text>
<text text-anchor="middle" x="819" y="-119" font-family="Helvetica,sans-Serif" font-size="10.00">::calc_sat_lapse_rate</text>
</a>
</g>
</g>
<!-- Node24&#45;&gt;Node25 -->
<g id="edge25" class="edge"><title>Node24&#45;&gt;Node25</title>
<path fill="none" stroke="midnightblue" d="M724.903,-127C734.17,-127 743.885,-127 753.399,-127"/>
<polygon fill="midnightblue" stroke="midnightblue" points="753.612,-130.5 763.612,-127 753.612,-123.5 753.612,-130.5"/>
</g>
<!-- Node31 -->
<g id="node31" class="node"><title>Node31</title>
<g id="a_node31"><a xlink:href="classgeo.html#a61629d616a7b4ee1cd910362724f0f6d" target="_top" xlink:title="geo::boundary_interpolate">
<polygon fill="white" stroke="black" points="292,-49.5 292,-68.5 420,-68.5 420,-49.5 292,-49.5"/>
<text text-anchor="middle" x="356" y="-56.5" font-family="Helvetica,sans-Serif" font-size="10.00">geo::boundary_interpolate</text>
</a>
</g>
</g>
<!-- Node30&#45;&gt;Node31 -->
<g id="edge32" class="edge"><title>Node30&#45;&gt;Node31</title>
<path fill="none" stroke="midnightblue" d="M244.069,-85.4472C262.83,-80.9744 285.365,-75.6017 305.21,-70.8706"/>
<polygon fill="midnightblue" stroke="midnightblue" points="306.091,-74.2587 315.006,-68.5349 304.467,-67.4496 306.091,-74.2587"/>
</g>
<!-- Node33 -->
<g id="node33" class="node"><title>Node33</title>
<g id="a_node33"><a xlink:href="classvertical__interpolation.html#a2625ecb49efcd1aaccf31125071f03e4" target="_top" xlink:title="vertical_interpolation\l::vinterp_boundary">
<polygon fill="white" stroke="black" points="303,-0 303,-30 409,-30 409,-0 303,-0"/>
<text text-anchor="start" x="311" y="-18" font-family="Helvetica,sans-Serif" font-size="10.00">vertical_interpolation</text>
<text text-anchor="middle" x="356" y="-7" font-family="Helvetica,sans-Serif" font-size="10.00">::vinterp_boundary</text>
</a>
</g>
</g>
<!-- Node32&#45;&gt;Node33 -->
<g id="edge34" class="edge"><title>Node32&#45;&gt;Node33</title>
<path fill="none" stroke="midnightblue" d="M256.389,-30.6733C268.168,-28.8012 280.777,-26.797 292.909,-24.8687"/>
<polygon fill="midnightblue" stroke="midnightblue" points="293.633,-28.2978 302.959,-23.2714 292.534,-21.3846 293.633,-28.2978"/>
</g>
</g>
</svg>
