<?xml version="1.0" encoding="UTF-8" standalone="no"?>
<!DOCTYPE svg PUBLIC "-//W3C//DTD SVG 1.1//EN"
 "http://www.w3.org/Graphics/SVG/1.1/DTD/svg11.dtd">
<!-- Generated by graphviz version 2.32.0 (20130809.1645)
 -->
<!-- Title: module_mp_simple::mp_conversions Pages: 1 -->
<svg width="498pt" height="126pt"
 viewBox="0.00 0.00 498.00 126.00" xmlns="http://www.w3.org/2000/svg" xmlns:xlink="http://www.w3.org/1999/xlink">
<g id="graph0" class="graph" transform="scale(1 1) rotate(0) translate(4 122)">
<title>module_mp_simple::mp_conversions</title>
<polygon fill="white" stroke="white" points="-4,5 -4,-122 495,-122 495,5 -4,5"/>
<!-- Node1 -->
<g id="node1" class="node"><title>Node1</title>
<polygon fill="#bfbfbf" stroke="black" points="0,-44 0,-74 120,-74 120,-44 0,-44"/>
<text text-anchor="start" x="8" y="-62" font-family="Helvetica,sans-Serif" font-size="10.00">module_mp_simple::mp</text>
<text text-anchor="middle" x="60" y="-51" font-family="Helvetica,sans-Serif" font-size="10.00">_conversions</text>
</g>
<!-- Node2 -->
<g id="node2" class="node"><title>Node2</title>
<g id="a_node2"><a xlink:href="classmodule__mp__simple.html#aa0106ae6c82c8b14c49b4afd1871e12b" target="_top" xlink:title=" Convert cloud water to vapor and back ">
<polygon fill="white" stroke="black" points="186,-88 186,-118 316,-118 316,-88 186,-88"/>
<text text-anchor="start" x="194" y="-106" font-family="Helvetica,sans-Serif" font-size="10.00">module_mp_simple::cloud</text>
<text text-anchor="middle" x="251" y="-95" font-family="Helvetica,sans-Serif" font-size="10.00">_conversion</text>
</a>
</g>
</g>
<!-- Node1&#45;&gt;Node2 -->
<g id="edge1" class="edge"><title>Node1&#45;&gt;Node2</title>
<path fill="none" stroke="midnightblue" d="M120.023,-72.7409C137.743,-76.866 157.409,-81.4443 175.968,-85.7651"/>
<polygon fill="midnightblue" stroke="midnightblue" points="175.317,-89.207 185.85,-88.0656 176.904,-82.3893 175.317,-89.207"/>
</g>
<!-- Node4 -->
<g id="node4" class="node"><title>Node4</title>
<g id="a_node4"><a xlink:href="classmodule__mp__simple.html#a012afbddb9dca5c40bc5bfbe63b275c8" target="_top" xlink:title=" Convert cloud water or ice to rain or snow ">
<polygon fill="white" stroke="black" points="156.5,-49.5 156.5,-68.5 345.5,-68.5 345.5,-49.5 156.5,-49.5"/>
<text text-anchor="middle" x="251" y="-56.5" font-family="Helvetica,sans-Serif" font-size="10.00">module_mp_simple::cloud2hydrometeor</text>
</a>
</g>
</g>
<!-- Node1&#45;&gt;Node4 -->
<g id="edge3" class="edge"><title>Node1&#45;&gt;Node4</title>
<path fill="none" stroke="midnightblue" d="M120.023,-59C128.444,-59 137.303,-59 146.275,-59"/>
<polygon fill="midnightblue" stroke="midnightblue" points="146.435,-62.5001 156.435,-59 146.435,-55.5001 146.435,-62.5001"/>
</g>
<!-- Node5 -->
<g id="node5" class="node"><title>Node5</title>
<g id="a_node5"><a xlink:href="classmodule__mp__simple.html#aaf815931c9bfa8e29cd64e1133e8ac4d" target="_top" xlink:title=" Change the &quot;phase&quot; of a hydrometeor (e.g. evaporate rain) ">
<polygon fill="white" stroke="black" points="184.5,-0 184.5,-30 317.5,-30 317.5,-0 184.5,-0"/>
<text text-anchor="start" x="192.5" y="-18" font-family="Helvetica,sans-Serif" font-size="10.00">module_mp_simple::phase</text>
<text text-anchor="middle" x="251" y="-7" font-family="Helvetica,sans-Serif" font-size="10.00">_change</text>
</a>
</g>
</g>
<!-- Node1&#45;&gt;Node5 -->
<g id="edge4" class="edge"><title>Node1&#45;&gt;Node5</title>
<path fill="none" stroke="midnightblue" d="M120.023,-45.2591C137.651,-41.1554 157.205,-36.6031 175.68,-32.3021"/>
<polygon fill="midnightblue" stroke="midnightblue" points="176.573,-35.6879 185.519,-30.0116 174.985,-28.8702 176.573,-35.6879"/>
</g>
<!-- Node3 -->
<g id="node3" class="node"><title>Node3</title>
<g id="a_node3"><a xlink:href="classland__surface.html#ab611d871ec5af4909055c4484c2695e9" target="_top" xlink:title="land_surface::sat_mr">
<polygon fill="white" stroke="black" points="382,-93.5 382,-112.5 490,-112.5 490,-93.5 382,-93.5"/>
<text text-anchor="middle" x="436" y="-100.5" font-family="Helvetica,sans-Serif" font-size="10.00">land_surface::sat_mr</text>
</a>
</g>
</g>
<!-- Node2&#45;&gt;Node3 -->
<g id="edge2" class="edge"><title>Node2&#45;&gt;Node3</title>
<path fill="none" stroke="midnightblue" d="M316.005,-103C334.096,-103 353.769,-103 371.812,-103"/>
<polygon fill="midnightblue" stroke="midnightblue" points="371.934,-106.5 381.934,-103 371.934,-99.5001 371.934,-106.5"/>
</g>
</g>
</svg>
