<?xml version="1.0" encoding="UTF-8" standalone="no"?>
<!DOCTYPE svg PUBLIC "-//W3C//DTD SVG 1.1//EN"
 "http://www.w3.org/Graphics/SVG/1.1/DTD/svg11.dtd">
<!-- Generated by graphviz version 2.38.0 (20140413.2041)
 -->
<!-- Title: linear_theory_winds::spatial_winds Pages: 1 -->
<svg width="541pt" height="210pt"
 viewBox="0.00 0.00 541.00 210.00" xmlns="http://www.w3.org/2000/svg" xmlns:xlink="http://www.w3.org/1999/xlink">
<g id="graph0" class="graph" transform="scale(1 1) rotate(0) translate(4 206)">
<title>linear_theory_winds::spatial_winds</title>
<polygon fill="white" stroke="none" points="-4,4 -4,-206 537,-206 537,4 -4,4"/>
<!-- Node1 -->
<g id="node1" class="node"><title>Node1</title>
<polygon fill="#bfbfbf" stroke="black" points="0,-73.5 0,-103.5 103,-103.5 103,-73.5 0,-73.5"/>
<text text-anchor="start" x="8" y="-91.5" font-family="Helvetica,sans-Serif" font-size="10.00">linear_theory_winds</text>
<text text-anchor="middle" x="51.5" y="-80.5" font-family="Helvetica,sans-Serif" font-size="10.00">::spatial_winds</text>
</g>
<!-- Node2 -->
<g id="node2" class="node"><title>Node2</title>
<g id="a_node2"><a xlink:href="classlinear__theory__winds.html#a027dc1b837380d8d4fbe2e9689e9ed46" target="_top" xlink:title="linear_theory_winds\l::calc_stability">
<polygon fill="white" stroke="black" points="139,-147.5 139,-177.5 242,-177.5 242,-147.5 139,-147.5"/>
<text text-anchor="start" x="147" y="-165.5" font-family="Helvetica,sans-Serif" font-size="10.00">linear_theory_winds</text>
<text text-anchor="middle" x="190.5" y="-154.5" font-family="Helvetica,sans-Serif" font-size="10.00">::calc_stability</text>
</a>
</g>
</g>
<!-- Node1&#45;&gt;Node2 -->
<g id="edge1" class="edge"><title>Node1&#45;&gt;Node2</title>
<path fill="none" stroke="midnightblue" d="M77.56,-103.701C94.6707,-113.902 117.965,-127.445 139,-138.5 141.747,-139.944 144.595,-141.401 147.477,-142.846"/>
<polygon fill="midnightblue" stroke="midnightblue" points="146.193,-146.115 156.711,-147.388 149.283,-139.834 146.193,-146.115"/>
</g>
<!-- Node6 -->
<g id="node6" class="node"><title>Node6</title>
<g id="a_node6"><a xlink:href="classlinear__theory__winds.html#a5d36c6dd3036dc8a25e356c875f057f1" target="_top" xlink:title="linear_theory_winds\l::calc_direction">
<polygon fill="white" stroke="black" points="139,-98.5 139,-128.5 242,-128.5 242,-98.5 139,-98.5"/>
<text text-anchor="start" x="147" y="-116.5" font-family="Helvetica,sans-Serif" font-size="10.00">linear_theory_winds</text>
<text text-anchor="middle" x="190.5" y="-105.5" font-family="Helvetica,sans-Serif" font-size="10.00">::calc_direction</text>
</a>
</g>
</g>
<!-- Node1&#45;&gt;Node6 -->
<g id="edge5" class="edge"><title>Node1&#45;&gt;Node6</title>
<path fill="none" stroke="midnightblue" d="M103.125,-97.738C111.452,-99.2576 120.158,-100.846 128.703,-102.406"/>
<polygon fill="midnightblue" stroke="midnightblue" points="128.16,-105.864 138.626,-104.216 129.417,-98.9781 128.16,-105.864"/>
</g>
<!-- Node7 -->
<g id="node7" class="node"><title>Node7</title>
<g id="a_node7"><a xlink:href="classlinear__theory__winds.html#aee928bfcffbea89852741b027a26b8c3" target="_top" xlink:title="linear_theory_winds\l::calc_speed">
<polygon fill="white" stroke="black" points="139,-49.5 139,-79.5 242,-79.5 242,-49.5 139,-49.5"/>
<text text-anchor="start" x="147" y="-67.5" font-family="Helvetica,sans-Serif" font-size="10.00">linear_theory_winds</text>
<text text-anchor="middle" x="190.5" y="-56.5" font-family="Helvetica,sans-Serif" font-size="10.00">::calc_speed</text>
</a>
</g>
</g>
<!-- Node1&#45;&gt;Node7 -->
<g id="edge6" class="edge"><title>Node1&#45;&gt;Node7</title>
<path fill="none" stroke="midnightblue" d="M103.125,-79.6315C111.452,-78.1727 120.158,-76.6475 128.703,-75.1506"/>
<polygon fill="midnightblue" stroke="midnightblue" points="129.38,-78.5853 138.626,-73.4122 128.172,-71.6903 129.38,-78.5853"/>
</g>
<!-- Node8 -->
<g id="node8" class="node"><title>Node8</title>
<g id="a_node8"><a xlink:href="classlinear__theory__winds.html#a78baa74b650a59202683598d0b34fde2" target="_top" xlink:title="linear_theory_winds\l::calc_weight">
<polygon fill="white" stroke="black" points="139,-0.5 139,-30.5 242,-30.5 242,-0.5 139,-0.5"/>
<text text-anchor="start" x="147" y="-18.5" font-family="Helvetica,sans-Serif" font-size="10.00">linear_theory_winds</text>
<text text-anchor="middle" x="190.5" y="-7.5" font-family="Helvetica,sans-Serif" font-size="10.00">::calc_weight</text>
</a>
</g>
</g>
<!-- Node1&#45;&gt;Node8 -->
<g id="edge7" class="edge"><title>Node1&#45;&gt;Node8</title>
<path fill="none" stroke="midnightblue" d="M78.8258,-73.4707C95.8757,-63.8417 118.62,-51.1915 139,-40.5 142.314,-38.7616 145.764,-36.9846 149.237,-35.2193"/>
<polygon fill="midnightblue" stroke="midnightblue" points="151.043,-38.2289 158.404,-30.6084 147.897,-31.9755 151.043,-38.2289"/>
</g>
<!-- Node3 -->
<g id="node3" class="node"><title>Node3</title>
<g id="a_node3"><a xlink:href="classlinear__theory__winds.html#ad578ccb07e18c99e958d5ae7c43f3c19" target="_top" xlink:title="linear_theory_winds\l::calc_dry_stability">
<polygon fill="white" stroke="black" points="281,-171.5 281,-201.5 384,-201.5 384,-171.5 281,-171.5"/>
<text text-anchor="start" x="289" y="-189.5" font-family="Helvetica,sans-Serif" font-size="10.00">linear_theory_winds</text>
<text text-anchor="middle" x="332.5" y="-178.5" font-family="Helvetica,sans-Serif" font-size="10.00">::calc_dry_stability</text>
</a>
</g>
</g>
<!-- Node2&#45;&gt;Node3 -->
<g id="edge2" class="edge"><title>Node2&#45;&gt;Node3</title>
<path fill="none" stroke="midnightblue" d="M242.043,-171.165C251.246,-172.742 260.936,-174.403 270.406,-176.027"/>
<polygon fill="midnightblue" stroke="midnightblue" points="270.113,-179.528 280.561,-177.768 271.296,-172.628 270.113,-179.528"/>
</g>
<!-- Node4 -->
<g id="node4" class="node"><title>Node4</title>
<g id="a_node4"><a xlink:href="classlinear__theory__winds.html#af214d362ee340566892db3d7f0470c63" target="_top" xlink:title="linear_theory_winds\l::calc_moist_stability">
<polygon fill="white" stroke="black" points="278,-122.5 278,-152.5 387,-152.5 387,-122.5 278,-122.5"/>
<text text-anchor="start" x="286" y="-140.5" font-family="Helvetica,sans-Serif" font-size="10.00">linear_theory_winds</text>
<text text-anchor="middle" x="332.5" y="-129.5" font-family="Helvetica,sans-Serif" font-size="10.00">::calc_moist_stability</text>
</a>
</g>
</g>
<!-- Node2&#45;&gt;Node4 -->
<g id="edge3" class="edge"><title>Node2&#45;&gt;Node4</title>
<path fill="none" stroke="midnightblue" d="M242.043,-153.474C250.375,-151.987 259.106,-150.428 267.711,-148.891"/>
<polygon fill="midnightblue" stroke="midnightblue" points="268.494,-152.307 277.723,-147.103 267.263,-145.416 268.494,-152.307"/>
</g>
<!-- Node5 -->
<g id="node5" class="node"><title>Node5</title>
<g id="a_node5"><a xlink:href="classlinear__theory__winds.html#afe0e22332a64bd0a17cc533e6f1048fd" target="_top" xlink:title="linear_theory_winds\l::calc_sat_lapse_rate">
<polygon fill="white" stroke="black" points="423,-122.5 423,-152.5 533,-152.5 533,-122.5 423,-122.5"/>
<text text-anchor="start" x="431" y="-140.5" font-family="Helvetica,sans-Serif" font-size="10.00">linear_theory_winds</text>
<text text-anchor="middle" x="478" y="-129.5" font-family="Helvetica,sans-Serif" font-size="10.00">::calc_sat_lapse_rate</text>
</a>
</g>
</g>
<!-- Node4&#45;&gt;Node5 -->
<g id="edge4" class="edge"><title>Node4&#45;&gt;Node5</title>
<path fill="none" stroke="midnightblue" d="M387.342,-137.5C395.597,-137.5 404.19,-137.5 412.644,-137.5"/>
<polygon fill="midnightblue" stroke="midnightblue" points="412.856,-141 422.856,-137.5 412.856,-134 412.856,-141"/>
</g>
</g>
</svg>
