<?xml version="1.0" encoding="UTF-8" standalone="no"?>
<!DOCTYPE svg PUBLIC "-//W3C//DTD SVG 1.1//EN"
 "http://www.w3.org/Graphics/SVG/1.1/DTD/svg11.dtd">
<!-- Generated by graphviz version 2.38.0 (20140413.2041)
 -->
<!-- Title: io_routines::file_exists Pages: 1 -->
<svg width="1065pt" height="165pt"
 viewBox="0.00 0.00 1065.00 164.50" xmlns="http://www.w3.org/2000/svg" xmlns:xlink="http://www.w3.org/1999/xlink">
<g id="graph0" class="graph" transform="scale(1 1) rotate(0) translate(4 160.5)">
<title>io_routines::file_exists</title>
<polygon fill="white" stroke="none" points="-4,4 -4,-160.5 1061,-160.5 1061,4 -4,4"/>
<!-- Node1 -->
<g id="node1" class="node"><title>Node1</title>
<polygon fill="#bfbfbf" stroke="black" points="0,-82.5 0,-101.5 114,-101.5 114,-82.5 0,-82.5"/>
<text text-anchor="middle" x="57" y="-89.5" font-family="Helvetica,sans-Serif" font-size="10.00">io_routines::file_exists</text>
</g>
<!-- Node2 -->
<g id="node2" class="node"><title>Node2</title>
<g id="a_node2"><a xlink:href="classlinear__theory__lut__disk__io.html#a839923739fe9f10f439952d059c3261d" target="_top" xlink:title=" Write linear wind look up tables to disk along with the parameters for that table ...">
<polygon fill="white" stroke="black" points="150,-77 150,-107 261,-107 261,-77 150,-77"/>
<text text-anchor="start" x="158" y="-95" font-family="Helvetica,sans-Serif" font-size="10.00">linear_theory_lut_disk</text>
<text text-anchor="middle" x="205.5" y="-84" font-family="Helvetica,sans-Serif" font-size="10.00">_io::write_lut</text>
</a>
</g>
</g>
<!-- Node1&#45;&gt;Node2 -->
<g id="edge1" class="edge"><title>Node1&#45;&gt;Node2</title>
<path fill="none" stroke="midnightblue" d="M124.419,-92C132.854,-92 141.41,-92 149.636,-92"/>
<polygon fill="midnightblue" stroke="midnightblue" points="124.222,-88.5001 114.222,-92 124.222,-95.5001 124.222,-88.5001"/>
</g>
<!-- Node11 -->
<g id="node11" class="node"><title>Node11</title>
<g id="a_node11"><a xlink:href="classlinear__theory__lut__disk__io.html#a7b4e839b4cee03c05190479e277bc34a" target="_top" xlink:title=" Write linear wind look up tables to disk along with the parameters for that table ...">
<polygon fill="white" stroke="black" points="150,-126 150,-156 261,-156 261,-126 150,-126"/>
<text text-anchor="start" x="158" y="-144" font-family="Helvetica,sans-Serif" font-size="10.00">linear_theory_lut_disk</text>
<text text-anchor="middle" x="205.5" y="-133" font-family="Helvetica,sans-Serif" font-size="10.00">_io::read_lut</text>
</a>
</g>
</g>
<!-- Node1&#45;&gt;Node11 -->
<g id="edge13" class="edge"><title>Node1&#45;&gt;Node11</title>
<path fill="none" stroke="midnightblue" d="M96.2973,-104.809C115.672,-111.29 139.309,-119.195 159.543,-125.963"/>
<polygon fill="midnightblue" stroke="midnightblue" points="97.1883,-101.417 86.5945,-101.564 94.9678,-108.055 97.1883,-101.417"/>
</g>
<!-- Node12 -->
<g id="node12" class="node"><title>Node12</title>
<g id="a_node12"><a xlink:href="classoutput.html#a96fb2c72004c645360fa3e6f2b551b50" target="_top" xlink:title=" Simple routine to write all domain data from this current time step to the output file...">
<polygon fill="white" stroke="black" points="736.5,-38.5 736.5,-57.5 843.5,-57.5 843.5,-38.5 736.5,-38.5"/>
<text text-anchor="middle" x="790" y="-45.5" font-family="Helvetica,sans-Serif" font-size="10.00">output::write_domain</text>
</a>
</g>
</g>
<!-- Node1&#45;&gt;Node12 -->
<g id="edge15" class="edge"><title>Node1&#45;&gt;Node12</title>
<path fill="none" stroke="midnightblue" d="M97.5839,-79.6236C113.7,-75.0107 132.599,-70.1382 150,-67 240.92,-50.6026 264.613,-48 357,-48 357,-48 357,-48 507.5,-48 587.283,-48 679.785,-48 736.34,-48"/>
<polygon fill="midnightblue" stroke="midnightblue" points="96.561,-76.2761 87.947,-82.4444 98.5275,-82.9942 96.561,-76.2761"/>
</g>
<!-- Node3 -->
<g id="node3" class="node"><title>Node3</title>
<g id="a_node3"><a xlink:href="classlinear__theory__winds.html#a1c7117dad74a51614a026a50aec8b988" target="_top" xlink:title="linear_theory_winds\l::initialize_spatial_winds">
<polygon fill="white" stroke="black" points="297,-101 297,-131 419,-131 419,-101 297,-101"/>
<text text-anchor="start" x="305" y="-119" font-family="Helvetica,sans-Serif" font-size="10.00">linear_theory_winds</text>
<text text-anchor="middle" x="358" y="-108" font-family="Helvetica,sans-Serif" font-size="10.00">::initialize_spatial_winds</text>
</a>
</g>
</g>
<!-- Node2&#45;&gt;Node3 -->
<g id="edge2" class="edge"><title>Node2&#45;&gt;Node3</title>
<path fill="none" stroke="midnightblue" d="M271.185,-102.315C279.737,-103.679 288.473,-105.072 296.942,-106.423"/>
<polygon fill="midnightblue" stroke="midnightblue" points="271.686,-98.851 261.26,-100.732 270.584,-105.764 271.686,-98.851"/>
</g>
<!-- Node4 -->
<g id="node4" class="node"><title>Node4</title>
<g id="a_node4"><a xlink:href="classlinear__theory__winds.html#a5aed1fad471120ba77c203fa6158a5ba" target="_top" xlink:title="linear_theory_winds\l::setup_linwinds">
<polygon fill="white" stroke="black" points="455,-101 455,-131 558,-131 558,-101 455,-101"/>
<text text-anchor="start" x="463" y="-119" font-family="Helvetica,sans-Serif" font-size="10.00">linear_theory_winds</text>
<text text-anchor="middle" x="506.5" y="-108" font-family="Helvetica,sans-Serif" font-size="10.00">::setup_linwinds</text>
</a>
</g>
</g>
<!-- Node3&#45;&gt;Node4 -->
<g id="edge3" class="edge"><title>Node3&#45;&gt;Node4</title>
<path fill="none" stroke="midnightblue" d="M429.095,-116C437.734,-116 446.432,-116 454.706,-116"/>
<polygon fill="midnightblue" stroke="midnightblue" points="429.01,-112.5 419.01,-116 429.01,-119.5 429.01,-112.5"/>
</g>
<!-- Node5 -->
<g id="node5" class="node"><title>Node5</title>
<g id="a_node5"><a xlink:href="classlinear__theory__winds.html#a248a832d459ec9cd399c372d2ae9cb0a" target="_top" xlink:title="linear_theory_winds\l::linear_perturb">
<polygon fill="white" stroke="black" points="594,-101 594,-131 697,-131 697,-101 594,-101"/>
<text text-anchor="start" x="602" y="-119" font-family="Helvetica,sans-Serif" font-size="10.00">linear_theory_winds</text>
<text text-anchor="middle" x="645.5" y="-108" font-family="Helvetica,sans-Serif" font-size="10.00">::linear_perturb</text>
</a>
</g>
</g>
<!-- Node4&#45;&gt;Node5 -->
<g id="edge4" class="edge"><title>Node4&#45;&gt;Node5</title>
<path fill="none" stroke="midnightblue" d="M568.32,-116C576.772,-116 585.382,-116 593.626,-116"/>
<polygon fill="midnightblue" stroke="midnightblue" points="568.125,-112.5 558.125,-116 568.124,-119.5 568.125,-112.5"/>
</g>
<!-- Node6 -->
<g id="node6" class="node"><title>Node6</title>
<g id="a_node6"><a xlink:href="classboundary__conditions.html#ac4cfb5127bfecdc6e088ef949694ea4a" target="_top" xlink:title=" Remove linear theory topographic winds perturbations from the low resolution wind field...">
<polygon fill="white" stroke="black" points="733,-123 733,-153 847,-153 847,-123 733,-123"/>
<text text-anchor="start" x="741" y="-141" font-family="Helvetica,sans-Serif" font-size="10.00">boundary_conditions</text>
<text text-anchor="middle" x="790" y="-130" font-family="Helvetica,sans-Serif" font-size="10.00">::remove_linear_winds</text>
</a>
</g>
</g>
<!-- Node5&#45;&gt;Node6 -->
<g id="edge5" class="edge"><title>Node5&#45;&gt;Node6</title>
<path fill="none" stroke="midnightblue" d="M707.295,-125.386C715.728,-126.688 724.36,-128.021 732.706,-129.309"/>
<polygon fill="midnightblue" stroke="midnightblue" points="707.558,-121.885 697.141,-123.818 706.49,-128.803 707.558,-121.885"/>
</g>
<!-- Node10 -->
<g id="node10" class="node"><title>Node10</title>
<g id="a_node10"><a xlink:href="classwind.html#a582192f02996b37543b966df84af1e78" target="_top" xlink:title="wind::update_winds">
<polygon fill="white" stroke="black" points="738.5,-84.5 738.5,-103.5 841.5,-103.5 841.5,-84.5 738.5,-84.5"/>
<text text-anchor="middle" x="790" y="-91.5" font-family="Helvetica,sans-Serif" font-size="10.00">wind::update_winds</text>
</a>
</g>
</g>
<!-- Node5&#45;&gt;Node10 -->
<g id="edge10" class="edge"><title>Node5&#45;&gt;Node10</title>
<path fill="none" stroke="midnightblue" d="M707.265,-106.619C717.519,-105.036 728.07,-103.407 738.042,-101.867"/>
<polygon fill="midnightblue" stroke="midnightblue" points="706.49,-103.197 697.141,-108.182 707.558,-110.115 706.49,-103.197"/>
</g>
<!-- Node7 -->
<g id="node7" class="node"><title>Node7</title>
<g id="a_node7"><a xlink:href="classboundary__conditions.html#a07a42f467f470ada98e0a35fd5a75f66" target="_top" xlink:title=" Initialize the boundary conditions (read inital conditions, etc.) ">
<polygon fill="white" stroke="black" points="883,-77 883,-107 989,-107 989,-77 883,-77"/>
<text text-anchor="start" x="891" y="-95" font-family="Helvetica,sans-Serif" font-size="10.00">boundary_conditions</text>
<text text-anchor="middle" x="936" y="-84" font-family="Helvetica,sans-Serif" font-size="10.00">::bc_init</text>
</a>
</g>
</g>
<!-- Node6&#45;&gt;Node7 -->
<g id="edge6" class="edge"><title>Node6&#45;&gt;Node7</title>
<path fill="none" stroke="midnightblue" d="M848.045,-119.777C861.202,-115.574 875.056,-111.149 887.743,-107.096"/>
<polygon fill="midnightblue" stroke="midnightblue" points="846.612,-116.561 838.151,-122.938 848.742,-123.229 846.612,-116.561"/>
</g>
<!-- Node9 -->
<g id="node9" class="node"><title>Node9</title>
<g id="a_node9"><a xlink:href="classboundary__conditions.html#a1e8385c37634f3d7f70ea7c749dcda11" target="_top" xlink:title=" Read in the next timestep of input data and apply to the dXdt grids as appropriate. ">
<polygon fill="white" stroke="black" points="883,-126 883,-156 989,-156 989,-126 883,-126"/>
<text text-anchor="start" x="891" y="-144" font-family="Helvetica,sans-Serif" font-size="10.00">boundary_conditions</text>
<text text-anchor="middle" x="936" y="-133" font-family="Helvetica,sans-Serif" font-size="10.00">::bc_update</text>
</a>
</g>
</g>
<!-- Node6&#45;&gt;Node9 -->
<g id="edge8" class="edge"><title>Node6&#45;&gt;Node9</title>
<path fill="none" stroke="midnightblue" d="M857.338,-139.382C865.811,-139.559 874.389,-139.737 882.599,-139.908"/>
<polygon fill="midnightblue" stroke="midnightblue" points="857.157,-135.878 847.086,-139.168 857.011,-142.876 857.157,-135.878"/>
</g>
<!-- Node8 -->
<g id="node8" class="node"><title>Node8</title>
<g id="a_node8"><a xlink:href="driver_8f90.html#ab1e5a5816a57fc6e95d9563c2bb53590" target="_top" xlink:title=" Main Program ">
<polygon fill="white" stroke="black" points="1025,-60.5 1025,-79.5 1057,-79.5 1057,-60.5 1025,-60.5"/>
<text text-anchor="middle" x="1041" y="-67.5" font-family="Helvetica,sans-Serif" font-size="10.00">icar</text>
</a>
</g>
</g>
<!-- Node7&#45;&gt;Node8 -->
<g id="edge7" class="edge"><title>Node7&#45;&gt;Node8</title>
<path fill="none" stroke="midnightblue" d="M999.071,-78.7421C1008.52,-76.7244 1017.47,-74.8126 1024.58,-73.2944"/>
<polygon fill="midnightblue" stroke="midnightblue" points="998.152,-75.3594 989.104,-80.8711 999.614,-82.205 998.152,-75.3594"/>
</g>
<!-- Node9&#45;&gt;Node8 -->
<g id="edge9" class="edge"><title>Node9&#45;&gt;Node8</title>
<path fill="none" stroke="midnightblue" d="M980.922,-121.021C983.705,-119.408 986.421,-117.73 989,-116 1005.04,-105.237 1021.2,-89.675 1030.91,-79.6979"/>
<polygon fill="midnightblue" stroke="midnightblue" points="979.003,-118.08 971.892,-125.934 982.348,-124.229 979.003,-118.08"/>
</g>
<!-- Node10&#45;&gt;Node7 -->
<g id="edge11" class="edge"><title>Node10&#45;&gt;Node7</title>
<path fill="none" stroke="midnightblue" d="M851.895,-93.1542C862.156,-93.0117 872.725,-92.8649 882.742,-92.7258"/>
<polygon fill="midnightblue" stroke="midnightblue" points="851.719,-89.6562 841.769,-93.2949 851.817,-96.6556 851.719,-89.6562"/>
</g>
<!-- Node10&#45;&gt;Node9 -->
<g id="edge12" class="edge"><title>Node10&#45;&gt;Node9</title>
<path fill="none" stroke="midnightblue" d="M829.84,-106.677C848.041,-112.617 869.859,-119.739 888.893,-125.951"/>
<polygon fill="midnightblue" stroke="midnightblue" points="830.733,-103.287 820.141,-103.511 828.561,-109.941 830.733,-103.287"/>
</g>
<!-- Node11&#45;&gt;Node3 -->
<g id="edge14" class="edge"><title>Node11&#45;&gt;Node3</title>
<path fill="none" stroke="midnightblue" d="M271.185,-130.255C279.737,-128.834 288.473,-127.383 296.942,-125.976"/>
<polygon fill="midnightblue" stroke="midnightblue" points="270.551,-126.812 261.26,-131.904 271.698,-133.718 270.551,-126.812"/>
</g>
<!-- Node12&#45;&gt;Node7 -->
<g id="edge16" class="edge"><title>Node12&#45;&gt;Node7</title>
<path fill="none" stroke="midnightblue" d="M832.234,-60.5992C848.905,-65.6931 868.286,-71.6151 885.695,-76.9346"/>
<polygon fill="midnightblue" stroke="midnightblue" points="832.832,-57.1224 822.246,-57.5473 830.787,-63.8168 832.832,-57.1224"/>
</g>
<!-- Node12&#45;&gt;Node8 -->
<g id="edge17" class="edge"><title>Node12&#45;&gt;Node8</title>
<path fill="none" stroke="midnightblue" d="M853.558,-53.5272C910.882,-58.592 991.716,-65.7339 1024.89,-68.6652"/>
<polygon fill="midnightblue" stroke="midnightblue" points="853.772,-50.0325 843.502,-52.6388 853.155,-57.0054 853.772,-50.0325"/>
</g>
<!-- Node13 -->
<g id="node13" class="node"><title>Node13</title>
<g id="a_node13"><a xlink:href="classtime__step.html#a2c022f11247af72e607b1493289aa974" target="_top" xlink:title=" Step forward one IO time step. ">
<polygon fill="white" stroke="black" points="894,-0.5 894,-19.5 978,-19.5 978,-0.5 894,-0.5"/>
<text text-anchor="middle" x="936" y="-7.5" font-family="Helvetica,sans-Serif" font-size="10.00">time_step::step</text>
</a>
</g>
</g>
<!-- Node12&#45;&gt;Node13 -->
<g id="edge18" class="edge"><title>Node12&#45;&gt;Node13</title>
<path fill="none" stroke="midnightblue" d="M837.172,-35.8157C857.164,-30.54 880.219,-24.4562 898.924,-19.5201"/>
<polygon fill="midnightblue" stroke="midnightblue" points="836.113,-32.4752 827.337,-38.411 837.899,-39.2435 836.113,-32.4752"/>
</g>
<!-- Node13&#45;&gt;Node8 -->
<g id="edge19" class="edge"><title>Node13&#45;&gt;Node8</title>
<path fill="none" stroke="midnightblue" d="M969.395,-23.84C975.995,-26.9672 982.809,-30.4264 989,-34 1002.89,-42.0191 1017.77,-52.7984 1027.85,-60.4661"/>
<polygon fill="midnightblue" stroke="midnightblue" points="970.526,-20.5081 959.977,-19.5211 967.608,-26.871 970.526,-20.5081"/>
</g>
</g>
</svg>
