<?xml version="1.0" encoding="UTF-8" standalone="no"?>
<!DOCTYPE svg PUBLIC "-//W3C//DTD SVG 1.1//EN"
 "http://www.w3.org/Graphics/SVG/1.1/DTD/svg11.dtd">
<!-- Generated by graphviz version 2.32.0 (20130809.1645)
 -->
<!-- Title: linear_theory_winds::initialize_spatial_winds Pages: 1 -->
<!--zoomable 258 -->
<svg id="main" version="1.1" xmlns="http://www.w3.org/2000/svg" xmlns:xlink="http://www.w3.org/1999/xlink" xml:space="preserve" onload="init(evt)">
<style type="text/css"><![CDATA[
.edge:hover path { stroke: red; }
.edge:hover polygon { stroke: red; fill: red; }
]]></style>
<script type="text/javascript"><![CDATA[
var edges = document.getElementsByTagName('g');
if (edges && edges.length) {
  for (var i=0;i<edges.length;i++) {
    if (edges[i].id.substr(0,4)=='edge') {
      edges[i].setAttribute('class','edge');
    }
  }
}
]]></script>
        <defs>
                <circle id="rim" cx="0" cy="0" r="7"/>
                <circle id="rim2" cx="0" cy="0" r="3.5"/>
                <g id="zoomPlus">
                        <use xlink:href="#rim" fill="#404040">
                                <set attributeName="fill" to="#808080" begin="zoomplus.mouseover" end="zoomplus.mouseout"/>
                        </use>
                        <path d="M-4,0h8M0,-4v8" fill="none" stroke="white" stroke-width="1.5" pointer-events="none"/>
                </g>
                <g id="zoomMin">
                        <use xlink:href="#rim" fill="#404040">
                                <set attributeName="fill" to="#808080" begin="zoomminus.mouseover" end="zoomminus.mouseout"/>
                        </use>
                        <path d="M-4,0h8" fill="none" stroke="white" stroke-width="1.5" pointer-events="none"/>
                </g>
                <g id="dirArrow">
                        <path fill="none" stroke="white" stroke-width="1.5" d="M0,-3.0v7 M-2.5,-0.5L0,-3.0L2.5,-0.5"/>
                </g>
               <g id="resetDef">
                       <use xlink:href="#rim2" fill="#404040">
                               <set attributeName="fill" to="#808080" begin="reset.mouseover" end="reset.mouseout"/>
                       </use>
               </g>
        </defs>

<script type="text/javascript">
var viewWidth = 714;
var viewHeight = 258;
var sectionId = 'dynsection-14';
</script>
<script xlink:href="svgpan.js"/>
<svg id="graph" class="graph">
<g id="viewport">
<title>linear_theory_winds::initialize_spatial_winds</title>
<polygon fill="white" stroke="white" points="-4,5 -4,-254 711,-254 711,5 -4,5"/>
<!-- Node1 -->
<g id="node1" class="node"><title>Node1</title>
<polygon fill="#bfbfbf" stroke="black" points="0,-98 0,-128 122,-128 122,-98 0,-98"/>
<text text-anchor="start" x="8" y="-116" font-family="Helvetica,sans-Serif" font-size="10.00">linear_theory_winds</text>
<text text-anchor="middle" x="61" y="-105" font-family="Helvetica,sans-Serif" font-size="10.00">::initialize_spatial_winds</text>
</g>
<!-- Node2 -->
<g id="node2" class="node"><title>Node2</title>
<g id="a_node2"><a xlink:href="classlinear__theory__lut__disk__io.html#a7b4e839b4cee03c05190479e277bc34a" target="_top" xlink:title=" Write linear wind look up tables to disk along with the parameters for that table ...">
<polygon fill="white" stroke="black" points="158.5,-196 158.5,-226 269.5,-226 269.5,-196 158.5,-196"/>
<text text-anchor="start" x="166.5" y="-214" font-family="Helvetica,sans-Serif" font-size="10.00">linear_theory_lut_disk</text>
<text text-anchor="middle" x="214" y="-203" font-family="Helvetica,sans-Serif" font-size="10.00">_io::read_lut</text>
</a>
</g>
</g>
<!-- Node1&#45;&gt;Node2 -->
<g id="edge1" class="edge"><title>Node1&#45;&gt;Node2</title>
<path fill="none" stroke="midnightblue" d="M79.5458,-128.264C98.1707,-143.995 128.879,-168.608 158,-186 161.157,-187.886 164.482,-189.724 167.868,-191.492"/>
<polygon fill="midnightblue" stroke="midnightblue" points="166.392,-194.667 176.904,-195.994 169.514,-188.402 166.392,-194.667"/>
</g>
<!-- Node8 -->
<g id="node8" class="node"><title>Node8</title>
<g id="a_node8"><a xlink:href="classlinear__theory__winds.html#a813750f1f575af521dd81654aff2ee54" target="_top" xlink:title="linear_theory_winds\l::calc_u">
<polygon fill="white" stroke="black" points="162.5,-147 162.5,-177 265.5,-177 265.5,-147 162.5,-147"/>
<text text-anchor="start" x="170.5" y="-165" font-family="Helvetica,sans-Serif" font-size="10.00">linear_theory_winds</text>
<text text-anchor="middle" x="214" y="-154" font-family="Helvetica,sans-Serif" font-size="10.00">::calc_u</text>
</a>
</g>
</g>
<!-- Node1&#45;&gt;Node8 -->
<g id="edge7" class="edge"><title>Node1&#45;&gt;Node8</title>
<path fill="none" stroke="midnightblue" d="M108.537,-128.101C123.822,-133.062 140.974,-138.627 156.892,-143.793"/>
<polygon fill="midnightblue" stroke="midnightblue" points="156.025,-147.191 166.617,-146.948 158.185,-140.533 156.025,-147.191"/>
</g>
<!-- Node9 -->
<g id="node9" class="node"><title>Node9</title>
<g id="a_node9"><a xlink:href="classlinear__theory__winds.html#adbd589b5f5daf777414839f415fe8dbb" target="_top" xlink:title="linear_theory_winds\l::calc_v">
<polygon fill="white" stroke="black" points="162.5,-98 162.5,-128 265.5,-128 265.5,-98 162.5,-98"/>
<text text-anchor="start" x="170.5" y="-116" font-family="Helvetica,sans-Serif" font-size="10.00">linear_theory_winds</text>
<text text-anchor="middle" x="214" y="-105" font-family="Helvetica,sans-Serif" font-size="10.00">::calc_v</text>
</a>
</g>
</g>
<!-- Node1&#45;&gt;Node9 -->
<g id="edge8" class="edge"><title>Node1&#45;&gt;Node9</title>
<path fill="none" stroke="midnightblue" d="M122.113,-113C132.002,-113 142.258,-113 152.164,-113"/>
<polygon fill="midnightblue" stroke="midnightblue" points="152.33,-116.5 162.33,-113 152.33,-109.5 152.33,-116.5"/>
</g>
<!-- Node10 -->
<g id="node10" class="node"><title>Node10</title>
<g id="a_node10"><a xlink:href="classlinear__theory__winds.html#a352c9ebbb4416a470bc197c2c3b4c91a" target="_top" xlink:title="linear_theory_winds\l::linear_winds">
<polygon fill="white" stroke="black" points="162.5,-49 162.5,-79 265.5,-79 265.5,-49 162.5,-49"/>
<text text-anchor="start" x="170.5" y="-67" font-family="Helvetica,sans-Serif" font-size="10.00">linear_theory_winds</text>
<text text-anchor="middle" x="214" y="-56" font-family="Helvetica,sans-Serif" font-size="10.00">::linear_winds</text>
</a>
</g>
</g>
<!-- Node1&#45;&gt;Node10 -->
<g id="edge9" class="edge"><title>Node1&#45;&gt;Node10</title>
<path fill="none" stroke="midnightblue" d="M108.537,-97.8986C123.822,-92.9385 140.974,-87.3726 156.892,-82.2071"/>
<polygon fill="midnightblue" stroke="midnightblue" points="158.185,-85.4673 166.617,-79.0516 156.025,-78.8091 158.185,-85.4673"/>
</g>
<!-- Node11 -->
<g id="node11" class="node"><title>Node11</title>
<g id="a_node11"><a xlink:href="classlinear__theory__lut__disk__io.html#a839923739fe9f10f439952d059c3261d" target="_top" xlink:title=" Write linear wind look up tables to disk along with the parameters for that table ...">
<polygon fill="white" stroke="black" points="158.5,-0 158.5,-30 269.5,-30 269.5,-0 158.5,-0"/>
<text text-anchor="start" x="166.5" y="-18" font-family="Helvetica,sans-Serif" font-size="10.00">linear_theory_lut_disk</text>
<text text-anchor="middle" x="214" y="-7" font-family="Helvetica,sans-Serif" font-size="10.00">_io::write_lut</text>
</a>
</g>
</g>
<!-- Node1&#45;&gt;Node11 -->
<g id="edge10" class="edge"><title>Node1&#45;&gt;Node11</title>
<path fill="none" stroke="midnightblue" d="M79.114,-97.7106C97.6295,-81.6868 128.476,-56.4608 158,-39 160.606,-37.4587 163.329,-35.9581 166.11,-34.5087"/>
<polygon fill="midnightblue" stroke="midnightblue" points="167.691,-37.6315 175.109,-30.0672 164.593,-31.3543 167.691,-37.6315"/>
</g>
<!-- Node3 -->
<g id="node3" class="node"><title>Node3</title>
<g id="a_node3"><a xlink:href="classio__routines.html#a2f5490f632bd50662c7da9fd964e88e3" target="_top" xlink:title=" Tests to see if a file exists ">
<polygon fill="white" stroke="black" points="306,-56.5 306,-75.5 420,-75.5 420,-56.5 306,-56.5"/>
<text text-anchor="middle" x="363" y="-63.5" font-family="Helvetica,sans-Serif" font-size="10.00">io_routines::file_exists</text>
</a>
</g>
</g>
<!-- Node2&#45;&gt;Node3 -->
<g id="edge2" class="edge"><title>Node2&#45;&gt;Node3</title>
<path fill="none" stroke="midnightblue" d="M254.55,-195.911C259.997,-193.024 265.32,-189.72 270,-186 306.625,-156.884 336.846,-110.144 351.827,-84.4336"/>
<polygon fill="midnightblue" stroke="midnightblue" points="354.899,-86.1121 356.805,-75.6899 348.816,-82.6491 354.899,-86.1121"/>
</g>
<!-- Node4 -->
<g id="node4" class="node"><title>Node4</title>
<g id="a_node4"><a xlink:href="classlinear__theory__lut__disk__io.html#a941618f7357edb1ceb9ecfa66f9c8151" target="_top" xlink:title=" Check that the dimensions of a LUT file and current expected LUT match ">
<polygon fill="white" stroke="black" points="307.5,-220 307.5,-250 418.5,-250 418.5,-220 307.5,-220"/>
<text text-anchor="start" x="315.5" y="-238" font-family="Helvetica,sans-Serif" font-size="10.00">linear_theory_lut_disk</text>
<text text-anchor="middle" x="363" y="-227" font-family="Helvetica,sans-Serif" font-size="10.00">_io::dims_match</text>
</a>
</g>
</g>
<!-- Node2&#45;&gt;Node4 -->
<g id="edge3" class="edge"><title>Node2&#45;&gt;Node4</title>
<path fill="none" stroke="midnightblue" d="M269.737,-219.937C278.729,-221.405 288.123,-222.938 297.329,-224.441"/>
<polygon fill="midnightblue" stroke="midnightblue" points="296.784,-227.899 307.217,-226.056 297.912,-220.99 296.784,-227.899"/>
</g>
<!-- Node7 -->
<g id="node7" class="node"><title>Node7</title>
<g id="a_node7"><a xlink:href="classlinear__theory__lut__disk__io.html#acd8076f02eabf99278d4b3f142688be2" target="_top" xlink:title=" Check that the dz level thicknesses of a LUT file and current domain match ">
<polygon fill="white" stroke="black" points="307.5,-171 307.5,-201 418.5,-201 418.5,-171 307.5,-171"/>
<text text-anchor="start" x="315.5" y="-189" font-family="Helvetica,sans-Serif" font-size="10.00">linear_theory_lut_disk</text>
<text text-anchor="middle" x="363" y="-178" font-family="Helvetica,sans-Serif" font-size="10.00">_io::check_dz</text>
</a>
</g>
</g>
<!-- Node2&#45;&gt;Node7 -->
<g id="edge6" class="edge"><title>Node2&#45;&gt;Node7</title>
<path fill="none" stroke="midnightblue" d="M269.737,-201.691C278.729,-200.162 288.123,-198.564 297.329,-196.998"/>
<polygon fill="midnightblue" stroke="midnightblue" points="297.945,-200.444 307.217,-195.317 296.772,-193.543 297.945,-200.444"/>
</g>
<!-- Node5 -->
<g id="node5" class="node"><title>Node5</title>
<g id="a_node5"><a xlink:href="classio__routines.html#ae987ea578b7a3fe5c0d51363e0f154a7" target="_top" xlink:title=" Read the dimensions of a variable in a given netcdf file ">
<polygon fill="white" stroke="black" points="456.5,-225.5 456.5,-244.5 573.5,-244.5 573.5,-225.5 456.5,-225.5"/>
<text text-anchor="middle" x="515" y="-232.5" font-family="Helvetica,sans-Serif" font-size="10.00">io_routines::io_getdims</text>
</a>
</g>
</g>
<!-- Node4&#45;&gt;Node5 -->
<g id="edge4" class="edge"><title>Node4&#45;&gt;Node5</title>
<path fill="none" stroke="midnightblue" d="M418.578,-235C427.621,-235 437.092,-235 446.41,-235"/>
<polygon fill="midnightblue" stroke="midnightblue" points="446.433,-238.5 456.433,-235 446.433,-231.5 446.433,-238.5"/>
</g>
<!-- Node6 -->
<g id="node6" class="node"><title>Node6</title>
<g id="a_node6"><a xlink:href="classio__routines.html#ac4835ed66f2e10d8e5bb40f6122f0ca1" target="_top" xlink:title=" Simple error handling for common netcdf file errors ">
<polygon fill="white" stroke="black" points="610,-225.5 610,-244.5 706,-244.5 706,-225.5 610,-225.5"/>
<text text-anchor="middle" x="658" y="-232.5" font-family="Helvetica,sans-Serif" font-size="10.00">io_routines::check</text>
</a>
</g>
</g>
<!-- Node5&#45;&gt;Node6 -->
<g id="edge5" class="edge"><title>Node5&#45;&gt;Node6</title>
<path fill="none" stroke="midnightblue" d="M573.757,-235C582.3,-235 591.101,-235 599.636,-235"/>
<polygon fill="midnightblue" stroke="midnightblue" points="599.879,-238.5 609.879,-235 599.879,-231.5 599.879,-238.5"/>
</g>
<!-- Node11&#45;&gt;Node3 -->
<g id="edge11" class="edge"><title>Node11&#45;&gt;Node3</title>
<path fill="none" stroke="midnightblue" d="M258.31,-30.0258C279.416,-37.3485 304.543,-46.0658 324.775,-53.0852"/>
<polygon fill="midnightblue" stroke="midnightblue" points="323.68,-56.4099 334.275,-56.3811 325.975,-49.7966 323.68,-56.4099"/>
</g>
</g>
</svg>
        <g id="navigator" transform="translate(0 0)" fill="#404254">
                <rect fill="#f2f5e9" fill-opacity="0.5" stroke="#606060" stroke-width=".5" x="0" y="0" width="60" height="60"/>
                <use id="zoomplus" xlink:href="#zoomPlus" x="17" y="9" onmousedown="handleZoom(evt,'in')"/>
                <use id="zoomminus" xlink:href="#zoomMin" x="42" y="9" onmousedown="handleZoom(evt,'out')"/>
                <use id="reset" xlink:href="#resetDef" x="30" y="36" onmousedown="handleReset()"/>
                <g id="arrowUp" xlink:href="#dirArrow" transform="translate(30 24)" onmousedown="handlePan(0,-1)">
                  <use xlink:href="#rim" fill="#404040">
                        <set attributeName="fill" to="#808080" begin="arrowUp.mouseover" end="arrowUp.mouseout"/>
                  </use>
                  <path fill="none" stroke="white" stroke-width="1.5" d="M0,-3.0v7 M-2.5,-0.5L0,-3.0L2.5,-0.5"/>
                </g>
                <g id="arrowRight" xlink:href="#dirArrow" transform="rotate(90) translate(36 -43)" onmousedown="handlePan(1,0)">
                  <use xlink:href="#rim" fill="#404040">
                        <set attributeName="fill" to="#808080" begin="arrowRight.mouseover" end="arrowRight.mouseout"/>
                  </use>
                  <path fill="none" stroke="white" stroke-width="1.5" d="M0,-3.0v7 M-2.5,-0.5L0,-3.0L2.5,-0.5"/>
                </g>
                <g id="arrowDown" xlink:href="#dirArrow" transform="rotate(180) translate(-30 -48)" onmousedown="handlePan(0,1)">
                  <use xlink:href="#rim" fill="#404040">
                        <set attributeName="fill" to="#808080" begin="arrowDown.mouseover" end="arrowDown.mouseout"/>
                  </use>
                  <path fill="none" stroke="white" stroke-width="1.5" d="M0,-3.0v7 M-2.5,-0.5L0,-3.0L2.5,-0.5"/>
                </g>
                <g id="arrowLeft" xlink:href="#dirArrow" transform="rotate(270) translate(-36 17)" onmousedown="handlePan(-1,0)">
                  <use xlink:href="#rim" fill="#404040">
                        <set attributeName="fill" to="#808080" begin="arrowLeft.mouseover" end="arrowLeft.mouseout"/>
                  </use>
                  <path fill="none" stroke="white" stroke-width="1.5" d="M0,-3.0v7 M-2.5,-0.5L0,-3.0L2.5,-0.5"/>
                </g>
        </g>
        <svg viewBox="0 0 15 15" width="100%" height="30px" preserveAspectRatio="xMaxYMin meet">
         <g id="arrow_out" transform="scale(0.3 0.3)">
          <a xlink:href="classlinear__theory__winds_a1c7117dad74a51614a026a50aec8b988_cgraph_org.svg" target="_base">
           <rect id="button" ry="5" rx="5" y="6" x="6" height="38" width="38"
                fill="#f2f5e9" fill-opacity="0.5" stroke="#606060" stroke-width="1.0"/>
           <path id="arrow"
             d="M 11.500037,31.436501 C 11.940474,20.09759 22.043105,11.32322 32.158766,21.979434 L 37.068811,17.246167 C 37.068811,17.246167 37.088388,32 37.088388,32 L 22.160133,31.978069 C 22.160133,31.978069 26.997745,27.140456 26.997745,27.140456 C 18.528582,18.264221 13.291696,25.230495 11.500037,31.436501 z"
             style="fill:#404040;"/>
          </a>
         </g>
        </svg>
</svg>
