<?xml version="1.0" encoding="UTF-8" standalone="no"?>
<!DOCTYPE svg PUBLIC "-//W3C//DTD SVG 1.1//EN"
 "http://www.w3.org/Graphics/SVG/1.1/DTD/svg11.dtd">
<!-- Generated by graphviz version 2.38.0 (20140413.2041)
 -->
<!-- Title: linear_theory_winds::calc_domain_stability Pages: 1 -->
<svg width="623pt" height="88pt"
 viewBox="0.00 0.00 623.00 88.00" xmlns="http://www.w3.org/2000/svg" xmlns:xlink="http://www.w3.org/1999/xlink">
<g id="graph0" class="graph" transform="scale(1 1) rotate(0) translate(4 84)">
<title>linear_theory_winds::calc_domain_stability</title>
<polygon fill="white" stroke="none" points="-4,4 -4,-84 619,-84 619,4 -4,4"/>
<!-- Node1 -->
<g id="node1" class="node"><title>Node1</title>
<polygon fill="#bfbfbf" stroke="black" points="0,-24.5 0,-54.5 116,-54.5 116,-24.5 0,-24.5"/>
<text text-anchor="start" x="8" y="-42.5" font-family="Helvetica,sans-Serif" font-size="10.00">linear_theory_winds</text>
<text text-anchor="middle" x="58" y="-31.5" font-family="Helvetica,sans-Serif" font-size="10.00">::calc_domain_stability</text>
</g>
<!-- Node2 -->
<g id="node2" class="node"><title>Node2</title>
<g id="a_node2"><a xlink:href="classlinear__theory__winds.html#a248a832d459ec9cd399c372d2ae9cb0a" target="_top" xlink:title="linear_theory_winds\l::linear_perturb">
<polygon fill="white" stroke="black" points="152,-24.5 152,-54.5 255,-54.5 255,-24.5 152,-24.5"/>
<text text-anchor="start" x="160" y="-42.5" font-family="Helvetica,sans-Serif" font-size="10.00">linear_theory_winds</text>
<text text-anchor="middle" x="203.5" y="-31.5" font-family="Helvetica,sans-Serif" font-size="10.00">::linear_perturb</text>
</a>
</g>
</g>
<!-- Node1&#45;&gt;Node2 -->
<g id="edge1" class="edge"><title>Node1&#45;&gt;Node2</title>
<path fill="none" stroke="midnightblue" d="M126.398,-39.5C134.878,-39.5 143.439,-39.5 151.606,-39.5"/>
<polygon fill="midnightblue" stroke="midnightblue" points="126.127,-36.0001 116.127,-39.5 126.127,-43.0001 126.127,-36.0001"/>
</g>
<!-- Node3 -->
<g id="node3" class="node"><title>Node3</title>
<g id="a_node3"><a xlink:href="classboundary__conditions.html#ac4cfb5127bfecdc6e088ef949694ea4a" target="_top" xlink:title=" Remove linear theory topographic winds perturbations from the low resolution wind field...">
<polygon fill="white" stroke="black" points="291,-46.5 291,-76.5 405,-76.5 405,-46.5 291,-46.5"/>
<text text-anchor="start" x="299" y="-64.5" font-family="Helvetica,sans-Serif" font-size="10.00">boundary_conditions</text>
<text text-anchor="middle" x="348" y="-53.5" font-family="Helvetica,sans-Serif" font-size="10.00">::remove_linear_winds</text>
</a>
</g>
</g>
<!-- Node2&#45;&gt;Node3 -->
<g id="edge2" class="edge"><title>Node2&#45;&gt;Node3</title>
<path fill="none" stroke="midnightblue" d="M265.295,-48.886C273.728,-50.1878 282.36,-51.5205 290.706,-52.809"/>
<polygon fill="midnightblue" stroke="midnightblue" points="265.558,-45.3852 255.141,-47.3183 264.49,-52.3032 265.558,-45.3852"/>
</g>
<!-- Node7 -->
<g id="node7" class="node"><title>Node7</title>
<g id="a_node7"><a xlink:href="classwind.html#a582192f02996b37543b966df84af1e78" target="_top" xlink:title="wind::update_winds">
<polygon fill="white" stroke="black" points="296.5,-8 296.5,-27 399.5,-27 399.5,-8 296.5,-8"/>
<text text-anchor="middle" x="348" y="-15" font-family="Helvetica,sans-Serif" font-size="10.00">wind::update_winds</text>
</a>
</g>
</g>
<!-- Node2&#45;&gt;Node7 -->
<g id="edge7" class="edge"><title>Node2&#45;&gt;Node7</title>
<path fill="none" stroke="midnightblue" d="M265.265,-30.1188C275.519,-28.5357 286.07,-26.9068 296.042,-25.3673"/>
<polygon fill="midnightblue" stroke="midnightblue" points="264.49,-26.6968 255.141,-31.6817 265.558,-33.6148 264.49,-26.6968"/>
</g>
<!-- Node4 -->
<g id="node4" class="node"><title>Node4</title>
<g id="a_node4"><a xlink:href="classboundary__conditions.html#a07a42f467f470ada98e0a35fd5a75f66" target="_top" xlink:title=" Initialize the boundary conditions (read inital conditions, etc.) ">
<polygon fill="white" stroke="black" points="441,-49.5 441,-79.5 547,-79.5 547,-49.5 441,-49.5"/>
<text text-anchor="start" x="449" y="-67.5" font-family="Helvetica,sans-Serif" font-size="10.00">boundary_conditions</text>
<text text-anchor="middle" x="494" y="-56.5" font-family="Helvetica,sans-Serif" font-size="10.00">::bc_init</text>
</a>
</g>
</g>
<!-- Node3&#45;&gt;Node4 -->
<g id="edge3" class="edge"><title>Node3&#45;&gt;Node4</title>
<path fill="none" stroke="midnightblue" d="M415.338,-62.882C423.811,-63.0586 432.389,-63.2373 440.599,-63.4083"/>
<polygon fill="midnightblue" stroke="midnightblue" points="415.157,-59.3776 405.086,-62.6685 415.011,-66.3761 415.157,-59.3776"/>
</g>
<!-- Node6 -->
<g id="node6" class="node"><title>Node6</title>
<g id="a_node6"><a xlink:href="classboundary__conditions.html#a1e8385c37634f3d7f70ea7c749dcda11" target="_top" xlink:title=" Read in the next timestep of input data and apply to the dXdt grids as appropriate. ">
<polygon fill="white" stroke="black" points="441,-0.5 441,-30.5 547,-30.5 547,-0.5 441,-0.5"/>
<text text-anchor="start" x="449" y="-18.5" font-family="Helvetica,sans-Serif" font-size="10.00">boundary_conditions</text>
<text text-anchor="middle" x="494" y="-7.5" font-family="Helvetica,sans-Serif" font-size="10.00">::bc_update</text>
</a>
</g>
</g>
<!-- Node3&#45;&gt;Node6 -->
<g id="edge5" class="edge"><title>Node3&#45;&gt;Node6</title>
<path fill="none" stroke="midnightblue" d="M406.045,-43.2772C419.202,-39.0743 433.056,-34.6487 445.743,-30.596"/>
<polygon fill="midnightblue" stroke="midnightblue" points="404.612,-40.0608 396.151,-46.4379 406.742,-46.7289 404.612,-40.0608"/>
</g>
<!-- Node5 -->
<g id="node5" class="node"><title>Node5</title>
<g id="a_node5"><a xlink:href="driver_8f90.html#ab1e5a5816a57fc6e95d9563c2bb53590" target="_top" xlink:title=" Main Program ">
<polygon fill="white" stroke="black" points="583,-30 583,-49 615,-49 615,-30 583,-30"/>
<text text-anchor="middle" x="599" y="-37" font-family="Helvetica,sans-Serif" font-size="10.00">icar</text>
</a>
</g>
</g>
<!-- Node4&#45;&gt;Node5 -->
<g id="edge4" class="edge"><title>Node4&#45;&gt;Node5</title>
<path fill="none" stroke="midnightblue" d="M557.071,-49.4343C566.517,-47.1414 575.468,-44.9689 582.576,-43.2436"/>
<polygon fill="midnightblue" stroke="midnightblue" points="555.996,-46.0935 547.104,-51.8535 557.647,-52.896 555.996,-46.0935"/>
</g>
<!-- Node6&#45;&gt;Node5 -->
<g id="edge6" class="edge"><title>Node6&#45;&gt;Node5</title>
<path fill="none" stroke="midnightblue" d="M557.071,-29.9631C566.517,-32.1642 575.468,-34.2498 582.576,-35.9061"/>
<polygon fill="midnightblue" stroke="midnightblue" points="557.637,-26.5013 547.104,-27.6406 556.048,-33.3187 557.637,-26.5013"/>
</g>
<!-- Node7&#45;&gt;Node4 -->
<g id="edge8" class="edge"><title>Node7&#45;&gt;Node4</title>
<path fill="none" stroke="midnightblue" d="M387.84,-30.1768C406.041,-36.1175 427.859,-43.2388 446.893,-49.4512"/>
<polygon fill="midnightblue" stroke="midnightblue" points="388.733,-26.7868 378.141,-27.0112 386.561,-33.4413 388.733,-26.7868"/>
</g>
<!-- Node7&#45;&gt;Node6 -->
<g id="edge9" class="edge"><title>Node7&#45;&gt;Node6</title>
<path fill="none" stroke="midnightblue" d="M409.895,-16.6542C420.156,-16.5117 430.725,-16.3649 440.742,-16.2258"/>
<polygon fill="midnightblue" stroke="midnightblue" points="409.719,-13.1562 399.769,-16.7949 409.817,-20.1556 409.719,-13.1562"/>
</g>
</g>
</svg>
