<?xml version="1.0" encoding="UTF-8" standalone="no"?>
<!DOCTYPE svg PUBLIC "-//W3C//DTD SVG 1.1//EN"
 "http://www.w3.org/Graphics/SVG/1.1/DTD/svg11.dtd">
<!-- Generated by graphviz version 2.32.0 (20130809.1645)
 -->
<!-- Title: io_routines::file_exists Pages: 1 -->
<!--zoomable 164 -->
<svg id="main" version="1.1" xmlns="http://www.w3.org/2000/svg" xmlns:xlink="http://www.w3.org/1999/xlink" xml:space="preserve" onload="init(evt)">
<style type="text/css"><![CDATA[
.edge:hover path { stroke: red; }
.edge:hover polygon { stroke: red; fill: red; }
]]></style>
<script type="text/javascript"><![CDATA[
var edges = document.getElementsByTagName('g');
if (edges && edges.length) {
  for (var i=0;i<edges.length;i++) {
    if (edges[i].id.substr(0,4)=='edge') {
      edges[i].setAttribute('class','edge');
    }
  }
}
]]></script>
        <defs>
                <circle id="rim" cx="0" cy="0" r="7"/>
                <circle id="rim2" cx="0" cy="0" r="3.5"/>
                <g id="zoomPlus">
                        <use xlink:href="#rim" fill="#404040">
                                <set attributeName="fill" to="#808080" begin="zoomplus.mouseover" end="zoomplus.mouseout"/>
                        </use>
                        <path d="M-4,0h8M0,-4v8" fill="none" stroke="white" stroke-width="1.5" pointer-events="none"/>
                </g>
                <g id="zoomMin">
                        <use xlink:href="#rim" fill="#404040">
                                <set attributeName="fill" to="#808080" begin="zoomminus.mouseover" end="zoomminus.mouseout"/>
                        </use>
                        <path d="M-4,0h8" fill="none" stroke="white" stroke-width="1.5" pointer-events="none"/>
                </g>
                <g id="dirArrow">
                        <path fill="none" stroke="white" stroke-width="1.5" d="M0,-3.0v7 M-2.5,-0.5L0,-3.0L2.5,-0.5"/>
                </g>
               <g id="resetDef">
                       <use xlink:href="#rim2" fill="#404040">
                               <set attributeName="fill" to="#808080" begin="reset.mouseover" end="reset.mouseout"/>
                       </use>
               </g>
        </defs>

<script type="text/javascript">
var viewWidth = 1068;
var viewHeight = 164;
var sectionId = 'dynsection-1';
</script>
<script xlink:href="svgpan.js"/>
<svg id="graph" class="graph">
<g id="viewport">
<title>io_routines::file_exists</title>
<polygon fill="white" stroke="white" points="-4,5 -4,-160 1065,-160 1065,5 -4,5"/>
<!-- Node1 -->
<g id="node1" class="node"><title>Node1</title>
<polygon fill="#bfbfbf" stroke="black" points="0,-82.5 0,-101.5 114,-101.5 114,-82.5 0,-82.5"/>
<text text-anchor="middle" x="57" y="-89.5" font-family="Helvetica,sans-Serif" font-size="10.00">io_routines::file_exists</text>
</g>
<!-- Node2 -->
<g id="node2" class="node"><title>Node2</title>
<g id="a_node2"><a xlink:href="classlinear__theory__lut__disk__io.html#a839923739fe9f10f439952d059c3261d" target="_top" xlink:title=" Write linear wind look up tables to disk along with the parameters for that table ...">
<polygon fill="white" stroke="black" points="150.5,-77 150.5,-107 261.5,-107 261.5,-77 150.5,-77"/>
<text text-anchor="start" x="158.5" y="-95" font-family="Helvetica,sans-Serif" font-size="10.00">linear_theory_lut_disk</text>
<text text-anchor="middle" x="206" y="-84" font-family="Helvetica,sans-Serif" font-size="10.00">_io::write_lut</text>
</a>
</g>
</g>
<!-- Node1&#45;&gt;Node2 -->
<g id="edge1" class="edge"><title>Node1&#45;&gt;Node2</title>
<path fill="none" stroke="midnightblue" d="M124.507,-92C133.18,-92 141.985,-92 150.432,-92"/>
<polygon fill="midnightblue" stroke="midnightblue" points="124.414,-88.5001 114.414,-92 124.414,-95.5001 124.414,-88.5001"/>
</g>
<!-- Node11 -->
<g id="node11" class="node"><title>Node11</title>
<g id="a_node11"><a xlink:href="classlinear__theory__lut__disk__io.html#a7b4e839b4cee03c05190479e277bc34a" target="_top" xlink:title=" Write linear wind look up tables to disk along with the parameters for that table ...">
<polygon fill="white" stroke="black" points="150.5,-126 150.5,-156 261.5,-156 261.5,-126 150.5,-126"/>
<text text-anchor="start" x="158.5" y="-144" font-family="Helvetica,sans-Serif" font-size="10.00">linear_theory_lut_disk</text>
<text text-anchor="middle" x="206" y="-133" font-family="Helvetica,sans-Serif" font-size="10.00">_io::read_lut</text>
</a>
</g>
</g>
<!-- Node1&#45;&gt;Node11 -->
<g id="edge13" class="edge"><title>Node1&#45;&gt;Node11</title>
<path fill="none" stroke="midnightblue" d="M96.428,-104.809C115.869,-111.29 139.586,-119.195 159.889,-125.963"/>
<polygon fill="midnightblue" stroke="midnightblue" points="97.2857,-101.406 86.692,-101.564 95.0721,-108.047 97.2857,-101.406"/>
</g>
<!-- Node12 -->
<g id="node12" class="node"><title>Node12</title>
<g id="a_node12"><a xlink:href="classoutput.html#a96fb2c72004c645360fa3e6f2b551b50" target="_top" xlink:title=" Simple routine to write all domain data from this current time step to the output file...">
<polygon fill="white" stroke="black" points="739.5,-38.5 739.5,-57.5 846.5,-57.5 846.5,-38.5 739.5,-38.5"/>
<text text-anchor="middle" x="793" y="-45.5" font-family="Helvetica,sans-Serif" font-size="10.00">output::write_domain</text>
</a>
</g>
</g>
<!-- Node1&#45;&gt;Node12 -->
<g id="edge15" class="edge"><title>Node1&#45;&gt;Node12</title>
<path fill="none" stroke="midnightblue" d="M97.5832,-79.6197C113.7,-75.0063 132.598,-70.1344 150,-67 241.359,-50.5441 265.171,-48 358,-48 358,-48 358,-48 509,-48 589.331,-48 682.488,-48 739.32,-48"/>
<polygon fill="midnightblue" stroke="midnightblue" points="96.5601,-76.2723 87.9463,-82.441 98.5269,-82.9903 96.5601,-76.2723"/>
</g>
<!-- Node3 -->
<g id="node3" class="node"><title>Node3</title>
<g id="a_node3"><a xlink:href="classlinear__theory__winds.html#a1c7117dad74a51614a026a50aec8b988" target="_top" xlink:title="linear_theory_winds\l::initialize_spatial_winds">
<polygon fill="white" stroke="black" points="298,-101 298,-131 420,-131 420,-101 298,-101"/>
<text text-anchor="start" x="306" y="-119" font-family="Helvetica,sans-Serif" font-size="10.00">linear_theory_winds</text>
<text text-anchor="middle" x="359" y="-108" font-family="Helvetica,sans-Serif" font-size="10.00">::initialize_spatial_winds</text>
</a>
</g>
</g>
<!-- Node2&#45;&gt;Node3 -->
<g id="edge2" class="edge"><title>Node2&#45;&gt;Node3</title>
<path fill="none" stroke="midnightblue" d="M271.642,-102.274C280.37,-103.662 289.297,-105.08 297.941,-106.454"/>
<polygon fill="midnightblue" stroke="midnightblue" points="271.94,-98.7777 261.514,-100.665 270.841,-105.691 271.94,-98.7777"/>
</g>
<!-- Node4 -->
<g id="node4" class="node"><title>Node4</title>
<g id="a_node4"><a xlink:href="classlinear__theory__winds.html#a5aed1fad471120ba77c203fa6158a5ba" target="_top" xlink:title="linear_theory_winds\l::setup_linwinds">
<polygon fill="white" stroke="black" points="456.5,-101 456.5,-131 559.5,-131 559.5,-101 456.5,-101"/>
<text text-anchor="start" x="464.5" y="-119" font-family="Helvetica,sans-Serif" font-size="10.00">linear_theory_winds</text>
<text text-anchor="middle" x="508" y="-108" font-family="Helvetica,sans-Serif" font-size="10.00">::setup_linwinds</text>
</a>
</g>
</g>
<!-- Node3&#45;&gt;Node4 -->
<g id="edge3" class="edge"><title>Node3&#45;&gt;Node4</title>
<path fill="none" stroke="midnightblue" d="M430.47,-116C439.255,-116 448.097,-116 456.495,-116"/>
<polygon fill="midnightblue" stroke="midnightblue" points="430.215,-112.5 420.215,-116 430.215,-119.5 430.215,-112.5"/>
</g>
<!-- Node5 -->
<g id="node5" class="node"><title>Node5</title>
<g id="a_node5"><a xlink:href="classlinear__theory__winds.html#a248a832d459ec9cd399c372d2ae9cb0a" target="_top" xlink:title="linear_theory_winds\l::linear_perturb">
<polygon fill="white" stroke="black" points="596.5,-101 596.5,-131 699.5,-131 699.5,-101 596.5,-101"/>
<text text-anchor="start" x="604.5" y="-119" font-family="Helvetica,sans-Serif" font-size="10.00">linear_theory_winds</text>
<text text-anchor="middle" x="648" y="-108" font-family="Helvetica,sans-Serif" font-size="10.00">::linear_perturb</text>
</a>
</g>
</g>
<!-- Node4&#45;&gt;Node5 -->
<g id="edge4" class="edge"><title>Node4&#45;&gt;Node5</title>
<path fill="none" stroke="midnightblue" d="M569.882,-116C578.74,-116 587.779,-116 596.404,-116"/>
<polygon fill="midnightblue" stroke="midnightblue" points="569.603,-112.5 559.603,-116 569.602,-119.5 569.603,-112.5"/>
</g>
<!-- Node6 -->
<g id="node6" class="node"><title>Node6</title>
<g id="a_node6"><a xlink:href="classboundary__conditions.html#ac4cfb5127bfecdc6e088ef949694ea4a" target="_top" xlink:title=" Remove linear theory topographic winds perturbations from the low resolution wind field...">
<polygon fill="white" stroke="black" points="736,-123 736,-153 850,-153 850,-123 736,-123"/>
<text text-anchor="start" x="744" y="-141" font-family="Helvetica,sans-Serif" font-size="10.00">boundary_conditions</text>
<text text-anchor="middle" x="793" y="-130" font-family="Helvetica,sans-Serif" font-size="10.00">::remove_linear_winds</text>
</a>
</g>
</g>
<!-- Node5&#45;&gt;Node6 -->
<g id="edge5" class="edge"><title>Node5&#45;&gt;Node6</title>
<path fill="none" stroke="midnightblue" d="M709.869,-125.365C718.541,-126.699 727.426,-128.066 735.999,-129.384"/>
<polygon fill="midnightblue" stroke="midnightblue" points="710.235,-121.88 699.819,-123.818 709.171,-128.798 710.235,-121.88"/>
</g>
<!-- Node10 -->
<g id="node10" class="node"><title>Node10</title>
<g id="a_node10"><a xlink:href="classwind.html#a582192f02996b37543b966df84af1e78" target="_top" xlink:title="wind::update_winds">
<polygon fill="white" stroke="black" points="741.5,-84.5 741.5,-103.5 844.5,-103.5 844.5,-84.5 741.5,-84.5"/>
<text text-anchor="middle" x="793" y="-91.5" font-family="Helvetica,sans-Serif" font-size="10.00">wind::update_winds</text>
</a>
</g>
</g>
<!-- Node5&#45;&gt;Node10 -->
<g id="edge10" class="edge"><title>Node5&#45;&gt;Node10</title>
<path fill="none" stroke="midnightblue" d="M709.776,-106.65C720.295,-105.032 731.131,-103.364 741.345,-101.793"/>
<polygon fill="midnightblue" stroke="midnightblue" points="709.171,-103.202 699.819,-108.182 710.235,-110.12 709.171,-103.202"/>
</g>
<!-- Node7 -->
<g id="node7" class="node"><title>Node7</title>
<g id="a_node7"><a xlink:href="classboundary__conditions.html#a07a42f467f470ada98e0a35fd5a75f66" target="_top" xlink:title=" Initialize the boundary conditions (read inital conditions, etc.) ">
<polygon fill="white" stroke="black" points="886,-77 886,-107 992,-107 992,-77 886,-77"/>
<text text-anchor="start" x="894" y="-95" font-family="Helvetica,sans-Serif" font-size="10.00">boundary_conditions</text>
<text text-anchor="middle" x="939" y="-84" font-family="Helvetica,sans-Serif" font-size="10.00">::bc_init</text>
</a>
</g>
</g>
<!-- Node6&#45;&gt;Node7 -->
<g id="edge6" class="edge"><title>Node6&#45;&gt;Node7</title>
<path fill="none" stroke="midnightblue" d="M851.045,-119.777C864.202,-115.574 878.056,-111.149 890.743,-107.096"/>
<polygon fill="midnightblue" stroke="midnightblue" points="849.612,-116.561 841.151,-122.938 851.742,-123.229 849.612,-116.561"/>
</g>
<!-- Node9 -->
<g id="node9" class="node"><title>Node9</title>
<g id="a_node9"><a xlink:href="classboundary__conditions.html#a1e8385c37634f3d7f70ea7c749dcda11" target="_top" xlink:title=" Read in the next timestep of input data and apply to the dXdt grids as appropriate. ">
<polygon fill="white" stroke="black" points="886,-126 886,-156 992,-156 992,-126 886,-126"/>
<text text-anchor="start" x="894" y="-144" font-family="Helvetica,sans-Serif" font-size="10.00">boundary_conditions</text>
<text text-anchor="middle" x="939" y="-133" font-family="Helvetica,sans-Serif" font-size="10.00">::bc_update</text>
</a>
</g>
</g>
<!-- Node6&#45;&gt;Node9 -->
<g id="edge8" class="edge"><title>Node6&#45;&gt;Node9</title>
<path fill="none" stroke="midnightblue" d="M860.338,-139.382C868.811,-139.559 877.389,-139.737 885.599,-139.908"/>
<polygon fill="midnightblue" stroke="midnightblue" points="860.157,-135.878 850.086,-139.168 860.011,-142.876 860.157,-135.878"/>
</g>
<!-- Node8 -->
<g id="node8" class="node"><title>Node8</title>
<g id="a_node8"><a xlink:href="driver_8f90.html#ab1e5a5816a57fc6e95d9563c2bb53590" target="_top" xlink:title=" Main Program ">
<polygon fill="white" stroke="black" points="1028,-60.5 1028,-79.5 1060,-79.5 1060,-60.5 1028,-60.5"/>
<text text-anchor="middle" x="1044" y="-67.5" font-family="Helvetica,sans-Serif" font-size="10.00">icar</text>
</a>
</g>
</g>
<!-- Node7&#45;&gt;Node8 -->
<g id="edge7" class="edge"><title>Node7&#45;&gt;Node8</title>
<path fill="none" stroke="midnightblue" d="M1002.07,-78.7421C1011.52,-76.7244 1020.47,-74.8126 1027.58,-73.2944"/>
<polygon fill="midnightblue" stroke="midnightblue" points="1001.15,-75.3594 992.104,-80.8711 1002.61,-82.205 1001.15,-75.3594"/>
</g>
<!-- Node9&#45;&gt;Node8 -->
<g id="edge9" class="edge"><title>Node9&#45;&gt;Node8</title>
<path fill="none" stroke="midnightblue" d="M983.922,-121.021C986.705,-119.408 989.421,-117.73 992,-116 1008.04,-105.237 1024.2,-89.675 1033.91,-79.6979"/>
<polygon fill="midnightblue" stroke="midnightblue" points="982.003,-118.08 974.892,-125.934 985.348,-124.229 982.003,-118.08"/>
</g>
<!-- Node10&#45;&gt;Node7 -->
<g id="edge11" class="edge"><title>Node10&#45;&gt;Node7</title>
<path fill="none" stroke="midnightblue" d="M854.895,-93.1542C865.156,-93.0117 875.725,-92.8649 885.742,-92.7258"/>
<polygon fill="midnightblue" stroke="midnightblue" points="854.719,-89.6562 844.769,-93.2949 854.817,-96.6556 854.719,-89.6562"/>
</g>
<!-- Node10&#45;&gt;Node9 -->
<g id="edge12" class="edge"><title>Node10&#45;&gt;Node9</title>
<path fill="none" stroke="midnightblue" d="M832.84,-106.677C851.041,-112.617 872.859,-119.739 891.893,-125.951"/>
<polygon fill="midnightblue" stroke="midnightblue" points="833.733,-103.287 823.141,-103.511 831.561,-109.941 833.733,-103.287"/>
</g>
<!-- Node11&#45;&gt;Node3 -->
<g id="edge14" class="edge"><title>Node11&#45;&gt;Node3</title>
<path fill="none" stroke="midnightblue" d="M271.642,-130.298C280.37,-128.853 289.297,-127.375 297.941,-125.944"/>
<polygon fill="midnightblue" stroke="midnightblue" points="270.808,-126.888 261.514,-131.974 271.952,-133.794 270.808,-126.888"/>
</g>
<!-- Node12&#45;&gt;Node7 -->
<g id="edge16" class="edge"><title>Node12&#45;&gt;Node7</title>
<path fill="none" stroke="midnightblue" d="M835.234,-60.5992C851.905,-65.6931 871.286,-71.6151 888.695,-76.9346"/>
<polygon fill="midnightblue" stroke="midnightblue" points="835.832,-57.1224 825.246,-57.5473 833.787,-63.8168 835.832,-57.1224"/>
</g>
<!-- Node12&#45;&gt;Node8 -->
<g id="edge17" class="edge"><title>Node12&#45;&gt;Node8</title>
<path fill="none" stroke="midnightblue" d="M856.558,-53.5272C913.882,-58.592 994.716,-65.7339 1027.89,-68.6652"/>
<polygon fill="midnightblue" stroke="midnightblue" points="856.772,-50.0325 846.502,-52.6388 856.155,-57.0054 856.772,-50.0325"/>
</g>
<!-- Node13 -->
<g id="node13" class="node"><title>Node13</title>
<g id="a_node13"><a xlink:href="classtime__step.html#a2c022f11247af72e607b1493289aa974" target="_top" xlink:title=" Step forward one IO time step. ">
<polygon fill="white" stroke="black" points="897,-0.5 897,-19.5 981,-19.5 981,-0.5 897,-0.5"/>
<text text-anchor="middle" x="939" y="-7.5" font-family="Helvetica,sans-Serif" font-size="10.00">time_step::step</text>
</a>
</g>
</g>
<!-- Node12&#45;&gt;Node13 -->
<g id="edge18" class="edge"><title>Node12&#45;&gt;Node13</title>
<path fill="none" stroke="midnightblue" d="M840.172,-35.8157C860.164,-30.54 883.219,-24.4562 901.924,-19.5201"/>
<polygon fill="midnightblue" stroke="midnightblue" points="839.113,-32.4752 830.337,-38.411 840.899,-39.2435 839.113,-32.4752"/>
</g>
<!-- Node13&#45;&gt;Node8 -->
<g id="edge19" class="edge"><title>Node13&#45;&gt;Node8</title>
<path fill="none" stroke="midnightblue" d="M972.395,-23.84C978.995,-26.9672 985.809,-30.4264 992,-34 1005.89,-42.0191 1020.77,-52.7984 1030.85,-60.4661"/>
<polygon fill="midnightblue" stroke="midnightblue" points="973.526,-20.5081 962.977,-19.5211 970.608,-26.871 973.526,-20.5081"/>
</g>
</g>
</svg>
        <g id="navigator" transform="translate(0 0)" fill="#404254">
                <rect fill="#f2f5e9" fill-opacity="0.5" stroke="#606060" stroke-width=".5" x="0" y="0" width="60" height="60"/>
                <use id="zoomplus" xlink:href="#zoomPlus" x="17" y="9" onmousedown="handleZoom(evt,'in')"/>
                <use id="zoomminus" xlink:href="#zoomMin" x="42" y="9" onmousedown="handleZoom(evt,'out')"/>
                <use id="reset" xlink:href="#resetDef" x="30" y="36" onmousedown="handleReset()"/>
                <g id="arrowUp" xlink:href="#dirArrow" transform="translate(30 24)" onmousedown="handlePan(0,-1)">
                  <use xlink:href="#rim" fill="#404040">
                        <set attributeName="fill" to="#808080" begin="arrowUp.mouseover" end="arrowUp.mouseout"/>
                  </use>
                  <path fill="none" stroke="white" stroke-width="1.5" d="M0,-3.0v7 M-2.5,-0.5L0,-3.0L2.5,-0.5"/>
                </g>
                <g id="arrowRight" xlink:href="#dirArrow" transform="rotate(90) translate(36 -43)" onmousedown="handlePan(1,0)">
                  <use xlink:href="#rim" fill="#404040">
                        <set attributeName="fill" to="#808080" begin="arrowRight.mouseover" end="arrowRight.mouseout"/>
                  </use>
                  <path fill="none" stroke="white" stroke-width="1.5" d="M0,-3.0v7 M-2.5,-0.5L0,-3.0L2.5,-0.5"/>
                </g>
                <g id="arrowDown" xlink:href="#dirArrow" transform="rotate(180) translate(-30 -48)" onmousedown="handlePan(0,1)">
                  <use xlink:href="#rim" fill="#404040">
                        <set attributeName="fill" to="#808080" begin="arrowDown.mouseover" end="arrowDown.mouseout"/>
                  </use>
                  <path fill="none" stroke="white" stroke-width="1.5" d="M0,-3.0v7 M-2.5,-0.5L0,-3.0L2.5,-0.5"/>
                </g>
                <g id="arrowLeft" xlink:href="#dirArrow" transform="rotate(270) translate(-36 17)" onmousedown="handlePan(-1,0)">
                  <use xlink:href="#rim" fill="#404040">
                        <set attributeName="fill" to="#808080" begin="arrowLeft.mouseover" end="arrowLeft.mouseout"/>
                  </use>
                  <path fill="none" stroke="white" stroke-width="1.5" d="M0,-3.0v7 M-2.5,-0.5L0,-3.0L2.5,-0.5"/>
                </g>
        </g>
        <svg viewBox="0 0 15 15" width="100%" height="30px" preserveAspectRatio="xMaxYMin meet">
         <g id="arrow_out" transform="scale(0.3 0.3)">
          <a xlink:href="classio__routines_a2f5490f632bd50662c7da9fd964e88e3_icgraph_org.svg" target="_base">
           <rect id="button" ry="5" rx="5" y="6" x="6" height="38" width="38"
                fill="#f2f5e9" fill-opacity="0.5" stroke="#606060" stroke-width="1.0"/>
           <path id="arrow"
             d="M 11.500037,31.436501 C 11.940474,20.09759 22.043105,11.32322 32.158766,21.979434 L 37.068811,17.246167 C 37.068811,17.246167 37.088388,32 37.088388,32 L 22.160133,31.978069 C 22.160133,31.978069 26.997745,27.140456 26.997745,27.140456 C 18.528582,18.264221 13.291696,25.230495 11.500037,31.436501 z"
             style="fill:#404040;"/>
          </a>
         </g>
        </svg>
</svg>
