<?xml version="1.0" encoding="UTF-8" standalone="no"?>
<!DOCTYPE svg PUBLIC "-//W3C//DTD SVG 1.1//EN"
 "http://www.w3.org/Graphics/SVG/1.1/DTD/svg11.dtd">
<!-- Generated by graphviz version 2.32.0 (20130809.1645)
 -->
<!-- Title: init::init_domain Pages: 1 -->
<svg width="378pt" height="47pt"
 viewBox="0.00 0.00 378.00 47.00" xmlns="http://www.w3.org/2000/svg" xmlns:xlink="http://www.w3.org/1999/xlink">
<g id="graph0" class="graph" transform="scale(1 1) rotate(0) translate(4 43)">
<title>init::init_domain</title>
<polygon fill="white" stroke="white" points="-4,5 -4,-43 375,-43 375,5 -4,5"/>
<!-- Node1 -->
<g id="node1" class="node"><title>Node1</title>
<polygon fill="#bfbfbf" stroke="black" points="0.5,-19.5 0.5,-38.5 85.5,-38.5 85.5,-19.5 0.5,-19.5"/>
<text text-anchor="middle" x="43" y="-26.5" font-family="Helvetica,sans-Serif" font-size="10.00">init::init_domain</text>
</g>
<!-- Node2 -->
<g id="node2" class="node"><title>Node2</title>
<g id="a_node2"><a xlink:href="classinit.html#a1dd1e2b38eef39cba464f65c9ce82568" target="_top" xlink:title="init::init_model">
<polygon fill="white" stroke="black" points="222,-19.5 222,-38.5 302,-38.5 302,-19.5 222,-19.5"/>
<text text-anchor="middle" x="262" y="-26.5" font-family="Helvetica,sans-Serif" font-size="10.00">init::init_model</text>
</a>
</g>
</g>
<!-- Node1&#45;&gt;Node2 -->
<g id="edge1" class="edge"><title>Node1&#45;&gt;Node2</title>
<path fill="none" stroke="midnightblue" d="M95.6097,-29C134.293,-29 186.431,-29 221.75,-29"/>
<polygon fill="midnightblue" stroke="midnightblue" points="95.5831,-25.5001 85.583,-29 95.583,-32.5001 95.5831,-25.5001"/>
</g>
<!-- Node4 -->
<g id="node4" class="node"><title>Node4</title>
<g id="a_node4"><a xlink:href="classinit.html#a1c6cab46bb16bea719da3b193c43ccb3" target="_top" xlink:title="init::init_bc">
<polygon fill="white" stroke="black" points="122,-0.5 122,-19.5 186,-19.5 186,-0.5 122,-0.5"/>
<text text-anchor="middle" x="154" y="-7.5" font-family="Helvetica,sans-Serif" font-size="10.00">init::init_bc</text>
</a>
</g>
</g>
<!-- Node1&#45;&gt;Node4 -->
<g id="edge3" class="edge"><title>Node1&#45;&gt;Node4</title>
<path fill="none" stroke="midnightblue" d="M95.5388,-20.0162C104.5,-18.4542 113.567,-16.8736 121.77,-15.4438"/>
<polygon fill="midnightblue" stroke="midnightblue" points="94.7696,-16.5974 85.5192,-21.7627 95.9717,-23.4934 94.7696,-16.5974"/>
</g>
<!-- Node3 -->
<g id="node3" class="node"><title>Node3</title>
<g id="a_node3"><a xlink:href="driver_8f90.html#ab1e5a5816a57fc6e95d9563c2bb53590" target="_top" xlink:title=" Main Program ">
<polygon fill="white" stroke="black" points="338,-19.5 338,-38.5 370,-38.5 370,-19.5 338,-19.5"/>
<text text-anchor="middle" x="354" y="-26.5" font-family="Helvetica,sans-Serif" font-size="10.00">icar</text>
</a>
</g>
</g>
<!-- Node2&#45;&gt;Node3 -->
<g id="edge2" class="edge"><title>Node2&#45;&gt;Node3</title>
<path fill="none" stroke="midnightblue" d="M312.233,-29C321.449,-29 330.425,-29 337.599,-29"/>
<polygon fill="midnightblue" stroke="midnightblue" points="312.214,-25.5001 302.213,-29 312.213,-32.5001 312.214,-25.5001"/>
</g>
<!-- Node4&#45;&gt;Node2 -->
<g id="edge4" class="edge"><title>Node4&#45;&gt;Node2</title>
<path fill="none" stroke="midnightblue" d="M196.196,-17.3841C204.584,-18.8877 213.388,-20.4658 221.708,-21.9572"/>
<polygon fill="midnightblue" stroke="midnightblue" points="196.691,-13.9172 186.23,-15.5979 195.456,-20.8074 196.691,-13.9172"/>
</g>
</g>
</svg>
