<?xml version="1.0" encoding="UTF-8" standalone="no"?>
<!DOCTYPE svg PUBLIC "-//W3C//DTD SVG 1.1//EN"
 "http://www.w3.org/Graphics/SVG/1.1/DTD/svg11.dtd">
<!-- Generated by graphviz version 2.32.0 (20130809.1645)
 -->
<!-- Title: vertical_interpolation::vinterp Pages: 1 -->
<svg width="616pt" height="196pt"
 viewBox="0.00 0.00 616.00 195.65" xmlns="http://www.w3.org/2000/svg" xmlns:xlink="http://www.w3.org/1999/xlink">
<g id="graph0" class="graph" transform="scale(1 1) rotate(0) translate(4 191.647)">
<title>vertical_interpolation::vinterp</title>
<polygon fill="white" stroke="white" points="-4,5 -4,-191.647 613,-191.647 613,5 -4,5"/>
<!-- Node1 -->
<g id="node1" class="node"><title>Node1</title>
<polygon fill="#bfbfbf" stroke="black" points="0,-102.647 0,-132.647 106,-132.647 106,-102.647 0,-102.647"/>
<text text-anchor="start" x="8" y="-120.647" font-family="Helvetica,sans-Serif" font-size="10.00">vertical_interpolation</text>
<text text-anchor="middle" x="53" y="-109.647" font-family="Helvetica,sans-Serif" font-size="10.00">::vinterp</text>
</g>
<!-- Node2 -->
<g id="node2" class="node"><title>Node2</title>
<g id="a_node2"><a xlink:href="classboundary__conditions.html#a3d4ddfc81942b206888c807998f4bb3c" target="_top" xlink:title=" Generic routine to read a forcing variable (varname) from a netcdf file (filename) at a time step (c...">
<polygon fill="white" stroke="black" points="142,-69.6474 142,-99.6474 248,-99.6474 248,-69.6474 142,-69.6474"/>
<text text-anchor="start" x="150" y="-87.6474" font-family="Helvetica,sans-Serif" font-size="10.00">boundary_conditions</text>
<text text-anchor="middle" x="195" y="-76.6474" font-family="Helvetica,sans-Serif" font-size="10.00">::read_var</text>
</a>
</g>
</g>
<!-- Node1&#45;&gt;Node2 -->
<g id="edge1" class="edge"><title>Node1&#45;&gt;Node2</title>
<path fill="none" stroke="midnightblue" d="M116.107,-103.008C124.695,-100.984 133.443,-98.9216 141.826,-96.9457"/>
<polygon fill="midnightblue" stroke="midnightblue" points="115.061,-99.6584 106.131,-105.359 116.667,-106.472 115.061,-99.6584"/>
</g>
<!-- Node8 -->
<g id="node8" class="node"><title>Node8</title>
<g id="a_node8"><a xlink:href="classboundary__conditions.html#ac4cfb5127bfecdc6e088ef949694ea4a" target="_top" xlink:title=" Remove linear theory topographic winds perturbations from the low resolution wind field...">
<polygon fill="white" stroke="black" points="284,-157.647 284,-187.647 398,-187.647 398,-157.647 284,-157.647"/>
<text text-anchor="start" x="292" y="-175.647" font-family="Helvetica,sans-Serif" font-size="10.00">boundary_conditions</text>
<text text-anchor="middle" x="341" y="-164.647" font-family="Helvetica,sans-Serif" font-size="10.00">::remove_linear_winds</text>
</a>
</g>
</g>
<!-- Node1&#45;&gt;Node8 -->
<g id="edge10" class="edge"><title>Node1&#45;&gt;Node8</title>
<path fill="none" stroke="midnightblue" d="M116.15,-129.599C166.07,-139.199 235.569,-152.564 283.832,-161.846"/>
<polygon fill="midnightblue" stroke="midnightblue" points="116.605,-126.123 106.124,-127.671 115.283,-132.997 116.605,-126.123"/>
</g>
<!-- Node3 -->
<g id="node3" class="node"><title>Node3</title>
<g id="a_node3"><a xlink:href="classboundary__conditions.html#afd8110e2b16915ce0cb12ce4958fe09c" target="_top" xlink:title=" Initialize the external winds information (filenames, nfiles, etc) and read the initial conditions ...">
<polygon fill="white" stroke="black" points="288,-20.6474 288,-50.6474 394,-50.6474 394,-20.6474 288,-20.6474"/>
<text text-anchor="start" x="296" y="-38.6474" font-family="Helvetica,sans-Serif" font-size="10.00">boundary_conditions</text>
<text text-anchor="middle" x="341" y="-27.6474" font-family="Helvetica,sans-Serif" font-size="10.00">::ext_winds_init</text>
</a>
</g>
</g>
<!-- Node2&#45;&gt;Node3 -->
<g id="edge2" class="edge"><title>Node2&#45;&gt;Node3</title>
<path fill="none" stroke="midnightblue" d="M250.043,-66.2578C265.036,-61.1559 281.14,-55.6763 295.519,-50.7833"/>
<polygon fill="midnightblue" stroke="midnightblue" points="248.719,-63.0111 240.38,-69.546 250.974,-69.6379 248.719,-63.0111"/>
</g>
<!-- Node4 -->
<g id="node4" class="node"><title>Node4</title>
<g id="a_node4"><a xlink:href="classboundary__conditions.html#a07a42f467f470ada98e0a35fd5a75f66" target="_top" xlink:title=" Initialize the boundary conditions (read inital conditions, etc.) ">
<polygon fill="white" stroke="black" points="434,-31.6474 434,-61.6474 540,-61.6474 540,-31.6474 434,-31.6474"/>
<text text-anchor="start" x="442" y="-49.6474" font-family="Helvetica,sans-Serif" font-size="10.00">boundary_conditions</text>
<text text-anchor="middle" x="487" y="-38.6474" font-family="Helvetica,sans-Serif" font-size="10.00">::bc_init</text>
</a>
</g>
</g>
<!-- Node2&#45;&gt;Node4 -->
<g id="edge5" class="edge"><title>Node2&#45;&gt;Node4</title>
<path fill="none" stroke="midnightblue" d="M214.857,-61.7555C231.071,-44.0087 256.19,-20.7862 284,-10.6474 331.602,6.70687 348.285,-0.87169 398,-10.6474 418.57,-14.6922 440.388,-23.5837 457.154,-31.5176"/>
<polygon fill="midnightblue" stroke="midnightblue" points="212.051,-59.6448 208.056,-69.4574 217.298,-64.2781 212.051,-59.6448"/>
</g>
<!-- Node6 -->
<g id="node6" class="node"><title>Node6</title>
<g id="a_node6"><a xlink:href="classboundary__conditions.html#a40ba01db58736c2bb018af7ebe72f55f" target="_top" xlink:title=" Update the external wind field ">
<polygon fill="white" stroke="black" points="288,-69.6474 288,-99.6474 394,-99.6474 394,-69.6474 288,-69.6474"/>
<text text-anchor="start" x="296" y="-87.6474" font-family="Helvetica,sans-Serif" font-size="10.00">boundary_conditions</text>
<text text-anchor="middle" x="341" y="-76.6474" font-family="Helvetica,sans-Serif" font-size="10.00">::update_ext_winds</text>
</a>
</g>
</g>
<!-- Node2&#45;&gt;Node6 -->
<g id="edge6" class="edge"><title>Node2&#45;&gt;Node6</title>
<path fill="none" stroke="midnightblue" d="M258.495,-84.6474C268.301,-84.6474 278.346,-84.6474 287.885,-84.6474"/>
<polygon fill="midnightblue" stroke="midnightblue" points="258.395,-81.1475 248.395,-84.6474 258.395,-88.1475 258.395,-81.1475"/>
</g>
<!-- Node7 -->
<g id="node7" class="node"><title>Node7</title>
<g id="a_node7"><a xlink:href="classboundary__conditions.html#a1e8385c37634f3d7f70ea7c749dcda11" target="_top" xlink:title=" Read in the next timestep of input data and apply to the dXdt grids as appropriate. ">
<polygon fill="white" stroke="black" points="434,-102.647 434,-132.647 540,-132.647 540,-102.647 434,-102.647"/>
<text text-anchor="start" x="442" y="-120.647" font-family="Helvetica,sans-Serif" font-size="10.00">boundary_conditions</text>
<text text-anchor="middle" x="487" y="-109.647" font-family="Helvetica,sans-Serif" font-size="10.00">::bc_update</text>
</a>
</g>
</g>
<!-- Node2&#45;&gt;Node7 -->
<g id="edge9" class="edge"><title>Node2&#45;&gt;Node7</title>
<path fill="none" stroke="midnightblue" d="M253.472,-102.28C263.563,-104.812 274.026,-107.085 284,-108.647 334.461,-116.552 392.815,-118.379 433.789,-118.483"/>
<polygon fill="midnightblue" stroke="midnightblue" points="254.098,-98.8263 243.538,-99.6784 252.324,-105.598 254.098,-98.8263"/>
</g>
<!-- Node3&#45;&gt;Node4 -->
<g id="edge3" class="edge"><title>Node3&#45;&gt;Node4</title>
<path fill="none" stroke="midnightblue" d="M404.495,-40.4213C414.301,-41.1704 424.346,-41.9377 433.885,-42.6664"/>
<polygon fill="midnightblue" stroke="midnightblue" points="404.632,-36.9217 394.395,-39.6498 404.099,-43.9014 404.632,-36.9217"/>
</g>
<!-- Node5 -->
<g id="node5" class="node"><title>Node5</title>
<g id="a_node5"><a xlink:href="driver_8f90.html#ab1e5a5816a57fc6e95d9563c2bb53590" target="_top" xlink:title=" Main Program ">
<polygon fill="white" stroke="black" points="576,-72.1474 576,-91.1474 608,-91.1474 608,-72.1474 576,-72.1474"/>
<text text-anchor="middle" x="592" y="-79.1474" font-family="Helvetica,sans-Serif" font-size="10.00">icar</text>
</a>
</g>
</g>
<!-- Node4&#45;&gt;Node5 -->
<g id="edge4" class="edge"><title>Node4&#45;&gt;Node5</title>
<path fill="none" stroke="midnightblue" d="M541.777,-64.9211C554.215,-69.1477 566.476,-73.314 575.649,-76.4312"/>
<polygon fill="midnightblue" stroke="midnightblue" points="542.873,-61.5972 532.279,-61.6937 540.621,-68.225 542.873,-61.5972"/>
</g>
<!-- Node6&#45;&gt;Node7 -->
<g id="edge7" class="edge"><title>Node6&#45;&gt;Node7</title>
<path fill="none" stroke="midnightblue" d="M404.186,-98.8983C414.089,-101.168 424.245,-103.495 433.885,-105.704"/>
<polygon fill="midnightblue" stroke="midnightblue" points="404.924,-95.4768 394.395,-96.6545 403.36,-102.3 404.924,-95.4768"/>
</g>
<!-- Node7&#45;&gt;Node5 -->
<g id="edge8" class="edge"><title>Node7&#45;&gt;Node5</title>
<path fill="none" stroke="midnightblue" d="M540.842,-99.1782C553.643,-94.7041 566.333,-90.2687 575.747,-86.9787"/>
<polygon fill="midnightblue" stroke="midnightblue" points="539.37,-95.9853 531.084,-102.589 541.679,-102.593 539.37,-95.9853"/>
</g>
<!-- Node8&#45;&gt;Node4 -->
<g id="edge11" class="edge"><title>Node8&#45;&gt;Node4</title>
<path fill="none" stroke="midnightblue" d="M367.051,-150.728C396.102,-125.308 443.234,-84.0674 468.569,-61.8999"/>
<polygon fill="midnightblue" stroke="midnightblue" points="364.591,-148.23 359.37,-157.449 369.2,-153.498 364.591,-148.23"/>
</g>
<!-- Node8&#45;&gt;Node7 -->
<g id="edge12" class="edge"><title>Node8&#45;&gt;Node7</title>
<path fill="none" stroke="midnightblue" d="M390.91,-153.966C409.097,-147.02 429.482,-139.234 446.699,-132.658"/>
<polygon fill="midnightblue" stroke="midnightblue" points="389.442,-150.781 381.349,-157.618 391.939,-157.32 389.442,-150.781"/>
</g>
</g>
</svg>
