<?xml version="1.0" encoding="UTF-8" standalone="no"?>
<!DOCTYPE svg PUBLIC "-//W3C//DTD SVG 1.1//EN"
 "http://www.w3.org/Graphics/SVG/1.1/DTD/svg11.dtd">
<!-- Generated by graphviz version 2.38.0 (20140413.2041)
 -->
<!-- Title: geo::find_location Pages: 1 -->
<svg width="204pt" height="66pt"
 viewBox="0.00 0.00 204.00 66.00" xmlns="http://www.w3.org/2000/svg" xmlns:xlink="http://www.w3.org/1999/xlink">
<g id="graph0" class="graph" transform="scale(1 1) rotate(0) translate(4 62)">
<title>geo::find_location</title>
<polygon fill="white" stroke="none" points="-4,4 -4,-62 200,-62 200,4 -4,4"/>
<!-- Node1 -->
<g id="node1" class="node"><title>Node1</title>
<polygon fill="#bfbfbf" stroke="black" points="0,-19.5 0,-38.5 93,-38.5 93,-19.5 0,-19.5"/>
<text text-anchor="middle" x="46.5" y="-26.5" font-family="Helvetica,sans-Serif" font-size="10.00">geo::find_location</text>
</g>
<!-- Node2 -->
<g id="node2" class="node"><title>Node2</title>
<g id="a_node2"><a xlink:href="classgeo.html#a90d24402dc82ec462d2683728881818e" target="_top" xlink:title=" Find the minimum next step size in the x direction xw=minxw(xw,lolon,xc,yc,lon) ">
<polygon fill="white" stroke="black" points="129,-38.5 129,-57.5 196,-57.5 196,-38.5 129,-38.5"/>
<text text-anchor="middle" x="162.5" y="-45.5" font-family="Helvetica,sans-Serif" font-size="10.00">geo::minxw</text>
</a>
</g>
</g>
<!-- Node1&#45;&gt;Node2 -->
<g id="edge1" class="edge"><title>Node1&#45;&gt;Node2</title>
<path fill="none" stroke="midnightblue" d="M93.2113,-36.6185C101.667,-38.0278 110.467,-39.4946 118.828,-40.8881"/>
<polygon fill="midnightblue" stroke="midnightblue" points="118.316,-44.3509 128.756,-42.5426 119.467,-37.4462 118.316,-44.3509"/>
</g>
<!-- Node3 -->
<g id="node3" class="node"><title>Node3</title>
<g id="a_node3"><a xlink:href="classgeo.html#a26f0801662f938ba2e6cd8d33a7be586" target="_top" xlink:title=" Find the minimum next step size in the y direction yw = minyw(yw,lolat,xc,yc,lat) ...">
<polygon fill="white" stroke="black" points="129,-0.5 129,-19.5 196,-19.5 196,-0.5 129,-0.5"/>
<text text-anchor="middle" x="162.5" y="-7.5" font-family="Helvetica,sans-Serif" font-size="10.00">geo::minyw</text>
</a>
</g>
</g>
<!-- Node1&#45;&gt;Node3 -->
<g id="edge2" class="edge"><title>Node1&#45;&gt;Node3</title>
<path fill="none" stroke="midnightblue" d="M93.2113,-21.3815C101.667,-19.9722 110.467,-18.5054 118.828,-17.1119"/>
<polygon fill="midnightblue" stroke="midnightblue" points="119.467,-20.5538 128.756,-15.4574 118.316,-13.6491 119.467,-20.5538"/>
</g>
</g>
</svg>
