<?xml version="1.0" encoding="UTF-8" standalone="no"?>
<!DOCTYPE svg PUBLIC "-//W3C//DTD SVG 1.1//EN"
 "http://www.w3.org/Graphics/SVG/1.1/DTD/svg11.dtd">
<!-- Generated by graphviz version 2.38.0 (20140413.2041)
 -->
<!-- Title: adv_mpdata::flux1 Pages: 1 -->
<svg width="878pt" height="66pt"
 viewBox="0.00 0.00 878.00 66.00" xmlns="http://www.w3.org/2000/svg" xmlns:xlink="http://www.w3.org/1999/xlink">
<g id="graph0" class="graph" transform="scale(1 1) rotate(0) translate(4 62)">
<title>adv_mpdata::flux1</title>
<polygon fill="white" stroke="none" points="-4,4 -4,-62 874,-62 874,4 -4,4"/>
<!-- Node1 -->
<g id="node1" class="node"><title>Node1</title>
<polygon fill="#bfbfbf" stroke="black" points="0,-19.5 0,-38.5 97,-38.5 97,-19.5 0,-19.5"/>
<text text-anchor="middle" x="48.5" y="-26.5" font-family="Helvetica,sans-Serif" font-size="10.00">adv_mpdata::flux1</text>
</g>
<!-- Node2 -->
<g id="node2" class="node"><title>Node2</title>
<g id="a_node2"><a xlink:href="classadv__mpdata.html#a7ffe4b8c6d4a1bb51d0f4693043f3147" target="_top" xlink:title="adv_mpdata::flux_limiter">
<polygon fill="white" stroke="black" points="133,-19.5 133,-38.5 256,-38.5 256,-19.5 133,-19.5"/>
<text text-anchor="middle" x="194.5" y="-26.5" font-family="Helvetica,sans-Serif" font-size="10.00">adv_mpdata::flux_limiter</text>
</a>
</g>
</g>
<!-- Node1&#45;&gt;Node2 -->
<g id="edge1" class="edge"><title>Node1&#45;&gt;Node2</title>
<path fill="none" stroke="midnightblue" d="M107.198,-29C115.657,-29 124.389,-29 132.904,-29"/>
<polygon fill="midnightblue" stroke="midnightblue" points="107.05,-25.5001 97.0501,-29 107.05,-32.5001 107.05,-25.5001"/>
</g>
<!-- Node3 -->
<g id="node3" class="node"><title>Node3</title>
<g id="a_node3"><a xlink:href="classadv__mpdata.html#a3f8f14aa56b629a78a5935b1a130e4c2" target="_top" xlink:title="adv_mpdata::advect3d">
<polygon fill="white" stroke="black" points="292,-19.5 292,-38.5 408,-38.5 408,-19.5 292,-19.5"/>
<text text-anchor="middle" x="350" y="-26.5" font-family="Helvetica,sans-Serif" font-size="10.00">adv_mpdata::advect3d</text>
</a>
</g>
</g>
<!-- Node2&#45;&gt;Node3 -->
<g id="edge2" class="edge"><title>Node2&#45;&gt;Node3</title>
<path fill="none" stroke="midnightblue" d="M266.445,-29C274.932,-29 283.515,-29 291.774,-29"/>
<polygon fill="midnightblue" stroke="midnightblue" points="266.167,-25.5001 256.167,-29 266.167,-32.5001 266.167,-25.5001"/>
</g>
<!-- Node4 -->
<g id="node4" class="node"><title>Node4</title>
<g id="a_node4"><a xlink:href="classadv__mpdata.html#ab7491af9ff38f8d903ae2d4ddabc410d" target="_top" xlink:title="adv_mpdata::mpdata">
<polygon fill="white" stroke="black" points="444,-38.5 444,-57.5 552,-57.5 552,-38.5 444,-38.5"/>
<text text-anchor="middle" x="498" y="-45.5" font-family="Helvetica,sans-Serif" font-size="10.00">adv_mpdata::mpdata</text>
</a>
</g>
</g>
<!-- Node3&#45;&gt;Node4 -->
<g id="edge3" class="edge"><title>Node3&#45;&gt;Node4</title>
<path fill="none" stroke="midnightblue" d="M418.23,-37.7492C426.769,-38.8603 435.413,-39.9852 443.692,-41.0626"/>
<polygon fill="midnightblue" stroke="midnightblue" points="418.652,-34.2746 408.284,-36.4548 417.749,-41.2161 418.652,-34.2746"/>
</g>
<!-- Node8 -->
<g id="node8" class="node"><title>Node8</title>
<g id="a_node8"><a xlink:href="classadv__upwind.html#a3a006d2b2d9ebc4dbd83152ff5a0f35b" target="_top" xlink:title="adv_upwind::upwind">
<polygon fill="white" stroke="black" points="445.5,-0.5 445.5,-19.5 550.5,-19.5 550.5,-0.5 445.5,-0.5"/>
<text text-anchor="middle" x="498" y="-7.5" font-family="Helvetica,sans-Serif" font-size="10.00">adv_upwind::upwind</text>
</a>
</g>
</g>
<!-- Node3&#45;&gt;Node8 -->
<g id="edge7" class="edge"><title>Node3&#45;&gt;Node8</title>
<path fill="none" stroke="midnightblue" d="M418.352,-20.235C427.339,-19.0654 436.441,-17.881 445.108,-16.753"/>
<polygon fill="midnightblue" stroke="midnightblue" points="417.749,-16.7839 408.284,-21.5452 418.652,-23.7254 417.749,-16.7839"/>
</g>
<!-- Node5 -->
<g id="node5" class="node"><title>Node5</title>
<g id="a_node5"><a xlink:href="classadvection.html#a27abbf643ae159c75c9c0c68b7627f31" target="_top" xlink:title="advection::advect">
<polygon fill="white" stroke="black" points="588,-19.5 588,-38.5 682,-38.5 682,-19.5 588,-19.5"/>
<text text-anchor="middle" x="635" y="-26.5" font-family="Helvetica,sans-Serif" font-size="10.00">advection::advect</text>
</a>
</g>
</g>
<!-- Node4&#45;&gt;Node5 -->
<g id="edge4" class="edge"><title>Node4&#45;&gt;Node5</title>
<path fill="none" stroke="midnightblue" d="M562.288,-39.0929C570.811,-37.8932 579.425,-36.6809 587.582,-35.5329"/>
<polygon fill="midnightblue" stroke="midnightblue" points="561.77,-35.6311 552.356,-40.4907 562.746,-42.5628 561.77,-35.6311"/>
</g>
<!-- Node6 -->
<g id="node6" class="node"><title>Node6</title>
<g id="a_node6"><a xlink:href="classtime__step.html#a2c022f11247af72e607b1493289aa974" target="_top" xlink:title=" Step forward one IO time step. ">
<polygon fill="white" stroke="black" points="718,-19.5 718,-38.5 802,-38.5 802,-19.5 718,-19.5"/>
<text text-anchor="middle" x="760" y="-26.5" font-family="Helvetica,sans-Serif" font-size="10.00">time_step::step</text>
</a>
</g>
</g>
<!-- Node5&#45;&gt;Node6 -->
<g id="edge5" class="edge"><title>Node5&#45;&gt;Node6</title>
<path fill="none" stroke="midnightblue" d="M692.191,-29C700.834,-29 709.618,-29 717.853,-29"/>
<polygon fill="midnightblue" stroke="midnightblue" points="692.151,-25.5001 682.151,-29 692.151,-32.5001 692.151,-25.5001"/>
</g>
<!-- Node7 -->
<g id="node7" class="node"><title>Node7</title>
<g id="a_node7"><a xlink:href="driver_8f90.html#ab1e5a5816a57fc6e95d9563c2bb53590" target="_top" xlink:title=" Main Program ">
<polygon fill="white" stroke="black" points="838,-19.5 838,-38.5 870,-38.5 870,-19.5 838,-19.5"/>
<text text-anchor="middle" x="854" y="-26.5" font-family="Helvetica,sans-Serif" font-size="10.00">icar</text>
</a>
</g>
</g>
<!-- Node6&#45;&gt;Node7 -->
<g id="edge6" class="edge"><title>Node6&#45;&gt;Node7</title>
<path fill="none" stroke="midnightblue" d="M812.253,-29C821.521,-29 830.5,-29 837.66,-29"/>
<polygon fill="midnightblue" stroke="midnightblue" points="812.156,-25.5001 802.156,-29 812.156,-32.5001 812.156,-25.5001"/>
</g>
<!-- Node8&#45;&gt;Node5 -->
<g id="edge8" class="edge"><title>Node8&#45;&gt;Node5</title>
<path fill="none" stroke="midnightblue" d="M560.939,-18.7173C569.993,-19.9917 579.182,-21.2849 587.847,-22.5045"/>
<polygon fill="midnightblue" stroke="midnightblue" points="561.199,-15.2195 550.808,-17.2916 560.223,-22.1512 561.199,-15.2195"/>
</g>
</g>
</svg>
