<?xml version="1.0" encoding="UTF-8" standalone="no"?>
<!DOCTYPE svg PUBLIC "-//W3C//DTD SVG 1.1//EN"
 "http://www.w3.org/Graphics/SVG/1.1/DTD/svg11.dtd">
<!-- Generated by graphviz version 2.32.0 (20130809.1645)
 -->
<!-- Title: geo::geo_interp2d Pages: 1 -->
<svg width="588pt" height="126pt"
 viewBox="0.00 0.00 588.00 126.00" xmlns="http://www.w3.org/2000/svg" xmlns:xlink="http://www.w3.org/1999/xlink">
<g id="graph0" class="graph" transform="scale(1 1) rotate(0) translate(4 122)">
<title>geo::geo_interp2d</title>
<polygon fill="white" stroke="white" points="-4,5 -4,-122 585,-122 585,5 -4,5"/>
<!-- Node1 -->
<g id="node1" class="node"><title>Node1</title>
<polygon fill="#bfbfbf" stroke="black" points="0,-22.5 0,-41.5 94,-41.5 94,-22.5 0,-22.5"/>
<text text-anchor="middle" x="47" y="-29.5" font-family="Helvetica,sans-Serif" font-size="10.00">geo::geo_interp2d</text>
</g>
<!-- Node2 -->
<g id="node2" class="node"><title>Node2</title>
<g id="a_node2"><a xlink:href="classboundary__conditions.html#a092406b0b0b0676f3fcd8e514b1a2663" target="_top" xlink:title=" Same as read_var but for 2&#45;dimensional data ">
<polygon fill="white" stroke="black" points="264,-55 264,-85 370,-85 370,-55 264,-55"/>
<text text-anchor="start" x="272" y="-73" font-family="Helvetica,sans-Serif" font-size="10.00">boundary_conditions</text>
<text text-anchor="middle" x="317" y="-62" font-family="Helvetica,sans-Serif" font-size="10.00">::read_2dvar</text>
</a>
</g>
</g>
<!-- Node1&#45;&gt;Node2 -->
<g id="edge1" class="edge"><title>Node1&#45;&gt;Node2</title>
<path fill="none" stroke="midnightblue" d="M94.4403,-43.8314C106,-46.4801 118.405,-49.0723 130,-51 174.828,-58.4527 226.253,-63.4364 263.653,-66.4226"/>
<polygon fill="midnightblue" stroke="midnightblue" points="95.0759,-40.3855 84.5403,-41.5045 93.4742,-47.1998 95.0759,-40.3855"/>
</g>
<!-- Node6 -->
<g id="node6" class="node"><title>Node6</title>
<g id="a_node6"><a xlink:href="classinit.html#a8b5935b5b45a47c58fdd67157c16764b" target="_top" xlink:title="init::init_ext_winds">
<polygon fill="white" stroke="black" points="130,-22.5 130,-41.5 228,-41.5 228,-22.5 130,-22.5"/>
<text text-anchor="middle" x="179" y="-29.5" font-family="Helvetica,sans-Serif" font-size="10.00">init::init_ext_winds</text>
</a>
</g>
</g>
<!-- Node1&#45;&gt;Node6 -->
<g id="edge6" class="edge"><title>Node1&#45;&gt;Node6</title>
<path fill="none" stroke="midnightblue" d="M104.376,-32C112.831,-32 121.485,-32 129.752,-32"/>
<polygon fill="midnightblue" stroke="midnightblue" points="104.199,-28.5001 94.1992,-32 104.199,-35.5001 104.199,-28.5001"/>
</g>
<!-- Node7 -->
<g id="node7" class="node"><title>Node7</title>
<g id="a_node7"><a xlink:href="classinit.html#a1c6cab46bb16bea719da3b193c43ccb3" target="_top" xlink:title="init::init_bc">
<polygon fill="white" stroke="black" points="285,-0.5 285,-19.5 349,-19.5 349,-0.5 285,-0.5"/>
<text text-anchor="middle" x="317" y="-7.5" font-family="Helvetica,sans-Serif" font-size="10.00">init::init_bc</text>
</a>
</g>
</g>
<!-- Node1&#45;&gt;Node7 -->
<g id="edge10" class="edge"><title>Node1&#45;&gt;Node7</title>
<path fill="none" stroke="midnightblue" d="M91.9796,-20.0077C104.198,-17.1701 117.535,-14.5272 130,-13 184.175,-6.3627 247.882,-7.18129 284.926,-8.50425"/>
<polygon fill="midnightblue" stroke="midnightblue" points="90.9192,-16.6632 82.0227,-22.4167 92.5654,-23.4668 90.9192,-16.6632"/>
</g>
<!-- Node3 -->
<g id="node3" class="node"><title>Node3</title>
<g id="a_node3"><a xlink:href="classboundary__conditions.html#a07a42f467f470ada98e0a35fd5a75f66" target="_top" xlink:title=" Initialize the boundary conditions (read inital conditions, etc.) ">
<polygon fill="white" stroke="black" points="406,-88 406,-118 512,-118 512,-88 406,-88"/>
<text text-anchor="start" x="414" y="-106" font-family="Helvetica,sans-Serif" font-size="10.00">boundary_conditions</text>
<text text-anchor="middle" x="459" y="-95" font-family="Helvetica,sans-Serif" font-size="10.00">::bc_init</text>
</a>
</g>
</g>
<!-- Node2&#45;&gt;Node3 -->
<g id="edge2" class="edge"><title>Node2&#45;&gt;Node3</title>
<path fill="none" stroke="midnightblue" d="M380.107,-84.6395C388.695,-86.6637 397.443,-88.7258 405.826,-90.7018"/>
<polygon fill="midnightblue" stroke="midnightblue" points="380.667,-81.1757 370.131,-82.288 379.061,-87.989 380.667,-81.1757"/>
</g>
<!-- Node5 -->
<g id="node5" class="node"><title>Node5</title>
<g id="a_node5"><a xlink:href="classboundary__conditions.html#a1e8385c37634f3d7f70ea7c749dcda11" target="_top" xlink:title=" Read in the next timestep of input data and apply to the dXdt grids as appropriate. ">
<polygon fill="white" stroke="black" points="406,-39 406,-69 512,-69 512,-39 406,-39"/>
<text text-anchor="start" x="414" y="-57" font-family="Helvetica,sans-Serif" font-size="10.00">boundary_conditions</text>
<text text-anchor="middle" x="459" y="-46" font-family="Helvetica,sans-Serif" font-size="10.00">::bc_update</text>
</a>
</g>
</g>
<!-- Node2&#45;&gt;Node5 -->
<g id="edge4" class="edge"><title>Node2&#45;&gt;Node5</title>
<path fill="none" stroke="midnightblue" d="M380.107,-62.9021C388.695,-61.9206 397.443,-60.9208 405.826,-59.9628"/>
<polygon fill="midnightblue" stroke="midnightblue" points="379.669,-59.4293 370.131,-64.0422 380.464,-66.384 379.669,-59.4293"/>
</g>
<!-- Node4 -->
<g id="node4" class="node"><title>Node4</title>
<g id="a_node4"><a xlink:href="driver_8f90.html#ab1e5a5816a57fc6e95d9563c2bb53590" target="_top" xlink:title=" Main Program ">
<polygon fill="white" stroke="black" points="548,-44.5 548,-63.5 580,-63.5 580,-44.5 548,-44.5"/>
<text text-anchor="middle" x="564" y="-51.5" font-family="Helvetica,sans-Serif" font-size="10.00">icar</text>
</a>
</g>
</g>
<!-- Node3&#45;&gt;Node4 -->
<g id="edge3" class="edge"><title>Node3&#45;&gt;Node4</title>
<path fill="none" stroke="midnightblue" d="M501.213,-83.3936C517.675,-75.5625 535.598,-67.0359 547.88,-61.1931"/>
<polygon fill="midnightblue" stroke="midnightblue" points="499.27,-80.442 491.744,-87.8986 502.278,-86.7632 499.27,-80.442"/>
</g>
<!-- Node5&#45;&gt;Node4 -->
<g id="edge5" class="edge"><title>Node5&#45;&gt;Node4</title>
<path fill="none" stroke="midnightblue" d="M522.369,-54C531.706,-54 540.543,-54 547.576,-54"/>
<polygon fill="midnightblue" stroke="midnightblue" points="522.104,-50.5001 512.104,-54 522.103,-57.5001 522.104,-50.5001"/>
</g>
<!-- Node6&#45;&gt;Node7 -->
<g id="edge7" class="edge"><title>Node6&#45;&gt;Node7</title>
<path fill="none" stroke="midnightblue" d="M238.631,-22.5156C254.513,-19.9465 271.09,-17.2649 284.807,-15.046"/>
<polygon fill="midnightblue" stroke="midnightblue" points="237.644,-19.1296 228.331,-24.1817 238.762,-26.0398 237.644,-19.1296"/>
</g>
<!-- Node8 -->
<g id="node8" class="node"><title>Node8</title>
<g id="a_node8"><a xlink:href="classinit.html#a1dd1e2b38eef39cba464f65c9ce82568" target="_top" xlink:title="init::init_model">
<polygon fill="white" stroke="black" points="419,-0.5 419,-19.5 499,-19.5 499,-0.5 419,-0.5"/>
<text text-anchor="middle" x="459" y="-7.5" font-family="Helvetica,sans-Serif" font-size="10.00">init::init_model</text>
</a>
</g>
</g>
<!-- Node7&#45;&gt;Node8 -->
<g id="edge8" class="edge"><title>Node7&#45;&gt;Node8</title>
<path fill="none" stroke="midnightblue" d="M359.136,-10C377.958,-10 400.155,-10 418.743,-10"/>
<polygon fill="midnightblue" stroke="midnightblue" points="359.071,-6.5001 349.071,-10 359.071,-13.5001 359.071,-6.5001"/>
</g>
<!-- Node8&#45;&gt;Node4 -->
<g id="edge9" class="edge"><title>Node8&#45;&gt;Node4</title>
<path fill="none" stroke="midnightblue" d="M497.222,-23.0581C502.222,-24.9701 507.259,-26.9784 512,-29 524.155,-34.1826 537.558,-40.7893 547.573,-45.9093"/>
<polygon fill="midnightblue" stroke="midnightblue" points="498.331,-19.7364 487.739,-19.522 495.886,-26.2953 498.331,-19.7364"/>
</g>
</g>
</svg>
