<?xml version="1.0" encoding="UTF-8" standalone="no"?>
<!DOCTYPE svg PUBLIC "-//W3C//DTD SVG 1.1//EN"
 "http://www.w3.org/Graphics/SVG/1.1/DTD/svg11.dtd">
<!-- Generated by graphviz version 2.32.0 (20130809.1645)
 -->
<!-- Title: module_sf_noahlsm::hrt Pages: 1 -->
<svg width="1046pt" height="87pt"
 viewBox="0.00 0.00 1046.00 87.00" xmlns="http://www.w3.org/2000/svg" xmlns:xlink="http://www.w3.org/1999/xlink">
<g id="graph0" class="graph" transform="scale(1 1) rotate(0) translate(4 83)">
<title>module_sf_noahlsm::hrt</title>
<polygon fill="white" stroke="white" points="-4,5 -4,-83 1043,-83 1043,5 -4,5"/>
<!-- Node1 -->
<g id="node1" class="node"><title>Node1</title>
<polygon fill="#bfbfbf" stroke="black" points="0.5,-29.5 0.5,-48.5 121.5,-48.5 121.5,-29.5 0.5,-29.5"/>
<text text-anchor="middle" x="61" y="-36.5" font-family="Helvetica,sans-Serif" font-size="10.00">module_sf_noahlsm::hrt</text>
</g>
<!-- Node2 -->
<g id="node2" class="node"><title>Node2</title>
<g id="a_node2"><a xlink:href="classmodule__sf__noahlsm.html#ac5c49267c44f18dfd5359b29fdfed38e" target="_top" xlink:title="module_sf_noahlsm::\lshflx">
<polygon fill="white" stroke="black" points="158,-24 158,-54 268,-54 268,-24 158,-24"/>
<text text-anchor="start" x="166" y="-42" font-family="Helvetica,sans-Serif" font-size="10.00">module_sf_noahlsm::</text>
<text text-anchor="middle" x="213" y="-31" font-family="Helvetica,sans-Serif" font-size="10.00">shflx</text>
</a>
</g>
</g>
<!-- Node1&#45;&gt;Node2 -->
<g id="edge1" class="edge"><title>Node1&#45;&gt;Node2</title>
<path fill="none" stroke="midnightblue" d="M131.879,-39C140.597,-39 149.409,-39 157.838,-39"/>
<polygon fill="midnightblue" stroke="midnightblue" points="131.715,-35.5001 121.715,-39 131.715,-42.5001 131.715,-35.5001"/>
</g>
<!-- Node3 -->
<g id="node3" class="node"><title>Node3</title>
<g id="a_node3"><a xlink:href="classmodule__sf__noahlsm.html#a6a17443ddbf15acdb25690cfbb3749a3" target="_top" xlink:title="module_sf_noahlsm::\lnopac">
<polygon fill="white" stroke="black" points="304,-49 304,-79 414,-79 414,-49 304,-49"/>
<text text-anchor="start" x="312" y="-67" font-family="Helvetica,sans-Serif" font-size="10.00">module_sf_noahlsm::</text>
<text text-anchor="middle" x="359" y="-56" font-family="Helvetica,sans-Serif" font-size="10.00">nopac</text>
</a>
</g>
</g>
<!-- Node2&#45;&gt;Node3 -->
<g id="edge2" class="edge"><title>Node2&#45;&gt;Node3</title>
<path fill="none" stroke="midnightblue" d="M277.991,-50.1095C286.561,-51.5974 295.284,-53.1119 303.667,-54.5672"/>
<polygon fill="midnightblue" stroke="midnightblue" points="278.481,-46.6424 268.03,-48.3802 277.284,-53.5392 278.481,-46.6424"/>
</g>
<!-- Node9 -->
<g id="node9" class="node"><title>Node9</title>
<g id="a_node9"><a xlink:href="classmodule__sf__noahlsm.html#a9d1e26133ed89bc5465a230d45d0625d" target="_top" xlink:title="module_sf_noahlsm::\lsnopac">
<polygon fill="white" stroke="black" points="304,-0 304,-30 414,-30 414,-0 304,-0"/>
<text text-anchor="start" x="312" y="-18" font-family="Helvetica,sans-Serif" font-size="10.00">module_sf_noahlsm::</text>
<text text-anchor="middle" x="359" y="-7" font-family="Helvetica,sans-Serif" font-size="10.00">snopac</text>
</a>
</g>
</g>
<!-- Node2&#45;&gt;Node9 -->
<g id="edge8" class="edge"><title>Node2&#45;&gt;Node9</title>
<path fill="none" stroke="midnightblue" d="M277.991,-28.3349C286.561,-26.9065 295.284,-25.4526 303.667,-24.0555"/>
<polygon fill="midnightblue" stroke="midnightblue" points="277.318,-24.8986 268.03,-29.995 278.469,-31.8033 277.318,-24.8986"/>
</g>
<!-- Node4 -->
<g id="node4" class="node"><title>Node4</title>
<g id="a_node4"><a xlink:href="classmodule__sf__noahlsm.html#a7cd9a2732205c21a5f59d679e0a1fddd" target="_top" xlink:title="module_sf_noahlsm::sflx">
<polygon fill="white" stroke="black" points="450.5,-29.5 450.5,-48.5 575.5,-48.5 575.5,-29.5 450.5,-29.5"/>
<text text-anchor="middle" x="513" y="-36.5" font-family="Helvetica,sans-Serif" font-size="10.00">module_sf_noahlsm::sflx</text>
</a>
</g>
</g>
<!-- Node3&#45;&gt;Node4 -->
<g id="edge3" class="edge"><title>Node3&#45;&gt;Node4</title>
<path fill="none" stroke="midnightblue" d="M423.894,-53.4911C433.892,-51.8466 444.178,-50.155 454.034,-48.5339"/>
<polygon fill="midnightblue" stroke="midnightblue" points="423.317,-50.0389 414.017,-55.1155 424.453,-56.9461 423.317,-50.0389"/>
</g>
<!-- Node5 -->
<g id="node5" class="node"><title>Node5</title>
<g id="a_node5"><a xlink:href="classmodule__sf__noahdrv.html#a329dccdd0c1fc2797bc8ebcc9bcc0ff6" target="_top" xlink:title="module_sf_noahdrv::\llsm_noah">
<polygon fill="white" stroke="black" points="612.5,-24 612.5,-54 719.5,-54 719.5,-24 612.5,-24"/>
<text text-anchor="start" x="620.5" y="-42" font-family="Helvetica,sans-Serif" font-size="10.00">module_sf_noahdrv::</text>
<text text-anchor="middle" x="666" y="-31" font-family="Helvetica,sans-Serif" font-size="10.00">lsm_noah</text>
</a>
</g>
</g>
<!-- Node4&#45;&gt;Node5 -->
<g id="edge4" class="edge"><title>Node4&#45;&gt;Node5</title>
<path fill="none" stroke="midnightblue" d="M586.109,-39C594.894,-39 603.74,-39 612.171,-39"/>
<polygon fill="midnightblue" stroke="midnightblue" points="585.853,-35.5001 575.853,-39 585.853,-42.5001 585.853,-35.5001"/>
</g>
<!-- Node6 -->
<g id="node6" class="node"><title>Node6</title>
<g id="a_node6"><a xlink:href="classland__surface.html#a5eda887fb43d0e56a673bbec669be5ad" target="_top" xlink:title="land_surface::lsm">
<polygon fill="white" stroke="black" points="756,-29.5 756,-48.5 850,-48.5 850,-29.5 756,-29.5"/>
<text text-anchor="middle" x="803" y="-36.5" font-family="Helvetica,sans-Serif" font-size="10.00">land_surface::lsm</text>
</a>
</g>
</g>
<!-- Node5&#45;&gt;Node6 -->
<g id="edge5" class="edge"><title>Node5&#45;&gt;Node6</title>
<path fill="none" stroke="midnightblue" d="M729.822,-39C738.617,-39 747.52,-39 755.927,-39"/>
<polygon fill="midnightblue" stroke="midnightblue" points="729.581,-35.5001 719.581,-39 729.581,-42.5001 729.581,-35.5001"/>
</g>
<!-- Node7 -->
<g id="node7" class="node"><title>Node7</title>
<g id="a_node7"><a xlink:href="classtime__step.html#a2c022f11247af72e607b1493289aa974" target="_top" xlink:title=" Step forward one IO time step. ">
<polygon fill="white" stroke="black" points="886,-29.5 886,-48.5 970,-48.5 970,-29.5 886,-29.5"/>
<text text-anchor="middle" x="928" y="-36.5" font-family="Helvetica,sans-Serif" font-size="10.00">time_step::step</text>
</a>
</g>
</g>
<!-- Node6&#45;&gt;Node7 -->
<g id="edge6" class="edge"><title>Node6&#45;&gt;Node7</title>
<path fill="none" stroke="midnightblue" d="M860.191,-39C868.834,-39 877.618,-39 885.853,-39"/>
<polygon fill="midnightblue" stroke="midnightblue" points="860.151,-35.5001 850.151,-39 860.151,-42.5001 860.151,-35.5001"/>
</g>
<!-- Node8 -->
<g id="node8" class="node"><title>Node8</title>
<g id="a_node8"><a xlink:href="driver_8f90.html#ab1e5a5816a57fc6e95d9563c2bb53590" target="_top" xlink:title=" Main Program ">
<polygon fill="white" stroke="black" points="1006,-29.5 1006,-48.5 1038,-48.5 1038,-29.5 1006,-29.5"/>
<text text-anchor="middle" x="1022" y="-36.5" font-family="Helvetica,sans-Serif" font-size="10.00">icar</text>
</a>
</g>
</g>
<!-- Node7&#45;&gt;Node8 -->
<g id="edge7" class="edge"><title>Node7&#45;&gt;Node8</title>
<path fill="none" stroke="midnightblue" d="M980.253,-39C989.521,-39 998.5,-39 1005.66,-39"/>
<polygon fill="midnightblue" stroke="midnightblue" points="980.156,-35.5001 970.156,-39 980.156,-42.5001 980.156,-35.5001"/>
</g>
<!-- Node9&#45;&gt;Node4 -->
<g id="edge9" class="edge"><title>Node9&#45;&gt;Node4</title>
<path fill="none" stroke="midnightblue" d="M424.184,-25.1343C433.301,-26.5739 442.651,-28.0502 451.692,-29.4777"/>
<polygon fill="midnightblue" stroke="midnightblue" points="424.441,-21.6316 414.017,-23.5291 423.349,-28.546 424.441,-21.6316"/>
</g>
</g>
</svg>
