<?xml version="1.0" encoding="UTF-8" standalone="no"?>
<!DOCTYPE svg PUBLIC "-//W3C//DTD SVG 1.1//EN"
 "http://www.w3.org/Graphics/SVG/1.1/DTD/svg11.dtd">
<!-- Generated by graphviz version 2.38.0 (20140413.2041)
 -->
<!-- Title: module_ra_simple::shortwave Pages: 1 -->
<svg width="1026pt" height="53pt"
 viewBox="0.00 0.00 1026.00 52.50" xmlns="http://www.w3.org/2000/svg" xmlns:xlink="http://www.w3.org/1999/xlink">
<g id="graph0" class="graph" transform="scale(1 1) rotate(0) translate(4 48.5)">
<title>module_ra_simple::shortwave</title>
<polygon fill="white" stroke="none" points="-4,4 -4,-48.5 1022,-48.5 1022,4 -4,4"/>
<!-- Node1 -->
<g id="node1" class="node"><title>Node1</title>
<polygon fill="#bfbfbf" stroke="black" points="0,-19.5 0,-38.5 146,-38.5 146,-19.5 0,-19.5"/>
<text text-anchor="middle" x="73" y="-26.5" font-family="Helvetica,sans-Serif" font-size="10.00">module_ra_simple::shortwave</text>
</g>
<!-- Node2 -->
<g id="node2" class="node"><title>Node2</title>
<g id="a_node2"><a xlink:href="classmodule__ra__simple.html#ad1c74605b2817f833d31e806f791e246" target="_top" xlink:title="module_ra_simple::ra\l_simple">
<polygon fill="white" stroke="black" points="182,-14 182,-44 292,-44 292,-14 182,-14"/>
<text text-anchor="start" x="190" y="-32" font-family="Helvetica,sans-Serif" font-size="10.00">module_ra_simple::ra</text>
<text text-anchor="middle" x="237" y="-21" font-family="Helvetica,sans-Serif" font-size="10.00">_simple</text>
</a>
</g>
</g>
<!-- Node1&#45;&gt;Node2 -->
<g id="edge1" class="edge"><title>Node1&#45;&gt;Node2</title>
<path fill="none" stroke="midnightblue" d="M156.736,-29C165.161,-29 173.56,-29 181.57,-29"/>
<polygon fill="midnightblue" stroke="midnightblue" points="156.471,-25.5001 146.471,-29 156.471,-32.5001 156.471,-25.5001"/>
</g>
<!-- Node3 -->
<g id="node3" class="node"><title>Node3</title>
<g id="a_node3"><a xlink:href="classradiation.html#aba1a06d27af96fe11d576458c8ccfe77" target="_top" xlink:title="radiation::rad">
<polygon fill="white" stroke="black" points="328,-19.5 328,-38.5 401,-38.5 401,-19.5 328,-19.5"/>
<text text-anchor="middle" x="364.5" y="-26.5" font-family="Helvetica,sans-Serif" font-size="10.00">radiation::rad</text>
</a>
</g>
</g>
<!-- Node2&#45;&gt;Node3 -->
<g id="edge2" class="edge"><title>Node2&#45;&gt;Node3</title>
<path fill="none" stroke="midnightblue" d="M302.549,-29C311.282,-29 319.969,-29 327.931,-29"/>
<polygon fill="midnightblue" stroke="midnightblue" points="302.316,-25.5001 292.316,-29 302.316,-32.5001 302.316,-25.5001"/>
</g>
<!-- Node4 -->
<g id="node4" class="node"><title>Node4</title>
<g id="a_node4"><a xlink:href="classtime__step.html#a2c022f11247af72e607b1493289aa974" target="_top" xlink:title=" Step forward one IO time step. ">
<polygon fill="white" stroke="black" points="866,-19.5 866,-38.5 950,-38.5 950,-19.5 866,-19.5"/>
<text text-anchor="middle" x="908" y="-26.5" font-family="Helvetica,sans-Serif" font-size="10.00">time_step::step</text>
</a>
</g>
</g>
<!-- Node3&#45;&gt;Node4 -->
<g id="edge3" class="edge"><title>Node3&#45;&gt;Node4</title>
<path fill="none" stroke="midnightblue" d="M411.175,-29C514.858,-29 766.677,-29 865.869,-29"/>
<polygon fill="midnightblue" stroke="midnightblue" points="411.029,-25.5001 401.029,-29 411.029,-32.5001 411.029,-25.5001"/>
</g>
<!-- Node6 -->
<g id="node6" class="node"><title>Node6</title>
<g id="a_node6"><a xlink:href="classmodule__cu__kf.html#afbc0670c02010c630409b1796e89a3fb" target="_top" xlink:title="module_cu_kf::kfpara">
<polygon fill="white" stroke="black" points="437,-0.5 437,-19.5 547,-19.5 547,-0.5 437,-0.5"/>
<text text-anchor="middle" x="492" y="-7.5" font-family="Helvetica,sans-Serif" font-size="10.00">module_cu_kf::kfpara</text>
</a>
</g>
</g>
<!-- Node3&#45;&gt;Node6 -->
<g id="edge5" class="edge"><title>Node3&#45;&gt;Node6</title>
<path fill="none" stroke="midnightblue" d="M411.116,-22.094C419.522,-20.8214 428.372,-19.4816 436.997,-18.1757"/>
<polygon fill="midnightblue" stroke="midnightblue" points="410.491,-18.6486 401.128,-23.6062 411.539,-25.5698 410.491,-18.6486"/>
</g>
<!-- Node5 -->
<g id="node5" class="node"><title>Node5</title>
<g id="a_node5"><a xlink:href="driver_8f90.html#ab1e5a5816a57fc6e95d9563c2bb53590" target="_top" xlink:title=" Main Program ">
<polygon fill="white" stroke="black" points="986,-19.5 986,-38.5 1018,-38.5 1018,-19.5 986,-19.5"/>
<text text-anchor="middle" x="1002" y="-26.5" font-family="Helvetica,sans-Serif" font-size="10.00">icar</text>
</a>
</g>
</g>
<!-- Node4&#45;&gt;Node5 -->
<g id="edge4" class="edge"><title>Node4&#45;&gt;Node5</title>
<path fill="none" stroke="midnightblue" d="M960.253,-29C969.521,-29 978.5,-29 985.66,-29"/>
<polygon fill="midnightblue" stroke="midnightblue" points="960.156,-25.5001 950.156,-29 960.156,-32.5001 960.156,-25.5001"/>
</g>
<!-- Node7 -->
<g id="node7" class="node"><title>Node7</title>
<g id="a_node7"><a xlink:href="classmodule__cu__kf.html#a273d9ce9bce064bfc092d6940bea4e27" target="_top" xlink:title="module_cu_kf::kfcps">
<polygon fill="white" stroke="black" points="583,-0.5 583,-19.5 690,-19.5 690,-0.5 583,-0.5"/>
<text text-anchor="middle" x="636.5" y="-7.5" font-family="Helvetica,sans-Serif" font-size="10.00">module_cu_kf::kfcps</text>
</a>
</g>
</g>
<!-- Node6&#45;&gt;Node7 -->
<g id="edge6" class="edge"><title>Node6&#45;&gt;Node7</title>
<path fill="none" stroke="midnightblue" d="M557.503,-10C565.962,-10 574.55,-10 582.783,-10"/>
<polygon fill="midnightblue" stroke="midnightblue" points="557.28,-6.5001 547.28,-10 557.28,-13.5001 557.28,-6.5001"/>
</g>
<!-- Node8 -->
<g id="node8" class="node"><title>Node8</title>
<g id="a_node8"><a xlink:href="classconvection.html#a06b811540eb747b3734e7fb35de41782" target="_top" xlink:title="convection::convect">
<polygon fill="white" stroke="black" points="726,-0.5 726,-19.5 830,-19.5 830,-0.5 726,-0.5"/>
<text text-anchor="middle" x="778" y="-7.5" font-family="Helvetica,sans-Serif" font-size="10.00">convection::convect</text>
</a>
</g>
</g>
<!-- Node7&#45;&gt;Node8 -->
<g id="edge7" class="edge"><title>Node7&#45;&gt;Node8</title>
<path fill="none" stroke="midnightblue" d="M700.409,-10C708.828,-10 717.382,-10 725.572,-10"/>
<polygon fill="midnightblue" stroke="midnightblue" points="700.239,-6.5001 690.239,-10 700.239,-13.5001 700.239,-6.5001"/>
</g>
<!-- Node8&#45;&gt;Node4 -->
<g id="edge8" class="edge"><title>Node8&#45;&gt;Node4</title>
<path fill="none" stroke="midnightblue" d="M840.406,-19.115C849.051,-20.3982 857.759,-21.6907 865.897,-22.8988"/>
<polygon fill="midnightblue" stroke="midnightblue" points="840.731,-15.6249 830.325,-17.6185 839.703,-22.549 840.731,-15.6249"/>
</g>
</g>
</svg>
