<?xml version="1.0" encoding="UTF-8" standalone="no"?>
<!DOCTYPE svg PUBLIC "-//W3C//DTD SVG 1.1//EN"
 "http://www.w3.org/Graphics/SVG/1.1/DTD/svg11.dtd">
<!-- Generated by graphviz version 2.32.0 (20130809.1645)
 -->
<!-- Title: module_sf_noahlsm::tdfcnd Pages: 1 -->
<svg width="1192pt" height="110pt"
 viewBox="0.00 0.00 1192.00 109.90" xmlns="http://www.w3.org/2000/svg" xmlns:xlink="http://www.w3.org/1999/xlink">
<g id="graph0" class="graph" transform="scale(1 1) rotate(0) translate(4 105.896)">
<title>module_sf_noahlsm::tdfcnd</title>
<polygon fill="white" stroke="white" points="-4,5 -4,-105.896 1189,-105.896 1189,5 -4,5"/>
<!-- Node1 -->
<g id="node1" class="node"><title>Node1</title>
<polygon fill="#bfbfbf" stroke="black" points="0,-47 0,-77 110,-77 110,-47 0,-47"/>
<text text-anchor="start" x="8" y="-65" font-family="Helvetica,sans-Serif" font-size="10.00">module_sf_noahlsm::</text>
<text text-anchor="middle" x="55" y="-54" font-family="Helvetica,sans-Serif" font-size="10.00">tdfcnd</text>
</g>
<!-- Node2 -->
<g id="node2" class="node"><title>Node2</title>
<g id="a_node2"><a xlink:href="classmodule__sf__noahlsm.html#a7cd9a2732205c21a5f59d679e0a1fddd" target="_top" xlink:title="module_sf_noahlsm::sflx">
<polygon fill="white" stroke="black" points="596.5,-54.5 596.5,-73.5 721.5,-73.5 721.5,-54.5 596.5,-54.5"/>
<text text-anchor="middle" x="659" y="-61.5" font-family="Helvetica,sans-Serif" font-size="10.00">module_sf_noahlsm::sflx</text>
</a>
</g>
</g>
<!-- Node1&#45;&gt;Node2 -->
<g id="edge1" class="edge"><title>Node1&#45;&gt;Node2</title>
<path fill="none" stroke="midnightblue" d="M120.433,-77.0331C128.992,-78.609 137.681,-79.9982 146,-81 328.706,-103.002 377.299,-110.046 560,-88 582.782,-85.251 607.91,-79.0309 627.017,-73.612"/>
<polygon fill="midnightblue" stroke="midnightblue" points="120.958,-73.5699 110.476,-75.1095 119.63,-80.4429 120.958,-73.5699"/>
</g>
<!-- Node7 -->
<g id="node7" class="node"><title>Node7</title>
<g id="a_node7"><a xlink:href="classmodule__sf__noahlsm.html#a3d4ab86e98738d55bb24f5f2256bc036" target="_top" xlink:title="module_sf_noahlsm::hrt">
<polygon fill="white" stroke="black" points="146.5,-52.5 146.5,-71.5 267.5,-71.5 267.5,-52.5 146.5,-52.5"/>
<text text-anchor="middle" x="207" y="-59.5" font-family="Helvetica,sans-Serif" font-size="10.00">module_sf_noahlsm::hrt</text>
</a>
</g>
</g>
<!-- Node1&#45;&gt;Node7 -->
<g id="edge6" class="edge"><title>Node1&#45;&gt;Node7</title>
<path fill="none" stroke="midnightblue" d="M120.214,-62C128.884,-62 137.752,-62 146.339,-62"/>
<polygon fill="midnightblue" stroke="midnightblue" points="120.153,-58.5001 110.153,-62 120.153,-65.5001 120.153,-58.5001"/>
</g>
<!-- Node9 -->
<g id="node9" class="node"><title>Node9</title>
<g id="a_node9"><a xlink:href="classmodule__sf__noahlsm.html#a6a17443ddbf15acdb25690cfbb3749a3" target="_top" xlink:title="module_sf_noahlsm::\lnopac">
<polygon fill="white" stroke="black" points="450,-0 450,-30 560,-30 560,-0 450,-0"/>
<text text-anchor="start" x="458" y="-18" font-family="Helvetica,sans-Serif" font-size="10.00">module_sf_noahlsm::</text>
<text text-anchor="middle" x="505" y="-7" font-family="Helvetica,sans-Serif" font-size="10.00">nopac</text>
</a>
</g>
</g>
<!-- Node1&#45;&gt;Node9 -->
<g id="edge12" class="edge"><title>Node1&#45;&gt;Node9</title>
<path fill="none" stroke="midnightblue" d="M120.13,-47.3997C128.794,-45.7388 137.593,-44.2109 146,-43 253.06,-27.5793 379.441,-20.1998 449.779,-17.045"/>
<polygon fill="midnightblue" stroke="midnightblue" points="119.179,-44.0201 110.052,-49.3995 120.542,-50.8862 119.179,-44.0201"/>
</g>
<!-- Node3 -->
<g id="node3" class="node"><title>Node3</title>
<g id="a_node3"><a xlink:href="classmodule__sf__noahdrv.html#a329dccdd0c1fc2797bc8ebcc9bcc0ff6" target="_top" xlink:title="module_sf_noahdrv::\llsm_noah">
<polygon fill="white" stroke="black" points="758.5,-49 758.5,-79 865.5,-79 865.5,-49 758.5,-49"/>
<text text-anchor="start" x="766.5" y="-67" font-family="Helvetica,sans-Serif" font-size="10.00">module_sf_noahdrv::</text>
<text text-anchor="middle" x="812" y="-56" font-family="Helvetica,sans-Serif" font-size="10.00">lsm_noah</text>
</a>
</g>
</g>
<!-- Node2&#45;&gt;Node3 -->
<g id="edge2" class="edge"><title>Node2&#45;&gt;Node3</title>
<path fill="none" stroke="midnightblue" d="M732.109,-64C740.894,-64 749.74,-64 758.171,-64"/>
<polygon fill="midnightblue" stroke="midnightblue" points="731.853,-60.5001 721.853,-64 731.853,-67.5001 731.853,-60.5001"/>
</g>
<!-- Node4 -->
<g id="node4" class="node"><title>Node4</title>
<g id="a_node4"><a xlink:href="classland__surface.html#a5eda887fb43d0e56a673bbec669be5ad" target="_top" xlink:title="land_surface::lsm">
<polygon fill="white" stroke="black" points="902,-54.5 902,-73.5 996,-73.5 996,-54.5 902,-54.5"/>
<text text-anchor="middle" x="949" y="-61.5" font-family="Helvetica,sans-Serif" font-size="10.00">land_surface::lsm</text>
</a>
</g>
</g>
<!-- Node3&#45;&gt;Node4 -->
<g id="edge3" class="edge"><title>Node3&#45;&gt;Node4</title>
<path fill="none" stroke="midnightblue" d="M875.822,-64C884.617,-64 893.52,-64 901.927,-64"/>
<polygon fill="midnightblue" stroke="midnightblue" points="875.581,-60.5001 865.581,-64 875.581,-67.5001 875.581,-60.5001"/>
</g>
<!-- Node5 -->
<g id="node5" class="node"><title>Node5</title>
<g id="a_node5"><a xlink:href="classtime__step.html#a2c022f11247af72e607b1493289aa974" target="_top" xlink:title=" Step forward one IO time step. ">
<polygon fill="white" stroke="black" points="1032,-54.5 1032,-73.5 1116,-73.5 1116,-54.5 1032,-54.5"/>
<text text-anchor="middle" x="1074" y="-61.5" font-family="Helvetica,sans-Serif" font-size="10.00">time_step::step</text>
</a>
</g>
</g>
<!-- Node4&#45;&gt;Node5 -->
<g id="edge4" class="edge"><title>Node4&#45;&gt;Node5</title>
<path fill="none" stroke="midnightblue" d="M1006.19,-64C1014.83,-64 1023.62,-64 1031.85,-64"/>
<polygon fill="midnightblue" stroke="midnightblue" points="1006.15,-60.5001 996.151,-64 1006.15,-67.5001 1006.15,-60.5001"/>
</g>
<!-- Node6 -->
<g id="node6" class="node"><title>Node6</title>
<g id="a_node6"><a xlink:href="driver_8f90.html#ab1e5a5816a57fc6e95d9563c2bb53590" target="_top" xlink:title=" Main Program ">
<polygon fill="white" stroke="black" points="1152,-54.5 1152,-73.5 1184,-73.5 1184,-54.5 1152,-54.5"/>
<text text-anchor="middle" x="1168" y="-61.5" font-family="Helvetica,sans-Serif" font-size="10.00">icar</text>
</a>
</g>
</g>
<!-- Node5&#45;&gt;Node6 -->
<g id="edge5" class="edge"><title>Node5&#45;&gt;Node6</title>
<path fill="none" stroke="midnightblue" d="M1126.25,-64C1135.52,-64 1144.5,-64 1151.66,-64"/>
<polygon fill="midnightblue" stroke="midnightblue" points="1126.16,-60.5001 1116.16,-64 1126.16,-67.5001 1126.16,-60.5001"/>
</g>
<!-- Node8 -->
<g id="node8" class="node"><title>Node8</title>
<g id="a_node8"><a xlink:href="classmodule__sf__noahlsm.html#ac5c49267c44f18dfd5359b29fdfed38e" target="_top" xlink:title="module_sf_noahlsm::\lshflx">
<polygon fill="white" stroke="black" points="304,-47 304,-77 414,-77 414,-47 304,-47"/>
<text text-anchor="start" x="312" y="-65" font-family="Helvetica,sans-Serif" font-size="10.00">module_sf_noahlsm::</text>
<text text-anchor="middle" x="359" y="-54" font-family="Helvetica,sans-Serif" font-size="10.00">shflx</text>
</a>
</g>
</g>
<!-- Node7&#45;&gt;Node8 -->
<g id="edge7" class="edge"><title>Node7&#45;&gt;Node8</title>
<path fill="none" stroke="midnightblue" d="M277.879,-62C286.597,-62 295.409,-62 303.838,-62"/>
<polygon fill="midnightblue" stroke="midnightblue" points="277.715,-58.5001 267.715,-62 277.715,-65.5001 277.715,-58.5001"/>
</g>
<!-- Node8&#45;&gt;Node9 -->
<g id="edge8" class="edge"><title>Node8&#45;&gt;Node9</title>
<path fill="none" stroke="midnightblue" d="M415.509,-43.8826C429.548,-39.3004 444.471,-34.4295 457.984,-30.019"/>
<polygon fill="midnightblue" stroke="midnightblue" points="414.379,-40.5696 405.958,-46.9997 416.551,-47.2241 414.379,-40.5696"/>
</g>
<!-- Node10 -->
<g id="node10" class="node"><title>Node10</title>
<g id="a_node10"><a xlink:href="classmodule__sf__noahlsm.html#a9d1e26133ed89bc5465a230d45d0625d" target="_top" xlink:title="module_sf_noahlsm::\lsnopac">
<polygon fill="white" stroke="black" points="450,-49 450,-79 560,-79 560,-49 450,-49"/>
<text text-anchor="start" x="458" y="-67" font-family="Helvetica,sans-Serif" font-size="10.00">module_sf_noahlsm::</text>
<text text-anchor="middle" x="505" y="-56" font-family="Helvetica,sans-Serif" font-size="10.00">snopac</text>
</a>
</g>
</g>
<!-- Node8&#45;&gt;Node10 -->
<g id="edge10" class="edge"><title>Node8&#45;&gt;Node10</title>
<path fill="none" stroke="midnightblue" d="M424.27,-62.8926C432.75,-63.0104 441.375,-63.1302 449.667,-63.2454"/>
<polygon fill="midnightblue" stroke="midnightblue" points="424.078,-59.3897 414.03,-62.7504 423.98,-66.3891 424.078,-59.3897"/>
</g>
<!-- Node9&#45;&gt;Node2 -->
<g id="edge9" class="edge"><title>Node9&#45;&gt;Node2</title>
<path fill="none" stroke="midnightblue" d="M562.57,-33.2364C584.892,-40.4322 609.611,-48.4008 628.297,-54.4246"/>
<polygon fill="midnightblue" stroke="midnightblue" points="563.437,-29.8385 552.845,-30.1014 561.289,-36.5009 563.437,-29.8385"/>
</g>
<!-- Node10&#45;&gt;Node2 -->
<g id="edge11" class="edge"><title>Node10&#45;&gt;Node2</title>
<path fill="none" stroke="midnightblue" d="M570.108,-64C578.811,-64 587.727,-64 596.385,-64"/>
<polygon fill="midnightblue" stroke="midnightblue" points="570.018,-60.5001 560.017,-64 570.017,-67.5001 570.018,-60.5001"/>
</g>
</g>
</svg>
