<?xml version="1.0" encoding="UTF-8" standalone="no"?>
<!DOCTYPE svg PUBLIC "-//W3C//DTD SVG 1.1//EN"
 "http://www.w3.org/Graphics/SVG/1.1/DTD/svg11.dtd">
<!-- Generated by graphviz version 2.38.0 (20140413.2041)
 -->
<!-- Title: module_mp_thompson::mp_gt_driver Pages: 1 -->
<svg width="425pt" height="88pt"
 viewBox="0.00 0.00 425.00 88.00" xmlns="http://www.w3.org/2000/svg" xmlns:xlink="http://www.w3.org/1999/xlink">
<g id="graph0" class="graph" transform="scale(1 1) rotate(0) translate(4 84)">
<title>module_mp_thompson::mp_gt_driver</title>
<polygon fill="white" stroke="none" points="-4,4 -4,-84 421,-84 421,4 -4,4"/>
<!-- Node1 -->
<g id="node1" class="node"><title>Node1</title>
<polygon fill="#bfbfbf" stroke="black" points="0,-24.5 0,-54.5 115,-54.5 115,-24.5 0,-24.5"/>
<text text-anchor="start" x="8" y="-42.5" font-family="Helvetica,sans-Serif" font-size="10.00">module_mp_thompson</text>
<text text-anchor="middle" x="57.5" y="-31.5" font-family="Helvetica,sans-Serif" font-size="10.00">::mp_gt_driver</text>
</g>
<!-- Node2 -->
<g id="node2" class="node"><title>Node2</title>
<g id="a_node2"><a xlink:href="classmodule__mp__thompson.html#a9c09ed2f3aeb55e40a86a3ddc72d1ca8" target="_top" xlink:title="module_mp_thompson\l::mp_thompson">
<polygon fill="white" stroke="black" points="151,-24.5 151,-54.5 266,-54.5 266,-24.5 151,-24.5"/>
<text text-anchor="start" x="159" y="-42.5" font-family="Helvetica,sans-Serif" font-size="10.00">module_mp_thompson</text>
<text text-anchor="middle" x="208.5" y="-31.5" font-family="Helvetica,sans-Serif" font-size="10.00">::mp_thompson</text>
</a>
</g>
</g>
<!-- Node1&#45;&gt;Node2 -->
<g id="edge1" class="edge"><title>Node1&#45;&gt;Node2</title>
<path fill="none" stroke="midnightblue" d="M115.256,-39.5C123.558,-39.5 132.173,-39.5 140.654,-39.5"/>
<polygon fill="midnightblue" stroke="midnightblue" points="140.902,-43.0001 150.902,-39.5 140.902,-36.0001 140.902,-43.0001"/>
</g>
<!-- Node3 -->
<g id="node3" class="node"><title>Node3</title>
<g id="a_node3"><a xlink:href="classmodule__mp__thompson.html#a1dec755eb8c0e1e28e03af70d9817b96" target="_top" xlink:title="module_mp_thompson\l::rslf">
<polygon fill="white" stroke="black" points="302,-49.5 302,-79.5 417,-79.5 417,-49.5 302,-49.5"/>
<text text-anchor="start" x="310" y="-67.5" font-family="Helvetica,sans-Serif" font-size="10.00">module_mp_thompson</text>
<text text-anchor="middle" x="359.5" y="-56.5" font-family="Helvetica,sans-Serif" font-size="10.00">::rslf</text>
</a>
</g>
</g>
<!-- Node2&#45;&gt;Node3 -->
<g id="edge2" class="edge"><title>Node2&#45;&gt;Node3</title>
<path fill="none" stroke="midnightblue" d="M266.256,-49.0227C274.649,-50.4311 283.362,-51.893 291.933,-53.3311"/>
<polygon fill="midnightblue" stroke="midnightblue" points="291.461,-56.8007 301.902,-55.0037 292.619,-49.8972 291.461,-56.8007"/>
</g>
<!-- Node4 -->
<g id="node4" class="node"><title>Node4</title>
<g id="a_node4"><a xlink:href="classmodule__mp__thompson.html#a67de3f9e0eff315e30c6567db69e3722" target="_top" xlink:title="module_mp_thompson\l::rsif">
<polygon fill="white" stroke="black" points="302,-0.5 302,-30.5 417,-30.5 417,-0.5 302,-0.5"/>
<text text-anchor="start" x="310" y="-18.5" font-family="Helvetica,sans-Serif" font-size="10.00">module_mp_thompson</text>
<text text-anchor="middle" x="359.5" y="-7.5" font-family="Helvetica,sans-Serif" font-size="10.00">::rsif</text>
</a>
</g>
</g>
<!-- Node2&#45;&gt;Node4 -->
<g id="edge3" class="edge"><title>Node2&#45;&gt;Node4</title>
<path fill="none" stroke="midnightblue" d="M266.256,-30.3582C274.649,-29.0062 283.362,-27.6028 291.933,-26.2222"/>
<polygon fill="midnightblue" stroke="midnightblue" points="292.586,-29.6622 301.902,-24.6164 291.473,-22.7513 292.586,-29.6622"/>
</g>
</g>
</svg>
