<?xml version="1.0" encoding="UTF-8" standalone="no"?>
<!DOCTYPE svg PUBLIC "-//W3C//DTD SVG 1.1//EN"
 "http://www.w3.org/Graphics/SVG/1.1/DTD/svg11.dtd">
<!-- Generated by graphviz version 2.38.0 (20140413.2041)
 -->
<!-- Title: land_surface::calc_mahrt_holtslag_exchange_coefficient Pages: 1 -->
<svg width="301pt" height="50pt"
 viewBox="0.00 0.00 301.00 50.00" xmlns="http://www.w3.org/2000/svg" xmlns:xlink="http://www.w3.org/1999/xlink">
<g id="graph0" class="graph" transform="scale(1 1) rotate(0) translate(4 46)">
<title>land_surface::calc_mahrt_holtslag_exchange_coefficient</title>
<polygon fill="white" stroke="none" points="-4,4 -4,-46 297,-46 297,4 -4,4"/>
<!-- Node1 -->
<g id="node1" class="node"><title>Node1</title>
<polygon fill="#bfbfbf" stroke="black" points="0,-0.5 0,-41.5 133,-41.5 133,-0.5 0,-0.5"/>
<text text-anchor="start" x="8" y="-29.5" font-family="Helvetica,sans-Serif" font-size="10.00">land_surface::calc</text>
<text text-anchor="start" x="8" y="-18.5" font-family="Helvetica,sans-Serif" font-size="10.00">_mahrt_holtslag_exchange</text>
<text text-anchor="middle" x="66.5" y="-7.5" font-family="Helvetica,sans-Serif" font-size="10.00">_coefficient</text>
</g>
<!-- Node2 -->
<g id="node2" class="node"><title>Node2</title>
<g id="a_node2"><a xlink:href="classland__surface.html#a57d90bf462c2ccb7b2c36730b4ed89df" target="_top" xlink:title="land_surface::f2_formula">
<polygon fill="white" stroke="black" points="169,-11.5 169,-30.5 293,-30.5 293,-11.5 169,-11.5"/>
<text text-anchor="middle" x="231" y="-18.5" font-family="Helvetica,sans-Serif" font-size="10.00">land_surface::f2_formula</text>
</a>
</g>
</g>
<!-- Node1&#45;&gt;Node2 -->
<g id="edge1" class="edge"><title>Node1&#45;&gt;Node2</title>
<path fill="none" stroke="midnightblue" d="M133.127,-21C141.518,-21 150.141,-21 158.618,-21"/>
<polygon fill="midnightblue" stroke="midnightblue" points="158.861,-24.5001 168.861,-21 158.861,-17.5001 158.861,-24.5001"/>
</g>
</g>
</svg>
