<?xml version="1.0" encoding="UTF-8" standalone="no"?>
<!DOCTYPE svg PUBLIC "-//W3C//DTD SVG 1.1//EN"
 "http://www.w3.org/Graphics/SVG/1.1/DTD/svg11.dtd">
<!-- Generated by graphviz version 2.38.0 (20140413.2041)
 -->
<!-- Title: module_cu_tiedtke::cuadjtq Pages: 1 -->
<svg width="252pt" height="137pt"
 viewBox="0.00 0.00 252.00 137.00" xmlns="http://www.w3.org/2000/svg" xmlns:xlink="http://www.w3.org/1999/xlink">
<g id="graph0" class="graph" transform="scale(1 1) rotate(0) translate(4 133)">
<title>module_cu_tiedtke::cuadjtq</title>
<polygon fill="white" stroke="none" points="-4,4 -4,-133 248,-133 248,4 -4,4"/>
<!-- Node1 -->
<g id="node1" class="node"><title>Node1</title>
<polygon fill="#bfbfbf" stroke="black" points="0,-49.5 0,-79.5 104,-79.5 104,-49.5 0,-49.5"/>
<text text-anchor="start" x="8" y="-67.5" font-family="Helvetica,sans-Serif" font-size="10.00">module_cu_tiedtke::</text>
<text text-anchor="middle" x="52" y="-56.5" font-family="Helvetica,sans-Serif" font-size="10.00">cuadjtq</text>
</g>
<!-- Node2 -->
<g id="node2" class="node"><title>Node2</title>
<g id="a_node2"><a xlink:href="classmodule__cu__tiedtke.html#af662362ac33920875481aff9ea3c31d6" target="_top" xlink:title="module_cu_tiedtke::\ltlucua">
<polygon fill="white" stroke="black" points="140,-98.5 140,-128.5 244,-128.5 244,-98.5 140,-98.5"/>
<text text-anchor="start" x="148" y="-116.5" font-family="Helvetica,sans-Serif" font-size="10.00">module_cu_tiedtke::</text>
<text text-anchor="middle" x="192" y="-105.5" font-family="Helvetica,sans-Serif" font-size="10.00">tlucua</text>
</a>
</g>
</g>
<!-- Node1&#45;&gt;Node2 -->
<g id="edge1" class="edge"><title>Node1&#45;&gt;Node2</title>
<path fill="none" stroke="midnightblue" d="M95.5306,-79.6014C109.172,-84.4451 124.44,-89.8664 138.697,-94.9285"/>
<polygon fill="midnightblue" stroke="midnightblue" points="137.778,-98.3162 148.372,-98.3641 140.12,-91.7197 137.778,-98.3162"/>
</g>
<!-- Node3 -->
<g id="node3" class="node"><title>Node3</title>
<g id="a_node3"><a xlink:href="classmodule__cu__tiedtke.html#a0c084c1df13311e129af689ee7723b26" target="_top" xlink:title="module_cu_tiedtke::\ltlucub">
<polygon fill="white" stroke="black" points="140,-49.5 140,-79.5 244,-79.5 244,-49.5 140,-49.5"/>
<text text-anchor="start" x="148" y="-67.5" font-family="Helvetica,sans-Serif" font-size="10.00">module_cu_tiedtke::</text>
<text text-anchor="middle" x="192" y="-56.5" font-family="Helvetica,sans-Serif" font-size="10.00">tlucub</text>
</a>
</g>
</g>
<!-- Node1&#45;&gt;Node3 -->
<g id="edge2" class="edge"><title>Node1&#45;&gt;Node3</title>
<path fill="none" stroke="midnightblue" d="M104.386,-64.5C112.558,-64.5 121.083,-64.5 129.46,-64.5"/>
<polygon fill="midnightblue" stroke="midnightblue" points="129.571,-68.0001 139.571,-64.5 129.571,-61.0001 129.571,-68.0001"/>
</g>
<!-- Node4 -->
<g id="node4" class="node"><title>Node4</title>
<g id="a_node4"><a xlink:href="classmodule__cu__tiedtke.html#afec35de95e006b1899bc1564186e8702" target="_top" xlink:title="module_cu_tiedtke::\ltlucuc">
<polygon fill="white" stroke="black" points="140,-0.5 140,-30.5 244,-30.5 244,-0.5 140,-0.5"/>
<text text-anchor="start" x="148" y="-18.5" font-family="Helvetica,sans-Serif" font-size="10.00">module_cu_tiedtke::</text>
<text text-anchor="middle" x="192" y="-7.5" font-family="Helvetica,sans-Serif" font-size="10.00">tlucuc</text>
</a>
</g>
</g>
<!-- Node1&#45;&gt;Node4 -->
<g id="edge3" class="edge"><title>Node1&#45;&gt;Node4</title>
<path fill="none" stroke="midnightblue" d="M95.5306,-49.3986C109.172,-44.5549 124.44,-39.1336 138.697,-34.0715"/>
<polygon fill="midnightblue" stroke="midnightblue" points="140.12,-37.2803 148.372,-30.6359 137.778,-30.6838 140.12,-37.2803"/>
</g>
</g>
</svg>
