<?xml version="1.0" encoding="UTF-8" standalone="no"?>
<!DOCTYPE svg PUBLIC "-//W3C//DTD SVG 1.1//EN"
 "http://www.w3.org/Graphics/SVG/1.1/DTD/svg11.dtd">
<!-- Generated by graphviz version 2.32.0 (20130809.1645)
 -->
<!-- Title: module_sf_noahlsm::snowpack Pages: 1 -->
<svg width="888pt" height="38pt"
 viewBox="0.00 0.00 888.00 38.00" xmlns="http://www.w3.org/2000/svg" xmlns:xlink="http://www.w3.org/1999/xlink">
<g id="graph0" class="graph" transform="scale(1 1) rotate(0) translate(4 34)">
<title>module_sf_noahlsm::snowpack</title>
<polygon fill="white" stroke="white" points="-4,5 -4,-34 885,-34 885,5 -4,5"/>
<!-- Node1 -->
<g id="node1" class="node"><title>Node1</title>
<polygon fill="#bfbfbf" stroke="black" points="0,-0 0,-30 110,-30 110,-0 0,-0"/>
<text text-anchor="start" x="8" y="-18" font-family="Helvetica,sans-Serif" font-size="10.00">module_sf_noahlsm::</text>
<text text-anchor="middle" x="55" y="-7" font-family="Helvetica,sans-Serif" font-size="10.00">snowpack</text>
</g>
<!-- Node2 -->
<g id="node2" class="node"><title>Node2</title>
<g id="a_node2"><a xlink:href="classmodule__sf__noahlsm.html#a9d1e26133ed89bc5465a230d45d0625d" target="_top" xlink:title="module_sf_noahlsm::\lsnopac">
<polygon fill="white" stroke="black" points="146,-0 146,-30 256,-30 256,-0 146,-0"/>
<text text-anchor="start" x="154" y="-18" font-family="Helvetica,sans-Serif" font-size="10.00">module_sf_noahlsm::</text>
<text text-anchor="middle" x="201" y="-7" font-family="Helvetica,sans-Serif" font-size="10.00">snopac</text>
</a>
</g>
</g>
<!-- Node1&#45;&gt;Node2 -->
<g id="edge1" class="edge"><title>Node1&#45;&gt;Node2</title>
<path fill="none" stroke="midnightblue" d="M120.27,-15C128.75,-15 137.375,-15 145.667,-15"/>
<polygon fill="midnightblue" stroke="midnightblue" points="120.03,-11.5001 110.03,-15 120.03,-18.5001 120.03,-11.5001"/>
</g>
<!-- Node3 -->
<g id="node3" class="node"><title>Node3</title>
<g id="a_node3"><a xlink:href="classmodule__sf__noahlsm.html#a7cd9a2732205c21a5f59d679e0a1fddd" target="_top" xlink:title="module_sf_noahlsm::sflx">
<polygon fill="white" stroke="black" points="292.5,-5.5 292.5,-24.5 417.5,-24.5 417.5,-5.5 292.5,-5.5"/>
<text text-anchor="middle" x="355" y="-12.5" font-family="Helvetica,sans-Serif" font-size="10.00">module_sf_noahlsm::sflx</text>
</a>
</g>
</g>
<!-- Node2&#45;&gt;Node3 -->
<g id="edge2" class="edge"><title>Node2&#45;&gt;Node3</title>
<path fill="none" stroke="midnightblue" d="M266.108,-15C274.811,-15 283.727,-15 292.385,-15"/>
<polygon fill="midnightblue" stroke="midnightblue" points="266.018,-11.5001 256.017,-15 266.017,-18.5001 266.018,-11.5001"/>
</g>
<!-- Node4 -->
<g id="node4" class="node"><title>Node4</title>
<g id="a_node4"><a xlink:href="classmodule__sf__noahdrv.html#a329dccdd0c1fc2797bc8ebcc9bcc0ff6" target="_top" xlink:title="module_sf_noahdrv::\llsm_noah">
<polygon fill="white" stroke="black" points="454.5,-0 454.5,-30 561.5,-30 561.5,-0 454.5,-0"/>
<text text-anchor="start" x="462.5" y="-18" font-family="Helvetica,sans-Serif" font-size="10.00">module_sf_noahdrv::</text>
<text text-anchor="middle" x="508" y="-7" font-family="Helvetica,sans-Serif" font-size="10.00">lsm_noah</text>
</a>
</g>
</g>
<!-- Node3&#45;&gt;Node4 -->
<g id="edge3" class="edge"><title>Node3&#45;&gt;Node4</title>
<path fill="none" stroke="midnightblue" d="M428.109,-15C436.894,-15 445.74,-15 454.171,-15"/>
<polygon fill="midnightblue" stroke="midnightblue" points="427.853,-11.5001 417.853,-15 427.853,-18.5001 427.853,-11.5001"/>
</g>
<!-- Node5 -->
<g id="node5" class="node"><title>Node5</title>
<g id="a_node5"><a xlink:href="classland__surface.html#a5eda887fb43d0e56a673bbec669be5ad" target="_top" xlink:title="land_surface::lsm">
<polygon fill="white" stroke="black" points="598,-5.5 598,-24.5 692,-24.5 692,-5.5 598,-5.5"/>
<text text-anchor="middle" x="645" y="-12.5" font-family="Helvetica,sans-Serif" font-size="10.00">land_surface::lsm</text>
</a>
</g>
</g>
<!-- Node4&#45;&gt;Node5 -->
<g id="edge4" class="edge"><title>Node4&#45;&gt;Node5</title>
<path fill="none" stroke="midnightblue" d="M571.822,-15C580.617,-15 589.52,-15 597.927,-15"/>
<polygon fill="midnightblue" stroke="midnightblue" points="571.581,-11.5001 561.581,-15 571.581,-18.5001 571.581,-11.5001"/>
</g>
<!-- Node6 -->
<g id="node6" class="node"><title>Node6</title>
<g id="a_node6"><a xlink:href="classtime__step.html#a2c022f11247af72e607b1493289aa974" target="_top" xlink:title=" Step forward one IO time step. ">
<polygon fill="white" stroke="black" points="728,-5.5 728,-24.5 812,-24.5 812,-5.5 728,-5.5"/>
<text text-anchor="middle" x="770" y="-12.5" font-family="Helvetica,sans-Serif" font-size="10.00">time_step::step</text>
</a>
</g>
</g>
<!-- Node5&#45;&gt;Node6 -->
<g id="edge5" class="edge"><title>Node5&#45;&gt;Node6</title>
<path fill="none" stroke="midnightblue" d="M702.191,-15C710.834,-15 719.618,-15 727.853,-15"/>
<polygon fill="midnightblue" stroke="midnightblue" points="702.151,-11.5001 692.151,-15 702.151,-18.5001 702.151,-11.5001"/>
</g>
<!-- Node7 -->
<g id="node7" class="node"><title>Node7</title>
<g id="a_node7"><a xlink:href="driver_8f90.html#ab1e5a5816a57fc6e95d9563c2bb53590" target="_top" xlink:title=" Main Program ">
<polygon fill="white" stroke="black" points="848,-5.5 848,-24.5 880,-24.5 880,-5.5 848,-5.5"/>
<text text-anchor="middle" x="864" y="-12.5" font-family="Helvetica,sans-Serif" font-size="10.00">icar</text>
</a>
</g>
</g>
<!-- Node6&#45;&gt;Node7 -->
<g id="edge6" class="edge"><title>Node6&#45;&gt;Node7</title>
<path fill="none" stroke="midnightblue" d="M822.253,-15C831.521,-15 840.5,-15 847.66,-15"/>
<polygon fill="midnightblue" stroke="midnightblue" points="822.156,-11.5001 812.156,-15 822.156,-18.5001 822.156,-11.5001"/>
</g>
</g>
</svg>
