<?xml version="1.0" encoding="UTF-8" standalone="no"?>
<!DOCTYPE svg PUBLIC "-//W3C//DTD SVG 1.1//EN"
 "http://www.w3.org/Graphics/SVG/1.1/DTD/svg11.dtd">
<!-- Generated by graphviz version 2.32.0 (20130809.1645)
 -->
<!-- Title: output::tip_precip_to_buckets Pages: 1 -->
<svg width="454pt" height="115pt"
 viewBox="0.00 0.00 454.00 115.00" xmlns="http://www.w3.org/2000/svg" xmlns:xlink="http://www.w3.org/1999/xlink">
<g id="graph0" class="graph" transform="scale(1 1) rotate(0) translate(4 111)">
<title>output::tip_precip_to_buckets</title>
<polygon fill="white" stroke="white" points="-4,5 -4,-111 451,-111 451,5 -4,5"/>
<!-- Node1 -->
<g id="node1" class="node"><title>Node1</title>
<polygon fill="#bfbfbf" stroke="black" points="0,-33 0,-63 92,-63 92,-33 0,-33"/>
<text text-anchor="start" x="8" y="-51" font-family="Helvetica,sans-Serif" font-size="10.00">output::tip_precip</text>
<text text-anchor="middle" x="46" y="-40" font-family="Helvetica,sans-Serif" font-size="10.00">_to_buckets</text>
</g>
<!-- Node2 -->
<g id="node2" class="node"><title>Node2</title>
<g id="a_node2"><a xlink:href="classoutput.html#a96fb2c72004c645360fa3e6f2b551b50" target="_top" xlink:title=" Simple routine to write all domain data from this current time step to the output file...">
<polygon fill="white" stroke="black" points="128.5,-38.5 128.5,-57.5 235.5,-57.5 235.5,-38.5 128.5,-38.5"/>
<text text-anchor="middle" x="182" y="-45.5" font-family="Helvetica,sans-Serif" font-size="10.00">output::write_domain</text>
</a>
</g>
</g>
<!-- Node1&#45;&gt;Node2 -->
<g id="edge1" class="edge"><title>Node1&#45;&gt;Node2</title>
<path fill="none" stroke="midnightblue" d="M102.577,-48C111.081,-48 119.839,-48 128.28,-48"/>
<polygon fill="midnightblue" stroke="midnightblue" points="102.366,-44.5001 92.3663,-48 102.366,-51.5001 102.366,-44.5001"/>
</g>
<!-- Node3 -->
<g id="node3" class="node"><title>Node3</title>
<g id="a_node3"><a xlink:href="classboundary__conditions.html#a07a42f467f470ada98e0a35fd5a75f66" target="_top" xlink:title=" Initialize the boundary conditions (read inital conditions, etc.) ">
<polygon fill="white" stroke="black" points="272,-77 272,-107 378,-107 378,-77 272,-77"/>
<text text-anchor="start" x="280" y="-95" font-family="Helvetica,sans-Serif" font-size="10.00">boundary_conditions</text>
<text text-anchor="middle" x="325" y="-84" font-family="Helvetica,sans-Serif" font-size="10.00">::bc_init</text>
</a>
</g>
</g>
<!-- Node2&#45;&gt;Node3 -->
<g id="edge2" class="edge"><title>Node2&#45;&gt;Node3</title>
<path fill="none" stroke="midnightblue" d="M223.375,-60.5992C239.698,-65.6931 258.676,-71.6151 275.722,-76.9346"/>
<polygon fill="midnightblue" stroke="midnightblue" points="224.184,-57.1852 213.595,-57.5473 222.098,-63.8674 224.184,-57.1852"/>
</g>
<!-- Node4 -->
<g id="node4" class="node"><title>Node4</title>
<g id="a_node4"><a xlink:href="driver_8f90.html#ab1e5a5816a57fc6e95d9563c2bb53590" target="_top" xlink:title=" Main Program ">
<polygon fill="white" stroke="black" points="414,-38.5 414,-57.5 446,-57.5 446,-38.5 414,-38.5"/>
<text text-anchor="middle" x="430" y="-45.5" font-family="Helvetica,sans-Serif" font-size="10.00">icar</text>
</a>
</g>
</g>
<!-- Node2&#45;&gt;Node4 -->
<g id="edge4" class="edge"><title>Node2&#45;&gt;Node4</title>
<path fill="none" stroke="midnightblue" d="M246.042,-48C302.514,-48 381.309,-48 413.934,-48"/>
<polygon fill="midnightblue" stroke="midnightblue" points="245.773,-44.5001 235.773,-48 245.773,-51.5001 245.773,-44.5001"/>
</g>
<!-- Node5 -->
<g id="node5" class="node"><title>Node5</title>
<g id="a_node5"><a xlink:href="classtime__step.html#a2c022f11247af72e607b1493289aa974" target="_top" xlink:title=" Step forward one IO time step. ">
<polygon fill="white" stroke="black" points="283,-0.5 283,-19.5 367,-19.5 367,-0.5 283,-0.5"/>
<text text-anchor="middle" x="325" y="-7.5" font-family="Helvetica,sans-Serif" font-size="10.00">time_step::step</text>
</a>
</g>
</g>
<!-- Node2&#45;&gt;Node5 -->
<g id="edge5" class="edge"><title>Node2&#45;&gt;Node5</title>
<path fill="none" stroke="midnightblue" d="M228.44,-35.7538C247.875,-30.516 270.231,-24.4909 288.431,-19.5859"/>
<polygon fill="midnightblue" stroke="midnightblue" points="227.325,-32.4293 218.58,-38.411 229.147,-39.1882 227.325,-32.4293"/>
</g>
<!-- Node3&#45;&gt;Node4 -->
<g id="edge3" class="edge"><title>Node3&#45;&gt;Node4</title>
<path fill="none" stroke="midnightblue" d="M370.625,-72.937C386.084,-66.3328 402.386,-59.3692 413.821,-54.4842"/>
<polygon fill="midnightblue" stroke="midnightblue" points="368.98,-69.8337 361.159,-76.9808 371.73,-76.2709 368.98,-69.8337"/>
</g>
<!-- Node5&#45;&gt;Node4 -->
<g id="edge6" class="edge"><title>Node5&#45;&gt;Node4</title>
<path fill="none" stroke="midnightblue" d="M361.572,-23.1236C379.456,-29.7216 400.183,-37.3684 413.885,-42.4236"/>
<polygon fill="midnightblue" stroke="midnightblue" points="362.585,-19.7667 351.991,-19.589 360.162,-26.334 362.585,-19.7667"/>
</g>
</g>
</svg>
