<?xml version="1.0" encoding="UTF-8" standalone="no"?>
<!DOCTYPE svg PUBLIC "-//W3C//DTD SVG 1.1//EN"
 "http://www.w3.org/Graphics/SVG/1.1/DTD/svg11.dtd">
<!-- Generated by graphviz version 2.32.0 (20130809.1645)
 -->
<!-- Title: linear_theory_lut_disk_io::write_lut Pages: 1 -->
<svg width="918pt" height="87pt"
 viewBox="0.00 0.00 918.00 87.00" xmlns="http://www.w3.org/2000/svg" xmlns:xlink="http://www.w3.org/1999/xlink">
<g id="graph0" class="graph" transform="scale(1 1) rotate(0) translate(4 83)">
<title>linear_theory_lut_disk_io::write_lut</title>
<polygon fill="white" stroke="white" points="-4,5 -4,-83 915,-83 915,5 -4,5"/>
<!-- Node1 -->
<g id="node1" class="node"><title>Node1</title>
<polygon fill="#bfbfbf" stroke="black" points="0.5,-24 0.5,-54 111.5,-54 111.5,-24 0.5,-24"/>
<text text-anchor="start" x="8.5" y="-42" font-family="Helvetica,sans-Serif" font-size="10.00">linear_theory_lut_disk</text>
<text text-anchor="middle" x="56" y="-31" font-family="Helvetica,sans-Serif" font-size="10.00">_io::write_lut</text>
</g>
<!-- Node2 -->
<g id="node2" class="node"><title>Node2</title>
<g id="a_node2"><a xlink:href="classlinear__theory__winds.html#a1c7117dad74a51614a026a50aec8b988" target="_top" xlink:title="linear_theory_winds\l::initialize_spatial_winds">
<polygon fill="white" stroke="black" points="148,-24 148,-54 270,-54 270,-24 148,-24"/>
<text text-anchor="start" x="156" y="-42" font-family="Helvetica,sans-Serif" font-size="10.00">linear_theory_winds</text>
<text text-anchor="middle" x="209" y="-31" font-family="Helvetica,sans-Serif" font-size="10.00">::initialize_spatial_winds</text>
</a>
</g>
</g>
<!-- Node1&#45;&gt;Node2 -->
<g id="edge1" class="edge"><title>Node1&#45;&gt;Node2</title>
<path fill="none" stroke="midnightblue" d="M121.642,-39C130.37,-39 139.297,-39 147.941,-39"/>
<polygon fill="midnightblue" stroke="midnightblue" points="121.514,-35.5001 111.514,-39 121.514,-42.5001 121.514,-35.5001"/>
</g>
<!-- Node3 -->
<g id="node3" class="node"><title>Node3</title>
<g id="a_node3"><a xlink:href="classlinear__theory__winds.html#a5aed1fad471120ba77c203fa6158a5ba" target="_top" xlink:title="linear_theory_winds\l::setup_linwinds">
<polygon fill="white" stroke="black" points="306.5,-24 306.5,-54 409.5,-54 409.5,-24 306.5,-24"/>
<text text-anchor="start" x="314.5" y="-42" font-family="Helvetica,sans-Serif" font-size="10.00">linear_theory_winds</text>
<text text-anchor="middle" x="358" y="-31" font-family="Helvetica,sans-Serif" font-size="10.00">::setup_linwinds</text>
</a>
</g>
</g>
<!-- Node2&#45;&gt;Node3 -->
<g id="edge2" class="edge"><title>Node2&#45;&gt;Node3</title>
<path fill="none" stroke="midnightblue" d="M280.47,-39C289.255,-39 298.097,-39 306.495,-39"/>
<polygon fill="midnightblue" stroke="midnightblue" points="280.215,-35.5001 270.215,-39 280.215,-42.5001 280.215,-35.5001"/>
</g>
<!-- Node4 -->
<g id="node4" class="node"><title>Node4</title>
<g id="a_node4"><a xlink:href="classlinear__theory__winds.html#a248a832d459ec9cd399c372d2ae9cb0a" target="_top" xlink:title="linear_theory_winds\l::linear_perturb">
<polygon fill="white" stroke="black" points="446.5,-24 446.5,-54 549.5,-54 549.5,-24 446.5,-24"/>
<text text-anchor="start" x="454.5" y="-42" font-family="Helvetica,sans-Serif" font-size="10.00">linear_theory_winds</text>
<text text-anchor="middle" x="498" y="-31" font-family="Helvetica,sans-Serif" font-size="10.00">::linear_perturb</text>
</a>
</g>
</g>
<!-- Node3&#45;&gt;Node4 -->
<g id="edge3" class="edge"><title>Node3&#45;&gt;Node4</title>
<path fill="none" stroke="midnightblue" d="M419.882,-39C428.74,-39 437.779,-39 446.404,-39"/>
<polygon fill="midnightblue" stroke="midnightblue" points="419.603,-35.5001 409.603,-39 419.602,-42.5001 419.603,-35.5001"/>
</g>
<!-- Node5 -->
<g id="node5" class="node"><title>Node5</title>
<g id="a_node5"><a xlink:href="classboundary__conditions.html#ac4cfb5127bfecdc6e088ef949694ea4a" target="_top" xlink:title=" Remove linear theory topographic winds perturbations from the low resolution wind field...">
<polygon fill="white" stroke="black" points="586,-46 586,-76 700,-76 700,-46 586,-46"/>
<text text-anchor="start" x="594" y="-64" font-family="Helvetica,sans-Serif" font-size="10.00">boundary_conditions</text>
<text text-anchor="middle" x="643" y="-53" font-family="Helvetica,sans-Serif" font-size="10.00">::remove_linear_winds</text>
</a>
</g>
</g>
<!-- Node4&#45;&gt;Node5 -->
<g id="edge4" class="edge"><title>Node4&#45;&gt;Node5</title>
<path fill="none" stroke="midnightblue" d="M559.869,-48.3645C568.541,-49.6986 577.426,-51.0655 585.999,-52.3844"/>
<polygon fill="midnightblue" stroke="midnightblue" points="560.235,-44.8797 549.819,-46.8183 559.171,-51.7983 560.235,-44.8797"/>
</g>
<!-- Node9 -->
<g id="node9" class="node"><title>Node9</title>
<g id="a_node9"><a xlink:href="classwind.html#a582192f02996b37543b966df84af1e78" target="_top" xlink:title="wind::update_winds">
<polygon fill="white" stroke="black" points="591.5,-7.5 591.5,-26.5 694.5,-26.5 694.5,-7.5 591.5,-7.5"/>
<text text-anchor="middle" x="643" y="-14.5" font-family="Helvetica,sans-Serif" font-size="10.00">wind::update_winds</text>
</a>
</g>
</g>
<!-- Node4&#45;&gt;Node9 -->
<g id="edge9" class="edge"><title>Node4&#45;&gt;Node9</title>
<path fill="none" stroke="midnightblue" d="M559.776,-29.6498C570.295,-28.0315 581.131,-26.3645 591.345,-24.7931"/>
<polygon fill="midnightblue" stroke="midnightblue" points="559.171,-26.2017 549.819,-31.1817 560.235,-33.1203 559.171,-26.2017"/>
</g>
<!-- Node6 -->
<g id="node6" class="node"><title>Node6</title>
<g id="a_node6"><a xlink:href="classboundary__conditions.html#a07a42f467f470ada98e0a35fd5a75f66" target="_top" xlink:title=" Initialize the boundary conditions (read inital conditions, etc.) ">
<polygon fill="white" stroke="black" points="736,-49 736,-79 842,-79 842,-49 736,-49"/>
<text text-anchor="start" x="744" y="-67" font-family="Helvetica,sans-Serif" font-size="10.00">boundary_conditions</text>
<text text-anchor="middle" x="789" y="-56" font-family="Helvetica,sans-Serif" font-size="10.00">::bc_init</text>
</a>
</g>
</g>
<!-- Node5&#45;&gt;Node6 -->
<g id="edge5" class="edge"><title>Node5&#45;&gt;Node6</title>
<path fill="none" stroke="midnightblue" d="M710.338,-62.382C718.811,-62.5586 727.389,-62.7373 735.599,-62.9083"/>
<polygon fill="midnightblue" stroke="midnightblue" points="710.157,-58.8776 700.086,-62.1685 710.011,-65.8761 710.157,-58.8776"/>
</g>
<!-- Node8 -->
<g id="node8" class="node"><title>Node8</title>
<g id="a_node8"><a xlink:href="classboundary__conditions.html#a1e8385c37634f3d7f70ea7c749dcda11" target="_top" xlink:title=" Read in the next timestep of input data and apply to the dXdt grids as appropriate. ">
<polygon fill="white" stroke="black" points="736,-0 736,-30 842,-30 842,-0 736,-0"/>
<text text-anchor="start" x="744" y="-18" font-family="Helvetica,sans-Serif" font-size="10.00">boundary_conditions</text>
<text text-anchor="middle" x="789" y="-7" font-family="Helvetica,sans-Serif" font-size="10.00">::bc_update</text>
</a>
</g>
</g>
<!-- Node5&#45;&gt;Node8 -->
<g id="edge7" class="edge"><title>Node5&#45;&gt;Node8</title>
<path fill="none" stroke="midnightblue" d="M701.045,-42.7772C714.202,-38.5743 728.056,-34.1487 740.743,-30.096"/>
<polygon fill="midnightblue" stroke="midnightblue" points="699.612,-39.5608 691.151,-45.9379 701.742,-46.2289 699.612,-39.5608"/>
</g>
<!-- Node7 -->
<g id="node7" class="node"><title>Node7</title>
<g id="a_node7"><a xlink:href="driver_8f90.html#ab1e5a5816a57fc6e95d9563c2bb53590" target="_top" xlink:title=" Main Program ">
<polygon fill="white" stroke="black" points="878,-29.5 878,-48.5 910,-48.5 910,-29.5 878,-29.5"/>
<text text-anchor="middle" x="894" y="-36.5" font-family="Helvetica,sans-Serif" font-size="10.00">icar</text>
</a>
</g>
</g>
<!-- Node6&#45;&gt;Node7 -->
<g id="edge6" class="edge"><title>Node6&#45;&gt;Node7</title>
<path fill="none" stroke="midnightblue" d="M852.071,-48.9343C861.517,-46.6414 870.468,-44.4689 877.576,-42.7436"/>
<polygon fill="midnightblue" stroke="midnightblue" points="850.996,-45.5935 842.104,-51.3535 852.647,-52.396 850.996,-45.5935"/>
</g>
<!-- Node8&#45;&gt;Node7 -->
<g id="edge8" class="edge"><title>Node8&#45;&gt;Node7</title>
<path fill="none" stroke="midnightblue" d="M852.071,-29.4631C861.517,-31.6642 870.468,-33.7498 877.576,-35.4061"/>
<polygon fill="midnightblue" stroke="midnightblue" points="852.637,-26.0013 842.104,-27.1406 851.048,-32.8187 852.637,-26.0013"/>
</g>
<!-- Node9&#45;&gt;Node6 -->
<g id="edge10" class="edge"><title>Node9&#45;&gt;Node6</title>
<path fill="none" stroke="midnightblue" d="M682.84,-29.6768C701.041,-35.6175 722.859,-42.7388 741.893,-48.9512"/>
<polygon fill="midnightblue" stroke="midnightblue" points="683.733,-26.2868 673.141,-26.5112 681.561,-32.9413 683.733,-26.2868"/>
</g>
<!-- Node9&#45;&gt;Node8 -->
<g id="edge11" class="edge"><title>Node9&#45;&gt;Node8</title>
<path fill="none" stroke="midnightblue" d="M704.895,-16.1542C715.156,-16.0117 725.725,-15.8649 735.742,-15.7258"/>
<polygon fill="midnightblue" stroke="midnightblue" points="704.719,-12.6562 694.769,-16.2949 704.817,-19.6556 704.719,-12.6562"/>
</g>
</g>
</svg>
