<?xml version="1.0" encoding="UTF-8" standalone="no"?>
<!DOCTYPE svg PUBLIC "-//W3C//DTD SVG 1.1//EN"
 "http://www.w3.org/Graphics/SVG/1.1/DTD/svg11.dtd">
<!-- Generated by graphviz version 2.32.0 (20130809.1645)
 -->
<!-- Title: pbl_simple::pbl_diffusion Pages: 1 -->
<svg width="610pt" height="38pt"
 viewBox="0.00 0.00 610.00 38.00" xmlns="http://www.w3.org/2000/svg" xmlns:xlink="http://www.w3.org/1999/xlink">
<g id="graph0" class="graph" transform="scale(1 1) rotate(0) translate(4 34)">
<title>pbl_simple::pbl_diffusion</title>
<polygon fill="white" stroke="white" points="-4,5 -4,-34 607,-34 607,5 -4,5"/>
<!-- Node1 -->
<g id="node1" class="node"><title>Node1</title>
<polygon fill="#bfbfbf" stroke="black" points="0,-5.5 0,-24.5 124,-24.5 124,-5.5 0,-5.5"/>
<text text-anchor="middle" x="62" y="-12.5" font-family="Helvetica,sans-Serif" font-size="10.00">pbl_simple::pbl_diffusion</text>
</g>
<!-- Node2 -->
<g id="node2" class="node"><title>Node2</title>
<g id="a_node2"><a xlink:href="classpbl__simple.html#a0c4a8ea58856a89e2ea7c5026ac60a08" target="_top" xlink:title="pbl_simple::simple_pbl">
<polygon fill="white" stroke="black" points="160,-5.5 160,-24.5 276,-24.5 276,-5.5 160,-5.5"/>
<text text-anchor="middle" x="218" y="-12.5" font-family="Helvetica,sans-Serif" font-size="10.00">pbl_simple::simple_pbl</text>
</a>
</g>
</g>
<!-- Node1&#45;&gt;Node2 -->
<g id="edge1" class="edge"><title>Node1&#45;&gt;Node2</title>
<path fill="none" stroke="midnightblue" d="M134.31,-15C142.891,-15 151.565,-15 159.906,-15"/>
<polygon fill="midnightblue" stroke="midnightblue" points="134.307,-11.5001 124.307,-15 134.307,-18.5001 134.307,-11.5001"/>
</g>
<!-- Node3 -->
<g id="node3" class="node"><title>Node3</title>
<g id="a_node3"><a xlink:href="classplanetary__boundary__layer.html#ac1da4433b1830b1d11a543b893a97c50" target="_top" xlink:title="planetary_boundary\l_layer::pbl">
<polygon fill="white" stroke="black" points="312.5,-0 312.5,-30 413.5,-30 413.5,-0 312.5,-0"/>
<text text-anchor="start" x="320.5" y="-18" font-family="Helvetica,sans-Serif" font-size="10.00">planetary_boundary</text>
<text text-anchor="middle" x="363" y="-7" font-family="Helvetica,sans-Serif" font-size="10.00">_layer::pbl</text>
</a>
</g>
</g>
<!-- Node2&#45;&gt;Node3 -->
<g id="edge2" class="edge"><title>Node2&#45;&gt;Node3</title>
<path fill="none" stroke="midnightblue" d="M286.535,-15C295.279,-15 304.101,-15 312.478,-15"/>
<polygon fill="midnightblue" stroke="midnightblue" points="286.34,-11.5001 276.34,-15 286.34,-18.5001 286.34,-11.5001"/>
</g>
<!-- Node4 -->
<g id="node4" class="node"><title>Node4</title>
<g id="a_node4"><a xlink:href="classtime__step.html#a2c022f11247af72e607b1493289aa974" target="_top" xlink:title=" Step forward one IO time step. ">
<polygon fill="white" stroke="black" points="450,-5.5 450,-24.5 534,-24.5 534,-5.5 450,-5.5"/>
<text text-anchor="middle" x="492" y="-12.5" font-family="Helvetica,sans-Serif" font-size="10.00">time_step::step</text>
</a>
</g>
</g>
<!-- Node3&#45;&gt;Node4 -->
<g id="edge3" class="edge"><title>Node3&#45;&gt;Node4</title>
<path fill="none" stroke="midnightblue" d="M424.035,-15C432.798,-15 441.648,-15 449.917,-15"/>
<polygon fill="midnightblue" stroke="midnightblue" points="423.829,-11.5001 413.829,-15 423.829,-18.5001 423.829,-11.5001"/>
</g>
<!-- Node5 -->
<g id="node5" class="node"><title>Node5</title>
<g id="a_node5"><a xlink:href="driver_8f90.html#ab1e5a5816a57fc6e95d9563c2bb53590" target="_top" xlink:title=" Main Program ">
<polygon fill="white" stroke="black" points="570,-5.5 570,-24.5 602,-24.5 602,-5.5 570,-5.5"/>
<text text-anchor="middle" x="586" y="-12.5" font-family="Helvetica,sans-Serif" font-size="10.00">icar</text>
</a>
</g>
</g>
<!-- Node4&#45;&gt;Node5 -->
<g id="edge4" class="edge"><title>Node4&#45;&gt;Node5</title>
<path fill="none" stroke="midnightblue" d="M544.253,-15C553.521,-15 562.5,-15 569.66,-15"/>
<polygon fill="midnightblue" stroke="midnightblue" points="544.156,-11.5001 534.156,-15 544.156,-18.5001 544.156,-11.5001"/>
</g>
</g>
</svg>
