<?xml version="1.0" encoding="UTF-8" standalone="no"?>
<!DOCTYPE svg PUBLIC "-//W3C//DTD SVG 1.1//EN"
 "http://www.w3.org/Graphics/SVG/1.1/DTD/svg11.dtd">
<!-- Generated by graphviz version 2.38.0 (20140413.2041)
 -->
<!-- Title: module_mp_thompson::gcf Pages: 1 -->
<svg width="934pt" height="88pt"
 viewBox="0.00 0.00 934.00 88.00" xmlns="http://www.w3.org/2000/svg" xmlns:xlink="http://www.w3.org/1999/xlink">
<g id="graph0" class="graph" transform="scale(1 1) rotate(0) translate(4 84)">
<title>module_mp_thompson::gcf</title>
<polygon fill="white" stroke="none" points="-4,4 -4,-84 930,-84 930,4 -4,4"/>
<!-- Node1 -->
<g id="node1" class="node"><title>Node1</title>
<polygon fill="#bfbfbf" stroke="black" points="0,-30 0,-49 134,-49 134,-30 0,-30"/>
<text text-anchor="middle" x="67" y="-37" font-family="Helvetica,sans-Serif" font-size="10.00">module_mp_thompson::gcf</text>
</g>
<!-- Node2 -->
<g id="node2" class="node"><title>Node2</title>
<g id="a_node2"><a xlink:href="classmodule__mp__thompson.html#a1f946ed505cb00dda905c9a8c773b9be" target="_top" xlink:title="module_mp_thompson\l::gammp">
<polygon fill="white" stroke="black" points="170,-24.5 170,-54.5 285,-54.5 285,-24.5 170,-24.5"/>
<text text-anchor="start" x="178" y="-42.5" font-family="Helvetica,sans-Serif" font-size="10.00">module_mp_thompson</text>
<text text-anchor="middle" x="227.5" y="-31.5" font-family="Helvetica,sans-Serif" font-size="10.00">::gammp</text>
</a>
</g>
</g>
<!-- Node1&#45;&gt;Node2 -->
<g id="edge1" class="edge"><title>Node1&#45;&gt;Node2</title>
<path fill="none" stroke="midnightblue" d="M144.523,-39.5C152.942,-39.5 161.402,-39.5 169.523,-39.5"/>
<polygon fill="midnightblue" stroke="midnightblue" points="144.3,-36.0001 134.3,-39.5 144.3,-43.0001 144.3,-36.0001"/>
</g>
<!-- Node3 -->
<g id="node3" class="node"><title>Node3</title>
<g id="a_node3"><a xlink:href="classmodule__mp__thompson.html#a38c4bc57c8dd450c76cc65b1991cf23d" target="_top" xlink:title="module_mp_thompson\l::qi_aut_qs">
<polygon fill="white" stroke="black" points="321,-49.5 321,-79.5 436,-79.5 436,-49.5 321,-49.5"/>
<text text-anchor="start" x="329" y="-67.5" font-family="Helvetica,sans-Serif" font-size="10.00">module_mp_thompson</text>
<text text-anchor="middle" x="378.5" y="-56.5" font-family="Helvetica,sans-Serif" font-size="10.00">::qi_aut_qs</text>
</a>
</g>
</g>
<!-- Node2&#45;&gt;Node3 -->
<g id="edge2" class="edge"><title>Node2&#45;&gt;Node3</title>
<path fill="none" stroke="midnightblue" d="M295.228,-50.696C303.801,-52.1344 312.513,-53.5961 320.902,-55.0037"/>
<polygon fill="midnightblue" stroke="midnightblue" points="295.697,-47.2258 285.256,-49.0227 294.539,-54.1293 295.697,-47.2258"/>
</g>
<!-- Node8 -->
<g id="node8" class="node"><title>Node8</title>
<g id="a_node8"><a xlink:href="classmodule__mp__thompson.html#ac5a7433b5bd00387f9fd1e9aa9356dc4" target="_top" xlink:title="module_mp_thompson\l::table_dropevap">
<polygon fill="white" stroke="black" points="321,-0.5 321,-30.5 436,-30.5 436,-0.5 321,-0.5"/>
<text text-anchor="start" x="329" y="-18.5" font-family="Helvetica,sans-Serif" font-size="10.00">module_mp_thompson</text>
<text text-anchor="middle" x="378.5" y="-7.5" font-family="Helvetica,sans-Serif" font-size="10.00">::table_dropevap</text>
</a>
</g>
</g>
<!-- Node2&#45;&gt;Node8 -->
<g id="edge7" class="edge"><title>Node2&#45;&gt;Node8</title>
<path fill="none" stroke="midnightblue" d="M295.228,-28.7519C303.801,-27.371 312.513,-25.9678 320.902,-24.6164"/>
<polygon fill="midnightblue" stroke="midnightblue" points="294.572,-25.3124 285.256,-30.3582 295.685,-32.2233 294.572,-25.3124"/>
</g>
<!-- Node4 -->
<g id="node4" class="node"><title>Node4</title>
<g id="a_node4"><a xlink:href="classmodule__mp__thompson.html#ac48fd402382d0687fe2a123025ba6a13" target="_top" xlink:title="module_mp_thompson\l::thompson_init">
<polygon fill="white" stroke="black" points="472,-49.5 472,-79.5 587,-79.5 587,-49.5 472,-49.5"/>
<text text-anchor="start" x="480" y="-67.5" font-family="Helvetica,sans-Serif" font-size="10.00">module_mp_thompson</text>
<text text-anchor="middle" x="529.5" y="-56.5" font-family="Helvetica,sans-Serif" font-size="10.00">::thompson_init</text>
</a>
</g>
</g>
<!-- Node3&#45;&gt;Node4 -->
<g id="edge3" class="edge"><title>Node3&#45;&gt;Node4</title>
<path fill="none" stroke="midnightblue" d="M446.508,-64.5C454.99,-64.5 463.604,-64.5 471.902,-64.5"/>
<polygon fill="midnightblue" stroke="midnightblue" points="446.256,-61.0001 436.256,-64.5 446.256,-68.0001 446.256,-61.0001"/>
</g>
<!-- Node5 -->
<g id="node5" class="node"><title>Node5</title>
<g id="a_node5"><a xlink:href="classmicrophysics.html#afa6d0466868d2249a5e1827b39907554" target="_top" xlink:title=" Initialize microphysical routines ">
<polygon fill="white" stroke="black" points="623,-55 623,-74 735,-74 735,-55 623,-55"/>
<text text-anchor="middle" x="679" y="-62" font-family="Helvetica,sans-Serif" font-size="10.00">microphysics::mp_init</text>
</a>
</g>
</g>
<!-- Node4&#45;&gt;Node5 -->
<g id="edge4" class="edge"><title>Node4&#45;&gt;Node5</title>
<path fill="none" stroke="midnightblue" d="M597.373,-64.5C605.865,-64.5 614.48,-64.5 622.762,-64.5"/>
<polygon fill="midnightblue" stroke="midnightblue" points="597.106,-61.0001 587.106,-64.5 597.105,-68.0001 597.106,-61.0001"/>
</g>
<!-- Node6 -->
<g id="node6" class="node"><title>Node6</title>
<g id="a_node6"><a xlink:href="classinit.html#ad066397f42956c6e9d50884a2e84d4e4" target="_top" xlink:title="init::init_physics">
<polygon fill="white" stroke="black" points="771,-55 771,-74 858,-74 858,-55 771,-55"/>
<text text-anchor="middle" x="814.5" y="-62" font-family="Helvetica,sans-Serif" font-size="10.00">init::init_physics</text>
</a>
</g>
</g>
<!-- Node5&#45;&gt;Node6 -->
<g id="edge5" class="edge"><title>Node5&#45;&gt;Node6</title>
<path fill="none" stroke="midnightblue" d="M745.217,-64.5C753.904,-64.5 762.625,-64.5 770.792,-64.5"/>
<polygon fill="midnightblue" stroke="midnightblue" points="745.07,-61.0001 735.07,-64.5 745.07,-68.0001 745.07,-61.0001"/>
</g>
<!-- Node7 -->
<g id="node7" class="node"><title>Node7</title>
<g id="a_node7"><a xlink:href="driver_8f90.html#ab1e5a5816a57fc6e95d9563c2bb53590" target="_top" xlink:title=" Main Program ">
<polygon fill="white" stroke="black" points="894,-55 894,-74 926,-74 926,-55 894,-55"/>
<text text-anchor="middle" x="910" y="-62" font-family="Helvetica,sans-Serif" font-size="10.00">icar</text>
</a>
</g>
</g>
<!-- Node6&#45;&gt;Node7 -->
<g id="edge6" class="edge"><title>Node6&#45;&gt;Node7</title>
<path fill="none" stroke="midnightblue" d="M868.293,-64.5C877.593,-64.5 886.569,-64.5 893.714,-64.5"/>
<polygon fill="midnightblue" stroke="midnightblue" points="868.146,-61.0001 858.146,-64.5 868.146,-68.0001 868.146,-61.0001"/>
</g>
</g>
</svg>
