<?xml version="1.0" encoding="UTF-8" standalone="no"?>
<!DOCTYPE svg PUBLIC "-//W3C//DTD SVG 1.1//EN"
 "http://www.w3.org/Graphics/SVG/1.1/DTD/svg11.dtd">
<!-- Generated by graphviz version 2.38.0 (20140413.2041)
 -->
<!-- Title: init::init_physics Pages: 1 -->
<!--zoomable 561 -->
<svg id="main" version="1.1" xmlns="http://www.w3.org/2000/svg" xmlns:xlink="http://www.w3.org/1999/xlink" xml:space="preserve" onload="init(evt)">
<style type="text/css"><![CDATA[
.edge:hover path { stroke: red; }
.edge:hover polygon { stroke: red; fill: red; }
]]></style>
<script type="text/javascript"><![CDATA[
var edges = document.getElementsByTagName('g');
if (edges && edges.length) {
  for (var i=0;i<edges.length;i++) {
    if (edges[i].id.substr(0,4)=='edge') {
      edges[i].setAttribute('class','edge');
    }
  }
}
]]></script>
        <defs>
                <circle id="rim" cx="0" cy="0" r="7"/>
                <circle id="rim2" cx="0" cy="0" r="3.5"/>
                <g id="zoomPlus">
                        <use xlink:href="#rim" fill="#404040">
                                <set attributeName="fill" to="#808080" begin="zoomplus.mouseover" end="zoomplus.mouseout"/>
                        </use>
                        <path d="M-4,0h8M0,-4v8" fill="none" stroke="white" stroke-width="1.5" pointer-events="none"/>
                </g>
                <g id="zoomMin">
                        <use xlink:href="#rim" fill="#404040">
                                <set attributeName="fill" to="#808080" begin="zoomminus.mouseover" end="zoomminus.mouseout"/>
                        </use>
                        <path d="M-4,0h8" fill="none" stroke="white" stroke-width="1.5" pointer-events="none"/>
                </g>
                <g id="dirArrow">
                        <path fill="none" stroke="white" stroke-width="1.5" d="M0,-3.0v7 M-2.5,-0.5L0,-3.0L2.5,-0.5"/>
                </g>
               <g id="resetDef">
                       <use xlink:href="#rim2" fill="#404040">
                               <set attributeName="fill" to="#808080" begin="reset.mouseover" end="reset.mouseout"/>
                       </use>
               </g>
        </defs>

<script type="text/javascript">
var viewWidth = 1059;
var viewHeight = 561;
var sectionId = 'dynsection-17';
</script>
<script xlink:href="svgpan.js"/>
<svg id="graph" class="graph">
<g id="viewport">
<title>init::init_physics</title>
<polygon fill="white" stroke="none" points="-4,4 -4,-557.061 1055,-557.061 1055,4 -4,4"/>
<!-- Node1 -->
<g id="node1" class="node"><title>Node1</title>
<polygon fill="#bfbfbf" stroke="black" points="0,-213.5 0,-232.5 87,-232.5 87,-213.5 0,-213.5"/>
<text text-anchor="middle" x="43.5" y="-220.5" font-family="Helvetica,sans-Serif" font-size="10.00">init::init_physics</text>
</g>
<!-- Node2 -->
<g id="node2" class="node"><title>Node2</title>
<g id="a_node2"><a xlink:href="classmicrophysics.html#afa6d0466868d2249a5e1827b39907554" target="_top" xlink:title=" Initialize microphysical routines ">
<polygon fill="white" stroke="black" points="134.5,-376.5 134.5,-395.5 246.5,-395.5 246.5,-376.5 134.5,-376.5"/>
<text text-anchor="middle" x="190.5" y="-383.5" font-family="Helvetica,sans-Serif" font-size="10.00">microphysics::mp_init</text>
</a>
</g>
</g>
<!-- Node1&#45;&gt;Node2 -->
<g id="edge1" class="edge"><title>Node1&#45;&gt;Node2</title>
<path fill="none" stroke="midnightblue" d="M49.3594,-232.663C60.3469,-253.865 88.8253,-305.337 123,-340 134.932,-352.102 150.45,-363.045 163.494,-371.219"/>
<polygon fill="midnightblue" stroke="midnightblue" points="161.691,-374.219 172.056,-376.416 165.323,-368.235 161.691,-374.219"/>
</g>
<!-- Node15 -->
<g id="node15" class="node"><title>Node15</title>
<g id="a_node15"><a xlink:href="classconvection.html#a2e577ff8b07394b466c553650318dd47" target="_top" xlink:title="convection::init_convection">
<polygon fill="white" stroke="black" points="123,-311.5 123,-330.5 258,-330.5 258,-311.5 123,-311.5"/>
<text text-anchor="middle" x="190.5" y="-318.5" font-family="Helvetica,sans-Serif" font-size="10.00">convection::init_convection</text>
</a>
</g>
</g>
<!-- Node1&#45;&gt;Node15 -->
<g id="edge16" class="edge"><title>Node1&#45;&gt;Node15</title>
<path fill="none" stroke="midnightblue" d="M58.6672,-232.575C83.7245,-249.51 136.072,-284.89 166.407,-305.393"/>
<polygon fill="midnightblue" stroke="midnightblue" points="164.815,-308.541 175.06,-311.241 168.735,-302.741 164.815,-308.541"/>
</g>
<!-- Node18 -->
<g id="node18" class="node"><title>Node18</title>
<g id="a_node18"><a xlink:href="classplanetary__boundary__layer.html#a3aa43010ef750e900073bf0ce5cca626" target="_top" xlink:title="planetary_boundary\l_layer::pbl_init">
<polygon fill="white" stroke="black" points="140,-230 140,-260 241,-260 241,-230 140,-230"/>
<text text-anchor="start" x="148" y="-248" font-family="Helvetica,sans-Serif" font-size="10.00">planetary_boundary</text>
<text text-anchor="middle" x="190.5" y="-237" font-family="Helvetica,sans-Serif" font-size="10.00">_layer::pbl_init</text>
</a>
</g>
</g>
<!-- Node1&#45;&gt;Node18 -->
<g id="edge19" class="edge"><title>Node1&#45;&gt;Node18</title>
<path fill="none" stroke="midnightblue" d="M87.2205,-229.482C100.53,-231.501 115.461,-233.767 129.715,-235.929"/>
<polygon fill="midnightblue" stroke="midnightblue" points="129.53,-239.441 139.941,-237.481 130.58,-232.52 129.53,-239.441"/>
</g>
<!-- Node21 -->
<g id="node21" class="node"><title>Node21</title>
<g id="a_node21"><a xlink:href="classradiation.html#a94649060f6141f802e4bc2d749b9b718" target="_top" xlink:title="radiation::radiation_init">
<polygon fill="white" stroke="black" points="133.5,-191.5 133.5,-210.5 247.5,-210.5 247.5,-191.5 133.5,-191.5"/>
<text text-anchor="middle" x="190.5" y="-198.5" font-family="Helvetica,sans-Serif" font-size="10.00">radiation::radiation_init</text>
</a>
</g>
</g>
<!-- Node1&#45;&gt;Node21 -->
<g id="edge22" class="edge"><title>Node1&#45;&gt;Node21</title>
<path fill="none" stroke="midnightblue" d="M87.2205,-216.518C98.5112,-214.805 110.968,-212.915 123.189,-211.061"/>
<polygon fill="midnightblue" stroke="midnightblue" points="124.006,-214.477 133.368,-209.517 122.956,-207.556 124.006,-214.477"/>
</g>
<!-- Node23 -->
<g id="node23" class="node"><title>Node23</title>
<g id="a_node23"><a xlink:href="classland__surface.html#a1cb38f371db4d5b7c7bcfe172b7147bf" target="_top" xlink:title="land_surface::lsm_init">
<polygon fill="white" stroke="black" points="134.5,-118.5 134.5,-137.5 246.5,-137.5 246.5,-118.5 134.5,-118.5"/>
<text text-anchor="middle" x="190.5" y="-125.5" font-family="Helvetica,sans-Serif" font-size="10.00">land_surface::lsm_init</text>
</a>
</g>
</g>
<!-- Node1&#45;&gt;Node23 -->
<g id="edge24" class="edge"><title>Node1&#45;&gt;Node23</title>
<path fill="none" stroke="midnightblue" d="M59.2013,-213.368C84.3873,-196.867 135.981,-163.064 166.141,-143.304"/>
<polygon fill="midnightblue" stroke="midnightblue" points="168.313,-146.065 174.76,-137.657 164.477,-140.21 168.313,-146.065"/>
</g>
<!-- Node29 -->
<g id="node29" class="node"><title>Node29</title>
<g id="a_node29"><a xlink:href="classadvection.html#a2c37b670011de9a6acbe996ea899eac2" target="_top" xlink:title="advection::adv_init">
<polygon fill="white" stroke="black" points="141.5,-28.5 141.5,-47.5 239.5,-47.5 239.5,-28.5 141.5,-28.5"/>
<text text-anchor="middle" x="190.5" y="-35.5" font-family="Helvetica,sans-Serif" font-size="10.00">advection::adv_init</text>
</a>
</g>
</g>
<!-- Node1&#45;&gt;Node29 -->
<g id="edge30" class="edge"><title>Node1&#45;&gt;Node29</title>
<path fill="none" stroke="midnightblue" d="M50.5475,-213.194C63.1393,-193.021 93.463,-145.686 123,-109 138.583,-89.6458 158.218,-69.0871 172.102,-55.1009"/>
<polygon fill="midnightblue" stroke="midnightblue" points="174.929,-57.2244 179.538,-47.6843 169.986,-52.2683 174.929,-57.2244"/>
</g>
<!-- Node3 -->
<g id="node3" class="node"><title>Node3</title>
<g id="a_node3"><a xlink:href="classmodule__mp__thompson.html#ac48fd402382d0687fe2a123025ba6a13" target="_top" xlink:title="module_mp_thompson\l::thompson_init">
<polygon fill="white" stroke="black" points="303.5,-399 303.5,-429 418.5,-429 418.5,-399 303.5,-399"/>
<text text-anchor="start" x="311.5" y="-417" font-family="Helvetica,sans-Serif" font-size="10.00">module_mp_thompson</text>
<text text-anchor="middle" x="361" y="-406" font-family="Helvetica,sans-Serif" font-size="10.00">::thompson_init</text>
</a>
</g>
</g>
<!-- Node2&#45;&gt;Node3 -->
<g id="edge2" class="edge"><title>Node2&#45;&gt;Node3</title>
<path fill="none" stroke="midnightblue" d="M246.673,-395.168C261.554,-397.641 277.814,-400.343 293.253,-402.909"/>
<polygon fill="midnightblue" stroke="midnightblue" points="292.82,-406.384 303.258,-404.571 293.967,-399.479 292.82,-406.384"/>
</g>
<!-- Node4 -->
<g id="node4" class="node"><title>Node4</title>
<g id="a_node4"><a xlink:href="classmodule__mp__thompson.html#a8a455cb4e751f42fa53a31bb47649767" target="_top" xlink:title="module_mp_thompson\l::wgamma">
<polygon fill="white" stroke="black" points="615,-515 615,-545 730,-545 730,-515 615,-515"/>
<text text-anchor="start" x="623" y="-533" font-family="Helvetica,sans-Serif" font-size="10.00">module_mp_thompson</text>
<text text-anchor="middle" x="672.5" y="-522" font-family="Helvetica,sans-Serif" font-size="10.00">::wgamma</text>
</a>
</g>
</g>
<!-- Node3&#45;&gt;Node4 -->
<g id="edge3" class="edge"><title>Node3&#45;&gt;Node4</title>
<path fill="none" stroke="midnightblue" d="M369.113,-429.404C382.868,-457.089 416.043,-514.468 464,-537 508.246,-557.789 563.851,-554.585 606.36,-546.976"/>
<polygon fill="midnightblue" stroke="midnightblue" points="607.154,-550.388 616.318,-545.072 605.839,-543.513 607.154,-550.388"/>
</g>
<!-- Node6 -->
<g id="node6" class="node"><title>Node6</title>
<g id="a_node6"><a xlink:href="classmodule__mp__thompson.html#aafc69c30a2dad10d06a05f1b7239926c" target="_top" xlink:title="module_mp_thompson\l::table_efrw">
<polygon fill="white" stroke="black" points="464,-497 464,-527 579,-527 579,-497 464,-497"/>
<text text-anchor="start" x="472" y="-515" font-family="Helvetica,sans-Serif" font-size="10.00">module_mp_thompson</text>
<text text-anchor="middle" x="521.5" y="-504" font-family="Helvetica,sans-Serif" font-size="10.00">::table_efrw</text>
</a>
</g>
</g>
<!-- Node3&#45;&gt;Node6 -->
<g id="edge5" class="edge"><title>Node3&#45;&gt;Node6</title>
<path fill="none" stroke="midnightblue" d="M380.313,-429.253C400.095,-445.246 432.959,-470.447 464,-488 466.696,-489.525 469.508,-491.012 472.375,-492.452"/>
<polygon fill="midnightblue" stroke="midnightblue" points="471.112,-495.727 481.644,-496.872 474.125,-489.409 471.112,-495.727"/>
</g>
<!-- Node7 -->
<g id="node7" class="node"><title>Node7</title>
<g id="a_node7"><a xlink:href="classmodule__mp__thompson.html#ab74dffc6baa178d41426700bfd1a08c6" target="_top" xlink:title="module_mp_thompson\l::table_efsw">
<polygon fill="white" stroke="black" points="464,-448 464,-478 579,-478 579,-448 464,-448"/>
<text text-anchor="start" x="472" y="-466" font-family="Helvetica,sans-Serif" font-size="10.00">module_mp_thompson</text>
<text text-anchor="middle" x="521.5" y="-455" font-family="Helvetica,sans-Serif" font-size="10.00">::table_efsw</text>
</a>
</g>
</g>
<!-- Node3&#45;&gt;Node7 -->
<g id="edge6" class="edge"><title>Node3&#45;&gt;Node7</title>
<path fill="none" stroke="midnightblue" d="M410.849,-429.101C427.044,-434.108 445.237,-439.732 462.078,-444.939"/>
<polygon fill="midnightblue" stroke="midnightblue" points="461.225,-448.339 471.813,-447.948 463.293,-441.651 461.225,-448.339"/>
</g>
<!-- Node8 -->
<g id="node8" class="node"><title>Node8</title>
<g id="a_node8"><a xlink:href="classmodule__mp__thompson.html#ac898e25fc9f98509e6110b13be2a0f47" target="_top" xlink:title="module_mp_thompson\l::qr_acr_qg">
<polygon fill="white" stroke="black" points="464,-399 464,-429 579,-429 579,-399 464,-399"/>
<text text-anchor="start" x="472" y="-417" font-family="Helvetica,sans-Serif" font-size="10.00">module_mp_thompson</text>
<text text-anchor="middle" x="521.5" y="-406" font-family="Helvetica,sans-Serif" font-size="10.00">::qr_acr_qg</text>
</a>
</g>
</g>
<!-- Node3&#45;&gt;Node8 -->
<g id="edge7" class="edge"><title>Node3&#45;&gt;Node8</title>
<path fill="none" stroke="midnightblue" d="M418.774,-414C430.11,-414 442.115,-414 453.751,-414"/>
<polygon fill="midnightblue" stroke="midnightblue" points="453.856,-417.5 463.856,-414 453.856,-410.5 453.856,-417.5"/>
</g>
<!-- Node9 -->
<g id="node9" class="node"><title>Node9</title>
<g id="a_node9"><a xlink:href="classmodule__mp__thompson.html#abcd924082fb7889d94345fcd108bc7ae" target="_top" xlink:title="module_mp_thompson\l::qr_acr_qs">
<polygon fill="white" stroke="black" points="464,-350 464,-380 579,-380 579,-350 464,-350"/>
<text text-anchor="start" x="472" y="-368" font-family="Helvetica,sans-Serif" font-size="10.00">module_mp_thompson</text>
<text text-anchor="middle" x="521.5" y="-357" font-family="Helvetica,sans-Serif" font-size="10.00">::qr_acr_qs</text>
</a>
</g>
</g>
<!-- Node3&#45;&gt;Node9 -->
<g id="edge8" class="edge"><title>Node3&#45;&gt;Node9</title>
<path fill="none" stroke="midnightblue" d="M410.849,-398.899C427.044,-393.892 445.237,-388.268 462.078,-383.061"/>
<polygon fill="midnightblue" stroke="midnightblue" points="463.293,-386.349 471.813,-380.052 461.225,-379.661 463.293,-386.349"/>
</g>
<!-- Node10 -->
<g id="node10" class="node"><title>Node10</title>
<g id="a_node10"><a xlink:href="classmodule__mp__thompson.html#aef8e7a0baae69fe6c2719f923b818fe4" target="_top" xlink:title="module_mp_thompson\l::freezeh2o">
<polygon fill="white" stroke="black" points="464,-301 464,-331 579,-331 579,-301 464,-301"/>
<text text-anchor="start" x="472" y="-319" font-family="Helvetica,sans-Serif" font-size="10.00">module_mp_thompson</text>
<text text-anchor="middle" x="521.5" y="-308" font-family="Helvetica,sans-Serif" font-size="10.00">::freezeh2o</text>
</a>
</g>
</g>
<!-- Node3&#45;&gt;Node10 -->
<g id="edge9" class="edge"><title>Node3&#45;&gt;Node10</title>
<path fill="none" stroke="midnightblue" d="M411.613,-398.853C417.411,-396.046 423.024,-392.78 428,-389 449.519,-372.654 442.809,-356.769 464,-340 465.598,-338.735 467.273,-337.525 469.004,-336.37"/>
<polygon fill="midnightblue" stroke="midnightblue" points="471.205,-339.135 478.033,-331.034 467.643,-333.108 471.205,-339.135"/>
</g>
<!-- Node11 -->
<g id="node11" class="node"><title>Node11</title>
<g id="a_node11"><a xlink:href="classmodule__mp__thompson.html#a38c4bc57c8dd450c76cc65b1991cf23d" target="_top" xlink:title="module_mp_thompson\l::qi_aut_qs">
<polygon fill="white" stroke="black" points="464,-252 464,-282 579,-282 579,-252 464,-252"/>
<text text-anchor="start" x="472" y="-270" font-family="Helvetica,sans-Serif" font-size="10.00">module_mp_thompson</text>
<text text-anchor="middle" x="521.5" y="-259" font-family="Helvetica,sans-Serif" font-size="10.00">::qi_aut_qs</text>
</a>
</g>
</g>
<!-- Node3&#45;&gt;Node11 -->
<g id="edge10" class="edge"><title>Node3&#45;&gt;Node11</title>
<path fill="none" stroke="midnightblue" d="M415.017,-398.844C419.768,-396.084 424.207,-392.831 428,-389 460.646,-356.025 432.014,-324.615 464,-291 464.909,-290.045 465.862,-289.125 466.853,-288.241"/>
<polygon fill="midnightblue" stroke="midnightblue" points="469.143,-290.9 475.084,-282.128 464.969,-285.281 469.143,-290.9"/>
</g>
<!-- Node5 -->
<g id="node5" class="node"><title>Node5</title>
<g id="a_node5"><a xlink:href="classmodule__mp__thompson.html#a529ff675223a2d57e5e67a26707638cd" target="_top" xlink:title="module_mp_thompson\l::gammln">
<polygon fill="white" stroke="black" points="936,-396 936,-426 1051,-426 1051,-396 936,-396"/>
<text text-anchor="start" x="944" y="-414" font-family="Helvetica,sans-Serif" font-size="10.00">module_mp_thompson</text>
<text text-anchor="middle" x="993.5" y="-403" font-family="Helvetica,sans-Serif" font-size="10.00">::gammln</text>
</a>
</g>
</g>
<!-- Node4&#45;&gt;Node5 -->
<g id="edge4" class="edge"><title>Node4&#45;&gt;Node5</title>
<path fill="none" stroke="midnightblue" d="M713.902,-514.929C772.067,-493.23 879.327,-453.218 942.44,-429.675"/>
<polygon fill="midnightblue" stroke="midnightblue" points="944.029,-432.817 952.175,-426.043 941.583,-426.259 944.029,-432.817"/>
</g>
<!-- Node12 -->
<g id="node12" class="node"><title>Node12</title>
<g id="a_node12"><a xlink:href="classmodule__mp__thompson.html#a1f946ed505cb00dda905c9a8c773b9be" target="_top" xlink:title="module_mp_thompson\l::gammp">
<polygon fill="white" stroke="black" points="615,-352 615,-382 730,-382 730,-352 615,-352"/>
<text text-anchor="start" x="623" y="-370" font-family="Helvetica,sans-Serif" font-size="10.00">module_mp_thompson</text>
<text text-anchor="middle" x="672.5" y="-359" font-family="Helvetica,sans-Serif" font-size="10.00">::gammp</text>
</a>
</g>
</g>
<!-- Node11&#45;&gt;Node12 -->
<g id="edge11" class="edge"><title>Node11&#45;&gt;Node12</title>
<path fill="none" stroke="midnightblue" d="M562.126,-282.114C567.922,-284.813 573.713,-287.797 579,-291 604.435,-306.411 630.334,-328.337 648.233,-344.681"/>
<polygon fill="midnightblue" stroke="midnightblue" points="646.15,-347.523 655.864,-351.754 650.909,-342.389 646.15,-347.523"/>
</g>
<!-- Node13 -->
<g id="node13" class="node"><title>Node13</title>
<g id="a_node13"><a xlink:href="classmodule__mp__thompson.html#af4069d16cc3cbf9a1c493ae5314f4484" target="_top" xlink:title="module_mp_thompson\l::gser">
<polygon fill="white" stroke="black" points="775.5,-396 775.5,-426 890.5,-426 890.5,-396 775.5,-396"/>
<text text-anchor="start" x="783.5" y="-414" font-family="Helvetica,sans-Serif" font-size="10.00">module_mp_thompson</text>
<text text-anchor="middle" x="833" y="-403" font-family="Helvetica,sans-Serif" font-size="10.00">::gser</text>
</a>
</g>
</g>
<!-- Node12&#45;&gt;Node13 -->
<g id="edge12" class="edge"><title>Node12&#45;&gt;Node13</title>
<path fill="none" stroke="midnightblue" d="M727.603,-382.019C740.665,-385.645 754.744,-389.553 768.203,-393.29"/>
<polygon fill="midnightblue" stroke="midnightblue" points="767.3,-396.671 777.872,-395.974 769.172,-389.926 767.3,-396.671"/>
</g>
<!-- Node14 -->
<g id="node14" class="node"><title>Node14</title>
<g id="a_node14"><a xlink:href="classmodule__mp__thompson.html#ae708350e2b07c93cbab0a8f77752e063" target="_top" xlink:title="module_mp_thompson::gcf">
<polygon fill="white" stroke="black" points="766,-357.5 766,-376.5 900,-376.5 900,-357.5 766,-357.5"/>
<text text-anchor="middle" x="833" y="-364.5" font-family="Helvetica,sans-Serif" font-size="10.00">module_mp_thompson::gcf</text>
</a>
</g>
</g>
<!-- Node12&#45;&gt;Node14 -->
<g id="edge14" class="edge"><title>Node12&#45;&gt;Node14</title>
<path fill="none" stroke="midnightblue" d="M730.274,-367C738.574,-367 747.233,-367 755.842,-367"/>
<polygon fill="midnightblue" stroke="midnightblue" points="755.903,-370.5 765.903,-367 755.903,-363.5 755.903,-370.5"/>
</g>
<!-- Node13&#45;&gt;Node5 -->
<g id="edge13" class="edge"><title>Node13&#45;&gt;Node5</title>
<path fill="none" stroke="midnightblue" d="M890.774,-411C902.11,-411 914.115,-411 925.751,-411"/>
<polygon fill="midnightblue" stroke="midnightblue" points="925.856,-414.5 935.856,-411 925.856,-407.5 925.856,-414.5"/>
</g>
<!-- Node14&#45;&gt;Node5 -->
<g id="edge15" class="edge"><title>Node14&#45;&gt;Node5</title>
<path fill="none" stroke="midnightblue" d="M868.392,-376.547C885.998,-381.435 908.009,-387.545 928.585,-393.257"/>
<polygon fill="midnightblue" stroke="midnightblue" points="927.659,-396.632 938.23,-395.935 929.531,-389.887 927.659,-396.632"/>
</g>
<!-- Node16 -->
<g id="node16" class="node"><title>Node16</title>
<g id="a_node16"><a xlink:href="classmodule__cu__tiedtke.html#a60f0cad4dfe50584efbfe0fd3f2e4d33" target="_top" xlink:title="module_cu_tiedtke::\ltiedtkeinit">
<polygon fill="white" stroke="black" points="309,-350 309,-380 413,-380 413,-350 309,-350"/>
<text text-anchor="start" x="317" y="-368" font-family="Helvetica,sans-Serif" font-size="10.00">module_cu_tiedtke::</text>
<text text-anchor="middle" x="361" y="-357" font-family="Helvetica,sans-Serif" font-size="10.00">tiedtkeinit</text>
</a>
</g>
</g>
<!-- Node15&#45;&gt;Node16 -->
<g id="edge17" class="edge"><title>Node15&#45;&gt;Node16</title>
<path fill="none" stroke="midnightblue" d="M228.062,-330.547C248.727,-335.944 275.099,-342.83 298.826,-349.026"/>
<polygon fill="midnightblue" stroke="midnightblue" points="298.248,-352.492 308.808,-351.632 300.017,-345.719 298.248,-352.492"/>
</g>
<!-- Node17 -->
<g id="node17" class="node"><title>Node17</title>
<g id="a_node17"><a xlink:href="classmodule__cu__kf.html#a1220d4bd1b534a12c94b07e3f45ebec4" target="_top" xlink:title="module_cu_kf::kfinit">
<polygon fill="white" stroke="black" points="309,-311.5 309,-330.5 413,-330.5 413,-311.5 309,-311.5"/>
<text text-anchor="middle" x="361" y="-318.5" font-family="Helvetica,sans-Serif" font-size="10.00">module_cu_kf::kfinit</text>
</a>
</g>
</g>
<!-- Node15&#45;&gt;Node17 -->
<g id="edge18" class="edge"><title>Node15&#45;&gt;Node17</title>
<path fill="none" stroke="midnightblue" d="M258.096,-321C271.451,-321 285.427,-321 298.597,-321"/>
<polygon fill="midnightblue" stroke="midnightblue" points="298.959,-324.5 308.959,-321 298.959,-317.5 298.959,-324.5"/>
</g>
<!-- Node19 -->
<g id="node19" class="node"><title>Node19</title>
<g id="a_node19"><a xlink:href="classpbl__simple.html#a0d3a6d04c622b7d39124153482f0cde4" target="_top" xlink:title="pbl_simple::init_simple_pbl">
<polygon fill="white" stroke="black" points="294,-273.5 294,-292.5 428,-292.5 428,-273.5 294,-273.5"/>
<text text-anchor="middle" x="361" y="-280.5" font-family="Helvetica,sans-Serif" font-size="10.00">pbl_simple::init_simple_pbl</text>
</a>
</g>
</g>
<!-- Node18&#45;&gt;Node19 -->
<g id="edge20" class="edge"><title>Node18&#45;&gt;Node19</title>
<path fill="none" stroke="midnightblue" d="M241.144,-256.196C262.179,-260.94 286.698,-266.469 307.983,-271.269"/>
<polygon fill="midnightblue" stroke="midnightblue" points="307.302,-274.703 317.827,-273.489 308.842,-267.875 307.302,-274.703"/>
</g>
<!-- Node20 -->
<g id="node20" class="node"><title>Node20</title>
<g id="a_node20"><a xlink:href="classmodule__bl__ysu.html#a5e5cd7f0607bbf2b77ccbdaf3d8e02cf" target="_top" xlink:title="module_bl_ysu::ysuinit">
<polygon fill="white" stroke="black" points="303,-235.5 303,-254.5 419,-254.5 419,-235.5 303,-235.5"/>
<text text-anchor="middle" x="361" y="-242.5" font-family="Helvetica,sans-Serif" font-size="10.00">module_bl_ysu::ysuinit</text>
</a>
</g>
</g>
<!-- Node18&#45;&gt;Node20 -->
<g id="edge21" class="edge"><title>Node18&#45;&gt;Node20</title>
<path fill="none" stroke="midnightblue" d="M241.144,-245C257.142,-245 275.155,-245 292.228,-245"/>
<polygon fill="midnightblue" stroke="midnightblue" points="292.711,-248.5 302.711,-245 292.711,-241.5 292.711,-248.5"/>
</g>
<!-- Node22 -->
<g id="node22" class="node"><title>Node22</title>
<g id="a_node22"><a xlink:href="classmodule__ra__simple.html#abb164c3a377c5beb3eb0fcd49a44a681" target="_top" xlink:title="module_ra_simple::ra\l_simple_init">
<polygon fill="white" stroke="black" points="306,-186 306,-216 416,-216 416,-186 306,-186"/>
<text text-anchor="start" x="314" y="-204" font-family="Helvetica,sans-Serif" font-size="10.00">module_ra_simple::ra</text>
<text text-anchor="middle" x="361" y="-193" font-family="Helvetica,sans-Serif" font-size="10.00">_simple_init</text>
</a>
</g>
</g>
<!-- Node21&#45;&gt;Node22 -->
<g id="edge23" class="edge"><title>Node21&#45;&gt;Node22</title>
<path fill="none" stroke="midnightblue" d="M247.608,-201C263.001,-201 279.809,-201 295.626,-201"/>
<polygon fill="midnightblue" stroke="midnightblue" points="295.852,-204.5 305.852,-201 295.852,-197.5 295.852,-204.5"/>
</g>
<!-- Node24 -->
<g id="node24" class="node"><title>Node24</title>
<g id="a_node24"><a xlink:href="classmodule__lsm__simple.html#a8dd721614e8dd253eb84b1d4f8628be3" target="_top" xlink:title="module_lsm_simple::\llsm_simple_init">
<polygon fill="white" stroke="black" points="306.5,-137 306.5,-167 415.5,-167 415.5,-137 306.5,-137"/>
<text text-anchor="start" x="314.5" y="-155" font-family="Helvetica,sans-Serif" font-size="10.00">module_lsm_simple::</text>
<text text-anchor="middle" x="361" y="-144" font-family="Helvetica,sans-Serif" font-size="10.00">lsm_simple_init</text>
</a>
</g>
</g>
<!-- Node23&#45;&gt;Node24 -->
<g id="edge25" class="edge"><title>Node23&#45;&gt;Node24</title>
<path fill="none" stroke="midnightblue" d="M246.673,-135.858C262.57,-138.123 280.041,-140.611 296.404,-142.942"/>
<polygon fill="midnightblue" stroke="midnightblue" points="296.031,-146.424 306.425,-144.369 297.019,-139.494 296.031,-146.424"/>
</g>
<!-- Node25 -->
<g id="node25" class="node"><title>Node25</title>
<g id="a_node25"><a xlink:href="classland__surface.html#a91478f83b5063f03b97e560543bcae28" target="_top" xlink:title="land_surface::allocate\l_noah_data">
<polygon fill="white" stroke="black" points="305,-88 305,-118 417,-118 417,-88 305,-88"/>
<text text-anchor="start" x="313" y="-106" font-family="Helvetica,sans-Serif" font-size="10.00">land_surface::allocate</text>
<text text-anchor="middle" x="361" y="-95" font-family="Helvetica,sans-Serif" font-size="10.00">_noah_data</text>
</a>
</g>
</g>
<!-- Node23&#45;&gt;Node25 -->
<g id="edge26" class="edge"><title>Node23&#45;&gt;Node25</title>
<path fill="none" stroke="midnightblue" d="M246.673,-119.814C262.026,-117.536 278.848,-115.04 294.721,-112.685"/>
<polygon fill="midnightblue" stroke="midnightblue" points="295.613,-116.091 304.991,-111.162 294.585,-109.167 295.613,-116.091"/>
</g>
<!-- Node26 -->
<g id="node26" class="node"><title>Node26</title>
<g id="a_node26"><a xlink:href="classmodule__sf__noahdrv.html#a198d0ba5f79e7b049e5b685d2972fb32" target="_top" xlink:title="module_sf_noahdrv::\llsm_noah_init">
<polygon fill="white" stroke="black" points="307.5,-39 307.5,-69 414.5,-69 414.5,-39 307.5,-39"/>
<text text-anchor="start" x="315.5" y="-57" font-family="Helvetica,sans-Serif" font-size="10.00">module_sf_noahdrv::</text>
<text text-anchor="middle" x="361" y="-46" font-family="Helvetica,sans-Serif" font-size="10.00">lsm_noah_init</text>
</a>
</g>
</g>
<!-- Node23&#45;&gt;Node26 -->
<g id="edge27" class="edge"><title>Node23&#45;&gt;Node26</title>
<path fill="none" stroke="midnightblue" d="M209.747,-118.375C230.039,-107.844 263.926,-90.7613 294,-78 298.153,-76.2378 302.484,-74.4837 306.855,-72.7721"/>
<polygon fill="midnightblue" stroke="midnightblue" points="308.346,-75.9492 316.434,-69.1064 305.844,-69.4116 308.346,-75.9492"/>
</g>
<!-- Node27 -->
<g id="node27" class="node"><title>Node27</title>
<g id="a_node27"><a xlink:href="classmodule__sf__noahdrv.html#aeb286b1a6b9c0691f65581432dbf283f" target="_top" xlink:title="module_sf_noahdrv::\lsoil_veg_gen_parm">
<polygon fill="white" stroke="black" points="468,-64 468,-94 575,-94 575,-64 468,-64"/>
<text text-anchor="start" x="476" y="-82" font-family="Helvetica,sans-Serif" font-size="10.00">module_sf_noahdrv::</text>
<text text-anchor="middle" x="521.5" y="-71" font-family="Helvetica,sans-Serif" font-size="10.00">soil_veg_gen_parm</text>
</a>
</g>
</g>
<!-- Node26&#45;&gt;Node27 -->
<g id="edge28" class="edge"><title>Node26&#45;&gt;Node27</title>
<path fill="none" stroke="midnightblue" d="M414.778,-62.3246C428.547,-64.4963 443.519,-66.858 457.75,-69.1025"/>
<polygon fill="midnightblue" stroke="midnightblue" points="457.529,-72.6109 467.952,-70.7117 458.62,-65.6963 457.529,-72.6109"/>
</g>
<!-- Node28 -->
<g id="node28" class="node"><title>Node28</title>
<g id="a_node28"><a xlink:href="classmodule__sf__noahlsm.html#a5beb42f74e1a357ccfc0e904f356b33a" target="_top" xlink:title="module_sf_noahlsm::\lfrh2o">
<polygon fill="white" stroke="black" points="466.5,-15 466.5,-45 576.5,-45 576.5,-15 466.5,-15"/>
<text text-anchor="start" x="474.5" y="-33" font-family="Helvetica,sans-Serif" font-size="10.00">module_sf_noahlsm::</text>
<text text-anchor="middle" x="521.5" y="-22" font-family="Helvetica,sans-Serif" font-size="10.00">frh2o</text>
</a>
</g>
</g>
<!-- Node26&#45;&gt;Node28 -->
<g id="edge29" class="edge"><title>Node26&#45;&gt;Node28</title>
<path fill="none" stroke="midnightblue" d="M414.778,-46.0083C428.112,-43.9894 442.575,-41.7994 456.399,-39.7061"/>
<polygon fill="midnightblue" stroke="midnightblue" points="456.964,-43.1606 466.327,-38.2028 455.916,-36.2395 456.964,-43.1606"/>
</g>
<!-- Node30 -->
<g id="node30" class="node"><title>Node30</title>
<g id="a_node30"><a xlink:href="classadv__mpdata.html#ae7f3e6c9a2371ef13f7ed661aaed2ef3" target="_top" xlink:title="adv_mpdata::mpdata_init">
<polygon fill="white" stroke="black" points="298,-0.5 298,-19.5 424,-19.5 424,-0.5 298,-0.5"/>
<text text-anchor="middle" x="361" y="-7.5" font-family="Helvetica,sans-Serif" font-size="10.00">adv_mpdata::mpdata_init</text>
</a>
</g>
</g>
<!-- Node29&#45;&gt;Node30 -->
<g id="edge31" class="edge"><title>Node29&#45;&gt;Node30</title>
<path fill="none" stroke="midnightblue" d="M239.785,-29.9763C256.207,-27.2475 274.872,-24.1459 292.515,-21.214"/>
<polygon fill="midnightblue" stroke="midnightblue" points="293.47,-24.6035 302.761,-19.5116 292.322,-17.6982 293.47,-24.6035"/>
</g>
</g>
</svg>
        <g id="navigator" transform="translate(0 0)" fill="#404254">
                <rect fill="#f2f5e9" fill-opacity="0.5" stroke="#606060" stroke-width=".5" x="0" y="0" width="60" height="60"/>
                <use id="zoomplus" xlink:href="#zoomPlus" x="17" y="9" onmousedown="handleZoom(evt,'in')"/>
                <use id="zoomminus" xlink:href="#zoomMin" x="42" y="9" onmousedown="handleZoom(evt,'out')"/>
                <use id="reset" xlink:href="#resetDef" x="30" y="36" onmousedown="handleReset()"/>
                <g id="arrowUp" xlink:href="#dirArrow" transform="translate(30 24)" onmousedown="handlePan(0,-1)">
                  <use xlink:href="#rim" fill="#404040">
                        <set attributeName="fill" to="#808080" begin="arrowUp.mouseover" end="arrowUp.mouseout"/>
                  </use>
                  <path fill="none" stroke="white" stroke-width="1.5" d="M0,-3.0v7 M-2.5,-0.5L0,-3.0L2.5,-0.5"/>
                </g>
                <g id="arrowRight" xlink:href="#dirArrow" transform="rotate(90) translate(36 -43)" onmousedown="handlePan(1,0)">
                  <use xlink:href="#rim" fill="#404040">
                        <set attributeName="fill" to="#808080" begin="arrowRight.mouseover" end="arrowRight.mouseout"/>
                  </use>
                  <path fill="none" stroke="white" stroke-width="1.5" d="M0,-3.0v7 M-2.5,-0.5L0,-3.0L2.5,-0.5"/>
                </g>
                <g id="arrowDown" xlink:href="#dirArrow" transform="rotate(180) translate(-30 -48)" onmousedown="handlePan(0,1)">
                  <use xlink:href="#rim" fill="#404040">
                        <set attributeName="fill" to="#808080" begin="arrowDown.mouseover" end="arrowDown.mouseout"/>
                  </use>
                  <path fill="none" stroke="white" stroke-width="1.5" d="M0,-3.0v7 M-2.5,-0.5L0,-3.0L2.5,-0.5"/>
                </g>
                <g id="arrowLeft" xlink:href="#dirArrow" transform="rotate(270) translate(-36 17)" onmousedown="handlePan(-1,0)">
                  <use xlink:href="#rim" fill="#404040">
                        <set attributeName="fill" to="#808080" begin="arrowLeft.mouseover" end="arrowLeft.mouseout"/>
                  </use>
                  <path fill="none" stroke="white" stroke-width="1.5" d="M0,-3.0v7 M-2.5,-0.5L0,-3.0L2.5,-0.5"/>
                </g>
        </g>
        <svg viewBox="0 0 15 15" width="100%" height="30px" preserveAspectRatio="xMaxYMin meet">
         <g id="arrow_out" transform="scale(0.3 0.3)">
          <a xlink:href="classinit_ad066397f42956c6e9d50884a2e84d4e4_cgraph_org.svg" target="_base">
           <rect id="button" ry="5" rx="5" y="6" x="6" height="38" width="38"
                fill="#f2f5e9" fill-opacity="0.5" stroke="#606060" stroke-width="1.0"/>
           <path id="arrow"
             d="M 11.500037,31.436501 C 11.940474,20.09759 22.043105,11.32322 32.158766,21.979434 L 37.068811,17.246167 C 37.068811,17.246167 37.088388,32 37.088388,32 L 22.160133,31.978069 C 22.160133,31.978069 26.997745,27.140456 26.997745,27.140456 C 18.528582,18.264221 13.291696,25.230495 11.500037,31.436501 z"
             style="fill:#404040;"/>
          </a>
         </g>
        </svg>
</svg>
