<?xml version="1.0" encoding="UTF-8" standalone="no"?>
<!DOCTYPE svg PUBLIC "-//W3C//DTD SVG 1.1//EN"
 "http://www.w3.org/Graphics/SVG/1.1/DTD/svg11.dtd">
<!-- Generated by graphviz version 2.32.0 (20130809.1645)
 -->
<!-- Title: module_ra_simple::cloudfrac Pages: 1 -->
<svg width="1024pt" height="52pt"
 viewBox="0.00 0.00 1024.00 52.00" xmlns="http://www.w3.org/2000/svg" xmlns:xlink="http://www.w3.org/1999/xlink">
<g id="graph0" class="graph" transform="scale(1 1) rotate(0) translate(4 48)">
<title>module_ra_simple::cloudfrac</title>
<polygon fill="white" stroke="white" points="-4,5 -4,-48 1021,-48 1021,5 -4,5"/>
<!-- Node1 -->
<g id="node1" class="node"><title>Node1</title>
<polygon fill="#bfbfbf" stroke="black" points="0.5,-19.5 0.5,-38.5 141.5,-38.5 141.5,-19.5 0.5,-19.5"/>
<text text-anchor="middle" x="71" y="-26.5" font-family="Helvetica,sans-Serif" font-size="10.00">module_ra_simple::cloudfrac</text>
</g>
<!-- Node2 -->
<g id="node2" class="node"><title>Node2</title>
<g id="a_node2"><a xlink:href="classmodule__ra__simple.html#ad1c74605b2817f833d31e806f791e246" target="_top" xlink:title="module_ra_simple::ra\l_simple">
<polygon fill="white" stroke="black" points="178,-14 178,-44 288,-44 288,-14 178,-14"/>
<text text-anchor="start" x="186" y="-32" font-family="Helvetica,sans-Serif" font-size="10.00">module_ra_simple::ra</text>
<text text-anchor="middle" x="233" y="-21" font-family="Helvetica,sans-Serif" font-size="10.00">_simple</text>
</a>
</g>
</g>
<!-- Node1&#45;&gt;Node2 -->
<g id="edge1" class="edge"><title>Node1&#45;&gt;Node2</title>
<path fill="none" stroke="midnightblue" d="M151.995,-29C160.776,-29 169.557,-29 177.915,-29"/>
<polygon fill="midnightblue" stroke="midnightblue" points="151.713,-25.5001 141.713,-29 151.713,-32.5001 151.713,-25.5001"/>
</g>
<!-- Node3 -->
<g id="node3" class="node"><title>Node3</title>
<g id="a_node3"><a xlink:href="classradiation.html#aba1a06d27af96fe11d576458c8ccfe77" target="_top" xlink:title="radiation::rad">
<polygon fill="white" stroke="black" points="324.5,-19.5 324.5,-38.5 397.5,-38.5 397.5,-19.5 324.5,-19.5"/>
<text text-anchor="middle" x="361" y="-26.5" font-family="Helvetica,sans-Serif" font-size="10.00">radiation::rad</text>
</a>
</g>
</g>
<!-- Node2&#45;&gt;Node3 -->
<g id="edge2" class="edge"><title>Node2&#45;&gt;Node3</title>
<path fill="none" stroke="midnightblue" d="M298.297,-29C307.292,-29 316.251,-29 324.441,-29"/>
<polygon fill="midnightblue" stroke="midnightblue" points="298.167,-25.5001 288.167,-29 298.167,-32.5001 298.167,-25.5001"/>
</g>
<!-- Node4 -->
<g id="node4" class="node"><title>Node4</title>
<g id="a_node4"><a xlink:href="classtime__step.html#a2c022f11247af72e607b1493289aa974" target="_top" xlink:title=" Step forward one IO time step. ">
<polygon fill="white" stroke="black" points="864,-19.5 864,-38.5 948,-38.5 948,-19.5 864,-19.5"/>
<text text-anchor="middle" x="906" y="-26.5" font-family="Helvetica,sans-Serif" font-size="10.00">time_step::step</text>
</a>
</g>
</g>
<!-- Node3&#45;&gt;Node4 -->
<g id="edge3" class="edge"><title>Node3&#45;&gt;Node4</title>
<path fill="none" stroke="midnightblue" d="M407.802,-29C511.772,-29 764.289,-29 863.755,-29"/>
<polygon fill="midnightblue" stroke="midnightblue" points="407.628,-25.5001 397.628,-29 407.628,-32.5001 407.628,-25.5001"/>
</g>
<!-- Node6 -->
<g id="node6" class="node"><title>Node6</title>
<g id="a_node6"><a xlink:href="classmodule__cu__kf.html#afbc0670c02010c630409b1796e89a3fb" target="_top" xlink:title="module_cu_kf::kfpara">
<polygon fill="white" stroke="black" points="434,-0.5 434,-19.5 544,-19.5 544,-0.5 434,-0.5"/>
<text text-anchor="middle" x="489" y="-7.5" font-family="Helvetica,sans-Serif" font-size="10.00">module_cu_kf::kfpara</text>
</a>
</g>
</g>
<!-- Node3&#45;&gt;Node6 -->
<g id="edge5" class="edge"><title>Node3&#45;&gt;Node6</title>
<path fill="none" stroke="midnightblue" d="M407.797,-22.094C416.237,-20.8214 425.122,-19.4816 433.782,-18.1757"/>
<polygon fill="midnightblue" stroke="midnightblue" points="407.136,-18.6541 397.77,-23.6062 408.18,-25.5759 407.136,-18.6541"/>
</g>
<!-- Node5 -->
<g id="node5" class="node"><title>Node5</title>
<g id="a_node5"><a xlink:href="driver_8f90.html#ab1e5a5816a57fc6e95d9563c2bb53590" target="_top" xlink:title=" Main Program ">
<polygon fill="white" stroke="black" points="984,-19.5 984,-38.5 1016,-38.5 1016,-19.5 984,-19.5"/>
<text text-anchor="middle" x="1000" y="-26.5" font-family="Helvetica,sans-Serif" font-size="10.00">icar</text>
</a>
</g>
</g>
<!-- Node4&#45;&gt;Node5 -->
<g id="edge4" class="edge"><title>Node4&#45;&gt;Node5</title>
<path fill="none" stroke="midnightblue" d="M958.253,-29C967.521,-29 976.5,-29 983.66,-29"/>
<polygon fill="midnightblue" stroke="midnightblue" points="958.156,-25.5001 948.156,-29 958.156,-32.5001 958.156,-25.5001"/>
</g>
<!-- Node7 -->
<g id="node7" class="node"><title>Node7</title>
<g id="a_node7"><a xlink:href="classmodule__cu__kf.html#a273d9ce9bce064bfc092d6940bea4e27" target="_top" xlink:title="module_cu_kf::kfcps">
<polygon fill="white" stroke="black" points="580.5,-0.5 580.5,-19.5 687.5,-19.5 687.5,-0.5 580.5,-0.5"/>
<text text-anchor="middle" x="634" y="-7.5" font-family="Helvetica,sans-Serif" font-size="10.00">module_cu_kf::kfcps</text>
</a>
</g>
</g>
<!-- Node6&#45;&gt;Node7 -->
<g id="edge6" class="edge"><title>Node6&#45;&gt;Node7</title>
<path fill="none" stroke="midnightblue" d="M554.203,-10C562.925,-10 571.794,-10 580.282,-10"/>
<polygon fill="midnightblue" stroke="midnightblue" points="554.062,-6.5001 544.062,-10 554.062,-13.5001 554.062,-6.5001"/>
</g>
<!-- Node8 -->
<g id="node8" class="node"><title>Node8</title>
<g id="a_node8"><a xlink:href="classconvection.html#a06b811540eb747b3734e7fb35de41782" target="_top" xlink:title="convection::convect">
<polygon fill="white" stroke="black" points="724,-0.5 724,-19.5 828,-19.5 828,-0.5 724,-0.5"/>
<text text-anchor="middle" x="776" y="-7.5" font-family="Helvetica,sans-Serif" font-size="10.00">convection::convect</text>
</a>
</g>
</g>
<!-- Node7&#45;&gt;Node8 -->
<g id="edge7" class="edge"><title>Node7&#45;&gt;Node8</title>
<path fill="none" stroke="midnightblue" d="M697.615,-10C706.295,-10 715.127,-10 723.571,-10"/>
<polygon fill="midnightblue" stroke="midnightblue" points="697.529,-6.5001 687.529,-10 697.529,-13.5001 697.529,-6.5001"/>
</g>
<!-- Node8&#45;&gt;Node4 -->
<g id="edge8" class="edge"><title>Node8&#45;&gt;Node4</title>
<path fill="none" stroke="midnightblue" d="M838.406,-19.115C847.051,-20.3982 855.759,-21.6907 863.897,-22.8988"/>
<polygon fill="midnightblue" stroke="midnightblue" points="838.731,-15.6249 828.325,-17.6185 837.703,-22.549 838.731,-15.6249"/>
</g>
</g>
</svg>
