<?xml version="1.0" encoding="UTF-8" standalone="no"?>
<!DOCTYPE svg PUBLIC "-//W3C//DTD SVG 1.1//EN"
 "http://www.w3.org/Graphics/SVG/1.1/DTD/svg11.dtd">
<!-- Generated by graphviz version 2.32.0 (20130809.1645)
 -->
<!-- Title: adv_mpdata::upwind_advection Pages: 1 -->
<svg width="730pt" height="66pt"
 viewBox="0.00 0.00 730.00 66.00" xmlns="http://www.w3.org/2000/svg" xmlns:xlink="http://www.w3.org/1999/xlink">
<g id="graph0" class="graph" transform="scale(1 1) rotate(0) translate(4 62)">
<title>adv_mpdata::upwind_advection</title>
<polygon fill="white" stroke="white" points="-4,5 -4,-62 727,-62 727,5 -4,5"/>
<!-- Node1 -->
<g id="node1" class="node"><title>Node1</title>
<polygon fill="#bfbfbf" stroke="black" points="0.5,-14 0.5,-44 107.5,-44 107.5,-14 0.5,-14"/>
<text text-anchor="start" x="8.5" y="-32" font-family="Helvetica,sans-Serif" font-size="10.00">adv_mpdata::upwind</text>
<text text-anchor="middle" x="54" y="-21" font-family="Helvetica,sans-Serif" font-size="10.00">_advection</text>
</g>
<!-- Node2 -->
<g id="node2" class="node"><title>Node2</title>
<g id="a_node2"><a xlink:href="classadv__mpdata.html#a3f8f14aa56b629a78a5935b1a130e4c2" target="_top" xlink:title="adv_mpdata::advect3d">
<polygon fill="white" stroke="black" points="144,-19.5 144,-38.5 260,-38.5 260,-19.5 144,-19.5"/>
<text text-anchor="middle" x="202" y="-26.5" font-family="Helvetica,sans-Serif" font-size="10.00">adv_mpdata::advect3d</text>
</a>
</g>
</g>
<!-- Node1&#45;&gt;Node2 -->
<g id="edge1" class="edge"><title>Node1&#45;&gt;Node2</title>
<path fill="none" stroke="midnightblue" d="M117.784,-29C126.469,-29 135.351,-29 143.925,-29"/>
<polygon fill="midnightblue" stroke="midnightblue" points="117.709,-25.5001 107.709,-29 117.709,-32.5001 117.709,-25.5001"/>
</g>
<!-- Node3 -->
<g id="node3" class="node"><title>Node3</title>
<g id="a_node3"><a xlink:href="classadv__mpdata.html#ab7491af9ff38f8d903ae2d4ddabc410d" target="_top" xlink:title="adv_mpdata::mpdata">
<polygon fill="white" stroke="black" points="296,-38.5 296,-57.5 404,-57.5 404,-38.5 296,-38.5"/>
<text text-anchor="middle" x="350" y="-45.5" font-family="Helvetica,sans-Serif" font-size="10.00">adv_mpdata::mpdata</text>
</a>
</g>
</g>
<!-- Node2&#45;&gt;Node3 -->
<g id="edge2" class="edge"><title>Node2&#45;&gt;Node3</title>
<path fill="none" stroke="midnightblue" d="M270.23,-37.7492C278.769,-38.8603 287.413,-39.9852 295.692,-41.0626"/>
<polygon fill="midnightblue" stroke="midnightblue" points="270.652,-34.2746 260.284,-36.4548 269.749,-41.2161 270.652,-34.2746"/>
</g>
<!-- Node7 -->
<g id="node7" class="node"><title>Node7</title>
<g id="a_node7"><a xlink:href="classadv__upwind.html#a3a006d2b2d9ebc4dbd83152ff5a0f35b" target="_top" xlink:title="adv_upwind::upwind">
<polygon fill="white" stroke="black" points="297.5,-0.5 297.5,-19.5 402.5,-19.5 402.5,-0.5 297.5,-0.5"/>
<text text-anchor="middle" x="350" y="-7.5" font-family="Helvetica,sans-Serif" font-size="10.00">adv_upwind::upwind</text>
</a>
</g>
</g>
<!-- Node2&#45;&gt;Node7 -->
<g id="edge6" class="edge"><title>Node2&#45;&gt;Node7</title>
<path fill="none" stroke="midnightblue" d="M270.352,-20.235C279.339,-19.0654 288.441,-17.881 297.108,-16.753"/>
<polygon fill="midnightblue" stroke="midnightblue" points="269.749,-16.7839 260.284,-21.5452 270.652,-23.7254 269.749,-16.7839"/>
</g>
<!-- Node4 -->
<g id="node4" class="node"><title>Node4</title>
<g id="a_node4"><a xlink:href="classadvection.html#a27abbf643ae159c75c9c0c68b7627f31" target="_top" xlink:title="advection::advect">
<polygon fill="white" stroke="black" points="440,-19.5 440,-38.5 534,-38.5 534,-19.5 440,-19.5"/>
<text text-anchor="middle" x="487" y="-26.5" font-family="Helvetica,sans-Serif" font-size="10.00">advection::advect</text>
</a>
</g>
</g>
<!-- Node3&#45;&gt;Node4 -->
<g id="edge3" class="edge"><title>Node3&#45;&gt;Node4</title>
<path fill="none" stroke="midnightblue" d="M414.288,-39.0929C422.811,-37.8932 431.425,-36.6809 439.582,-35.5329"/>
<polygon fill="midnightblue" stroke="midnightblue" points="413.77,-35.6311 404.356,-40.4907 414.746,-42.5628 413.77,-35.6311"/>
</g>
<!-- Node5 -->
<g id="node5" class="node"><title>Node5</title>
<g id="a_node5"><a xlink:href="classtime__step.html#a2c022f11247af72e607b1493289aa974" target="_top" xlink:title=" Step forward one IO time step. ">
<polygon fill="white" stroke="black" points="570,-19.5 570,-38.5 654,-38.5 654,-19.5 570,-19.5"/>
<text text-anchor="middle" x="612" y="-26.5" font-family="Helvetica,sans-Serif" font-size="10.00">time_step::step</text>
</a>
</g>
</g>
<!-- Node4&#45;&gt;Node5 -->
<g id="edge4" class="edge"><title>Node4&#45;&gt;Node5</title>
<path fill="none" stroke="midnightblue" d="M544.191,-29C552.834,-29 561.618,-29 569.853,-29"/>
<polygon fill="midnightblue" stroke="midnightblue" points="544.151,-25.5001 534.151,-29 544.151,-32.5001 544.151,-25.5001"/>
</g>
<!-- Node6 -->
<g id="node6" class="node"><title>Node6</title>
<g id="a_node6"><a xlink:href="driver_8f90.html#ab1e5a5816a57fc6e95d9563c2bb53590" target="_top" xlink:title=" Main Program ">
<polygon fill="white" stroke="black" points="690,-19.5 690,-38.5 722,-38.5 722,-19.5 690,-19.5"/>
<text text-anchor="middle" x="706" y="-26.5" font-family="Helvetica,sans-Serif" font-size="10.00">icar</text>
</a>
</g>
</g>
<!-- Node5&#45;&gt;Node6 -->
<g id="edge5" class="edge"><title>Node5&#45;&gt;Node6</title>
<path fill="none" stroke="midnightblue" d="M664.253,-29C673.521,-29 682.5,-29 689.66,-29"/>
<polygon fill="midnightblue" stroke="midnightblue" points="664.156,-25.5001 654.156,-29 664.156,-32.5001 664.156,-25.5001"/>
</g>
<!-- Node7&#45;&gt;Node4 -->
<g id="edge7" class="edge"><title>Node7&#45;&gt;Node4</title>
<path fill="none" stroke="midnightblue" d="M412.939,-18.7173C421.993,-19.9917 431.182,-21.2849 439.847,-22.5045"/>
<polygon fill="midnightblue" stroke="midnightblue" points="413.199,-15.2195 402.808,-17.2916 412.223,-22.1512 413.199,-15.2195"/>
</g>
</g>
</svg>
