<?xml version="1.0" encoding="UTF-8" standalone="no"?>
<!DOCTYPE svg PUBLIC "-//W3C//DTD SVG 1.1//EN"
 "http://www.w3.org/Graphics/SVG/1.1/DTD/svg11.dtd">
<!-- Generated by graphviz version 2.38.0 (20140413.2041)
 -->
<!-- Title: pbl_simple::pbl_diffusion Pages: 1 -->
<svg width="609pt" height="39pt"
 viewBox="0.00 0.00 609.00 39.00" xmlns="http://www.w3.org/2000/svg" xmlns:xlink="http://www.w3.org/1999/xlink">
<g id="graph0" class="graph" transform="scale(1 1) rotate(0) translate(4 35)">
<title>pbl_simple::pbl_diffusion</title>
<polygon fill="white" stroke="none" points="-4,4 -4,-35 605,-35 605,4 -4,4"/>
<!-- Node1 -->
<g id="node1" class="node"><title>Node1</title>
<polygon fill="#bfbfbf" stroke="black" points="0,-6 0,-25 124,-25 124,-6 0,-6"/>
<text text-anchor="middle" x="62" y="-13" font-family="Helvetica,sans-Serif" font-size="10.00">pbl_simple::pbl_diffusion</text>
</g>
<!-- Node2 -->
<g id="node2" class="node"><title>Node2</title>
<g id="a_node2"><a xlink:href="classpbl__simple.html#a0c4a8ea58856a89e2ea7c5026ac60a08" target="_top" xlink:title="pbl_simple::simple_pbl">
<polygon fill="white" stroke="black" points="160,-6 160,-25 276,-25 276,-6 160,-6"/>
<text text-anchor="middle" x="218" y="-13" font-family="Helvetica,sans-Serif" font-size="10.00">pbl_simple::simple_pbl</text>
</a>
</g>
</g>
<!-- Node1&#45;&gt;Node2 -->
<g id="edge1" class="edge"><title>Node1&#45;&gt;Node2</title>
<path fill="none" stroke="midnightblue" d="M134.31,-15.5C142.891,-15.5 151.565,-15.5 159.906,-15.5"/>
<polygon fill="midnightblue" stroke="midnightblue" points="134.307,-12.0001 124.307,-15.5 134.307,-19.0001 134.307,-12.0001"/>
</g>
<!-- Node3 -->
<g id="node3" class="node"><title>Node3</title>
<g id="a_node3"><a xlink:href="classplanetary__boundary__layer.html#ac1da4433b1830b1d11a543b893a97c50" target="_top" xlink:title="planetary_boundary\l_layer::pbl">
<polygon fill="white" stroke="black" points="312,-0.5 312,-30.5 413,-30.5 413,-0.5 312,-0.5"/>
<text text-anchor="start" x="320" y="-18.5" font-family="Helvetica,sans-Serif" font-size="10.00">planetary_boundary</text>
<text text-anchor="middle" x="362.5" y="-7.5" font-family="Helvetica,sans-Serif" font-size="10.00">_layer::pbl</text>
</a>
</g>
</g>
<!-- Node2&#45;&gt;Node3 -->
<g id="edge2" class="edge"><title>Node2&#45;&gt;Node3</title>
<path fill="none" stroke="midnightblue" d="M286.166,-15.5C294.765,-15.5 303.443,-15.5 311.698,-15.5"/>
<polygon fill="midnightblue" stroke="midnightblue" points="286.139,-12.0001 276.139,-15.5 286.139,-19.0001 286.139,-12.0001"/>
</g>
<!-- Node4 -->
<g id="node4" class="node"><title>Node4</title>
<g id="a_node4"><a xlink:href="classtime__step.html#a2c022f11247af72e607b1493289aa974" target="_top" xlink:title=" Step forward one IO time step. ">
<polygon fill="white" stroke="black" points="449,-6 449,-25 533,-25 533,-6 449,-6"/>
<text text-anchor="middle" x="491" y="-13" font-family="Helvetica,sans-Serif" font-size="10.00">time_step::step</text>
</a>
</g>
</g>
<!-- Node3&#45;&gt;Node4 -->
<g id="edge3" class="edge"><title>Node3&#45;&gt;Node4</title>
<path fill="none" stroke="midnightblue" d="M423.18,-15.5C431.805,-15.5 440.52,-15.5 448.679,-15.5"/>
<polygon fill="midnightblue" stroke="midnightblue" points="423.133,-12.0001 413.133,-15.5 423.133,-19.0001 423.133,-12.0001"/>
</g>
<!-- Node5 -->
<g id="node5" class="node"><title>Node5</title>
<g id="a_node5"><a xlink:href="driver_8f90.html#ab1e5a5816a57fc6e95d9563c2bb53590" target="_top" xlink:title=" Main Program ">
<polygon fill="white" stroke="black" points="569,-6 569,-25 601,-25 601,-6 569,-6"/>
<text text-anchor="middle" x="585" y="-13" font-family="Helvetica,sans-Serif" font-size="10.00">icar</text>
</a>
</g>
</g>
<!-- Node4&#45;&gt;Node5 -->
<g id="edge4" class="edge"><title>Node4&#45;&gt;Node5</title>
<path fill="none" stroke="midnightblue" d="M543.253,-15.5C552.521,-15.5 561.5,-15.5 568.66,-15.5"/>
<polygon fill="midnightblue" stroke="midnightblue" points="543.156,-12.0001 533.156,-15.5 543.156,-19.0001 543.156,-12.0001"/>
</g>
</g>
</svg>
