<?xml version="1.0" encoding="UTF-8" standalone="no"?>
<!DOCTYPE svg PUBLIC "-//W3C//DTD SVG 1.1//EN"
 "http://www.w3.org/Graphics/SVG/1.1/DTD/svg11.dtd">
<!-- Generated by graphviz version 2.38.0 (20140413.2041)
 -->
<!-- Title: model_tracking::print_model_diffs Pages: 1 -->
<svg width="252pt" height="39pt"
 viewBox="0.00 0.00 252.00 39.00" xmlns="http://www.w3.org/2000/svg" xmlns:xlink="http://www.w3.org/1999/xlink">
<g id="graph0" class="graph" transform="scale(1 1) rotate(0) translate(4 35)">
<title>model_tracking::print_model_diffs</title>
<polygon fill="white" stroke="none" points="-4,4 -4,-35 248,-35 248,4 -4,4"/>
<!-- Node1 -->
<g id="node1" class="node"><title>Node1</title>
<polygon fill="#bfbfbf" stroke="black" points="0,-0.5 0,-30.5 107,-30.5 107,-0.5 0,-0.5"/>
<text text-anchor="start" x="8" y="-18.5" font-family="Helvetica,sans-Serif" font-size="10.00">model_tracking::print</text>
<text text-anchor="middle" x="53.5" y="-7.5" font-family="Helvetica,sans-Serif" font-size="10.00">_model_diffs</text>
</g>
<!-- Node2 -->
<g id="node2" class="node"><title>Node2</title>
<g id="a_node2"><a xlink:href="classmodel__tracking.html#a417ef049855367c1fb14cadf2203536f" target="_top" xlink:title="model_tracking::init\l_model_diffs">
<polygon fill="white" stroke="black" points="143,-0.5 143,-30.5 244,-30.5 244,-0.5 143,-0.5"/>
<text text-anchor="start" x="151" y="-18.5" font-family="Helvetica,sans-Serif" font-size="10.00">model_tracking::init</text>
<text text-anchor="middle" x="193.5" y="-7.5" font-family="Helvetica,sans-Serif" font-size="10.00">_model_diffs</text>
</a>
</g>
</g>
<!-- Node1&#45;&gt;Node2 -->
<g id="edge1" class="edge"><title>Node1&#45;&gt;Node2</title>
<path fill="none" stroke="midnightblue" d="M107.066,-15.5C115.405,-15.5 124.084,-15.5 132.577,-15.5"/>
<polygon fill="midnightblue" stroke="midnightblue" points="132.808,-19.0001 142.808,-15.5 132.808,-12.0001 132.808,-19.0001"/>
</g>
</g>
</svg>
