<?xml version="1.0" encoding="UTF-8" standalone="no"?>
<!DOCTYPE svg PUBLIC "-//W3C//DTD SVG 1.1//EN"
 "http://www.w3.org/Graphics/SVG/1.1/DTD/svg11.dtd">
<!-- Generated by graphviz version 2.38.0 (20140413.2041)
 -->
<!-- Title: linear_theory_lut_disk_io::write_var_6d Pages: 1 -->
<svg width="398pt" height="103pt"
 viewBox="0.00 0.00 398.00 102.75" xmlns="http://www.w3.org/2000/svg" xmlns:xlink="http://www.w3.org/1999/xlink">
<g id="graph0" class="graph" transform="scale(1 1) rotate(0) translate(4 98.7524)">
<title>linear_theory_lut_disk_io::write_var_6d</title>
<polygon fill="white" stroke="none" points="-4,4 -4,-98.7524 394,-98.7524 394,4 -4,4"/>
<!-- Node1 -->
<g id="node1" class="node"><title>Node1</title>
<polygon fill="#bfbfbf" stroke="black" points="0,-49.5 0,-79.5 111,-79.5 111,-49.5 0,-49.5"/>
<text text-anchor="start" x="8" y="-67.5" font-family="Helvetica,sans-Serif" font-size="10.00">linear_theory_lut_disk</text>
<text text-anchor="middle" x="55.5" y="-56.5" font-family="Helvetica,sans-Serif" font-size="10.00">_io::write_var_6d</text>
</g>
<!-- Node2 -->
<g id="node2" class="node"><title>Node2</title>
<g id="a_node2"><a xlink:href="classio__routines.html#ac4835ed66f2e10d8e5bb40f6122f0ca1" target="_top" xlink:title=" Simple error handling for common netcdf file errors ">
<polygon fill="white" stroke="black" points="294,-55 294,-74 390,-74 390,-55 294,-55"/>
<text text-anchor="middle" x="342" y="-62" font-family="Helvetica,sans-Serif" font-size="10.00">io_routines::check</text>
</a>
</g>
</g>
<!-- Node1&#45;&gt;Node2 -->
<g id="edge1" class="edge"><title>Node1&#45;&gt;Node2</title>
<path fill="none" stroke="midnightblue" d="M101.577,-79.5221C115.927,-83.6071 131.978,-87.4633 147,-89.5 195.886,-96.1281 209.194,-96.6908 258,-89.5 274.21,-87.1118 291.644,-82.2331 306.33,-77.4142"/>
<polygon fill="midnightblue" stroke="midnightblue" points="307.67,-80.6552 316.009,-74.119 305.414,-74.0287 307.67,-80.6552"/>
</g>
<!-- Node3 -->
<g id="node3" class="node"><title>Node3</title>
<g id="a_node3"><a xlink:href="classlinear__theory__lut__disk__io.html#abb38011ddeae204021d9e43bd62b3084" target="_top" xlink:title=" Setup a new dimension in a given netcdf file ">
<polygon fill="white" stroke="black" points="147,-49.5 147,-79.5 258,-79.5 258,-49.5 147,-49.5"/>
<text text-anchor="start" x="155" y="-67.5" font-family="Helvetica,sans-Serif" font-size="10.00">linear_theory_lut_disk</text>
<text text-anchor="middle" x="202.5" y="-56.5" font-family="Helvetica,sans-Serif" font-size="10.00">_io::setup_dim</text>
</a>
</g>
</g>
<!-- Node1&#45;&gt;Node3 -->
<g id="edge2" class="edge"><title>Node1&#45;&gt;Node3</title>
<path fill="none" stroke="midnightblue" d="M111.318,-64.5C119.529,-64.5 128.061,-64.5 136.459,-64.5"/>
<polygon fill="midnightblue" stroke="midnightblue" points="136.604,-68.0001 146.604,-64.5 136.604,-61.0001 136.604,-68.0001"/>
</g>
<!-- Node4 -->
<g id="node4" class="node"><title>Node4</title>
<g id="a_node4"><a xlink:href="classlinear__theory__lut__disk__io.html#a1c226f1639c088893adff763253224f1" target="_top" xlink:title=" Setup a new variable to be written ">
<polygon fill="white" stroke="black" points="147,-0.5 147,-30.5 258,-30.5 258,-0.5 147,-0.5"/>
<text text-anchor="start" x="155" y="-18.5" font-family="Helvetica,sans-Serif" font-size="10.00">linear_theory_lut_disk</text>
<text text-anchor="middle" x="202.5" y="-7.5" font-family="Helvetica,sans-Serif" font-size="10.00">_io::setup_var</text>
</a>
</g>
</g>
<!-- Node1&#45;&gt;Node4 -->
<g id="edge4" class="edge"><title>Node1&#45;&gt;Node4</title>
<path fill="none" stroke="midnightblue" d="M101.188,-49.3986C115.659,-44.5083 131.872,-39.0293 146.975,-33.9256"/>
<polygon fill="midnightblue" stroke="midnightblue" points="148.357,-37.1532 156.71,-30.6359 146.116,-30.5217 148.357,-37.1532"/>
</g>
<!-- Node3&#45;&gt;Node2 -->
<g id="edge3" class="edge"><title>Node3&#45;&gt;Node2</title>
<path fill="none" stroke="midnightblue" d="M258.239,-64.5C266.651,-64.5 275.356,-64.5 283.82,-64.5"/>
<polygon fill="midnightblue" stroke="midnightblue" points="283.988,-68.0001 293.988,-64.5 283.988,-61.0001 283.988,-68.0001"/>
</g>
<!-- Node4&#45;&gt;Node2 -->
<g id="edge5" class="edge"><title>Node4&#45;&gt;Node2</title>
<path fill="none" stroke="midnightblue" d="M245.876,-30.6014C264.652,-37.2922 286.52,-45.0852 304.551,-51.511"/>
<polygon fill="midnightblue" stroke="midnightblue" points="303.536,-54.8646 314.13,-54.9246 305.885,-48.2708 303.536,-54.8646"/>
</g>
</g>
</svg>
