<?xml version="1.0" encoding="UTF-8" standalone="no"?>
<!DOCTYPE svg PUBLIC "-//W3C//DTD SVG 1.1//EN"
 "http://www.w3.org/Graphics/SVG/1.1/DTD/svg11.dtd">
<!-- Generated by graphviz version 2.32.0 (20130809.1645)
 -->
<!-- Title: module_sf_noahdrv::lsm_noah_init Pages: 1 -->
<svg width="262pt" height="87pt"
 viewBox="0.00 0.00 262.00 87.00" xmlns="http://www.w3.org/2000/svg" xmlns:xlink="http://www.w3.org/1999/xlink">
<g id="graph0" class="graph" transform="scale(1 1) rotate(0) translate(4 83)">
<title>module_sf_noahdrv::lsm_noah_init</title>
<polygon fill="white" stroke="white" points="-4,5 -4,-83 259,-83 259,5 -4,5"/>
<!-- Node1 -->
<g id="node1" class="node"><title>Node1</title>
<polygon fill="#bfbfbf" stroke="black" points="0.5,-24 0.5,-54 107.5,-54 107.5,-24 0.5,-24"/>
<text text-anchor="start" x="8.5" y="-42" font-family="Helvetica,sans-Serif" font-size="10.00">module_sf_noahdrv::</text>
<text text-anchor="middle" x="54" y="-31" font-family="Helvetica,sans-Serif" font-size="10.00">lsm_noah_init</text>
</g>
<!-- Node2 -->
<g id="node2" class="node"><title>Node2</title>
<g id="a_node2"><a xlink:href="classmodule__sf__noahdrv.html#aeb286b1a6b9c0691f65581432dbf283f" target="_top" xlink:title="module_sf_noahdrv::\lsoil_veg_gen_parm">
<polygon fill="white" stroke="black" points="145.5,-49 145.5,-79 252.5,-79 252.5,-49 145.5,-49"/>
<text text-anchor="start" x="153.5" y="-67" font-family="Helvetica,sans-Serif" font-size="10.00">module_sf_noahdrv::</text>
<text text-anchor="middle" x="199" y="-56" font-family="Helvetica,sans-Serif" font-size="10.00">soil_veg_gen_parm</text>
</a>
</g>
</g>
<!-- Node1&#45;&gt;Node2 -->
<g id="edge1" class="edge"><title>Node1&#45;&gt;Node2</title>
<path fill="none" stroke="midnightblue" d="M107.842,-48.238C116.84,-49.8111 126.261,-51.4583 135.481,-53.07"/>
<polygon fill="midnightblue" stroke="midnightblue" points="134.922,-56.5254 145.376,-54.7999 136.128,-49.63 134.922,-56.5254"/>
</g>
<!-- Node3 -->
<g id="node3" class="node"><title>Node3</title>
<g id="a_node3"><a xlink:href="classmodule__sf__noahlsm.html#a5beb42f74e1a357ccfc0e904f356b33a" target="_top" xlink:title="module_sf_noahlsm::\lfrh2o">
<polygon fill="white" stroke="black" points="144,-0 144,-30 254,-30 254,-0 144,-0"/>
<text text-anchor="start" x="152" y="-18" font-family="Helvetica,sans-Serif" font-size="10.00">module_sf_noahlsm::</text>
<text text-anchor="middle" x="199" y="-7" font-family="Helvetica,sans-Serif" font-size="10.00">frh2o</text>
</a>
</g>
</g>
<!-- Node1&#45;&gt;Node3 -->
<g id="edge2" class="edge"><title>Node1&#45;&gt;Node3</title>
<path fill="none" stroke="midnightblue" d="M107.842,-30.1315C116.305,-28.7111 125.143,-27.2277 133.835,-25.7689"/>
<polygon fill="midnightblue" stroke="midnightblue" points="134.658,-29.1798 143.941,-24.0728 133.5,-22.2764 134.658,-29.1798"/>
</g>
</g>
</svg>
