<?xml version="1.0" encoding="UTF-8" standalone="no"?>
<!DOCTYPE svg PUBLIC "-//W3C//DTD SVG 1.1//EN"
 "http://www.w3.org/Graphics/SVG/1.1/DTD/svg11.dtd">
<!-- Generated by graphviz version 2.38.0 (20140413.2041)
 -->
<!-- Title: init::init_bc Pages: 1 -->
<!--zoomable 898 -->
<svg id="main" version="1.1" xmlns="http://www.w3.org/2000/svg" xmlns:xlink="http://www.w3.org/1999/xlink" xml:space="preserve" onload="init(evt)">
<style type="text/css"><![CDATA[
.edge:hover path { stroke: red; }
.edge:hover polygon { stroke: red; fill: red; }
]]></style>
<script type="text/javascript"><![CDATA[
var edges = document.getElementsByTagName('g');
if (edges && edges.length) {
  for (var i=0;i<edges.length;i++) {
    if (edges[i].id.substr(0,4)=='edge') {
      edges[i].setAttribute('class','edge');
    }
  }
}
]]></script>
        <defs>
                <circle id="rim" cx="0" cy="0" r="7"/>
                <circle id="rim2" cx="0" cy="0" r="3.5"/>
                <g id="zoomPlus">
                        <use xlink:href="#rim" fill="#404040">
                                <set attributeName="fill" to="#808080" begin="zoomplus.mouseover" end="zoomplus.mouseout"/>
                        </use>
                        <path d="M-4,0h8M0,-4v8" fill="none" stroke="white" stroke-width="1.5" pointer-events="none"/>
                </g>
                <g id="zoomMin">
                        <use xlink:href="#rim" fill="#404040">
                                <set attributeName="fill" to="#808080" begin="zoomminus.mouseover" end="zoomminus.mouseout"/>
                        </use>
                        <path d="M-4,0h8" fill="none" stroke="white" stroke-width="1.5" pointer-events="none"/>
                </g>
                <g id="dirArrow">
                        <path fill="none" stroke="white" stroke-width="1.5" d="M0,-3.0v7 M-2.5,-0.5L0,-3.0L2.5,-0.5"/>
                </g>
               <g id="resetDef">
                       <use xlink:href="#rim2" fill="#404040">
                               <set attributeName="fill" to="#808080" begin="reset.mouseover" end="reset.mouseout"/>
                       </use>
               </g>
        </defs>

<script type="text/javascript">
var viewWidth = 627;
var viewHeight = 898;
var sectionId = 'dynsection-5';
</script>
<script xlink:href="svgpan.js"/>
<svg id="graph" class="graph">
<g id="viewport">
<title>init::init_bc</title>
<polygon fill="white" stroke="none" points="-4,4 -4,-893.5 623,-893.5 623,4 -4,4"/>
<!-- Node1 -->
<g id="node1" class="node"><title>Node1</title>
<polygon fill="#bfbfbf" stroke="black" points="0,-224 0,-243 64,-243 64,-224 0,-224"/>
<text text-anchor="middle" x="32" y="-231" font-family="Helvetica,sans-Serif" font-size="10.00">init::init_bc</text>
</g>
<!-- Node2 -->
<g id="node2" class="node"><title>Node2</title>
<g id="a_node2"><a xlink:href="classinit.html#a7c8bdf3006c76dd9d3464a56db072726" target="_top" xlink:title="init::init_bc_data">
<polygon fill="white" stroke="black" points="109,-604 109,-623 197,-623 197,-604 109,-604"/>
<text text-anchor="middle" x="153" y="-611" font-family="Helvetica,sans-Serif" font-size="10.00">init::init_bc_data</text>
</a>
</g>
</g>
<!-- Node1&#45;&gt;Node2 -->
<g id="edge1" class="edge"><title>Node1&#45;&gt;Node2</title>
<path fill="none" stroke="midnightblue" d="M36.0612,-243.275C51.8768,-293.779 124.424,-525.442 145.958,-594.205"/>
<polygon fill="midnightblue" stroke="midnightblue" points="142.63,-595.292 148.959,-603.789 149.311,-593.2 142.63,-595.292"/>
</g>
<!-- Node7 -->
<g id="node7" class="node"><title>Node7</title>
<g id="a_node7"><a xlink:href="classinit.html#a2c0d47bd2656d1121f0522d0f77a0e07" target="_top" xlink:title="init::init_domain">
<polygon fill="white" stroke="black" points="110.5,-376 110.5,-395 195.5,-395 195.5,-376 110.5,-376"/>
<text text-anchor="middle" x="153" y="-383" font-family="Helvetica,sans-Serif" font-size="10.00">init::init_domain</text>
</a>
</g>
</g>
<!-- Node1&#45;&gt;Node7 -->
<g id="edge6" class="edge"><title>Node1&#45;&gt;Node7</title>
<path fill="none" stroke="midnightblue" d="M40.444,-243.008C59.9782,-267.96 112.938,-335.606 138.214,-367.892"/>
<polygon fill="midnightblue" stroke="midnightblue" points="135.638,-370.279 144.559,-375.995 141.15,-365.964 135.638,-370.279"/>
</g>
<!-- Node11 -->
<g id="node11" class="node"><title>Node11</title>
<g id="a_node11"><a xlink:href="classinit.html#a2e2a9637c6d081ac63404006b8a56c66" target="_top" xlink:title="init::copy_z">
<polygon fill="white" stroke="black" points="272.5,-224 272.5,-243 339.5,-243 339.5,-224 272.5,-224"/>
<text text-anchor="middle" x="306" y="-231" font-family="Helvetica,sans-Serif" font-size="10.00">init::copy_z</text>
</a>
</g>
</g>
<!-- Node1&#45;&gt;Node11 -->
<g id="edge37" class="edge"><title>Node1&#45;&gt;Node11</title>
<path fill="none" stroke="midnightblue" d="M64.149,-241.399C75.3707,-243.875 88.1798,-246.278 100,-247.5 146.861,-252.344 159.005,-250.806 206,-247.5 224.355,-246.209 244.483,-243.586 261.769,-240.957"/>
<polygon fill="midnightblue" stroke="midnightblue" points="262.787,-244.34 272.123,-239.33 261.701,-237.425 262.787,-244.34"/>
</g>
<!-- Node17 -->
<g id="node17" class="node"><title>Node17</title>
<g id="a_node17"><a xlink:href="classgeo.html#aa64883699f3b5a3f3b75da0b101a8a57" target="_top" xlink:title=" Compute the geographic look up table from LOw resolution grid to HIgh resolution grid ...">
<polygon fill="white" stroke="black" points="271,-832 271,-851 341,-851 341,-832 271,-832"/>
<text text-anchor="middle" x="306" y="-839" font-family="Helvetica,sans-Serif" font-size="10.00">geo::geo_lut</text>
</a>
</g>
</g>
<!-- Node1&#45;&gt;Node17 -->
<g id="edge21" class="edge"><title>Node1&#45;&gt;Node17</title>
<path fill="none" stroke="midnightblue" d="M33.3966,-243.028C36.0168,-302.643 52.2301,-624.53 100,-708.5 140.02,-778.846 170.389,-784.791 242,-822.5 247.977,-825.647 254.553,-828.354 261.133,-830.656"/>
<polygon fill="midnightblue" stroke="midnightblue" points="260.116,-834.006 270.708,-833.744 262.264,-827.343 260.116,-834.006"/>
</g>
<!-- Node23 -->
<g id="node23" class="node"><title>Node23</title>
<g id="a_node23"><a xlink:href="classinit.html#acbdc0285617ecd4acfdc2e09c615de40" target="_top" xlink:title="init::move_lut">
<polygon fill="white" stroke="black" points="115.5,-186 115.5,-205 190.5,-205 190.5,-186 115.5,-186"/>
<text text-anchor="middle" x="153" y="-193" font-family="Helvetica,sans-Serif" font-size="10.00">init::move_lut</text>
</a>
</g>
</g>
<!-- Node1&#45;&gt;Node23 -->
<g id="edge27" class="edge"><title>Node1&#45;&gt;Node23</title>
<path fill="none" stroke="midnightblue" d="M63.0287,-223.911C77.9677,-219.141 96.2227,-213.311 112.301,-208.177"/>
<polygon fill="midnightblue" stroke="midnightblue" points="113.519,-211.462 121.981,-205.086 111.39,-204.794 113.519,-211.462"/>
</g>
<!-- Node24 -->
<g id="node24" class="node"><title>Node24</title>
<g id="a_node24"><a xlink:href="classinit.html#ae1a1368cc733a75325f3527010f5119d" target="_top" xlink:title="init::destroy_lut">
<polygon fill="white" stroke="black" points="264.5,-186 264.5,-205 347.5,-205 347.5,-186 264.5,-186"/>
<text text-anchor="middle" x="306" y="-193" font-family="Helvetica,sans-Serif" font-size="10.00">init::destroy_lut</text>
</a>
</g>
</g>
<!-- Node1&#45;&gt;Node24 -->
<g id="edge40" class="edge"><title>Node1&#45;&gt;Node24</title>
<path fill="none" stroke="midnightblue" d="M64.0356,-230.848C98.7344,-227.707 156.551,-221.948 206,-214.5 221.758,-212.126 238.831,-209.038 254.289,-206.043"/>
<polygon fill="midnightblue" stroke="midnightblue" points="255.048,-209.461 264.185,-204.097 253.697,-202.592 255.048,-209.461"/>
</g>
<!-- Node25 -->
<g id="node25" class="node"><title>Node25</title>
<g id="a_node25"><a xlink:href="classinit.html#a8b5935b5b45a47c58fdd67157c16764b" target="_top" xlink:title="init::init_ext_winds">
<polygon fill="white" stroke="black" points="104,-680 104,-699 202,-699 202,-680 104,-680"/>
<text text-anchor="middle" x="153" y="-687" font-family="Helvetica,sans-Serif" font-size="10.00">init::init_ext_winds</text>
</a>
</g>
</g>
<!-- Node1&#45;&gt;Node25 -->
<g id="edge29" class="edge"><title>Node1&#45;&gt;Node25</title>
<path fill="none" stroke="midnightblue" d="M32.6747,-243.077C31.4967,-288.975 30.6823,-490.081 100,-632.5 107.642,-648.201 120.985,-662.692 132.241,-673.133"/>
<polygon fill="midnightblue" stroke="midnightblue" points="130.154,-675.961 139.957,-679.98 134.8,-670.725 130.154,-675.961"/>
</g>
<!-- Node28 -->
<g id="node28" class="node"><title>Node28</title>
<g id="a_node28"><a xlink:href="classgeo.html#acb54dc322e31524d40cc746c37b28898" target="_top" xlink:title=" Interpolate fieldout to fieldin using geolut. if boundary_only is true, call boundary_interpolate in...">
<polygon fill="white" stroke="black" points="111.5,-148 111.5,-167 194.5,-167 194.5,-148 111.5,-148"/>
<text text-anchor="middle" x="153" y="-155" font-family="Helvetica,sans-Serif" font-size="10.00">geo::geo_interp</text>
</a>
</g>
</g>
<!-- Node1&#45;&gt;Node28 -->
<g id="edge38" class="edge"><title>Node1&#45;&gt;Node28</title>
<path fill="none" stroke="midnightblue" d="M42.152,-223.82C54.3394,-211.403 77.0407,-189.879 100,-176.5 103.452,-174.489 107.153,-172.63 110.932,-170.926"/>
<polygon fill="midnightblue" stroke="midnightblue" points="112.485,-174.072 120.389,-167.016 109.81,-167.603 112.485,-174.072"/>
</g>
<!-- Node30 -->
<g id="node30" class="node"><title>Node30</title>
<g id="a_node30"><a xlink:href="classvertical__interpolation.html#af3f0f4fbb7bcbfed1f562450a7865cc9" target="_top" xlink:title="vertical_interpolation\l::vlut">
<polygon fill="white" stroke="black" points="100,-98.5 100,-128.5 206,-128.5 206,-98.5 100,-98.5"/>
<text text-anchor="start" x="108" y="-116.5" font-family="Helvetica,sans-Serif" font-size="10.00">vertical_interpolation</text>
<text text-anchor="middle" x="153" y="-105.5" font-family="Helvetica,sans-Serif" font-size="10.00">::vlut</text>
</a>
</g>
</g>
<!-- Node1&#45;&gt;Node30 -->
<g id="edge41" class="edge"><title>Node1&#45;&gt;Node30</title>
<path fill="none" stroke="midnightblue" d="M37.627,-223.933C47.0467,-205.308 70.113,-163.794 100,-138.5 101.771,-137.002 103.646,-135.57 105.594,-134.204"/>
<polygon fill="midnightblue" stroke="midnightblue" points="107.861,-136.915 114.487,-128.647 104.151,-130.979 107.861,-136.915"/>
</g>
<!-- Node33 -->
<g id="node33" class="node"><title>Node33</title>
<g id="a_node33"><a xlink:href="classinit.html#abd3d01e0027c3704064c778c8f6609d8" target="_top" xlink:title="init::swap_z">
<polygon fill="white" stroke="black" points="118.5,-60 118.5,-79 187.5,-79 187.5,-60 118.5,-60"/>
<text text-anchor="middle" x="153" y="-67" font-family="Helvetica,sans-Serif" font-size="10.00">init::swap_z</text>
</a>
</g>
</g>
<!-- Node1&#45;&gt;Node33 -->
<g id="edge44" class="edge"><title>Node1&#45;&gt;Node33</title>
<path fill="none" stroke="midnightblue" d="M34.7828,-223.87C40.0275,-198.189 57.7698,-127.381 100,-88.5 102.78,-85.9407 105.932,-83.7193 109.277,-81.7925"/>
<polygon fill="midnightblue" stroke="midnightblue" points="110.98,-84.8566 118.457,-77.3502 107.931,-78.5556 110.98,-84.8566"/>
</g>
<!-- Node34 -->
<g id="node34" class="node"><title>Node34</title>
<g id="a_node34"><a xlink:href="classvertical__interpolation.html#a2d3f85573f18ea2ab18d6dcdec6a025a" target="_top" xlink:title="vertical_interpolation\l::vinterp">
<polygon fill="white" stroke="black" points="100,-5.5 100,-35.5 206,-35.5 206,-5.5 100,-5.5"/>
<text text-anchor="start" x="108" y="-23.5" font-family="Helvetica,sans-Serif" font-size="10.00">vertical_interpolation</text>
<text text-anchor="middle" x="153" y="-12.5" font-family="Helvetica,sans-Serif" font-size="10.00">::vinterp</text>
</a>
</g>
</g>
<!-- Node1&#45;&gt;Node34 -->
<g id="edge45" class="edge"><title>Node1&#45;&gt;Node34</title>
<path fill="none" stroke="midnightblue" d="M34.2236,-223.589C38.3309,-194.026 54.052,-105.136 100,-50.5 102.755,-47.2246 105.963,-44.2281 109.41,-41.5053"/>
<polygon fill="midnightblue" stroke="midnightblue" points="111.595,-44.248 117.781,-35.6464 107.581,-38.5131 111.595,-44.248"/>
</g>
<!-- Node3 -->
<g id="node3" class="node"><title>Node3</title>
<g id="a_node3"><a xlink:href="interfaceio__routines_1_1io__read.html#a35290f3b01bd8f36bae0173749f6b870" target="_top" xlink:title=" Same as io_read3d but for 2&#45;dimensional data ">
<polygon fill="white" stroke="black" points="410.5,-585.5 410.5,-615.5 511.5,-615.5 511.5,-585.5 410.5,-585.5"/>
<text text-anchor="start" x="418.5" y="-603.5" font-family="Helvetica,sans-Serif" font-size="10.00">io_routines::io_read</text>
<text text-anchor="middle" x="461" y="-592.5" font-family="Helvetica,sans-Serif" font-size="10.00">::io_read2d</text>
</a>
</g>
</g>
<!-- Node2&#45;&gt;Node3 -->
<g id="edge2" class="edge"><title>Node2&#45;&gt;Node3</title>
<path fill="none" stroke="midnightblue" d="M164.355,-623.133C179.838,-636.806 210.579,-661.213 242,-670.5 296.556,-686.625 316.19,-688.963 370,-670.5 397.277,-661.141 422.656,-639.764 439.463,-623.078"/>
<polygon fill="midnightblue" stroke="midnightblue" points="442.082,-625.405 446.558,-615.802 437.07,-620.518 442.082,-625.405"/>
</g>
<!-- Node4 -->
<g id="node4" class="node"><title>Node4</title>
<g id="a_node4"><a xlink:href="classinit.html#a12de2a1a2b6818e778283cc79e883f88" target="_top" xlink:title=" Conver longitudes into a common format for geographic interpolation ">
<polygon fill="white" stroke="black" points="247.5,-604 247.5,-623 364.5,-623 364.5,-604 247.5,-604"/>
<text text-anchor="middle" x="306" y="-611" font-family="Helvetica,sans-Serif" font-size="10.00">init::convert_longitudes</text>
</a>
</g>
</g>
<!-- Node2&#45;&gt;Node4 -->
<g id="edge3" class="edge"><title>Node2&#45;&gt;Node4</title>
<path fill="none" stroke="midnightblue" d="M197.271,-613.5C209.702,-613.5 223.568,-613.5 237.104,-613.5"/>
<polygon fill="midnightblue" stroke="midnightblue" points="237.362,-617 247.362,-613.5 237.362,-610 237.362,-617"/>
</g>
<!-- Node5 -->
<g id="node5" class="node"><title>Node5</title>
<g id="a_node5"><a xlink:href="interfaceio__routines_1_1io__read.html#a9b6dacfccbb234dd949e7136e5b67f8c" target="_top" xlink:title=" Same as io_read6d but for 3&#45;dimensional data ">
<polygon fill="white" stroke="black" points="410.5,-402.5 410.5,-432.5 511.5,-432.5 511.5,-402.5 410.5,-402.5"/>
<text text-anchor="start" x="418.5" y="-420.5" font-family="Helvetica,sans-Serif" font-size="10.00">io_routines::io_read</text>
<text text-anchor="middle" x="461" y="-409.5" font-family="Helvetica,sans-Serif" font-size="10.00">::io_read3d</text>
</a>
</g>
</g>
<!-- Node2&#45;&gt;Node5 -->
<g id="edge4" class="edge"><title>Node2&#45;&gt;Node5</title>
<path fill="none" stroke="midnightblue" d="M155.745,-603.649C161.636,-573.606 183.775,-482.75 242,-442.5 288.127,-410.613 353.284,-407.13 400.336,-409.93"/>
<polygon fill="midnightblue" stroke="midnightblue" points="400.164,-413.426 410.386,-410.639 400.657,-406.444 400.164,-413.426"/>
</g>
<!-- Node6 -->
<g id="node6" class="node"><title>Node6</title>
<g id="a_node6"><a xlink:href="classinit.html#a162bb77321c63c58104c2df3f1554332" target="_top" xlink:title="init::boundary_allocate">
<polygon fill="white" stroke="black" points="249,-642 249,-661 363,-661 363,-642 249,-642"/>
<text text-anchor="middle" x="306" y="-649" font-family="Helvetica,sans-Serif" font-size="10.00">init::boundary_allocate</text>
</a>
</g>
</g>
<!-- Node2&#45;&gt;Node6 -->
<g id="edge5" class="edge"><title>Node2&#45;&gt;Node6</title>
<path fill="none" stroke="midnightblue" d="M192.104,-623.089C211.94,-628.081 236.384,-634.232 257.448,-639.533"/>
<polygon fill="midnightblue" stroke="midnightblue" points="256.618,-642.934 267.17,-641.98 258.327,-636.145 256.618,-642.934"/>
</g>
<!-- Node7&#45;&gt;Node3 -->
<g id="edge7" class="edge"><title>Node7&#45;&gt;Node3</title>
<path fill="none" stroke="midnightblue" d="M160.266,-395.169C173.197,-414.351 204.766,-457.358 242,-480.5 292.401,-511.826 318.318,-489.336 370,-518.5 397.299,-533.905 423.17,-558.977 440.107,-577.348"/>
<polygon fill="midnightblue" stroke="midnightblue" points="437.94,-580.171 447.234,-585.258 443.141,-575.486 437.94,-580.171"/>
</g>
<!-- Node7&#45;&gt;Node4 -->
<g id="edge8" class="edge"><title>Node7&#45;&gt;Node4</title>
<path fill="none" stroke="midnightblue" d="M155.143,-395.047C159.595,-427.937 178.778,-537.626 242,-594.5 243.76,-596.083 245.647,-597.534 247.63,-598.865"/>
<polygon fill="midnightblue" stroke="midnightblue" points="246.393,-602.18 256.838,-603.958 249.781,-596.055 246.393,-602.18"/>
</g>
<!-- Node7&#45;&gt;Node5 -->
<g id="edge12" class="edge"><title>Node7&#45;&gt;Node5</title>
<path fill="none" stroke="midnightblue" d="M164.355,-375.867C179.838,-362.194 210.579,-337.787 242,-328.5 296.556,-312.375 317.381,-306.876 370,-328.5 401.977,-341.641 428.641,-372.243 444.446,-393.882"/>
<polygon fill="midnightblue" stroke="midnightblue" points="441.722,-396.092 450.346,-402.246 447.442,-392.057 441.722,-396.092"/>
</g>
<!-- Node8 -->
<g id="node8" class="node"><title>Node8</title>
<g id="a_node8"><a xlink:href="classinit.html#acc580cb29fb9163913d039be6a7442a9" target="_top" xlink:title=" Interpolate a 2D data array in the &quot;x&quot; (first) dimension, extrapolate out one on edges ...">
<polygon fill="white" stroke="black" points="254,-566 254,-585 358,-585 358,-566 254,-566"/>
<text text-anchor="middle" x="306" y="-573" font-family="Helvetica,sans-Serif" font-size="10.00">init::interpolate_in_x</text>
</a>
</g>
</g>
<!-- Node7&#45;&gt;Node8 -->
<g id="edge9" class="edge"><title>Node7&#45;&gt;Node8</title>
<path fill="none" stroke="midnightblue" d="M156.182,-395.316C163.183,-424.488 187.856,-511.428 242,-556.5 244.036,-558.195 246.22,-559.738 248.508,-561.144"/>
<polygon fill="midnightblue" stroke="midnightblue" points="247.269,-564.443 257.761,-565.913 250.476,-558.221 247.269,-564.443"/>
</g>
<!-- Node9 -->
<g id="node9" class="node"><title>Node9</title>
<g id="a_node9"><a xlink:href="classinit.html#ad45c97ba7b7d1f2c70d6596ff77334bd" target="_top" xlink:title=" Interpolate a 2D data array in the &quot;y&quot; (second) dimension, extrapolate out one on edges ...">
<polygon fill="white" stroke="black" points="254,-528 254,-547 358,-547 358,-528 254,-528"/>
<text text-anchor="middle" x="306" y="-535" font-family="Helvetica,sans-Serif" font-size="10.00">init::interpolate_in_y</text>
</a>
</g>
</g>
<!-- Node7&#45;&gt;Node9 -->
<g id="edge10" class="edge"><title>Node7&#45;&gt;Node9</title>
<path fill="none" stroke="midnightblue" d="M158.22,-395.337C168.846,-419.004 198.963,-479.666 242,-513.5 247.133,-517.535 253.02,-520.951 259.089,-523.826"/>
<polygon fill="midnightblue" stroke="midnightblue" points="258.121,-527.218 268.693,-527.911 260.86,-520.776 258.121,-527.218"/>
</g>
<!-- Node10 -->
<g id="node10" class="node"><title>Node10</title>
<g id="a_node10"><a xlink:href="classinit.html#ad8a43afe3ab7ba952332c174b2c9587c" target="_top" xlink:title="init::remove_edges">
<polygon fill="white" stroke="black" points="256.5,-376 256.5,-395 355.5,-395 355.5,-376 256.5,-376"/>
<text text-anchor="middle" x="306" y="-383" font-family="Helvetica,sans-Serif" font-size="10.00">init::remove_edges</text>
</a>
</g>
</g>
<!-- Node7&#45;&gt;Node10 -->
<g id="edge11" class="edge"><title>Node7&#45;&gt;Node10</title>
<path fill="none" stroke="midnightblue" d="M195.661,-385.5C211.204,-385.5 229.159,-385.5 245.969,-385.5"/>
<polygon fill="midnightblue" stroke="midnightblue" points="246.256,-389 256.256,-385.5 246.256,-382 246.256,-389"/>
</g>
<!-- Node7&#45;&gt;Node11 -->
<g id="edge13" class="edge"><title>Node7&#45;&gt;Node11</title>
<path fill="none" stroke="midnightblue" d="M157.664,-375.801C167.425,-351.284 196.461,-286.377 242,-252.5 248.05,-248 255.167,-244.557 262.4,-241.926"/>
<polygon fill="midnightblue" stroke="midnightblue" points="263.763,-245.166 272.245,-238.817 261.656,-238.49 263.763,-245.166"/>
</g>
<!-- Node12 -->
<g id="node12" class="node"><title>Node12</title>
<g id="a_node12"><a xlink:href="classinit.html#ae736523becb73ff7a6b08d6552211833" target="_top" xlink:title="init::domain_allocation">
<polygon fill="white" stroke="black" points="249.5,-338 249.5,-357 362.5,-357 362.5,-338 249.5,-338"/>
<text text-anchor="middle" x="306" y="-345" font-family="Helvetica,sans-Serif" font-size="10.00">init::domain_allocation</text>
</a>
</g>
</g>
<!-- Node7&#45;&gt;Node12 -->
<g id="edge14" class="edge"><title>Node7&#45;&gt;Node12</title>
<path fill="none" stroke="midnightblue" d="M192.104,-375.911C211.94,-370.919 236.384,-364.768 257.448,-359.467"/>
<polygon fill="midnightblue" stroke="midnightblue" points="258.327,-362.855 267.17,-357.02 256.618,-356.066 258.327,-362.855"/>
</g>
<!-- Node13 -->
<g id="node13" class="node"><title>Node13</title>
<g id="a_node13"><a xlink:href="classinit.html#a78428952f4f16f84b944bbea4900ef3d" target="_top" xlink:title="init::init_domain_land">
<polygon fill="white" stroke="black" points="252,-452 252,-471 360,-471 360,-452 252,-452"/>
<text text-anchor="middle" x="306" y="-459" font-family="Helvetica,sans-Serif" font-size="10.00">init::init_domain_land</text>
</a>
</g>
</g>
<!-- Node7&#45;&gt;Node13 -->
<g id="edge15" class="edge"><title>Node7&#45;&gt;Node13</title>
<path fill="none" stroke="midnightblue" d="M173.124,-395.125C199.333,-408.317 246.6,-432.107 276.854,-447.334"/>
<polygon fill="midnightblue" stroke="midnightblue" points="275.525,-450.583 286.031,-451.953 278.672,-444.331 275.525,-450.583"/>
</g>
<!-- Node15 -->
<g id="node15" class="node"><title>Node15</title>
<g id="a_node15"><a xlink:href="classwind.html#aa3e008f44175ff536a88fe141d295601" target="_top" xlink:title="wind::init_winds">
<polygon fill="white" stroke="black" points="263,-262 263,-281 349,-281 349,-262 263,-262"/>
<text text-anchor="middle" x="306" y="-269" font-family="Helvetica,sans-Serif" font-size="10.00">wind::init_winds</text>
</a>
</g>
</g>
<!-- Node7&#45;&gt;Node15 -->
<g id="edge19" class="edge"><title>Node7&#45;&gt;Node15</title>
<path fill="none" stroke="midnightblue" d="M161.171,-375.751C174.956,-357.627 206.911,-318.505 242,-295.5 248.258,-291.397 255.32,-287.846 262.394,-284.828"/>
<polygon fill="midnightblue" stroke="midnightblue" points="263.961,-287.973 271.973,-281.041 261.387,-281.463 263.961,-287.973"/>
</g>
<!-- Node13&#45;&gt;Node3 -->
<g id="edge17" class="edge"><title>Node13&#45;&gt;Node3</title>
<path fill="none" stroke="midnightblue" d="M342.075,-471.044C351.675,-474.641 361.71,-479.387 370,-485.5 403.621,-510.291 431.245,-550.808 446.665,-576.538"/>
<polygon fill="midnightblue" stroke="midnightblue" points="443.714,-578.426 451.783,-585.293 449.758,-574.893 443.714,-578.426"/>
</g>
<!-- Node13&#45;&gt;Node5 -->
<g id="edge16" class="edge"><title>Node13&#45;&gt;Node5</title>
<path fill="none" stroke="midnightblue" d="M340.199,-451.953C357.797,-446.892 379.953,-440.52 400.411,-434.637"/>
<polygon fill="midnightblue" stroke="midnightblue" points="401.647,-437.923 410.291,-431.796 399.713,-431.196 401.647,-437.923"/>
</g>
<!-- Node14 -->
<g id="node14" class="node"><title>Node14</title>
<g id="a_node14"><a xlink:href="interfaceio__routines_1_1io__read.html#a8b9f7abc143c8f5a7f3b727d2beea7c2" target="_top" xlink:title=" Same as io_read2d but for integer data ">
<polygon fill="white" stroke="black" points="410.5,-451.5 410.5,-481.5 511.5,-481.5 511.5,-451.5 410.5,-451.5"/>
<text text-anchor="start" x="418.5" y="-469.5" font-family="Helvetica,sans-Serif" font-size="10.00">io_routines::io_read</text>
<text text-anchor="middle" x="461" y="-458.5" font-family="Helvetica,sans-Serif" font-size="10.00">::io_read2di</text>
</a>
</g>
</g>
<!-- Node13&#45;&gt;Node14 -->
<g id="edge18" class="edge"><title>Node13&#45;&gt;Node14</title>
<path fill="none" stroke="midnightblue" d="M360.083,-463.235C372.954,-463.655 386.804,-464.108 399.971,-464.538"/>
<polygon fill="midnightblue" stroke="midnightblue" points="400.244,-468.049 410.353,-464.878 400.472,-461.053 400.244,-468.049"/>
</g>
<!-- Node16 -->
<g id="node16" class="node"><title>Node16</title>
<g id="a_node16"><a xlink:href="classwind.html#a0c5b970e225fdcde294562217da6c36e" target="_top" xlink:title="wind::allocate_winds">
<polygon fill="white" stroke="black" points="407.5,-262 407.5,-281 514.5,-281 514.5,-262 407.5,-262"/>
<text text-anchor="middle" x="461" y="-269" font-family="Helvetica,sans-Serif" font-size="10.00">wind::allocate_winds</text>
</a>
</g>
</g>
<!-- Node15&#45;&gt;Node16 -->
<g id="edge20" class="edge"><title>Node15&#45;&gt;Node16</title>
<path fill="none" stroke="midnightblue" d="M349.213,-271.5C363.942,-271.5 380.81,-271.5 396.866,-271.5"/>
<polygon fill="midnightblue" stroke="midnightblue" points="397.27,-275 407.27,-271.5 397.27,-268 397.27,-275"/>
</g>
<!-- Node18 -->
<g id="node18" class="node"><title>Node18</title>
<g id="a_node18"><a xlink:href="classgeo.html#a1e7273d41823570bc9f9de6b30aa60fd" target="_top" xlink:title=" Find a location lat,lon in lolat,lon grids Assumes that the lat/lon grids are semi&#45;regular (dx/dy ar...">
<polygon fill="white" stroke="black" points="414.5,-794 414.5,-813 507.5,-813 507.5,-794 414.5,-794"/>
<text text-anchor="middle" x="461" y="-801" font-family="Helvetica,sans-Serif" font-size="10.00">geo::find_location</text>
</a>
</g>
</g>
<!-- Node17&#45;&gt;Node18 -->
<g id="edge22" class="edge"><title>Node17&#45;&gt;Node18</title>
<path fill="none" stroke="midnightblue" d="M341.336,-832.972C362.135,-827.806 388.98,-821.139 411.875,-815.453"/>
<polygon fill="midnightblue" stroke="midnightblue" points="412.886,-818.808 421.747,-813.001 411.198,-812.014 412.886,-818.808"/>
</g>
<!-- Node21 -->
<g id="node21" class="node"><title>Node21</title>
<g id="a_node21"><a xlink:href="classgeo.html#a7d14c8e02963a466d18edcd79f330359" target="_top" xlink:title=" Given a closest position, return the 4 points surrounding the lat/lon position in lolat/lon ...">
<polygon fill="white" stroke="black" points="406,-870 406,-889 516,-889 516,-870 406,-870"/>
<text text-anchor="middle" x="461" y="-877" font-family="Helvetica,sans-Serif" font-size="10.00">geo::find_surrounding</text>
</a>
</g>
</g>
<!-- Node17&#45;&gt;Node21 -->
<g id="edge25" class="edge"><title>Node17&#45;&gt;Node21</title>
<path fill="none" stroke="midnightblue" d="M341.336,-850.028C362.135,-855.194 388.98,-861.861 411.875,-867.547"/>
<polygon fill="midnightblue" stroke="midnightblue" points="411.198,-870.986 421.747,-869.999 412.886,-864.192 411.198,-870.986"/>
</g>
<!-- Node22 -->
<g id="node22" class="node"><title>Node22</title>
<g id="a_node22"><a xlink:href="classgeo.html#af4b522675af159cdf68f947dbaba102c" target="_top" xlink:title=" Calculate the weights to use for bilinear interpolation between surrounding points x...">
<polygon fill="white" stroke="black" points="413.5,-832 413.5,-851 508.5,-851 508.5,-832 413.5,-832"/>
<text text-anchor="middle" x="461" y="-839" font-family="Helvetica,sans-Serif" font-size="10.00">geo::bilin_weights</text>
</a>
</g>
</g>
<!-- Node17&#45;&gt;Node22 -->
<g id="edge26" class="edge"><title>Node17&#45;&gt;Node22</title>
<path fill="none" stroke="midnightblue" d="M341.336,-841.5C359.583,-841.5 382.485,-841.5 403.29,-841.5"/>
<polygon fill="midnightblue" stroke="midnightblue" points="403.305,-845 413.305,-841.5 403.305,-838 403.305,-845"/>
</g>
<!-- Node19 -->
<g id="node19" class="node"><title>Node19</title>
<g id="a_node19"><a xlink:href="classgeo.html#a90d24402dc82ec462d2683728881818e" target="_top" xlink:title=" Find the minimum next step size in the x direction xw=minxw(xw,lolon,xc,yc,lon) ">
<polygon fill="white" stroke="black" points="552,-813 552,-832 619,-832 619,-813 552,-813"/>
<text text-anchor="middle" x="585.5" y="-820" font-family="Helvetica,sans-Serif" font-size="10.00">geo::minxw</text>
</a>
</g>
</g>
<!-- Node18&#45;&gt;Node19 -->
<g id="edge23" class="edge"><title>Node18&#45;&gt;Node19</title>
<path fill="none" stroke="midnightblue" d="M507.614,-810.575C518.864,-812.32 530.868,-814.182 541.965,-815.903"/>
<polygon fill="midnightblue" stroke="midnightblue" points="541.435,-819.362 551.853,-817.436 542.508,-812.445 541.435,-819.362"/>
</g>
<!-- Node20 -->
<g id="node20" class="node"><title>Node20</title>
<g id="a_node20"><a xlink:href="classgeo.html#a26f0801662f938ba2e6cd8d33a7be586" target="_top" xlink:title=" Find the minimum next step size in the y direction yw = minyw(yw,lolat,xc,yc,lat) ...">
<polygon fill="white" stroke="black" points="552,-775 552,-794 619,-794 619,-775 552,-775"/>
<text text-anchor="middle" x="585.5" y="-782" font-family="Helvetica,sans-Serif" font-size="10.00">geo::minyw</text>
</a>
</g>
</g>
<!-- Node18&#45;&gt;Node20 -->
<g id="edge24" class="edge"><title>Node18&#45;&gt;Node20</title>
<path fill="none" stroke="midnightblue" d="M507.614,-796.425C518.864,-794.68 530.868,-792.818 541.965,-791.097"/>
<polygon fill="midnightblue" stroke="midnightblue" points="542.508,-794.555 551.853,-789.564 541.435,-787.638 542.508,-794.555"/>
</g>
<!-- Node23&#45;&gt;Node24 -->
<g id="edge28" class="edge"><title>Node23&#45;&gt;Node24</title>
<path fill="none" stroke="midnightblue" d="M190.553,-195.5C209.593,-195.5 233.184,-195.5 253.992,-195.5"/>
<polygon fill="midnightblue" stroke="midnightblue" points="254.265,-199 264.265,-195.5 254.265,-192 254.265,-199"/>
</g>
<!-- Node25&#45;&gt;Node3 -->
<g id="edge30" class="edge"><title>Node25&#45;&gt;Node3</title>
<path fill="none" stroke="midnightblue" d="M196.448,-699.061C241.4,-707.09 313.527,-713.892 370,-690.5 402.297,-677.122 429.047,-645.908 444.772,-624.011"/>
<polygon fill="midnightblue" stroke="midnightblue" points="447.808,-625.775 450.629,-615.562 442.056,-621.786 447.808,-625.775"/>
</g>
<!-- Node25&#45;&gt;Node4 -->
<g id="edge31" class="edge"><title>Node25&#45;&gt;Node4</title>
<path fill="none" stroke="midnightblue" d="M166.457,-679.8C182.936,-667.362 213.262,-645.814 242,-632.5 246.924,-630.219 252.189,-628.13 257.5,-626.241"/>
<polygon fill="midnightblue" stroke="midnightblue" points="258.666,-629.542 267.045,-623.058 256.451,-622.901 258.666,-629.542"/>
</g>
<!-- Node25&#45;&gt;Node8 -->
<g id="edge32" class="edge"><title>Node25&#45;&gt;Node8</title>
<path fill="none" stroke="midnightblue" d="M162.795,-679.873C184.597,-656.027 239.557,-596.026 242,-594.5 245.338,-592.415 248.919,-590.547 252.617,-588.876"/>
<polygon fill="midnightblue" stroke="midnightblue" points="254.004,-592.09 261.977,-585.114 251.393,-585.595 254.004,-592.09"/>
</g>
<!-- Node25&#45;&gt;Node9 -->
<g id="edge33" class="edge"><title>Node25&#45;&gt;Node9</title>
<path fill="none" stroke="midnightblue" d="M164.578,-679.774C175.862,-669.004 193.76,-650.742 206,-632.5 226.824,-601.463 213.672,-580.882 242,-556.5 243.97,-554.805 246.087,-553.26 248.31,-551.854"/>
<polygon fill="midnightblue" stroke="midnightblue" points="250.119,-554.857 257.319,-547.084 246.844,-548.67 250.119,-554.857"/>
</g>
<!-- Node25&#45;&gt;Node17 -->
<g id="edge34" class="edge"><title>Node25&#45;&gt;Node17</title>
<path fill="none" stroke="midnightblue" d="M160.114,-699.124C179.093,-728.949 236.085,-818.1 242,-822.5 247.666,-826.715 254.268,-830.002 261.025,-832.564"/>
<polygon fill="midnightblue" stroke="midnightblue" points="260.351,-836.026 270.944,-835.821 262.535,-829.376 260.351,-836.026"/>
</g>
<!-- Node26 -->
<g id="node26" class="node"><title>Node26</title>
<g id="a_node26"><a xlink:href="classgeo.html#ad6df2866b0f12fabc9d1b393be1b06d7" target="_top" xlink:title=" Interpolate fieldout to fieldin using geolut. ">
<polygon fill="white" stroke="black" points="259,-756 259,-775 353,-775 353,-756 259,-756"/>
<text text-anchor="middle" x="306" y="-763" font-family="Helvetica,sans-Serif" font-size="10.00">geo::geo_interp2d</text>
</a>
</g>
</g>
<!-- Node25&#45;&gt;Node26 -->
<g id="edge35" class="edge"><title>Node25&#45;&gt;Node26</title>
<path fill="none" stroke="midnightblue" d="M168.525,-699.123C185.635,-710.212 215.14,-728.563 242,-741.5 250.121,-745.411 259.058,-749.142 267.584,-752.445"/>
<polygon fill="midnightblue" stroke="midnightblue" points="266.38,-755.732 276.972,-755.982 268.847,-749.181 266.38,-755.732"/>
</g>
<!-- Node27 -->
<g id="node27" class="node"><title>Node27</title>
<g id="a_node27"><a xlink:href="classinit.html#a038ea10ca872de4c73000c8a6d31fdb0" target="_top" xlink:title="init::setup_extwinds">
<polygon fill="white" stroke="black" points="254,-794 254,-813 358,-813 358,-794 254,-794"/>
<text text-anchor="middle" x="306" y="-801" font-family="Helvetica,sans-Serif" font-size="10.00">init::setup_extwinds</text>
</a>
</g>
</g>
<!-- Node25&#45;&gt;Node27 -->
<g id="edge36" class="edge"><title>Node25&#45;&gt;Node27</title>
<path fill="none" stroke="midnightblue" d="M160.275,-699.156C173.221,-718.312 204.817,-761.277 242,-784.5 245.338,-786.585 248.919,-788.453 252.617,-790.124"/>
<polygon fill="midnightblue" stroke="midnightblue" points="251.393,-793.405 261.977,-793.886 254.004,-786.91 251.393,-793.405"/>
</g>
<!-- Node29 -->
<g id="node29" class="node"><title>Node29</title>
<g id="a_node29"><a xlink:href="classgeo.html#a61629d616a7b4ee1cd910362724f0f6d" target="_top" xlink:title=" Interpolate boundaries of fieldout to fieldin using geolut ">
<polygon fill="white" stroke="black" points="242,-148 242,-167 370,-167 370,-148 242,-148"/>
<text text-anchor="middle" x="306" y="-155" font-family="Helvetica,sans-Serif" font-size="10.00">geo::boundary_interpolate</text>
</a>
</g>
</g>
<!-- Node28&#45;&gt;Node29 -->
<g id="edge39" class="edge"><title>Node28&#45;&gt;Node29</title>
<path fill="none" stroke="midnightblue" d="M194.863,-157.5C206.303,-157.5 219.098,-157.5 231.806,-157.5"/>
<polygon fill="midnightblue" stroke="midnightblue" points="231.952,-161 241.952,-157.5 231.952,-154 231.952,-161"/>
</g>
<!-- Node31 -->
<g id="node31" class="node"><title>Node31</title>
<g id="a_node31"><a xlink:href="classvertical__interpolation.html#a3576f3120acea907e0bde55f9a0f6a3f" target="_top" xlink:title="vertical_interpolation\l::find_match">
<polygon fill="white" stroke="black" points="253,-98.5 253,-128.5 359,-128.5 359,-98.5 253,-98.5"/>
<text text-anchor="start" x="261" y="-116.5" font-family="Helvetica,sans-Serif" font-size="10.00">vertical_interpolation</text>
<text text-anchor="middle" x="306" y="-105.5" font-family="Helvetica,sans-Serif" font-size="10.00">::find_match</text>
</a>
</g>
</g>
<!-- Node30&#45;&gt;Node31 -->
<g id="edge42" class="edge"><title>Node30&#45;&gt;Node31</title>
<path fill="none" stroke="midnightblue" d="M206.389,-113.5C218.168,-113.5 230.777,-113.5 242.909,-113.5"/>
<polygon fill="midnightblue" stroke="midnightblue" points="242.959,-117 252.959,-113.5 242.959,-110 242.959,-117"/>
</g>
<!-- Node32 -->
<g id="node32" class="node"><title>Node32</title>
<g id="a_node32"><a xlink:href="classvertical__interpolation.html#a70fa258a08a3fdfbcfdda875a47d51d9" target="_top" xlink:title="vertical_interpolation\l::weights">
<polygon fill="white" stroke="black" points="253,-49.5 253,-79.5 359,-79.5 359,-49.5 253,-49.5"/>
<text text-anchor="start" x="261" y="-67.5" font-family="Helvetica,sans-Serif" font-size="10.00">vertical_interpolation</text>
<text text-anchor="middle" x="306" y="-56.5" font-family="Helvetica,sans-Serif" font-size="10.00">::weights</text>
</a>
</g>
</g>
<!-- Node30&#45;&gt;Node32 -->
<g id="edge43" class="edge"><title>Node30&#45;&gt;Node32</title>
<path fill="none" stroke="midnightblue" d="M200.537,-98.3986C215.822,-93.4385 232.974,-87.8726 248.892,-82.7071"/>
<polygon fill="midnightblue" stroke="midnightblue" points="250.185,-85.9673 258.617,-79.5516 248.025,-79.3091 250.185,-85.9673"/>
</g>
<!-- Node35 -->
<g id="node35" class="node"><title>Node35</title>
<g id="a_node35"><a xlink:href="classvertical__interpolation.html#a2625ecb49efcd1aaccf31125071f03e4" target="_top" xlink:title="vertical_interpolation\l::vinterp_boundary">
<polygon fill="white" stroke="black" points="253,-0.5 253,-30.5 359,-30.5 359,-0.5 253,-0.5"/>
<text text-anchor="start" x="261" y="-18.5" font-family="Helvetica,sans-Serif" font-size="10.00">vertical_interpolation</text>
<text text-anchor="middle" x="306" y="-7.5" font-family="Helvetica,sans-Serif" font-size="10.00">::vinterp_boundary</text>
</a>
</g>
</g>
<!-- Node34&#45;&gt;Node35 -->
<g id="edge46" class="edge"><title>Node34&#45;&gt;Node35</title>
<path fill="none" stroke="midnightblue" d="M206.389,-18.7653C218.168,-18.3752 230.777,-17.9577 242.909,-17.556"/>
<polygon fill="midnightblue" stroke="midnightblue" points="243.081,-21.0523 252.959,-17.2232 242.849,-14.0562 243.081,-21.0523"/>
</g>
</g>
</svg>
        <g id="navigator" transform="translate(0 0)" fill="#404254">
                <rect fill="#f2f5e9" fill-opacity="0.5" stroke="#606060" stroke-width=".5" x="0" y="0" width="60" height="60"/>
                <use id="zoomplus" xlink:href="#zoomPlus" x="17" y="9" onmousedown="handleZoom(evt,'in')"/>
                <use id="zoomminus" xlink:href="#zoomMin" x="42" y="9" onmousedown="handleZoom(evt,'out')"/>
                <use id="reset" xlink:href="#resetDef" x="30" y="36" onmousedown="handleReset()"/>
                <g id="arrowUp" xlink:href="#dirArrow" transform="translate(30 24)" onmousedown="handlePan(0,-1)">
                  <use xlink:href="#rim" fill="#404040">
                        <set attributeName="fill" to="#808080" begin="arrowUp.mouseover" end="arrowUp.mouseout"/>
                  </use>
                  <path fill="none" stroke="white" stroke-width="1.5" d="M0,-3.0v7 M-2.5,-0.5L0,-3.0L2.5,-0.5"/>
                </g>
                <g id="arrowRight" xlink:href="#dirArrow" transform="rotate(90) translate(36 -43)" onmousedown="handlePan(1,0)">
                  <use xlink:href="#rim" fill="#404040">
                        <set attributeName="fill" to="#808080" begin="arrowRight.mouseover" end="arrowRight.mouseout"/>
                  </use>
                  <path fill="none" stroke="white" stroke-width="1.5" d="M0,-3.0v7 M-2.5,-0.5L0,-3.0L2.5,-0.5"/>
                </g>
                <g id="arrowDown" xlink:href="#dirArrow" transform="rotate(180) translate(-30 -48)" onmousedown="handlePan(0,1)">
                  <use xlink:href="#rim" fill="#404040">
                        <set attributeName="fill" to="#808080" begin="arrowDown.mouseover" end="arrowDown.mouseout"/>
                  </use>
                  <path fill="none" stroke="white" stroke-width="1.5" d="M0,-3.0v7 M-2.5,-0.5L0,-3.0L2.5,-0.5"/>
                </g>
                <g id="arrowLeft" xlink:href="#dirArrow" transform="rotate(270) translate(-36 17)" onmousedown="handlePan(-1,0)">
                  <use xlink:href="#rim" fill="#404040">
                        <set attributeName="fill" to="#808080" begin="arrowLeft.mouseover" end="arrowLeft.mouseout"/>
                  </use>
                  <path fill="none" stroke="white" stroke-width="1.5" d="M0,-3.0v7 M-2.5,-0.5L0,-3.0L2.5,-0.5"/>
                </g>
        </g>
        <svg viewBox="0 0 15 15" width="100%" height="30px" preserveAspectRatio="xMaxYMin meet">
         <g id="arrow_out" transform="scale(0.3 0.3)">
          <a xlink:href="classinit_a1c6cab46bb16bea719da3b193c43ccb3_cgraph_org.svg" target="_base">
           <rect id="button" ry="5" rx="5" y="6" x="6" height="38" width="38"
                fill="#f2f5e9" fill-opacity="0.5" stroke="#606060" stroke-width="1.0"/>
           <path id="arrow"
             d="M 11.500037,31.436501 C 11.940474,20.09759 22.043105,11.32322 32.158766,21.979434 L 37.068811,17.246167 C 37.068811,17.246167 37.088388,32 37.088388,32 L 22.160133,31.978069 C 22.160133,31.978069 26.997745,27.140456 26.997745,27.140456 C 18.528582,18.264221 13.291696,25.230495 11.500037,31.436501 z"
             style="fill:#404040;"/>
          </a>
         </g>
        </svg>
</svg>
