<?xml version="1.0" encoding="UTF-8" standalone="no"?>
<!DOCTYPE svg PUBLIC "-//W3C//DTD SVG 1.1//EN"
 "http://www.w3.org/Graphics/SVG/1.1/DTD/svg11.dtd">
<!-- Generated by graphviz version 2.38.0 (20140413.2041)
 -->
<!-- Title: module_sf_noahlsm::nopac Pages: 1 -->
<svg width="731pt" height="367pt"
 viewBox="0.00 0.00 731.00 367.00" xmlns="http://www.w3.org/2000/svg" xmlns:xlink="http://www.w3.org/1999/xlink">
<g id="graph0" class="graph" transform="scale(1 1) rotate(0) translate(4 363)">
<title>module_sf_noahlsm::nopac</title>
<polygon fill="white" stroke="none" points="-4,4 -4,-363 727,-363 727,4 -4,4"/>
<!-- Node1 -->
<g id="node1" class="node"><title>Node1</title>
<polygon fill="#bfbfbf" stroke="black" points="0,-130.5 0,-160.5 110,-160.5 110,-130.5 0,-130.5"/>
<text text-anchor="start" x="8" y="-148.5" font-family="Helvetica,sans-Serif" font-size="10.00">module_sf_noahlsm::</text>
<text text-anchor="middle" x="55" y="-137.5" font-family="Helvetica,sans-Serif" font-size="10.00">nopac</text>
</g>
<!-- Node2 -->
<g id="node2" class="node"><title>Node2</title>
<g id="a_node2"><a xlink:href="classmodule__sf__noahlsm.html#a8def37e83c3ce04050b98a11d265caeb" target="_top" xlink:title="module_sf_noahlsm::\levapo">
<polygon fill="white" stroke="black" points="146,-279.5 146,-309.5 256,-309.5 256,-279.5 146,-279.5"/>
<text text-anchor="start" x="154" y="-297.5" font-family="Helvetica,sans-Serif" font-size="10.00">module_sf_noahlsm::</text>
<text text-anchor="middle" x="201" y="-286.5" font-family="Helvetica,sans-Serif" font-size="10.00">evapo</text>
</a>
</g>
</g>
<!-- Node1&#45;&gt;Node2 -->
<g id="edge1" class="edge"><title>Node1&#45;&gt;Node2</title>
<path fill="none" stroke="midnightblue" d="M70.5999,-160.607C96.0435,-186.934 148.625,-241.341 178.332,-272.08"/>
<polygon fill="midnightblue" stroke="midnightblue" points="175.895,-274.595 185.361,-279.353 180.929,-269.73 175.895,-274.595"/>
</g>
<!-- Node5 -->
<g id="node5" class="node"><title>Node5</title>
<g id="a_node5"><a xlink:href="classmodule__sf__noahlsm.html#a0d0b4c4b1c11cc7ff836dfdd13fb1b20" target="_top" xlink:title="module_sf_noahlsm::\lsmflx">
<polygon fill="white" stroke="black" points="146,-167.5 146,-197.5 256,-197.5 256,-167.5 146,-167.5"/>
<text text-anchor="start" x="154" y="-185.5" font-family="Helvetica,sans-Serif" font-size="10.00">module_sf_noahlsm::</text>
<text text-anchor="middle" x="201" y="-174.5" font-family="Helvetica,sans-Serif" font-size="10.00">smflx</text>
</a>
</g>
</g>
<!-- Node1&#45;&gt;Node5 -->
<g id="edge4" class="edge"><title>Node1&#45;&gt;Node5</title>
<path fill="none" stroke="midnightblue" d="M110.03,-159.383C118.496,-161.558 127.315,-163.824 135.979,-166.05"/>
<polygon fill="midnightblue" stroke="midnightblue" points="135.111,-169.441 145.667,-168.539 136.853,-162.661 135.111,-169.441"/>
</g>
<!-- Node11 -->
<g id="node11" class="node"><title>Node11</title>
<g id="a_node11"><a xlink:href="classmodule__sf__noahlsm.html#aac4dfa006a09d48e949536f4dc217bbf" target="_top" xlink:title="module_sf_noahlsm::\ltdfcnd">
<polygon fill="white" stroke="black" points="458,-0.5 458,-30.5 568,-30.5 568,-0.5 458,-0.5"/>
<text text-anchor="start" x="466" y="-18.5" font-family="Helvetica,sans-Serif" font-size="10.00">module_sf_noahlsm::</text>
<text text-anchor="middle" x="513" y="-7.5" font-family="Helvetica,sans-Serif" font-size="10.00">tdfcnd</text>
</a>
</g>
</g>
<!-- Node1&#45;&gt;Node11 -->
<g id="edge10" class="edge"><title>Node1&#45;&gt;Node11</title>
<path fill="none" stroke="midnightblue" d="M73.8145,-130.413C91.1971,-116.401 118.91,-95.889 146,-83.5 244.937,-38.254 372.009,-23.1097 447.439,-18.0435"/>
<polygon fill="midnightblue" stroke="midnightblue" points="447.972,-21.5169 457.732,-17.3934 447.531,-14.5308 447.972,-21.5169"/>
</g>
<!-- Node12 -->
<g id="node12" class="node"><title>Node12</title>
<g id="a_node12"><a xlink:href="classmodule__sf__noahlsm.html#ac5c49267c44f18dfd5359b29fdfed38e" target="_top" xlink:title="module_sf_noahlsm::\lshflx">
<polygon fill="white" stroke="black" points="146,-93.5 146,-123.5 256,-123.5 256,-93.5 146,-93.5"/>
<text text-anchor="start" x="154" y="-111.5" font-family="Helvetica,sans-Serif" font-size="10.00">module_sf_noahlsm::</text>
<text text-anchor="middle" x="201" y="-100.5" font-family="Helvetica,sans-Serif" font-size="10.00">shflx</text>
</a>
</g>
</g>
<!-- Node1&#45;&gt;Node12 -->
<g id="edge11" class="edge"><title>Node1&#45;&gt;Node12</title>
<path fill="none" stroke="midnightblue" d="M110.03,-131.617C118.496,-129.442 127.315,-127.176 135.979,-124.95"/>
<polygon fill="midnightblue" stroke="midnightblue" points="136.853,-128.339 145.667,-122.461 135.111,-121.559 136.853,-128.339"/>
</g>
<!-- Node3 -->
<g id="node3" class="node"><title>Node3</title>
<g id="a_node3"><a xlink:href="classmodule__sf__noahlsm.html#a1f4bae7bb5581ef61d8c22e58df4c88f" target="_top" xlink:title="module_sf_noahlsm::\ldevap">
<polygon fill="white" stroke="black" points="297.5,-328.5 297.5,-358.5 407.5,-358.5 407.5,-328.5 297.5,-328.5"/>
<text text-anchor="start" x="305.5" y="-346.5" font-family="Helvetica,sans-Serif" font-size="10.00">module_sf_noahlsm::</text>
<text text-anchor="middle" x="352.5" y="-335.5" font-family="Helvetica,sans-Serif" font-size="10.00">devap</text>
</a>
</g>
</g>
<!-- Node2&#45;&gt;Node3 -->
<g id="edge2" class="edge"><title>Node2&#45;&gt;Node3</title>
<path fill="none" stroke="midnightblue" d="M248.075,-309.601C263.208,-314.562 280.19,-320.127 295.95,-325.293"/>
<polygon fill="midnightblue" stroke="midnightblue" points="294.985,-328.66 305.577,-328.448 297.165,-322.008 294.985,-328.66"/>
</g>
<!-- Node4 -->
<g id="node4" class="node"><title>Node4</title>
<g id="a_node4"><a xlink:href="classmodule__sf__noahlsm.html#aa418d6be3fc3de942821faf6fb68e3f8" target="_top" xlink:title="module_sf_noahlsm::\ltransp">
<polygon fill="white" stroke="black" points="297.5,-279.5 297.5,-309.5 407.5,-309.5 407.5,-279.5 297.5,-279.5"/>
<text text-anchor="start" x="305.5" y="-297.5" font-family="Helvetica,sans-Serif" font-size="10.00">module_sf_noahlsm::</text>
<text text-anchor="middle" x="352.5" y="-286.5" font-family="Helvetica,sans-Serif" font-size="10.00">transp</text>
</a>
</g>
</g>
<!-- Node2&#45;&gt;Node4 -->
<g id="edge3" class="edge"><title>Node2&#45;&gt;Node4</title>
<path fill="none" stroke="midnightblue" d="M256.396,-294.5C266.414,-294.5 276.961,-294.5 287.238,-294.5"/>
<polygon fill="midnightblue" stroke="midnightblue" points="287.395,-298 297.395,-294.5 287.395,-291 287.395,-298"/>
</g>
<!-- Node6 -->
<g id="node6" class="node"><title>Node6</title>
<g id="a_node6"><a xlink:href="classmodule__sf__noahlsm.html#ad15804ed9573673deb4f95b3f160eeb2" target="_top" xlink:title="module_sf_noahlsm::\lfac2mit">
<polygon fill="white" stroke="black" points="297.5,-142.5 297.5,-172.5 407.5,-172.5 407.5,-142.5 297.5,-142.5"/>
<text text-anchor="start" x="305.5" y="-160.5" font-family="Helvetica,sans-Serif" font-size="10.00">module_sf_noahlsm::</text>
<text text-anchor="middle" x="352.5" y="-149.5" font-family="Helvetica,sans-Serif" font-size="10.00">fac2mit</text>
</a>
</g>
</g>
<!-- Node5&#45;&gt;Node6 -->
<g id="edge5" class="edge"><title>Node5&#45;&gt;Node6</title>
<path fill="none" stroke="midnightblue" d="M256.396,-173.404C266.414,-171.728 276.961,-169.965 287.238,-168.246"/>
<polygon fill="midnightblue" stroke="midnightblue" points="288.109,-171.649 297.395,-166.548 286.955,-164.745 288.109,-171.649"/>
</g>
<!-- Node7 -->
<g id="node7" class="node"><title>Node7</title>
<g id="a_node7"><a xlink:href="classmodule__sf__noahlsm.html#a2e71343dc4bdf7438e0abf6d850d0c79" target="_top" xlink:title="module_sf_noahlsm::srt">
<polygon fill="white" stroke="black" points="292,-241 292,-260 413,-260 413,-241 292,-241"/>
<text text-anchor="middle" x="352.5" y="-248" font-family="Helvetica,sans-Serif" font-size="10.00">module_sf_noahlsm::srt</text>
</a>
</g>
</g>
<!-- Node5&#45;&gt;Node7 -->
<g id="edge6" class="edge"><title>Node5&#45;&gt;Node7</title>
<path fill="none" stroke="midnightblue" d="M227.434,-197.526C245.16,-207.631 269.56,-220.824 292,-230.5 297.845,-233.02 304.12,-235.432 310.324,-237.653"/>
<polygon fill="midnightblue" stroke="midnightblue" points="309.35,-241.019 319.944,-240.974 311.634,-234.402 309.35,-241.019"/>
</g>
<!-- Node9 -->
<g id="node9" class="node"><title>Node9</title>
<g id="a_node9"><a xlink:href="classmodule__sf__noahlsm.html#ada19fa401e97fc92326932b406bbc2c3" target="_top" xlink:title="module_sf_noahlsm::\lsstep">
<polygon fill="white" stroke="black" points="297.5,-191.5 297.5,-221.5 407.5,-221.5 407.5,-191.5 297.5,-191.5"/>
<text text-anchor="start" x="305.5" y="-209.5" font-family="Helvetica,sans-Serif" font-size="10.00">module_sf_noahlsm::</text>
<text text-anchor="middle" x="352.5" y="-198.5" font-family="Helvetica,sans-Serif" font-size="10.00">sstep</text>
</a>
</g>
</g>
<!-- Node5&#45;&gt;Node9 -->
<g id="edge8" class="edge"><title>Node5&#45;&gt;Node9</title>
<path fill="none" stroke="midnightblue" d="M256.396,-191.232C266.414,-192.841 276.961,-194.534 287.238,-196.184"/>
<polygon fill="midnightblue" stroke="midnightblue" points="286.967,-199.685 297.395,-197.814 288.076,-192.773 286.967,-199.685"/>
</g>
<!-- Node8 -->
<g id="node8" class="node"><title>Node8</title>
<g id="a_node8"><a xlink:href="classmodule__sf__noahlsm.html#a3b4a7f68699fbc22922e958770009b57" target="_top" xlink:title="module_sf_noahlsm::\lwdfcnd">
<polygon fill="white" stroke="black" points="458,-235.5 458,-265.5 568,-265.5 568,-235.5 458,-235.5"/>
<text text-anchor="start" x="466" y="-253.5" font-family="Helvetica,sans-Serif" font-size="10.00">module_sf_noahlsm::</text>
<text text-anchor="middle" x="513" y="-242.5" font-family="Helvetica,sans-Serif" font-size="10.00">wdfcnd</text>
</a>
</g>
</g>
<!-- Node7&#45;&gt;Node8 -->
<g id="edge7" class="edge"><title>Node7&#45;&gt;Node8</title>
<path fill="none" stroke="midnightblue" d="M413.422,-250.5C424.631,-250.5 436.389,-250.5 447.723,-250.5"/>
<polygon fill="midnightblue" stroke="midnightblue" points="447.985,-254 457.985,-250.5 447.985,-247 447.985,-254"/>
</g>
<!-- Node10 -->
<g id="node10" class="node"><title>Node10</title>
<g id="a_node10"><a xlink:href="classmodule__sf__noahlsm.html#ac6e3e7bb3f0322070546653306177216" target="_top" xlink:title="module_sf_noahlsm::\lrosr12">
<polygon fill="white" stroke="black" points="458,-186.5 458,-216.5 568,-216.5 568,-186.5 458,-186.5"/>
<text text-anchor="start" x="466" y="-204.5" font-family="Helvetica,sans-Serif" font-size="10.00">module_sf_noahlsm::</text>
<text text-anchor="middle" x="513" y="-193.5" font-family="Helvetica,sans-Serif" font-size="10.00">rosr12</text>
</a>
</g>
</g>
<!-- Node9&#45;&gt;Node10 -->
<g id="edge9" class="edge"><title>Node9&#45;&gt;Node10</title>
<path fill="none" stroke="midnightblue" d="M407.603,-204.793C420.538,-204.385 434.47,-203.946 447.811,-203.525"/>
<polygon fill="midnightblue" stroke="midnightblue" points="447.987,-207.021 457.872,-203.208 447.766,-200.025 447.987,-207.021"/>
</g>
<!-- Node13 -->
<g id="node13" class="node"><title>Node13</title>
<g id="a_node13"><a xlink:href="classmodule__sf__noahlsm.html#a3d4ab86e98738d55bb24f5f2256bc036" target="_top" xlink:title="module_sf_noahlsm::hrt">
<polygon fill="white" stroke="black" points="292,-55 292,-74 413,-74 413,-55 292,-55"/>
<text text-anchor="middle" x="352.5" y="-62" font-family="Helvetica,sans-Serif" font-size="10.00">module_sf_noahlsm::hrt</text>
</a>
</g>
</g>
<!-- Node12&#45;&gt;Node13 -->
<g id="edge12" class="edge"><title>Node12&#45;&gt;Node13</title>
<path fill="none" stroke="midnightblue" d="M253.031,-93.4808C271.275,-88.1115 291.621,-82.1234 309.061,-76.9905"/>
<polygon fill="midnightblue" stroke="midnightblue" points="310.351,-80.2594 318.956,-74.0783 308.374,-73.5442 310.351,-80.2594"/>
</g>
<!-- Node18 -->
<g id="node18" class="node"><title>Node18</title>
<g id="a_node18"><a xlink:href="classmodule__sf__noahlsm.html#adacf01be4e33445ea186feffce24eb35" target="_top" xlink:title="module_sf_noahlsm::\lhstep">
<polygon fill="white" stroke="black" points="297.5,-93.5 297.5,-123.5 407.5,-123.5 407.5,-93.5 297.5,-93.5"/>
<text text-anchor="start" x="305.5" y="-111.5" font-family="Helvetica,sans-Serif" font-size="10.00">module_sf_noahlsm::</text>
<text text-anchor="middle" x="352.5" y="-100.5" font-family="Helvetica,sans-Serif" font-size="10.00">hstep</text>
</a>
</g>
</g>
<!-- Node12&#45;&gt;Node18 -->
<g id="edge18" class="edge"><title>Node12&#45;&gt;Node18</title>
<path fill="none" stroke="midnightblue" d="M256.396,-108.5C266.414,-108.5 276.961,-108.5 287.238,-108.5"/>
<polygon fill="midnightblue" stroke="midnightblue" points="287.395,-112 297.395,-108.5 287.395,-105 287.395,-112"/>
</g>
<!-- Node13&#45;&gt;Node11 -->
<g id="edge17" class="edge"><title>Node13&#45;&gt;Node11</title>
<path fill="none" stroke="midnightblue" d="M384.437,-54.936C404.065,-48.8679 430.088,-40.823 453.508,-33.5826"/>
<polygon fill="midnightblue" stroke="midnightblue" points="454.84,-36.8345 463.36,-30.537 452.772,-30.1467 454.84,-36.8345"/>
</g>
<!-- Node14 -->
<g id="node14" class="node"><title>Node14</title>
<g id="a_node14"><a xlink:href="classmodule__sf__noahlsm.html#a578d0dc05848d5bc7fb823e379da5cdd" target="_top" xlink:title="module_sf_noahlsm::tbnd">
<polygon fill="white" stroke="black" points="449,-148 449,-167 577,-167 577,-148 449,-148"/>
<text text-anchor="middle" x="513" y="-155" font-family="Helvetica,sans-Serif" font-size="10.00">module_sf_noahlsm::tbnd</text>
</a>
</g>
</g>
<!-- Node13&#45;&gt;Node14 -->
<g id="edge13" class="edge"><title>Node13&#45;&gt;Node14</title>
<path fill="none" stroke="midnightblue" d="M395.899,-74.0958C401.977,-76.5636 407.891,-79.6488 413,-83.5 436.033,-100.863 425.952,-120.157 449,-137.5 452.159,-139.877 455.609,-141.977 459.214,-143.83"/>
<polygon fill="midnightblue" stroke="midnightblue" points="457.861,-147.059 468.418,-147.95 460.72,-140.67 457.861,-147.059"/>
</g>
<!-- Node15 -->
<g id="node15" class="node"><title>Node15</title>
<g id="a_node15"><a xlink:href="classmodule__sf__noahlsm.html#ab786b4f52dbea2106470993f2ea20e69" target="_top" xlink:title="module_sf_noahlsm::\ltmpavg">
<polygon fill="white" stroke="black" points="458,-98.5 458,-128.5 568,-128.5 568,-98.5 458,-98.5"/>
<text text-anchor="start" x="466" y="-116.5" font-family="Helvetica,sans-Serif" font-size="10.00">module_sf_noahlsm::</text>
<text text-anchor="middle" x="513" y="-105.5" font-family="Helvetica,sans-Serif" font-size="10.00">tmpavg</text>
</a>
</g>
</g>
<!-- Node13&#45;&gt;Node15 -->
<g id="edge14" class="edge"><title>Node13&#45;&gt;Node15</title>
<path fill="none" stroke="midnightblue" d="M384.437,-74.064C404.065,-80.1321 430.088,-88.177 453.508,-95.4174"/>
<polygon fill="midnightblue" stroke="midnightblue" points="452.772,-98.8533 463.36,-98.463 454.84,-92.1655 452.772,-98.8533"/>
</g>
<!-- Node16 -->
<g id="node16" class="node"><title>Node16</title>
<g id="a_node16"><a xlink:href="classmodule__sf__noahlsm.html#a5d089c57c48085d25b95857c682922da" target="_top" xlink:title="module_sf_noahlsm::\lsnksrc">
<polygon fill="white" stroke="black" points="458,-49.5 458,-79.5 568,-79.5 568,-49.5 458,-49.5"/>
<text text-anchor="start" x="466" y="-67.5" font-family="Helvetica,sans-Serif" font-size="10.00">module_sf_noahlsm::</text>
<text text-anchor="middle" x="513" y="-56.5" font-family="Helvetica,sans-Serif" font-size="10.00">snksrc</text>
</a>
</g>
</g>
<!-- Node13&#45;&gt;Node16 -->
<g id="edge15" class="edge"><title>Node13&#45;&gt;Node16</title>
<path fill="none" stroke="midnightblue" d="M413.422,-64.5C424.631,-64.5 436.389,-64.5 447.723,-64.5"/>
<polygon fill="midnightblue" stroke="midnightblue" points="447.985,-68.0001 457.985,-64.5 447.985,-61.0001 447.985,-68.0001"/>
</g>
<!-- Node17 -->
<g id="node17" class="node"><title>Node17</title>
<g id="a_node17"><a xlink:href="classmodule__sf__noahlsm.html#a5beb42f74e1a357ccfc0e904f356b33a" target="_top" xlink:title="module_sf_noahlsm::\lfrh2o">
<polygon fill="white" stroke="black" points="613,-49.5 613,-79.5 723,-79.5 723,-49.5 613,-49.5"/>
<text text-anchor="start" x="621" y="-67.5" font-family="Helvetica,sans-Serif" font-size="10.00">module_sf_noahlsm::</text>
<text text-anchor="middle" x="668" y="-56.5" font-family="Helvetica,sans-Serif" font-size="10.00">frh2o</text>
</a>
</g>
</g>
<!-- Node16&#45;&gt;Node17 -->
<g id="edge16" class="edge"><title>Node16&#45;&gt;Node17</title>
<path fill="none" stroke="midnightblue" d="M568.373,-64.5C579.421,-64.5 591.142,-64.5 602.502,-64.5"/>
<polygon fill="midnightblue" stroke="midnightblue" points="602.802,-68.0001 612.802,-64.5 602.802,-61.0001 602.802,-68.0001"/>
</g>
<!-- Node18&#45;&gt;Node10 -->
<g id="edge19" class="edge"><title>Node18&#45;&gt;Node10</title>
<path fill="none" stroke="midnightblue" d="M398.054,-123.546C403.31,-126.156 408.424,-129.134 413,-132.5 433.353,-147.472 428.605,-161.585 449,-176.5 451.484,-178.317 454.119,-180.023 456.847,-181.623"/>
<polygon fill="midnightblue" stroke="midnightblue" points="455.333,-184.782 465.807,-186.374 458.612,-178.597 455.333,-184.782"/>
</g>
</g>
</svg>
