<?xml version="1.0" encoding="UTF-8" standalone="no"?>
<!DOCTYPE svg PUBLIC "-//W3C//DTD SVG 1.1//EN"
 "http://www.w3.org/Graphics/SVG/1.1/DTD/svg11.dtd">
<!-- Generated by graphviz version 2.38.0 (20140413.2041)
 -->
<!-- Title: linear_theory_winds::calc_moist_stability Pages: 1 -->
<svg width="894pt" height="88pt"
 viewBox="0.00 0.00 894.00 88.00" xmlns="http://www.w3.org/2000/svg" xmlns:xlink="http://www.w3.org/1999/xlink">
<g id="graph0" class="graph" transform="scale(1 1) rotate(0) translate(4 84)">
<title>linear_theory_winds::calc_moist_stability</title>
<polygon fill="white" stroke="none" points="-4,4 -4,-84 890,-84 890,4 -4,4"/>
<!-- Node1 -->
<g id="node1" class="node"><title>Node1</title>
<polygon fill="#bfbfbf" stroke="black" points="0,-24.5 0,-54.5 109,-54.5 109,-24.5 0,-24.5"/>
<text text-anchor="start" x="8" y="-42.5" font-family="Helvetica,sans-Serif" font-size="10.00">linear_theory_winds</text>
<text text-anchor="middle" x="54.5" y="-31.5" font-family="Helvetica,sans-Serif" font-size="10.00">::calc_moist_stability</text>
</g>
<!-- Node2 -->
<g id="node2" class="node"><title>Node2</title>
<g id="a_node2"><a xlink:href="classlinear__theory__winds.html#a027dc1b837380d8d4fbe2e9689e9ed46" target="_top" xlink:title="linear_theory_winds\l::calc_stability">
<polygon fill="white" stroke="black" points="145,-24.5 145,-54.5 248,-54.5 248,-24.5 145,-24.5"/>
<text text-anchor="start" x="153" y="-42.5" font-family="Helvetica,sans-Serif" font-size="10.00">linear_theory_winds</text>
<text text-anchor="middle" x="196.5" y="-31.5" font-family="Helvetica,sans-Serif" font-size="10.00">::calc_stability</text>
</a>
</g>
</g>
<!-- Node1&#45;&gt;Node2 -->
<g id="edge1" class="edge"><title>Node1&#45;&gt;Node2</title>
<path fill="none" stroke="midnightblue" d="M119.238,-39.5C127.843,-39.5 136.574,-39.5 144.907,-39.5"/>
<polygon fill="midnightblue" stroke="midnightblue" points="119.227,-36.0001 109.227,-39.5 119.227,-43.0001 119.227,-36.0001"/>
</g>
<!-- Node3 -->
<g id="node3" class="node"><title>Node3</title>
<g id="a_node3"><a xlink:href="classlinear__theory__winds.html#a2e662c05e82b0515704c9ab54f49373a" target="_top" xlink:title="linear_theory_winds\l::spatial_winds">
<polygon fill="white" stroke="black" points="284,-24.5 284,-54.5 387,-54.5 387,-24.5 284,-24.5"/>
<text text-anchor="start" x="292" y="-42.5" font-family="Helvetica,sans-Serif" font-size="10.00">linear_theory_winds</text>
<text text-anchor="middle" x="335.5" y="-31.5" font-family="Helvetica,sans-Serif" font-size="10.00">::spatial_winds</text>
</a>
</g>
</g>
<!-- Node2&#45;&gt;Node3 -->
<g id="edge2" class="edge"><title>Node2&#45;&gt;Node3</title>
<path fill="none" stroke="midnightblue" d="M258.32,-39.5C266.772,-39.5 275.382,-39.5 283.626,-39.5"/>
<polygon fill="midnightblue" stroke="midnightblue" points="258.125,-36.0001 248.125,-39.5 258.124,-43.0001 258.125,-36.0001"/>
</g>
<!-- Node4 -->
<g id="node4" class="node"><title>Node4</title>
<g id="a_node4"><a xlink:href="classlinear__theory__winds.html#a248a832d459ec9cd399c372d2ae9cb0a" target="_top" xlink:title="linear_theory_winds\l::linear_perturb">
<polygon fill="white" stroke="black" points="423,-24.5 423,-54.5 526,-54.5 526,-24.5 423,-24.5"/>
<text text-anchor="start" x="431" y="-42.5" font-family="Helvetica,sans-Serif" font-size="10.00">linear_theory_winds</text>
<text text-anchor="middle" x="474.5" y="-31.5" font-family="Helvetica,sans-Serif" font-size="10.00">::linear_perturb</text>
</a>
</g>
</g>
<!-- Node3&#45;&gt;Node4 -->
<g id="edge3" class="edge"><title>Node3&#45;&gt;Node4</title>
<path fill="none" stroke="midnightblue" d="M397.32,-39.5C405.772,-39.5 414.382,-39.5 422.626,-39.5"/>
<polygon fill="midnightblue" stroke="midnightblue" points="397.125,-36.0001 387.125,-39.5 397.124,-43.0001 397.125,-36.0001"/>
</g>
<!-- Node5 -->
<g id="node5" class="node"><title>Node5</title>
<g id="a_node5"><a xlink:href="classboundary__conditions.html#ac4cfb5127bfecdc6e088ef949694ea4a" target="_top" xlink:title=" Remove linear theory topographic winds perturbations from the low resolution wind field...">
<polygon fill="white" stroke="black" points="562,-46.5 562,-76.5 676,-76.5 676,-46.5 562,-46.5"/>
<text text-anchor="start" x="570" y="-64.5" font-family="Helvetica,sans-Serif" font-size="10.00">boundary_conditions</text>
<text text-anchor="middle" x="619" y="-53.5" font-family="Helvetica,sans-Serif" font-size="10.00">::remove_linear_winds</text>
</a>
</g>
</g>
<!-- Node4&#45;&gt;Node5 -->
<g id="edge4" class="edge"><title>Node4&#45;&gt;Node5</title>
<path fill="none" stroke="midnightblue" d="M536.295,-48.886C544.728,-50.1878 553.36,-51.5205 561.706,-52.809"/>
<polygon fill="midnightblue" stroke="midnightblue" points="536.558,-45.3852 526.141,-47.3183 535.49,-52.3032 536.558,-45.3852"/>
</g>
<!-- Node9 -->
<g id="node9" class="node"><title>Node9</title>
<g id="a_node9"><a xlink:href="classwind.html#a582192f02996b37543b966df84af1e78" target="_top" xlink:title="wind::update_winds">
<polygon fill="white" stroke="black" points="567.5,-8 567.5,-27 670.5,-27 670.5,-8 567.5,-8"/>
<text text-anchor="middle" x="619" y="-15" font-family="Helvetica,sans-Serif" font-size="10.00">wind::update_winds</text>
</a>
</g>
</g>
<!-- Node4&#45;&gt;Node9 -->
<g id="edge9" class="edge"><title>Node4&#45;&gt;Node9</title>
<path fill="none" stroke="midnightblue" d="M536.265,-30.1188C546.519,-28.5357 557.07,-26.9068 567.042,-25.3673"/>
<polygon fill="midnightblue" stroke="midnightblue" points="535.49,-26.6968 526.141,-31.6817 536.558,-33.6148 535.49,-26.6968"/>
</g>
<!-- Node6 -->
<g id="node6" class="node"><title>Node6</title>
<g id="a_node6"><a xlink:href="classboundary__conditions.html#a07a42f467f470ada98e0a35fd5a75f66" target="_top" xlink:title=" Initialize the boundary conditions (read inital conditions, etc.) ">
<polygon fill="white" stroke="black" points="712,-49.5 712,-79.5 818,-79.5 818,-49.5 712,-49.5"/>
<text text-anchor="start" x="720" y="-67.5" font-family="Helvetica,sans-Serif" font-size="10.00">boundary_conditions</text>
<text text-anchor="middle" x="765" y="-56.5" font-family="Helvetica,sans-Serif" font-size="10.00">::bc_init</text>
</a>
</g>
</g>
<!-- Node5&#45;&gt;Node6 -->
<g id="edge5" class="edge"><title>Node5&#45;&gt;Node6</title>
<path fill="none" stroke="midnightblue" d="M686.338,-62.882C694.811,-63.0586 703.389,-63.2373 711.599,-63.4083"/>
<polygon fill="midnightblue" stroke="midnightblue" points="686.157,-59.3776 676.086,-62.6685 686.011,-66.3761 686.157,-59.3776"/>
</g>
<!-- Node8 -->
<g id="node8" class="node"><title>Node8</title>
<g id="a_node8"><a xlink:href="classboundary__conditions.html#a1e8385c37634f3d7f70ea7c749dcda11" target="_top" xlink:title=" Read in the next timestep of input data and apply to the dXdt grids as appropriate. ">
<polygon fill="white" stroke="black" points="712,-0.5 712,-30.5 818,-30.5 818,-0.5 712,-0.5"/>
<text text-anchor="start" x="720" y="-18.5" font-family="Helvetica,sans-Serif" font-size="10.00">boundary_conditions</text>
<text text-anchor="middle" x="765" y="-7.5" font-family="Helvetica,sans-Serif" font-size="10.00">::bc_update</text>
</a>
</g>
</g>
<!-- Node5&#45;&gt;Node8 -->
<g id="edge7" class="edge"><title>Node5&#45;&gt;Node8</title>
<path fill="none" stroke="midnightblue" d="M677.045,-43.2772C690.202,-39.0743 704.056,-34.6487 716.743,-30.596"/>
<polygon fill="midnightblue" stroke="midnightblue" points="675.612,-40.0608 667.151,-46.4379 677.742,-46.7289 675.612,-40.0608"/>
</g>
<!-- Node7 -->
<g id="node7" class="node"><title>Node7</title>
<g id="a_node7"><a xlink:href="driver_8f90.html#ab1e5a5816a57fc6e95d9563c2bb53590" target="_top" xlink:title=" Main Program ">
<polygon fill="white" stroke="black" points="854,-30 854,-49 886,-49 886,-30 854,-30"/>
<text text-anchor="middle" x="870" y="-37" font-family="Helvetica,sans-Serif" font-size="10.00">icar</text>
</a>
</g>
</g>
<!-- Node6&#45;&gt;Node7 -->
<g id="edge6" class="edge"><title>Node6&#45;&gt;Node7</title>
<path fill="none" stroke="midnightblue" d="M828.071,-49.4343C837.517,-47.1414 846.468,-44.9689 853.576,-43.2436"/>
<polygon fill="midnightblue" stroke="midnightblue" points="826.996,-46.0935 818.104,-51.8535 828.647,-52.896 826.996,-46.0935"/>
</g>
<!-- Node8&#45;&gt;Node7 -->
<g id="edge8" class="edge"><title>Node8&#45;&gt;Node7</title>
<path fill="none" stroke="midnightblue" d="M828.071,-29.9631C837.517,-32.1642 846.468,-34.2498 853.576,-35.9061"/>
<polygon fill="midnightblue" stroke="midnightblue" points="828.637,-26.5013 818.104,-27.6406 827.048,-33.3187 828.637,-26.5013"/>
</g>
<!-- Node9&#45;&gt;Node6 -->
<g id="edge10" class="edge"><title>Node9&#45;&gt;Node6</title>
<path fill="none" stroke="midnightblue" d="M658.84,-30.1768C677.041,-36.1175 698.859,-43.2388 717.893,-49.4512"/>
<polygon fill="midnightblue" stroke="midnightblue" points="659.733,-26.7868 649.141,-27.0112 657.561,-33.4413 659.733,-26.7868"/>
</g>
<!-- Node9&#45;&gt;Node8 -->
<g id="edge11" class="edge"><title>Node9&#45;&gt;Node8</title>
<path fill="none" stroke="midnightblue" d="M680.895,-16.6542C691.156,-16.5117 701.725,-16.3649 711.742,-16.2258"/>
<polygon fill="midnightblue" stroke="midnightblue" points="680.719,-13.1562 670.769,-16.7949 680.817,-20.1556 680.719,-13.1562"/>
</g>
</g>
</svg>
