<?xml version="1.0" encoding="UTF-8" standalone="no"?>
<!DOCTYPE svg PUBLIC "-//W3C//DTD SVG 1.1//EN"
 "http://www.w3.org/Graphics/SVG/1.1/DTD/svg11.dtd">
<!-- Generated by graphviz version 2.38.0 (20140413.2041)
 -->
<!-- Title: boundary_conditions::mean_winds Pages: 1 -->
<svg width="251pt" height="39pt"
 viewBox="0.00 0.00 251.00 39.00" xmlns="http://www.w3.org/2000/svg" xmlns:xlink="http://www.w3.org/1999/xlink">
<g id="graph0" class="graph" transform="scale(1 1) rotate(0) translate(4 35)">
<title>boundary_conditions::mean_winds</title>
<polygon fill="white" stroke="none" points="-4,4 -4,-35 247,-35 247,4 -4,4"/>
<!-- Node1 -->
<g id="node1" class="node"><title>Node1</title>
<polygon fill="#bfbfbf" stroke="black" points="0,-0.5 0,-30.5 106,-30.5 106,-0.5 0,-0.5"/>
<text text-anchor="start" x="8" y="-18.5" font-family="Helvetica,sans-Serif" font-size="10.00">boundary_conditions</text>
<text text-anchor="middle" x="53" y="-7.5" font-family="Helvetica,sans-Serif" font-size="10.00">::mean_winds</text>
</g>
<!-- Node2 -->
<g id="node2" class="node"><title>Node2</title>
<g id="a_node2"><a xlink:href="interfaceio__routines_1_1io__read.html#a9b6dacfccbb234dd949e7136e5b67f8c" target="_top" xlink:title=" Same as io_read6d but for 3&#45;dimensional data ">
<polygon fill="white" stroke="black" points="142,-0.5 142,-30.5 243,-30.5 243,-0.5 142,-0.5"/>
<text text-anchor="start" x="150" y="-18.5" font-family="Helvetica,sans-Serif" font-size="10.00">io_routines::io_read</text>
<text text-anchor="middle" x="192.5" y="-7.5" font-family="Helvetica,sans-Serif" font-size="10.00">::io_read3d</text>
</a>
</g>
</g>
<!-- Node1&#45;&gt;Node2 -->
<g id="edge1" class="edge"><title>Node1&#45;&gt;Node2</title>
<path fill="none" stroke="midnightblue" d="M106.375,-15.5C114.684,-15.5 123.332,-15.5 131.794,-15.5"/>
<polygon fill="midnightblue" stroke="midnightblue" points="131.988,-19.0001 141.988,-15.5 131.988,-12.0001 131.988,-19.0001"/>
</g>
</g>
</svg>
