<?xml version="1.0" encoding="UTF-8" standalone="no"?>
<!DOCTYPE svg PUBLIC "-//W3C//DTD SVG 1.1//EN"
 "http://www.w3.org/Graphics/SVG/1.1/DTD/svg11.dtd">
<!-- Generated by graphviz version 2.38.0 (20140413.2041)
 -->
<!-- Title: planetary_boundary_layer::pbl Pages: 1 -->
<svg width="297pt" height="39pt"
 viewBox="0.00 0.00 297.00 39.00" xmlns="http://www.w3.org/2000/svg" xmlns:xlink="http://www.w3.org/1999/xlink">
<g id="graph0" class="graph" transform="scale(1 1) rotate(0) translate(4 35)">
<title>planetary_boundary_layer::pbl</title>
<polygon fill="white" stroke="none" points="-4,4 -4,-35 293,-35 293,4 -4,4"/>
<!-- Node1 -->
<g id="node1" class="node"><title>Node1</title>
<polygon fill="#bfbfbf" stroke="black" points="0,-0.5 0,-30.5 101,-30.5 101,-0.5 0,-0.5"/>
<text text-anchor="start" x="8" y="-18.5" font-family="Helvetica,sans-Serif" font-size="10.00">planetary_boundary</text>
<text text-anchor="middle" x="50.5" y="-7.5" font-family="Helvetica,sans-Serif" font-size="10.00">_layer::pbl</text>
</g>
<!-- Node2 -->
<g id="node2" class="node"><title>Node2</title>
<g id="a_node2"><a xlink:href="classtime__step.html#a2c022f11247af72e607b1493289aa974" target="_top" xlink:title=" Step forward one IO time step. ">
<polygon fill="white" stroke="black" points="137,-6 137,-25 221,-25 221,-6 137,-6"/>
<text text-anchor="middle" x="179" y="-13" font-family="Helvetica,sans-Serif" font-size="10.00">time_step::step</text>
</a>
</g>
</g>
<!-- Node1&#45;&gt;Node2 -->
<g id="edge1" class="edge"><title>Node1&#45;&gt;Node2</title>
<path fill="none" stroke="midnightblue" d="M111.18,-15.5C119.805,-15.5 128.52,-15.5 136.679,-15.5"/>
<polygon fill="midnightblue" stroke="midnightblue" points="111.133,-12.0001 101.133,-15.5 111.133,-19.0001 111.133,-12.0001"/>
</g>
<!-- Node3 -->
<g id="node3" class="node"><title>Node3</title>
<g id="a_node3"><a xlink:href="driver_8f90.html#ab1e5a5816a57fc6e95d9563c2bb53590" target="_top" xlink:title=" Main Program ">
<polygon fill="white" stroke="black" points="257,-6 257,-25 289,-25 289,-6 257,-6"/>
<text text-anchor="middle" x="273" y="-13" font-family="Helvetica,sans-Serif" font-size="10.00">icar</text>
</a>
</g>
</g>
<!-- Node2&#45;&gt;Node3 -->
<g id="edge2" class="edge"><title>Node2&#45;&gt;Node3</title>
<path fill="none" stroke="midnightblue" d="M231.253,-15.5C240.521,-15.5 249.5,-15.5 256.66,-15.5"/>
<polygon fill="midnightblue" stroke="midnightblue" points="231.156,-12.0001 221.156,-15.5 231.156,-19.0001 231.156,-12.0001"/>
</g>
</g>
</svg>
