<?xml version="1.0" encoding="UTF-8" standalone="no"?>
<!DOCTYPE svg PUBLIC "-//W3C//DTD SVG 1.1//EN"
 "http://www.w3.org/Graphics/SVG/1.1/DTD/svg11.dtd">
<!-- Generated by graphviz version 2.32.0 (20130809.1645)
 -->
<!-- Title: module_ra_simple::ra_simple Pages: 1 -->
<svg width="846pt" height="52pt"
 viewBox="0.00 0.00 846.00 52.00" xmlns="http://www.w3.org/2000/svg" xmlns:xlink="http://www.w3.org/1999/xlink">
<g id="graph0" class="graph" transform="scale(1 1) rotate(0) translate(4 48)">
<title>module_ra_simple::ra_simple</title>
<polygon fill="white" stroke="white" points="-4,5 -4,-48 843,-48 843,5 -4,5"/>
<!-- Node1 -->
<g id="node1" class="node"><title>Node1</title>
<polygon fill="#bfbfbf" stroke="black" points="0,-14 0,-44 110,-44 110,-14 0,-14"/>
<text text-anchor="start" x="8" y="-32" font-family="Helvetica,sans-Serif" font-size="10.00">module_ra_simple::ra</text>
<text text-anchor="middle" x="55" y="-21" font-family="Helvetica,sans-Serif" font-size="10.00">_simple</text>
</g>
<!-- Node2 -->
<g id="node2" class="node"><title>Node2</title>
<g id="a_node2"><a xlink:href="classradiation.html#aba1a06d27af96fe11d576458c8ccfe77" target="_top" xlink:title="radiation::rad">
<polygon fill="white" stroke="black" points="146.5,-19.5 146.5,-38.5 219.5,-38.5 219.5,-19.5 146.5,-19.5"/>
<text text-anchor="middle" x="183" y="-26.5" font-family="Helvetica,sans-Serif" font-size="10.00">radiation::rad</text>
</a>
</g>
</g>
<!-- Node1&#45;&gt;Node2 -->
<g id="edge1" class="edge"><title>Node1&#45;&gt;Node2</title>
<path fill="none" stroke="midnightblue" d="M120.297,-29C129.292,-29 138.251,-29 146.441,-29"/>
<polygon fill="midnightblue" stroke="midnightblue" points="120.167,-25.5001 110.167,-29 120.167,-32.5001 120.167,-25.5001"/>
</g>
<!-- Node3 -->
<g id="node3" class="node"><title>Node3</title>
<g id="a_node3"><a xlink:href="classtime__step.html#a2c022f11247af72e607b1493289aa974" target="_top" xlink:title=" Step forward one IO time step. ">
<polygon fill="white" stroke="black" points="686,-19.5 686,-38.5 770,-38.5 770,-19.5 686,-19.5"/>
<text text-anchor="middle" x="728" y="-26.5" font-family="Helvetica,sans-Serif" font-size="10.00">time_step::step</text>
</a>
</g>
</g>
<!-- Node2&#45;&gt;Node3 -->
<g id="edge2" class="edge"><title>Node2&#45;&gt;Node3</title>
<path fill="none" stroke="midnightblue" d="M229.802,-29C333.772,-29 586.289,-29 685.755,-29"/>
<polygon fill="midnightblue" stroke="midnightblue" points="229.628,-25.5001 219.628,-29 229.628,-32.5001 229.628,-25.5001"/>
</g>
<!-- Node5 -->
<g id="node5" class="node"><title>Node5</title>
<g id="a_node5"><a xlink:href="classmodule__cu__kf.html#afbc0670c02010c630409b1796e89a3fb" target="_top" xlink:title="module_cu_kf::kfpara">
<polygon fill="white" stroke="black" points="256,-0.5 256,-19.5 366,-19.5 366,-0.5 256,-0.5"/>
<text text-anchor="middle" x="311" y="-7.5" font-family="Helvetica,sans-Serif" font-size="10.00">module_cu_kf::kfpara</text>
</a>
</g>
</g>
<!-- Node2&#45;&gt;Node5 -->
<g id="edge4" class="edge"><title>Node2&#45;&gt;Node5</title>
<path fill="none" stroke="midnightblue" d="M229.797,-22.094C238.237,-20.8214 247.122,-19.4816 255.782,-18.1757"/>
<polygon fill="midnightblue" stroke="midnightblue" points="229.136,-18.6541 219.77,-23.6062 230.18,-25.5759 229.136,-18.6541"/>
</g>
<!-- Node4 -->
<g id="node4" class="node"><title>Node4</title>
<g id="a_node4"><a xlink:href="driver_8f90.html#ab1e5a5816a57fc6e95d9563c2bb53590" target="_top" xlink:title=" Main Program ">
<polygon fill="white" stroke="black" points="806,-19.5 806,-38.5 838,-38.5 838,-19.5 806,-19.5"/>
<text text-anchor="middle" x="822" y="-26.5" font-family="Helvetica,sans-Serif" font-size="10.00">icar</text>
</a>
</g>
</g>
<!-- Node3&#45;&gt;Node4 -->
<g id="edge3" class="edge"><title>Node3&#45;&gt;Node4</title>
<path fill="none" stroke="midnightblue" d="M780.253,-29C789.521,-29 798.5,-29 805.66,-29"/>
<polygon fill="midnightblue" stroke="midnightblue" points="780.156,-25.5001 770.156,-29 780.156,-32.5001 780.156,-25.5001"/>
</g>
<!-- Node6 -->
<g id="node6" class="node"><title>Node6</title>
<g id="a_node6"><a xlink:href="classmodule__cu__kf.html#a273d9ce9bce064bfc092d6940bea4e27" target="_top" xlink:title="module_cu_kf::kfcps">
<polygon fill="white" stroke="black" points="402.5,-0.5 402.5,-19.5 509.5,-19.5 509.5,-0.5 402.5,-0.5"/>
<text text-anchor="middle" x="456" y="-7.5" font-family="Helvetica,sans-Serif" font-size="10.00">module_cu_kf::kfcps</text>
</a>
</g>
</g>
<!-- Node5&#45;&gt;Node6 -->
<g id="edge5" class="edge"><title>Node5&#45;&gt;Node6</title>
<path fill="none" stroke="midnightblue" d="M376.203,-10C384.925,-10 393.794,-10 402.282,-10"/>
<polygon fill="midnightblue" stroke="midnightblue" points="376.062,-6.5001 366.062,-10 376.062,-13.5001 376.062,-6.5001"/>
</g>
<!-- Node7 -->
<g id="node7" class="node"><title>Node7</title>
<g id="a_node7"><a xlink:href="classconvection.html#a06b811540eb747b3734e7fb35de41782" target="_top" xlink:title="convection::convect">
<polygon fill="white" stroke="black" points="546,-0.5 546,-19.5 650,-19.5 650,-0.5 546,-0.5"/>
<text text-anchor="middle" x="598" y="-7.5" font-family="Helvetica,sans-Serif" font-size="10.00">convection::convect</text>
</a>
</g>
</g>
<!-- Node6&#45;&gt;Node7 -->
<g id="edge6" class="edge"><title>Node6&#45;&gt;Node7</title>
<path fill="none" stroke="midnightblue" d="M519.615,-10C528.295,-10 537.127,-10 545.571,-10"/>
<polygon fill="midnightblue" stroke="midnightblue" points="519.529,-6.5001 509.529,-10 519.529,-13.5001 519.529,-6.5001"/>
</g>
<!-- Node7&#45;&gt;Node3 -->
<g id="edge7" class="edge"><title>Node7&#45;&gt;Node3</title>
<path fill="none" stroke="midnightblue" d="M660.406,-19.115C669.051,-20.3982 677.759,-21.6907 685.897,-22.8988"/>
<polygon fill="midnightblue" stroke="midnightblue" points="660.731,-15.6249 650.325,-17.6185 659.703,-22.549 660.731,-15.6249"/>
</g>
</g>
</svg>
