<?xml version="1.0" encoding="UTF-8" standalone="no"?>
<!DOCTYPE svg PUBLIC "-//W3C//DTD SVG 1.1//EN"
 "http://www.w3.org/Graphics/SVG/1.1/DTD/svg11.dtd">
<!-- Generated by graphviz version 2.32.0 (20130809.1645)
 -->
<!-- Title: module_ra_simple::calc_solar_elevation Pages: 1 -->
<svg width="420pt" height="66pt"
 viewBox="0.00 0.00 420.00 66.00" xmlns="http://www.w3.org/2000/svg" xmlns:xlink="http://www.w3.org/1999/xlink">
<g id="graph0" class="graph" transform="scale(1 1) rotate(0) translate(4 62)">
<title>module_ra_simple::calc_solar_elevation</title>
<polygon fill="white" stroke="white" points="-4,5 -4,-62 417,-62 417,5 -4,5"/>
<!-- Node1 -->
<g id="node1" class="node"><title>Node1</title>
<polygon fill="#bfbfbf" stroke="black" points="0.5,-14 0.5,-44 119.5,-44 119.5,-14 0.5,-14"/>
<text text-anchor="start" x="8.5" y="-32" font-family="Helvetica,sans-Serif" font-size="10.00">module_ra_simple::calc</text>
<text text-anchor="middle" x="60" y="-21" font-family="Helvetica,sans-Serif" font-size="10.00">_solar_elevation</text>
</g>
<!-- Node2 -->
<g id="node2" class="node"><title>Node2</title>
<g id="a_node2"><a xlink:href="classtime.html#adfcbe10943e169e25a9ee15ddb3ce70b" target="_top" xlink:title="time::calc_day_of_year">
<polygon fill="white" stroke="black" points="156,-19.5 156,-38.5 274,-38.5 274,-19.5 156,-19.5"/>
<text text-anchor="middle" x="215" y="-26.5" font-family="Helvetica,sans-Serif" font-size="10.00">time::calc_day_of_year</text>
</a>
</g>
</g>
<!-- Node1&#45;&gt;Node2 -->
<g id="edge1" class="edge"><title>Node1&#45;&gt;Node2</title>
<path fill="none" stroke="midnightblue" d="M119.716,-29C128.257,-29 137.11,-29 145.818,-29"/>
<polygon fill="midnightblue" stroke="midnightblue" points="145.946,-32.5001 155.946,-29 145.946,-25.5001 145.946,-32.5001"/>
</g>
<!-- Node3 -->
<g id="node3" class="node"><title>Node3</title>
<g id="a_node3"><a xlink:href="classtime.html#a8736f37f83c6d8f62957c70df2239693" target="_top" xlink:title="time::calendar_date">
<polygon fill="white" stroke="black" points="310,-38.5 310,-57.5 412,-57.5 412,-38.5 310,-38.5"/>
<text text-anchor="middle" x="361" y="-45.5" font-family="Helvetica,sans-Serif" font-size="10.00">time::calendar_date</text>
</a>
</g>
</g>
<!-- Node2&#45;&gt;Node3 -->
<g id="edge2" class="edge"><title>Node2&#45;&gt;Node3</title>
<path fill="none" stroke="midnightblue" d="M274.155,-36.6733C282.683,-37.7985 291.48,-38.9592 300.043,-40.089"/>
<polygon fill="midnightblue" stroke="midnightblue" points="299.586,-43.559 309.958,-41.3972 300.502,-36.6191 299.586,-43.559"/>
</g>
<!-- Node4 -->
<g id="node4" class="node"><title>Node4</title>
<g id="a_node4"><a xlink:href="classtime.html#a22e63418fe5d559327ca090619d097e0" target="_top" xlink:title="time::date_to_mjd">
<polygon fill="white" stroke="black" points="313.5,-0.5 313.5,-19.5 408.5,-19.5 408.5,-0.5 313.5,-0.5"/>
<text text-anchor="middle" x="361" y="-7.5" font-family="Helvetica,sans-Serif" font-size="10.00">time::date_to_mjd</text>
</a>
</g>
</g>
<!-- Node2&#45;&gt;Node4 -->
<g id="edge3" class="edge"><title>Node2&#45;&gt;Node4</title>
<path fill="none" stroke="midnightblue" d="M274.155,-21.3267C283.671,-20.0712 293.522,-18.7714 303.009,-17.5197"/>
<polygon fill="midnightblue" stroke="midnightblue" points="303.671,-20.9627 313.128,-16.1846 302.756,-14.0228 303.671,-20.9627"/>
</g>
</g>
</svg>
