<?xml version="1.0" encoding="UTF-8" standalone="no"?>
<!DOCTYPE svg PUBLIC "-//W3C//DTD SVG 1.1//EN"
 "http://www.w3.org/Graphics/SVG/1.1/DTD/svg11.dtd">
<!-- Generated by graphviz version 2.32.0 (20130809.1645)
 -->
<!-- Title: module_cu_tiedtke::cumastr_new Pages: 1 -->
<!--zoomable 430 -->
<svg id="main" version="1.1" xmlns="http://www.w3.org/2000/svg" xmlns:xlink="http://www.w3.org/1999/xlink" xml:space="preserve" onload="init(evt)">
<style type="text/css"><![CDATA[
.edge:hover path { stroke: red; }
.edge:hover polygon { stroke: red; fill: red; }
]]></style>
<script type="text/javascript"><![CDATA[
var edges = document.getElementsByTagName('g');
if (edges && edges.length) {
  for (var i=0;i<edges.length;i++) {
    if (edges[i].id.substr(0,4)=='edge') {
      edges[i].setAttribute('class','edge');
    }
  }
}
]]></script>
        <defs>
                <circle id="rim" cx="0" cy="0" r="7"/>
                <circle id="rim2" cx="0" cy="0" r="3.5"/>
                <g id="zoomPlus">
                        <use xlink:href="#rim" fill="#404040">
                                <set attributeName="fill" to="#808080" begin="zoomplus.mouseover" end="zoomplus.mouseout"/>
                        </use>
                        <path d="M-4,0h8M0,-4v8" fill="none" stroke="white" stroke-width="1.5" pointer-events="none"/>
                </g>
                <g id="zoomMin">
                        <use xlink:href="#rim" fill="#404040">
                                <set attributeName="fill" to="#808080" begin="zoomminus.mouseover" end="zoomminus.mouseout"/>
                        </use>
                        <path d="M-4,0h8" fill="none" stroke="white" stroke-width="1.5" pointer-events="none"/>
                </g>
                <g id="dirArrow">
                        <path fill="none" stroke="white" stroke-width="1.5" d="M0,-3.0v7 M-2.5,-0.5L0,-3.0L2.5,-0.5"/>
                </g>
               <g id="resetDef">
                       <use xlink:href="#rim2" fill="#404040">
                               <set attributeName="fill" to="#808080" begin="reset.mouseover" end="reset.mouseout"/>
                       </use>
               </g>
        </defs>

<script type="text/javascript">
var viewWidth = 556;
var viewHeight = 430;
var sectionId = 'dynsection-21';
</script>
<script xlink:href="svgpan.js"/>
<svg id="graph" class="graph">
<g id="viewport">
<title>module_cu_tiedtke::cumastr_new</title>
<polygon fill="white" stroke="white" points="-4,5 -4,-426 553,-426 553,5 -4,5"/>
<!-- Node1 -->
<g id="node1" class="node"><title>Node1</title>
<polygon fill="#bfbfbf" stroke="black" points="0,-196 0,-226 104,-226 104,-196 0,-196"/>
<text text-anchor="start" x="8" y="-214" font-family="Helvetica,sans-Serif" font-size="10.00">module_cu_tiedtke::</text>
<text text-anchor="middle" x="52" y="-203" font-family="Helvetica,sans-Serif" font-size="10.00">cumastr_new</text>
</g>
<!-- Node2 -->
<g id="node2" class="node"><title>Node2</title>
<g id="a_node2"><a xlink:href="classmodule__cu__tiedtke.html#ad58bc964dc1ba2f7c52ec660f3ac783a" target="_top" xlink:title="module_cu_tiedtke::\lcuini">
<polygon fill="white" stroke="black" points="140,-392 140,-422 244,-422 244,-392 140,-392"/>
<text text-anchor="start" x="148" y="-410" font-family="Helvetica,sans-Serif" font-size="10.00">module_cu_tiedtke::</text>
<text text-anchor="middle" x="192" y="-399" font-family="Helvetica,sans-Serif" font-size="10.00">cuini</text>
</a>
</g>
</g>
<!-- Node1&#45;&gt;Node2 -->
<g id="edge1" class="edge"><title>Node1&#45;&gt;Node2</title>
<path fill="none" stroke="midnightblue" d="M57.1392,-226.227C66.6682,-258.733 93.0198,-335.713 140,-382 141.422,-383.401 142.939,-384.738 144.526,-386.01"/>
<polygon fill="midnightblue" stroke="midnightblue" points="142.725,-389.02 152.935,-391.848 146.717,-383.27 142.725,-389.02"/>
</g>
<!-- Node7 -->
<g id="node7" class="node"><title>Node7</title>
<g id="a_node7"><a xlink:href="classmodule__cu__tiedtke.html#a252e2ab4e675cefd721c0e6b4c7d0796" target="_top" xlink:title="module_cu_tiedtke::\lcubase">
<polygon fill="white" stroke="black" points="140,-343 140,-373 244,-373 244,-343 140,-343"/>
<text text-anchor="start" x="148" y="-361" font-family="Helvetica,sans-Serif" font-size="10.00">module_cu_tiedtke::</text>
<text text-anchor="middle" x="192" y="-350" font-family="Helvetica,sans-Serif" font-size="10.00">cubase</text>
</a>
</g>
</g>
<!-- Node1&#45;&gt;Node7 -->
<g id="edge6" class="edge"><title>Node1&#45;&gt;Node7</title>
<path fill="none" stroke="midnightblue" d="M60.6809,-226.355C73.895,-251.478 103.103,-301.697 140,-333 141.772,-334.503 143.649,-335.941 145.598,-337.314"/>
<polygon fill="midnightblue" stroke="midnightblue" points="144.166,-340.547 154.494,-342.908 147.892,-334.622 144.166,-340.547"/>
</g>
<!-- Node8 -->
<g id="node8" class="node"><title>Node8</title>
<g id="a_node8"><a xlink:href="classmodule__cu__tiedtke.html#a75265ba406fbb983606db3742939bc18" target="_top" xlink:title="module_cu_tiedtke::\lcutype">
<polygon fill="white" stroke="black" points="140,-294 140,-324 244,-324 244,-294 140,-294"/>
<text text-anchor="start" x="148" y="-312" font-family="Helvetica,sans-Serif" font-size="10.00">module_cu_tiedtke::</text>
<text text-anchor="middle" x="192" y="-301" font-family="Helvetica,sans-Serif" font-size="10.00">cutype</text>
</a>
</g>
</g>
<!-- Node1&#45;&gt;Node8 -->
<g id="edge8" class="edge"><title>Node1&#45;&gt;Node8</title>
<path fill="none" stroke="midnightblue" d="M68.7472,-226.252C85.5007,-241.972 113.229,-266.577 140,-284 142.727,-285.775 145.599,-287.508 148.532,-289.18"/>
<polygon fill="midnightblue" stroke="midnightblue" points="146.974,-292.316 157.436,-293.995 150.304,-286.159 146.974,-292.316"/>
</g>
<!-- Node9 -->
<g id="node9" class="node"><title>Node9</title>
<g id="a_node9"><a xlink:href="classmodule__cu__tiedtke.html#ac9ae922d9f0655dae4887093c89d2909" target="_top" xlink:title="module_cu_tiedtke::\lcuasc_new">
<polygon fill="white" stroke="black" points="140,-147 140,-177 244,-177 244,-147 140,-147"/>
<text text-anchor="start" x="148" y="-165" font-family="Helvetica,sans-Serif" font-size="10.00">module_cu_tiedtke::</text>
<text text-anchor="middle" x="192" y="-154" font-family="Helvetica,sans-Serif" font-size="10.00">cuasc_new</text>
</a>
</g>
</g>
<!-- Node1&#45;&gt;Node9 -->
<g id="edge10" class="edge"><title>Node1&#45;&gt;Node9</title>
<path fill="none" stroke="midnightblue" d="M95.5306,-195.899C109.172,-191.055 124.44,-185.634 138.697,-180.572"/>
<polygon fill="midnightblue" stroke="midnightblue" points="140.12,-183.78 148.372,-177.136 137.778,-177.184 140.12,-183.78"/>
</g>
<!-- Node12 -->
<g id="node12" class="node"><title>Node12</title>
<g id="a_node12"><a xlink:href="classmodule__cu__tiedtke.html#ac30d7f0b03de20b3c35ae750e7b0b6d4" target="_top" xlink:title="module_cu_tiedtke::\lcudlfs">
<polygon fill="white" stroke="black" points="140,-245 140,-275 244,-275 244,-245 140,-245"/>
<text text-anchor="start" x="148" y="-263" font-family="Helvetica,sans-Serif" font-size="10.00">module_cu_tiedtke::</text>
<text text-anchor="middle" x="192" y="-252" font-family="Helvetica,sans-Serif" font-size="10.00">cudlfs</text>
</a>
</g>
</g>
<!-- Node1&#45;&gt;Node12 -->
<g id="edge16" class="edge"><title>Node1&#45;&gt;Node12</title>
<path fill="none" stroke="midnightblue" d="M95.5306,-226.101C109.172,-230.945 124.44,-236.366 138.697,-241.428"/>
<polygon fill="midnightblue" stroke="midnightblue" points="137.778,-244.816 148.372,-244.864 140.12,-238.22 137.778,-244.816"/>
</g>
<!-- Node13 -->
<g id="node13" class="node"><title>Node13</title>
<g id="a_node13"><a xlink:href="classmodule__cu__tiedtke.html#a38ab6318e5e3bdd086bd5969c9728dc4" target="_top" xlink:title="module_cu_tiedtke::\lcuddraf">
<polygon fill="white" stroke="black" points="140,-196 140,-226 244,-226 244,-196 140,-196"/>
<text text-anchor="start" x="148" y="-214" font-family="Helvetica,sans-Serif" font-size="10.00">module_cu_tiedtke::</text>
<text text-anchor="middle" x="192" y="-203" font-family="Helvetica,sans-Serif" font-size="10.00">cuddraf</text>
</a>
</g>
</g>
<!-- Node1&#45;&gt;Node13 -->
<g id="edge18" class="edge"><title>Node1&#45;&gt;Node13</title>
<path fill="none" stroke="midnightblue" d="M104.386,-211C112.558,-211 121.083,-211 129.46,-211"/>
<polygon fill="midnightblue" stroke="midnightblue" points="129.571,-214.5 139.571,-211 129.571,-207.5 129.571,-214.5"/>
</g>
<!-- Node14 -->
<g id="node14" class="node"><title>Node14</title>
<g id="a_node14"><a xlink:href="classmodule__cu__tiedtke.html#ae9117dff28b6b1fd04855f6e71e74b3a" target="_top" xlink:title="module_cu_tiedtke::\lcuflx">
<polygon fill="white" stroke="black" points="140,-98 140,-128 244,-128 244,-98 140,-98"/>
<text text-anchor="start" x="148" y="-116" font-family="Helvetica,sans-Serif" font-size="10.00">module_cu_tiedtke::</text>
<text text-anchor="middle" x="192" y="-105" font-family="Helvetica,sans-Serif" font-size="10.00">cuflx</text>
</a>
</g>
</g>
<!-- Node1&#45;&gt;Node14 -->
<g id="edge20" class="edge"><title>Node1&#45;&gt;Node14</title>
<path fill="none" stroke="midnightblue" d="M68.3456,-195.728C84.9882,-179.719 112.83,-154.505 140,-137 142.159,-135.609 144.412,-134.251 146.716,-132.933"/>
<polygon fill="midnightblue" stroke="midnightblue" points="148.617,-135.885 155.771,-128.071 145.305,-129.718 148.617,-135.885"/>
</g>
<!-- Node15 -->
<g id="node15" class="node"><title>Node15</title>
<g id="a_node15"><a xlink:href="classmodule__cu__tiedtke.html#a50e3681eeee419abf7eb4c94c7e09527" target="_top" xlink:title="module_cu_tiedtke::\lcudtdq">
<polygon fill="white" stroke="black" points="140,-49 140,-79 244,-79 244,-49 140,-49"/>
<text text-anchor="start" x="148" y="-67" font-family="Helvetica,sans-Serif" font-size="10.00">module_cu_tiedtke::</text>
<text text-anchor="middle" x="192" y="-56" font-family="Helvetica,sans-Serif" font-size="10.00">cudtdq</text>
</a>
</g>
</g>
<!-- Node1&#45;&gt;Node15 -->
<g id="edge21" class="edge"><title>Node1&#45;&gt;Node15</title>
<path fill="none" stroke="midnightblue" d="M60.3837,-195.857C73.3697,-170.566 102.512,-119.417 140,-88 141.491,-86.7508 143.057,-85.5509 144.679,-84.4002"/>
<polygon fill="midnightblue" stroke="midnightblue" points="146.561,-87.3513 153.151,-79.0558 142.826,-81.4308 146.561,-87.3513"/>
</g>
<!-- Node16 -->
<g id="node16" class="node"><title>Node16</title>
<g id="a_node16"><a xlink:href="classmodule__cu__tiedtke.html#a37c132c8ddca6fc509a2fe98724600f2" target="_top" xlink:title="module_cu_tiedtke::\lcududv">
<polygon fill="white" stroke="black" points="140,-0 140,-30 244,-30 244,-0 140,-0"/>
<text text-anchor="start" x="148" y="-18" font-family="Helvetica,sans-Serif" font-size="10.00">module_cu_tiedtke::</text>
<text text-anchor="middle" x="192" y="-7" font-family="Helvetica,sans-Serif" font-size="10.00">cududv</text>
</a>
</g>
</g>
<!-- Node1&#45;&gt;Node16 -->
<g id="edge22" class="edge"><title>Node1&#45;&gt;Node16</title>
<path fill="none" stroke="midnightblue" d="M57.0571,-195.625C66.4267,-162.817 92.4868,-85.1806 140,-39 141.075,-37.9556 142.203,-36.9503 143.375,-35.9832"/>
<polygon fill="midnightblue" stroke="midnightblue" points="145.49,-38.7745 151.634,-30.1436 141.449,-33.0588 145.49,-38.7745"/>
</g>
<!-- Node3 -->
<g id="node3" class="node"><title>Node3</title>
<g id="a_node3"><a xlink:href="classmodule__cu__tiedtke.html#ac8165a71eb9a866902d5f7a0ad177f14" target="_top" xlink:title="module_cu_tiedtke::\lcuadjtq">
<polygon fill="white" stroke="black" points="292,-245 292,-275 396,-275 396,-245 292,-245"/>
<text text-anchor="start" x="300" y="-263" font-family="Helvetica,sans-Serif" font-size="10.00">module_cu_tiedtke::</text>
<text text-anchor="middle" x="344" y="-252" font-family="Helvetica,sans-Serif" font-size="10.00">cuadjtq</text>
</a>
</g>
</g>
<!-- Node2&#45;&gt;Node3 -->
<g id="edge2" class="edge"><title>Node2&#45;&gt;Node3</title>
<path fill="none" stroke="midnightblue" d="M228.769,-391.957C234.111,-389.016 239.372,-385.685 244,-382 279.504,-353.731 310.677,-310.673 328.15,-283.992"/>
<polygon fill="midnightblue" stroke="midnightblue" points="331.282,-285.593 333.745,-275.288 325.393,-281.808 331.282,-285.593"/>
</g>
<!-- Node4 -->
<g id="node4" class="node"><title>Node4</title>
<g id="a_node4"><a xlink:href="classmodule__cu__tiedtke.html#af662362ac33920875481aff9ea3c31d6" target="_top" xlink:title="module_cu_tiedtke::\ltlucua">
<polygon fill="white" stroke="black" points="444,-193 444,-223 548,-223 548,-193 444,-193"/>
<text text-anchor="start" x="452" y="-211" font-family="Helvetica,sans-Serif" font-size="10.00">module_cu_tiedtke::</text>
<text text-anchor="middle" x="496" y="-200" font-family="Helvetica,sans-Serif" font-size="10.00">tlucua</text>
</a>
</g>
</g>
<!-- Node3&#45;&gt;Node4 -->
<g id="edge3" class="edge"><title>Node3&#45;&gt;Node4</title>
<path fill="none" stroke="midnightblue" d="M388.386,-244.959C405.177,-239.138 424.556,-232.42 442.149,-226.322"/>
<polygon fill="midnightblue" stroke="midnightblue" points="443.409,-229.589 451.711,-223.007 441.117,-222.975 443.409,-229.589"/>
</g>
<!-- Node5 -->
<g id="node5" class="node"><title>Node5</title>
<g id="a_node5"><a xlink:href="classmodule__cu__tiedtke.html#a0c084c1df13311e129af689ee7723b26" target="_top" xlink:title="module_cu_tiedtke::\ltlucub">
<polygon fill="white" stroke="black" points="444,-292 444,-322 548,-322 548,-292 444,-292"/>
<text text-anchor="start" x="452" y="-310" font-family="Helvetica,sans-Serif" font-size="10.00">module_cu_tiedtke::</text>
<text text-anchor="middle" x="496" y="-299" font-family="Helvetica,sans-Serif" font-size="10.00">tlucub</text>
</a>
</g>
</g>
<!-- Node3&#45;&gt;Node5 -->
<g id="edge4" class="edge"><title>Node3&#45;&gt;Node5</title>
<path fill="none" stroke="midnightblue" d="M392.873,-275C406.945,-279.41 422.49,-284.28 437.117,-288.863"/>
<polygon fill="midnightblue" stroke="midnightblue" points="436.478,-292.331 447.067,-291.981 438.571,-285.651 436.478,-292.331"/>
</g>
<!-- Node6 -->
<g id="node6" class="node"><title>Node6</title>
<g id="a_node6"><a xlink:href="classmodule__cu__tiedtke.html#afec35de95e006b1899bc1564186e8702" target="_top" xlink:title="module_cu_tiedtke::\ltlucuc">
<polygon fill="white" stroke="black" points="444,-243 444,-273 548,-273 548,-243 444,-243"/>
<text text-anchor="start" x="452" y="-261" font-family="Helvetica,sans-Serif" font-size="10.00">module_cu_tiedtke::</text>
<text text-anchor="middle" x="496" y="-250" font-family="Helvetica,sans-Serif" font-size="10.00">tlucuc</text>
</a>
</g>
</g>
<!-- Node3&#45;&gt;Node6 -->
<g id="edge5" class="edge"><title>Node3&#45;&gt;Node6</title>
<path fill="none" stroke="midnightblue" d="M396.202,-259.317C408.203,-259.157 421.111,-258.985 433.51,-258.82"/>
<polygon fill="midnightblue" stroke="midnightblue" points="433.822,-262.316 443.774,-258.683 433.728,-255.317 433.822,-262.316"/>
</g>
<!-- Node7&#45;&gt;Node3 -->
<g id="edge7" class="edge"><title>Node7&#45;&gt;Node3</title>
<path fill="none" stroke="midnightblue" d="M225.843,-342.984C231.983,-339.874 238.268,-336.479 244,-333 269.761,-317.363 297.203,-296.783 316.646,-281.461"/>
<polygon fill="midnightblue" stroke="midnightblue" points="319.074,-284.003 324.72,-275.038 314.716,-278.525 319.074,-284.003"/>
</g>
<!-- Node8&#45;&gt;Node3 -->
<g id="edge9" class="edge"><title>Node8&#45;&gt;Node3</title>
<path fill="none" stroke="midnightblue" d="M239.229,-293.899C254.413,-288.938 271.451,-283.373 287.264,-278.207"/>
<polygon fill="midnightblue" stroke="midnightblue" points="288.505,-281.484 296.924,-275.052 286.331,-274.83 288.505,-281.484"/>
</g>
<!-- Node9&#45;&gt;Node3 -->
<g id="edge15" class="edge"><title>Node9&#45;&gt;Node3</title>
<path fill="none" stroke="midnightblue" d="M227.593,-177.104C233.253,-180.093 238.921,-183.423 244,-187 262.245,-199.848 262.331,-208.37 280,-222 288.116,-228.261 297.335,-234.33 306.167,-239.714"/>
<polygon fill="midnightblue" stroke="midnightblue" points="304.43,-242.753 314.816,-244.85 308.005,-236.734 304.43,-242.753"/>
</g>
<!-- Node9&#45;&gt;Node4 -->
<g id="edge11" class="edge"><title>Node9&#45;&gt;Node4</title>
<path fill="none" stroke="midnightblue" d="M237.285,-177.076C250.853,-181.194 265.917,-185.268 280,-188 331.276,-197.945 390.424,-202.989 433.686,-205.521"/>
<polygon fill="midnightblue" stroke="midnightblue" points="433.593,-209.021 443.772,-206.083 433.982,-202.032 433.593,-209.021"/>
</g>
<!-- Node10 -->
<g id="node10" class="node"><title>Node10</title>
<g id="a_node10"><a xlink:href="classmodule__cu__tiedtke.html#a9a6e5559b2c162bbbdc6122e41309835" target="_top" xlink:title="module_cu_tiedtke::\lcubasmc">
<polygon fill="white" stroke="black" points="292,-149 292,-179 396,-179 396,-149 292,-149"/>
<text text-anchor="start" x="300" y="-167" font-family="Helvetica,sans-Serif" font-size="10.00">module_cu_tiedtke::</text>
<text text-anchor="middle" x="344" y="-156" font-family="Helvetica,sans-Serif" font-size="10.00">cubasmc</text>
</a>
</g>
</g>
<!-- Node9&#45;&gt;Node10 -->
<g id="edge12" class="edge"><title>Node9&#45;&gt;Node10</title>
<path fill="none" stroke="midnightblue" d="M244.202,-162.683C256.203,-162.843 269.111,-163.015 281.51,-163.18"/>
<polygon fill="midnightblue" stroke="midnightblue" points="281.728,-166.683 291.774,-163.317 281.822,-159.684 281.728,-166.683"/>
</g>
<!-- Node11 -->
<g id="node11" class="node"><title>Node11</title>
<g id="a_node11"><a xlink:href="classmodule__cu__tiedtke.html#ae56a73c0cf1c178147db2261edaef943" target="_top" xlink:title="module_cu_tiedtke::\lcuentr_new">
<polygon fill="white" stroke="black" points="292,-100 292,-130 396,-130 396,-100 292,-100"/>
<text text-anchor="start" x="300" y="-118" font-family="Helvetica,sans-Serif" font-size="10.00">module_cu_tiedtke::</text>
<text text-anchor="middle" x="344" y="-107" font-family="Helvetica,sans-Serif" font-size="10.00">cuentr_new</text>
</a>
</g>
</g>
<!-- Node9&#45;&gt;Node11 -->
<g id="edge13" class="edge"><title>Node9&#45;&gt;Node11</title>
<path fill="none" stroke="midnightblue" d="M240.873,-147C254.945,-142.59 270.49,-137.72 285.117,-133.137"/>
<polygon fill="midnightblue" stroke="midnightblue" points="286.571,-136.349 295.067,-130.019 284.478,-129.669 286.571,-136.349"/>
</g>
<!-- Node11&#45;&gt;Node4 -->
<g id="edge14" class="edge"><title>Node11&#45;&gt;Node4</title>
<path fill="none" stroke="midnightblue" d="M389.844,-130.123C396.084,-132.787 402.303,-135.759 408,-139 431.183,-152.189 454.72,-171.277 471.456,-186.035"/>
<polygon fill="midnightblue" stroke="midnightblue" points="469.314,-188.815 479.095,-192.887 473.988,-183.604 469.314,-188.815"/>
</g>
<!-- Node12&#45;&gt;Node3 -->
<g id="edge17" class="edge"><title>Node12&#45;&gt;Node3</title>
<path fill="none" stroke="midnightblue" d="M244.202,-260C256.203,-260 269.111,-260 281.51,-260"/>
<polygon fill="midnightblue" stroke="midnightblue" points="281.774,-263.5 291.774,-260 281.774,-256.5 281.774,-263.5"/>
</g>
<!-- Node13&#45;&gt;Node3 -->
<g id="edge19" class="edge"><title>Node13&#45;&gt;Node3</title>
<path fill="none" stroke="midnightblue" d="M239.229,-226.101C254.413,-231.062 271.451,-236.627 287.264,-241.793"/>
<polygon fill="midnightblue" stroke="midnightblue" points="286.331,-245.17 296.924,-244.948 288.505,-238.516 286.331,-245.17"/>
</g>
<!-- Node17 -->
<g id="node17" class="node"><title>Node17</title>
<g id="a_node17"><a xlink:href="classmodule__cu__tiedtke.html#aec8136392210f639383b24a04c1a9178" target="_top" xlink:title="module_cu_tiedtke::ssum">
<polygon fill="white" stroke="black" points="280,-5.5 280,-24.5 408,-24.5 408,-5.5 280,-5.5"/>
<text text-anchor="middle" x="344" y="-12.5" font-family="Helvetica,sans-Serif" font-size="10.00">module_cu_tiedtke::ssum</text>
</a>
</g>
</g>
<!-- Node16&#45;&gt;Node17 -->
<g id="edge23" class="edge"><title>Node16&#45;&gt;Node17</title>
<path fill="none" stroke="midnightblue" d="M244.202,-15C252.437,-15 261.099,-15 269.731,-15"/>
<polygon fill="midnightblue" stroke="midnightblue" points="269.822,-18.5001 279.822,-15 269.822,-11.5001 269.822,-18.5001"/>
</g>
</g>
</svg>
        <g id="navigator" transform="translate(0 0)" fill="#404254">
                <rect fill="#f2f5e9" fill-opacity="0.5" stroke="#606060" stroke-width=".5" x="0" y="0" width="60" height="60"/>
                <use id="zoomplus" xlink:href="#zoomPlus" x="17" y="9" onmousedown="handleZoom(evt,'in')"/>
                <use id="zoomminus" xlink:href="#zoomMin" x="42" y="9" onmousedown="handleZoom(evt,'out')"/>
                <use id="reset" xlink:href="#resetDef" x="30" y="36" onmousedown="handleReset()"/>
                <g id="arrowUp" xlink:href="#dirArrow" transform="translate(30 24)" onmousedown="handlePan(0,-1)">
                  <use xlink:href="#rim" fill="#404040">
                        <set attributeName="fill" to="#808080" begin="arrowUp.mouseover" end="arrowUp.mouseout"/>
                  </use>
                  <path fill="none" stroke="white" stroke-width="1.5" d="M0,-3.0v7 M-2.5,-0.5L0,-3.0L2.5,-0.5"/>
                </g>
                <g id="arrowRight" xlink:href="#dirArrow" transform="rotate(90) translate(36 -43)" onmousedown="handlePan(1,0)">
                  <use xlink:href="#rim" fill="#404040">
                        <set attributeName="fill" to="#808080" begin="arrowRight.mouseover" end="arrowRight.mouseout"/>
                  </use>
                  <path fill="none" stroke="white" stroke-width="1.5" d="M0,-3.0v7 M-2.5,-0.5L0,-3.0L2.5,-0.5"/>
                </g>
                <g id="arrowDown" xlink:href="#dirArrow" transform="rotate(180) translate(-30 -48)" onmousedown="handlePan(0,1)">
                  <use xlink:href="#rim" fill="#404040">
                        <set attributeName="fill" to="#808080" begin="arrowDown.mouseover" end="arrowDown.mouseout"/>
                  </use>
                  <path fill="none" stroke="white" stroke-width="1.5" d="M0,-3.0v7 M-2.5,-0.5L0,-3.0L2.5,-0.5"/>
                </g>
                <g id="arrowLeft" xlink:href="#dirArrow" transform="rotate(270) translate(-36 17)" onmousedown="handlePan(-1,0)">
                  <use xlink:href="#rim" fill="#404040">
                        <set attributeName="fill" to="#808080" begin="arrowLeft.mouseover" end="arrowLeft.mouseout"/>
                  </use>
                  <path fill="none" stroke="white" stroke-width="1.5" d="M0,-3.0v7 M-2.5,-0.5L0,-3.0L2.5,-0.5"/>
                </g>
        </g>
        <svg viewBox="0 0 15 15" width="100%" height="30px" preserveAspectRatio="xMaxYMin meet">
         <g id="arrow_out" transform="scale(0.3 0.3)">
          <a xlink:href="classmodule__cu__tiedtke_a8840397e245a13cbb7c61f8cea6e7894_cgraph_org.svg" target="_base">
           <rect id="button" ry="5" rx="5" y="6" x="6" height="38" width="38"
                fill="#f2f5e9" fill-opacity="0.5" stroke="#606060" stroke-width="1.0"/>
           <path id="arrow"
             d="M 11.500037,31.436501 C 11.940474,20.09759 22.043105,11.32322 32.158766,21.979434 L 37.068811,17.246167 C 37.068811,17.246167 37.088388,32 37.088388,32 L 22.160133,31.978069 C 22.160133,31.978069 26.997745,27.140456 26.997745,27.140456 C 18.528582,18.264221 13.291696,25.230495 11.500037,31.436501 z"
             style="fill:#404040;"/>
          </a>
         </g>
        </svg>
</svg>
