<?xml version="1.0" encoding="UTF-8" standalone="no"?>
<!DOCTYPE svg PUBLIC "-//W3C//DTD SVG 1.1//EN"
 "http://www.w3.org/Graphics/SVG/1.1/DTD/svg11.dtd">
<!-- Generated by graphviz version 2.32.0 (20130809.1645)
 -->
<!-- Title: time_step::diagnostic_update Pages: 1 -->
<svg width="438pt" height="61pt"
 viewBox="0.00 0.00 438.00 61.00" xmlns="http://www.w3.org/2000/svg" xmlns:xlink="http://www.w3.org/1999/xlink">
<g id="graph0" class="graph" transform="scale(1 1) rotate(0) translate(4 57)">
<title>time_step::diagnostic_update</title>
<polygon fill="white" stroke="white" points="-4,5 -4,-57 435,-57 435,5 -4,5"/>
<!-- Node1 -->
<g id="node1" class="node"><title>Node1</title>
<polygon fill="#bfbfbf" stroke="black" points="0,-1 0,-31 110,-31 110,-1 0,-1"/>
<text text-anchor="start" x="8" y="-19" font-family="Helvetica,sans-Serif" font-size="10.00">time_step::diagnostic</text>
<text text-anchor="middle" x="55" y="-8" font-family="Helvetica,sans-Serif" font-size="10.00">_update</text>
</g>
<!-- Node2 -->
<g id="node2" class="node"><title>Node2</title>
<g id="a_node2"><a xlink:href="classtime__step.html#ab024d227ede8d503dbe333dd3b38515a" target="_top" xlink:title=" Updated all fields in domain using the respective dXdt variables ">
<polygon fill="white" stroke="black" points="146.5,-23 146.5,-53 241.5,-53 241.5,-23 146.5,-23"/>
<text text-anchor="start" x="154.5" y="-41" font-family="Helvetica,sans-Serif" font-size="10.00">time_step::forcing</text>
<text text-anchor="middle" x="194" y="-30" font-family="Helvetica,sans-Serif" font-size="10.00">_update</text>
</a>
</g>
</g>
<!-- Node1&#45;&gt;Node2 -->
<g id="edge1" class="edge"><title>Node1&#45;&gt;Node2</title>
<path fill="none" stroke="midnightblue" d="M120.068,-26.2883C128.922,-27.71 137.874,-29.1477 146.331,-30.5057"/>
<polygon fill="midnightblue" stroke="midnightblue" points="120.574,-22.8249 110.146,-24.695 119.465,-29.7363 120.574,-22.8249"/>
</g>
<!-- Node3 -->
<g id="node3" class="node"><title>Node3</title>
<g id="a_node3"><a xlink:href="classtime__step.html#a2c022f11247af72e607b1493289aa974" target="_top" xlink:title=" Step forward one IO time step. ">
<polygon fill="white" stroke="black" points="278,-6.5 278,-25.5 362,-25.5 362,-6.5 278,-6.5"/>
<text text-anchor="middle" x="320" y="-13.5" font-family="Helvetica,sans-Serif" font-size="10.00">time_step::step</text>
</a>
</g>
</g>
<!-- Node1&#45;&gt;Node3 -->
<g id="edge4" class="edge"><title>Node1&#45;&gt;Node3</title>
<path fill="none" stroke="midnightblue" d="M120.309,-14.397C128.945,-14.2326 137.688,-14.0923 146,-14 188.664,-13.526 199.337,-13.446 242,-14 253.633,-14.1511 266.252,-14.4304 277.844,-14.7335"/>
<polygon fill="midnightblue" stroke="midnightblue" points="120.179,-10.8988 110.252,-14.5995 120.32,-17.8974 120.179,-10.8988"/>
</g>
<!-- Node2&#45;&gt;Node3 -->
<g id="edge2" class="edge"><title>Node2&#45;&gt;Node3</title>
<path fill="none" stroke="midnightblue" d="M251.479,-27.9795C260.388,-26.399 269.45,-24.7912 277.921,-23.2882"/>
<polygon fill="midnightblue" stroke="midnightblue" points="250.761,-24.5522 241.526,-29.7454 251.983,-31.4446 250.761,-24.5522"/>
</g>
<!-- Node4 -->
<g id="node4" class="node"><title>Node4</title>
<g id="a_node4"><a xlink:href="driver_8f90.html#ab1e5a5816a57fc6e95d9563c2bb53590" target="_top" xlink:title=" Main Program ">
<polygon fill="white" stroke="black" points="398,-6.5 398,-25.5 430,-25.5 430,-6.5 398,-6.5"/>
<text text-anchor="middle" x="414" y="-13.5" font-family="Helvetica,sans-Serif" font-size="10.00">icar</text>
</a>
</g>
</g>
<!-- Node3&#45;&gt;Node4 -->
<g id="edge3" class="edge"><title>Node3&#45;&gt;Node4</title>
<path fill="none" stroke="midnightblue" d="M372.253,-16C381.521,-16 390.5,-16 397.66,-16"/>
<polygon fill="midnightblue" stroke="midnightblue" points="372.156,-12.5001 362.156,-16 372.156,-19.5001 372.156,-12.5001"/>
</g>
</g>
</svg>
