<?xml version="1.0" encoding="UTF-8" standalone="no"?>
<!DOCTYPE svg PUBLIC "-//W3C//DTD SVG 1.1//EN"
 "http://www.w3.org/Graphics/SVG/1.1/DTD/svg11.dtd">
<!-- Generated by graphviz version 2.38.0 (20140413.2041)
 -->
<!-- Title: module_mp_thompson::gammp Pages: 1 -->
<svg width="444pt" height="78pt"
 viewBox="0.00 0.00 444.00 77.50" xmlns="http://www.w3.org/2000/svg" xmlns:xlink="http://www.w3.org/1999/xlink">
<g id="graph0" class="graph" transform="scale(1 1) rotate(0) translate(4 73.5)">
<title>module_mp_thompson::gammp</title>
<polygon fill="white" stroke="none" points="-4,4 -4,-73.5 440,-73.5 440,4 -4,4"/>
<!-- Node1 -->
<g id="node1" class="node"><title>Node1</title>
<polygon fill="#bfbfbf" stroke="black" points="0,-17 0,-47 115,-47 115,-17 0,-17"/>
<text text-anchor="start" x="8" y="-35" font-family="Helvetica,sans-Serif" font-size="10.00">module_mp_thompson</text>
<text text-anchor="middle" x="57.5" y="-24" font-family="Helvetica,sans-Serif" font-size="10.00">::gammp</text>
</g>
<!-- Node2 -->
<g id="node2" class="node"><title>Node2</title>
<g id="a_node2"><a xlink:href="classmodule__mp__thompson.html#af4069d16cc3cbf9a1c493ae5314f4484" target="_top" xlink:title="module_mp_thompson\l::gser">
<polygon fill="white" stroke="black" points="160.5,-39 160.5,-69 275.5,-69 275.5,-39 160.5,-39"/>
<text text-anchor="start" x="168.5" y="-57" font-family="Helvetica,sans-Serif" font-size="10.00">module_mp_thompson</text>
<text text-anchor="middle" x="218" y="-46" font-family="Helvetica,sans-Serif" font-size="10.00">::gser</text>
</a>
</g>
</g>
<!-- Node1&#45;&gt;Node2 -->
<g id="edge1" class="edge"><title>Node1&#45;&gt;Node2</title>
<path fill="none" stroke="midnightblue" d="M115.274,-39.8804C126.61,-41.4538 138.615,-43.1201 150.251,-44.7352"/>
<polygon fill="midnightblue" stroke="midnightblue" points="149.969,-48.2295 160.356,-46.1377 150.932,-41.296 149.969,-48.2295"/>
</g>
<!-- Node4 -->
<g id="node4" class="node"><title>Node4</title>
<g id="a_node4"><a xlink:href="classmodule__mp__thompson.html#ae708350e2b07c93cbab0a8f77752e063" target="_top" xlink:title="module_mp_thompson::gcf">
<polygon fill="white" stroke="black" points="151,-0.5 151,-19.5 285,-19.5 285,-0.5 151,-0.5"/>
<text text-anchor="middle" x="218" y="-7.5" font-family="Helvetica,sans-Serif" font-size="10.00">module_mp_thompson::gcf</text>
</a>
</g>
</g>
<!-- Node1&#45;&gt;Node4 -->
<g id="edge3" class="edge"><title>Node1&#45;&gt;Node4</title>
<path fill="none" stroke="midnightblue" d="M115.274,-24.1196C123.574,-22.9676 132.233,-21.7658 140.842,-20.5708"/>
<polygon fill="midnightblue" stroke="midnightblue" points="141.479,-24.0161 150.903,-19.1744 140.516,-17.0826 141.479,-24.0161"/>
</g>
<!-- Node3 -->
<g id="node3" class="node"><title>Node3</title>
<g id="a_node3"><a xlink:href="classmodule__mp__thompson.html#a529ff675223a2d57e5e67a26707638cd" target="_top" xlink:title="module_mp_thompson\l::gammln">
<polygon fill="white" stroke="black" points="321,-17 321,-47 436,-47 436,-17 321,-17"/>
<text text-anchor="start" x="329" y="-35" font-family="Helvetica,sans-Serif" font-size="10.00">module_mp_thompson</text>
<text text-anchor="middle" x="378.5" y="-24" font-family="Helvetica,sans-Serif" font-size="10.00">::gammln</text>
</a>
</g>
</g>
<!-- Node2&#45;&gt;Node3 -->
<g id="edge2" class="edge"><title>Node2&#45;&gt;Node3</title>
<path fill="none" stroke="midnightblue" d="M275.774,-46.1196C287.11,-44.5462 299.115,-42.8799 310.751,-41.2648"/>
<polygon fill="midnightblue" stroke="midnightblue" points="311.432,-44.704 320.856,-39.8623 310.469,-37.7705 311.432,-44.704"/>
</g>
<!-- Node4&#45;&gt;Node3 -->
<g id="edge4" class="edge"><title>Node4&#45;&gt;Node3</title>
<path fill="none" stroke="midnightblue" d="M285.3,-19.2025C293.623,-20.3577 302.141,-21.5401 310.475,-22.6968"/>
<polygon fill="midnightblue" stroke="midnightblue" points="310.137,-26.1833 320.523,-24.0915 311.099,-19.2498 310.137,-26.1833"/>
</g>
</g>
</svg>
