<?xml version="1.0" encoding="UTF-8" standalone="no"?>
<!DOCTYPE svg PUBLIC "-//W3C//DTD SVG 1.1//EN"
 "http://www.w3.org/Graphics/SVG/1.1/DTD/svg11.dtd">
<!-- Generated by graphviz version 2.38.0 (20140413.2041)
 -->
<!-- Title: module_sf_noahlsm::srt Pages: 1 -->
<svg width="1043pt" height="88pt"
 viewBox="0.00 0.00 1043.00 88.00" xmlns="http://www.w3.org/2000/svg" xmlns:xlink="http://www.w3.org/1999/xlink">
<g id="graph0" class="graph" transform="scale(1 1) rotate(0) translate(4 84)">
<title>module_sf_noahlsm::srt</title>
<polygon fill="white" stroke="none" points="-4,4 -4,-84 1039,-84 1039,4 -4,4"/>
<!-- Node1 -->
<g id="node1" class="node"><title>Node1</title>
<polygon fill="#bfbfbf" stroke="black" points="0,-30 0,-49 121,-49 121,-30 0,-30"/>
<text text-anchor="middle" x="60.5" y="-37" font-family="Helvetica,sans-Serif" font-size="10.00">module_sf_noahlsm::srt</text>
</g>
<!-- Node2 -->
<g id="node2" class="node"><title>Node2</title>
<g id="a_node2"><a xlink:href="classmodule__sf__noahlsm.html#a0d0b4c4b1c11cc7ff836dfdd13fb1b20" target="_top" xlink:title="module_sf_noahlsm::\lsmflx">
<polygon fill="white" stroke="black" points="157,-24.5 157,-54.5 267,-54.5 267,-24.5 157,-24.5"/>
<text text-anchor="start" x="165" y="-42.5" font-family="Helvetica,sans-Serif" font-size="10.00">module_sf_noahlsm::</text>
<text text-anchor="middle" x="212" y="-31.5" font-family="Helvetica,sans-Serif" font-size="10.00">smflx</text>
</a>
</g>
</g>
<!-- Node1&#45;&gt;Node2 -->
<g id="edge1" class="edge"><title>Node1&#45;&gt;Node2</title>
<path fill="none" stroke="midnightblue" d="M131.286,-39.5C139.764,-39.5 148.328,-39.5 156.538,-39.5"/>
<polygon fill="midnightblue" stroke="midnightblue" points="131.016,-36.0001 121.016,-39.5 131.016,-43.0001 131.016,-36.0001"/>
</g>
<!-- Node3 -->
<g id="node3" class="node"><title>Node3</title>
<g id="a_node3"><a xlink:href="classmodule__sf__noahlsm.html#a6a17443ddbf15acdb25690cfbb3749a3" target="_top" xlink:title="module_sf_noahlsm::\lnopac">
<polygon fill="white" stroke="black" points="303,-49.5 303,-79.5 413,-79.5 413,-49.5 303,-49.5"/>
<text text-anchor="start" x="311" y="-67.5" font-family="Helvetica,sans-Serif" font-size="10.00">module_sf_noahlsm::</text>
<text text-anchor="middle" x="358" y="-56.5" font-family="Helvetica,sans-Serif" font-size="10.00">nopac</text>
</a>
</g>
</g>
<!-- Node2&#45;&gt;Node3 -->
<g id="edge2" class="edge"><title>Node2&#45;&gt;Node3</title>
<path fill="none" stroke="midnightblue" d="M276.991,-50.6095C285.561,-52.0974 294.284,-53.6119 302.667,-55.0672"/>
<polygon fill="midnightblue" stroke="midnightblue" points="277.481,-47.1424 267.03,-48.8802 276.284,-54.0392 277.481,-47.1424"/>
</g>
<!-- Node9 -->
<g id="node9" class="node"><title>Node9</title>
<g id="a_node9"><a xlink:href="classmodule__sf__noahlsm.html#a9d1e26133ed89bc5465a230d45d0625d" target="_top" xlink:title="module_sf_noahlsm::\lsnopac">
<polygon fill="white" stroke="black" points="303,-0.5 303,-30.5 413,-30.5 413,-0.5 303,-0.5"/>
<text text-anchor="start" x="311" y="-18.5" font-family="Helvetica,sans-Serif" font-size="10.00">module_sf_noahlsm::</text>
<text text-anchor="middle" x="358" y="-7.5" font-family="Helvetica,sans-Serif" font-size="10.00">snopac</text>
</a>
</g>
</g>
<!-- Node2&#45;&gt;Node9 -->
<g id="edge8" class="edge"><title>Node2&#45;&gt;Node9</title>
<path fill="none" stroke="midnightblue" d="M276.991,-28.8349C285.561,-27.4065 294.284,-25.9526 302.667,-24.5555"/>
<polygon fill="midnightblue" stroke="midnightblue" points="276.318,-25.3986 267.03,-30.495 277.469,-32.3033 276.318,-25.3986"/>
</g>
<!-- Node4 -->
<g id="node4" class="node"><title>Node4</title>
<g id="a_node4"><a xlink:href="classmodule__sf__noahlsm.html#a7cd9a2732205c21a5f59d679e0a1fddd" target="_top" xlink:title="module_sf_noahlsm::sflx">
<polygon fill="white" stroke="black" points="449,-30 449,-49 574,-49 574,-30 449,-30"/>
<text text-anchor="middle" x="511.5" y="-37" font-family="Helvetica,sans-Serif" font-size="10.00">module_sf_noahlsm::sflx</text>
</a>
</g>
</g>
<!-- Node3&#45;&gt;Node4 -->
<g id="edge3" class="edge"><title>Node3&#45;&gt;Node4</title>
<path fill="none" stroke="midnightblue" d="M423.333,-53.8839C433.11,-52.2706 443.147,-50.6144 452.771,-49.0262"/>
<polygon fill="midnightblue" stroke="midnightblue" points="422.564,-50.4635 413.267,-55.545 423.704,-57.3701 422.564,-50.4635"/>
</g>
<!-- Node5 -->
<g id="node5" class="node"><title>Node5</title>
<g id="a_node5"><a xlink:href="classmodule__sf__noahdrv.html#a329dccdd0c1fc2797bc8ebcc9bcc0ff6" target="_top" xlink:title="module_sf_noahdrv::\llsm_noah">
<polygon fill="white" stroke="black" points="610,-24.5 610,-54.5 717,-54.5 717,-24.5 610,-24.5"/>
<text text-anchor="start" x="618" y="-42.5" font-family="Helvetica,sans-Serif" font-size="10.00">module_sf_noahdrv::</text>
<text text-anchor="middle" x="663.5" y="-31.5" font-family="Helvetica,sans-Serif" font-size="10.00">lsm_noah</text>
</a>
</g>
</g>
<!-- Node4&#45;&gt;Node5 -->
<g id="edge4" class="edge"><title>Node4&#45;&gt;Node5</title>
<path fill="none" stroke="midnightblue" d="M584.397,-39.5C592.977,-39.5 601.611,-39.5 609.85,-39.5"/>
<polygon fill="midnightblue" stroke="midnightblue" points="584.377,-36.0001 574.377,-39.5 584.377,-43.0001 584.377,-36.0001"/>
</g>
<!-- Node6 -->
<g id="node6" class="node"><title>Node6</title>
<g id="a_node6"><a xlink:href="classland__surface.html#a5eda887fb43d0e56a673bbec669be5ad" target="_top" xlink:title="land_surface::lsm">
<polygon fill="white" stroke="black" points="753,-30 753,-49 847,-49 847,-30 753,-30"/>
<text text-anchor="middle" x="800" y="-37" font-family="Helvetica,sans-Serif" font-size="10.00">land_surface::lsm</text>
</a>
</g>
</g>
<!-- Node5&#45;&gt;Node6 -->
<g id="edge5" class="edge"><title>Node5&#45;&gt;Node6</title>
<path fill="none" stroke="midnightblue" d="M727.321,-39.5C735.948,-39.5 744.673,-39.5 752.924,-39.5"/>
<polygon fill="midnightblue" stroke="midnightblue" points="727.272,-36.0001 717.272,-39.5 727.272,-43.0001 727.272,-36.0001"/>
</g>
<!-- Node7 -->
<g id="node7" class="node"><title>Node7</title>
<g id="a_node7"><a xlink:href="classtime__step.html#a2c022f11247af72e607b1493289aa974" target="_top" xlink:title=" Step forward one IO time step. ">
<polygon fill="white" stroke="black" points="883,-30 883,-49 967,-49 967,-30 883,-30"/>
<text text-anchor="middle" x="925" y="-37" font-family="Helvetica,sans-Serif" font-size="10.00">time_step::step</text>
</a>
</g>
</g>
<!-- Node6&#45;&gt;Node7 -->
<g id="edge6" class="edge"><title>Node6&#45;&gt;Node7</title>
<path fill="none" stroke="midnightblue" d="M857.191,-39.5C865.834,-39.5 874.618,-39.5 882.853,-39.5"/>
<polygon fill="midnightblue" stroke="midnightblue" points="857.151,-36.0001 847.151,-39.5 857.151,-43.0001 857.151,-36.0001"/>
</g>
<!-- Node8 -->
<g id="node8" class="node"><title>Node8</title>
<g id="a_node8"><a xlink:href="driver_8f90.html#ab1e5a5816a57fc6e95d9563c2bb53590" target="_top" xlink:title=" Main Program ">
<polygon fill="white" stroke="black" points="1003,-30 1003,-49 1035,-49 1035,-30 1003,-30"/>
<text text-anchor="middle" x="1019" y="-37" font-family="Helvetica,sans-Serif" font-size="10.00">icar</text>
</a>
</g>
</g>
<!-- Node7&#45;&gt;Node8 -->
<g id="edge7" class="edge"><title>Node7&#45;&gt;Node8</title>
<path fill="none" stroke="midnightblue" d="M977.253,-39.5C986.521,-39.5 995.5,-39.5 1002.66,-39.5"/>
<polygon fill="midnightblue" stroke="midnightblue" points="977.156,-36.0001 967.156,-39.5 977.156,-43.0001 977.156,-36.0001"/>
</g>
<!-- Node9&#45;&gt;Node4 -->
<g id="edge9" class="edge"><title>Node9&#45;&gt;Node4</title>
<path fill="none" stroke="midnightblue" d="M423.307,-25.6872C432.307,-27.113 441.528,-28.5737 450.445,-29.9863"/>
<polygon fill="midnightblue" stroke="midnightblue" points="423.692,-22.2046 413.267,-24.0968 422.596,-29.1184 423.692,-22.2046"/>
</g>
</g>
</svg>
