<?xml version="1.0" encoding="UTF-8" standalone="no"?>
<!DOCTYPE svg PUBLIC "-//W3C//DTD SVG 1.1//EN"
 "http://www.w3.org/Graphics/SVG/1.1/DTD/svg11.dtd">
<!-- Generated by graphviz version 2.32.0 (20130809.1645)
 -->
<!-- Title: model_tracking::print_model_diffs Pages: 1 -->
<svg width="722pt" height="210pt"
 viewBox="0.00 0.00 722.00 210.15" xmlns="http://www.w3.org/2000/svg" xmlns:xlink="http://www.w3.org/1999/xlink">
<g id="graph0" class="graph" transform="scale(1 1) rotate(0) translate(4 206.145)">
<title>model_tracking::print_model_diffs</title>
<polygon fill="white" stroke="white" points="-4,5 -4,-206.145 719,-206.145 719,5 -4,5"/>
<!-- Node1 -->
<g id="node1" class="node"><title>Node1</title>
<polygon fill="#bfbfbf" stroke="black" points="0.5,-98 0.5,-128 107.5,-128 107.5,-98 0.5,-98"/>
<text text-anchor="start" x="8.5" y="-116" font-family="Helvetica,sans-Serif" font-size="10.00">model_tracking::print</text>
<text text-anchor="middle" x="54" y="-105" font-family="Helvetica,sans-Serif" font-size="10.00">_model_diffs</text>
</g>
<!-- Node2 -->
<g id="node2" class="node"><title>Node2</title>
<g id="a_node2"><a xlink:href="classinitialize__options.html#a7161e810e27d3c830e135c3811ae290b" target="_top" xlink:title="initialize_options\l::version_check">
<polygon fill="white" stroke="black" points="144.5,-98 144.5,-128 233.5,-128 233.5,-98 144.5,-98"/>
<text text-anchor="start" x="152.5" y="-116" font-family="Helvetica,sans-Serif" font-size="10.00">initialize_options</text>
<text text-anchor="middle" x="189" y="-105" font-family="Helvetica,sans-Serif" font-size="10.00">::version_check</text>
</a>
</g>
</g>
<!-- Node1&#45;&gt;Node2 -->
<g id="edge1" class="edge"><title>Node1&#45;&gt;Node2</title>
<path fill="none" stroke="midnightblue" d="M117.683,-113C126.711,-113 135.834,-113 144.382,-113"/>
<polygon fill="midnightblue" stroke="midnightblue" points="117.565,-109.5 107.565,-113 117.565,-116.5 117.565,-109.5"/>
</g>
<!-- Node3 -->
<g id="node3" class="node"><title>Node3</title>
<g id="a_node3"><a xlink:href="classinitialize__options.html#a571709045f201082c9735408ef2f28e3" target="_top" xlink:title="initialize_options\l::init_options">
<polygon fill="white" stroke="black" points="440.5,-98 440.5,-128 529.5,-128 529.5,-98 440.5,-98"/>
<text text-anchor="start" x="448.5" y="-116" font-family="Helvetica,sans-Serif" font-size="10.00">initialize_options</text>
<text text-anchor="middle" x="485" y="-105" font-family="Helvetica,sans-Serif" font-size="10.00">::init_options</text>
</a>
</g>
</g>
<!-- Node2&#45;&gt;Node3 -->
<g id="edge2" class="edge"><title>Node2&#45;&gt;Node3</title>
<path fill="none" stroke="midnightblue" d="M207.413,-136.322C221.955,-153.7 244.388,-176.071 270,-186 325.529,-207.527 348.471,-207.527 404,-186 433.802,-174.446 459.302,-146.046 473.071,-128.268"/>
<polygon fill="midnightblue" stroke="midnightblue" points="209.927,-133.863 200.929,-128.268 204.474,-138.252 209.927,-133.863"/>
</g>
<!-- Node6 -->
<g id="node6" class="node"><title>Node6</title>
<g id="a_node6"><a xlink:href="classinitialize__options.html#acc4c031c2e7521b9eb81f779a67acb3b" target="_top" xlink:title="initialize_options\l::mp_parameters_namelist">
<polygon fill="white" stroke="black" points="271,-147 271,-177 403,-177 403,-147 271,-147"/>
<text text-anchor="start" x="279" y="-165" font-family="Helvetica,sans-Serif" font-size="10.00">initialize_options</text>
<text text-anchor="middle" x="337" y="-154" font-family="Helvetica,sans-Serif" font-size="10.00">::mp_parameters_namelist</text>
</a>
</g>
</g>
<!-- Node2&#45;&gt;Node6 -->
<g id="edge5" class="edge"><title>Node2&#45;&gt;Node6</title>
<path fill="none" stroke="midnightblue" d="M243.386,-130.917C259.092,-136.189 276.107,-141.899 291.215,-146.97"/>
<polygon fill="midnightblue" stroke="midnightblue" points="244.399,-127.565 233.805,-127.702 242.172,-134.202 244.399,-127.565"/>
</g>
<!-- Node7 -->
<g id="node7" class="node"><title>Node7</title>
<g id="a_node7"><a xlink:href="classinitialize__options.html#acf012270ed53d51ad745344175d1d8ae" target="_top" xlink:title="initialize_options\l::lt_parameters_namelist">
<polygon fill="white" stroke="black" points="275,-98 275,-128 399,-128 399,-98 275,-98"/>
<text text-anchor="start" x="283" y="-116" font-family="Helvetica,sans-Serif" font-size="10.00">initialize_options</text>
<text text-anchor="middle" x="337" y="-105" font-family="Helvetica,sans-Serif" font-size="10.00">::lt_parameters_namelist</text>
</a>
</g>
</g>
<!-- Node2&#45;&gt;Node7 -->
<g id="edge7" class="edge"><title>Node2&#45;&gt;Node7</title>
<path fill="none" stroke="midnightblue" d="M244.066,-113C254.126,-113 264.7,-113 274.952,-113"/>
<polygon fill="midnightblue" stroke="midnightblue" points="243.805,-109.5 233.805,-113 243.805,-116.5 243.805,-109.5"/>
</g>
<!-- Node8 -->
<g id="node8" class="node"><title>Node8</title>
<g id="a_node8"><a xlink:href="classinitialize__options.html#a502d4a0df0fedb55f73b9afb2e130107" target="_top" xlink:title="initialize_options\l::adv_parameters_namelist">
<polygon fill="white" stroke="black" points="270,-49 270,-79 404,-79 404,-49 270,-49"/>
<text text-anchor="start" x="278" y="-67" font-family="Helvetica,sans-Serif" font-size="10.00">initialize_options</text>
<text text-anchor="middle" x="337" y="-56" font-family="Helvetica,sans-Serif" font-size="10.00">::adv_parameters_namelist</text>
</a>
</g>
</g>
<!-- Node2&#45;&gt;Node8 -->
<g id="edge9" class="edge"><title>Node2&#45;&gt;Node8</title>
<path fill="none" stroke="midnightblue" d="M243.386,-95.0827C259.092,-89.8115 276.107,-84.1012 291.215,-79.0304"/>
<polygon fill="midnightblue" stroke="midnightblue" points="242.172,-91.7985 233.805,-98.2984 244.399,-98.4347 242.172,-91.7985"/>
</g>
<!-- Node9 -->
<g id="node9" class="node"><title>Node9</title>
<g id="a_node9"><a xlink:href="classinitialize__options.html#a71b56485a92a10478bb1179e3294c013" target="_top" xlink:title="initialize_options\l::lsm_parameters_namelist">
<polygon fill="white" stroke="black" points="270,-0 270,-30 404,-30 404,-0 270,-0"/>
<text text-anchor="start" x="278" y="-18" font-family="Helvetica,sans-Serif" font-size="10.00">initialize_options</text>
<text text-anchor="middle" x="337" y="-7" font-family="Helvetica,sans-Serif" font-size="10.00">::lsm_parameters_namelist</text>
</a>
</g>
</g>
<!-- Node2&#45;&gt;Node9 -->
<g id="edge11" class="edge"><title>Node2&#45;&gt;Node9</title>
<path fill="none" stroke="midnightblue" d="M210.272,-90.4214C225.456,-74.5945 247.421,-53.8708 270,-40 276.055,-36.2801 282.755,-32.9625 289.495,-30.0559"/>
<polygon fill="midnightblue" stroke="midnightblue" points="207.687,-88.0616 203.39,-97.7461 212.788,-92.8548 207.687,-88.0616"/>
</g>
<!-- Node4 -->
<g id="node4" class="node"><title>Node4</title>
<g id="a_node4"><a xlink:href="classinit.html#a1dd1e2b38eef39cba464f65c9ce82568" target="_top" xlink:title="init::init_model">
<polygon fill="white" stroke="black" points="566,-103.5 566,-122.5 646,-122.5 646,-103.5 566,-103.5"/>
<text text-anchor="middle" x="606" y="-110.5" font-family="Helvetica,sans-Serif" font-size="10.00">init::init_model</text>
</a>
</g>
</g>
<!-- Node3&#45;&gt;Node4 -->
<g id="edge3" class="edge"><title>Node3&#45;&gt;Node4</title>
<path fill="none" stroke="midnightblue" d="M539.766,-113C548.499,-113 557.399,-113 565.703,-113"/>
<polygon fill="midnightblue" stroke="midnightblue" points="539.636,-109.5 529.635,-113 539.635,-116.5 539.636,-109.5"/>
</g>
<!-- Node5 -->
<g id="node5" class="node"><title>Node5</title>
<g id="a_node5"><a xlink:href="driver_8f90.html#ab1e5a5816a57fc6e95d9563c2bb53590" target="_top" xlink:title=" Main Program ">
<polygon fill="white" stroke="black" points="682,-103.5 682,-122.5 714,-122.5 714,-103.5 682,-103.5"/>
<text text-anchor="middle" x="698" y="-110.5" font-family="Helvetica,sans-Serif" font-size="10.00">icar</text>
</a>
</g>
</g>
<!-- Node4&#45;&gt;Node5 -->
<g id="edge4" class="edge"><title>Node4&#45;&gt;Node5</title>
<path fill="none" stroke="midnightblue" d="M656.233,-113C665.449,-113 674.425,-113 681.599,-113"/>
<polygon fill="midnightblue" stroke="midnightblue" points="656.214,-109.5 646.213,-113 656.213,-116.5 656.214,-109.5"/>
</g>
<!-- Node6&#45;&gt;Node3 -->
<g id="edge6" class="edge"><title>Node6&#45;&gt;Node3</title>
<path fill="none" stroke="midnightblue" d="M392.63,-143.665C408.402,-138.372 425.398,-132.668 440.404,-127.632"/>
<polygon fill="midnightblue" stroke="midnightblue" points="391.363,-140.399 382.996,-146.899 393.59,-147.035 391.363,-140.399"/>
</g>
<!-- Node7&#45;&gt;Node3 -->
<g id="edge8" class="edge"><title>Node7&#45;&gt;Node3</title>
<path fill="none" stroke="midnightblue" d="M409.252,-113C419.917,-113 430.632,-113 440.486,-113"/>
<polygon fill="midnightblue" stroke="midnightblue" points="409.071,-109.5 399.071,-113 409.071,-116.5 409.071,-109.5"/>
</g>
<!-- Node8&#45;&gt;Node3 -->
<g id="edge10" class="edge"><title>Node8&#45;&gt;Node3</title>
<path fill="none" stroke="midnightblue" d="M392.63,-82.3346C408.402,-87.6281 425.398,-93.3322 440.404,-98.3684"/>
<polygon fill="midnightblue" stroke="midnightblue" points="393.59,-78.9651 382.996,-79.1014 391.363,-85.6014 393.59,-78.9651"/>
</g>
<!-- Node9&#45;&gt;Node3 -->
<g id="edge12" class="edge"><title>Node9&#45;&gt;Node3</title>
<path fill="none" stroke="midnightblue" d="M393.586,-34.2594C397.184,-36.0517 400.689,-37.9657 404,-40 430.274,-56.1406 455.716,-81.5603 470.61,-97.7461"/>
<polygon fill="midnightblue" stroke="midnightblue" points="395.05,-31.0802 384.505,-30.0559 392.11,-37.4327 395.05,-31.0802"/>
</g>
</g>
</svg>
