<?xml version="1.0" encoding="UTF-8" standalone="no"?>
<!DOCTYPE svg PUBLIC "-//W3C//DTD SVG 1.1//EN"
 "http://www.w3.org/Graphics/SVG/1.1/DTD/svg11.dtd">
<!-- Generated by graphviz version 2.38.0 (20140413.2041)
 -->
<!-- Title: radiation::rad Pages: 1 -->
<svg width="698pt" height="47pt"
 viewBox="0.00 0.00 698.00 47.00" xmlns="http://www.w3.org/2000/svg" xmlns:xlink="http://www.w3.org/1999/xlink">
<g id="graph0" class="graph" transform="scale(1 1) rotate(0) translate(4 43)">
<title>radiation::rad</title>
<polygon fill="white" stroke="none" points="-4,4 -4,-43 694,-43 694,4 -4,4"/>
<!-- Node1 -->
<g id="node1" class="node"><title>Node1</title>
<polygon fill="#bfbfbf" stroke="black" points="0,-19.5 0,-38.5 73,-38.5 73,-19.5 0,-19.5"/>
<text text-anchor="middle" x="36.5" y="-26.5" font-family="Helvetica,sans-Serif" font-size="10.00">radiation::rad</text>
</g>
<!-- Node2 -->
<g id="node2" class="node"><title>Node2</title>
<g id="a_node2"><a xlink:href="classtime__step.html#a2c022f11247af72e607b1493289aa974" target="_top" xlink:title=" Step forward one IO time step. ">
<polygon fill="white" stroke="black" points="538,-19.5 538,-38.5 622,-38.5 622,-19.5 538,-19.5"/>
<text text-anchor="middle" x="580" y="-26.5" font-family="Helvetica,sans-Serif" font-size="10.00">time_step::step</text>
</a>
</g>
</g>
<!-- Node1&#45;&gt;Node2 -->
<g id="edge1" class="edge"><title>Node1&#45;&gt;Node2</title>
<path fill="none" stroke="midnightblue" d="M83.1754,-29C186.858,-29 438.677,-29 537.869,-29"/>
<polygon fill="midnightblue" stroke="midnightblue" points="83.0294,-25.5001 73.0293,-29 83.0293,-32.5001 83.0294,-25.5001"/>
</g>
<!-- Node4 -->
<g id="node4" class="node"><title>Node4</title>
<g id="a_node4"><a xlink:href="classmodule__cu__kf.html#afbc0670c02010c630409b1796e89a3fb" target="_top" xlink:title="module_cu_kf::kfpara">
<polygon fill="white" stroke="black" points="109,-0.5 109,-19.5 219,-19.5 219,-0.5 109,-0.5"/>
<text text-anchor="middle" x="164" y="-7.5" font-family="Helvetica,sans-Serif" font-size="10.00">module_cu_kf::kfpara</text>
</a>
</g>
</g>
<!-- Node1&#45;&gt;Node4 -->
<g id="edge3" class="edge"><title>Node1&#45;&gt;Node4</title>
<path fill="none" stroke="midnightblue" d="M83.1157,-22.094C91.5216,-20.8214 100.372,-19.4816 108.997,-18.1757"/>
<polygon fill="midnightblue" stroke="midnightblue" points="82.491,-18.6486 73.1276,-23.6062 83.5388,-25.5698 82.491,-18.6486"/>
</g>
<!-- Node3 -->
<g id="node3" class="node"><title>Node3</title>
<g id="a_node3"><a xlink:href="driver_8f90.html#ab1e5a5816a57fc6e95d9563c2bb53590" target="_top" xlink:title=" Main Program ">
<polygon fill="white" stroke="black" points="658,-19.5 658,-38.5 690,-38.5 690,-19.5 658,-19.5"/>
<text text-anchor="middle" x="674" y="-26.5" font-family="Helvetica,sans-Serif" font-size="10.00">icar</text>
</a>
</g>
</g>
<!-- Node2&#45;&gt;Node3 -->
<g id="edge2" class="edge"><title>Node2&#45;&gt;Node3</title>
<path fill="none" stroke="midnightblue" d="M632.253,-29C641.521,-29 650.5,-29 657.66,-29"/>
<polygon fill="midnightblue" stroke="midnightblue" points="632.156,-25.5001 622.156,-29 632.156,-32.5001 632.156,-25.5001"/>
</g>
<!-- Node5 -->
<g id="node5" class="node"><title>Node5</title>
<g id="a_node5"><a xlink:href="classmodule__cu__kf.html#a273d9ce9bce064bfc092d6940bea4e27" target="_top" xlink:title="module_cu_kf::kfcps">
<polygon fill="white" stroke="black" points="255,-0.5 255,-19.5 362,-19.5 362,-0.5 255,-0.5"/>
<text text-anchor="middle" x="308.5" y="-7.5" font-family="Helvetica,sans-Serif" font-size="10.00">module_cu_kf::kfcps</text>
</a>
</g>
</g>
<!-- Node4&#45;&gt;Node5 -->
<g id="edge4" class="edge"><title>Node4&#45;&gt;Node5</title>
<path fill="none" stroke="midnightblue" d="M229.503,-10C237.962,-10 246.55,-10 254.783,-10"/>
<polygon fill="midnightblue" stroke="midnightblue" points="229.28,-6.5001 219.28,-10 229.28,-13.5001 229.28,-6.5001"/>
</g>
<!-- Node6 -->
<g id="node6" class="node"><title>Node6</title>
<g id="a_node6"><a xlink:href="classconvection.html#a06b811540eb747b3734e7fb35de41782" target="_top" xlink:title="convection::convect">
<polygon fill="white" stroke="black" points="398,-0.5 398,-19.5 502,-19.5 502,-0.5 398,-0.5"/>
<text text-anchor="middle" x="450" y="-7.5" font-family="Helvetica,sans-Serif" font-size="10.00">convection::convect</text>
</a>
</g>
</g>
<!-- Node5&#45;&gt;Node6 -->
<g id="edge5" class="edge"><title>Node5&#45;&gt;Node6</title>
<path fill="none" stroke="midnightblue" d="M372.409,-10C380.828,-10 389.382,-10 397.572,-10"/>
<polygon fill="midnightblue" stroke="midnightblue" points="372.239,-6.5001 362.239,-10 372.239,-13.5001 372.239,-6.5001"/>
</g>
<!-- Node6&#45;&gt;Node2 -->
<g id="edge6" class="edge"><title>Node6&#45;&gt;Node2</title>
<path fill="none" stroke="midnightblue" d="M512.406,-19.115C521.051,-20.3982 529.759,-21.6907 537.897,-22.8988"/>
<polygon fill="midnightblue" stroke="midnightblue" points="512.731,-15.6249 502.325,-17.6185 511.703,-22.549 512.731,-15.6249"/>
</g>
</g>
</svg>
