<?xml version="1.0" encoding="UTF-8" standalone="no"?>
<!DOCTYPE svg PUBLIC "-//W3C//DTD SVG 1.1//EN"
 "http://www.w3.org/Graphics/SVG/1.1/DTD/svg11.dtd">
<!-- Generated by graphviz version 2.32.0 (20130809.1645)
 -->
<!-- Title: adv_mpdata::advect3d Pages: 1 -->
<svg width="586pt" height="66pt"
 viewBox="0.00 0.00 586.00 66.00" xmlns="http://www.w3.org/2000/svg" xmlns:xlink="http://www.w3.org/1999/xlink">
<g id="graph0" class="graph" transform="scale(1 1) rotate(0) translate(4 62)">
<title>adv_mpdata::advect3d</title>
<polygon fill="white" stroke="white" points="-4,5 -4,-62 583,-62 583,5 -4,5"/>
<!-- Node1 -->
<g id="node1" class="node"><title>Node1</title>
<polygon fill="#bfbfbf" stroke="black" points="0,-19.5 0,-38.5 116,-38.5 116,-19.5 0,-19.5"/>
<text text-anchor="middle" x="58" y="-26.5" font-family="Helvetica,sans-Serif" font-size="10.00">adv_mpdata::advect3d</text>
</g>
<!-- Node2 -->
<g id="node2" class="node"><title>Node2</title>
<g id="a_node2"><a xlink:href="classadv__mpdata.html#ab7491af9ff38f8d903ae2d4ddabc410d" target="_top" xlink:title="adv_mpdata::mpdata">
<polygon fill="white" stroke="black" points="152,-38.5 152,-57.5 260,-57.5 260,-38.5 152,-38.5"/>
<text text-anchor="middle" x="206" y="-45.5" font-family="Helvetica,sans-Serif" font-size="10.00">adv_mpdata::mpdata</text>
</a>
</g>
</g>
<!-- Node1&#45;&gt;Node2 -->
<g id="edge1" class="edge"><title>Node1&#45;&gt;Node2</title>
<path fill="none" stroke="midnightblue" d="M126.23,-37.7492C134.769,-38.8603 143.413,-39.9852 151.692,-41.0626"/>
<polygon fill="midnightblue" stroke="midnightblue" points="126.652,-34.2746 116.284,-36.4548 125.749,-41.2161 126.652,-34.2746"/>
</g>
<!-- Node6 -->
<g id="node6" class="node"><title>Node6</title>
<g id="a_node6"><a xlink:href="classadv__upwind.html#a3a006d2b2d9ebc4dbd83152ff5a0f35b" target="_top" xlink:title="adv_upwind::upwind">
<polygon fill="white" stroke="black" points="153.5,-0.5 153.5,-19.5 258.5,-19.5 258.5,-0.5 153.5,-0.5"/>
<text text-anchor="middle" x="206" y="-7.5" font-family="Helvetica,sans-Serif" font-size="10.00">adv_upwind::upwind</text>
</a>
</g>
</g>
<!-- Node1&#45;&gt;Node6 -->
<g id="edge5" class="edge"><title>Node1&#45;&gt;Node6</title>
<path fill="none" stroke="midnightblue" d="M126.352,-20.235C135.339,-19.0654 144.441,-17.881 153.108,-16.753"/>
<polygon fill="midnightblue" stroke="midnightblue" points="125.749,-16.7839 116.284,-21.5452 126.652,-23.7254 125.749,-16.7839"/>
</g>
<!-- Node3 -->
<g id="node3" class="node"><title>Node3</title>
<g id="a_node3"><a xlink:href="classadvection.html#a27abbf643ae159c75c9c0c68b7627f31" target="_top" xlink:title="advection::advect">
<polygon fill="white" stroke="black" points="296,-19.5 296,-38.5 390,-38.5 390,-19.5 296,-19.5"/>
<text text-anchor="middle" x="343" y="-26.5" font-family="Helvetica,sans-Serif" font-size="10.00">advection::advect</text>
</a>
</g>
</g>
<!-- Node2&#45;&gt;Node3 -->
<g id="edge2" class="edge"><title>Node2&#45;&gt;Node3</title>
<path fill="none" stroke="midnightblue" d="M270.288,-39.0929C278.811,-37.8932 287.425,-36.6809 295.582,-35.5329"/>
<polygon fill="midnightblue" stroke="midnightblue" points="269.77,-35.6311 260.356,-40.4907 270.746,-42.5628 269.77,-35.6311"/>
</g>
<!-- Node4 -->
<g id="node4" class="node"><title>Node4</title>
<g id="a_node4"><a xlink:href="classtime__step.html#a2c022f11247af72e607b1493289aa974" target="_top" xlink:title=" Step forward one IO time step. ">
<polygon fill="white" stroke="black" points="426,-19.5 426,-38.5 510,-38.5 510,-19.5 426,-19.5"/>
<text text-anchor="middle" x="468" y="-26.5" font-family="Helvetica,sans-Serif" font-size="10.00">time_step::step</text>
</a>
</g>
</g>
<!-- Node3&#45;&gt;Node4 -->
<g id="edge3" class="edge"><title>Node3&#45;&gt;Node4</title>
<path fill="none" stroke="midnightblue" d="M400.191,-29C408.834,-29 417.618,-29 425.853,-29"/>
<polygon fill="midnightblue" stroke="midnightblue" points="400.151,-25.5001 390.151,-29 400.151,-32.5001 400.151,-25.5001"/>
</g>
<!-- Node5 -->
<g id="node5" class="node"><title>Node5</title>
<g id="a_node5"><a xlink:href="driver_8f90.html#ab1e5a5816a57fc6e95d9563c2bb53590" target="_top" xlink:title=" Main Program ">
<polygon fill="white" stroke="black" points="546,-19.5 546,-38.5 578,-38.5 578,-19.5 546,-19.5"/>
<text text-anchor="middle" x="562" y="-26.5" font-family="Helvetica,sans-Serif" font-size="10.00">icar</text>
</a>
</g>
</g>
<!-- Node4&#45;&gt;Node5 -->
<g id="edge4" class="edge"><title>Node4&#45;&gt;Node5</title>
<path fill="none" stroke="midnightblue" d="M520.253,-29C529.521,-29 538.5,-29 545.66,-29"/>
<polygon fill="midnightblue" stroke="midnightblue" points="520.156,-25.5001 510.156,-29 520.156,-32.5001 520.156,-25.5001"/>
</g>
<!-- Node6&#45;&gt;Node3 -->
<g id="edge6" class="edge"><title>Node6&#45;&gt;Node3</title>
<path fill="none" stroke="midnightblue" d="M268.939,-18.7173C277.993,-19.9917 287.182,-21.2849 295.847,-22.5045"/>
<polygon fill="midnightblue" stroke="midnightblue" points="269.199,-15.2195 258.808,-17.2916 268.223,-22.1512 269.199,-15.2195"/>
</g>
</g>
</svg>
