<?xml version="1.0" encoding="UTF-8" standalone="no"?>
<!DOCTYPE svg PUBLIC "-//W3C//DTD SVG 1.1//EN"
 "http://www.w3.org/Graphics/SVG/1.1/DTD/svg11.dtd">
<!-- Generated by graphviz version 2.38.0 (20140413.2041)
 -->
<!-- Title: land_surface::lsm Pages: 1 -->
<svg width="1191pt" height="747pt"
 viewBox="0.00 0.00 1191.00 747.05" xmlns="http://www.w3.org/2000/svg" xmlns:xlink="http://www.w3.org/1999/xlink">
<g id="graph0" class="graph" transform="scale(1 1) rotate(0) translate(4 743.054)">
<title>land_surface::lsm</title>
<polygon fill="white" stroke="none" points="-4,4 -4,-743.054 1187,-743.054 1187,4 -4,4"/>
<!-- Node1 -->
<g id="node1" class="node"><title>Node1</title>
<polygon fill="#bfbfbf" stroke="black" points="0,-526 0,-545 94,-545 94,-526 0,-526"/>
<text text-anchor="middle" x="47" y="-533" font-family="Helvetica,sans-Serif" font-size="10.00">land_surface::lsm</text>
</g>
<!-- Node2 -->
<g id="node2" class="node"><title>Node2</title>
<g id="a_node2"><a xlink:href="classland__surface.html#a91d5fd091cf016fb3312e53c3907d1c5" target="_top" xlink:title="land_surface::calc\l_exchange_coefficient">
<polygon fill="white" stroke="black" points="304.5,-620.5 304.5,-650.5 418.5,-650.5 418.5,-620.5 304.5,-620.5"/>
<text text-anchor="start" x="312.5" y="-638.5" font-family="Helvetica,sans-Serif" font-size="10.00">land_surface::calc</text>
<text text-anchor="middle" x="361.5" y="-627.5" font-family="Helvetica,sans-Serif" font-size="10.00">_exchange_coefficient</text>
</a>
</g>
</g>
<!-- Node1&#45;&gt;Node2 -->
<g id="edge1" class="edge"><title>Node1&#45;&gt;Node2</title>
<path fill="none" stroke="midnightblue" d="M60.0132,-545.103C75.3507,-556.876 103.13,-576.605 130,-587.5 183.112,-609.037 247.19,-621.381 294.289,-628.142"/>
<polygon fill="midnightblue" stroke="midnightblue" points="293.985,-631.633 304.372,-629.541 294.948,-624.699 293.985,-631.633"/>
</g>
<!-- Node3 -->
<g id="node3" class="node"><title>Node3</title>
<g id="a_node3"><a xlink:href="classland__surface.html#a3c2a62e40169606db7a71db57364baea" target="_top" xlink:title="land_surface::calc\l_mahrt_holtslag_exchange\l_coefficient">
<polygon fill="white" stroke="black" points="130,-488 130,-529 263,-529 263,-488 130,-488"/>
<text text-anchor="start" x="138" y="-517" font-family="Helvetica,sans-Serif" font-size="10.00">land_surface::calc</text>
<text text-anchor="start" x="138" y="-506" font-family="Helvetica,sans-Serif" font-size="10.00">_mahrt_holtslag_exchange</text>
<text text-anchor="middle" x="196.5" y="-495" font-family="Helvetica,sans-Serif" font-size="10.00">_coefficient</text>
</a>
</g>
</g>
<!-- Node1&#45;&gt;Node3 -->
<g id="edge2" class="edge"><title>Node1&#45;&gt;Node3</title>
<path fill="none" stroke="midnightblue" d="M94.2652,-527.031C102.491,-525.525 111.249,-523.922 120.039,-522.313"/>
<polygon fill="midnightblue" stroke="midnightblue" points="120.744,-525.742 129.95,-520.499 119.484,-518.857 120.744,-525.742"/>
</g>
<!-- Node5 -->
<g id="node5" class="node"><title>Node5</title>
<g id="a_node5"><a xlink:href="classmodule__water__simple.html#ad47e405cb5cf58757fb5425337139251" target="_top" xlink:title="module_water_simple\l::water_simple">
<polygon fill="white" stroke="black" points="141,-664.5 141,-694.5 252,-694.5 252,-664.5 141,-664.5"/>
<text text-anchor="start" x="149" y="-682.5" font-family="Helvetica,sans-Serif" font-size="10.00">module_water_simple</text>
<text text-anchor="middle" x="196.5" y="-671.5" font-family="Helvetica,sans-Serif" font-size="10.00">::water_simple</text>
</a>
</g>
</g>
<!-- Node1&#45;&gt;Node5 -->
<g id="edge4" class="edge"><title>Node1&#45;&gt;Node5</title>
<path fill="none" stroke="midnightblue" d="M52.9147,-545.108C64.0704,-566.12 93.2169,-616.729 130,-647.5 135.348,-651.974 141.428,-656.004 147.677,-659.575"/>
<polygon fill="midnightblue" stroke="midnightblue" points="146.415,-662.868 156.888,-664.475 149.703,-656.688 146.415,-662.868"/>
</g>
<!-- Node6 -->
<g id="node6" class="node"><title>Node6</title>
<g id="a_node6"><a xlink:href="classland__surface.html#ab611d871ec5af4909055c4484c2695e9" target="_top" xlink:title="land_surface::sat_mr">
<polygon fill="white" stroke="black" points="307.5,-719 307.5,-738 415.5,-738 415.5,-719 307.5,-719"/>
<text text-anchor="middle" x="361.5" y="-726" font-family="Helvetica,sans-Serif" font-size="10.00">land_surface::sat_mr</text>
</a>
</g>
</g>
<!-- Node1&#45;&gt;Node6 -->
<g id="edge14" class="edge"><title>Node1&#45;&gt;Node6</title>
<path fill="none" stroke="midnightblue" d="M49.4173,-545.244C54.3047,-574.959 73.3878,-664.815 130,-704.5 178.544,-738.53 247.569,-741.337 297.416,-737.59"/>
<polygon fill="midnightblue" stroke="midnightblue" points="297.768,-741.072 307.432,-736.73 297.17,-734.098 297.768,-741.072"/>
</g>
<!-- Node8 -->
<g id="node8" class="node"><title>Node8</title>
<g id="a_node8"><a xlink:href="classmodule__lsm__simple.html#ae5b0abd9812d2312b5c80f9b2f02d17e" target="_top" xlink:title="module_lsm_simple::\llsm_simple">
<polygon fill="white" stroke="black" points="142,-547.5 142,-577.5 251,-577.5 251,-547.5 142,-547.5"/>
<text text-anchor="start" x="150" y="-565.5" font-family="Helvetica,sans-Serif" font-size="10.00">module_lsm_simple::</text>
<text text-anchor="middle" x="196.5" y="-554.5" font-family="Helvetica,sans-Serif" font-size="10.00">lsm_simple</text>
</a>
</g>
</g>
<!-- Node1&#45;&gt;Node8 -->
<g id="edge8" class="edge"><title>Node1&#45;&gt;Node8</title>
<path fill="none" stroke="midnightblue" d="M94.2652,-543.969C106.198,-546.153 119.252,-548.543 131.899,-550.858"/>
<polygon fill="midnightblue" stroke="midnightblue" points="131.459,-554.335 141.926,-552.693 132.719,-547.45 131.459,-554.335"/>
</g>
<!-- Node13 -->
<g id="node13" class="node"><title>Node13</title>
<g id="a_node13"><a xlink:href="classmodule__sf__noahdrv.html#a329dccdd0c1fc2797bc8ebcc9bcc0ff6" target="_top" xlink:title="module_sf_noahdrv::\llsm_noah">
<polygon fill="white" stroke="black" points="143,-439.5 143,-469.5 250,-469.5 250,-439.5 143,-439.5"/>
<text text-anchor="start" x="151" y="-457.5" font-family="Helvetica,sans-Serif" font-size="10.00">module_sf_noahdrv::</text>
<text text-anchor="middle" x="196.5" y="-446.5" font-family="Helvetica,sans-Serif" font-size="10.00">lsm_noah</text>
</a>
</g>
</g>
<!-- Node1&#45;&gt;Node13 -->
<g id="edge15" class="edge"><title>Node1&#45;&gt;Node13</title>
<path fill="none" stroke="midnightblue" d="M59.6108,-525.984C74.97,-513.746 103.232,-492.413 130,-478.5 133.311,-476.779 136.774,-475.125 140.304,-473.546"/>
<polygon fill="midnightblue" stroke="midnightblue" points="141.903,-476.67 149.748,-469.549 139.175,-470.223 141.903,-476.67"/>
</g>
<!-- Node43 -->
<g id="node43" class="node"><title>Node43</title>
<g id="a_node43"><a xlink:href="classland__surface.html#a90a1f4fe91cb7cab64c843a545ce7cb6" target="_top" xlink:title="land_surface::surface\l_diagnostics">
<polygon fill="white" stroke="black" points="141.5,-390.5 141.5,-420.5 251.5,-420.5 251.5,-390.5 141.5,-390.5"/>
<text text-anchor="start" x="149.5" y="-408.5" font-family="Helvetica,sans-Serif" font-size="10.00">land_surface::surface</text>
<text text-anchor="middle" x="196.5" y="-397.5" font-family="Helvetica,sans-Serif" font-size="10.00">_diagnostics</text>
</a>
</g>
</g>
<!-- Node1&#45;&gt;Node43 -->
<g id="edge51" class="edge"><title>Node1&#45;&gt;Node43</title>
<path fill="none" stroke="midnightblue" d="M53.0475,-525.963C64.2555,-505.641 93.1633,-457.709 130,-430.5 132.466,-428.679 135.081,-426.973 137.791,-425.38"/>
<polygon fill="midnightblue" stroke="midnightblue" points="139.507,-428.432 146.708,-420.661 136.232,-422.245 139.507,-428.432"/>
</g>
<!-- Node44 -->
<g id="node44" class="node"><title>Node44</title>
<g id="a_node44"><a xlink:href="classland__surface.html#a7e3ca7f3603728ff47008943c2bc5dd5" target="_top" xlink:title="land_surface::apply\l_fluxes">
<polygon fill="white" stroke="black" points="146,-341.5 146,-371.5 247,-371.5 247,-341.5 146,-341.5"/>
<text text-anchor="start" x="154" y="-359.5" font-family="Helvetica,sans-Serif" font-size="10.00">land_surface::apply</text>
<text text-anchor="middle" x="196.5" y="-348.5" font-family="Helvetica,sans-Serif" font-size="10.00">_fluxes</text>
</a>
</g>
</g>
<!-- Node1&#45;&gt;Node44 -->
<g id="edge52" class="edge"><title>Node1&#45;&gt;Node44</title>
<path fill="none" stroke="midnightblue" d="M50.5852,-525.685C58.1527,-498.797 82.7613,-423.188 130,-381.5 132.182,-379.575 134.527,-377.791 136.987,-376.139"/>
<polygon fill="midnightblue" stroke="midnightblue" points="138.863,-379.096 145.717,-371.017 135.32,-373.059 138.863,-379.096"/>
</g>
<!-- Node4 -->
<g id="node4" class="node"><title>Node4</title>
<g id="a_node4"><a xlink:href="classland__surface.html#a57d90bf462c2ccb7b2c36730b4ed89df" target="_top" xlink:title="land_surface::f2_formula">
<polygon fill="white" stroke="black" points="299.5,-386 299.5,-405 423.5,-405 423.5,-386 299.5,-386"/>
<text text-anchor="middle" x="361.5" y="-393" font-family="Helvetica,sans-Serif" font-size="10.00">land_surface::f2_formula</text>
</a>
</g>
</g>
<!-- Node3&#45;&gt;Node4 -->
<g id="edge3" class="edge"><title>Node3&#45;&gt;Node4</title>
<path fill="none" stroke="midnightblue" d="M251.814,-487.936C255.805,-485.4 259.595,-482.595 263,-479.5 287.153,-457.552 273.755,-436.183 299,-415.5 301.732,-413.262 304.72,-411.272 307.862,-409.503"/>
<polygon fill="midnightblue" stroke="midnightblue" points="309.546,-412.576 317.033,-405.079 306.505,-406.271 309.546,-412.576"/>
</g>
<!-- Node5&#45;&gt;Node2 -->
<g id="edge7" class="edge"><title>Node5&#45;&gt;Node2</title>
<path fill="none" stroke="midnightblue" d="M252.23,-664.726C265.982,-661.014 280.877,-656.993 295.092,-653.156"/>
<polygon fill="midnightblue" stroke="midnightblue" points="296.06,-656.52 304.803,-650.535 294.236,-649.762 296.06,-656.52"/>
</g>
<!-- Node5&#45;&gt;Node6 -->
<g id="edge5" class="edge"><title>Node5&#45;&gt;Node6</title>
<path fill="none" stroke="midnightblue" d="M247.735,-694.601C270.611,-701.478 297.359,-709.519 319.062,-716.043"/>
<polygon fill="midnightblue" stroke="midnightblue" points="318.063,-719.397 328.647,-718.925 320.078,-712.694 318.063,-719.397"/>
</g>
<!-- Node7 -->
<g id="node7" class="node"><title>Node7</title>
<g id="a_node7"><a xlink:href="classmodule__water__simple.html#a5b9a1a842f3dc930a7240399069f9810" target="_top" xlink:title="module_water_simple\l::ocean_roughness">
<polygon fill="white" stroke="black" points="306,-669.5 306,-699.5 417,-699.5 417,-669.5 306,-669.5"/>
<text text-anchor="start" x="314" y="-687.5" font-family="Helvetica,sans-Serif" font-size="10.00">module_water_simple</text>
<text text-anchor="middle" x="361.5" y="-676.5" font-family="Helvetica,sans-Serif" font-size="10.00">::ocean_roughness</text>
</a>
</g>
</g>
<!-- Node5&#45;&gt;Node7 -->
<g id="edge6" class="edge"><title>Node5&#45;&gt;Node7</title>
<path fill="none" stroke="midnightblue" d="M252.23,-681.179C266.147,-681.606 281.236,-682.069 295.605,-682.509"/>
<polygon fill="midnightblue" stroke="midnightblue" points="295.812,-686.017 305.914,-682.826 296.026,-679.021 295.812,-686.017"/>
</g>
<!-- Node8&#45;&gt;Node2 -->
<g id="edge10" class="edge"><title>Node8&#45;&gt;Node2</title>
<path fill="none" stroke="midnightblue" d="M227.417,-577.699C247.482,-587.705 274.603,-600.87 299,-611.5 302.901,-613.2 306.964,-614.911 311.059,-616.595"/>
<polygon fill="midnightblue" stroke="midnightblue" points="310.032,-619.955 320.615,-620.456 312.655,-613.465 310.032,-619.955"/>
</g>
<!-- Node9 -->
<g id="node9" class="node"><title>Node9</title>
<g id="a_node9"><a xlink:href="classmodule__lsm__simple.html#a924f558b4123cab6e16c0b7c0f808f08" target="_top" xlink:title="module_lsm_simple::\lcalc_ground_heat">
<polygon fill="white" stroke="black" points="307,-424.5 307,-454.5 416,-454.5 416,-424.5 307,-424.5"/>
<text text-anchor="start" x="315" y="-442.5" font-family="Helvetica,sans-Serif" font-size="10.00">module_lsm_simple::</text>
<text text-anchor="middle" x="361.5" y="-431.5" font-family="Helvetica,sans-Serif" font-size="10.00">calc_ground_heat</text>
</a>
</g>
</g>
<!-- Node8&#45;&gt;Node9 -->
<g id="edge9" class="edge"><title>Node8&#45;&gt;Node9</title>
<path fill="none" stroke="midnightblue" d="M250.376,-547.374C254.926,-544.846 259.225,-541.91 263,-538.5 290.141,-513.984 272.29,-489.486 299,-464.5 300.675,-462.933 302.462,-461.458 304.333,-460.071"/>
<polygon fill="midnightblue" stroke="midnightblue" points="306.449,-462.872 312.987,-454.535 302.677,-456.976 306.449,-462.872"/>
</g>
<!-- Node10 -->
<g id="node10" class="node"><title>Node10</title>
<g id="a_node10"><a xlink:href="classmodule__lsm__simple.html#a6ac1af4d14a6952c271d60a04452011a" target="_top" xlink:title="module_lsm_simple::\lcalc_sensible_heat">
<polygon fill="white" stroke="black" points="307,-571.5 307,-601.5 416,-601.5 416,-571.5 307,-571.5"/>
<text text-anchor="start" x="315" y="-589.5" font-family="Helvetica,sans-Serif" font-size="10.00">module_lsm_simple::</text>
<text text-anchor="middle" x="361.5" y="-578.5" font-family="Helvetica,sans-Serif" font-size="10.00">calc_sensible_heat</text>
</a>
</g>
</g>
<!-- Node8&#45;&gt;Node10 -->
<g id="edge11" class="edge"><title>Node8&#45;&gt;Node10</title>
<path fill="none" stroke="midnightblue" d="M251.324,-570.425C265.79,-572.555 281.576,-574.879 296.535,-577.082"/>
<polygon fill="midnightblue" stroke="midnightblue" points="296.329,-580.589 306.732,-578.583 297.349,-573.664 296.329,-580.589"/>
</g>
<!-- Node11 -->
<g id="node11" class="node"><title>Node11</title>
<g id="a_node11"><a xlink:href="classmodule__lsm__simple.html#ae065f8a594a1ff0c54d6b1bd3bcf0698" target="_top" xlink:title="module_lsm_simple::\lcalc_latent_heat">
<polygon fill="white" stroke="black" points="307,-522.5 307,-552.5 416,-552.5 416,-522.5 307,-522.5"/>
<text text-anchor="start" x="315" y="-540.5" font-family="Helvetica,sans-Serif" font-size="10.00">module_lsm_simple::</text>
<text text-anchor="middle" x="361.5" y="-529.5" font-family="Helvetica,sans-Serif" font-size="10.00">calc_latent_heat</text>
</a>
</g>
</g>
<!-- Node8&#45;&gt;Node11 -->
<g id="edge12" class="edge"><title>Node8&#45;&gt;Node11</title>
<path fill="none" stroke="midnightblue" d="M251.324,-554.245C265.79,-552.026 281.576,-549.605 296.535,-547.311"/>
<polygon fill="midnightblue" stroke="midnightblue" points="297.379,-550.722 306.732,-545.747 296.317,-543.803 297.379,-550.722"/>
</g>
<!-- Node12 -->
<g id="node12" class="node"><title>Node12</title>
<g id="a_node12"><a xlink:href="classmodule__lsm__simple.html#a7917430537d70da25563482bac20e39c" target="_top" xlink:title="module_lsm_simple::\ladd_rain">
<polygon fill="white" stroke="black" points="307,-473.5 307,-503.5 416,-503.5 416,-473.5 307,-473.5"/>
<text text-anchor="start" x="315" y="-491.5" font-family="Helvetica,sans-Serif" font-size="10.00">module_lsm_simple::</text>
<text text-anchor="middle" x="361.5" y="-480.5" font-family="Helvetica,sans-Serif" font-size="10.00">add_rain</text>
</a>
</g>
</g>
<!-- Node8&#45;&gt;Node12 -->
<g id="edge13" class="edge"><title>Node8&#45;&gt;Node12</title>
<path fill="none" stroke="midnightblue" d="M243.25,-547.449C249.996,-544.741 256.767,-541.738 263,-538.5 280.286,-529.52 281.873,-522.78 299,-513.5 302.705,-511.492 306.606,-509.548 310.572,-507.691"/>
<polygon fill="midnightblue" stroke="midnightblue" points="312.184,-510.804 319.881,-503.523 309.324,-504.415 312.184,-510.804"/>
</g>
<!-- Node14 -->
<g id="node14" class="node"><title>Node14</title>
<g id="a_node14"><a xlink:href="classmodule__sf__noahlsm.html#a7cd9a2732205c21a5f59d679e0a1fddd" target="_top" xlink:title="module_sf_noahlsm::sflx">
<polygon fill="white" stroke="black" points="299,-348 299,-367 424,-367 424,-348 299,-348"/>
<text text-anchor="middle" x="361.5" y="-355" font-family="Helvetica,sans-Serif" font-size="10.00">module_sf_noahlsm::sflx</text>
</a>
</g>
</g>
<!-- Node13&#45;&gt;Node14 -->
<g id="edge16" class="edge"><title>Node13&#45;&gt;Node14</title>
<path fill="none" stroke="midnightblue" d="M248.913,-439.335C253.918,-436.799 258.718,-433.872 263,-430.5 285.662,-412.656 275.885,-393.754 299,-376.5 301.516,-374.622 304.22,-372.927 307.041,-371.399"/>
<polygon fill="midnightblue" stroke="midnightblue" points="308.774,-374.453 316.361,-367.058 305.819,-368.107 308.774,-374.453"/>
</g>
<!-- Node15 -->
<g id="node15" class="node"><title>Node15</title>
<g id="a_node15"><a xlink:href="classmodule__sf__noahlsm.html#a035da859804652a83bc5fd235e70b2e0" target="_top" xlink:title="module_sf_noahlsm::\lredprm">
<polygon fill="white" stroke="black" points="460,-582.5 460,-612.5 570,-612.5 570,-582.5 460,-582.5"/>
<text text-anchor="start" x="468" y="-600.5" font-family="Helvetica,sans-Serif" font-size="10.00">module_sf_noahlsm::</text>
<text text-anchor="middle" x="515" y="-589.5" font-family="Helvetica,sans-Serif" font-size="10.00">redprm</text>
</a>
</g>
</g>
<!-- Node14&#45;&gt;Node15 -->
<g id="edge17" class="edge"><title>Node14&#45;&gt;Node15</title>
<path fill="none" stroke="midnightblue" d="M411.868,-367.119C416.416,-369.579 420.587,-372.656 424,-376.5 483.086,-443.064 404.962,-503.551 460,-573.5 460.583,-574.241 461.193,-574.959 461.829,-575.656"/>
<polygon fill="midnightblue" stroke="midnightblue" points="459.634,-578.386 469.469,-582.325 464.237,-573.112 459.634,-578.386"/>
</g>
<!-- Node16 -->
<g id="node16" class="node"><title>Node16</title>
<g id="a_node16"><a xlink:href="classmodule__sf__noahlsm.html#abb6e84ee87a6fdb3281c33e8e8457a04" target="_top" xlink:title="module_sf_noahlsm::\lcsnow">
<polygon fill="white" stroke="black" points="460,-533.5 460,-563.5 570,-563.5 570,-533.5 460,-533.5"/>
<text text-anchor="start" x="468" y="-551.5" font-family="Helvetica,sans-Serif" font-size="10.00">module_sf_noahlsm::</text>
<text text-anchor="middle" x="515" y="-540.5" font-family="Helvetica,sans-Serif" font-size="10.00">csnow</text>
</a>
</g>
</g>
<!-- Node14&#45;&gt;Node16 -->
<g id="edge18" class="edge"><title>Node14&#45;&gt;Node16</title>
<path fill="none" stroke="midnightblue" d="M411.045,-367.009C415.865,-369.483 420.325,-372.593 424,-376.5 470.385,-425.806 416.618,-472.532 460,-524.5 460.707,-525.347 461.449,-526.165 462.224,-526.955"/>
<polygon fill="midnightblue" stroke="midnightblue" points="459.996,-529.654 469.93,-533.337 464.461,-524.263 459.996,-529.654"/>
</g>
<!-- Node17 -->
<g id="node17" class="node"><title>Node17</title>
<g id="a_node17"><a xlink:href="classmodule__sf__noahlsm.html#ab7e465439f409557715a28bea71551c1" target="_top" xlink:title="module_sf_noahlsm::\lsnow_new">
<polygon fill="white" stroke="black" points="460,-484.5 460,-514.5 570,-514.5 570,-484.5 460,-484.5"/>
<text text-anchor="start" x="468" y="-502.5" font-family="Helvetica,sans-Serif" font-size="10.00">module_sf_noahlsm::</text>
<text text-anchor="middle" x="515" y="-491.5" font-family="Helvetica,sans-Serif" font-size="10.00">snow_new</text>
</a>
</g>
</g>
<!-- Node14&#45;&gt;Node17 -->
<g id="edge19" class="edge"><title>Node14&#45;&gt;Node17</title>
<path fill="none" stroke="midnightblue" d="M410.017,-367.125C415.141,-369.575 419.953,-372.647 424,-376.5 457.909,-408.783 428.063,-441.265 460,-475.5 460.886,-476.449 461.816,-477.364 462.784,-478.244"/>
<polygon fill="midnightblue" stroke="midnightblue" points="460.752,-481.096 470.837,-484.344 464.979,-475.516 460.752,-481.096"/>
</g>
<!-- Node18 -->
<g id="node18" class="node"><title>Node18</title>
<g id="a_node18"><a xlink:href="classmodule__sf__noahlsm.html#ae7ad09a03325fa6a08429faa078bb8f2" target="_top" xlink:title="module_sf_noahlsm::\lsnfrac">
<polygon fill="white" stroke="black" points="460,-435.5 460,-465.5 570,-465.5 570,-435.5 460,-435.5"/>
<text text-anchor="start" x="468" y="-453.5" font-family="Helvetica,sans-Serif" font-size="10.00">module_sf_noahlsm::</text>
<text text-anchor="middle" x="515" y="-442.5" font-family="Helvetica,sans-Serif" font-size="10.00">snfrac</text>
</a>
</g>
</g>
<!-- Node14&#45;&gt;Node18 -->
<g id="edge20" class="edge"><title>Node14&#45;&gt;Node18</title>
<path fill="none" stroke="midnightblue" d="M406.195,-367.101C412.494,-369.568 418.646,-372.652 424,-376.5 446.235,-392.482 438.751,-409.229 460,-426.5 461.552,-427.762 463.182,-428.971 464.867,-430.127"/>
<polygon fill="midnightblue" stroke="midnightblue" points="463.303,-433.272 473.665,-435.479 466.94,-427.292 463.303,-433.272"/>
</g>
<!-- Node19 -->
<g id="node19" class="node"><title>Node19</title>
<g id="a_node19"><a xlink:href="classmodule__sf__noahlsm.html#a7a78bcce992262a6c96711208974f7f1" target="_top" xlink:title="module_sf_noahlsm::\lalcalc">
<polygon fill="white" stroke="black" points="460,-386.5 460,-416.5 570,-416.5 570,-386.5 460,-386.5"/>
<text text-anchor="start" x="468" y="-404.5" font-family="Helvetica,sans-Serif" font-size="10.00">module_sf_noahlsm::</text>
<text text-anchor="middle" x="515" y="-393.5" font-family="Helvetica,sans-Serif" font-size="10.00">alcalc</text>
</a>
</g>
</g>
<!-- Node14&#45;&gt;Node19 -->
<g id="edge21" class="edge"><title>Node14&#45;&gt;Node19</title>
<path fill="none" stroke="midnightblue" d="M395.373,-367.047C412.05,-371.891 432.86,-377.935 452.374,-383.602"/>
<polygon fill="midnightblue" stroke="midnightblue" points="451.548,-387.007 462.127,-386.435 453.5,-380.284 451.548,-387.007"/>
</g>
<!-- Node20 -->
<g id="node20" class="node"><title>Node20</title>
<g id="a_node20"><a xlink:href="classmodule__sf__noahlsm.html#aac4dfa006a09d48e949536f4dc217bbf" target="_top" xlink:title="module_sf_noahlsm::\ltdfcnd">
<polygon fill="white" stroke="black" points="918,-339.5 918,-369.5 1028,-369.5 1028,-339.5 918,-339.5"/>
<text text-anchor="start" x="926" y="-357.5" font-family="Helvetica,sans-Serif" font-size="10.00">module_sf_noahlsm::</text>
<text text-anchor="middle" x="973" y="-346.5" font-family="Helvetica,sans-Serif" font-size="10.00">tdfcnd</text>
</a>
</g>
</g>
<!-- Node14&#45;&gt;Node20 -->
<g id="edge22" class="edge"><title>Node14&#45;&gt;Node20</title>
<path fill="none" stroke="midnightblue" d="M424.014,-357.197C539.909,-356.627 789.545,-355.398 907.612,-354.817"/>
<polygon fill="midnightblue" stroke="midnightblue" points="907.953,-358.315 917.936,-354.766 907.918,-351.315 907.953,-358.315"/>
</g>
<!-- Node21 -->
<g id="node21" class="node"><title>Node21</title>
<g id="a_node21"><a xlink:href="classmodule__sf__noahlsm.html#ab3693cb1c40b1bd7b4db5e96337f6eef" target="_top" xlink:title="module_sf_noahlsm::\lsnowz0">
<polygon fill="white" stroke="black" points="460,-200.5 460,-230.5 570,-230.5 570,-200.5 460,-200.5"/>
<text text-anchor="start" x="468" y="-218.5" font-family="Helvetica,sans-Serif" font-size="10.00">module_sf_noahlsm::</text>
<text text-anchor="middle" x="515" y="-207.5" font-family="Helvetica,sans-Serif" font-size="10.00">snowz0</text>
</a>
</g>
</g>
<!-- Node14&#45;&gt;Node21 -->
<g id="edge23" class="edge"><title>Node14&#45;&gt;Node21</title>
<path fill="none" stroke="midnightblue" d="M368.176,-347.972C381.612,-326.12 417.452,-271.793 460,-239.5 461.624,-238.267 463.322,-237.081 465.071,-235.942"/>
<polygon fill="midnightblue" stroke="midnightblue" points="467.284,-238.703 474.156,-230.639 463.755,-232.658 467.284,-238.703"/>
</g>
<!-- Node22 -->
<g id="node22" class="node"><title>Node22</title>
<g id="a_node22"><a xlink:href="classmodule__sf__noahlsm.html#adebb599290dd898c8995442436263d52" target="_top" xlink:title="module_sf_noahlsm::\lpenman">
<polygon fill="white" stroke="black" points="460,-151.5 460,-181.5 570,-181.5 570,-151.5 460,-151.5"/>
<text text-anchor="start" x="468" y="-169.5" font-family="Helvetica,sans-Serif" font-size="10.00">module_sf_noahlsm::</text>
<text text-anchor="middle" x="515" y="-158.5" font-family="Helvetica,sans-Serif" font-size="10.00">penman</text>
</a>
</g>
</g>
<!-- Node14&#45;&gt;Node22 -->
<g id="edge24" class="edge"><title>Node14&#45;&gt;Node22</title>
<path fill="none" stroke="midnightblue" d="M365.725,-347.817C375.515,-319.778 407.477,-237.531 460,-190.5 461.287,-189.347 462.639,-188.242 464.041,-187.184"/>
<polygon fill="midnightblue" stroke="midnightblue" points="466.081,-190.032 472.524,-181.621 462.242,-184.178 466.081,-190.032"/>
</g>
<!-- Node23 -->
<g id="node23" class="node"><title>Node23</title>
<g id="a_node23"><a xlink:href="classmodule__sf__noahlsm.html#a433b2b986f9e11459dc99a8a99db6ba7" target="_top" xlink:title="module_sf_noahlsm::\lcanres">
<polygon fill="white" stroke="black" points="460,-102.5 460,-132.5 570,-132.5 570,-102.5 460,-102.5"/>
<text text-anchor="start" x="468" y="-120.5" font-family="Helvetica,sans-Serif" font-size="10.00">module_sf_noahlsm::</text>
<text text-anchor="middle" x="515" y="-109.5" font-family="Helvetica,sans-Serif" font-size="10.00">canres</text>
</a>
</g>
</g>
<!-- Node14&#45;&gt;Node23 -->
<g id="edge25" class="edge"><title>Node14&#45;&gt;Node23</title>
<path fill="none" stroke="midnightblue" d="M364.281,-347.917C370.894,-314.854 396.978,-204.158 460,-141.5 461.069,-140.438 462.192,-139.418 463.361,-138.44"/>
<polygon fill="midnightblue" stroke="midnightblue" points="465.5,-141.214 471.629,-132.572 461.449,-135.506 465.5,-141.214"/>
</g>
<!-- Node24 -->
<g id="node24" class="node"><title>Node24</title>
<g id="a_node24"><a xlink:href="classmodule__sf__noahlsm.html#a6a17443ddbf15acdb25690cfbb3749a3" target="_top" xlink:title="module_sf_noahlsm::\lnopac">
<polygon fill="white" stroke="black" points="460,-298.5 460,-328.5 570,-328.5 570,-298.5 460,-298.5"/>
<text text-anchor="start" x="468" y="-316.5" font-family="Helvetica,sans-Serif" font-size="10.00">module_sf_noahlsm::</text>
<text text-anchor="middle" x="515" y="-305.5" font-family="Helvetica,sans-Serif" font-size="10.00">nopac</text>
</a>
</g>
</g>
<!-- Node14&#45;&gt;Node24 -->
<g id="edge26" class="edge"><title>Node14&#45;&gt;Node24</title>
<path fill="none" stroke="midnightblue" d="M395.373,-347.953C412.05,-343.109 432.86,-337.065 452.374,-331.398"/>
<polygon fill="midnightblue" stroke="midnightblue" points="453.5,-334.716 462.127,-328.565 451.548,-327.993 453.5,-334.716"/>
</g>
<!-- Node41 -->
<g id="node41" class="node"><title>Node41</title>
<g id="a_node41"><a xlink:href="classmodule__sf__noahlsm.html#a9d1e26133ed89bc5465a230d45d0625d" target="_top" xlink:title="module_sf_noahlsm::\lsnopac">
<polygon fill="white" stroke="black" points="460,-249.5 460,-279.5 570,-279.5 570,-249.5 460,-249.5"/>
<text text-anchor="start" x="468" y="-267.5" font-family="Helvetica,sans-Serif" font-size="10.00">module_sf_noahlsm::</text>
<text text-anchor="middle" x="515" y="-256.5" font-family="Helvetica,sans-Serif" font-size="10.00">snopac</text>
</a>
</g>
</g>
<!-- Node14&#45;&gt;Node41 -->
<g id="edge46" class="edge"><title>Node14&#45;&gt;Node41</title>
<path fill="none" stroke="midnightblue" d="M374.66,-347.97C392.671,-334.102 427.787,-307.999 460,-289.5 463.189,-287.669 466.535,-285.863 469.932,-284.112"/>
<polygon fill="midnightblue" stroke="midnightblue" points="471.575,-287.205 478.975,-279.623 468.462,-280.935 471.575,-287.205"/>
</g>
<!-- Node24&#45;&gt;Node20 -->
<g id="edge36" class="edge"><title>Node24&#45;&gt;Node20</title>
<path fill="none" stroke="midnightblue" d="M570.1,-318.364C654.604,-325.962 817.576,-340.615 907.864,-348.733"/>
<polygon fill="midnightblue" stroke="midnightblue" points="907.697,-352.232 917.971,-349.642 908.324,-345.261 907.697,-352.232"/>
</g>
<!-- Node25 -->
<g id="node25" class="node"><title>Node25</title>
<g id="a_node25"><a xlink:href="classmodule__sf__noahlsm.html#a8def37e83c3ce04050b98a11d265caeb" target="_top" xlink:title="module_sf_noahlsm::\levapo">
<polygon fill="white" stroke="black" points="606,-205.5 606,-235.5 716,-235.5 716,-205.5 606,-205.5"/>
<text text-anchor="start" x="614" y="-223.5" font-family="Helvetica,sans-Serif" font-size="10.00">module_sf_noahlsm::</text>
<text text-anchor="middle" x="661" y="-212.5" font-family="Helvetica,sans-Serif" font-size="10.00">evapo</text>
</a>
</g>
</g>
<!-- Node24&#45;&gt;Node25 -->
<g id="edge27" class="edge"><title>Node24&#45;&gt;Node25</title>
<path fill="none" stroke="midnightblue" d="M553.312,-298.423C559.1,-295.469 564.858,-292.143 570,-288.5 588.722,-275.237 587.876,-265.569 606,-251.5 610.759,-247.805 616.006,-244.25 621.302,-240.949"/>
<polygon fill="midnightblue" stroke="midnightblue" points="623.387,-243.78 630.184,-235.653 619.802,-237.768 623.387,-243.78"/>
</g>
<!-- Node28 -->
<g id="node28" class="node"><title>Node28</title>
<g id="a_node28"><a xlink:href="classmodule__sf__noahlsm.html#a0d0b4c4b1c11cc7ff836dfdd13fb1b20" target="_top" xlink:title="module_sf_noahlsm::\lsmflx">
<polygon fill="white" stroke="black" points="606,-128.5 606,-158.5 716,-158.5 716,-128.5 606,-128.5"/>
<text text-anchor="start" x="614" y="-146.5" font-family="Helvetica,sans-Serif" font-size="10.00">module_sf_noahlsm::</text>
<text text-anchor="middle" x="661" y="-135.5" font-family="Helvetica,sans-Serif" font-size="10.00">smflx</text>
</a>
</g>
</g>
<!-- Node24&#45;&gt;Node28 -->
<g id="edge30" class="edge"><title>Node24&#45;&gt;Node28</title>
<path fill="none" stroke="midnightblue" d="M557.491,-298.475C562.085,-295.648 566.396,-292.343 570,-288.5 600.318,-256.169 581.459,-232.408 606,-195.5 613.319,-184.493 623.33,-174.035 632.745,-165.423"/>
<polygon fill="midnightblue" stroke="midnightblue" points="635.245,-167.885 640.441,-158.651 630.621,-162.629 635.245,-167.885"/>
</g>
<!-- Node34 -->
<g id="node34" class="node"><title>Node34</title>
<g id="a_node34"><a xlink:href="classmodule__sf__noahlsm.html#ac5c49267c44f18dfd5359b29fdfed38e" target="_top" xlink:title="module_sf_noahlsm::\lshflx">
<polygon fill="white" stroke="black" points="606,-261.5 606,-291.5 716,-291.5 716,-261.5 606,-261.5"/>
<text text-anchor="start" x="614" y="-279.5" font-family="Helvetica,sans-Serif" font-size="10.00">module_sf_noahlsm::</text>
<text text-anchor="middle" x="661" y="-268.5" font-family="Helvetica,sans-Serif" font-size="10.00">shflx</text>
</a>
</g>
</g>
<!-- Node24&#45;&gt;Node34 -->
<g id="edge37" class="edge"><title>Node24&#45;&gt;Node34</title>
<path fill="none" stroke="midnightblue" d="M570.03,-299.617C578.496,-297.442 587.315,-295.176 595.979,-292.95"/>
<polygon fill="midnightblue" stroke="midnightblue" points="596.853,-296.339 605.667,-290.461 595.111,-289.559 596.853,-296.339"/>
</g>
<!-- Node26 -->
<g id="node26" class="node"><title>Node26</title>
<g id="a_node26"><a xlink:href="classmodule__sf__noahlsm.html#a1f4bae7bb5581ef61d8c22e58df4c88f" target="_top" xlink:title="module_sf_noahlsm::\ldevap">
<polygon fill="white" stroke="black" points="757.5,-186.5 757.5,-216.5 867.5,-216.5 867.5,-186.5 757.5,-186.5"/>
<text text-anchor="start" x="765.5" y="-204.5" font-family="Helvetica,sans-Serif" font-size="10.00">module_sf_noahlsm::</text>
<text text-anchor="middle" x="812.5" y="-193.5" font-family="Helvetica,sans-Serif" font-size="10.00">devap</text>
</a>
</g>
</g>
<!-- Node25&#45;&gt;Node26 -->
<g id="edge28" class="edge"><title>Node25&#45;&gt;Node26</title>
<path fill="none" stroke="midnightblue" d="M716.396,-213.587C726.414,-212.314 736.961,-210.973 747.238,-209.667"/>
<polygon fill="midnightblue" stroke="midnightblue" points="747.916,-213.109 757.395,-208.376 747.033,-206.165 747.916,-213.109"/>
</g>
<!-- Node27 -->
<g id="node27" class="node"><title>Node27</title>
<g id="a_node27"><a xlink:href="classmodule__sf__noahlsm.html#aa418d6be3fc3de942821faf6fb68e3f8" target="_top" xlink:title="module_sf_noahlsm::\ltransp">
<polygon fill="white" stroke="black" points="757.5,-137.5 757.5,-167.5 867.5,-167.5 867.5,-137.5 757.5,-137.5"/>
<text text-anchor="start" x="765.5" y="-155.5" font-family="Helvetica,sans-Serif" font-size="10.00">module_sf_noahlsm::</text>
<text text-anchor="middle" x="812.5" y="-144.5" font-family="Helvetica,sans-Serif" font-size="10.00">transp</text>
</a>
</g>
</g>
<!-- Node25&#45;&gt;Node27 -->
<g id="edge29" class="edge"><title>Node25&#45;&gt;Node27</title>
<path fill="none" stroke="midnightblue" d="M691.341,-205.498C708.812,-196.731 731.505,-185.629 752,-176.5 755.777,-174.817 759.71,-173.118 763.675,-171.442"/>
<polygon fill="midnightblue" stroke="midnightblue" points="765.035,-174.667 772.922,-167.594 762.345,-168.205 765.035,-174.667"/>
</g>
<!-- Node29 -->
<g id="node29" class="node"><title>Node29</title>
<g id="a_node29"><a xlink:href="classmodule__sf__noahlsm.html#ad15804ed9573673deb4f95b3f160eeb2" target="_top" xlink:title="module_sf_noahlsm::\lfac2mit">
<polygon fill="white" stroke="black" points="757.5,-0.5 757.5,-30.5 867.5,-30.5 867.5,-0.5 757.5,-0.5"/>
<text text-anchor="start" x="765.5" y="-18.5" font-family="Helvetica,sans-Serif" font-size="10.00">module_sf_noahlsm::</text>
<text text-anchor="middle" x="812.5" y="-7.5" font-family="Helvetica,sans-Serif" font-size="10.00">fac2mit</text>
</a>
</g>
</g>
<!-- Node28&#45;&gt;Node29 -->
<g id="edge31" class="edge"><title>Node28&#45;&gt;Node29</title>
<path fill="none" stroke="midnightblue" d="M702.989,-128.416C707.721,-125.589 712.204,-122.301 716,-118.5 742.982,-91.4862 724.539,-67.0264 752,-40.5 753.481,-39.0696 755.056,-37.7157 756.703,-36.4348"/>
<polygon fill="midnightblue" stroke="midnightblue" points="759.06,-39.0712 765.451,-30.6211 755.185,-33.2414 759.06,-39.0712"/>
</g>
<!-- Node30 -->
<g id="node30" class="node"><title>Node30</title>
<g id="a_node30"><a xlink:href="classmodule__sf__noahlsm.html#a2e71343dc4bdf7438e0abf6d850d0c79" target="_top" xlink:title="module_sf_noahlsm::srt">
<polygon fill="white" stroke="black" points="752,-50 752,-69 873,-69 873,-50 752,-50"/>
<text text-anchor="middle" x="812.5" y="-57" font-family="Helvetica,sans-Serif" font-size="10.00">module_sf_noahlsm::srt</text>
</a>
</g>
</g>
<!-- Node28&#45;&gt;Node30 -->
<g id="edge32" class="edge"><title>Node28&#45;&gt;Node30</title>
<path fill="none" stroke="midnightblue" d="M699.721,-128.449C705.397,-125.509 711.013,-122.181 716,-118.5 735.244,-104.298 731.91,-91.4778 752,-78.5 755.145,-76.4682 758.525,-74.6389 762.018,-72.9943"/>
<polygon fill="midnightblue" stroke="midnightblue" points="763.565,-76.141 771.447,-69.0605 760.87,-69.6807 763.565,-76.141"/>
</g>
<!-- Node32 -->
<g id="node32" class="node"><title>Node32</title>
<g id="a_node32"><a xlink:href="classmodule__sf__noahlsm.html#ada19fa401e97fc92326932b406bbc2c3" target="_top" xlink:title="module_sf_noahlsm::\lsstep">
<polygon fill="white" stroke="black" points="757.5,-88.5 757.5,-118.5 867.5,-118.5 867.5,-88.5 757.5,-88.5"/>
<text text-anchor="start" x="765.5" y="-106.5" font-family="Helvetica,sans-Serif" font-size="10.00">module_sf_noahlsm::</text>
<text text-anchor="middle" x="812.5" y="-95.5" font-family="Helvetica,sans-Serif" font-size="10.00">sstep</text>
</a>
</g>
</g>
<!-- Node28&#45;&gt;Node32 -->
<g id="edge34" class="edge"><title>Node28&#45;&gt;Node32</title>
<path fill="none" stroke="midnightblue" d="M716.396,-128.946C726.519,-126.237 737.181,-123.385 747.559,-120.608"/>
<polygon fill="midnightblue" stroke="midnightblue" points="748.639,-123.942 757.395,-117.976 746.83,-117.18 748.639,-123.942"/>
</g>
<!-- Node31 -->
<g id="node31" class="node"><title>Node31</title>
<g id="a_node31"><a xlink:href="classmodule__sf__noahlsm.html#a3b4a7f68699fbc22922e958770009b57" target="_top" xlink:title="module_sf_noahlsm::\lwdfcnd">
<polygon fill="white" stroke="black" points="918,-44.5 918,-74.5 1028,-74.5 1028,-44.5 918,-44.5"/>
<text text-anchor="start" x="926" y="-62.5" font-family="Helvetica,sans-Serif" font-size="10.00">module_sf_noahlsm::</text>
<text text-anchor="middle" x="973" y="-51.5" font-family="Helvetica,sans-Serif" font-size="10.00">wdfcnd</text>
</a>
</g>
</g>
<!-- Node30&#45;&gt;Node31 -->
<g id="edge33" class="edge"><title>Node30&#45;&gt;Node31</title>
<path fill="none" stroke="midnightblue" d="M873.422,-59.5C884.631,-59.5 896.389,-59.5 907.723,-59.5"/>
<polygon fill="midnightblue" stroke="midnightblue" points="907.985,-63.0001 917.985,-59.5 907.985,-56.0001 907.985,-63.0001"/>
</g>
<!-- Node33 -->
<g id="node33" class="node"><title>Node33</title>
<g id="a_node33"><a xlink:href="classmodule__sf__noahlsm.html#ac6e3e7bb3f0322070546653306177216" target="_top" xlink:title="module_sf_noahlsm::\lrosr12">
<polygon fill="white" stroke="black" points="918,-115.5 918,-145.5 1028,-145.5 1028,-115.5 918,-115.5"/>
<text text-anchor="start" x="926" y="-133.5" font-family="Helvetica,sans-Serif" font-size="10.00">module_sf_noahlsm::</text>
<text text-anchor="middle" x="973" y="-122.5" font-family="Helvetica,sans-Serif" font-size="10.00">rosr12</text>
</a>
</g>
</g>
<!-- Node32&#45;&gt;Node33 -->
<g id="edge35" class="edge"><title>Node32&#45;&gt;Node33</title>
<path fill="none" stroke="midnightblue" d="M867.603,-112.716C880.538,-114.92 894.47,-117.293 907.811,-119.566"/>
<polygon fill="midnightblue" stroke="midnightblue" points="907.426,-123.05 917.872,-121.279 908.601,-116.15 907.426,-123.05"/>
</g>
<!-- Node35 -->
<g id="node35" class="node"><title>Node35</title>
<g id="a_node35"><a xlink:href="classmodule__sf__noahlsm.html#a3d4ab86e98738d55bb24f5f2256bc036" target="_top" xlink:title="module_sf_noahlsm::hrt">
<polygon fill="white" stroke="black" points="752,-285 752,-304 873,-304 873,-285 752,-285"/>
<text text-anchor="middle" x="812.5" y="-292" font-family="Helvetica,sans-Serif" font-size="10.00">module_sf_noahlsm::hrt</text>
</a>
</g>
</g>
<!-- Node34&#45;&gt;Node35 -->
<g id="edge38" class="edge"><title>Node34&#45;&gt;Node35</title>
<path fill="none" stroke="midnightblue" d="M716.396,-283.049C724.677,-284.046 733.318,-285.087 741.87,-286.117"/>
<polygon fill="midnightblue" stroke="midnightblue" points="741.495,-289.596 751.841,-287.317 742.331,-282.647 741.495,-289.596"/>
</g>
<!-- Node40 -->
<g id="node40" class="node"><title>Node40</title>
<g id="a_node40"><a xlink:href="classmodule__sf__noahlsm.html#adacf01be4e33445ea186feffce24eb35" target="_top" xlink:title="module_sf_noahlsm::\lhstep">
<polygon fill="white" stroke="black" points="757.5,-235.5 757.5,-265.5 867.5,-265.5 867.5,-235.5 757.5,-235.5"/>
<text text-anchor="start" x="765.5" y="-253.5" font-family="Helvetica,sans-Serif" font-size="10.00">module_sf_noahlsm::</text>
<text text-anchor="middle" x="812.5" y="-242.5" font-family="Helvetica,sans-Serif" font-size="10.00">hstep</text>
</a>
</g>
</g>
<!-- Node34&#45;&gt;Node40 -->
<g id="edge44" class="edge"><title>Node34&#45;&gt;Node40</title>
<path fill="none" stroke="midnightblue" d="M716.396,-267.04C726.414,-265.298 736.961,-263.463 747.238,-261.676"/>
<polygon fill="midnightblue" stroke="midnightblue" points="748.143,-265.071 757.395,-259.91 746.943,-258.175 748.143,-265.071"/>
</g>
<!-- Node35&#45;&gt;Node20 -->
<g id="edge43" class="edge"><title>Node35&#45;&gt;Node20</title>
<path fill="none" stroke="midnightblue" d="M838.615,-304.007C861.103,-312.52 894.731,-325.25 922.595,-335.798"/>
<polygon fill="midnightblue" stroke="midnightblue" points="921.591,-339.16 932.183,-339.427 924.07,-332.614 921.591,-339.16"/>
</g>
<!-- Node36 -->
<g id="node36" class="node"><title>Node36</title>
<g id="a_node36"><a xlink:href="classmodule__sf__noahlsm.html#a578d0dc05848d5bc7fb823e379da5cdd" target="_top" xlink:title="module_sf_noahlsm::tbnd">
<polygon fill="white" stroke="black" points="909,-301 909,-320 1037,-320 1037,-301 909,-301"/>
<text text-anchor="middle" x="973" y="-308" font-family="Helvetica,sans-Serif" font-size="10.00">module_sf_noahlsm::tbnd</text>
</a>
</g>
</g>
<!-- Node35&#45;&gt;Node36 -->
<g id="edge39" class="edge"><title>Node35&#45;&gt;Node36</title>
<path fill="none" stroke="midnightblue" d="M873.422,-300.549C881.649,-301.379 890.172,-302.24 898.605,-303.091"/>
<polygon fill="midnightblue" stroke="midnightblue" points="898.522,-306.6 908.823,-304.122 899.225,-299.636 898.522,-306.6"/>
</g>
<!-- Node37 -->
<g id="node37" class="node"><title>Node37</title>
<g id="a_node37"><a xlink:href="classmodule__sf__noahlsm.html#ab786b4f52dbea2106470993f2ea20e69" target="_top" xlink:title="module_sf_noahlsm::\ltmpavg">
<polygon fill="white" stroke="black" points="918,-251.5 918,-281.5 1028,-281.5 1028,-251.5 918,-251.5"/>
<text text-anchor="start" x="926" y="-269.5" font-family="Helvetica,sans-Serif" font-size="10.00">module_sf_noahlsm::</text>
<text text-anchor="middle" x="973" y="-258.5" font-family="Helvetica,sans-Serif" font-size="10.00">tmpavg</text>
</a>
</g>
</g>
<!-- Node35&#45;&gt;Node37 -->
<g id="edge40" class="edge"><title>Node35&#45;&gt;Node37</title>
<path fill="none" stroke="midnightblue" d="M867.603,-284.942C880.538,-282.657 894.47,-280.196 907.811,-277.839"/>
<polygon fill="midnightblue" stroke="midnightblue" points="908.633,-281.248 917.872,-276.062 907.415,-274.355 908.633,-281.248"/>
</g>
<!-- Node38 -->
<g id="node38" class="node"><title>Node38</title>
<g id="a_node38"><a xlink:href="classmodule__sf__noahlsm.html#a5d089c57c48085d25b95857c682922da" target="_top" xlink:title="module_sf_noahlsm::\lsnksrc">
<polygon fill="white" stroke="black" points="918,-202.5 918,-232.5 1028,-232.5 1028,-202.5 918,-202.5"/>
<text text-anchor="start" x="926" y="-220.5" font-family="Helvetica,sans-Serif" font-size="10.00">module_sf_noahlsm::</text>
<text text-anchor="middle" x="973" y="-209.5" font-family="Helvetica,sans-Serif" font-size="10.00">snksrc</text>
</a>
</g>
</g>
<!-- Node35&#45;&gt;Node38 -->
<g id="edge41" class="edge"><title>Node35&#45;&gt;Node38</title>
<path fill="none" stroke="midnightblue" d="M849.802,-284.984C857.725,-282.182 865.867,-278.709 873,-274.5 891.693,-263.469 890.53,-252.9 909,-241.5 911.605,-239.892 914.336,-238.362 917.139,-236.911"/>
<polygon fill="midnightblue" stroke="midnightblue" points="918.759,-240.016 926.273,-232.547 915.741,-233.7 918.759,-240.016"/>
</g>
<!-- Node39 -->
<g id="node39" class="node"><title>Node39</title>
<g id="a_node39"><a xlink:href="classmodule__sf__noahlsm.html#a5beb42f74e1a357ccfc0e904f356b33a" target="_top" xlink:title="module_sf_noahlsm::\lfrh2o">
<polygon fill="white" stroke="black" points="1073,-202.5 1073,-232.5 1183,-232.5 1183,-202.5 1073,-202.5"/>
<text text-anchor="start" x="1081" y="-220.5" font-family="Helvetica,sans-Serif" font-size="10.00">module_sf_noahlsm::</text>
<text text-anchor="middle" x="1128" y="-209.5" font-family="Helvetica,sans-Serif" font-size="10.00">frh2o</text>
</a>
</g>
</g>
<!-- Node38&#45;&gt;Node39 -->
<g id="edge42" class="edge"><title>Node38&#45;&gt;Node39</title>
<path fill="none" stroke="midnightblue" d="M1028.37,-217.5C1039.42,-217.5 1051.14,-217.5 1062.5,-217.5"/>
<polygon fill="midnightblue" stroke="midnightblue" points="1062.8,-221 1072.8,-217.5 1062.8,-214 1062.8,-221"/>
</g>
<!-- Node40&#45;&gt;Node33 -->
<g id="edge45" class="edge"><title>Node40&#45;&gt;Node33</title>
<path fill="none" stroke="midnightblue" d="M854.846,-235.468C861.128,-232.526 867.381,-229.191 873,-225.5 877.322,-222.661 921.343,-179.951 949.21,-152.775"/>
<polygon fill="midnightblue" stroke="midnightblue" points="951.883,-155.057 956.595,-145.568 946.994,-150.047 951.883,-155.057"/>
</g>
<!-- Node41&#45;&gt;Node25 -->
<g id="edge47" class="edge"><title>Node41&#45;&gt;Node25</title>
<path fill="none" stroke="midnightblue" d="M565.154,-249.481C576.611,-245.98 588.93,-242.216 600.772,-238.597"/>
<polygon fill="midnightblue" stroke="midnightblue" points="602.038,-241.87 610.579,-235.601 599.992,-235.176 602.038,-241.87"/>
</g>
<!-- Node41&#45;&gt;Node28 -->
<g id="edge48" class="edge"><title>Node41&#45;&gt;Node28</title>
<path fill="none" stroke="midnightblue" d="M554.441,-249.356C559.902,-246.461 565.264,-243.171 570,-239.5 589.971,-224.022 588.87,-214.074 606,-195.5 615.237,-185.484 625.95,-174.964 635.387,-166.027"/>
<polygon fill="midnightblue" stroke="midnightblue" points="638.049,-168.33 642.953,-158.938 633.263,-163.221 638.049,-168.33"/>
</g>
<!-- Node41&#45;&gt;Node34 -->
<g id="edge49" class="edge"><title>Node41&#45;&gt;Node34</title>
<path fill="none" stroke="midnightblue" d="M570.03,-269.002C578.405,-269.7 587.126,-270.427 595.7,-271.142"/>
<polygon fill="midnightblue" stroke="midnightblue" points="595.411,-274.63 605.667,-271.972 595.992,-267.654 595.411,-274.63"/>
</g>
<!-- Node42 -->
<g id="node42" class="node"><title>Node42</title>
<g id="a_node42"><a xlink:href="classmodule__sf__noahlsm.html#ae6d35ff66196a3ab369a3e87149ddcdc" target="_top" xlink:title="module_sf_noahlsm::\lsnowpack">
<polygon fill="white" stroke="black" points="606,-79.5 606,-109.5 716,-109.5 716,-79.5 606,-79.5"/>
<text text-anchor="start" x="614" y="-97.5" font-family="Helvetica,sans-Serif" font-size="10.00">module_sf_noahlsm::</text>
<text text-anchor="middle" x="661" y="-86.5" font-family="Helvetica,sans-Serif" font-size="10.00">snowpack</text>
</a>
</g>
</g>
<!-- Node41&#45;&gt;Node42 -->
<g id="edge50" class="edge"><title>Node41&#45;&gt;Node42</title>
<path fill="none" stroke="midnightblue" d="M558.326,-249.406C562.666,-246.607 566.688,-243.328 570,-239.5 606.709,-197.067 568.967,-160.649 606,-118.5 606.745,-117.652 607.525,-116.833 608.337,-116.041"/>
<polygon fill="midnightblue" stroke="midnightblue" points="610.73,-118.61 616.367,-109.64 606.366,-113.137 610.73,-118.61"/>
</g>
</g>
</svg>
