<?xml version="1.0" encoding="UTF-8" standalone="no"?>
<!DOCTYPE svg PUBLIC "-//W3C//DTD SVG 1.1//EN"
 "http://www.w3.org/Graphics/SVG/1.1/DTD/svg11.dtd">
<!-- Generated by graphviz version 2.32.0 (20130809.1645)
 -->
<!-- Title: time::date_to_mjd Pages: 1 -->
<svg width="1294pt" height="160pt"
 viewBox="0.00 0.00 1294.00 160.33" xmlns="http://www.w3.org/2000/svg" xmlns:xlink="http://www.w3.org/1999/xlink">
<g id="graph0" class="graph" transform="scale(1 1) rotate(0) translate(4 156.33)">
<title>time::date_to_mjd</title>
<polygon fill="white" stroke="white" points="-4,5 -4,-156.33 1291,-156.33 1291,5 -4,5"/>
<!-- Node1 -->
<g id="node1" class="node"><title>Node1</title>
<polygon fill="#bfbfbf" stroke="black" points="0.5,-71.5 0.5,-90.5 95.5,-90.5 95.5,-71.5 0.5,-71.5"/>
<text text-anchor="middle" x="48" y="-78.5" font-family="Helvetica,sans-Serif" font-size="10.00">time::date_to_mjd</text>
</g>
<!-- Node2 -->
<g id="node2" class="node"><title>Node2</title>
<g id="a_node2"><a xlink:href="driver_8f90.html#ab1e5a5816a57fc6e95d9563c2bb53590" target="_top" xlink:title=" Main Program ">
<polygon fill="white" stroke="black" points="1254,-88.5 1254,-107.5 1286,-107.5 1286,-88.5 1254,-88.5"/>
<text text-anchor="middle" x="1270" y="-95.5" font-family="Helvetica,sans-Serif" font-size="10.00">icar</text>
</a>
</g>
</g>
<!-- Node1&#45;&gt;Node2 -->
<g id="edge1" class="edge"><title>Node1&#45;&gt;Node2</title>
<path fill="none" stroke="midnightblue" d="M69.5029,-96.5973C85.5901,-107.938 109.033,-122.555 132,-130 222.45,-159.319 249.917,-150 345,-150 345,-150 345,-150 1047,-150 1126.76,-150 1218.5,-117.784 1253.94,-104.067"/>
<polygon fill="midnightblue" stroke="midnightblue" points="71.5221,-93.7382 61.372,-90.7006 67.4124,-99.4048 71.5221,-93.7382"/>
</g>
<!-- Node3 -->
<g id="node3" class="node"><title>Node3</title>
<g id="a_node3"><a xlink:href="classinitialize__options.html#aa5c0f26f48774390be64bb2fc8243db6" target="_top" xlink:title="initialize_options\l::init_restart_options">
<polygon fill="white" stroke="black" points="138.5,-91 138.5,-121 243.5,-121 243.5,-91 138.5,-91"/>
<text text-anchor="start" x="146.5" y="-109" font-family="Helvetica,sans-Serif" font-size="10.00">initialize_options</text>
<text text-anchor="middle" x="191" y="-98" font-family="Helvetica,sans-Serif" font-size="10.00">::init_restart_options</text>
</a>
</g>
</g>
<!-- Node1&#45;&gt;Node3 -->
<g id="edge2" class="edge"><title>Node1&#45;&gt;Node3</title>
<path fill="none" stroke="midnightblue" d="M105.672,-91.0482C116.397,-92.9498 127.566,-94.9301 138.133,-96.8038"/>
<polygon fill="midnightblue" stroke="midnightblue" points="106.017,-87.5549 95.5594,-89.2552 104.795,-94.4474 106.017,-87.5549"/>
</g>
<!-- Node6 -->
<g id="node6" class="node"><title>Node6</title>
<g id="a_node6"><a xlink:href="classinitialize__options.html#ab0058e1f8dbc07d787cc0705c5d9366a" target="_top" xlink:title="initialize_options\l::parameters_namelist">
<polygon fill="white" stroke="black" points="134.5,-42 134.5,-72 247.5,-72 247.5,-42 134.5,-42"/>
<text text-anchor="start" x="142.5" y="-60" font-family="Helvetica,sans-Serif" font-size="10.00">initialize_options</text>
<text text-anchor="middle" x="191" y="-49" font-family="Helvetica,sans-Serif" font-size="10.00">::parameters_namelist</text>
</a>
</g>
</g>
<!-- Node1&#45;&gt;Node6 -->
<g id="edge6" class="edge"><title>Node1&#45;&gt;Node6</title>
<path fill="none" stroke="midnightblue" d="M105.605,-71.365C115.019,-69.7628 124.776,-68.1019 134.17,-66.5029"/>
<polygon fill="midnightblue" stroke="midnightblue" points="104.83,-67.9465 95.5594,-73.075 106.005,-74.8473 104.83,-67.9465"/>
</g>
<!-- Node7 -->
<g id="node7" class="node"><title>Node7</title>
<g id="a_node7"><a xlink:href="classtime.html#adfcbe10943e169e25a9ee15ddb3ce70b" target="_top" xlink:title="time::calc_day_of_year">
<polygon fill="white" stroke="black" points="132,-3.5 132,-22.5 250,-22.5 250,-3.5 132,-3.5"/>
<text text-anchor="middle" x="191" y="-10.5" font-family="Helvetica,sans-Serif" font-size="10.00">time::calc_day_of_year</text>
</a>
</g>
</g>
<!-- Node1&#45;&gt;Node7 -->
<g id="edge8" class="edge"><title>Node1&#45;&gt;Node7</title>
<path fill="none" stroke="midnightblue" d="M71.967,-65.6063C88.2369,-55.165 110.845,-41.5728 132,-32 139.819,-28.4617 148.497,-25.2603 156.707,-22.5369"/>
<polygon fill="midnightblue" stroke="midnightblue" points="69.6444,-62.9424 63.1789,-71.3358 73.4673,-68.8063 69.6444,-62.9424"/>
</g>
<!-- Node4 -->
<g id="node4" class="node"><title>Node4</title>
<g id="a_node4"><a xlink:href="classinitialize__options.html#a571709045f201082c9735408ef2f28e3" target="_top" xlink:title="initialize_options\l::init_options">
<polygon fill="white" stroke="black" points="301.5,-83 301.5,-113 390.5,-113 390.5,-83 301.5,-83"/>
<text text-anchor="start" x="309.5" y="-101" font-family="Helvetica,sans-Serif" font-size="10.00">initialize_options</text>
<text text-anchor="middle" x="346" y="-90" font-family="Helvetica,sans-Serif" font-size="10.00">::init_options</text>
</a>
</g>
</g>
<!-- Node3&#45;&gt;Node4 -->
<g id="edge3" class="edge"><title>Node3&#45;&gt;Node4</title>
<path fill="none" stroke="midnightblue" d="M254.077,-102.754C269.952,-101.924 286.687,-101.049 301.412,-100.279"/>
<polygon fill="midnightblue" stroke="midnightblue" points="253.602,-99.2741 243.799,-103.292 253.968,-106.265 253.602,-99.2741"/>
</g>
<!-- Node5 -->
<g id="node5" class="node"><title>Node5</title>
<g id="a_node5"><a xlink:href="classinit.html#a1dd1e2b38eef39cba464f65c9ce82568" target="_top" xlink:title="init::init_model">
<polygon fill="white" stroke="black" points="588,-88.5 588,-107.5 668,-107.5 668,-88.5 588,-88.5"/>
<text text-anchor="middle" x="628" y="-95.5" font-family="Helvetica,sans-Serif" font-size="10.00">init::init_model</text>
</a>
</g>
</g>
<!-- Node4&#45;&gt;Node5 -->
<g id="edge4" class="edge"><title>Node4&#45;&gt;Node5</title>
<path fill="none" stroke="midnightblue" d="M400.946,-98C455.613,-98 538.876,-98 587.625,-98"/>
<polygon fill="midnightblue" stroke="midnightblue" points="400.75,-94.5001 390.75,-98 400.75,-101.5 400.75,-94.5001"/>
</g>
<!-- Node5&#45;&gt;Node2 -->
<g id="edge5" class="edge"><title>Node5&#45;&gt;Node2</title>
<path fill="none" stroke="midnightblue" d="M678.156,-98C732.994,-98 824.347,-98 903,-98 903,-98 903,-98 1047,-98 1124.85,-98 1218.07,-98 1253.93,-98"/>
<polygon fill="midnightblue" stroke="midnightblue" points="678.022,-94.5001 668.022,-98 678.022,-101.5 678.022,-94.5001"/>
</g>
<!-- Node6&#45;&gt;Node4 -->
<g id="edge7" class="edge"><title>Node6&#45;&gt;Node4</title>
<path fill="none" stroke="midnightblue" d="M257.711,-74.6087C272.379,-78.5394 287.587,-82.6148 301.12,-86.2412"/>
<polygon fill="midnightblue" stroke="midnightblue" points="258.234,-71.1257 247.669,-71.9179 256.423,-77.8871 258.234,-71.1257"/>
</g>
<!-- Node8 -->
<g id="node8" class="node"><title>Node8</title>
<g id="a_node8"><a xlink:href="classmodule__ra__simple.html#a4529da23ec7082aeafd82ffcad0e6e43" target="_top" xlink:title="module_ra_simple::calc\l_solar_elevation">
<polygon fill="white" stroke="black" points="286.5,-0 286.5,-30 405.5,-30 405.5,-0 286.5,-0"/>
<text text-anchor="start" x="294.5" y="-18" font-family="Helvetica,sans-Serif" font-size="10.00">module_ra_simple::calc</text>
<text text-anchor="middle" x="346" y="-7" font-family="Helvetica,sans-Serif" font-size="10.00">_solar_elevation</text>
</a>
</g>
</g>
<!-- Node7&#45;&gt;Node8 -->
<g id="edge9" class="edge"><title>Node7&#45;&gt;Node8</title>
<path fill="none" stroke="midnightblue" d="M260.374,-13.8938C269.051,-14.0072 277.87,-14.1225 286.376,-14.2337"/>
<polygon fill="midnightblue" stroke="midnightblue" points="260.324,-10.3929 250.279,-13.7618 260.233,-17.3923 260.324,-10.3929"/>
</g>
<!-- Node9 -->
<g id="node9" class="node"><title>Node9</title>
<g id="a_node9"><a xlink:href="classmodule__ra__simple.html#ad1c74605b2817f833d31e806f791e246" target="_top" xlink:title="module_ra_simple::ra\l_simple">
<polygon fill="white" stroke="black" points="442,-4 442,-34 552,-34 552,-4 442,-4"/>
<text text-anchor="start" x="450" y="-22" font-family="Helvetica,sans-Serif" font-size="10.00">module_ra_simple::ra</text>
<text text-anchor="middle" x="497" y="-11" font-family="Helvetica,sans-Serif" font-size="10.00">_simple</text>
</a>
</g>
</g>
<!-- Node8&#45;&gt;Node9 -->
<g id="edge10" class="edge"><title>Node8&#45;&gt;Node9</title>
<path fill="none" stroke="midnightblue" d="M416.012,-16.8527C424.699,-17.0859 433.487,-17.3218 441.898,-17.5476"/>
<polygon fill="midnightblue" stroke="midnightblue" points="415.979,-13.3506 405.889,-16.5809 415.791,-20.3481 415.979,-13.3506"/>
</g>
<!-- Node10 -->
<g id="node10" class="node"><title>Node10</title>
<g id="a_node10"><a xlink:href="classradiation.html#aba1a06d27af96fe11d576458c8ccfe77" target="_top" xlink:title="radiation::rad">
<polygon fill="white" stroke="black" points="591.5,-11.5 591.5,-30.5 664.5,-30.5 664.5,-11.5 591.5,-11.5"/>
<text text-anchor="middle" x="628" y="-18.5" font-family="Helvetica,sans-Serif" font-size="10.00">radiation::rad</text>
</a>
</g>
</g>
<!-- Node9&#45;&gt;Node10 -->
<g id="edge11" class="edge"><title>Node9&#45;&gt;Node10</title>
<path fill="none" stroke="midnightblue" d="M562.636,-20.0021C572.559,-20.1559 582.477,-20.3097 591.451,-20.4489"/>
<polygon fill="midnightblue" stroke="midnightblue" points="562.387,-16.4979 552.334,-19.8424 562.278,-23.4971 562.387,-16.4979"/>
</g>
<!-- Node11 -->
<g id="node11" class="node"><title>Node11</title>
<g id="a_node11"><a xlink:href="classtime__step.html#a2c022f11247af72e607b1493289aa974" target="_top" xlink:title=" Step forward one IO time step. ">
<polygon fill="white" stroke="black" points="1134,-49.5 1134,-68.5 1218,-68.5 1218,-49.5 1134,-49.5"/>
<text text-anchor="middle" x="1176" y="-56.5" font-family="Helvetica,sans-Serif" font-size="10.00">time_step::step</text>
</a>
</g>
</g>
<!-- Node10&#45;&gt;Node11 -->
<g id="edge12" class="edge"><title>Node10&#45;&gt;Node11</title>
<path fill="none" stroke="midnightblue" d="M670.167,-33.0635C681.076,-35.8092 692.907,-38.389 704,-40 861.521,-62.8758 1051.57,-61.9588 1133.79,-60.1979"/>
<polygon fill="midnightblue" stroke="midnightblue" points="671.017,-29.668 660.456,-30.5183 669.242,-36.4393 671.017,-29.668"/>
</g>
<!-- Node12 -->
<g id="node12" class="node"><title>Node12</title>
<g id="a_node12"><a xlink:href="classmodule__cu__kf.html#afbc0670c02010c630409b1796e89a3fb" target="_top" xlink:title="module_cu_kf::kfpara">
<polygon fill="white" stroke="black" points="704,-11.5 704,-30.5 814,-30.5 814,-11.5 704,-11.5"/>
<text text-anchor="middle" x="759" y="-18.5" font-family="Helvetica,sans-Serif" font-size="10.00">module_cu_kf::kfpara</text>
</a>
</g>
</g>
<!-- Node10&#45;&gt;Node12 -->
<g id="edge14" class="edge"><title>Node10&#45;&gt;Node12</title>
<path fill="none" stroke="midnightblue" d="M674.838,-21C684.169,-21 694.071,-21 703.665,-21"/>
<polygon fill="midnightblue" stroke="midnightblue" points="674.591,-17.5001 664.591,-21 674.591,-24.5001 674.591,-17.5001"/>
</g>
<!-- Node11&#45;&gt;Node2 -->
<g id="edge13" class="edge"><title>Node11&#45;&gt;Node2</title>
<path fill="none" stroke="midnightblue" d="M1209.34,-72.7077C1224.54,-79.1511 1241.92,-86.5225 1253.99,-91.6383"/>
<polygon fill="midnightblue" stroke="midnightblue" points="1210.31,-69.321 1199.74,-68.6405 1207.58,-75.7659 1210.31,-69.321"/>
</g>
<!-- Node13 -->
<g id="node13" class="node"><title>Node13</title>
<g id="a_node13"><a xlink:href="classmodule__cu__kf.html#a273d9ce9bce064bfc092d6940bea4e27" target="_top" xlink:title="module_cu_kf::kfcps">
<polygon fill="white" stroke="black" points="850.5,-11.5 850.5,-30.5 957.5,-30.5 957.5,-11.5 850.5,-11.5"/>
<text text-anchor="middle" x="904" y="-18.5" font-family="Helvetica,sans-Serif" font-size="10.00">module_cu_kf::kfcps</text>
</a>
</g>
</g>
<!-- Node12&#45;&gt;Node13 -->
<g id="edge15" class="edge"><title>Node12&#45;&gt;Node13</title>
<path fill="none" stroke="midnightblue" d="M824.203,-21C832.925,-21 841.794,-21 850.282,-21"/>
<polygon fill="midnightblue" stroke="midnightblue" points="824.062,-17.5001 814.062,-21 824.062,-24.5001 824.062,-17.5001"/>
</g>
<!-- Node14 -->
<g id="node14" class="node"><title>Node14</title>
<g id="a_node14"><a xlink:href="classconvection.html#a06b811540eb747b3734e7fb35de41782" target="_top" xlink:title="convection::convect">
<polygon fill="white" stroke="black" points="994,-11.5 994,-30.5 1098,-30.5 1098,-11.5 994,-11.5"/>
<text text-anchor="middle" x="1046" y="-18.5" font-family="Helvetica,sans-Serif" font-size="10.00">convection::convect</text>
</a>
</g>
</g>
<!-- Node13&#45;&gt;Node14 -->
<g id="edge16" class="edge"><title>Node13&#45;&gt;Node14</title>
<path fill="none" stroke="midnightblue" d="M967.615,-21C976.295,-21 985.127,-21 993.571,-21"/>
<polygon fill="midnightblue" stroke="midnightblue" points="967.529,-17.5001 957.529,-21 967.529,-24.5001 967.529,-17.5001"/>
</g>
<!-- Node14&#45;&gt;Node11 -->
<g id="edge17" class="edge"><title>Node14&#45;&gt;Node11</title>
<path fill="none" stroke="midnightblue" d="M1089.22,-33.5353C1106.64,-38.7048 1126.49,-44.5991 1142.71,-49.4141"/>
<polygon fill="midnightblue" stroke="midnightblue" points="1089.88,-30.0798 1079.3,-30.589 1087.89,-36.7903 1089.88,-30.0798"/>
</g>
</g>
</svg>
