<?xml version="1.0" encoding="UTF-8" standalone="no"?>
<!DOCTYPE svg PUBLIC "-//W3C//DTD SVG 1.1//EN"
 "http://www.w3.org/Graphics/SVG/1.1/DTD/svg11.dtd">
<!-- Generated by graphviz version 2.38.0 (20140413.2041)
 -->
<!-- Title: module_cu_tiedtke::cududv Pages: 1 -->
<svg width="860pt" height="39pt"
 viewBox="0.00 0.00 860.00 39.00" xmlns="http://www.w3.org/2000/svg" xmlns:xlink="http://www.w3.org/1999/xlink">
<g id="graph0" class="graph" transform="scale(1 1) rotate(0) translate(4 35)">
<title>module_cu_tiedtke::cududv</title>
<polygon fill="white" stroke="none" points="-4,4 -4,-35 856,-35 856,4 -4,4"/>
<!-- Node1 -->
<g id="node1" class="node"><title>Node1</title>
<polygon fill="#bfbfbf" stroke="black" points="0,-0.5 0,-30.5 104,-30.5 104,-0.5 0,-0.5"/>
<text text-anchor="start" x="8" y="-18.5" font-family="Helvetica,sans-Serif" font-size="10.00">module_cu_tiedtke::</text>
<text text-anchor="middle" x="52" y="-7.5" font-family="Helvetica,sans-Serif" font-size="10.00">cududv</text>
</g>
<!-- Node2 -->
<g id="node2" class="node"><title>Node2</title>
<g id="a_node2"><a xlink:href="classmodule__cu__tiedtke.html#a8840397e245a13cbb7c61f8cea6e7894" target="_top" xlink:title="module_cu_tiedtke::\lcumastr_new">
<polygon fill="white" stroke="black" points="140,-0.5 140,-30.5 244,-30.5 244,-0.5 140,-0.5"/>
<text text-anchor="start" x="148" y="-18.5" font-family="Helvetica,sans-Serif" font-size="10.00">module_cu_tiedtke::</text>
<text text-anchor="middle" x="192" y="-7.5" font-family="Helvetica,sans-Serif" font-size="10.00">cumastr_new</text>
</a>
</g>
</g>
<!-- Node1&#45;&gt;Node2 -->
<g id="edge1" class="edge"><title>Node1&#45;&gt;Node2</title>
<path fill="none" stroke="midnightblue" d="M114.496,-15.5C122.872,-15.5 131.398,-15.5 139.571,-15.5"/>
<polygon fill="midnightblue" stroke="midnightblue" points="114.386,-12.0001 104.386,-15.5 114.386,-19.0001 114.386,-12.0001"/>
</g>
<!-- Node3 -->
<g id="node3" class="node"><title>Node3</title>
<g id="a_node3"><a xlink:href="classmodule__cu__tiedtke.html#ae9c234f80f55688e10c72091b6c673dc" target="_top" xlink:title="module_cu_tiedtke::\ltiecnv">
<polygon fill="white" stroke="black" points="280,-0.5 280,-30.5 384,-30.5 384,-0.5 280,-0.5"/>
<text text-anchor="start" x="288" y="-18.5" font-family="Helvetica,sans-Serif" font-size="10.00">module_cu_tiedtke::</text>
<text text-anchor="middle" x="332" y="-7.5" font-family="Helvetica,sans-Serif" font-size="10.00">tiecnv</text>
</a>
</g>
</g>
<!-- Node2&#45;&gt;Node3 -->
<g id="edge2" class="edge"><title>Node2&#45;&gt;Node3</title>
<path fill="none" stroke="midnightblue" d="M254.496,-15.5C262.872,-15.5 271.398,-15.5 279.571,-15.5"/>
<polygon fill="midnightblue" stroke="midnightblue" points="254.386,-12.0001 244.386,-15.5 254.386,-19.0001 254.386,-12.0001"/>
</g>
<!-- Node4 -->
<g id="node4" class="node"><title>Node4</title>
<g id="a_node4"><a xlink:href="classmodule__cu__tiedtke.html#ae3fdba4e560c50ab3f6b9f1e30f2f255" target="_top" xlink:title="module_cu_tiedtke::\lcu_tiedtke">
<polygon fill="white" stroke="black" points="420,-0.5 420,-30.5 524,-30.5 524,-0.5 420,-0.5"/>
<text text-anchor="start" x="428" y="-18.5" font-family="Helvetica,sans-Serif" font-size="10.00">module_cu_tiedtke::</text>
<text text-anchor="middle" x="472" y="-7.5" font-family="Helvetica,sans-Serif" font-size="10.00">cu_tiedtke</text>
</a>
</g>
</g>
<!-- Node3&#45;&gt;Node4 -->
<g id="edge3" class="edge"><title>Node3&#45;&gt;Node4</title>
<path fill="none" stroke="midnightblue" d="M394.496,-15.5C402.872,-15.5 411.398,-15.5 419.571,-15.5"/>
<polygon fill="midnightblue" stroke="midnightblue" points="394.386,-12.0001 384.386,-15.5 394.386,-19.0001 394.386,-12.0001"/>
</g>
<!-- Node5 -->
<g id="node5" class="node"><title>Node5</title>
<g id="a_node5"><a xlink:href="classconvection.html#a06b811540eb747b3734e7fb35de41782" target="_top" xlink:title="convection::convect">
<polygon fill="white" stroke="black" points="560,-6 560,-25 664,-25 664,-6 560,-6"/>
<text text-anchor="middle" x="612" y="-13" font-family="Helvetica,sans-Serif" font-size="10.00">convection::convect</text>
</a>
</g>
</g>
<!-- Node4&#45;&gt;Node5 -->
<g id="edge4" class="edge"><title>Node4&#45;&gt;Node5</title>
<path fill="none" stroke="midnightblue" d="M534.496,-15.5C542.872,-15.5 551.398,-15.5 559.571,-15.5"/>
<polygon fill="midnightblue" stroke="midnightblue" points="534.386,-12.0001 524.386,-15.5 534.386,-19.0001 534.386,-12.0001"/>
</g>
<!-- Node6 -->
<g id="node6" class="node"><title>Node6</title>
<g id="a_node6"><a xlink:href="classtime__step.html#a2c022f11247af72e607b1493289aa974" target="_top" xlink:title=" Step forward one IO time step. ">
<polygon fill="white" stroke="black" points="700,-6 700,-25 784,-25 784,-6 700,-6"/>
<text text-anchor="middle" x="742" y="-13" font-family="Helvetica,sans-Serif" font-size="10.00">time_step::step</text>
</a>
</g>
</g>
<!-- Node5&#45;&gt;Node6 -->
<g id="edge5" class="edge"><title>Node5&#45;&gt;Node6</title>
<path fill="none" stroke="midnightblue" d="M674.406,-15.5C683.051,-15.5 691.759,-15.5 699.897,-15.5"/>
<polygon fill="midnightblue" stroke="midnightblue" points="674.325,-12.0001 664.325,-15.5 674.325,-19.0001 674.325,-12.0001"/>
</g>
<!-- Node7 -->
<g id="node7" class="node"><title>Node7</title>
<g id="a_node7"><a xlink:href="driver_8f90.html#ab1e5a5816a57fc6e95d9563c2bb53590" target="_top" xlink:title=" Main Program ">
<polygon fill="white" stroke="black" points="820,-6 820,-25 852,-25 852,-6 820,-6"/>
<text text-anchor="middle" x="836" y="-13" font-family="Helvetica,sans-Serif" font-size="10.00">icar</text>
</a>
</g>
</g>
<!-- Node6&#45;&gt;Node7 -->
<g id="edge6" class="edge"><title>Node6&#45;&gt;Node7</title>
<path fill="none" stroke="midnightblue" d="M794.253,-15.5C803.521,-15.5 812.5,-15.5 819.66,-15.5"/>
<polygon fill="midnightblue" stroke="midnightblue" points="794.156,-12.0001 784.156,-15.5 794.156,-19.0001 794.156,-12.0001"/>
</g>
</g>
</svg>
