<?xml version="1.0" encoding="UTF-8" standalone="no"?>
<!DOCTYPE svg PUBLIC "-//W3C//DTD SVG 1.1//EN"
 "http://www.w3.org/Graphics/SVG/1.1/DTD/svg11.dtd">
<!-- Generated by graphviz version 2.32.0 (20130809.1645)
 -->
<!-- Title: module_lsm_simple::lsm_simple_init Pages: 1 -->
<svg width="458pt" height="38pt"
 viewBox="0.00 0.00 458.00 38.00" xmlns="http://www.w3.org/2000/svg" xmlns:xlink="http://www.w3.org/1999/xlink">
<g id="graph0" class="graph" transform="scale(1 1) rotate(0) translate(4 34)">
<title>module_lsm_simple::lsm_simple_init</title>
<polygon fill="white" stroke="white" points="-4,5 -4,-34 455,-34 455,5 -4,5"/>
<!-- Node1 -->
<g id="node1" class="node"><title>Node1</title>
<polygon fill="#bfbfbf" stroke="black" points="0.5,-0 0.5,-30 109.5,-30 109.5,-0 0.5,-0"/>
<text text-anchor="start" x="8.5" y="-18" font-family="Helvetica,sans-Serif" font-size="10.00">module_lsm_simple::</text>
<text text-anchor="middle" x="55" y="-7" font-family="Helvetica,sans-Serif" font-size="10.00">lsm_simple_init</text>
</g>
<!-- Node2 -->
<g id="node2" class="node"><title>Node2</title>
<g id="a_node2"><a xlink:href="classland__surface.html#a1cb38f371db4d5b7c7bcfe172b7147bf" target="_top" xlink:title="land_surface::lsm_init">
<polygon fill="white" stroke="black" points="146,-5.5 146,-24.5 258,-24.5 258,-5.5 146,-5.5"/>
<text text-anchor="middle" x="202" y="-12.5" font-family="Helvetica,sans-Serif" font-size="10.00">land_surface::lsm_init</text>
</a>
</g>
</g>
<!-- Node1&#45;&gt;Node2 -->
<g id="edge1" class="edge"><title>Node1&#45;&gt;Node2</title>
<path fill="none" stroke="midnightblue" d="M119.658,-15C128.336,-15 137.185,-15 145.699,-15"/>
<polygon fill="midnightblue" stroke="midnightblue" points="119.581,-11.5001 109.581,-15 119.581,-18.5001 119.581,-11.5001"/>
</g>
<!-- Node3 -->
<g id="node3" class="node"><title>Node3</title>
<g id="a_node3"><a xlink:href="classinit.html#ad066397f42956c6e9d50884a2e84d4e4" target="_top" xlink:title="init::init_physics">
<polygon fill="white" stroke="black" points="294.5,-5.5 294.5,-24.5 381.5,-24.5 381.5,-5.5 294.5,-5.5"/>
<text text-anchor="middle" x="338" y="-12.5" font-family="Helvetica,sans-Serif" font-size="10.00">init::init_physics</text>
</a>
</g>
</g>
<!-- Node2&#45;&gt;Node3 -->
<g id="edge2" class="edge"><title>Node2&#45;&gt;Node3</title>
<path fill="none" stroke="midnightblue" d="M268.461,-15C277.18,-15 285.934,-15 294.132,-15"/>
<polygon fill="midnightblue" stroke="midnightblue" points="268.277,-11.5001 258.277,-15 268.277,-18.5001 268.277,-11.5001"/>
</g>
<!-- Node4 -->
<g id="node4" class="node"><title>Node4</title>
<g id="a_node4"><a xlink:href="driver_8f90.html#ab1e5a5816a57fc6e95d9563c2bb53590" target="_top" xlink:title=" Main Program ">
<polygon fill="white" stroke="black" points="418,-5.5 418,-24.5 450,-24.5 450,-5.5 418,-5.5"/>
<text text-anchor="middle" x="434" y="-12.5" font-family="Helvetica,sans-Serif" font-size="10.00">icar</text>
</a>
</g>
</g>
<!-- Node3&#45;&gt;Node4 -->
<g id="edge3" class="edge"><title>Node3&#45;&gt;Node4</title>
<path fill="none" stroke="midnightblue" d="M391.69,-15C401.326,-15 410.639,-15 417.975,-15"/>
<polygon fill="midnightblue" stroke="midnightblue" points="391.6,-11.5001 381.599,-15 391.599,-18.5001 391.6,-11.5001"/>
</g>
</g>
</svg>
