<?xml version="1.0" encoding="UTF-8" standalone="no"?>
<!DOCTYPE svg PUBLIC "-//W3C//DTD SVG 1.1//EN"
 "http://www.w3.org/Graphics/SVG/1.1/DTD/svg11.dtd">
<!-- Generated by graphviz version 2.32.0 (20130809.1645)
 -->
<!-- Title: module_mp_thompson::rsif Pages: 1 -->
<svg width="746pt" height="38pt"
 viewBox="0.00 0.00 746.00 38.00" xmlns="http://www.w3.org/2000/svg" xmlns:xlink="http://www.w3.org/1999/xlink">
<g id="graph0" class="graph" transform="scale(1 1) rotate(0) translate(4 34)">
<title>module_mp_thompson::rsif</title>
<polygon fill="white" stroke="white" points="-4,5 -4,-34 743,-34 743,5 -4,5"/>
<!-- Node1 -->
<g id="node1" class="node"><title>Node1</title>
<polygon fill="#bfbfbf" stroke="black" points="0.5,-0 0.5,-30 115.5,-30 115.5,-0 0.5,-0"/>
<text text-anchor="start" x="8.5" y="-18" font-family="Helvetica,sans-Serif" font-size="10.00">module_mp_thompson</text>
<text text-anchor="middle" x="58" y="-7" font-family="Helvetica,sans-Serif" font-size="10.00">::rsif</text>
</g>
<!-- Node2 -->
<g id="node2" class="node"><title>Node2</title>
<g id="a_node2"><a xlink:href="classmodule__mp__thompson.html#a9c09ed2f3aeb55e40a86a3ddc72d1ca8" target="_top" xlink:title="module_mp_thompson\l::mp_thompson">
<polygon fill="white" stroke="black" points="152.5,-0 152.5,-30 267.5,-30 267.5,-0 152.5,-0"/>
<text text-anchor="start" x="160.5" y="-18" font-family="Helvetica,sans-Serif" font-size="10.00">module_mp_thompson</text>
<text text-anchor="middle" x="210" y="-7" font-family="Helvetica,sans-Serif" font-size="10.00">::mp_thompson</text>
</a>
</g>
</g>
<!-- Node1&#45;&gt;Node2 -->
<g id="edge1" class="edge"><title>Node1&#45;&gt;Node2</title>
<path fill="none" stroke="midnightblue" d="M125.916,-15C134.694,-15 143.622,-15 152.211,-15"/>
<polygon fill="midnightblue" stroke="midnightblue" points="125.709,-11.5001 115.709,-15 125.709,-18.5001 125.709,-11.5001"/>
</g>
<!-- Node3 -->
<g id="node3" class="node"><title>Node3</title>
<g id="a_node3"><a xlink:href="classmodule__mp__thompson.html#a9d504d4387110026eb3c8d8fe49d1072" target="_top" xlink:title="module_mp_thompson\l::mp_gt_driver">
<polygon fill="white" stroke="black" points="304.5,-0 304.5,-30 419.5,-30 419.5,-0 304.5,-0"/>
<text text-anchor="start" x="312.5" y="-18" font-family="Helvetica,sans-Serif" font-size="10.00">module_mp_thompson</text>
<text text-anchor="middle" x="362" y="-7" font-family="Helvetica,sans-Serif" font-size="10.00">::mp_gt_driver</text>
</a>
</g>
</g>
<!-- Node2&#45;&gt;Node3 -->
<g id="edge2" class="edge"><title>Node2&#45;&gt;Node3</title>
<path fill="none" stroke="midnightblue" d="M277.916,-15C286.694,-15 295.622,-15 304.211,-15"/>
<polygon fill="midnightblue" stroke="midnightblue" points="277.709,-11.5001 267.709,-15 277.709,-18.5001 277.709,-11.5001"/>
</g>
<!-- Node4 -->
<g id="node4" class="node"><title>Node4</title>
<g id="a_node4"><a xlink:href="classmicrophysics.html#ad2296bf9e02061a692cb9bebb6abcf7d" target="_top" xlink:title=" Microphysical driver ">
<polygon fill="white" stroke="black" points="456,-5.5 456,-24.5 550,-24.5 550,-5.5 456,-5.5"/>
<text text-anchor="middle" x="503" y="-12.5" font-family="Helvetica,sans-Serif" font-size="10.00">microphysics::mp</text>
</a>
</g>
</g>
<!-- Node3&#45;&gt;Node4 -->
<g id="edge3" class="edge"><title>Node3&#45;&gt;Node4</title>
<path fill="none" stroke="midnightblue" d="M429.777,-15C438.552,-15 447.385,-15 455.715,-15"/>
<polygon fill="midnightblue" stroke="midnightblue" points="429.537,-11.5001 419.537,-15 429.537,-18.5001 429.537,-11.5001"/>
</g>
<!-- Node5 -->
<g id="node5" class="node"><title>Node5</title>
<g id="a_node5"><a xlink:href="classtime__step.html#a2c022f11247af72e607b1493289aa974" target="_top" xlink:title=" Step forward one IO time step. ">
<polygon fill="white" stroke="black" points="586,-5.5 586,-24.5 670,-24.5 670,-5.5 586,-5.5"/>
<text text-anchor="middle" x="628" y="-12.5" font-family="Helvetica,sans-Serif" font-size="10.00">time_step::step</text>
</a>
</g>
</g>
<!-- Node4&#45;&gt;Node5 -->
<g id="edge4" class="edge"><title>Node4&#45;&gt;Node5</title>
<path fill="none" stroke="midnightblue" d="M560.191,-15C568.834,-15 577.618,-15 585.853,-15"/>
<polygon fill="midnightblue" stroke="midnightblue" points="560.151,-11.5001 550.151,-15 560.151,-18.5001 560.151,-11.5001"/>
</g>
<!-- Node6 -->
<g id="node6" class="node"><title>Node6</title>
<g id="a_node6"><a xlink:href="driver_8f90.html#ab1e5a5816a57fc6e95d9563c2bb53590" target="_top" xlink:title=" Main Program ">
<polygon fill="white" stroke="black" points="706,-5.5 706,-24.5 738,-24.5 738,-5.5 706,-5.5"/>
<text text-anchor="middle" x="722" y="-12.5" font-family="Helvetica,sans-Serif" font-size="10.00">icar</text>
</a>
</g>
</g>
<!-- Node5&#45;&gt;Node6 -->
<g id="edge5" class="edge"><title>Node5&#45;&gt;Node6</title>
<path fill="none" stroke="midnightblue" d="M680.253,-15C689.521,-15 698.5,-15 705.66,-15"/>
<polygon fill="midnightblue" stroke="midnightblue" points="680.156,-11.5001 670.156,-15 680.156,-18.5001 680.156,-11.5001"/>
</g>
</g>
</svg>
