<?xml version="1.0" encoding="UTF-8" standalone="no"?>
<!DOCTYPE svg PUBLIC "-//W3C//DTD SVG 1.1//EN"
 "http://www.w3.org/Graphics/SVG/1.1/DTD/svg11.dtd">
<!-- Generated by graphviz version 2.32.0 (20130809.1645)
 -->
<!-- Title: initialize_options::init_options Pages: 1 -->
<svg width="282pt" height="38pt"
 viewBox="0.00 0.00 282.00 38.00" xmlns="http://www.w3.org/2000/svg" xmlns:xlink="http://www.w3.org/1999/xlink">
<g id="graph0" class="graph" transform="scale(1 1) rotate(0) translate(4 34)">
<title>initialize_options::init_options</title>
<polygon fill="white" stroke="white" points="-4,5 -4,-34 279,-34 279,5 -4,5"/>
<!-- Node1 -->
<g id="node1" class="node"><title>Node1</title>
<polygon fill="#bfbfbf" stroke="black" points="0.5,-0 0.5,-30 89.5,-30 89.5,-0 0.5,-0"/>
<text text-anchor="start" x="8.5" y="-18" font-family="Helvetica,sans-Serif" font-size="10.00">initialize_options</text>
<text text-anchor="middle" x="45" y="-7" font-family="Helvetica,sans-Serif" font-size="10.00">::init_options</text>
</g>
<!-- Node2 -->
<g id="node2" class="node"><title>Node2</title>
<g id="a_node2"><a xlink:href="classinit.html#a1dd1e2b38eef39cba464f65c9ce82568" target="_top" xlink:title="init::init_model">
<polygon fill="white" stroke="black" points="126,-5.5 126,-24.5 206,-24.5 206,-5.5 126,-5.5"/>
<text text-anchor="middle" x="166" y="-12.5" font-family="Helvetica,sans-Serif" font-size="10.00">init::init_model</text>
</a>
</g>
</g>
<!-- Node1&#45;&gt;Node2 -->
<g id="edge1" class="edge"><title>Node1&#45;&gt;Node2</title>
<path fill="none" stroke="midnightblue" d="M99.7656,-15C108.499,-15 117.399,-15 125.703,-15"/>
<polygon fill="midnightblue" stroke="midnightblue" points="99.6355,-11.5001 89.6355,-15 99.6355,-18.5001 99.6355,-11.5001"/>
</g>
<!-- Node3 -->
<g id="node3" class="node"><title>Node3</title>
<g id="a_node3"><a xlink:href="driver_8f90.html#ab1e5a5816a57fc6e95d9563c2bb53590" target="_top" xlink:title=" Main Program ">
<polygon fill="white" stroke="black" points="242,-5.5 242,-24.5 274,-24.5 274,-5.5 242,-5.5"/>
<text text-anchor="middle" x="258" y="-12.5" font-family="Helvetica,sans-Serif" font-size="10.00">icar</text>
</a>
</g>
</g>
<!-- Node2&#45;&gt;Node3 -->
<g id="edge2" class="edge"><title>Node2&#45;&gt;Node3</title>
<path fill="none" stroke="midnightblue" d="M216.233,-15C225.449,-15 234.425,-15 241.599,-15"/>
<polygon fill="midnightblue" stroke="midnightblue" points="216.214,-11.5001 206.213,-15 216.213,-18.5001 216.214,-11.5001"/>
</g>
</g>
</svg>
