<?xml version="1.0" encoding="UTF-8" standalone="no"?>
<!DOCTYPE svg PUBLIC "-//W3C//DTD SVG 1.1//EN"
 "http://www.w3.org/Graphics/SVG/1.1/DTD/svg11.dtd">
<!-- Generated by graphviz version 2.32.0 (20130809.1645)
 -->
<!-- Title: init::init_bc_data Pages: 1 -->
<svg width="250pt" height="165pt"
 viewBox="0.00 0.00 250.00 165.00" xmlns="http://www.w3.org/2000/svg" xmlns:xlink="http://www.w3.org/1999/xlink">
<g id="graph0" class="graph" transform="scale(1 1) rotate(0) translate(4 161)">
<title>init::init_bc_data</title>
<polygon fill="white" stroke="white" points="-4,5 -4,-161 247,-161 247,5 -4,5"/>
<!-- Node1 -->
<g id="node1" class="node"><title>Node1</title>
<polygon fill="#bfbfbf" stroke="black" points="0,-66.5 0,-85.5 88,-85.5 88,-66.5 0,-66.5"/>
<text text-anchor="middle" x="44" y="-73.5" font-family="Helvetica,sans-Serif" font-size="10.00">init::init_bc_data</text>
</g>
<!-- Node2 -->
<g id="node2" class="node"><title>Node2</title>
<g id="a_node2"><a xlink:href="interfaceio__routines_1_1io__read.html#a35290f3b01bd8f36bae0173749f6b870" target="_top" xlink:title=" Same as io_read3d but for 2&#45;dimensional data ">
<polygon fill="white" stroke="black" points="132.5,-127 132.5,-157 233.5,-157 233.5,-127 132.5,-127"/>
<text text-anchor="start" x="140.5" y="-145" font-family="Helvetica,sans-Serif" font-size="10.00">io_routines::io_read</text>
<text text-anchor="middle" x="183" y="-134" font-family="Helvetica,sans-Serif" font-size="10.00">::io_read2d</text>
</a>
</g>
</g>
<!-- Node1&#45;&gt;Node2 -->
<g id="edge1" class="edge"><title>Node1&#45;&gt;Node2</title>
<path fill="none" stroke="midnightblue" d="M62.7009,-85.6505C78.5924,-94.2028 102.639,-106.869 124,-117 128.067,-118.929 132.32,-120.882 136.596,-122.801"/>
<polygon fill="midnightblue" stroke="midnightblue" points="135.369,-126.085 145.93,-126.929 138.2,-119.683 135.369,-126.085"/>
</g>
<!-- Node3 -->
<g id="node3" class="node"><title>Node3</title>
<g id="a_node3"><a xlink:href="classinit.html#a12de2a1a2b6818e778283cc79e883f88" target="_top" xlink:title="init::convert_longitudes">
<polygon fill="white" stroke="black" points="124.5,-88.5 124.5,-107.5 241.5,-107.5 241.5,-88.5 124.5,-88.5"/>
<text text-anchor="middle" x="183" y="-95.5" font-family="Helvetica,sans-Serif" font-size="10.00">init::convert_longitudes</text>
</a>
</g>
</g>
<!-- Node1&#45;&gt;Node3 -->
<g id="edge2" class="edge"><title>Node1&#45;&gt;Node3</title>
<path fill="none" stroke="midnightblue" d="M88.3477,-82.9609C96.6633,-84.2963 105.553,-85.7239 114.423,-87.1482"/>
<polygon fill="midnightblue" stroke="midnightblue" points="113.967,-90.6198 124.396,-88.7497 115.077,-83.7084 113.967,-90.6198"/>
</g>
<!-- Node4 -->
<g id="node4" class="node"><title>Node4</title>
<g id="a_node4"><a xlink:href="interfaceio__routines_1_1io__read.html#a9b6dacfccbb234dd949e7136e5b67f8c" target="_top" xlink:title=" Same as io_read6d but for 3&#45;dimensional data ">
<polygon fill="white" stroke="black" points="132.5,-39 132.5,-69 233.5,-69 233.5,-39 132.5,-39"/>
<text text-anchor="start" x="140.5" y="-57" font-family="Helvetica,sans-Serif" font-size="10.00">io_routines::io_read</text>
<text text-anchor="middle" x="183" y="-46" font-family="Helvetica,sans-Serif" font-size="10.00">::io_read3d</text>
</a>
</g>
</g>
<!-- Node1&#45;&gt;Node4 -->
<g id="edge3" class="edge"><title>Node1&#45;&gt;Node4</title>
<path fill="none" stroke="midnightblue" d="M88.3477,-69.0391C99.14,-67.306 110.9,-65.4176 122.326,-63.5826"/>
<polygon fill="midnightblue" stroke="midnightblue" points="122.931,-67.0305 132.249,-61.9892 121.821,-60.1191 122.931,-67.0305"/>
</g>
<!-- Node5 -->
<g id="node5" class="node"><title>Node5</title>
<g id="a_node5"><a xlink:href="classinit.html#a162bb77321c63c58104c2df3f1554332" target="_top" xlink:title="init::boundary_allocate">
<polygon fill="white" stroke="black" points="126,-0.5 126,-19.5 240,-19.5 240,-0.5 126,-0.5"/>
<text text-anchor="middle" x="183" y="-7.5" font-family="Helvetica,sans-Serif" font-size="10.00">init::boundary_allocate</text>
</a>
</g>
</g>
<!-- Node1&#45;&gt;Node5 -->
<g id="edge4" class="edge"><title>Node1&#45;&gt;Node5</title>
<path fill="none" stroke="midnightblue" d="M59.3913,-66.4652C74.8852,-56.4788 100.482,-40.7766 124,-30 129.397,-27.527 135.193,-25.1829 140.958,-23.0287"/>
<polygon fill="midnightblue" stroke="midnightblue" points="142.321,-26.2584 150.557,-19.5934 139.962,-19.6678 142.321,-26.2584"/>
</g>
</g>
</svg>
