<?xml version="1.0" encoding="UTF-8" standalone="no"?>
<!DOCTYPE svg PUBLIC "-//W3C//DTD SVG 1.1//EN"
 "http://www.w3.org/Graphics/SVG/1.1/DTD/svg11.dtd">
<!-- Generated by graphviz version 2.38.0 (20140413.2041)
 -->
<!-- Title: module_mp_simple::phase_change Pages: 1 -->
<svg width="927pt" height="61pt"
 viewBox="0.00 0.00 927.00 61.00" xmlns="http://www.w3.org/2000/svg" xmlns:xlink="http://www.w3.org/1999/xlink">
<g id="graph0" class="graph" transform="scale(1 1) rotate(0) translate(4 57)">
<title>module_mp_simple::phase_change</title>
<polygon fill="white" stroke="none" points="-4,4 -4,-57 923,-57 923,4 -4,4"/>
<!-- Node1 -->
<g id="node1" class="node"><title>Node1</title>
<polygon fill="#bfbfbf" stroke="black" points="0,-0.5 0,-30.5 133,-30.5 133,-0.5 0,-0.5"/>
<text text-anchor="start" x="8" y="-18.5" font-family="Helvetica,sans-Serif" font-size="10.00">module_mp_simple::phase</text>
<text text-anchor="middle" x="66.5" y="-7.5" font-family="Helvetica,sans-Serif" font-size="10.00">_change</text>
</g>
<!-- Node2 -->
<g id="node2" class="node"><title>Node2</title>
<g id="a_node2"><a xlink:href="classmodule__mp__simple.html#afa657f819d93fc905ac898e46b0551ce" target="_top" xlink:title=" Compute microphysical conversions ">
<polygon fill="white" stroke="black" points="169,-22.5 169,-52.5 289,-52.5 289,-22.5 169,-22.5"/>
<text text-anchor="start" x="177" y="-40.5" font-family="Helvetica,sans-Serif" font-size="10.00">module_mp_simple::mp</text>
<text text-anchor="middle" x="229" y="-29.5" font-family="Helvetica,sans-Serif" font-size="10.00">_conversions</text>
</a>
</g>
</g>
<!-- Node1&#45;&gt;Node2 -->
<g id="edge1" class="edge"><title>Node1&#45;&gt;Node2</title>
<path fill="none" stroke="midnightblue" d="M143.257,-25.8842C151.834,-27.0597 160.478,-28.2447 168.799,-29.3852"/>
<polygon fill="midnightblue" stroke="midnightblue" points="143.627,-22.4022 133.245,-24.5117 142.677,-29.3374 143.627,-22.4022"/>
</g>
<!-- Node3 -->
<g id="node3" class="node"><title>Node3</title>
<g id="a_node3"><a xlink:href="classmodule__mp__simple.html#ac6e0bb6089333d9b063ba5f4e6f8127f" target="_top" xlink:title=" Basic microphysics code for a column of air ">
<polygon fill="white" stroke="black" points="325,-0.5 325,-30.5 445,-30.5 445,-0.5 325,-0.5"/>
<text text-anchor="start" x="333" y="-18.5" font-family="Helvetica,sans-Serif" font-size="10.00">module_mp_simple::mp</text>
<text text-anchor="middle" x="385" y="-7.5" font-family="Helvetica,sans-Serif" font-size="10.00">_simple</text>
</a>
</g>
</g>
<!-- Node1&#45;&gt;Node3 -->
<g id="edge7" class="edge"><title>Node1&#45;&gt;Node3</title>
<path fill="none" stroke="midnightblue" d="M143.189,-13.8446C151.892,-13.7029 160.64,-13.5824 169,-13.5 222.331,-12.9746 235.67,-12.9387 289,-13.5 300.63,-13.6224 313.059,-13.8291 324.965,-14.0643"/>
<polygon fill="midnightblue" stroke="midnightblue" points="142.956,-10.348 133.017,-14.0196 143.076,-17.3469 142.956,-10.348"/>
</g>
<!-- Node2&#45;&gt;Node3 -->
<g id="edge2" class="edge"><title>Node2&#45;&gt;Node3</title>
<path fill="none" stroke="midnightblue" d="M299.089,-27.6301C307.672,-26.4039 316.388,-25.1588 324.804,-23.9566"/>
<polygon fill="midnightblue" stroke="midnightblue" points="298.504,-24.178 289.1,-29.0571 299.494,-31.1077 298.504,-24.178"/>
</g>
<!-- Node4 -->
<g id="node4" class="node"><title>Node4</title>
<g id="a_node4"><a xlink:href="classmodule__mp__simple.html#a3b5b540d9d511651c42ec6b3ba842796" target="_top" xlink:title=" Driver code to control simple microphysics ">
<polygon fill="white" stroke="black" points="481,-0.5 481,-30.5 601,-30.5 601,-0.5 481,-0.5"/>
<text text-anchor="start" x="489" y="-18.5" font-family="Helvetica,sans-Serif" font-size="10.00">module_mp_simple::mp</text>
<text text-anchor="middle" x="541" y="-7.5" font-family="Helvetica,sans-Serif" font-size="10.00">_simple_driver</text>
</a>
</g>
</g>
<!-- Node3&#45;&gt;Node4 -->
<g id="edge3" class="edge"><title>Node3&#45;&gt;Node4</title>
<path fill="none" stroke="midnightblue" d="M455.369,-15.5C463.862,-15.5 472.48,-15.5 480.804,-15.5"/>
<polygon fill="midnightblue" stroke="midnightblue" points="455.1,-12.0001 445.1,-15.5 455.1,-19.0001 455.1,-12.0001"/>
</g>
<!-- Node5 -->
<g id="node5" class="node"><title>Node5</title>
<g id="a_node5"><a xlink:href="classmicrophysics.html#ad2296bf9e02061a692cb9bebb6abcf7d" target="_top" xlink:title=" Microphysical driver ">
<polygon fill="white" stroke="black" points="637,-6 637,-25 731,-25 731,-6 637,-6"/>
<text text-anchor="middle" x="684" y="-13" font-family="Helvetica,sans-Serif" font-size="10.00">microphysics::mp</text>
</a>
</g>
</g>
<!-- Node4&#45;&gt;Node5 -->
<g id="edge4" class="edge"><title>Node4&#45;&gt;Node5</title>
<path fill="none" stroke="midnightblue" d="M611.493,-15.5C620.135,-15.5 628.798,-15.5 636.961,-15.5"/>
<polygon fill="midnightblue" stroke="midnightblue" points="611.388,-12.0001 601.388,-15.5 611.388,-19.0001 611.388,-12.0001"/>
</g>
<!-- Node6 -->
<g id="node6" class="node"><title>Node6</title>
<g id="a_node6"><a xlink:href="classtime__step.html#a2c022f11247af72e607b1493289aa974" target="_top" xlink:title=" Step forward one IO time step. ">
<polygon fill="white" stroke="black" points="767,-6 767,-25 851,-25 851,-6 767,-6"/>
<text text-anchor="middle" x="809" y="-13" font-family="Helvetica,sans-Serif" font-size="10.00">time_step::step</text>
</a>
</g>
</g>
<!-- Node5&#45;&gt;Node6 -->
<g id="edge5" class="edge"><title>Node5&#45;&gt;Node6</title>
<path fill="none" stroke="midnightblue" d="M741.191,-15.5C749.834,-15.5 758.618,-15.5 766.853,-15.5"/>
<polygon fill="midnightblue" stroke="midnightblue" points="741.151,-12.0001 731.151,-15.5 741.151,-19.0001 741.151,-12.0001"/>
</g>
<!-- Node7 -->
<g id="node7" class="node"><title>Node7</title>
<g id="a_node7"><a xlink:href="driver_8f90.html#ab1e5a5816a57fc6e95d9563c2bb53590" target="_top" xlink:title=" Main Program ">
<polygon fill="white" stroke="black" points="887,-6 887,-25 919,-25 919,-6 887,-6"/>
<text text-anchor="middle" x="903" y="-13" font-family="Helvetica,sans-Serif" font-size="10.00">icar</text>
</a>
</g>
</g>
<!-- Node6&#45;&gt;Node7 -->
<g id="edge6" class="edge"><title>Node6&#45;&gt;Node7</title>
<path fill="none" stroke="midnightblue" d="M861.253,-15.5C870.521,-15.5 879.5,-15.5 886.66,-15.5"/>
<polygon fill="midnightblue" stroke="midnightblue" points="861.156,-12.0001 851.156,-15.5 861.156,-19.0001 861.156,-12.0001"/>
</g>
</g>
</svg>
