<?xml version="1.0" encoding="UTF-8" standalone="no"?>
<!DOCTYPE svg PUBLIC "-//W3C//DTD SVG 1.1//EN"
 "http://www.w3.org/Graphics/SVG/1.1/DTD/svg11.dtd">
<!-- Generated by graphviz version 2.38.0 (20140413.2041)
 -->
<!-- Title: initialize_options::adv_parameters_namelist Pages: 1 -->
<svg width="558pt" height="127pt"
 viewBox="0.00 0.00 558.00 127.00" xmlns="http://www.w3.org/2000/svg" xmlns:xlink="http://www.w3.org/1999/xlink">
<g id="graph0" class="graph" transform="scale(1 1) rotate(0) translate(4 123)">
<title>initialize_options::adv_parameters_namelist</title>
<polygon fill="white" stroke="none" points="-4,4 -4,-123 554,-123 554,4 -4,4"/>
<!-- Node1 -->
<g id="node1" class="node"><title>Node1</title>
<polygon fill="#bfbfbf" stroke="black" points="0,-44.5 0,-74.5 134,-74.5 134,-44.5 0,-44.5"/>
<text text-anchor="start" x="8" y="-62.5" font-family="Helvetica,sans-Serif" font-size="10.00">initialize_options</text>
<text text-anchor="middle" x="67" y="-51.5" font-family="Helvetica,sans-Serif" font-size="10.00">::adv_parameters_namelist</text>
</g>
<!-- Node2 -->
<g id="node2" class="node"><title>Node2</title>
<g id="a_node2"><a xlink:href="classinitialize__options.html#a09a50b9cb8e065acef2d92f2a1b615fd" target="_top" xlink:title="initialize_options\l::get_options_file">
<polygon fill="white" stroke="black" points="170,-88.5 170,-118.5 261,-118.5 261,-88.5 170,-88.5"/>
<text text-anchor="start" x="178" y="-106.5" font-family="Helvetica,sans-Serif" font-size="10.00">initialize_options</text>
<text text-anchor="middle" x="215.5" y="-95.5" font-family="Helvetica,sans-Serif" font-size="10.00">::get_options_file</text>
</a>
</g>
</g>
<!-- Node1&#45;&gt;Node2 -->
<g id="edge1" class="edge"><title>Node1&#45;&gt;Node2</title>
<path fill="none" stroke="midnightblue" d="M118.007,-74.5192C131.481,-78.5659 146.125,-82.9641 159.838,-87.0828"/>
<polygon fill="midnightblue" stroke="midnightblue" points="159.045,-90.4989 169.629,-90.0234 161.059,-83.7948 159.045,-90.4989"/>
</g>
<!-- Node3 -->
<g id="node3" class="node"><title>Node3</title>
<g id="a_node3"><a xlink:href="classinitialize__options.html#a7161e810e27d3c830e135c3811ae290b" target="_top" xlink:title="initialize_options\l::version_check">
<polygon fill="white" stroke="black" points="171,-0.5 171,-30.5 260,-30.5 260,-0.5 171,-0.5"/>
<text text-anchor="start" x="179" y="-18.5" font-family="Helvetica,sans-Serif" font-size="10.00">initialize_options</text>
<text text-anchor="middle" x="215.5" y="-7.5" font-family="Helvetica,sans-Serif" font-size="10.00">::version_check</text>
</a>
</g>
</g>
<!-- Node1&#45;&gt;Node3 -->
<g id="edge2" class="edge"><title>Node1&#45;&gt;Node3</title>
<path fill="none" stroke="midnightblue" d="M118.007,-44.4808C131.748,-40.354 146.705,-35.8615 160.652,-31.6729"/>
<polygon fill="midnightblue" stroke="midnightblue" points="162.026,-34.9147 170.596,-28.6861 160.012,-28.2105 162.026,-34.9147"/>
</g>
<!-- Node4 -->
<g id="node4" class="node"><title>Node4</title>
<g id="a_node4"><a xlink:href="classio__routines.html#a754b76158aa8311e1ee112004ddae52b" target="_top" xlink:title=" Find an available file unit number. ">
<polygon fill="white" stroke="black" points="297,-50 297,-69 413,-69 413,-50 297,-50"/>
<text text-anchor="middle" x="355" y="-57" font-family="Helvetica,sans-Serif" font-size="10.00">io_routines::io_newunit</text>
</a>
</g>
</g>
<!-- Node1&#45;&gt;Node4 -->
<g id="edge6" class="edge"><title>Node1&#45;&gt;Node4</title>
<path fill="none" stroke="midnightblue" d="M134.333,-59.5C180.05,-59.5 240.609,-59.5 286.562,-59.5"/>
<polygon fill="midnightblue" stroke="midnightblue" points="286.725,-63.0001 296.725,-59.5 286.725,-56.0001 286.725,-63.0001"/>
</g>
<!-- Node3&#45;&gt;Node4 -->
<g id="edge3" class="edge"><title>Node3&#45;&gt;Node4</title>
<path fill="none" stroke="midnightblue" d="M260.006,-29.4219C277.501,-35.0202 297.528,-41.429 314.589,-46.8884"/>
<polygon fill="midnightblue" stroke="midnightblue" points="313.658,-50.2654 324.249,-49.9798 315.792,-43.5984 313.658,-50.2654"/>
</g>
<!-- Node5 -->
<g id="node5" class="node"><title>Node5</title>
<g id="a_node5"><a xlink:href="classmodel__tracking.html#a0c78b5716b846487efd52d7b78dae261" target="_top" xlink:title="model_tracking::print\l_model_diffs">
<polygon fill="white" stroke="black" points="301.5,-0.5 301.5,-30.5 408.5,-30.5 408.5,-0.5 301.5,-0.5"/>
<text text-anchor="start" x="309.5" y="-18.5" font-family="Helvetica,sans-Serif" font-size="10.00">model_tracking::print</text>
<text text-anchor="middle" x="355" y="-7.5" font-family="Helvetica,sans-Serif" font-size="10.00">_model_diffs</text>
</a>
</g>
</g>
<!-- Node3&#45;&gt;Node5 -->
<g id="edge4" class="edge"><title>Node3&#45;&gt;Node5</title>
<path fill="none" stroke="midnightblue" d="M260.006,-15.5C269.801,-15.5 280.391,-15.5 290.809,-15.5"/>
<polygon fill="midnightblue" stroke="midnightblue" points="291.134,-19.0001 301.134,-15.5 291.134,-12.0001 291.134,-19.0001"/>
</g>
<!-- Node6 -->
<g id="node6" class="node"><title>Node6</title>
<g id="a_node6"><a xlink:href="classmodel__tracking.html#a417ef049855367c1fb14cadf2203536f" target="_top" xlink:title="model_tracking::init\l_model_diffs">
<polygon fill="white" stroke="black" points="449,-0.5 449,-30.5 550,-30.5 550,-0.5 449,-0.5"/>
<text text-anchor="start" x="457" y="-18.5" font-family="Helvetica,sans-Serif" font-size="10.00">model_tracking::init</text>
<text text-anchor="middle" x="499.5" y="-7.5" font-family="Helvetica,sans-Serif" font-size="10.00">_model_diffs</text>
</a>
</g>
</g>
<!-- Node5&#45;&gt;Node6 -->
<g id="edge5" class="edge"><title>Node5&#45;&gt;Node6</title>
<path fill="none" stroke="midnightblue" d="M408.657,-15.5C418.425,-15.5 428.694,-15.5 438.658,-15.5"/>
<polygon fill="midnightblue" stroke="midnightblue" points="438.896,-19.0001 448.896,-15.5 438.896,-12.0001 438.896,-19.0001"/>
</g>
</g>
</svg>
