<?xml version="1.0" encoding="UTF-8" standalone="no"?>
<!DOCTYPE svg PUBLIC "-//W3C//DTD SVG 1.1//EN"
 "http://www.w3.org/Graphics/SVG/1.1/DTD/svg11.dtd">
<!-- Generated by graphviz version 2.38.0 (20140413.2041)
 -->
<!-- Title: module_ra_simple::longwave Pages: 1 -->
<svg width="1023pt" height="53pt"
 viewBox="0.00 0.00 1023.00 52.50" xmlns="http://www.w3.org/2000/svg" xmlns:xlink="http://www.w3.org/1999/xlink">
<g id="graph0" class="graph" transform="scale(1 1) rotate(0) translate(4 48.5)">
<title>module_ra_simple::longwave</title>
<polygon fill="white" stroke="none" points="-4,4 -4,-48.5 1019,-48.5 1019,4 -4,4"/>
<!-- Node1 -->
<g id="node1" class="node"><title>Node1</title>
<polygon fill="#bfbfbf" stroke="black" points="0,-19.5 0,-38.5 143,-38.5 143,-19.5 0,-19.5"/>
<text text-anchor="middle" x="71.5" y="-26.5" font-family="Helvetica,sans-Serif" font-size="10.00">module_ra_simple::longwave</text>
</g>
<!-- Node2 -->
<g id="node2" class="node"><title>Node2</title>
<g id="a_node2"><a xlink:href="classmodule__ra__simple.html#ad1c74605b2817f833d31e806f791e246" target="_top" xlink:title="module_ra_simple::ra\l_simple">
<polygon fill="white" stroke="black" points="179,-14 179,-44 289,-44 289,-14 179,-14"/>
<text text-anchor="start" x="187" y="-32" font-family="Helvetica,sans-Serif" font-size="10.00">module_ra_simple::ra</text>
<text text-anchor="middle" x="234" y="-21" font-family="Helvetica,sans-Serif" font-size="10.00">_simple</text>
</a>
</g>
</g>
<!-- Node1&#45;&gt;Node2 -->
<g id="edge1" class="edge"><title>Node1&#45;&gt;Node2</title>
<path fill="none" stroke="midnightblue" d="M153.469,-29C162.092,-29 170.704,-29 178.907,-29"/>
<polygon fill="midnightblue" stroke="midnightblue" points="153.365,-25.5001 143.365,-29 153.365,-32.5001 153.365,-25.5001"/>
</g>
<!-- Node3 -->
<g id="node3" class="node"><title>Node3</title>
<g id="a_node3"><a xlink:href="classradiation.html#aba1a06d27af96fe11d576458c8ccfe77" target="_top" xlink:title="radiation::rad">
<polygon fill="white" stroke="black" points="325,-19.5 325,-38.5 398,-38.5 398,-19.5 325,-19.5"/>
<text text-anchor="middle" x="361.5" y="-26.5" font-family="Helvetica,sans-Serif" font-size="10.00">radiation::rad</text>
</a>
</g>
</g>
<!-- Node2&#45;&gt;Node3 -->
<g id="edge2" class="edge"><title>Node2&#45;&gt;Node3</title>
<path fill="none" stroke="midnightblue" d="M299.549,-29C308.282,-29 316.969,-29 324.931,-29"/>
<polygon fill="midnightblue" stroke="midnightblue" points="299.316,-25.5001 289.316,-29 299.316,-32.5001 299.316,-25.5001"/>
</g>
<!-- Node4 -->
<g id="node4" class="node"><title>Node4</title>
<g id="a_node4"><a xlink:href="classtime__step.html#a2c022f11247af72e607b1493289aa974" target="_top" xlink:title=" Step forward one IO time step. ">
<polygon fill="white" stroke="black" points="863,-19.5 863,-38.5 947,-38.5 947,-19.5 863,-19.5"/>
<text text-anchor="middle" x="905" y="-26.5" font-family="Helvetica,sans-Serif" font-size="10.00">time_step::step</text>
</a>
</g>
</g>
<!-- Node3&#45;&gt;Node4 -->
<g id="edge3" class="edge"><title>Node3&#45;&gt;Node4</title>
<path fill="none" stroke="midnightblue" d="M408.175,-29C511.858,-29 763.677,-29 862.869,-29"/>
<polygon fill="midnightblue" stroke="midnightblue" points="408.029,-25.5001 398.029,-29 408.029,-32.5001 408.029,-25.5001"/>
</g>
<!-- Node6 -->
<g id="node6" class="node"><title>Node6</title>
<g id="a_node6"><a xlink:href="classmodule__cu__kf.html#afbc0670c02010c630409b1796e89a3fb" target="_top" xlink:title="module_cu_kf::kfpara">
<polygon fill="white" stroke="black" points="434,-0.5 434,-19.5 544,-19.5 544,-0.5 434,-0.5"/>
<text text-anchor="middle" x="489" y="-7.5" font-family="Helvetica,sans-Serif" font-size="10.00">module_cu_kf::kfpara</text>
</a>
</g>
</g>
<!-- Node3&#45;&gt;Node6 -->
<g id="edge5" class="edge"><title>Node3&#45;&gt;Node6</title>
<path fill="none" stroke="midnightblue" d="M408.116,-22.094C416.522,-20.8214 425.372,-19.4816 433.997,-18.1757"/>
<polygon fill="midnightblue" stroke="midnightblue" points="407.491,-18.6486 398.128,-23.6062 408.539,-25.5698 407.491,-18.6486"/>
</g>
<!-- Node5 -->
<g id="node5" class="node"><title>Node5</title>
<g id="a_node5"><a xlink:href="driver_8f90.html#ab1e5a5816a57fc6e95d9563c2bb53590" target="_top" xlink:title=" Main Program ">
<polygon fill="white" stroke="black" points="983,-19.5 983,-38.5 1015,-38.5 1015,-19.5 983,-19.5"/>
<text text-anchor="middle" x="999" y="-26.5" font-family="Helvetica,sans-Serif" font-size="10.00">icar</text>
</a>
</g>
</g>
<!-- Node4&#45;&gt;Node5 -->
<g id="edge4" class="edge"><title>Node4&#45;&gt;Node5</title>
<path fill="none" stroke="midnightblue" d="M957.253,-29C966.521,-29 975.5,-29 982.66,-29"/>
<polygon fill="midnightblue" stroke="midnightblue" points="957.156,-25.5001 947.156,-29 957.156,-32.5001 957.156,-25.5001"/>
</g>
<!-- Node7 -->
<g id="node7" class="node"><title>Node7</title>
<g id="a_node7"><a xlink:href="classmodule__cu__kf.html#a273d9ce9bce064bfc092d6940bea4e27" target="_top" xlink:title="module_cu_kf::kfcps">
<polygon fill="white" stroke="black" points="580,-0.5 580,-19.5 687,-19.5 687,-0.5 580,-0.5"/>
<text text-anchor="middle" x="633.5" y="-7.5" font-family="Helvetica,sans-Serif" font-size="10.00">module_cu_kf::kfcps</text>
</a>
</g>
</g>
<!-- Node6&#45;&gt;Node7 -->
<g id="edge6" class="edge"><title>Node6&#45;&gt;Node7</title>
<path fill="none" stroke="midnightblue" d="M554.503,-10C562.962,-10 571.55,-10 579.783,-10"/>
<polygon fill="midnightblue" stroke="midnightblue" points="554.28,-6.5001 544.28,-10 554.28,-13.5001 554.28,-6.5001"/>
</g>
<!-- Node8 -->
<g id="node8" class="node"><title>Node8</title>
<g id="a_node8"><a xlink:href="classconvection.html#a06b811540eb747b3734e7fb35de41782" target="_top" xlink:title="convection::convect">
<polygon fill="white" stroke="black" points="723,-0.5 723,-19.5 827,-19.5 827,-0.5 723,-0.5"/>
<text text-anchor="middle" x="775" y="-7.5" font-family="Helvetica,sans-Serif" font-size="10.00">convection::convect</text>
</a>
</g>
</g>
<!-- Node7&#45;&gt;Node8 -->
<g id="edge7" class="edge"><title>Node7&#45;&gt;Node8</title>
<path fill="none" stroke="midnightblue" d="M697.409,-10C705.828,-10 714.382,-10 722.572,-10"/>
<polygon fill="midnightblue" stroke="midnightblue" points="697.239,-6.5001 687.239,-10 697.239,-13.5001 697.239,-6.5001"/>
</g>
<!-- Node8&#45;&gt;Node4 -->
<g id="edge8" class="edge"><title>Node8&#45;&gt;Node4</title>
<path fill="none" stroke="midnightblue" d="M837.406,-19.115C846.051,-20.3982 854.759,-21.6907 862.897,-22.8988"/>
<polygon fill="midnightblue" stroke="midnightblue" points="837.731,-15.6249 827.325,-17.6185 836.703,-22.549 837.731,-15.6249"/>
</g>
</g>
</svg>
