<?xml version="1.0" encoding="UTF-8" standalone="no"?>
<!DOCTYPE svg PUBLIC "-//W3C//DTD SVG 1.1//EN"
 "http://www.w3.org/Graphics/SVG/1.1/DTD/svg11.dtd">
<!-- Generated by graphviz version 2.32.0 (20130809.1645)
 -->
<!-- Title: module_sf_noahlsm::shflx Pages: 1 -->
<!--zoomable 224 -->
<svg id="main" version="1.1" xmlns="http://www.w3.org/2000/svg" xmlns:xlink="http://www.w3.org/1999/xlink" xml:space="preserve" onload="init(evt)">
<style type="text/css"><![CDATA[
.edge:hover path { stroke: red; }
.edge:hover polygon { stroke: red; fill: red; }
]]></style>
<script type="text/javascript"><![CDATA[
var edges = document.getElementsByTagName('g');
if (edges && edges.length) {
  for (var i=0;i<edges.length;i++) {
    if (edges[i].id.substr(0,4)=='edge') {
      edges[i].setAttribute('class','edge');
    }
  }
}
]]></script>
        <defs>
                <circle id="rim" cx="0" cy="0" r="7"/>
                <circle id="rim2" cx="0" cy="0" r="3.5"/>
                <g id="zoomPlus">
                        <use xlink:href="#rim" fill="#404040">
                                <set attributeName="fill" to="#808080" begin="zoomplus.mouseover" end="zoomplus.mouseout"/>
                        </use>
                        <path d="M-4,0h8M0,-4v8" fill="none" stroke="white" stroke-width="1.5" pointer-events="none"/>
                </g>
                <g id="zoomMin">
                        <use xlink:href="#rim" fill="#404040">
                                <set attributeName="fill" to="#808080" begin="zoomminus.mouseover" end="zoomminus.mouseout"/>
                        </use>
                        <path d="M-4,0h8" fill="none" stroke="white" stroke-width="1.5" pointer-events="none"/>
                </g>
                <g id="dirArrow">
                        <path fill="none" stroke="white" stroke-width="1.5" d="M0,-3.0v7 M-2.5,-0.5L0,-3.0L2.5,-0.5"/>
                </g>
               <g id="resetDef">
                       <use xlink:href="#rim2" fill="#404040">
                               <set attributeName="fill" to="#808080" begin="reset.mouseover" end="reset.mouseout"/>
                       </use>
               </g>
        </defs>

<script type="text/javascript">
var viewWidth = 586;
var viewHeight = 224;
var sectionId = 'dynsection-19';
</script>
<script xlink:href="svgpan.js"/>
<svg id="graph" class="graph">
<g id="viewport">
<title>module_sf_noahlsm::shflx</title>
<polygon fill="white" stroke="white" points="-4,5 -4,-220 583,-220 583,5 -4,5"/>
<!-- Node1 -->
<g id="node1" class="node"><title>Node1</title>
<polygon fill="#bfbfbf" stroke="black" points="0,-62 0,-92 110,-92 110,-62 0,-62"/>
<text text-anchor="start" x="8" y="-80" font-family="Helvetica,sans-Serif" font-size="10.00">module_sf_noahlsm::</text>
<text text-anchor="middle" x="55" y="-69" font-family="Helvetica,sans-Serif" font-size="10.00">shflx</text>
</g>
<!-- Node2 -->
<g id="node2" class="node"><title>Node2</title>
<g id="a_node2"><a xlink:href="classmodule__sf__noahlsm.html#a3d4ab86e98738d55bb24f5f2256bc036" target="_top" xlink:title="module_sf_noahlsm::hrt">
<polygon fill="white" stroke="black" points="146.5,-103.5 146.5,-122.5 267.5,-122.5 267.5,-103.5 146.5,-103.5"/>
<text text-anchor="middle" x="207" y="-110.5" font-family="Helvetica,sans-Serif" font-size="10.00">module_sf_noahlsm::hrt</text>
</a>
</g>
</g>
<!-- Node1&#45;&gt;Node2 -->
<g id="edge1" class="edge"><title>Node1&#45;&gt;Node2</title>
<path fill="none" stroke="midnightblue" d="M110.153,-89.9968C125.154,-93.5969 141.362,-97.487 156.108,-101.026"/>
<polygon fill="midnightblue" stroke="midnightblue" points="155.508,-104.481 166.049,-103.412 157.142,-97.6746 155.508,-104.481"/>
</g>
<!-- Node8 -->
<g id="node8" class="node"><title>Node8</title>
<g id="a_node8"><a xlink:href="classmodule__sf__noahlsm.html#adacf01be4e33445ea186feffce24eb35" target="_top" xlink:title="module_sf_noahlsm::\lhstep">
<polygon fill="white" stroke="black" points="152,-27 152,-57 262,-57 262,-27 152,-27"/>
<text text-anchor="start" x="160" y="-45" font-family="Helvetica,sans-Serif" font-size="10.00">module_sf_noahlsm::</text>
<text text-anchor="middle" x="207" y="-34" font-family="Helvetica,sans-Serif" font-size="10.00">hstep</text>
</a>
</g>
</g>
<!-- Node1&#45;&gt;Node8 -->
<g id="edge7" class="edge"><title>Node1&#45;&gt;Node8</title>
<path fill="none" stroke="midnightblue" d="M110.153,-64.3642C120.456,-61.9604 131.328,-59.4235 141.904,-56.9556"/>
<polygon fill="midnightblue" stroke="midnightblue" points="142.983,-60.2981 151.926,-54.6173 141.392,-53.4812 142.983,-60.2981"/>
</g>
<!-- Node3 -->
<g id="node3" class="node"><title>Node3</title>
<g id="a_node3"><a xlink:href="classmodule__sf__noahlsm.html#a578d0dc05848d5bc7fb823e379da5cdd" target="_top" xlink:title="module_sf_noahlsm::tbnd">
<polygon fill="white" stroke="black" points="304,-196.5 304,-215.5 432,-215.5 432,-196.5 304,-196.5"/>
<text text-anchor="middle" x="368" y="-203.5" font-family="Helvetica,sans-Serif" font-size="10.00">module_sf_noahlsm::tbnd</text>
</a>
</g>
</g>
<!-- Node2&#45;&gt;Node3 -->
<g id="edge2" class="edge"><title>Node2&#45;&gt;Node3</title>
<path fill="none" stroke="midnightblue" d="M218.123,-122.613C234.796,-137.979 269.62,-168.155 304,-186 308.965,-188.577 314.324,-190.898 319.746,-192.967"/>
<polygon fill="midnightblue" stroke="midnightblue" points="318.909,-196.383 329.504,-196.419 321.244,-189.784 318.909,-196.383"/>
</g>
<!-- Node4 -->
<g id="node4" class="node"><title>Node4</title>
<g id="a_node4"><a xlink:href="classmodule__sf__noahlsm.html#ab786b4f52dbea2106470993f2ea20e69" target="_top" xlink:title="module_sf_noahlsm::\ltmpavg">
<polygon fill="white" stroke="black" points="313,-147 313,-177 423,-177 423,-147 313,-147"/>
<text text-anchor="start" x="321" y="-165" font-family="Helvetica,sans-Serif" font-size="10.00">module_sf_noahlsm::</text>
<text text-anchor="middle" x="368" y="-154" font-family="Helvetica,sans-Serif" font-size="10.00">tmpavg</text>
</a>
</g>
</g>
<!-- Node2&#45;&gt;Node4 -->
<g id="edge3" class="edge"><title>Node2&#45;&gt;Node4</title>
<path fill="none" stroke="midnightblue" d="M239.034,-122.564C258.813,-128.659 285.063,-136.749 308.638,-144.014"/>
<polygon fill="midnightblue" stroke="midnightblue" points="307.619,-147.363 318.207,-146.963 309.681,-140.673 307.619,-147.363"/>
</g>
<!-- Node5 -->
<g id="node5" class="node"><title>Node5</title>
<g id="a_node5"><a xlink:href="classmodule__sf__noahlsm.html#a5d089c57c48085d25b95857c682922da" target="_top" xlink:title="module_sf_noahlsm::\lsnksrc">
<polygon fill="white" stroke="black" points="313,-98 313,-128 423,-128 423,-98 313,-98"/>
<text text-anchor="start" x="321" y="-116" font-family="Helvetica,sans-Serif" font-size="10.00">module_sf_noahlsm::</text>
<text text-anchor="middle" x="368" y="-105" font-family="Helvetica,sans-Serif" font-size="10.00">snksrc</text>
</a>
</g>
</g>
<!-- Node2&#45;&gt;Node5 -->
<g id="edge4" class="edge"><title>Node2&#45;&gt;Node5</title>
<path fill="none" stroke="midnightblue" d="M267.658,-113C279.108,-113 291.145,-113 302.733,-113"/>
<polygon fill="midnightblue" stroke="midnightblue" points="302.775,-116.5 312.775,-113 302.774,-109.5 302.775,-116.5"/>
</g>
<!-- Node7 -->
<g id="node7" class="node"><title>Node7</title>
<g id="a_node7"><a xlink:href="classmodule__sf__noahlsm.html#aac4dfa006a09d48e949536f4dc217bbf" target="_top" xlink:title="module_sf_noahlsm::\ltdfcnd">
<polygon fill="white" stroke="black" points="313,-49 313,-79 423,-79 423,-49 313,-49"/>
<text text-anchor="start" x="321" y="-67" font-family="Helvetica,sans-Serif" font-size="10.00">module_sf_noahlsm::</text>
<text text-anchor="middle" x="368" y="-56" font-family="Helvetica,sans-Serif" font-size="10.00">tdfcnd</text>
</a>
</g>
</g>
<!-- Node2&#45;&gt;Node7 -->
<g id="edge6" class="edge"><title>Node2&#45;&gt;Node7</title>
<path fill="none" stroke="midnightblue" d="M239.034,-103.436C258.813,-97.3408 285.063,-89.2512 308.638,-81.9857"/>
<polygon fill="midnightblue" stroke="midnightblue" points="309.681,-85.3269 318.207,-79.037 307.619,-78.6373 309.681,-85.3269"/>
</g>
<!-- Node6 -->
<g id="node6" class="node"><title>Node6</title>
<g id="a_node6"><a xlink:href="classmodule__sf__noahlsm.html#a5beb42f74e1a357ccfc0e904f356b33a" target="_top" xlink:title="module_sf_noahlsm::\lfrh2o">
<polygon fill="white" stroke="black" points="468,-98 468,-128 578,-128 578,-98 468,-98"/>
<text text-anchor="start" x="476" y="-116" font-family="Helvetica,sans-Serif" font-size="10.00">module_sf_noahlsm::</text>
<text text-anchor="middle" x="523" y="-105" font-family="Helvetica,sans-Serif" font-size="10.00">frh2o</text>
</a>
</g>
</g>
<!-- Node5&#45;&gt;Node6 -->
<g id="edge5" class="edge"><title>Node5&#45;&gt;Node6</title>
<path fill="none" stroke="midnightblue" d="M423.373,-113C434.421,-113 446.142,-113 457.502,-113"/>
<polygon fill="midnightblue" stroke="midnightblue" points="457.802,-116.5 467.802,-113 457.802,-109.5 457.802,-116.5"/>
</g>
<!-- Node9 -->
<g id="node9" class="node"><title>Node9</title>
<g id="a_node9"><a xlink:href="classmodule__sf__noahlsm.html#ac6e3e7bb3f0322070546653306177216" target="_top" xlink:title="module_sf_noahlsm::\lrosr12">
<polygon fill="white" stroke="black" points="313,-0 313,-30 423,-30 423,-0 313,-0"/>
<text text-anchor="start" x="321" y="-18" font-family="Helvetica,sans-Serif" font-size="10.00">module_sf_noahlsm::</text>
<text text-anchor="middle" x="368" y="-7" font-family="Helvetica,sans-Serif" font-size="10.00">rosr12</text>
</a>
</g>
</g>
<!-- Node8&#45;&gt;Node9 -->
<g id="edge8" class="edge"><title>Node8&#45;&gt;Node9</title>
<path fill="none" stroke="midnightblue" d="M262.274,-32.7836C275.322,-30.568 289.38,-28.1807 302.831,-25.8967"/>
<polygon fill="midnightblue" stroke="midnightblue" points="303.698,-29.2996 312.971,-24.1748 302.526,-22.3984 303.698,-29.2996"/>
</g>
</g>
</svg>
        <g id="navigator" transform="translate(0 0)" fill="#404254">
                <rect fill="#f2f5e9" fill-opacity="0.5" stroke="#606060" stroke-width=".5" x="0" y="0" width="60" height="60"/>
                <use id="zoomplus" xlink:href="#zoomPlus" x="17" y="9" onmousedown="handleZoom(evt,'in')"/>
                <use id="zoomminus" xlink:href="#zoomMin" x="42" y="9" onmousedown="handleZoom(evt,'out')"/>
                <use id="reset" xlink:href="#resetDef" x="30" y="36" onmousedown="handleReset()"/>
                <g id="arrowUp" xlink:href="#dirArrow" transform="translate(30 24)" onmousedown="handlePan(0,-1)">
                  <use xlink:href="#rim" fill="#404040">
                        <set attributeName="fill" to="#808080" begin="arrowUp.mouseover" end="arrowUp.mouseout"/>
                  </use>
                  <path fill="none" stroke="white" stroke-width="1.5" d="M0,-3.0v7 M-2.5,-0.5L0,-3.0L2.5,-0.5"/>
                </g>
                <g id="arrowRight" xlink:href="#dirArrow" transform="rotate(90) translate(36 -43)" onmousedown="handlePan(1,0)">
                  <use xlink:href="#rim" fill="#404040">
                        <set attributeName="fill" to="#808080" begin="arrowRight.mouseover" end="arrowRight.mouseout"/>
                  </use>
                  <path fill="none" stroke="white" stroke-width="1.5" d="M0,-3.0v7 M-2.5,-0.5L0,-3.0L2.5,-0.5"/>
                </g>
                <g id="arrowDown" xlink:href="#dirArrow" transform="rotate(180) translate(-30 -48)" onmousedown="handlePan(0,1)">
                  <use xlink:href="#rim" fill="#404040">
                        <set attributeName="fill" to="#808080" begin="arrowDown.mouseover" end="arrowDown.mouseout"/>
                  </use>
                  <path fill="none" stroke="white" stroke-width="1.5" d="M0,-3.0v7 M-2.5,-0.5L0,-3.0L2.5,-0.5"/>
                </g>
                <g id="arrowLeft" xlink:href="#dirArrow" transform="rotate(270) translate(-36 17)" onmousedown="handlePan(-1,0)">
                  <use xlink:href="#rim" fill="#404040">
                        <set attributeName="fill" to="#808080" begin="arrowLeft.mouseover" end="arrowLeft.mouseout"/>
                  </use>
                  <path fill="none" stroke="white" stroke-width="1.5" d="M0,-3.0v7 M-2.5,-0.5L0,-3.0L2.5,-0.5"/>
                </g>
        </g>
        <svg viewBox="0 0 15 15" width="100%" height="30px" preserveAspectRatio="xMaxYMin meet">
         <g id="arrow_out" transform="scale(0.3 0.3)">
          <a xlink:href="classmodule__sf__noahlsm_ac5c49267c44f18dfd5359b29fdfed38e_cgraph_org.svg" target="_base">
           <rect id="button" ry="5" rx="5" y="6" x="6" height="38" width="38"
                fill="#f2f5e9" fill-opacity="0.5" stroke="#606060" stroke-width="1.0"/>
           <path id="arrow"
             d="M 11.500037,31.436501 C 11.940474,20.09759 22.043105,11.32322 32.158766,21.979434 L 37.068811,17.246167 C 37.068811,17.246167 37.088388,32 37.088388,32 L 22.160133,31.978069 C 22.160133,31.978069 26.997745,27.140456 26.997745,27.140456 C 18.528582,18.264221 13.291696,25.230495 11.500037,31.436501 z"
             style="fill:#404040;"/>
          </a>
         </g>
        </svg>
</svg>
