<?xml version="1.0" encoding="UTF-8" standalone="no"?>
<!DOCTYPE svg PUBLIC "-//W3C//DTD SVG 1.1//EN"
 "http://www.w3.org/Graphics/SVG/1.1/DTD/svg11.dtd">
<!-- Generated by graphviz version 2.32.0 (20130809.1645)
 -->
<!-- Title: adv_mpdata::flux_limiter Pages: 1 -->
<svg width="746pt" height="66pt"
 viewBox="0.00 0.00 746.00 66.00" xmlns="http://www.w3.org/2000/svg" xmlns:xlink="http://www.w3.org/1999/xlink">
<g id="graph0" class="graph" transform="scale(1 1) rotate(0) translate(4 62)">
<title>adv_mpdata::flux_limiter</title>
<polygon fill="white" stroke="white" points="-4,5 -4,-62 743,-62 743,5 -4,5"/>
<!-- Node1 -->
<g id="node1" class="node"><title>Node1</title>
<polygon fill="#bfbfbf" stroke="black" points="0.5,-19.5 0.5,-38.5 123.5,-38.5 123.5,-19.5 0.5,-19.5"/>
<text text-anchor="middle" x="62" y="-26.5" font-family="Helvetica,sans-Serif" font-size="10.00">adv_mpdata::flux_limiter</text>
</g>
<!-- Node2 -->
<g id="node2" class="node"><title>Node2</title>
<g id="a_node2"><a xlink:href="classadv__mpdata.html#a3f8f14aa56b629a78a5935b1a130e4c2" target="_top" xlink:title="adv_mpdata::advect3d">
<polygon fill="white" stroke="black" points="160,-19.5 160,-38.5 276,-38.5 276,-19.5 160,-19.5"/>
<text text-anchor="middle" x="218" y="-26.5" font-family="Helvetica,sans-Serif" font-size="10.00">adv_mpdata::advect3d</text>
</a>
</g>
</g>
<!-- Node1&#45;&gt;Node2 -->
<g id="edge1" class="edge"><title>Node1&#45;&gt;Node2</title>
<path fill="none" stroke="midnightblue" d="M133.895,-29C142.501,-29 151.21,-29 159.588,-29"/>
<polygon fill="midnightblue" stroke="midnightblue" points="133.865,-25.5001 123.865,-29 133.865,-32.5001 133.865,-25.5001"/>
</g>
<!-- Node3 -->
<g id="node3" class="node"><title>Node3</title>
<g id="a_node3"><a xlink:href="classadv__mpdata.html#ab7491af9ff38f8d903ae2d4ddabc410d" target="_top" xlink:title="adv_mpdata::mpdata">
<polygon fill="white" stroke="black" points="312,-38.5 312,-57.5 420,-57.5 420,-38.5 312,-38.5"/>
<text text-anchor="middle" x="366" y="-45.5" font-family="Helvetica,sans-Serif" font-size="10.00">adv_mpdata::mpdata</text>
</a>
</g>
</g>
<!-- Node2&#45;&gt;Node3 -->
<g id="edge2" class="edge"><title>Node2&#45;&gt;Node3</title>
<path fill="none" stroke="midnightblue" d="M286.23,-37.7492C294.769,-38.8603 303.413,-39.9852 311.692,-41.0626"/>
<polygon fill="midnightblue" stroke="midnightblue" points="286.652,-34.2746 276.284,-36.4548 285.749,-41.2161 286.652,-34.2746"/>
</g>
<!-- Node7 -->
<g id="node7" class="node"><title>Node7</title>
<g id="a_node7"><a xlink:href="classadv__upwind.html#a3a006d2b2d9ebc4dbd83152ff5a0f35b" target="_top" xlink:title="adv_upwind::upwind">
<polygon fill="white" stroke="black" points="313.5,-0.5 313.5,-19.5 418.5,-19.5 418.5,-0.5 313.5,-0.5"/>
<text text-anchor="middle" x="366" y="-7.5" font-family="Helvetica,sans-Serif" font-size="10.00">adv_upwind::upwind</text>
</a>
</g>
</g>
<!-- Node2&#45;&gt;Node7 -->
<g id="edge6" class="edge"><title>Node2&#45;&gt;Node7</title>
<path fill="none" stroke="midnightblue" d="M286.352,-20.235C295.339,-19.0654 304.441,-17.881 313.108,-16.753"/>
<polygon fill="midnightblue" stroke="midnightblue" points="285.749,-16.7839 276.284,-21.5452 286.652,-23.7254 285.749,-16.7839"/>
</g>
<!-- Node4 -->
<g id="node4" class="node"><title>Node4</title>
<g id="a_node4"><a xlink:href="classadvection.html#a27abbf643ae159c75c9c0c68b7627f31" target="_top" xlink:title="advection::advect">
<polygon fill="white" stroke="black" points="456,-19.5 456,-38.5 550,-38.5 550,-19.5 456,-19.5"/>
<text text-anchor="middle" x="503" y="-26.5" font-family="Helvetica,sans-Serif" font-size="10.00">advection::advect</text>
</a>
</g>
</g>
<!-- Node3&#45;&gt;Node4 -->
<g id="edge3" class="edge"><title>Node3&#45;&gt;Node4</title>
<path fill="none" stroke="midnightblue" d="M430.288,-39.0929C438.811,-37.8932 447.425,-36.6809 455.582,-35.5329"/>
<polygon fill="midnightblue" stroke="midnightblue" points="429.77,-35.6311 420.356,-40.4907 430.746,-42.5628 429.77,-35.6311"/>
</g>
<!-- Node5 -->
<g id="node5" class="node"><title>Node5</title>
<g id="a_node5"><a xlink:href="classtime__step.html#a2c022f11247af72e607b1493289aa974" target="_top" xlink:title=" Step forward one IO time step. ">
<polygon fill="white" stroke="black" points="586,-19.5 586,-38.5 670,-38.5 670,-19.5 586,-19.5"/>
<text text-anchor="middle" x="628" y="-26.5" font-family="Helvetica,sans-Serif" font-size="10.00">time_step::step</text>
</a>
</g>
</g>
<!-- Node4&#45;&gt;Node5 -->
<g id="edge4" class="edge"><title>Node4&#45;&gt;Node5</title>
<path fill="none" stroke="midnightblue" d="M560.191,-29C568.834,-29 577.618,-29 585.853,-29"/>
<polygon fill="midnightblue" stroke="midnightblue" points="560.151,-25.5001 550.151,-29 560.151,-32.5001 560.151,-25.5001"/>
</g>
<!-- Node6 -->
<g id="node6" class="node"><title>Node6</title>
<g id="a_node6"><a xlink:href="driver_8f90.html#ab1e5a5816a57fc6e95d9563c2bb53590" target="_top" xlink:title=" Main Program ">
<polygon fill="white" stroke="black" points="706,-19.5 706,-38.5 738,-38.5 738,-19.5 706,-19.5"/>
<text text-anchor="middle" x="722" y="-26.5" font-family="Helvetica,sans-Serif" font-size="10.00">icar</text>
</a>
</g>
</g>
<!-- Node5&#45;&gt;Node6 -->
<g id="edge5" class="edge"><title>Node5&#45;&gt;Node6</title>
<path fill="none" stroke="midnightblue" d="M680.253,-29C689.521,-29 698.5,-29 705.66,-29"/>
<polygon fill="midnightblue" stroke="midnightblue" points="680.156,-25.5001 670.156,-29 680.156,-32.5001 680.156,-25.5001"/>
</g>
<!-- Node7&#45;&gt;Node4 -->
<g id="edge7" class="edge"><title>Node7&#45;&gt;Node4</title>
<path fill="none" stroke="midnightblue" d="M428.939,-18.7173C437.993,-19.9917 447.182,-21.2849 455.847,-22.5045"/>
<polygon fill="midnightblue" stroke="midnightblue" points="429.199,-15.2195 418.808,-17.2916 428.223,-22.1512 429.199,-15.2195"/>
</g>
</g>
</svg>
