<?xml version="1.0" encoding="UTF-8" standalone="no"?>
<!DOCTYPE svg PUBLIC "-//W3C//DTD SVG 1.1//EN"
 "http://www.w3.org/Graphics/SVG/1.1/DTD/svg11.dtd">
<!-- Generated by graphviz version 2.38.0 (20140413.2041)
 -->
<!-- Title: module_mp_simple::mp_simple Pages: 1 -->
<svg width="602pt" height="39pt"
 viewBox="0.00 0.00 602.00 39.00" xmlns="http://www.w3.org/2000/svg" xmlns:xlink="http://www.w3.org/1999/xlink">
<g id="graph0" class="graph" transform="scale(1 1) rotate(0) translate(4 35)">
<title>module_mp_simple::mp_simple</title>
<polygon fill="white" stroke="none" points="-4,4 -4,-35 598,-35 598,4 -4,4"/>
<!-- Node1 -->
<g id="node1" class="node"><title>Node1</title>
<polygon fill="#bfbfbf" stroke="black" points="0,-0.5 0,-30.5 120,-30.5 120,-0.5 0,-0.5"/>
<text text-anchor="start" x="8" y="-18.5" font-family="Helvetica,sans-Serif" font-size="10.00">module_mp_simple::mp</text>
<text text-anchor="middle" x="60" y="-7.5" font-family="Helvetica,sans-Serif" font-size="10.00">_simple</text>
</g>
<!-- Node2 -->
<g id="node2" class="node"><title>Node2</title>
<g id="a_node2"><a xlink:href="classmodule__mp__simple.html#a3b5b540d9d511651c42ec6b3ba842796" target="_top" xlink:title=" Driver code to control simple microphysics ">
<polygon fill="white" stroke="black" points="156,-0.5 156,-30.5 276,-30.5 276,-0.5 156,-0.5"/>
<text text-anchor="start" x="164" y="-18.5" font-family="Helvetica,sans-Serif" font-size="10.00">module_mp_simple::mp</text>
<text text-anchor="middle" x="216" y="-7.5" font-family="Helvetica,sans-Serif" font-size="10.00">_simple_driver</text>
</a>
</g>
</g>
<!-- Node1&#45;&gt;Node2 -->
<g id="edge1" class="edge"><title>Node1&#45;&gt;Node2</title>
<path fill="none" stroke="midnightblue" d="M130.369,-15.5C138.862,-15.5 147.48,-15.5 155.804,-15.5"/>
<polygon fill="midnightblue" stroke="midnightblue" points="130.1,-12.0001 120.1,-15.5 130.1,-19.0001 130.1,-12.0001"/>
</g>
<!-- Node3 -->
<g id="node3" class="node"><title>Node3</title>
<g id="a_node3"><a xlink:href="classmicrophysics.html#ad2296bf9e02061a692cb9bebb6abcf7d" target="_top" xlink:title=" Microphysical driver ">
<polygon fill="white" stroke="black" points="312,-6 312,-25 406,-25 406,-6 312,-6"/>
<text text-anchor="middle" x="359" y="-13" font-family="Helvetica,sans-Serif" font-size="10.00">microphysics::mp</text>
</a>
</g>
</g>
<!-- Node2&#45;&gt;Node3 -->
<g id="edge2" class="edge"><title>Node2&#45;&gt;Node3</title>
<path fill="none" stroke="midnightblue" d="M286.493,-15.5C295.135,-15.5 303.798,-15.5 311.961,-15.5"/>
<polygon fill="midnightblue" stroke="midnightblue" points="286.388,-12.0001 276.388,-15.5 286.388,-19.0001 286.388,-12.0001"/>
</g>
<!-- Node4 -->
<g id="node4" class="node"><title>Node4</title>
<g id="a_node4"><a xlink:href="classtime__step.html#a2c022f11247af72e607b1493289aa974" target="_top" xlink:title=" Step forward one IO time step. ">
<polygon fill="white" stroke="black" points="442,-6 442,-25 526,-25 526,-6 442,-6"/>
<text text-anchor="middle" x="484" y="-13" font-family="Helvetica,sans-Serif" font-size="10.00">time_step::step</text>
</a>
</g>
</g>
<!-- Node3&#45;&gt;Node4 -->
<g id="edge3" class="edge"><title>Node3&#45;&gt;Node4</title>
<path fill="none" stroke="midnightblue" d="M416.191,-15.5C424.834,-15.5 433.618,-15.5 441.853,-15.5"/>
<polygon fill="midnightblue" stroke="midnightblue" points="416.151,-12.0001 406.151,-15.5 416.151,-19.0001 416.151,-12.0001"/>
</g>
<!-- Node5 -->
<g id="node5" class="node"><title>Node5</title>
<g id="a_node5"><a xlink:href="driver_8f90.html#ab1e5a5816a57fc6e95d9563c2bb53590" target="_top" xlink:title=" Main Program ">
<polygon fill="white" stroke="black" points="562,-6 562,-25 594,-25 594,-6 562,-6"/>
<text text-anchor="middle" x="578" y="-13" font-family="Helvetica,sans-Serif" font-size="10.00">icar</text>
</a>
</g>
</g>
<!-- Node4&#45;&gt;Node5 -->
<g id="edge4" class="edge"><title>Node4&#45;&gt;Node5</title>
<path fill="none" stroke="midnightblue" d="M536.253,-15.5C545.521,-15.5 554.5,-15.5 561.66,-15.5"/>
<polygon fill="midnightblue" stroke="midnightblue" points="536.156,-12.0001 526.156,-15.5 536.156,-19.0001 536.156,-12.0001"/>
</g>
</g>
</svg>
