<?xml version="1.0" encoding="UTF-8" standalone="no"?>
<!DOCTYPE svg PUBLIC "-//W3C//DTD SVG 1.1//EN"
 "http://www.w3.org/Graphics/SVG/1.1/DTD/svg11.dtd">
<!-- Generated by graphviz version 2.38.0 (20140413.2041)
 -->
<!-- Title: io_routines::io_newunit Pages: 1 -->
<svg width="767pt" height="531pt"
 viewBox="0.00 0.00 767.00 531.00" xmlns="http://www.w3.org/2000/svg" xmlns:xlink="http://www.w3.org/1999/xlink">
<g id="graph0" class="graph" transform="scale(1 1) rotate(0) translate(4 527)">
<title>io_routines::io_newunit</title>
<polygon fill="white" stroke="none" points="-4,4 -4,-527 763,-527 763,4 -4,4"/>
<!-- Node1 -->
<g id="node1" class="node"><title>Node1</title>
<polygon fill="#bfbfbf" stroke="black" points="0,-263 0,-282 116,-282 116,-263 0,-263"/>
<text text-anchor="middle" x="58" y="-270" font-family="Helvetica,sans-Serif" font-size="10.00">io_routines::io_newunit</text>
</g>
<!-- Node2 -->
<g id="node2" class="node"><title>Node2</title>
<g id="a_node2"><a xlink:href="classinitialize__options.html#a7161e810e27d3c830e135c3811ae290b" target="_top" xlink:title="initialize_options\l::version_check">
<polygon fill="white" stroke="black" points="171.5,-399.5 171.5,-429.5 260.5,-429.5 260.5,-399.5 171.5,-399.5"/>
<text text-anchor="start" x="179.5" y="-417.5" font-family="Helvetica,sans-Serif" font-size="10.00">initialize_options</text>
<text text-anchor="middle" x="216" y="-406.5" font-family="Helvetica,sans-Serif" font-size="10.00">::version_check</text>
</a>
</g>
</g>
<!-- Node1&#45;&gt;Node2 -->
<g id="edge1" class="edge"><title>Node1&#45;&gt;Node2</title>
<path fill="none" stroke="midnightblue" d="M70.3702,-290.606C86.2113,-314.648 116.954,-357.238 152,-384.5 159.363,-390.227 167.996,-395.223 176.469,-399.41"/>
<polygon fill="midnightblue" stroke="midnightblue" points="73.2381,-288.596 64.8743,-282.092 67.3569,-292.392 73.2381,-288.596"/>
</g>
<!-- Node6 -->
<g id="node6" class="node"><title>Node6</title>
<g id="a_node6"><a xlink:href="classinitialize__options.html#acc4c031c2e7521b9eb81f779a67acb3b" target="_top" xlink:title="initialize_options\l::mp_parameters_namelist">
<polygon fill="white" stroke="black" points="317,-492.5 317,-522.5 449,-522.5 449,-492.5 317,-492.5"/>
<text text-anchor="start" x="325" y="-510.5" font-family="Helvetica,sans-Serif" font-size="10.00">initialize_options</text>
<text text-anchor="middle" x="383" y="-499.5" font-family="Helvetica,sans-Serif" font-size="10.00">::mp_parameters_namelist</text>
</a>
</g>
</g>
<!-- Node1&#45;&gt;Node6 -->
<g id="edge21" class="edge"><title>Node1&#45;&gt;Node6</title>
<path fill="none" stroke="midnightblue" d="M62.2672,-292.229C70.0064,-332.272 93.4005,-423.046 152,-467.5 199.063,-503.202 267.089,-511.217 316.954,-511.499"/>
<polygon fill="midnightblue" stroke="midnightblue" points="65.6692,-291.372 60.4485,-282.153 58.7805,-292.615 65.6692,-291.372"/>
</g>
<!-- Node7 -->
<g id="node7" class="node"><title>Node7</title>
<g id="a_node7"><a xlink:href="classinitialize__options.html#acf012270ed53d51ad745344175d1d8ae" target="_top" xlink:title="initialize_options\l::lt_parameters_namelist">
<polygon fill="white" stroke="black" points="321,-443.5 321,-473.5 445,-473.5 445,-443.5 321,-443.5"/>
<text text-anchor="start" x="329" y="-461.5" font-family="Helvetica,sans-Serif" font-size="10.00">initialize_options</text>
<text text-anchor="middle" x="383" y="-450.5" font-family="Helvetica,sans-Serif" font-size="10.00">::lt_parameters_namelist</text>
</a>
</g>
</g>
<!-- Node1&#45;&gt;Node7 -->
<g id="edge22" class="edge"><title>Node1&#45;&gt;Node7</title>
<path fill="none" stroke="midnightblue" d="M63.5227,-291.916C73.014,-327.821 98.6852,-404.068 152,-438.5 202,-470.791 271.385,-472.349 320.841,-467.964"/>
<polygon fill="midnightblue" stroke="midnightblue" points="66.9044,-291.011 61.0838,-282.159 60.1134,-292.709 66.9044,-291.011"/>
</g>
<!-- Node8 -->
<g id="node8" class="node"><title>Node8</title>
<g id="a_node8"><a xlink:href="classinitialize__options.html#a502d4a0df0fedb55f73b9afb2e130107" target="_top" xlink:title="initialize_options\l::adv_parameters_namelist">
<polygon fill="white" stroke="black" points="316,-355.5 316,-385.5 450,-385.5 450,-355.5 316,-355.5"/>
<text text-anchor="start" x="324" y="-373.5" font-family="Helvetica,sans-Serif" font-size="10.00">initialize_options</text>
<text text-anchor="middle" x="383" y="-362.5" font-family="Helvetica,sans-Serif" font-size="10.00">::adv_parameters_namelist</text>
</a>
</g>
</g>
<!-- Node1&#45;&gt;Node8 -->
<g id="edge23" class="edge"><title>Node1&#45;&gt;Node8</title>
<path fill="none" stroke="midnightblue" d="M87.6139,-286.65C105.75,-295.232 129.88,-305.946 152,-313.5 206.211,-332.013 269.498,-347.251 315.948,-357.299"/>
<polygon fill="midnightblue" stroke="midnightblue" points="88.7355,-283.306 78.2055,-282.136 85.7072,-289.617 88.7355,-283.306"/>
</g>
<!-- Node9 -->
<g id="node9" class="node"><title>Node9</title>
<g id="a_node9"><a xlink:href="classinitialize__options.html#a71b56485a92a10478bb1179e3294c013" target="_top" xlink:title="initialize_options\l::lsm_parameters_namelist">
<polygon fill="white" stroke="black" points="316,-306.5 316,-336.5 450,-336.5 450,-306.5 316,-306.5"/>
<text text-anchor="start" x="324" y="-324.5" font-family="Helvetica,sans-Serif" font-size="10.00">initialize_options</text>
<text text-anchor="middle" x="383" y="-313.5" font-family="Helvetica,sans-Serif" font-size="10.00">::lsm_parameters_namelist</text>
</a>
</g>
</g>
<!-- Node1&#45;&gt;Node9 -->
<g id="edge24" class="edge"><title>Node1&#45;&gt;Node9</title>
<path fill="none" stroke="midnightblue" d="M119.047,-283.863C129.997,-285.825 141.33,-287.783 152,-289.5 207.128,-298.369 269.926,-307.008 315.959,-313.07"/>
<polygon fill="midnightblue" stroke="midnightblue" points="119.592,-280.405 109.129,-282.067 118.345,-287.293 119.592,-280.405"/>
</g>
<!-- Node10 -->
<g id="node10" class="node"><title>Node10</title>
<g id="a_node10"><a xlink:href="classinitialize__options.html#aa5c0f26f48774390be64bb2fc8243db6" target="_top" xlink:title="initialize_options\l::init_restart_options">
<polygon fill="white" stroke="black" points="330.5,-257.5 330.5,-287.5 435.5,-287.5 435.5,-257.5 330.5,-257.5"/>
<text text-anchor="start" x="338.5" y="-275.5" font-family="Helvetica,sans-Serif" font-size="10.00">initialize_options</text>
<text text-anchor="middle" x="383" y="-264.5" font-family="Helvetica,sans-Serif" font-size="10.00">::init_restart_options</text>
</a>
</g>
</g>
<!-- Node1&#45;&gt;Node10 -->
<g id="edge13" class="edge"><title>Node1&#45;&gt;Node10</title>
<path fill="none" stroke="midnightblue" d="M126.176,-274.116C134.864,-274.275 143.643,-274.41 152,-274.5 208.886,-275.112 223.114,-275.058 280,-274.5 296.383,-274.339 314.243,-274.034 330.375,-273.709"/>
<polygon fill="midnightblue" stroke="midnightblue" points="126.115,-270.615 116.049,-273.921 125.98,-277.613 126.115,-270.615"/>
</g>
<!-- Node11 -->
<g id="node11" class="node"><title>Node11</title>
<g id="a_node11"><a xlink:href="classinitialize__options.html#ad6b38b82a6d2ce60e8a7985fa0af9f5c" target="_top" xlink:title="initialize_options\l::physics_namelist">
<polygon fill="white" stroke="black" points="167,-235.5 167,-265.5 265,-265.5 265,-235.5 167,-235.5"/>
<text text-anchor="start" x="175" y="-253.5" font-family="Helvetica,sans-Serif" font-size="10.00">initialize_options</text>
<text text-anchor="middle" x="216" y="-242.5" font-family="Helvetica,sans-Serif" font-size="10.00">::physics_namelist</text>
</a>
</g>
</g>
<!-- Node1&#45;&gt;Node11 -->
<g id="edge15" class="edge"><title>Node1&#45;&gt;Node11</title>
<path fill="none" stroke="midnightblue" d="M126.464,-262.986C140.029,-261.073 154.028,-259.099 166.777,-257.301"/>
<polygon fill="midnightblue" stroke="midnightblue" points="125.616,-259.571 116.203,-264.433 126.594,-266.502 125.616,-259.571"/>
</g>
<!-- Node12 -->
<g id="node12" class="node"><title>Node12</title>
<g id="a_node12"><a xlink:href="classinitialize__options.html#a141165ac65b43c1947dbaa1a5acb70ae" target="_top" xlink:title="initialize_options\l::var_namelist">
<polygon fill="white" stroke="black" points="171.5,-186.5 171.5,-216.5 260.5,-216.5 260.5,-186.5 171.5,-186.5"/>
<text text-anchor="start" x="179.5" y="-204.5" font-family="Helvetica,sans-Serif" font-size="10.00">initialize_options</text>
<text text-anchor="middle" x="216" y="-193.5" font-family="Helvetica,sans-Serif" font-size="10.00">::var_namelist</text>
</a>
</g>
</g>
<!-- Node1&#45;&gt;Node12 -->
<g id="edge17" class="edge"><title>Node1&#45;&gt;Node12</title>
<path fill="none" stroke="midnightblue" d="M85.5251,-258.168C103.94,-248.448 129.172,-235.584 152,-225.5 158.959,-222.426 166.446,-219.366 173.743,-216.51"/>
<polygon fill="midnightblue" stroke="midnightblue" points="83.751,-255.147 76.5652,-262.933 87.0378,-261.328 83.751,-255.147"/>
</g>
<!-- Node13 -->
<g id="node13" class="node"><title>Node13</title>
<g id="a_node13"><a xlink:href="classinitialize__options.html#ab0058e1f8dbc07d787cc0705c5d9366a" target="_top" xlink:title="initialize_options\l::parameters_namelist">
<polygon fill="white" stroke="black" points="159.5,-137.5 159.5,-167.5 272.5,-167.5 272.5,-137.5 159.5,-137.5"/>
<text text-anchor="start" x="167.5" y="-155.5" font-family="Helvetica,sans-Serif" font-size="10.00">initialize_options</text>
<text text-anchor="middle" x="216" y="-144.5" font-family="Helvetica,sans-Serif" font-size="10.00">::parameters_namelist</text>
</a>
</g>
</g>
<!-- Node1&#45;&gt;Node13 -->
<g id="edge19" class="edge"><title>Node1&#45;&gt;Node13</title>
<path fill="none" stroke="midnightblue" d="M72.1001,-254.859C88.6352,-233.676 118.939,-198.285 152,-176.5 157.082,-173.151 162.699,-170.173 168.424,-167.552"/>
<polygon fill="midnightblue" stroke="midnightblue" points="69.1801,-252.916 65.8887,-262.986 74.7419,-257.166 69.1801,-252.916"/>
</g>
<!-- Node14 -->
<g id="node14" class="node"><title>Node14</title>
<g id="a_node14"><a xlink:href="classinitialize__options.html#a14f98c882d07ead49841d25d7de75d4c" target="_top" xlink:title="initialize_options\l::model_levels_namelist">
<polygon fill="white" stroke="black" points="155,-88.5 155,-118.5 277,-118.5 277,-88.5 155,-88.5"/>
<text text-anchor="start" x="163" y="-106.5" font-family="Helvetica,sans-Serif" font-size="10.00">initialize_options</text>
<text text-anchor="middle" x="216" y="-95.5" font-family="Helvetica,sans-Serif" font-size="10.00">::model_levels_namelist</text>
</a>
</g>
</g>
<!-- Node1&#45;&gt;Node14 -->
<g id="edge25" class="edge"><title>Node1&#45;&gt;Node14</title>
<path fill="none" stroke="midnightblue" d="M66.5477,-253.36C79.5592,-222.684 109.018,-162.417 152,-127.5 156.179,-124.105 160.89,-121.156 165.807,-118.601"/>
<polygon fill="midnightblue" stroke="midnightblue" points="63.1967,-252.307 62.6362,-262.887 69.6722,-254.966 63.1967,-252.307"/>
</g>
<!-- Node15 -->
<g id="node15" class="node"><title>Node15</title>
<g id="a_node15"><a xlink:href="classinitialize__options.html#aa31ad836b4bdcd1a555c9e8fa4b2975a" target="_top" xlink:title=" Read in the name of the boundary condition files from a text file ">
<polygon fill="white" stroke="black" points="152,-0.5 152,-30.5 280,-30.5 280,-0.5 152,-0.5"/>
<text text-anchor="start" x="160" y="-18.5" font-family="Helvetica,sans-Serif" font-size="10.00">initialize_options</text>
<text text-anchor="middle" x="216" y="-7.5" font-family="Helvetica,sans-Serif" font-size="10.00">::read_forcing_file_names</text>
</a>
</g>
</g>
<!-- Node1&#45;&gt;Node15 -->
<g id="edge27" class="edge"><title>Node1&#45;&gt;Node15</title>
<path fill="none" stroke="midnightblue" d="M62.0934,-253.036C69.8207,-210.292 93.7016,-107.133 152,-45.5 157.661,-39.5154 164.759,-34.5935 172.133,-30.5919"/>
<polygon fill="midnightblue" stroke="midnightblue" points="58.6295,-252.528 60.3958,-262.975 65.5296,-253.707 58.6295,-252.528"/>
</g>
<!-- Node16 -->
<g id="node16" class="node"><title>Node16</title>
<g id="a_node16"><a xlink:href="classinitialize__options.html#af329549f76b4aa24da83a0f292e32088" target="_top" xlink:title="initialize_options\l::filename_namelist">
<polygon fill="white" stroke="black" points="332.5,-44.5 332.5,-74.5 433.5,-74.5 433.5,-44.5 332.5,-44.5"/>
<text text-anchor="start" x="340.5" y="-62.5" font-family="Helvetica,sans-Serif" font-size="10.00">initialize_options</text>
<text text-anchor="middle" x="383" y="-51.5" font-family="Helvetica,sans-Serif" font-size="10.00">::filename_namelist</text>
</a>
</g>
</g>
<!-- Node1&#45;&gt;Node16 -->
<g id="edge30" class="edge"><title>Node1&#45;&gt;Node16</title>
<path fill="none" stroke="midnightblue" d="M61.9378,-252.693C69.1034,-212.173 91.5469,-120.134 152,-78.5 205.127,-41.9116 282.4,-43.8296 332.436,-50.2917"/>
<polygon fill="midnightblue" stroke="midnightblue" points="58.4661,-252.236 60.303,-262.671 65.374,-253.368 58.4661,-252.236"/>
</g>
<!-- Node3 -->
<g id="node3" class="node"><title>Node3</title>
<g id="a_node3"><a xlink:href="classinitialize__options.html#a571709045f201082c9735408ef2f28e3" target="_top" xlink:title="initialize_options\l::init_options">
<polygon fill="white" stroke="black" points="486,-257.5 486,-287.5 575,-287.5 575,-257.5 486,-257.5"/>
<text text-anchor="start" x="494" y="-275.5" font-family="Helvetica,sans-Serif" font-size="10.00">initialize_options</text>
<text text-anchor="middle" x="530.5" y="-264.5" font-family="Helvetica,sans-Serif" font-size="10.00">::init_options</text>
</a>
</g>
</g>
<!-- Node2&#45;&gt;Node3 -->
<g id="edge2" class="edge"><title>Node2&#45;&gt;Node3</title>
<path fill="none" stroke="midnightblue" d="M270.78,-422.6C320.797,-427.344 395.576,-427.083 450,-394.5 491.212,-369.827 515.042,-314.575 524.59,-287.726"/>
<polygon fill="midnightblue" stroke="midnightblue" points="271.12,-419.117 260.81,-421.557 270.392,-426.079 271.12,-419.117"/>
</g>
<!-- Node2&#45;&gt;Node6 -->
<g id="edge5" class="edge"><title>Node2&#45;&gt;Node6</title>
<path fill="none" stroke="midnightblue" d="M243.422,-435.762C262.704,-450.552 289.921,-469.965 316,-483.5 322.277,-486.758 329.097,-489.771 335.892,-492.484"/>
<polygon fill="midnightblue" stroke="midnightblue" points="245.456,-432.91 235.413,-429.535 241.159,-438.436 245.456,-432.91"/>
</g>
<!-- Node2&#45;&gt;Node7 -->
<g id="edge7" class="edge"><title>Node2&#45;&gt;Node7</title>
<path fill="none" stroke="midnightblue" d="M270.842,-428.858C288.359,-433.529 307.845,-438.725 325.548,-443.446"/>
<polygon fill="midnightblue" stroke="midnightblue" points="271.348,-425.371 260.784,-426.176 269.544,-432.134 271.348,-425.371"/>
</g>
<!-- Node2&#45;&gt;Node8 -->
<g id="edge9" class="edge"><title>Node2&#45;&gt;Node8</title>
<path fill="none" stroke="midnightblue" d="M270.842,-400.142C288.359,-395.471 307.845,-390.275 325.548,-385.554"/>
<polygon fill="midnightblue" stroke="midnightblue" points="269.544,-396.866 260.784,-402.824 271.348,-403.629 269.544,-396.866"/>
</g>
<!-- Node2&#45;&gt;Node9 -->
<g id="edge11" class="edge"><title>Node2&#45;&gt;Node9</title>
<path fill="none" stroke="midnightblue" d="M243.422,-393.238C262.704,-378.448 289.921,-359.035 316,-345.5 322.277,-342.242 329.097,-339.229 335.892,-336.516"/>
<polygon fill="midnightblue" stroke="midnightblue" points="241.159,-390.564 235.413,-399.465 245.456,-396.09 241.159,-390.564"/>
</g>
<!-- Node4 -->
<g id="node4" class="node"><title>Node4</title>
<g id="a_node4"><a xlink:href="classinit.html#a1dd1e2b38eef39cba464f65c9ce82568" target="_top" xlink:title="init::init_model">
<polygon fill="white" stroke="black" points="611,-263 611,-282 691,-282 691,-263 611,-263"/>
<text text-anchor="middle" x="651" y="-270" font-family="Helvetica,sans-Serif" font-size="10.00">init::init_model</text>
</a>
</g>
</g>
<!-- Node3&#45;&gt;Node4 -->
<g id="edge3" class="edge"><title>Node3&#45;&gt;Node4</title>
<path fill="none" stroke="midnightblue" d="M585.517,-272.5C594,-272.5 602.627,-272.5 610.696,-272.5"/>
<polygon fill="midnightblue" stroke="midnightblue" points="585.288,-269 575.288,-272.5 585.288,-276 585.288,-269"/>
</g>
<!-- Node5 -->
<g id="node5" class="node"><title>Node5</title>
<g id="a_node5"><a xlink:href="driver_8f90.html#ab1e5a5816a57fc6e95d9563c2bb53590" target="_top" xlink:title=" Main Program ">
<polygon fill="white" stroke="black" points="727,-263 727,-282 759,-282 759,-263 727,-263"/>
<text text-anchor="middle" x="743" y="-270" font-family="Helvetica,sans-Serif" font-size="10.00">icar</text>
</a>
</g>
</g>
<!-- Node4&#45;&gt;Node5 -->
<g id="edge4" class="edge"><title>Node4&#45;&gt;Node5</title>
<path fill="none" stroke="midnightblue" d="M701.233,-272.5C710.449,-272.5 719.425,-272.5 726.599,-272.5"/>
<polygon fill="midnightblue" stroke="midnightblue" points="701.214,-269 691.213,-272.5 701.213,-276 701.214,-269"/>
</g>
<!-- Node6&#45;&gt;Node3 -->
<g id="edge6" class="edge"><title>Node6&#45;&gt;Node3</title>
<path fill="none" stroke="midnightblue" d="M446.601,-486.574C447.781,-485.595 448.916,-484.571 450,-483.5 507.072,-427.084 523.719,-325.718 528.087,-287.569"/>
<polygon fill="midnightblue" stroke="midnightblue" points="444.457,-483.802 438.262,-492.397 448.465,-489.542 444.457,-483.802"/>
</g>
<!-- Node7&#45;&gt;Node3 -->
<g id="edge8" class="edge"><title>Node7&#45;&gt;Node3</title>
<path fill="none" stroke="midnightblue" d="M436.875,-438.549C441.603,-435.59 446.077,-432.251 450,-428.5 492.84,-387.533 516.543,-318.463 525.407,-287.873"/>
<polygon fill="midnightblue" stroke="midnightblue" points="435.141,-435.508 428.153,-443.472 438.582,-441.604 435.141,-435.508"/>
</g>
<!-- Node8&#45;&gt;Node3 -->
<g id="edge10" class="edge"><title>Node8&#45;&gt;Node3</title>
<path fill="none" stroke="midnightblue" d="M439.594,-351.252C443.19,-349.457 446.692,-347.539 450,-345.5 476.159,-329.374 501.429,-303.95 516.213,-287.759"/>
<polygon fill="midnightblue" stroke="midnightblue" points="438.116,-348.08 430.515,-355.461 441.06,-354.431 438.116,-348.08"/>
</g>
<!-- Node9&#45;&gt;Node3 -->
<g id="edge12" class="edge"><title>Node9&#45;&gt;Node3</title>
<path fill="none" stroke="midnightblue" d="M438.353,-303.196C453.922,-297.952 470.695,-292.304 485.555,-287.299"/>
<polygon fill="midnightblue" stroke="midnightblue" points="437.202,-299.89 428.842,-306.399 439.436,-306.524 437.202,-299.89"/>
</g>
<!-- Node10&#45;&gt;Node3 -->
<g id="edge14" class="edge"><title>Node10&#45;&gt;Node3</title>
<path fill="none" stroke="midnightblue" d="M445.823,-272.5C459.221,-272.5 473.124,-272.5 485.66,-272.5"/>
<polygon fill="midnightblue" stroke="midnightblue" points="445.708,-269 435.708,-272.5 445.708,-276 445.708,-269"/>
</g>
<!-- Node11&#45;&gt;Node3 -->
<g id="edge16" class="edge"><title>Node11&#45;&gt;Node3</title>
<path fill="none" stroke="midnightblue" d="M275.141,-244.473C322.503,-240.826 390.954,-238.435 450,-247.5 463.3,-249.542 477.428,-253.4 490.028,-257.484"/>
<polygon fill="midnightblue" stroke="midnightblue" points="274.752,-240.993 265.069,-245.292 275.319,-247.97 274.752,-240.993"/>
</g>
<!-- Node12&#45;&gt;Node3 -->
<g id="edge18" class="edge"><title>Node12&#45;&gt;Node3</title>
<path fill="none" stroke="midnightblue" d="M270.806,-205.791C318.596,-210.547 389.967,-219.976 450,-237.5 467.227,-242.528 485.616,-250.445 500.365,-257.478"/>
<polygon fill="midnightblue" stroke="midnightblue" points="270.97,-202.291 260.681,-204.819 270.3,-209.259 270.97,-202.291"/>
</g>
<!-- Node13&#45;&gt;Node3 -->
<g id="edge20" class="edge"><title>Node13&#45;&gt;Node3</title>
<path fill="none" stroke="midnightblue" d="M282.6,-159.905C330.832,-167.234 396.94,-181.304 450,-207.5 475.578,-220.128 500.238,-242.361 515.136,-257.261"/>
<polygon fill="midnightblue" stroke="midnightblue" points="282.992,-156.425 272.59,-158.441 281.979,-163.352 282.992,-156.425"/>
</g>
<!-- Node14&#45;&gt;Node3 -->
<g id="edge26" class="edge"><title>Node14&#45;&gt;Node3</title>
<path fill="none" stroke="midnightblue" d="M287.32,-109.058C336.43,-115.783 401.601,-130.648 450,-163.5 485.658,-187.704 511.128,-233.424 522.633,-257.227"/>
<polygon fill="midnightblue" stroke="midnightblue" points="287.461,-105.547 277.096,-107.743 286.568,-112.49 287.461,-105.547"/>
</g>
<!-- Node15&#45;&gt;Node16 -->
<g id="edge28" class="edge"><title>Node15&#45;&gt;Node16</title>
<path fill="none" stroke="midnightblue" d="M283.352,-33.1939C299.682,-37.5485 316.89,-42.1373 332.28,-46.2414"/>
<polygon fill="midnightblue" stroke="midnightblue" points="283.886,-29.7141 273.322,-30.5192 282.083,-36.4778 283.886,-29.7141"/>
</g>
<!-- Node16&#45;&gt;Node3 -->
<g id="edge29" class="edge"><title>Node16&#45;&gt;Node3</title>
<path fill="none" stroke="midnightblue" d="M431.32,-79.5364C438.137,-83.7946 444.645,-88.7703 450,-94.5 495.989,-143.706 518.519,-223.971 526.271,-257.274"/>
<polygon fill="midnightblue" stroke="midnightblue" points="432.999,-76.4645 422.583,-74.5237 429.515,-82.5361 432.999,-76.4645"/>
</g>
</g>
</svg>
