<?xml version="1.0" encoding="UTF-8" standalone="no"?>
<!DOCTYPE svg PUBLIC "-//W3C//DTD SVG 1.1//EN"
 "http://www.w3.org/Graphics/SVG/1.1/DTD/svg11.dtd">
<!-- Generated by graphviz version 2.38.0 (20140413.2041)
 -->
<!-- Title: model_tracking::init_model_diffs Pages: 1 -->
<svg width="856pt" height="212pt"
 viewBox="0.00 0.00 856.00 211.85" xmlns="http://www.w3.org/2000/svg" xmlns:xlink="http://www.w3.org/1999/xlink">
<g id="graph0" class="graph" transform="scale(1 1) rotate(0) translate(4 207.852)">
<title>model_tracking::init_model_diffs</title>
<polygon fill="white" stroke="none" points="-4,4 -4,-207.852 852,-207.852 852,4 -4,4"/>
<!-- Node1 -->
<g id="node1" class="node"><title>Node1</title>
<polygon fill="#bfbfbf" stroke="black" points="0,-98.5 0,-128.5 101,-128.5 101,-98.5 0,-98.5"/>
<text text-anchor="start" x="8" y="-116.5" font-family="Helvetica,sans-Serif" font-size="10.00">model_tracking::init</text>
<text text-anchor="middle" x="50.5" y="-105.5" font-family="Helvetica,sans-Serif" font-size="10.00">_model_diffs</text>
</g>
<!-- Node2 -->
<g id="node2" class="node"><title>Node2</title>
<g id="a_node2"><a xlink:href="classmodel__tracking.html#a0c78b5716b846487efd52d7b78dae261" target="_top" xlink:title="model_tracking::print\l_model_diffs">
<polygon fill="white" stroke="black" points="137,-98.5 137,-128.5 244,-128.5 244,-98.5 137,-98.5"/>
<text text-anchor="start" x="145" y="-116.5" font-family="Helvetica,sans-Serif" font-size="10.00">model_tracking::print</text>
<text text-anchor="middle" x="190.5" y="-105.5" font-family="Helvetica,sans-Serif" font-size="10.00">_model_diffs</text>
</a>
</g>
</g>
<!-- Node1&#45;&gt;Node2 -->
<g id="edge1" class="edge"><title>Node1&#45;&gt;Node2</title>
<path fill="none" stroke="midnightblue" d="M111.525,-113.5C119.993,-113.5 128.646,-113.5 136.959,-113.5"/>
<polygon fill="midnightblue" stroke="midnightblue" points="111.321,-110 101.321,-113.5 111.321,-117 111.321,-110"/>
</g>
<!-- Node3 -->
<g id="node3" class="node"><title>Node3</title>
<g id="a_node3"><a xlink:href="classinitialize__options.html#a7161e810e27d3c830e135c3811ae290b" target="_top" xlink:title="initialize_options\l::version_check">
<polygon fill="white" stroke="black" points="280,-98.5 280,-128.5 369,-128.5 369,-98.5 280,-98.5"/>
<text text-anchor="start" x="288" y="-116.5" font-family="Helvetica,sans-Serif" font-size="10.00">initialize_options</text>
<text text-anchor="middle" x="324.5" y="-105.5" font-family="Helvetica,sans-Serif" font-size="10.00">::version_check</text>
</a>
</g>
</g>
<!-- Node2&#45;&gt;Node3 -->
<g id="edge2" class="edge"><title>Node2&#45;&gt;Node3</title>
<path fill="none" stroke="midnightblue" d="M254.104,-113.5C262.73,-113.5 271.434,-113.5 279.623,-113.5"/>
<polygon fill="midnightblue" stroke="midnightblue" points="254.049,-110 244.049,-113.5 254.049,-117 254.049,-110"/>
</g>
<!-- Node4 -->
<g id="node4" class="node"><title>Node4</title>
<g id="a_node4"><a xlink:href="classinitialize__options.html#a571709045f201082c9735408ef2f28e3" target="_top" xlink:title="initialize_options\l::init_options">
<polygon fill="white" stroke="black" points="575,-98.5 575,-128.5 664,-128.5 664,-98.5 575,-98.5"/>
<text text-anchor="start" x="583" y="-116.5" font-family="Helvetica,sans-Serif" font-size="10.00">initialize_options</text>
<text text-anchor="middle" x="619.5" y="-105.5" font-family="Helvetica,sans-Serif" font-size="10.00">::init_options</text>
</a>
</g>
</g>
<!-- Node3&#45;&gt;Node4 -->
<g id="edge3" class="edge"><title>Node3&#45;&gt;Node4</title>
<path fill="none" stroke="midnightblue" d="M342.45,-136.82C356.836,-154.474 379.214,-177.356 405,-187.5 460.421,-209.302 483.579,-209.302 539,-187.5 569.006,-175.696 594.397,-146.644 607.951,-128.653"/>
<polygon fill="midnightblue" stroke="midnightblue" points="344.972,-134.365 336.049,-128.653 339.462,-138.683 344.972,-134.365"/>
</g>
<!-- Node7 -->
<g id="node7" class="node"><title>Node7</title>
<g id="a_node7"><a xlink:href="classinitialize__options.html#acc4c031c2e7521b9eb81f779a67acb3b" target="_top" xlink:title="initialize_options\l::mp_parameters_namelist">
<polygon fill="white" stroke="black" points="406,-147.5 406,-177.5 538,-177.5 538,-147.5 406,-147.5"/>
<text text-anchor="start" x="414" y="-165.5" font-family="Helvetica,sans-Serif" font-size="10.00">initialize_options</text>
<text text-anchor="middle" x="472" y="-154.5" font-family="Helvetica,sans-Serif" font-size="10.00">::mp_parameters_namelist</text>
</a>
</g>
</g>
<!-- Node3&#45;&gt;Node7 -->
<g id="edge6" class="edge"><title>Node3&#45;&gt;Node7</title>
<path fill="none" stroke="midnightblue" d="M378.703,-131.417C394.356,-136.689 411.312,-142.399 426.369,-147.47"/>
<polygon fill="midnightblue" stroke="midnightblue" points="379.749,-128.076 369.155,-128.202 377.515,-134.71 379.749,-128.076"/>
</g>
<!-- Node8 -->
<g id="node8" class="node"><title>Node8</title>
<g id="a_node8"><a xlink:href="classinitialize__options.html#acf012270ed53d51ad745344175d1d8ae" target="_top" xlink:title="initialize_options\l::lt_parameters_namelist">
<polygon fill="white" stroke="black" points="410,-98.5 410,-128.5 534,-128.5 534,-98.5 410,-98.5"/>
<text text-anchor="start" x="418" y="-116.5" font-family="Helvetica,sans-Serif" font-size="10.00">initialize_options</text>
<text text-anchor="middle" x="472" y="-105.5" font-family="Helvetica,sans-Serif" font-size="10.00">::lt_parameters_namelist</text>
</a>
</g>
</g>
<!-- Node3&#45;&gt;Node8 -->
<g id="edge8" class="edge"><title>Node3&#45;&gt;Node8</title>
<path fill="none" stroke="midnightblue" d="M379.313,-113.5C389.271,-113.5 399.737,-113.5 409.893,-113.5"/>
<polygon fill="midnightblue" stroke="midnightblue" points="379.155,-110 369.155,-113.5 379.155,-117 379.155,-110"/>
</g>
<!-- Node9 -->
<g id="node9" class="node"><title>Node9</title>
<g id="a_node9"><a xlink:href="classinitialize__options.html#a502d4a0df0fedb55f73b9afb2e130107" target="_top" xlink:title="initialize_options\l::adv_parameters_namelist">
<polygon fill="white" stroke="black" points="405,-49.5 405,-79.5 539,-79.5 539,-49.5 405,-49.5"/>
<text text-anchor="start" x="413" y="-67.5" font-family="Helvetica,sans-Serif" font-size="10.00">initialize_options</text>
<text text-anchor="middle" x="472" y="-56.5" font-family="Helvetica,sans-Serif" font-size="10.00">::adv_parameters_namelist</text>
</a>
</g>
</g>
<!-- Node3&#45;&gt;Node9 -->
<g id="edge10" class="edge"><title>Node3&#45;&gt;Node9</title>
<path fill="none" stroke="midnightblue" d="M378.703,-95.5827C394.356,-90.3115 411.312,-84.6012 426.369,-79.5304"/>
<polygon fill="midnightblue" stroke="midnightblue" points="377.515,-92.2898 369.155,-98.7984 379.749,-98.9237 377.515,-92.2898"/>
</g>
<!-- Node10 -->
<g id="node10" class="node"><title>Node10</title>
<g id="a_node10"><a xlink:href="classinitialize__options.html#a71b56485a92a10478bb1179e3294c013" target="_top" xlink:title="initialize_options\l::lsm_parameters_namelist">
<polygon fill="white" stroke="black" points="405,-0.5 405,-30.5 539,-30.5 539,-0.5 405,-0.5"/>
<text text-anchor="start" x="413" y="-18.5" font-family="Helvetica,sans-Serif" font-size="10.00">initialize_options</text>
<text text-anchor="middle" x="472" y="-7.5" font-family="Helvetica,sans-Serif" font-size="10.00">::lsm_parameters_namelist</text>
</a>
</g>
</g>
<!-- Node3&#45;&gt;Node10 -->
<g id="edge12" class="edge"><title>Node3&#45;&gt;Node10</title>
<path fill="none" stroke="midnightblue" d="M345.62,-90.914C360.696,-75.0836 382.519,-54.3587 405,-40.5 411.049,-36.7707 417.746,-33.4479 424.485,-30.5389"/>
<polygon fill="midnightblue" stroke="midnightblue" points="343.048,-88.5401 338.787,-98.2406 348.167,-93.3142 343.048,-88.5401"/>
</g>
<!-- Node5 -->
<g id="node5" class="node"><title>Node5</title>
<g id="a_node5"><a xlink:href="classinit.html#a1dd1e2b38eef39cba464f65c9ce82568" target="_top" xlink:title="init::init_model">
<polygon fill="white" stroke="black" points="700,-104 700,-123 780,-123 780,-104 700,-104"/>
<text text-anchor="middle" x="740" y="-111" font-family="Helvetica,sans-Serif" font-size="10.00">init::init_model</text>
</a>
</g>
</g>
<!-- Node4&#45;&gt;Node5 -->
<g id="edge4" class="edge"><title>Node4&#45;&gt;Node5</title>
<path fill="none" stroke="midnightblue" d="M674.517,-113.5C683,-113.5 691.627,-113.5 699.696,-113.5"/>
<polygon fill="midnightblue" stroke="midnightblue" points="674.288,-110 664.288,-113.5 674.288,-117 674.288,-110"/>
</g>
<!-- Node6 -->
<g id="node6" class="node"><title>Node6</title>
<g id="a_node6"><a xlink:href="driver_8f90.html#ab1e5a5816a57fc6e95d9563c2bb53590" target="_top" xlink:title=" Main Program ">
<polygon fill="white" stroke="black" points="816,-104 816,-123 848,-123 848,-104 816,-104"/>
<text text-anchor="middle" x="832" y="-111" font-family="Helvetica,sans-Serif" font-size="10.00">icar</text>
</a>
</g>
</g>
<!-- Node5&#45;&gt;Node6 -->
<g id="edge5" class="edge"><title>Node5&#45;&gt;Node6</title>
<path fill="none" stroke="midnightblue" d="M790.233,-113.5C799.449,-113.5 808.425,-113.5 815.599,-113.5"/>
<polygon fill="midnightblue" stroke="midnightblue" points="790.214,-110 780.213,-113.5 790.213,-117 790.214,-110"/>
</g>
<!-- Node7&#45;&gt;Node4 -->
<g id="edge7" class="edge"><title>Node7&#45;&gt;Node4</title>
<path fill="none" stroke="midnightblue" d="M527.353,-144.196C542.922,-138.952 559.695,-133.304 574.555,-128.299"/>
<polygon fill="midnightblue" stroke="midnightblue" points="526.202,-140.89 517.842,-147.399 528.436,-147.524 526.202,-140.89"/>
</g>
<!-- Node8&#45;&gt;Node4 -->
<g id="edge9" class="edge"><title>Node8&#45;&gt;Node4</title>
<path fill="none" stroke="midnightblue" d="M544.284,-113.5C554.757,-113.5 565.271,-113.5 574.956,-113.5"/>
<polygon fill="midnightblue" stroke="midnightblue" points="544.283,-110 534.283,-113.5 544.283,-117 544.283,-110"/>
</g>
<!-- Node9&#45;&gt;Node4 -->
<g id="edge11" class="edge"><title>Node9&#45;&gt;Node4</title>
<path fill="none" stroke="midnightblue" d="M527.353,-82.8044C542.922,-88.0477 559.695,-93.6963 574.555,-98.7008"/>
<polygon fill="midnightblue" stroke="midnightblue" points="528.436,-79.4761 517.842,-79.6014 526.202,-86.11 528.436,-79.4761"/>
</g>
<!-- Node10&#45;&gt;Node4 -->
<g id="edge13" class="edge"><title>Node10&#45;&gt;Node4</title>
<path fill="none" stroke="midnightblue" d="M528.594,-34.7475C532.19,-36.5426 535.692,-38.4605 539,-40.5 565.159,-56.6265 590.429,-82.0501 605.213,-98.2406"/>
<polygon fill="midnightblue" stroke="midnightblue" points="530.06,-31.5695 519.515,-30.5389 527.116,-37.9202 530.06,-31.5695"/>
</g>
</g>
</svg>
