<?xml version="1.0" encoding="UTF-8" standalone="no"?>
<!DOCTYPE svg PUBLIC "-//W3C//DTD SVG 1.1//EN"
 "http://www.w3.org/Graphics/SVG/1.1/DTD/svg11.dtd">
<!-- Generated by graphviz version 2.32.0 (20130809.1645)
 -->
<!-- Title: module_cu_tiedtke::tlucuc Pages: 1 -->
<!--zoomable 283 -->
<svg id="main" version="1.1" xmlns="http://www.w3.org/2000/svg" xmlns:xlink="http://www.w3.org/1999/xlink" xml:space="preserve" onload="init(evt)">
<style type="text/css"><![CDATA[
.edge:hover path { stroke: red; }
.edge:hover polygon { stroke: red; fill: red; }
]]></style>
<script type="text/javascript"><![CDATA[
var edges = document.getElementsByTagName('g');
if (edges && edges.length) {
  for (var i=0;i<edges.length;i++) {
    if (edges[i].id.substr(0,4)=='edge') {
      edges[i].setAttribute('class','edge');
    }
  }
}
]]></script>
        <defs>
                <circle id="rim" cx="0" cy="0" r="7"/>
                <circle id="rim2" cx="0" cy="0" r="3.5"/>
                <g id="zoomPlus">
                        <use xlink:href="#rim" fill="#404040">
                                <set attributeName="fill" to="#808080" begin="zoomplus.mouseover" end="zoomplus.mouseout"/>
                        </use>
                        <path d="M-4,0h8M0,-4v8" fill="none" stroke="white" stroke-width="1.5" pointer-events="none"/>
                </g>
                <g id="zoomMin">
                        <use xlink:href="#rim" fill="#404040">
                                <set attributeName="fill" to="#808080" begin="zoomminus.mouseover" end="zoomminus.mouseout"/>
                        </use>
                        <path d="M-4,0h8" fill="none" stroke="white" stroke-width="1.5" pointer-events="none"/>
                </g>
                <g id="dirArrow">
                        <path fill="none" stroke="white" stroke-width="1.5" d="M0,-3.0v7 M-2.5,-0.5L0,-3.0L2.5,-0.5"/>
                </g>
               <g id="resetDef">
                       <use xlink:href="#rim2" fill="#404040">
                               <set attributeName="fill" to="#808080" begin="reset.mouseover" end="reset.mouseout"/>
                       </use>
               </g>
        </defs>

<script type="text/javascript">
var viewWidth = 1140;
var viewHeight = 283;
var sectionId = 'dynsection-31';
</script>
<script xlink:href="svgpan.js"/>
<svg id="graph" class="graph">
<g id="viewport">
<title>module_cu_tiedtke::tlucuc</title>
<polygon fill="white" stroke="white" points="-4,5 -4,-279 1137,-279 1137,5 -4,5"/>
<!-- Node1 -->
<g id="node1" class="node"><title>Node1</title>
<polygon fill="#bfbfbf" stroke="black" points="0,-122 0,-152 104,-152 104,-122 0,-122"/>
<text text-anchor="start" x="8" y="-140" font-family="Helvetica,sans-Serif" font-size="10.00">module_cu_tiedtke::</text>
<text text-anchor="middle" x="52" y="-129" font-family="Helvetica,sans-Serif" font-size="10.00">tlucuc</text>
</g>
<!-- Node2 -->
<g id="node2" class="node"><title>Node2</title>
<g id="a_node2"><a xlink:href="classmodule__cu__tiedtke.html#ac8165a71eb9a866902d5f7a0ad177f14" target="_top" xlink:title="module_cu_tiedtke::\lcuadjtq">
<polygon fill="white" stroke="black" points="140,-122 140,-152 244,-152 244,-122 140,-122"/>
<text text-anchor="start" x="148" y="-140" font-family="Helvetica,sans-Serif" font-size="10.00">module_cu_tiedtke::</text>
<text text-anchor="middle" x="192" y="-129" font-family="Helvetica,sans-Serif" font-size="10.00">cuadjtq</text>
</a>
</g>
</g>
<!-- Node1&#45;&gt;Node2 -->
<g id="edge1" class="edge"><title>Node1&#45;&gt;Node2</title>
<path fill="none" stroke="midnightblue" d="M114.496,-137C122.872,-137 131.398,-137 139.571,-137"/>
<polygon fill="midnightblue" stroke="midnightblue" points="114.386,-133.5 104.386,-137 114.386,-140.5 114.386,-133.5"/>
</g>
<!-- Node3 -->
<g id="node3" class="node"><title>Node3</title>
<g id="a_node3"><a xlink:href="classmodule__cu__tiedtke.html#ad58bc964dc1ba2f7c52ec660f3ac783a" target="_top" xlink:title="module_cu_tiedtke::\lcuini">
<polygon fill="white" stroke="black" points="280,-245 280,-275 384,-275 384,-245 280,-245"/>
<text text-anchor="start" x="288" y="-263" font-family="Helvetica,sans-Serif" font-size="10.00">module_cu_tiedtke::</text>
<text text-anchor="middle" x="332" y="-252" font-family="Helvetica,sans-Serif" font-size="10.00">cuini</text>
</a>
</g>
</g>
<!-- Node2&#45;&gt;Node3 -->
<g id="edge2" class="edge"><title>Node2&#45;&gt;Node3</title>
<path fill="none" stroke="midnightblue" d="M209.658,-160.522C225.77,-181.998 251.83,-213.573 280,-235 284.787,-238.642 290.189,-241.967 295.64,-244.921"/>
<polygon fill="midnightblue" stroke="midnightblue" points="212.332,-158.251 203.585,-152.273 206.695,-162.401 212.332,-158.251"/>
</g>
<!-- Node10 -->
<g id="node10" class="node"><title>Node10</title>
<g id="a_node10"><a xlink:href="classmodule__cu__tiedtke.html#a252e2ab4e675cefd721c0e6b4c7d0796" target="_top" xlink:title="module_cu_tiedtke::\lcubase">
<polygon fill="white" stroke="black" points="280,-196 280,-226 384,-226 384,-196 280,-196"/>
<text text-anchor="start" x="288" y="-214" font-family="Helvetica,sans-Serif" font-size="10.00">module_cu_tiedtke::</text>
<text text-anchor="middle" x="332" y="-203" font-family="Helvetica,sans-Serif" font-size="10.00">cubase</text>
</a>
</g>
</g>
<!-- Node2&#45;&gt;Node10 -->
<g id="edge9" class="edge"><title>Node2&#45;&gt;Node10</title>
<path fill="none" stroke="midnightblue" d="M227.946,-157.284C243.732,-166.291 262.687,-176.891 280,-186 286.283,-189.306 293.066,-192.73 299.571,-195.944"/>
<polygon fill="midnightblue" stroke="midnightblue" points="229.471,-154.124 219.055,-152.189 225.991,-160.198 229.471,-154.124"/>
</g>
<!-- Node11 -->
<g id="node11" class="node"><title>Node11</title>
<g id="a_node11"><a xlink:href="classmodule__cu__tiedtke.html#a75265ba406fbb983606db3742939bc18" target="_top" xlink:title="module_cu_tiedtke::\lcutype">
<polygon fill="white" stroke="black" points="280,-147 280,-177 384,-177 384,-147 280,-147"/>
<text text-anchor="start" x="288" y="-165" font-family="Helvetica,sans-Serif" font-size="10.00">module_cu_tiedtke::</text>
<text text-anchor="middle" x="332" y="-154" font-family="Helvetica,sans-Serif" font-size="10.00">cutype</text>
</a>
</g>
</g>
<!-- Node2&#45;&gt;Node11 -->
<g id="edge11" class="edge"><title>Node2&#45;&gt;Node11</title>
<path fill="none" stroke="midnightblue" d="M254.496,-148.141C262.872,-149.658 271.398,-151.202 279.571,-152.683"/>
<polygon fill="midnightblue" stroke="midnightblue" points="254.85,-144.648 244.386,-146.309 253.602,-151.536 254.85,-144.648"/>
</g>
<!-- Node12 -->
<g id="node12" class="node"><title>Node12</title>
<g id="a_node12"><a xlink:href="classmodule__cu__tiedtke.html#ac9ae922d9f0655dae4887093c89d2909" target="_top" xlink:title="module_cu_tiedtke::\lcuasc_new">
<polygon fill="white" stroke="black" points="280,-98 280,-128 384,-128 384,-98 280,-98"/>
<text text-anchor="start" x="288" y="-116" font-family="Helvetica,sans-Serif" font-size="10.00">module_cu_tiedtke::</text>
<text text-anchor="middle" x="332" y="-105" font-family="Helvetica,sans-Serif" font-size="10.00">cuasc_new</text>
</a>
</g>
</g>
<!-- Node2&#45;&gt;Node12 -->
<g id="edge13" class="edge"><title>Node2&#45;&gt;Node12</title>
<path fill="none" stroke="midnightblue" d="M254.496,-126.305C262.872,-124.848 271.398,-123.366 279.571,-121.944"/>
<polygon fill="midnightblue" stroke="midnightblue" points="253.639,-122.902 244.386,-128.063 254.838,-129.798 253.639,-122.902"/>
</g>
<!-- Node13 -->
<g id="node13" class="node"><title>Node13</title>
<g id="a_node13"><a xlink:href="classmodule__cu__tiedtke.html#ac30d7f0b03de20b3c35ae750e7b0b6d4" target="_top" xlink:title="module_cu_tiedtke::\lcudlfs">
<polygon fill="white" stroke="black" points="280,-49 280,-79 384,-79 384,-49 280,-49"/>
<text text-anchor="start" x="288" y="-67" font-family="Helvetica,sans-Serif" font-size="10.00">module_cu_tiedtke::</text>
<text text-anchor="middle" x="332" y="-56" font-family="Helvetica,sans-Serif" font-size="10.00">cudlfs</text>
</a>
</g>
</g>
<!-- Node2&#45;&gt;Node13 -->
<g id="edge15" class="edge"><title>Node2&#45;&gt;Node13</title>
<path fill="none" stroke="midnightblue" d="M228.34,-116.995C244.063,-108.227 262.86,-97.9226 280,-89 286.298,-85.7217 293.087,-82.3099 299.593,-79.099"/>
<polygon fill="midnightblue" stroke="midnightblue" points="226.49,-114.02 219.474,-121.959 229.909,-120.128 226.49,-114.02"/>
</g>
<!-- Node14 -->
<g id="node14" class="node"><title>Node14</title>
<g id="a_node14"><a xlink:href="classmodule__cu__tiedtke.html#a38ab6318e5e3bdd086bd5969c9728dc4" target="_top" xlink:title="module_cu_tiedtke::\lcuddraf">
<polygon fill="white" stroke="black" points="280,-0 280,-30 384,-30 384,-0 280,-0"/>
<text text-anchor="start" x="288" y="-18" font-family="Helvetica,sans-Serif" font-size="10.00">module_cu_tiedtke::</text>
<text text-anchor="middle" x="332" y="-7" font-family="Helvetica,sans-Serif" font-size="10.00">cuddraf</text>
</a>
</g>
</g>
<!-- Node2&#45;&gt;Node14 -->
<g id="edge17" class="edge"><title>Node2&#45;&gt;Node14</title>
<path fill="none" stroke="midnightblue" d="M209.707,-113.73C225.853,-92.4807 251.936,-61.2338 280,-40 284.797,-36.3706 290.203,-33.0514 295.656,-30.1007"/>
<polygon fill="midnightblue" stroke="midnightblue" points="206.793,-111.783 203.62,-121.891 212.404,-115.968 206.793,-111.783"/>
</g>
<!-- Node4 -->
<g id="node4" class="node"><title>Node4</title>
<g id="a_node4"><a xlink:href="classmodule__cu__tiedtke.html#a8840397e245a13cbb7c61f8cea6e7894" target="_top" xlink:title="module_cu_tiedtke::\lcumastr_new">
<polygon fill="white" stroke="black" points="420,-122 420,-152 524,-152 524,-122 420,-122"/>
<text text-anchor="start" x="428" y="-140" font-family="Helvetica,sans-Serif" font-size="10.00">module_cu_tiedtke::</text>
<text text-anchor="middle" x="472" y="-129" font-family="Helvetica,sans-Serif" font-size="10.00">cumastr_new</text>
</a>
</g>
</g>
<!-- Node3&#45;&gt;Node4 -->
<g id="edge3" class="edge"><title>Node3&#45;&gt;Node4</title>
<path fill="none" stroke="midnightblue" d="M377.411,-239.593C379.693,-238.126 381.905,-236.593 384,-235 416.051,-210.621 445.371,-173.105 460.415,-152.273"/>
<polygon fill="midnightblue" stroke="midnightblue" points="375.203,-236.832 368.36,-244.921 378.753,-242.865 375.203,-236.832"/>
</g>
<!-- Node5 -->
<g id="node5" class="node"><title>Node5</title>
<g id="a_node5"><a xlink:href="classmodule__cu__tiedtke.html#ae9c234f80f55688e10c72091b6c673dc" target="_top" xlink:title="module_cu_tiedtke::\ltiecnv">
<polygon fill="white" stroke="black" points="560,-122 560,-152 664,-152 664,-122 560,-122"/>
<text text-anchor="start" x="568" y="-140" font-family="Helvetica,sans-Serif" font-size="10.00">module_cu_tiedtke::</text>
<text text-anchor="middle" x="612" y="-129" font-family="Helvetica,sans-Serif" font-size="10.00">tiecnv</text>
</a>
</g>
</g>
<!-- Node4&#45;&gt;Node5 -->
<g id="edge4" class="edge"><title>Node4&#45;&gt;Node5</title>
<path fill="none" stroke="midnightblue" d="M534.496,-137C542.872,-137 551.398,-137 559.571,-137"/>
<polygon fill="midnightblue" stroke="midnightblue" points="534.386,-133.5 524.386,-137 534.386,-140.5 534.386,-133.5"/>
</g>
<!-- Node6 -->
<g id="node6" class="node"><title>Node6</title>
<g id="a_node6"><a xlink:href="classmodule__cu__tiedtke.html#ae3fdba4e560c50ab3f6b9f1e30f2f255" target="_top" xlink:title="module_cu_tiedtke::\lcu_tiedtke">
<polygon fill="white" stroke="black" points="700,-122 700,-152 804,-152 804,-122 700,-122"/>
<text text-anchor="start" x="708" y="-140" font-family="Helvetica,sans-Serif" font-size="10.00">module_cu_tiedtke::</text>
<text text-anchor="middle" x="752" y="-129" font-family="Helvetica,sans-Serif" font-size="10.00">cu_tiedtke</text>
</a>
</g>
</g>
<!-- Node5&#45;&gt;Node6 -->
<g id="edge5" class="edge"><title>Node5&#45;&gt;Node6</title>
<path fill="none" stroke="midnightblue" d="M674.496,-137C682.872,-137 691.398,-137 699.571,-137"/>
<polygon fill="midnightblue" stroke="midnightblue" points="674.386,-133.5 664.386,-137 674.386,-140.5 674.386,-133.5"/>
</g>
<!-- Node7 -->
<g id="node7" class="node"><title>Node7</title>
<g id="a_node7"><a xlink:href="classconvection.html#a06b811540eb747b3734e7fb35de41782" target="_top" xlink:title="convection::convect">
<polygon fill="white" stroke="black" points="840,-127.5 840,-146.5 944,-146.5 944,-127.5 840,-127.5"/>
<text text-anchor="middle" x="892" y="-134.5" font-family="Helvetica,sans-Serif" font-size="10.00">convection::convect</text>
</a>
</g>
</g>
<!-- Node6&#45;&gt;Node7 -->
<g id="edge6" class="edge"><title>Node6&#45;&gt;Node7</title>
<path fill="none" stroke="midnightblue" d="M814.496,-137C822.872,-137 831.398,-137 839.571,-137"/>
<polygon fill="midnightblue" stroke="midnightblue" points="814.386,-133.5 804.386,-137 814.386,-140.5 814.386,-133.5"/>
</g>
<!-- Node8 -->
<g id="node8" class="node"><title>Node8</title>
<g id="a_node8"><a xlink:href="classtime__step.html#a2c022f11247af72e607b1493289aa974" target="_top" xlink:title=" Step forward one IO time step. ">
<polygon fill="white" stroke="black" points="980,-127.5 980,-146.5 1064,-146.5 1064,-127.5 980,-127.5"/>
<text text-anchor="middle" x="1022" y="-134.5" font-family="Helvetica,sans-Serif" font-size="10.00">time_step::step</text>
</a>
</g>
</g>
<!-- Node7&#45;&gt;Node8 -->
<g id="edge7" class="edge"><title>Node7&#45;&gt;Node8</title>
<path fill="none" stroke="midnightblue" d="M954.406,-137C963.051,-137 971.759,-137 979.897,-137"/>
<polygon fill="midnightblue" stroke="midnightblue" points="954.325,-133.5 944.325,-137 954.325,-140.5 954.325,-133.5"/>
</g>
<!-- Node9 -->
<g id="node9" class="node"><title>Node9</title>
<g id="a_node9"><a xlink:href="driver_8f90.html#ab1e5a5816a57fc6e95d9563c2bb53590" target="_top" xlink:title=" Main Program ">
<polygon fill="white" stroke="black" points="1100,-127.5 1100,-146.5 1132,-146.5 1132,-127.5 1100,-127.5"/>
<text text-anchor="middle" x="1116" y="-134.5" font-family="Helvetica,sans-Serif" font-size="10.00">icar</text>
</a>
</g>
</g>
<!-- Node8&#45;&gt;Node9 -->
<g id="edge8" class="edge"><title>Node8&#45;&gt;Node9</title>
<path fill="none" stroke="midnightblue" d="M1074.25,-137C1083.52,-137 1092.5,-137 1099.66,-137"/>
<polygon fill="midnightblue" stroke="midnightblue" points="1074.16,-133.5 1064.16,-137 1074.16,-140.5 1074.16,-133.5"/>
</g>
<!-- Node10&#45;&gt;Node4 -->
<g id="edge10" class="edge"><title>Node10&#45;&gt;Node4</title>
<path fill="none" stroke="midnightblue" d="M373.68,-191.32C377.183,-189.546 380.662,-187.756 384,-186 404.71,-175.103 427.772,-162.072 444.945,-152.189"/>
<polygon fill="midnightblue" stroke="midnightblue" points="371.809,-188.342 364.429,-195.944 374.939,-194.603 371.809,-188.342"/>
</g>
<!-- Node11&#45;&gt;Node4 -->
<g id="edge12" class="edge"><title>Node11&#45;&gt;Node4</title>
<path fill="none" stroke="midnightblue" d="M394.496,-150.859C402.872,-149.342 411.398,-147.798 419.571,-146.317"/>
<polygon fill="midnightblue" stroke="midnightblue" points="393.602,-147.464 384.386,-152.691 394.85,-154.352 393.602,-147.464"/>
</g>
<!-- Node12&#45;&gt;Node4 -->
<g id="edge14" class="edge"><title>Node12&#45;&gt;Node4</title>
<path fill="none" stroke="midnightblue" d="M394.496,-123.695C402.872,-125.152 411.398,-126.634 419.571,-128.056"/>
<polygon fill="midnightblue" stroke="midnightblue" points="394.838,-120.202 384.386,-121.937 393.639,-127.098 394.838,-120.202"/>
</g>
<!-- Node13&#45;&gt;Node4 -->
<g id="edge16" class="edge"><title>Node13&#45;&gt;Node4</title>
<path fill="none" stroke="midnightblue" d="M373.663,-83.7123C377.17,-85.4791 380.654,-87.2584 384,-89 404.504,-99.6737 427.38,-112.325 444.526,-121.959"/>
<polygon fill="midnightblue" stroke="midnightblue" points="374.918,-80.4272 364.407,-79.099 371.796,-86.6922 374.918,-80.4272"/>
</g>
<!-- Node14&#45;&gt;Node4 -->
<g id="edge18" class="edge"><title>Node14&#45;&gt;Node4</title>
<path fill="none" stroke="midnightblue" d="M377.401,-35.4194C379.686,-36.8837 381.901,-38.4122 384,-40 415.93,-64.1593 445.297,-101.281 460.38,-121.891"/>
<polygon fill="midnightblue" stroke="midnightblue" points="378.739,-32.1462 368.344,-30.1007 375.194,-38.1824 378.739,-32.1462"/>
</g>
</g>
</svg>
        <g id="navigator" transform="translate(0 0)" fill="#404254">
                <rect fill="#f2f5e9" fill-opacity="0.5" stroke="#606060" stroke-width=".5" x="0" y="0" width="60" height="60"/>
                <use id="zoomplus" xlink:href="#zoomPlus" x="17" y="9" onmousedown="handleZoom(evt,'in')"/>
                <use id="zoomminus" xlink:href="#zoomMin" x="42" y="9" onmousedown="handleZoom(evt,'out')"/>
                <use id="reset" xlink:href="#resetDef" x="30" y="36" onmousedown="handleReset()"/>
                <g id="arrowUp" xlink:href="#dirArrow" transform="translate(30 24)" onmousedown="handlePan(0,-1)">
                  <use xlink:href="#rim" fill="#404040">
                        <set attributeName="fill" to="#808080" begin="arrowUp.mouseover" end="arrowUp.mouseout"/>
                  </use>
                  <path fill="none" stroke="white" stroke-width="1.5" d="M0,-3.0v7 M-2.5,-0.5L0,-3.0L2.5,-0.5"/>
                </g>
                <g id="arrowRight" xlink:href="#dirArrow" transform="rotate(90) translate(36 -43)" onmousedown="handlePan(1,0)">
                  <use xlink:href="#rim" fill="#404040">
                        <set attributeName="fill" to="#808080" begin="arrowRight.mouseover" end="arrowRight.mouseout"/>
                  </use>
                  <path fill="none" stroke="white" stroke-width="1.5" d="M0,-3.0v7 M-2.5,-0.5L0,-3.0L2.5,-0.5"/>
                </g>
                <g id="arrowDown" xlink:href="#dirArrow" transform="rotate(180) translate(-30 -48)" onmousedown="handlePan(0,1)">
                  <use xlink:href="#rim" fill="#404040">
                        <set attributeName="fill" to="#808080" begin="arrowDown.mouseover" end="arrowDown.mouseout"/>
                  </use>
                  <path fill="none" stroke="white" stroke-width="1.5" d="M0,-3.0v7 M-2.5,-0.5L0,-3.0L2.5,-0.5"/>
                </g>
                <g id="arrowLeft" xlink:href="#dirArrow" transform="rotate(270) translate(-36 17)" onmousedown="handlePan(-1,0)">
                  <use xlink:href="#rim" fill="#404040">
                        <set attributeName="fill" to="#808080" begin="arrowLeft.mouseover" end="arrowLeft.mouseout"/>
                  </use>
                  <path fill="none" stroke="white" stroke-width="1.5" d="M0,-3.0v7 M-2.5,-0.5L0,-3.0L2.5,-0.5"/>
                </g>
        </g>
        <svg viewBox="0 0 15 15" width="100%" height="30px" preserveAspectRatio="xMaxYMin meet">
         <g id="arrow_out" transform="scale(0.3 0.3)">
          <a xlink:href="classmodule__cu__tiedtke_afec35de95e006b1899bc1564186e8702_icgraph_org.svg" target="_base">
           <rect id="button" ry="5" rx="5" y="6" x="6" height="38" width="38"
                fill="#f2f5e9" fill-opacity="0.5" stroke="#606060" stroke-width="1.0"/>
           <path id="arrow"
             d="M 11.500037,31.436501 C 11.940474,20.09759 22.043105,11.32322 32.158766,21.979434 L 37.068811,17.246167 C 37.068811,17.246167 37.088388,32 37.088388,32 L 22.160133,31.978069 C 22.160133,31.978069 26.997745,27.140456 26.997745,27.140456 C 18.528582,18.264221 13.291696,25.230495 11.500037,31.436501 z"
             style="fill:#404040;"/>
          </a>
         </g>
        </svg>
</svg>
