<?xml version="1.0" encoding="UTF-8" standalone="no"?>
<!DOCTYPE svg PUBLIC "-//W3C//DTD SVG 1.1//EN"
 "http://www.w3.org/Graphics/SVG/1.1/DTD/svg11.dtd">
<!-- Generated by graphviz version 2.38.0 (20140413.2041)
 -->
<!-- Title: planetary_boundary_layer::pbl_finalize Pages: 1 -->
<svg width="245pt" height="39pt"
 viewBox="0.00 0.00 245.00 39.00" xmlns="http://www.w3.org/2000/svg" xmlns:xlink="http://www.w3.org/1999/xlink">
<g id="graph0" class="graph" transform="scale(1 1) rotate(0) translate(4 35)">
<title>planetary_boundary_layer::pbl_finalize</title>
<polygon fill="white" stroke="none" points="-4,4 -4,-35 241,-35 241,4 -4,4"/>
<!-- Node1 -->
<g id="node1" class="node"><title>Node1</title>
<polygon fill="#bfbfbf" stroke="black" points="0,-0.5 0,-30.5 101,-30.5 101,-0.5 0,-0.5"/>
<text text-anchor="start" x="8" y="-18.5" font-family="Helvetica,sans-Serif" font-size="10.00">planetary_boundary</text>
<text text-anchor="middle" x="50.5" y="-7.5" font-family="Helvetica,sans-Serif" font-size="10.00">_layer::pbl_finalize</text>
</g>
<!-- Node2 -->
<g id="node2" class="node"><title>Node2</title>
<g id="a_node2"><a xlink:href="classpbl__simple.html#a6d6f20e09015f53e1d4d952b03bd909d" target="_top" xlink:title="pbl_simple::finalize\l_simple_pbl">
<polygon fill="white" stroke="black" points="137,-0.5 137,-30.5 237,-30.5 237,-0.5 137,-0.5"/>
<text text-anchor="start" x="145" y="-18.5" font-family="Helvetica,sans-Serif" font-size="10.00">pbl_simple::finalize</text>
<text text-anchor="middle" x="187" y="-7.5" font-family="Helvetica,sans-Serif" font-size="10.00">_simple_pbl</text>
</a>
</g>
</g>
<!-- Node1&#45;&gt;Node2 -->
<g id="edge1" class="edge"><title>Node1&#45;&gt;Node2</title>
<path fill="none" stroke="midnightblue" d="M101.201,-15.5C109.5,-15.5 118.183,-15.5 126.693,-15.5"/>
<polygon fill="midnightblue" stroke="midnightblue" points="126.952,-19.0001 136.952,-15.5 126.952,-12.0001 126.952,-19.0001"/>
</g>
</g>
</svg>
