<?xml version="1.0" encoding="UTF-8" standalone="no"?>
<!DOCTYPE svg PUBLIC "-//W3C//DTD SVG 1.1//EN"
 "http://www.w3.org/Graphics/SVG/1.1/DTD/svg11.dtd">
<!-- Generated by graphviz version 2.38.0 (20140413.2041)
 -->
<!-- Title: land_surface::calc_exchange_coefficient Pages: 1 -->
<svg width="587pt" height="103pt"
 viewBox="0.00 0.00 587.00 102.77" xmlns="http://www.w3.org/2000/svg" xmlns:xlink="http://www.w3.org/1999/xlink">
<g id="graph0" class="graph" transform="scale(1 1) rotate(0) translate(4 98.7679)">
<title>land_surface::calc_exchange_coefficient</title>
<polygon fill="white" stroke="none" points="-4,4 -4,-98.7679 583,-98.7679 583,4 -4,4"/>
<!-- Node1 -->
<g id="node1" class="node"><title>Node1</title>
<polygon fill="#bfbfbf" stroke="black" points="0,-49.5 0,-79.5 114,-79.5 114,-49.5 0,-49.5"/>
<text text-anchor="start" x="8" y="-67.5" font-family="Helvetica,sans-Serif" font-size="10.00">land_surface::calc</text>
<text text-anchor="middle" x="57" y="-56.5" font-family="Helvetica,sans-Serif" font-size="10.00">_exchange_coefficient</text>
</g>
<!-- Node2 -->
<g id="node2" class="node"><title>Node2</title>
<g id="a_node2"><a xlink:href="classland__surface.html#a5eda887fb43d0e56a673bbec669be5ad" target="_top" xlink:title="land_surface::lsm">
<polygon fill="white" stroke="black" points="297,-55 297,-74 391,-74 391,-55 297,-55"/>
<text text-anchor="middle" x="344" y="-62" font-family="Helvetica,sans-Serif" font-size="10.00">land_surface::lsm</text>
</a>
</g>
</g>
<!-- Node1&#45;&gt;Node2 -->
<g id="edge1" class="edge"><title>Node1&#45;&gt;Node2</title>
<path fill="none" stroke="midnightblue" d="M113.633,-82.1541C125.516,-85.2077 138.08,-87.9093 150,-89.5 198.9,-96.0257 212.206,-96.7729 261,-89.5 280.725,-86.5599 302.268,-79.848 318.32,-74.1185"/>
<polygon fill="midnightblue" stroke="midnightblue" points="114.406,-78.7378 103.84,-79.5228 112.589,-85.498 114.406,-78.7378"/>
</g>
<!-- Node5 -->
<g id="node5" class="node"><title>Node5</title>
<g id="a_node5"><a xlink:href="classmodule__lsm__simple.html#ae5b0abd9812d2312b5c80f9b2f02d17e" target="_top" xlink:title="module_lsm_simple::\llsm_simple">
<polygon fill="white" stroke="black" points="151,-49.5 151,-79.5 260,-79.5 260,-49.5 151,-49.5"/>
<text text-anchor="start" x="159" y="-67.5" font-family="Helvetica,sans-Serif" font-size="10.00">module_lsm_simple::</text>
<text text-anchor="middle" x="205.5" y="-56.5" font-family="Helvetica,sans-Serif" font-size="10.00">lsm_simple</text>
</a>
</g>
</g>
<!-- Node1&#45;&gt;Node5 -->
<g id="edge4" class="edge"><title>Node1&#45;&gt;Node5</title>
<path fill="none" stroke="midnightblue" d="M124.419,-64.5C133.184,-64.5 142.079,-64.5 150.599,-64.5"/>
<polygon fill="midnightblue" stroke="midnightblue" points="124.222,-61.0001 114.222,-64.5 124.222,-68.0001 124.222,-61.0001"/>
</g>
<!-- Node6 -->
<g id="node6" class="node"><title>Node6</title>
<g id="a_node6"><a xlink:href="classmodule__water__simple.html#ad47e405cb5cf58757fb5425337139251" target="_top" xlink:title="module_water_simple\l::water_simple">
<polygon fill="white" stroke="black" points="150,-0.5 150,-30.5 261,-30.5 261,-0.5 150,-0.5"/>
<text text-anchor="start" x="158" y="-18.5" font-family="Helvetica,sans-Serif" font-size="10.00">module_water_simple</text>
<text text-anchor="middle" x="205.5" y="-7.5" font-family="Helvetica,sans-Serif" font-size="10.00">::water_simple</text>
</a>
</g>
</g>
<!-- Node1&#45;&gt;Node6 -->
<g id="edge6" class="edge"><title>Node1&#45;&gt;Node6</title>
<path fill="none" stroke="midnightblue" d="M113.029,-46.0945C128.357,-40.9678 144.821,-35.4608 159.499,-30.5516"/>
<polygon fill="midnightblue" stroke="midnightblue" points="111.524,-42.9072 103.15,-49.3986 113.744,-49.5458 111.524,-42.9072"/>
</g>
<!-- Node3 -->
<g id="node3" class="node"><title>Node3</title>
<g id="a_node3"><a xlink:href="classtime__step.html#a2c022f11247af72e607b1493289aa974" target="_top" xlink:title=" Step forward one IO time step. ">
<polygon fill="white" stroke="black" points="427,-55 427,-74 511,-74 511,-55 427,-55"/>
<text text-anchor="middle" x="469" y="-62" font-family="Helvetica,sans-Serif" font-size="10.00">time_step::step</text>
</a>
</g>
</g>
<!-- Node2&#45;&gt;Node3 -->
<g id="edge2" class="edge"><title>Node2&#45;&gt;Node3</title>
<path fill="none" stroke="midnightblue" d="M401.191,-64.5C409.834,-64.5 418.618,-64.5 426.853,-64.5"/>
<polygon fill="midnightblue" stroke="midnightblue" points="401.151,-61.0001 391.151,-64.5 401.151,-68.0001 401.151,-61.0001"/>
</g>
<!-- Node4 -->
<g id="node4" class="node"><title>Node4</title>
<g id="a_node4"><a xlink:href="driver_8f90.html#ab1e5a5816a57fc6e95d9563c2bb53590" target="_top" xlink:title=" Main Program ">
<polygon fill="white" stroke="black" points="547,-55 547,-74 579,-74 579,-55 547,-55"/>
<text text-anchor="middle" x="563" y="-62" font-family="Helvetica,sans-Serif" font-size="10.00">icar</text>
</a>
</g>
</g>
<!-- Node3&#45;&gt;Node4 -->
<g id="edge3" class="edge"><title>Node3&#45;&gt;Node4</title>
<path fill="none" stroke="midnightblue" d="M521.253,-64.5C530.521,-64.5 539.5,-64.5 546.66,-64.5"/>
<polygon fill="midnightblue" stroke="midnightblue" points="521.156,-61.0001 511.156,-64.5 521.156,-68.0001 521.156,-61.0001"/>
</g>
<!-- Node5&#45;&gt;Node2 -->
<g id="edge5" class="edge"><title>Node5&#45;&gt;Node2</title>
<path fill="none" stroke="midnightblue" d="M270.094,-64.5C279.054,-64.5 288.122,-64.5 296.676,-64.5"/>
<polygon fill="midnightblue" stroke="midnightblue" points="270.057,-61.0001 260.057,-64.5 270.057,-68.0001 270.057,-61.0001"/>
</g>
<!-- Node6&#45;&gt;Node2 -->
<g id="edge7" class="edge"><title>Node6&#45;&gt;Node2</title>
<path fill="none" stroke="midnightblue" d="M258.112,-34.0272C277.943,-41.1463 299.771,-48.9818 316.326,-54.9246"/>
<polygon fill="midnightblue" stroke="midnightblue" points="259.163,-30.686 248.568,-30.6014 256.798,-37.2743 259.163,-30.686"/>
</g>
</g>
</svg>
