<?xml version="1.0" encoding="UTF-8" standalone="no"?>
<!DOCTYPE svg PUBLIC "-//W3C//DTD SVG 1.1//EN"
 "http://www.w3.org/Graphics/SVG/1.1/DTD/svg11.dtd">
<!-- Generated by graphviz version 2.32.0 (20130809.1645)
 -->
<!-- Title: module_ra_simple::ra_simple Pages: 1 -->
<!--zoomable 202 -->
<svg id="main" version="1.1" xmlns="http://www.w3.org/2000/svg" xmlns:xlink="http://www.w3.org/1999/xlink" xml:space="preserve" onload="init(evt)">
<style type="text/css"><![CDATA[
.edge:hover path { stroke: red; }
.edge:hover polygon { stroke: red; fill: red; }
]]></style>
<script type="text/javascript"><![CDATA[
var edges = document.getElementsByTagName('g');
if (edges && edges.length) {
  for (var i=0;i<edges.length;i++) {
    if (edges[i].id.substr(0,4)=='edge') {
      edges[i].setAttribute('class','edge');
    }
  }
}
]]></script>
        <defs>
                <circle id="rim" cx="0" cy="0" r="7"/>
                <circle id="rim2" cx="0" cy="0" r="3.5"/>
                <g id="zoomPlus">
                        <use xlink:href="#rim" fill="#404040">
                                <set attributeName="fill" to="#808080" begin="zoomplus.mouseover" end="zoomplus.mouseout"/>
                        </use>
                        <path d="M-4,0h8M0,-4v8" fill="none" stroke="white" stroke-width="1.5" pointer-events="none"/>
                </g>
                <g id="zoomMin">
                        <use xlink:href="#rim" fill="#404040">
                                <set attributeName="fill" to="#808080" begin="zoomminus.mouseover" end="zoomminus.mouseout"/>
                        </use>
                        <path d="M-4,0h8" fill="none" stroke="white" stroke-width="1.5" pointer-events="none"/>
                </g>
                <g id="dirArrow">
                        <path fill="none" stroke="white" stroke-width="1.5" d="M0,-3.0v7 M-2.5,-0.5L0,-3.0L2.5,-0.5"/>
                </g>
               <g id="resetDef">
                       <use xlink:href="#rim2" fill="#404040">
                               <set attributeName="fill" to="#808080" begin="reset.mouseover" end="reset.mouseout"/>
                       </use>
               </g>
        </defs>

<script type="text/javascript">
var viewWidth = 592;
var viewHeight = 202;
var sectionId = 'dynsection-4';
</script>
<script xlink:href="svgpan.js"/>
<svg id="graph" class="graph">
<g id="viewport">
<title>module_ra_simple::ra_simple</title>
<polygon fill="white" stroke="white" points="-4,5 -4,-198 589,-198 589,5 -4,5"/>
<!-- Node1 -->
<g id="node1" class="node"><title>Node1</title>
<polygon fill="#bfbfbf" stroke="black" points="0,-71 0,-101 110,-101 110,-71 0,-71"/>
<text text-anchor="start" x="8" y="-89" font-family="Helvetica,sans-Serif" font-size="10.00">module_ra_simple::ra</text>
<text text-anchor="middle" x="55" y="-78" font-family="Helvetica,sans-Serif" font-size="10.00">_simple</text>
</g>
<!-- Node2 -->
<g id="node2" class="node"><title>Node2</title>
<g id="a_node2"><a xlink:href="classmodule__ra__simple.html#a383e37e85086ad3fd8f2da8601d997d0" target="_top" xlink:title="module_ra_simple::relative\l_humidity">
<polygon fill="white" stroke="black" points="152.5,-164 152.5,-194 285.5,-194 285.5,-164 152.5,-164"/>
<text text-anchor="start" x="160.5" y="-182" font-family="Helvetica,sans-Serif" font-size="10.00">module_ra_simple::relative</text>
<text text-anchor="middle" x="219" y="-171" font-family="Helvetica,sans-Serif" font-size="10.00">_humidity</text>
</a>
</g>
</g>
<!-- Node1&#45;&gt;Node2 -->
<g id="edge1" class="edge"><title>Node1&#45;&gt;Node2</title>
<path fill="none" stroke="midnightblue" d="M72.494,-101.005C89.7626,-116.079 118.19,-139.144 146,-154 149.981,-156.127 154.179,-158.13 158.466,-160.006"/>
<polygon fill="midnightblue" stroke="midnightblue" points="157.364,-163.337 167.943,-163.906 160.028,-156.864 157.364,-163.337"/>
</g>
<!-- Node3 -->
<g id="node3" class="node"><title>Node3</title>
<g id="a_node3"><a xlink:href="classmodule__ra__simple.html#a4529da23ec7082aeafd82ffcad0e6e43" target="_top" xlink:title="module_ra_simple::calc\l_solar_elevation">
<polygon fill="white" stroke="black" points="159.5,-115 159.5,-145 278.5,-145 278.5,-115 159.5,-115"/>
<text text-anchor="start" x="167.5" y="-133" font-family="Helvetica,sans-Serif" font-size="10.00">module_ra_simple::calc</text>
<text text-anchor="middle" x="219" y="-122" font-family="Helvetica,sans-Serif" font-size="10.00">_solar_elevation</text>
</a>
</g>
</g>
<!-- Node1&#45;&gt;Node3 -->
<g id="edge2" class="edge"><title>Node1&#45;&gt;Node3</title>
<path fill="none" stroke="midnightblue" d="M110.394,-100.774C124.062,-104.486 138.866,-108.507 152.994,-112.344"/>
<polygon fill="midnightblue" stroke="midnightblue" points="152.077,-115.722 162.644,-114.965 153.911,-108.966 152.077,-115.722"/>
</g>
<!-- Node7 -->
<g id="node7" class="node"><title>Node7</title>
<g id="a_node7"><a xlink:href="classmodule__ra__simple.html#af96b45b6aa6ee7f751648e8edb2eff97" target="_top" xlink:title="module_ra_simple::cloudfrac">
<polygon fill="white" stroke="black" points="148.5,-76.5 148.5,-95.5 289.5,-95.5 289.5,-76.5 148.5,-76.5"/>
<text text-anchor="middle" x="219" y="-83.5" font-family="Helvetica,sans-Serif" font-size="10.00">module_ra_simple::cloudfrac</text>
</a>
</g>
</g>
<!-- Node1&#45;&gt;Node7 -->
<g id="edge6" class="edge"><title>Node1&#45;&gt;Node7</title>
<path fill="none" stroke="midnightblue" d="M110.394,-86C119.305,-86 128.698,-86 138.073,-86"/>
<polygon fill="midnightblue" stroke="midnightblue" points="138.214,-89.5001 148.214,-86 138.214,-82.5001 138.214,-89.5001"/>
</g>
<!-- Node8 -->
<g id="node8" class="node"><title>Node8</title>
<g id="a_node8"><a xlink:href="classmodule__ra__simple.html#a9fdfe8ded9ed1a2131513bf2d17db5e6" target="_top" xlink:title="module_ra_simple::shortwave">
<polygon fill="white" stroke="black" points="146,-38.5 146,-57.5 292,-57.5 292,-38.5 146,-38.5"/>
<text text-anchor="middle" x="219" y="-45.5" font-family="Helvetica,sans-Serif" font-size="10.00">module_ra_simple::shortwave</text>
</a>
</g>
</g>
<!-- Node1&#45;&gt;Node8 -->
<g id="edge7" class="edge"><title>Node1&#45;&gt;Node8</title>
<path fill="none" stroke="midnightblue" d="M110.394,-73.2408C128.853,-68.9111 149.385,-64.0949 167.525,-59.8398"/>
<polygon fill="midnightblue" stroke="midnightblue" points="168.392,-63.2316 177.328,-57.5403 166.793,-56.4166 168.392,-63.2316"/>
</g>
<!-- Node9 -->
<g id="node9" class="node"><title>Node9</title>
<g id="a_node9"><a xlink:href="classmodule__ra__simple.html#ac17356062eed2cca6633da58b0899d09" target="_top" xlink:title="module_ra_simple::longwave">
<polygon fill="white" stroke="black" points="147.5,-0.5 147.5,-19.5 290.5,-19.5 290.5,-0.5 147.5,-0.5"/>
<text text-anchor="middle" x="219" y="-7.5" font-family="Helvetica,sans-Serif" font-size="10.00">module_ra_simple::longwave</text>
</a>
</g>
</g>
<!-- Node1&#45;&gt;Node9 -->
<g id="edge8" class="edge"><title>Node1&#45;&gt;Node9</title>
<path fill="none" stroke="midnightblue" d="M75.7338,-70.9864C93.3349,-58.2265 120.232,-40.2391 146,-29 151.466,-26.616 157.299,-24.4744 163.191,-22.565"/>
<polygon fill="midnightblue" stroke="midnightblue" points="164.545,-25.8122 173.105,-19.5693 162.52,-19.1114 164.545,-25.8122"/>
</g>
<!-- Node4 -->
<g id="node4" class="node"><title>Node4</title>
<g id="a_node4"><a xlink:href="classtime.html#adfcbe10943e169e25a9ee15ddb3ce70b" target="_top" xlink:title="time::calc_day_of_year">
<polygon fill="white" stroke="black" points="328,-120.5 328,-139.5 446,-139.5 446,-120.5 328,-120.5"/>
<text text-anchor="middle" x="387" y="-127.5" font-family="Helvetica,sans-Serif" font-size="10.00">time::calc_day_of_year</text>
</a>
</g>
</g>
<!-- Node3&#45;&gt;Node4 -->
<g id="edge3" class="edge"><title>Node3&#45;&gt;Node4</title>
<path fill="none" stroke="midnightblue" d="M278.525,-130C291.12,-130 304.541,-130 317.478,-130"/>
<polygon fill="midnightblue" stroke="midnightblue" points="317.724,-133.5 327.724,-130 317.723,-126.5 317.724,-133.5"/>
</g>
<!-- Node5 -->
<g id="node5" class="node"><title>Node5</title>
<g id="a_node5"><a xlink:href="classtime.html#a8736f37f83c6d8f62957c70df2239693" target="_top" xlink:title="time::calendar_date">
<polygon fill="white" stroke="black" points="482,-139.5 482,-158.5 584,-158.5 584,-139.5 482,-139.5"/>
<text text-anchor="middle" x="533" y="-146.5" font-family="Helvetica,sans-Serif" font-size="10.00">time::calendar_date</text>
</a>
</g>
</g>
<!-- Node4&#45;&gt;Node5 -->
<g id="edge4" class="edge"><title>Node4&#45;&gt;Node5</title>
<path fill="none" stroke="midnightblue" d="M446.155,-137.673C454.683,-138.798 463.48,-139.959 472.043,-141.089"/>
<polygon fill="midnightblue" stroke="midnightblue" points="471.586,-144.559 481.958,-142.397 472.502,-137.619 471.586,-144.559"/>
</g>
<!-- Node6 -->
<g id="node6" class="node"><title>Node6</title>
<g id="a_node6"><a xlink:href="classtime.html#a22e63418fe5d559327ca090619d097e0" target="_top" xlink:title="time::date_to_mjd">
<polygon fill="white" stroke="black" points="485.5,-101.5 485.5,-120.5 580.5,-120.5 580.5,-101.5 485.5,-101.5"/>
<text text-anchor="middle" x="533" y="-108.5" font-family="Helvetica,sans-Serif" font-size="10.00">time::date_to_mjd</text>
</a>
</g>
</g>
<!-- Node4&#45;&gt;Node6 -->
<g id="edge5" class="edge"><title>Node4&#45;&gt;Node6</title>
<path fill="none" stroke="midnightblue" d="M446.155,-122.327C455.671,-121.071 465.522,-119.771 475.009,-118.52"/>
<polygon fill="midnightblue" stroke="midnightblue" points="475.671,-121.963 485.128,-117.185 474.756,-115.023 475.671,-121.963"/>
</g>
</g>
</svg>
        <g id="navigator" transform="translate(0 0)" fill="#404254">
                <rect fill="#f2f5e9" fill-opacity="0.5" stroke="#606060" stroke-width=".5" x="0" y="0" width="60" height="60"/>
                <use id="zoomplus" xlink:href="#zoomPlus" x="17" y="9" onmousedown="handleZoom(evt,'in')"/>
                <use id="zoomminus" xlink:href="#zoomMin" x="42" y="9" onmousedown="handleZoom(evt,'out')"/>
                <use id="reset" xlink:href="#resetDef" x="30" y="36" onmousedown="handleReset()"/>
                <g id="arrowUp" xlink:href="#dirArrow" transform="translate(30 24)" onmousedown="handlePan(0,-1)">
                  <use xlink:href="#rim" fill="#404040">
                        <set attributeName="fill" to="#808080" begin="arrowUp.mouseover" end="arrowUp.mouseout"/>
                  </use>
                  <path fill="none" stroke="white" stroke-width="1.5" d="M0,-3.0v7 M-2.5,-0.5L0,-3.0L2.5,-0.5"/>
                </g>
                <g id="arrowRight" xlink:href="#dirArrow" transform="rotate(90) translate(36 -43)" onmousedown="handlePan(1,0)">
                  <use xlink:href="#rim" fill="#404040">
                        <set attributeName="fill" to="#808080" begin="arrowRight.mouseover" end="arrowRight.mouseout"/>
                  </use>
                  <path fill="none" stroke="white" stroke-width="1.5" d="M0,-3.0v7 M-2.5,-0.5L0,-3.0L2.5,-0.5"/>
                </g>
                <g id="arrowDown" xlink:href="#dirArrow" transform="rotate(180) translate(-30 -48)" onmousedown="handlePan(0,1)">
                  <use xlink:href="#rim" fill="#404040">
                        <set attributeName="fill" to="#808080" begin="arrowDown.mouseover" end="arrowDown.mouseout"/>
                  </use>
                  <path fill="none" stroke="white" stroke-width="1.5" d="M0,-3.0v7 M-2.5,-0.5L0,-3.0L2.5,-0.5"/>
                </g>
                <g id="arrowLeft" xlink:href="#dirArrow" transform="rotate(270) translate(-36 17)" onmousedown="handlePan(-1,0)">
                  <use xlink:href="#rim" fill="#404040">
                        <set attributeName="fill" to="#808080" begin="arrowLeft.mouseover" end="arrowLeft.mouseout"/>
                  </use>
                  <path fill="none" stroke="white" stroke-width="1.5" d="M0,-3.0v7 M-2.5,-0.5L0,-3.0L2.5,-0.5"/>
                </g>
        </g>
        <svg viewBox="0 0 15 15" width="100%" height="30px" preserveAspectRatio="xMaxYMin meet">
         <g id="arrow_out" transform="scale(0.3 0.3)">
          <a xlink:href="classmodule__ra__simple_ad1c74605b2817f833d31e806f791e246_cgraph_org.svg" target="_base">
           <rect id="button" ry="5" rx="5" y="6" x="6" height="38" width="38"
                fill="#f2f5e9" fill-opacity="0.5" stroke="#606060" stroke-width="1.0"/>
           <path id="arrow"
             d="M 11.500037,31.436501 C 11.940474,20.09759 22.043105,11.32322 32.158766,21.979434 L 37.068811,17.246167 C 37.068811,17.246167 37.088388,32 37.088388,32 L 22.160133,31.978069 C 22.160133,31.978069 26.997745,27.140456 26.997745,27.140456 C 18.528582,18.264221 13.291696,25.230495 11.500037,31.436501 z"
             style="fill:#404040;"/>
          </a>
         </g>
        </svg>
</svg>
