<?xml version="1.0" encoding="UTF-8" standalone="no"?>
<!DOCTYPE svg PUBLIC "-//W3C//DTD SVG 1.1//EN"
 "http://www.w3.org/Graphics/SVG/1.1/DTD/svg11.dtd">
<!-- Generated by graphviz version 2.38.0 (20140413.2041)
 -->
<!-- Title: module_mp_simple::mp_simple Pages: 1 -->
<svg width="679pt" height="204pt"
 viewBox="0.00 0.00 679.00 203.50" xmlns="http://www.w3.org/2000/svg" xmlns:xlink="http://www.w3.org/1999/xlink">
<g id="graph0" class="graph" transform="scale(1 1) rotate(0) translate(4 199.5)">
<title>module_mp_simple::mp_simple</title>
<polygon fill="white" stroke="none" points="-4,4 -4,-199.5 675,-199.5 675,4 -4,4"/>
<!-- Node1 -->
<g id="node1" class="node"><title>Node1</title>
<polygon fill="#bfbfbf" stroke="black" points="0,-52 0,-82 120,-82 120,-52 0,-52"/>
<text text-anchor="start" x="8" y="-70" font-family="Helvetica,sans-Serif" font-size="10.00">module_mp_simple::mp</text>
<text text-anchor="middle" x="60" y="-59" font-family="Helvetica,sans-Serif" font-size="10.00">_simple</text>
</g>
<!-- Node2 -->
<g id="node2" class="node"><title>Node2</title>
<g id="a_node2"><a xlink:href="classmodule__mp__simple.html#afa657f819d93fc905ac898e46b0551ce" target="_top" xlink:title=" Compute microphysical conversions ">
<polygon fill="white" stroke="black" points="169,-119 169,-149 289,-149 289,-119 169,-119"/>
<text text-anchor="start" x="177" y="-137" font-family="Helvetica,sans-Serif" font-size="10.00">module_mp_simple::mp</text>
<text text-anchor="middle" x="229" y="-126" font-family="Helvetica,sans-Serif" font-size="10.00">_conversions</text>
</a>
</g>
</g>
<!-- Node1&#45;&gt;Node2 -->
<g id="edge1" class="edge"><title>Node1&#45;&gt;Node2</title>
<path fill="none" stroke="midnightblue" d="M98.4781,-82.0361C122.888,-91.8292 154.928,-104.684 181.034,-115.157"/>
<polygon fill="midnightblue" stroke="midnightblue" points="179.774,-118.423 190.358,-118.898 182.381,-111.926 179.774,-118.423"/>
</g>
<!-- Node4 -->
<g id="node4" class="node"><title>Node4</title>
<g id="a_node4"><a xlink:href="classland__surface.html#ab611d871ec5af4909055c4484c2695e9" target="_top" xlink:title="land_surface::sat_mr">
<polygon fill="white" stroke="black" points="563,-104.5 563,-123.5 671,-123.5 671,-104.5 563,-104.5"/>
<text text-anchor="middle" x="617" y="-111.5" font-family="Helvetica,sans-Serif" font-size="10.00">land_surface::sat_mr</text>
</a>
</g>
</g>
<!-- Node1&#45;&gt;Node4 -->
<g id="edge7" class="edge"><title>Node1&#45;&gt;Node4</title>
<path fill="none" stroke="midnightblue" d="M120.215,-58.0257C209.806,-46.4414 384.473,-31.6779 527,-67 551.614,-73.1 576.923,-87.3883 594.228,-98.6207"/>
<polygon fill="midnightblue" stroke="midnightblue" points="592.709,-101.815 602.964,-104.475 596.606,-96.0004 592.709,-101.815"/>
</g>
<!-- Node6 -->
<g id="node6" class="node"><title>Node6</title>
<g id="a_node6"><a xlink:href="classmodule__mp__simple.html#aaf815931c9bfa8e29cd64e1133e8ac4d" target="_top" xlink:title=" Change the &quot;phase&quot; of a hydrometeor (e.g. evaporate rain) ">
<polygon fill="white" stroke="black" points="366,-77 366,-107 499,-107 499,-77 366,-77"/>
<text text-anchor="start" x="374" y="-95" font-family="Helvetica,sans-Serif" font-size="10.00">module_mp_simple::phase</text>
<text text-anchor="middle" x="432.5" y="-84" font-family="Helvetica,sans-Serif" font-size="10.00">_change</text>
</a>
</g>
</g>
<!-- Node1&#45;&gt;Node6 -->
<g id="edge8" class="edge"><title>Node1&#45;&gt;Node6</title>
<path fill="none" stroke="midnightblue" d="M120.117,-70.989C183.986,-75.2987 285.951,-82.1789 355.677,-86.8837"/>
<polygon fill="midnightblue" stroke="midnightblue" points="355.509,-90.3803 365.722,-87.5616 355.981,-83.3962 355.509,-90.3803"/>
</g>
<!-- Node7 -->
<g id="node7" class="node"><title>Node7</title>
<g id="a_node7"><a xlink:href="classmodule__mp__simple.html#a555961f80b8e520a047abf3220b1e6df" target="_top" xlink:title=" Compute sedimentation in a column ">
<polygon fill="white" stroke="black" points="156,-0.5 156,-19.5 302,-19.5 302,-0.5 156,-0.5"/>
<text text-anchor="middle" x="229" y="-7.5" font-family="Helvetica,sans-Serif" font-size="10.00">module_mp_simple::sediment</text>
</a>
</g>
</g>
<!-- Node1&#45;&gt;Node7 -->
<g id="edge6" class="edge"><title>Node1&#45;&gt;Node7</title>
<path fill="none" stroke="midnightblue" d="M103.996,-51.9363C120.272,-46.2678 138.975,-39.7941 156,-34 166.792,-30.3272 178.512,-26.3958 189.302,-22.8001"/>
<polygon fill="midnightblue" stroke="midnightblue" points="190.511,-26.0865 198.895,-19.6093 188.301,-19.4443 190.511,-26.0865"/>
</g>
<!-- Node3 -->
<g id="node3" class="node"><title>Node3</title>
<g id="a_node3"><a xlink:href="classmodule__mp__simple.html#aa0106ae6c82c8b14c49b4afd1871e12b" target="_top" xlink:title=" Convert cloud water to vapor and back ">
<polygon fill="white" stroke="black" points="367.5,-165 367.5,-195 497.5,-195 497.5,-165 367.5,-165"/>
<text text-anchor="start" x="375.5" y="-183" font-family="Helvetica,sans-Serif" font-size="10.00">module_mp_simple::cloud</text>
<text text-anchor="middle" x="432.5" y="-172" font-family="Helvetica,sans-Serif" font-size="10.00">_conversion</text>
</a>
</g>
</g>
<!-- Node2&#45;&gt;Node3 -->
<g id="edge2" class="edge"><title>Node2&#45;&gt;Node3</title>
<path fill="none" stroke="midnightblue" d="M289.095,-147.491C310.54,-152.386 335.042,-157.98 357.605,-163.131"/>
<polygon fill="midnightblue" stroke="midnightblue" points="356.95,-166.571 367.478,-165.385 358.508,-159.747 356.95,-166.571"/>
</g>
<!-- Node5 -->
<g id="node5" class="node"><title>Node5</title>
<g id="a_node5"><a xlink:href="classmodule__mp__simple.html#a012afbddb9dca5c40bc5bfbe63b275c8" target="_top" xlink:title=" Convert cloud water or ice to rain or snow ">
<polygon fill="white" stroke="black" points="338,-126.5 338,-145.5 527,-145.5 527,-126.5 338,-126.5"/>
<text text-anchor="middle" x="432.5" y="-133.5" font-family="Helvetica,sans-Serif" font-size="10.00">module_mp_simple::cloud2hydrometeor</text>
</a>
</g>
</g>
<!-- Node2&#45;&gt;Node5 -->
<g id="edge4" class="edge"><title>Node2&#45;&gt;Node5</title>
<path fill="none" stroke="midnightblue" d="M289.095,-134.587C301.31,-134.708 314.517,-134.839 327.792,-134.971"/>
<polygon fill="midnightblue" stroke="midnightblue" points="327.907,-138.472 337.942,-135.071 327.977,-131.472 327.907,-138.472"/>
</g>
<!-- Node2&#45;&gt;Node6 -->
<g id="edge5" class="edge"><title>Node2&#45;&gt;Node6</title>
<path fill="none" stroke="midnightblue" d="M289.095,-121.682C309.941,-117.337 333.674,-112.391 355.708,-107.798"/>
<polygon fill="midnightblue" stroke="midnightblue" points="356.62,-111.183 365.695,-105.716 355.191,-104.33 356.62,-111.183"/>
</g>
<!-- Node3&#45;&gt;Node4 -->
<g id="edge3" class="edge"><title>Node3&#45;&gt;Node4</title>
<path fill="none" stroke="midnightblue" d="M495.572,-164.998C506.154,-161.987 516.964,-158.623 527,-155 548.197,-147.347 571.287,-136.636 588.636,-128.081"/>
<polygon fill="midnightblue" stroke="midnightblue" points="590.255,-131.185 597.635,-123.583 587.126,-124.923 590.255,-131.185"/>
</g>
</g>
</svg>
