<?xml version="1.0" encoding="UTF-8" standalone="no"?>
<!DOCTYPE svg PUBLIC "-//W3C//DTD SVG 1.1//EN"
 "http://www.w3.org/Graphics/SVG/1.1/DTD/svg11.dtd">
<!-- Generated by graphviz version 2.38.0 (20140413.2041)
 -->
<!-- Title: module_cu_kf::kfpara Pages: 1 -->
<!--zoomable 355 -->
<svg id="main" version="1.1" xmlns="http://www.w3.org/2000/svg" xmlns:xlink="http://www.w3.org/1999/xlink" xml:space="preserve" onload="init(evt)">
<style type="text/css"><![CDATA[
.edge:hover path { stroke: red; }
.edge:hover polygon { stroke: red; fill: red; }
]]></style>
<script type="text/javascript"><![CDATA[
var edges = document.getElementsByTagName('g');
if (edges && edges.length) {
  for (var i=0;i<edges.length;i++) {
    if (edges[i].id.substr(0,4)=='edge') {
      edges[i].setAttribute('class','edge');
    }
  }
}
]]></script>
        <defs>
                <circle id="rim" cx="0" cy="0" r="7"/>
                <circle id="rim2" cx="0" cy="0" r="3.5"/>
                <g id="zoomPlus">
                        <use xlink:href="#rim" fill="#404040">
                                <set attributeName="fill" to="#808080" begin="zoomplus.mouseover" end="zoomplus.mouseout"/>
                        </use>
                        <path d="M-4,0h8M0,-4v8" fill="none" stroke="white" stroke-width="1.5" pointer-events="none"/>
                </g>
                <g id="zoomMin">
                        <use xlink:href="#rim" fill="#404040">
                                <set attributeName="fill" to="#808080" begin="zoomminus.mouseover" end="zoomminus.mouseout"/>
                        </use>
                        <path d="M-4,0h8" fill="none" stroke="white" stroke-width="1.5" pointer-events="none"/>
                </g>
                <g id="dirArrow">
                        <path fill="none" stroke="white" stroke-width="1.5" d="M0,-3.0v7 M-2.5,-0.5L0,-3.0L2.5,-0.5"/>
                </g>
               <g id="resetDef">
                       <use xlink:href="#rim2" fill="#404040">
                               <set attributeName="fill" to="#808080" begin="reset.mouseover" end="reset.mouseout"/>
                       </use>
               </g>
        </defs>

<script type="text/javascript">
var viewWidth = 896;
var viewHeight = 355;
var sectionId = 'dynsection-6';
</script>
<script xlink:href="svgpan.js"/>
<svg id="graph" class="graph">
<g id="viewport">
<title>module_cu_kf::kfpara</title>
<polygon fill="white" stroke="none" points="-4,4 -4,-350.5 892,-350.5 892,4 -4,4"/>
<!-- Node1 -->
<g id="node1" class="node"><title>Node1</title>
<polygon fill="#bfbfbf" stroke="black" points="0,-114.5 0,-133.5 110,-133.5 110,-114.5 0,-114.5"/>
<text text-anchor="middle" x="55" y="-121.5" font-family="Helvetica,sans-Serif" font-size="10.00">module_cu_kf::kfpara</text>
</g>
<!-- Node2 -->
<g id="node2" class="node"><title>Node2</title>
<g id="a_node2"><a xlink:href="classradiation.html#aba1a06d27af96fe11d576458c8ccfe77" target="_top" xlink:title="radiation::rad">
<polygon fill="white" stroke="black" points="170.5,-228.5 170.5,-247.5 243.5,-247.5 243.5,-228.5 170.5,-228.5"/>
<text text-anchor="middle" x="207" y="-235.5" font-family="Helvetica,sans-Serif" font-size="10.00">radiation::rad</text>
</a>
</g>
</g>
<!-- Node1&#45;&gt;Node2 -->
<g id="edge1" class="edge"><title>Node1&#45;&gt;Node2</title>
<path fill="none" stroke="midnightblue" d="M62.4994,-133.606C75.8875,-152.673 108.454,-195.484 146,-219 150.63,-221.9 155.74,-224.392 160.967,-226.525"/>
<polygon fill="midnightblue" stroke="midnightblue" points="159.827,-229.834 170.42,-229.986 162.233,-223.261 159.827,-229.834"/>
</g>
<!-- Node12 -->
<g id="node12" class="node"><title>Node12</title>
<g id="a_node12"><a xlink:href="classmodule__cu__kf.html#a14ba09c3fd0b8b15dda4ad48569cdf66" target="_top" xlink:title="module_cu_kf::tpmix">
<polygon fill="white" stroke="black" points="153.5,-190.5 153.5,-209.5 260.5,-209.5 260.5,-190.5 153.5,-190.5"/>
<text text-anchor="middle" x="207" y="-197.5" font-family="Helvetica,sans-Serif" font-size="10.00">module_cu_kf::tpmix</text>
</a>
</g>
</g>
<!-- Node1&#45;&gt;Node12 -->
<g id="edge11" class="edge"><title>Node1&#45;&gt;Node12</title>
<path fill="none" stroke="midnightblue" d="M68.8061,-133.618C85.7314,-145.968 116.824,-167.42 146,-181 150.708,-183.192 155.737,-185.224 160.804,-187.082"/>
<polygon fill="midnightblue" stroke="midnightblue" points="159.928,-190.482 170.523,-190.433 162.21,-183.864 159.928,-190.482"/>
</g>
<!-- Node13 -->
<g id="node13" class="node"><title>Node13</title>
<g id="a_node13"><a xlink:href="classmodule__cu__kf.html#af2327f26de87db52430520eba8535bbb" target="_top" xlink:title="module_cu_kf::condload">
<polygon fill="white" stroke="black" points="146,-152.5 146,-171.5 268,-171.5 268,-152.5 146,-152.5"/>
<text text-anchor="middle" x="207" y="-159.5" font-family="Helvetica,sans-Serif" font-size="10.00">module_cu_kf::condload</text>
</a>
</g>
</g>
<!-- Node1&#45;&gt;Node13 -->
<g id="edge12" class="edge"><title>Node1&#45;&gt;Node13</title>
<path fill="none" stroke="midnightblue" d="M93.8513,-133.589C113.467,-138.558 137.619,-144.677 158.479,-149.961"/>
<polygon fill="midnightblue" stroke="midnightblue" points="157.868,-153.417 168.421,-152.48 159.587,-146.631 157.868,-153.417"/>
</g>
<!-- Node14 -->
<g id="node14" class="node"><title>Node14</title>
<g id="a_node14"><a xlink:href="classmodule__cu__kf.html#ab12ebce72807d1f9ae2e754c0119e881" target="_top" xlink:title="module_cu_kf::dtfrznew">
<polygon fill="white" stroke="black" points="146.5,-114.5 146.5,-133.5 267.5,-133.5 267.5,-114.5 146.5,-114.5"/>
<text text-anchor="middle" x="207" y="-121.5" font-family="Helvetica,sans-Serif" font-size="10.00">module_cu_kf::dtfrznew</text>
</a>
</g>
</g>
<!-- Node1&#45;&gt;Node14 -->
<g id="edge13" class="edge"><title>Node1&#45;&gt;Node14</title>
<path fill="none" stroke="midnightblue" d="M110.153,-124C118.598,-124 127.425,-124 136.158,-124"/>
<polygon fill="midnightblue" stroke="midnightblue" points="136.339,-127.5 146.339,-124 136.339,-120.5 136.339,-127.5"/>
</g>
<!-- Node15 -->
<g id="node15" class="node"><title>Node15</title>
<g id="a_node15"><a xlink:href="classmodule__cu__kf.html#a4d1c66ccc19c619ff0c10b45a4ce2f68" target="_top" xlink:title="module_cu_kf::envirtht">
<polygon fill="white" stroke="black" points="149,-76.5 149,-95.5 265,-95.5 265,-76.5 149,-76.5"/>
<text text-anchor="middle" x="207" y="-83.5" font-family="Helvetica,sans-Serif" font-size="10.00">module_cu_kf::envirtht</text>
</a>
</g>
</g>
<!-- Node1&#45;&gt;Node15 -->
<g id="edge14" class="edge"><title>Node1&#45;&gt;Node15</title>
<path fill="none" stroke="midnightblue" d="M93.8513,-114.411C113.467,-109.442 137.619,-103.323 158.479,-98.0387"/>
<polygon fill="midnightblue" stroke="midnightblue" points="159.587,-101.369 168.421,-95.5201 157.868,-94.5831 159.587,-101.369"/>
</g>
<!-- Node16 -->
<g id="node16" class="node"><title>Node16</title>
<g id="a_node16"><a xlink:href="classmodule__cu__kf.html#a64f684eda86f23948eb433686ce76baa" target="_top" xlink:title="module_cu_kf::prof5">
<polygon fill="white" stroke="black" points="154.5,-38.5 154.5,-57.5 259.5,-57.5 259.5,-38.5 154.5,-38.5"/>
<text text-anchor="middle" x="207" y="-45.5" font-family="Helvetica,sans-Serif" font-size="10.00">module_cu_kf::prof5</text>
</a>
</g>
</g>
<!-- Node1&#45;&gt;Node16 -->
<g id="edge15" class="edge"><title>Node1&#45;&gt;Node16</title>
<path fill="none" stroke="midnightblue" d="M68.8061,-114.382C85.7314,-102.032 116.824,-80.5798 146,-67 150.708,-64.8085 155.737,-62.7758 160.804,-60.9184"/>
<polygon fill="midnightblue" stroke="midnightblue" points="162.21,-64.136 170.523,-57.5672 159.928,-57.5184 162.21,-64.136"/>
</g>
<!-- Node17 -->
<g id="node17" class="node"><title>Node17</title>
<g id="a_node17"><a xlink:href="classmodule__cu__kf.html#a140e3e31016a2be359bc0f8ac9c800d3" target="_top" xlink:title="module_cu_kf::tpdd">
<polygon fill="white" stroke="black" points="156,-0.5 156,-19.5 258,-19.5 258,-0.5 156,-0.5"/>
<text text-anchor="middle" x="207" y="-7.5" font-family="Helvetica,sans-Serif" font-size="10.00">module_cu_kf::tpdd</text>
</a>
</g>
</g>
<!-- Node1&#45;&gt;Node17 -->
<g id="edge16" class="edge"><title>Node1&#45;&gt;Node17</title>
<path fill="none" stroke="midnightblue" d="M62.4994,-114.394C75.8875,-95.3272 108.454,-52.5158 146,-29 149.342,-26.9066 152.935,-25.0259 156.641,-23.3394"/>
<polygon fill="midnightblue" stroke="midnightblue" points="158.058,-26.5413 166.008,-19.5369 155.425,-20.0554 158.058,-26.5413"/>
</g>
<!-- Node3 -->
<g id="node3" class="node"><title>Node3</title>
<g id="a_node3"><a xlink:href="classmodule__ra__simple.html#ad1c74605b2817f833d31e806f791e246" target="_top" xlink:title="module_ra_simple::ra\l_simple">
<polygon fill="white" stroke="black" points="304,-223 304,-253 414,-253 414,-223 304,-223"/>
<text text-anchor="start" x="312" y="-241" font-family="Helvetica,sans-Serif" font-size="10.00">module_ra_simple::ra</text>
<text text-anchor="middle" x="359" y="-230" font-family="Helvetica,sans-Serif" font-size="10.00">_simple</text>
</a>
</g>
</g>
<!-- Node2&#45;&gt;Node3 -->
<g id="edge2" class="edge"><title>Node2&#45;&gt;Node3</title>
<path fill="none" stroke="midnightblue" d="M243.548,-238C258.612,-238 276.643,-238 293.89,-238"/>
<polygon fill="midnightblue" stroke="midnightblue" points="293.926,-241.5 303.926,-238 293.926,-234.5 293.926,-241.5"/>
</g>
<!-- Node4 -->
<g id="node4" class="node"><title>Node4</title>
<g id="a_node4"><a xlink:href="classmodule__ra__simple.html#a383e37e85086ad3fd8f2da8601d997d0" target="_top" xlink:title="module_ra_simple::relative\l_humidity">
<polygon fill="white" stroke="black" points="456.5,-316 456.5,-346 589.5,-346 589.5,-316 456.5,-316"/>
<text text-anchor="start" x="464.5" y="-334" font-family="Helvetica,sans-Serif" font-size="10.00">module_ra_simple::relative</text>
<text text-anchor="middle" x="523" y="-323" font-family="Helvetica,sans-Serif" font-size="10.00">_humidity</text>
</a>
</g>
</g>
<!-- Node3&#45;&gt;Node4 -->
<g id="edge3" class="edge"><title>Node3&#45;&gt;Node4</title>
<path fill="none" stroke="midnightblue" d="M376.096,-253.029C393.269,-268.388 421.826,-292.048 450,-307 453.437,-308.824 457.039,-310.547 460.723,-312.167"/>
<polygon fill="midnightblue" stroke="midnightblue" points="459.419,-315.415 469.999,-315.983 462.082,-308.942 459.419,-315.415"/>
</g>
<!-- Node5 -->
<g id="node5" class="node"><title>Node5</title>
<g id="a_node5"><a xlink:href="classmodule__ra__simple.html#a4529da23ec7082aeafd82ffcad0e6e43" target="_top" xlink:title="module_ra_simple::calc\l_solar_elevation">
<polygon fill="white" stroke="black" points="463.5,-267 463.5,-297 582.5,-297 582.5,-267 463.5,-267"/>
<text text-anchor="start" x="471.5" y="-285" font-family="Helvetica,sans-Serif" font-size="10.00">module_ra_simple::calc</text>
<text text-anchor="middle" x="523" y="-274" font-family="Helvetica,sans-Serif" font-size="10.00">_solar_elevation</text>
</a>
</g>
</g>
<!-- Node3&#45;&gt;Node5 -->
<g id="edge4" class="edge"><title>Node3&#45;&gt;Node5</title>
<path fill="none" stroke="midnightblue" d="M414.394,-252.774C428.062,-256.486 442.866,-260.507 456.994,-264.344"/>
<polygon fill="midnightblue" stroke="midnightblue" points="456.077,-267.722 466.644,-266.965 457.911,-260.966 456.077,-267.722"/>
</g>
<!-- Node9 -->
<g id="node9" class="node"><title>Node9</title>
<g id="a_node9"><a xlink:href="classmodule__ra__simple.html#af96b45b6aa6ee7f751648e8edb2eff97" target="_top" xlink:title="module_ra_simple::cloudfrac">
<polygon fill="white" stroke="black" points="452.5,-228.5 452.5,-247.5 593.5,-247.5 593.5,-228.5 452.5,-228.5"/>
<text text-anchor="middle" x="523" y="-235.5" font-family="Helvetica,sans-Serif" font-size="10.00">module_ra_simple::cloudfrac</text>
</a>
</g>
</g>
<!-- Node3&#45;&gt;Node9 -->
<g id="edge8" class="edge"><title>Node3&#45;&gt;Node9</title>
<path fill="none" stroke="midnightblue" d="M414.394,-238C423.305,-238 432.698,-238 442.073,-238"/>
<polygon fill="midnightblue" stroke="midnightblue" points="442.214,-241.5 452.214,-238 442.214,-234.5 442.214,-241.5"/>
</g>
<!-- Node10 -->
<g id="node10" class="node"><title>Node10</title>
<g id="a_node10"><a xlink:href="classmodule__ra__simple.html#a9fdfe8ded9ed1a2131513bf2d17db5e6" target="_top" xlink:title="module_ra_simple::shortwave">
<polygon fill="white" stroke="black" points="450,-190.5 450,-209.5 596,-209.5 596,-190.5 450,-190.5"/>
<text text-anchor="middle" x="523" y="-197.5" font-family="Helvetica,sans-Serif" font-size="10.00">module_ra_simple::shortwave</text>
</a>
</g>
</g>
<!-- Node3&#45;&gt;Node10 -->
<g id="edge9" class="edge"><title>Node3&#45;&gt;Node10</title>
<path fill="none" stroke="midnightblue" d="M414.394,-225.241C432.853,-220.911 453.385,-216.095 471.525,-211.84"/>
<polygon fill="midnightblue" stroke="midnightblue" points="472.392,-215.232 481.328,-209.54 470.793,-208.417 472.392,-215.232"/>
</g>
<!-- Node11 -->
<g id="node11" class="node"><title>Node11</title>
<g id="a_node11"><a xlink:href="classmodule__ra__simple.html#ac17356062eed2cca6633da58b0899d09" target="_top" xlink:title="module_ra_simple::longwave">
<polygon fill="white" stroke="black" points="451.5,-152.5 451.5,-171.5 594.5,-171.5 594.5,-152.5 451.5,-152.5"/>
<text text-anchor="middle" x="523" y="-159.5" font-family="Helvetica,sans-Serif" font-size="10.00">module_ra_simple::longwave</text>
</a>
</g>
</g>
<!-- Node3&#45;&gt;Node11 -->
<g id="edge10" class="edge"><title>Node3&#45;&gt;Node11</title>
<path fill="none" stroke="midnightblue" d="M379.734,-222.986C397.335,-210.227 424.232,-192.239 450,-181 455.466,-178.616 461.299,-176.474 467.191,-174.565"/>
<polygon fill="midnightblue" stroke="midnightblue" points="468.545,-177.812 477.105,-171.569 466.52,-171.111 468.545,-177.812"/>
</g>
<!-- Node6 -->
<g id="node6" class="node"><title>Node6</title>
<g id="a_node6"><a xlink:href="classtime.html#adfcbe10943e169e25a9ee15ddb3ce70b" target="_top" xlink:title="time::calc_day_of_year">
<polygon fill="white" stroke="black" points="632,-272.5 632,-291.5 750,-291.5 750,-272.5 632,-272.5"/>
<text text-anchor="middle" x="691" y="-279.5" font-family="Helvetica,sans-Serif" font-size="10.00">time::calc_day_of_year</text>
</a>
</g>
</g>
<!-- Node5&#45;&gt;Node6 -->
<g id="edge5" class="edge"><title>Node5&#45;&gt;Node6</title>
<path fill="none" stroke="midnightblue" d="M582.525,-282C595.12,-282 608.541,-282 621.478,-282"/>
<polygon fill="midnightblue" stroke="midnightblue" points="621.724,-285.5 631.724,-282 621.723,-278.5 621.724,-285.5"/>
</g>
<!-- Node7 -->
<g id="node7" class="node"><title>Node7</title>
<g id="a_node7"><a xlink:href="classtime.html#a8736f37f83c6d8f62957c70df2239693" target="_top" xlink:title="time::calendar_date">
<polygon fill="white" stroke="black" points="786,-291.5 786,-310.5 888,-310.5 888,-291.5 786,-291.5"/>
<text text-anchor="middle" x="837" y="-298.5" font-family="Helvetica,sans-Serif" font-size="10.00">time::calendar_date</text>
</a>
</g>
</g>
<!-- Node6&#45;&gt;Node7 -->
<g id="edge6" class="edge"><title>Node6&#45;&gt;Node7</title>
<path fill="none" stroke="midnightblue" d="M750.155,-289.673C758.683,-290.798 767.48,-291.959 776.043,-293.089"/>
<polygon fill="midnightblue" stroke="midnightblue" points="775.586,-296.559 785.958,-294.397 776.502,-289.619 775.586,-296.559"/>
</g>
<!-- Node8 -->
<g id="node8" class="node"><title>Node8</title>
<g id="a_node8"><a xlink:href="classtime.html#a22e63418fe5d559327ca090619d097e0" target="_top" xlink:title="time::date_to_mjd">
<polygon fill="white" stroke="black" points="789.5,-253.5 789.5,-272.5 884.5,-272.5 884.5,-253.5 789.5,-253.5"/>
<text text-anchor="middle" x="837" y="-260.5" font-family="Helvetica,sans-Serif" font-size="10.00">time::date_to_mjd</text>
</a>
</g>
</g>
<!-- Node6&#45;&gt;Node8 -->
<g id="edge7" class="edge"><title>Node6&#45;&gt;Node8</title>
<path fill="none" stroke="midnightblue" d="M750.155,-274.327C759.671,-273.071 769.522,-271.771 779.009,-270.52"/>
<polygon fill="midnightblue" stroke="midnightblue" points="779.671,-273.963 789.128,-269.185 778.756,-267.023 779.671,-273.963"/>
</g>
</g>
</svg>
        <g id="navigator" transform="translate(0 0)" fill="#404254">
                <rect fill="#f2f5e9" fill-opacity="0.5" stroke="#606060" stroke-width=".5" x="0" y="0" width="60" height="60"/>
                <use id="zoomplus" xlink:href="#zoomPlus" x="17" y="9" onmousedown="handleZoom(evt,'in')"/>
                <use id="zoomminus" xlink:href="#zoomMin" x="42" y="9" onmousedown="handleZoom(evt,'out')"/>
                <use id="reset" xlink:href="#resetDef" x="30" y="36" onmousedown="handleReset()"/>
                <g id="arrowUp" xlink:href="#dirArrow" transform="translate(30 24)" onmousedown="handlePan(0,-1)">
                  <use xlink:href="#rim" fill="#404040">
                        <set attributeName="fill" to="#808080" begin="arrowUp.mouseover" end="arrowUp.mouseout"/>
                  </use>
                  <path fill="none" stroke="white" stroke-width="1.5" d="M0,-3.0v7 M-2.5,-0.5L0,-3.0L2.5,-0.5"/>
                </g>
                <g id="arrowRight" xlink:href="#dirArrow" transform="rotate(90) translate(36 -43)" onmousedown="handlePan(1,0)">
                  <use xlink:href="#rim" fill="#404040">
                        <set attributeName="fill" to="#808080" begin="arrowRight.mouseover" end="arrowRight.mouseout"/>
                  </use>
                  <path fill="none" stroke="white" stroke-width="1.5" d="M0,-3.0v7 M-2.5,-0.5L0,-3.0L2.5,-0.5"/>
                </g>
                <g id="arrowDown" xlink:href="#dirArrow" transform="rotate(180) translate(-30 -48)" onmousedown="handlePan(0,1)">
                  <use xlink:href="#rim" fill="#404040">
                        <set attributeName="fill" to="#808080" begin="arrowDown.mouseover" end="arrowDown.mouseout"/>
                  </use>
                  <path fill="none" stroke="white" stroke-width="1.5" d="M0,-3.0v7 M-2.5,-0.5L0,-3.0L2.5,-0.5"/>
                </g>
                <g id="arrowLeft" xlink:href="#dirArrow" transform="rotate(270) translate(-36 17)" onmousedown="handlePan(-1,0)">
                  <use xlink:href="#rim" fill="#404040">
                        <set attributeName="fill" to="#808080" begin="arrowLeft.mouseover" end="arrowLeft.mouseout"/>
                  </use>
                  <path fill="none" stroke="white" stroke-width="1.5" d="M0,-3.0v7 M-2.5,-0.5L0,-3.0L2.5,-0.5"/>
                </g>
        </g>
        <svg viewBox="0 0 15 15" width="100%" height="30px" preserveAspectRatio="xMaxYMin meet">
         <g id="arrow_out" transform="scale(0.3 0.3)">
          <a xlink:href="classmodule__cu__kf_afbc0670c02010c630409b1796e89a3fb_cgraph_org.svg" target="_base">
           <rect id="button" ry="5" rx="5" y="6" x="6" height="38" width="38"
                fill="#f2f5e9" fill-opacity="0.5" stroke="#606060" stroke-width="1.0"/>
           <path id="arrow"
             d="M 11.500037,31.436501 C 11.940474,20.09759 22.043105,11.32322 32.158766,21.979434 L 37.068811,17.246167 C 37.068811,17.246167 37.088388,32 37.088388,32 L 22.160133,31.978069 C 22.160133,31.978069 26.997745,27.140456 26.997745,27.140456 C 18.528582,18.264221 13.291696,25.230495 11.500037,31.436501 z"
             style="fill:#404040;"/>
          </a>
         </g>
        </svg>
</svg>
