<?xml version="1.0" encoding="UTF-8" standalone="no"?>
<!DOCTYPE svg PUBLIC "-//W3C//DTD SVG 1.1//EN"
 "http://www.w3.org/Graphics/SVG/1.1/DTD/svg11.dtd">
<!-- Generated by graphviz version 2.38.0 (20140413.2041)
 -->
<!-- Title: vertical_interpolation::find_match Pages: 1 -->
<svg width="608pt" height="83pt"
 viewBox="0.00 0.00 608.00 83.00" xmlns="http://www.w3.org/2000/svg" xmlns:xlink="http://www.w3.org/1999/xlink">
<g id="graph0" class="graph" transform="scale(1 1) rotate(0) translate(4 79)">
<title>vertical_interpolation::find_match</title>
<polygon fill="white" stroke="none" points="-4,4 -4,-79 604,-79 604,4 -4,4"/>
<!-- Node1 -->
<g id="node1" class="node"><title>Node1</title>
<polygon fill="#bfbfbf" stroke="black" points="0,-22.5 0,-52.5 106,-52.5 106,-22.5 0,-22.5"/>
<text text-anchor="start" x="8" y="-40.5" font-family="Helvetica,sans-Serif" font-size="10.00">vertical_interpolation</text>
<text text-anchor="middle" x="53" y="-29.5" font-family="Helvetica,sans-Serif" font-size="10.00">::find_match</text>
</g>
<!-- Node2 -->
<g id="node2" class="node"><title>Node2</title>
<g id="a_node2"><a xlink:href="classvertical__interpolation.html#af3f0f4fbb7bcbfed1f562450a7865cc9" target="_top" xlink:title="vertical_interpolation\l::vlut">
<polygon fill="white" stroke="black" points="142,-44.5 142,-74.5 248,-74.5 248,-44.5 142,-44.5"/>
<text text-anchor="start" x="150" y="-62.5" font-family="Helvetica,sans-Serif" font-size="10.00">vertical_interpolation</text>
<text text-anchor="middle" x="195" y="-51.5" font-family="Helvetica,sans-Serif" font-size="10.00">::vlut</text>
</a>
</g>
</g>
<!-- Node1&#45;&gt;Node2 -->
<g id="edge1" class="edge"><title>Node1&#45;&gt;Node2</title>
<path fill="none" stroke="midnightblue" d="M116.107,-47.2596C124.695,-48.6091 133.443,-49.9839 141.826,-51.3012"/>
<polygon fill="midnightblue" stroke="midnightblue" points="116.553,-43.7869 106.131,-45.692 115.466,-50.702 116.553,-43.7869"/>
</g>
<!-- Node6 -->
<g id="node6" class="node"><title>Node6</title>
<g id="a_node6"><a xlink:href="classvertical__interpolation.html#af89dd2688bd5c935ca619014e573c5fd" target="_top" xlink:title="vertical_interpolation\l::vlut_forcing">
<polygon fill="white" stroke="black" points="284,-0.5 284,-30.5 390,-30.5 390,-0.5 284,-0.5"/>
<text text-anchor="start" x="292" y="-18.5" font-family="Helvetica,sans-Serif" font-size="10.00">vertical_interpolation</text>
<text text-anchor="middle" x="337" y="-7.5" font-family="Helvetica,sans-Serif" font-size="10.00">::vlut_forcing</text>
</a>
</g>
</g>
<!-- Node1&#45;&gt;Node6 -->
<g id="edge5" class="edge"><title>Node1&#45;&gt;Node6</title>
<path fill="none" stroke="midnightblue" d="M116.146,-32.6518C166.407,-28.7306 236.373,-23.2723 283.775,-19.5743"/>
<polygon fill="midnightblue" stroke="midnightblue" points="115.749,-29.172 106.052,-33.4392 116.294,-36.1508 115.749,-29.172"/>
</g>
<!-- Node3 -->
<g id="node3" class="node"><title>Node3</title>
<g id="a_node3"><a xlink:href="classinit.html#a1c6cab46bb16bea719da3b193c43ccb3" target="_top" xlink:title="init::init_bc">
<polygon fill="white" stroke="black" points="305,-50 305,-69 369,-69 369,-50 305,-50"/>
<text text-anchor="middle" x="337" y="-57" font-family="Helvetica,sans-Serif" font-size="10.00">init::init_bc</text>
</a>
</g>
</g>
<!-- Node2&#45;&gt;Node3 -->
<g id="edge2" class="edge"><title>Node2&#45;&gt;Node3</title>
<path fill="none" stroke="midnightblue" d="M258.589,-59.5C274.674,-59.5 291.286,-59.5 304.978,-59.5"/>
<polygon fill="midnightblue" stroke="midnightblue" points="258.131,-56.0001 248.131,-59.5 258.131,-63.0001 258.131,-56.0001"/>
</g>
<!-- Node4 -->
<g id="node4" class="node"><title>Node4</title>
<g id="a_node4"><a xlink:href="classinit.html#a1dd1e2b38eef39cba464f65c9ce82568" target="_top" xlink:title="init::init_model">
<polygon fill="white" stroke="black" points="439,-50 439,-69 519,-69 519,-50 439,-50"/>
<text text-anchor="middle" x="479" y="-57" font-family="Helvetica,sans-Serif" font-size="10.00">init::init_model</text>
</a>
</g>
</g>
<!-- Node3&#45;&gt;Node4 -->
<g id="edge3" class="edge"><title>Node3&#45;&gt;Node4</title>
<path fill="none" stroke="midnightblue" d="M379.136,-59.5C397.958,-59.5 420.155,-59.5 438.743,-59.5"/>
<polygon fill="midnightblue" stroke="midnightblue" points="379.071,-56.0001 369.071,-59.5 379.071,-63.0001 379.071,-56.0001"/>
</g>
<!-- Node5 -->
<g id="node5" class="node"><title>Node5</title>
<g id="a_node5"><a xlink:href="driver_8f90.html#ab1e5a5816a57fc6e95d9563c2bb53590" target="_top" xlink:title=" Main Program ">
<polygon fill="white" stroke="black" points="568,-28 568,-47 600,-47 600,-28 568,-28"/>
<text text-anchor="middle" x="584" y="-35" font-family="Helvetica,sans-Serif" font-size="10.00">icar</text>
</a>
</g>
</g>
<!-- Node4&#45;&gt;Node5 -->
<g id="edge4" class="edge"><title>Node4&#45;&gt;Node5</title>
<path fill="none" stroke="midnightblue" d="M529.317,-48.9664C543.297,-45.9803 557.492,-42.9482 567.772,-40.7526"/>
<polygon fill="midnightblue" stroke="midnightblue" points="528.282,-45.6083 519.234,-51.12 529.744,-52.4539 528.282,-45.6083"/>
</g>
<!-- Node7 -->
<g id="node7" class="node"><title>Node7</title>
<g id="a_node7"><a xlink:href="classboundary__conditions.html#a1e8385c37634f3d7f70ea7c749dcda11" target="_top" xlink:title=" Read in the next timestep of input data and apply to the dXdt grids as appropriate. ">
<polygon fill="white" stroke="black" points="426,-0.5 426,-30.5 532,-30.5 532,-0.5 426,-0.5"/>
<text text-anchor="start" x="434" y="-18.5" font-family="Helvetica,sans-Serif" font-size="10.00">boundary_conditions</text>
<text text-anchor="middle" x="479" y="-7.5" font-family="Helvetica,sans-Serif" font-size="10.00">::bc_update</text>
</a>
</g>
</g>
<!-- Node6&#45;&gt;Node7 -->
<g id="edge6" class="edge"><title>Node6&#45;&gt;Node7</title>
<path fill="none" stroke="midnightblue" d="M400.387,-15.5C408.885,-15.5 417.534,-15.5 425.826,-15.5"/>
<polygon fill="midnightblue" stroke="midnightblue" points="400.131,-12.0001 390.131,-15.5 400.131,-19.0001 400.131,-12.0001"/>
</g>
<!-- Node7&#45;&gt;Node5 -->
<g id="edge7" class="edge"><title>Node7&#45;&gt;Node5</title>
<path fill="none" stroke="midnightblue" d="M542.071,-28.7579C551.517,-30.7756 560.468,-32.6874 567.576,-34.2056"/>
<polygon fill="midnightblue" stroke="midnightblue" points="542.614,-25.295 532.104,-26.6289 541.152,-32.1406 542.614,-25.295"/>
</g>
</g>
</svg>
