<?xml version="1.0" encoding="UTF-8" standalone="no"?>
<!DOCTYPE svg PUBLIC "-//W3C//DTD SVG 1.1//EN"
 "http://www.w3.org/Graphics/SVG/1.1/DTD/svg11.dtd">
<!-- Generated by graphviz version 2.38.0 (20140413.2041)
 -->
<!-- Title: adv_mpdata::upwind_advection Pages: 1 -->
<svg width="729pt" height="66pt"
 viewBox="0.00 0.00 729.00 66.00" xmlns="http://www.w3.org/2000/svg" xmlns:xlink="http://www.w3.org/1999/xlink">
<g id="graph0" class="graph" transform="scale(1 1) rotate(0) translate(4 62)">
<title>adv_mpdata::upwind_advection</title>
<polygon fill="white" stroke="none" points="-4,4 -4,-62 725,-62 725,4 -4,4"/>
<!-- Node1 -->
<g id="node1" class="node"><title>Node1</title>
<polygon fill="#bfbfbf" stroke="black" points="0,-14 0,-44 107,-44 107,-14 0,-14"/>
<text text-anchor="start" x="8" y="-32" font-family="Helvetica,sans-Serif" font-size="10.00">adv_mpdata::upwind</text>
<text text-anchor="middle" x="53.5" y="-21" font-family="Helvetica,sans-Serif" font-size="10.00">_advection</text>
</g>
<!-- Node2 -->
<g id="node2" class="node"><title>Node2</title>
<g id="a_node2"><a xlink:href="classadv__mpdata.html#a3f8f14aa56b629a78a5935b1a130e4c2" target="_top" xlink:title="adv_mpdata::advect3d">
<polygon fill="white" stroke="black" points="143,-19.5 143,-38.5 259,-38.5 259,-19.5 143,-19.5"/>
<text text-anchor="middle" x="201" y="-26.5" font-family="Helvetica,sans-Serif" font-size="10.00">adv_mpdata::advect3d</text>
</a>
</g>
</g>
<!-- Node1&#45;&gt;Node2 -->
<g id="edge1" class="edge"><title>Node1&#45;&gt;Node2</title>
<path fill="none" stroke="midnightblue" d="M117.207,-29C125.651,-29 134.279,-29 142.625,-29"/>
<polygon fill="midnightblue" stroke="midnightblue" points="117.029,-25.5001 107.029,-29 117.029,-32.5001 117.029,-25.5001"/>
</g>
<!-- Node3 -->
<g id="node3" class="node"><title>Node3</title>
<g id="a_node3"><a xlink:href="classadv__mpdata.html#ab7491af9ff38f8d903ae2d4ddabc410d" target="_top" xlink:title="adv_mpdata::mpdata">
<polygon fill="white" stroke="black" points="295,-38.5 295,-57.5 403,-57.5 403,-38.5 295,-38.5"/>
<text text-anchor="middle" x="349" y="-45.5" font-family="Helvetica,sans-Serif" font-size="10.00">adv_mpdata::mpdata</text>
</a>
</g>
</g>
<!-- Node2&#45;&gt;Node3 -->
<g id="edge2" class="edge"><title>Node2&#45;&gt;Node3</title>
<path fill="none" stroke="midnightblue" d="M269.23,-37.7492C277.769,-38.8603 286.413,-39.9852 294.692,-41.0626"/>
<polygon fill="midnightblue" stroke="midnightblue" points="269.652,-34.2746 259.284,-36.4548 268.749,-41.2161 269.652,-34.2746"/>
</g>
<!-- Node7 -->
<g id="node7" class="node"><title>Node7</title>
<g id="a_node7"><a xlink:href="classadv__upwind.html#a3a006d2b2d9ebc4dbd83152ff5a0f35b" target="_top" xlink:title="adv_upwind::upwind">
<polygon fill="white" stroke="black" points="296.5,-0.5 296.5,-19.5 401.5,-19.5 401.5,-0.5 296.5,-0.5"/>
<text text-anchor="middle" x="349" y="-7.5" font-family="Helvetica,sans-Serif" font-size="10.00">adv_upwind::upwind</text>
</a>
</g>
</g>
<!-- Node2&#45;&gt;Node7 -->
<g id="edge6" class="edge"><title>Node2&#45;&gt;Node7</title>
<path fill="none" stroke="midnightblue" d="M269.352,-20.235C278.339,-19.0654 287.441,-17.881 296.108,-16.753"/>
<polygon fill="midnightblue" stroke="midnightblue" points="268.749,-16.7839 259.284,-21.5452 269.652,-23.7254 268.749,-16.7839"/>
</g>
<!-- Node4 -->
<g id="node4" class="node"><title>Node4</title>
<g id="a_node4"><a xlink:href="classadvection.html#a27abbf643ae159c75c9c0c68b7627f31" target="_top" xlink:title="advection::advect">
<polygon fill="white" stroke="black" points="439,-19.5 439,-38.5 533,-38.5 533,-19.5 439,-19.5"/>
<text text-anchor="middle" x="486" y="-26.5" font-family="Helvetica,sans-Serif" font-size="10.00">advection::advect</text>
</a>
</g>
</g>
<!-- Node3&#45;&gt;Node4 -->
<g id="edge3" class="edge"><title>Node3&#45;&gt;Node4</title>
<path fill="none" stroke="midnightblue" d="M413.288,-39.0929C421.811,-37.8932 430.425,-36.6809 438.582,-35.5329"/>
<polygon fill="midnightblue" stroke="midnightblue" points="412.77,-35.6311 403.356,-40.4907 413.746,-42.5628 412.77,-35.6311"/>
</g>
<!-- Node5 -->
<g id="node5" class="node"><title>Node5</title>
<g id="a_node5"><a xlink:href="classtime__step.html#a2c022f11247af72e607b1493289aa974" target="_top" xlink:title=" Step forward one IO time step. ">
<polygon fill="white" stroke="black" points="569,-19.5 569,-38.5 653,-38.5 653,-19.5 569,-19.5"/>
<text text-anchor="middle" x="611" y="-26.5" font-family="Helvetica,sans-Serif" font-size="10.00">time_step::step</text>
</a>
</g>
</g>
<!-- Node4&#45;&gt;Node5 -->
<g id="edge4" class="edge"><title>Node4&#45;&gt;Node5</title>
<path fill="none" stroke="midnightblue" d="M543.191,-29C551.834,-29 560.618,-29 568.853,-29"/>
<polygon fill="midnightblue" stroke="midnightblue" points="543.151,-25.5001 533.151,-29 543.151,-32.5001 543.151,-25.5001"/>
</g>
<!-- Node6 -->
<g id="node6" class="node"><title>Node6</title>
<g id="a_node6"><a xlink:href="driver_8f90.html#ab1e5a5816a57fc6e95d9563c2bb53590" target="_top" xlink:title=" Main Program ">
<polygon fill="white" stroke="black" points="689,-19.5 689,-38.5 721,-38.5 721,-19.5 689,-19.5"/>
<text text-anchor="middle" x="705" y="-26.5" font-family="Helvetica,sans-Serif" font-size="10.00">icar</text>
</a>
</g>
</g>
<!-- Node5&#45;&gt;Node6 -->
<g id="edge5" class="edge"><title>Node5&#45;&gt;Node6</title>
<path fill="none" stroke="midnightblue" d="M663.253,-29C672.521,-29 681.5,-29 688.66,-29"/>
<polygon fill="midnightblue" stroke="midnightblue" points="663.156,-25.5001 653.156,-29 663.156,-32.5001 663.156,-25.5001"/>
</g>
<!-- Node7&#45;&gt;Node4 -->
<g id="edge7" class="edge"><title>Node7&#45;&gt;Node4</title>
<path fill="none" stroke="midnightblue" d="M411.939,-18.7173C420.993,-19.9917 430.182,-21.2849 438.847,-22.5045"/>
<polygon fill="midnightblue" stroke="midnightblue" points="412.199,-15.2195 401.808,-17.2916 411.223,-22.1512 412.199,-15.2195"/>
</g>
</g>
</svg>
