<?xml version="1.0" encoding="UTF-8" standalone="no"?>
<!DOCTYPE svg PUBLIC "-//W3C//DTD SVG 1.1//EN"
 "http://www.w3.org/Graphics/SVG/1.1/DTD/svg11.dtd">
<!-- Generated by graphviz version 2.32.0 (20130809.1645)
 -->
<!-- Title: initialize_options::filename_namelist Pages: 1 -->
<svg width="426pt" height="60pt"
 viewBox="0.00 0.00 426.00 60.00" xmlns="http://www.w3.org/2000/svg" xmlns:xlink="http://www.w3.org/1999/xlink">
<g id="graph0" class="graph" transform="scale(1 1) rotate(0) translate(4 56)">
<title>initialize_options::filename_namelist</title>
<polygon fill="white" stroke="white" points="-4,5 -4,-56 423,-56 423,5 -4,5"/>
<!-- Node1 -->
<g id="node1" class="node"><title>Node1</title>
<polygon fill="#bfbfbf" stroke="black" points="0.5,-22 0.5,-52 101.5,-52 101.5,-22 0.5,-22"/>
<text text-anchor="start" x="8.5" y="-40" font-family="Helvetica,sans-Serif" font-size="10.00">initialize_options</text>
<text text-anchor="middle" x="51" y="-29" font-family="Helvetica,sans-Serif" font-size="10.00">::filename_namelist</text>
</g>
<!-- Node2 -->
<g id="node2" class="node"><title>Node2</title>
<g id="a_node2"><a xlink:href="classio__routines.html#a754b76158aa8311e1ee112004ddae52b" target="_top" xlink:title=" Find an available file unit number. ">
<polygon fill="white" stroke="black" points="302,-27.5 302,-46.5 418,-46.5 418,-27.5 302,-27.5"/>
<text text-anchor="middle" x="360" y="-34.5" font-family="Helvetica,sans-Serif" font-size="10.00">io_routines::io_newunit</text>
</a>
</g>
</g>
<!-- Node1&#45;&gt;Node2 -->
<g id="edge1" class="edge"><title>Node1&#45;&gt;Node2</title>
<path fill="none" stroke="midnightblue" d="M101.566,-38.3495C113.496,-38.6199 126.202,-38.8628 138,-39 194.885,-39.6614 209.114,-39.6116 266,-39 274.357,-38.9102 283.136,-38.7749 291.824,-38.6163"/>
<polygon fill="midnightblue" stroke="midnightblue" points="292.02,-42.1132 301.951,-38.4206 291.885,-35.1145 292.02,-42.1132"/>
</g>
<!-- Node3 -->
<g id="node3" class="node"><title>Node3</title>
<g id="a_node3"><a xlink:href="classinitialize__options.html#aa31ad836b4bdcd1a555c9e8fa4b2975a" target="_top" xlink:title=" Read in the name of the boundary condition files from a text file ">
<polygon fill="white" stroke="black" points="138,-0 138,-30 266,-30 266,-0 138,-0"/>
<text text-anchor="start" x="146" y="-18" font-family="Helvetica,sans-Serif" font-size="10.00">initialize_options</text>
<text text-anchor="middle" x="202" y="-7" font-family="Helvetica,sans-Serif" font-size="10.00">::read_forcing_file_names</text>
</a>
</g>
</g>
<!-- Node1&#45;&gt;Node3 -->
<g id="edge2" class="edge"><title>Node1&#45;&gt;Node3</title>
<path fill="none" stroke="midnightblue" d="M101.615,-29.6743C110.041,-28.4301 118.948,-27.1151 127.829,-25.8037"/>
<polygon fill="midnightblue" stroke="midnightblue" points="128.438,-29.252 137.819,-24.3287 127.415,-22.327 128.438,-29.252"/>
</g>
<!-- Node3&#45;&gt;Node2 -->
<g id="edge3" class="edge"><title>Node3&#45;&gt;Node2</title>
<path fill="none" stroke="midnightblue" d="M266.002,-23.8848C274.511,-25.0848 283.267,-26.3197 291.845,-27.5294"/>
<polygon fill="midnightblue" stroke="midnightblue" points="291.417,-31.0036 301.808,-28.9344 292.394,-24.0722 291.417,-31.0036"/>
</g>
</g>
</svg>
