<?xml version="1.0" encoding="UTF-8" standalone="no"?>
<!DOCTYPE svg PUBLIC "-//W3C//DTD SVG 1.1//EN"
 "http://www.w3.org/Graphics/SVG/1.1/DTD/svg11.dtd">
<!-- Generated by graphviz version 2.38.0 (20140413.2041)
 -->
<!-- Title: module_lsm_basic::simple_land_surface_fluxes Pages: 1 -->
<svg width="295pt" height="39pt"
 viewBox="0.00 0.00 295.00 39.00" xmlns="http://www.w3.org/2000/svg" xmlns:xlink="http://www.w3.org/1999/xlink">
<g id="graph0" class="graph" transform="scale(1 1) rotate(0) translate(4 35)">
<title>module_lsm_basic::simple_land_surface_fluxes</title>
<polygon fill="white" stroke="none" points="-4,4 -4,-35 291,-35 291,4 -4,4"/>
<!-- Node1 -->
<g id="node1" class="node"><title>Node1</title>
<polygon fill="#bfbfbf" stroke="black" points="0,-0.5 0,-30.5 132,-30.5 132,-0.5 0,-0.5"/>
<text text-anchor="start" x="8" y="-18.5" font-family="Helvetica,sans-Serif" font-size="10.00">module_lsm_basic::simple</text>
<text text-anchor="middle" x="66" y="-7.5" font-family="Helvetica,sans-Serif" font-size="10.00">_land_surface_fluxes</text>
</g>
<!-- Node2 -->
<g id="node2" class="node"><title>Node2</title>
<g id="a_node2"><a xlink:href="classmodule__lsm__basic.html#a1acb1c23aafdeaef72a00a123bed7ed2" target="_top" xlink:title="module_lsm_basic::lsm\l_basic">
<polygon fill="white" stroke="black" points="168,-0.5 168,-30.5 287,-30.5 287,-0.5 168,-0.5"/>
<text text-anchor="start" x="176" y="-18.5" font-family="Helvetica,sans-Serif" font-size="10.00">module_lsm_basic::lsm</text>
<text text-anchor="middle" x="227.5" y="-7.5" font-family="Helvetica,sans-Serif" font-size="10.00">_basic</text>
</a>
</g>
</g>
<!-- Node1&#45;&gt;Node2 -->
<g id="edge1" class="edge"><title>Node1&#45;&gt;Node2</title>
<path fill="none" stroke="midnightblue" d="M142.359,-15.5C150.945,-15.5 159.599,-15.5 167.921,-15.5"/>
<polygon fill="midnightblue" stroke="midnightblue" points="142.335,-12.0001 132.335,-15.5 142.335,-19.0001 142.335,-12.0001"/>
</g>
</g>
</svg>
