<?xml version="1.0" encoding="UTF-8" standalone="no"?>
<!DOCTYPE svg PUBLIC "-//W3C//DTD SVG 1.1//EN"
 "http://www.w3.org/Graphics/SVG/1.1/DTD/svg11.dtd">
<!-- Generated by graphviz version 2.38.0 (20140413.2041)
 -->
<!-- Title: adv_mpdata::mpdata_init Pages: 1 -->
<svg width="459pt" height="28pt"
 viewBox="0.00 0.00 459.00 28.00" xmlns="http://www.w3.org/2000/svg" xmlns:xlink="http://www.w3.org/1999/xlink">
<g id="graph0" class="graph" transform="scale(1 1) rotate(0) translate(4 24)">
<title>adv_mpdata::mpdata_init</title>
<polygon fill="white" stroke="none" points="-4,4 -4,-24 455,-24 455,4 -4,4"/>
<!-- Node1 -->
<g id="node1" class="node"><title>Node1</title>
<polygon fill="#bfbfbf" stroke="black" points="0,-0.5 0,-19.5 126,-19.5 126,-0.5 0,-0.5"/>
<text text-anchor="middle" x="63" y="-7.5" font-family="Helvetica,sans-Serif" font-size="10.00">adv_mpdata::mpdata_init</text>
</g>
<!-- Node2 -->
<g id="node2" class="node"><title>Node2</title>
<g id="a_node2"><a xlink:href="classadvection.html#a2c37b670011de9a6acbe996ea899eac2" target="_top" xlink:title="advection::adv_init">
<polygon fill="white" stroke="black" points="162,-0.5 162,-19.5 260,-19.5 260,-0.5 162,-0.5"/>
<text text-anchor="middle" x="211" y="-7.5" font-family="Helvetica,sans-Serif" font-size="10.00">advection::adv_init</text>
</a>
</g>
</g>
<!-- Node1&#45;&gt;Node2 -->
<g id="edge1" class="edge"><title>Node1&#45;&gt;Node2</title>
<path fill="none" stroke="midnightblue" d="M136.474,-10C145.136,-10 153.807,-10 162,-10"/>
<polygon fill="midnightblue" stroke="midnightblue" points="136.341,-6.5001 126.341,-10 136.341,-13.5001 136.341,-6.5001"/>
</g>
<!-- Node3 -->
<g id="node3" class="node"><title>Node3</title>
<g id="a_node3"><a xlink:href="classinit.html#ad066397f42956c6e9d50884a2e84d4e4" target="_top" xlink:title="init::init_physics">
<polygon fill="white" stroke="black" points="296,-0.5 296,-19.5 383,-19.5 383,-0.5 296,-0.5"/>
<text text-anchor="middle" x="339.5" y="-7.5" font-family="Helvetica,sans-Serif" font-size="10.00">init::init_physics</text>
</a>
</g>
</g>
<!-- Node2&#45;&gt;Node3 -->
<g id="edge2" class="edge"><title>Node2&#45;&gt;Node3</title>
<path fill="none" stroke="midnightblue" d="M270.218,-10C278.846,-10 287.601,-10 295.833,-10"/>
<polygon fill="midnightblue" stroke="midnightblue" points="270.185,-6.5001 260.185,-10 270.185,-13.5001 270.185,-6.5001"/>
</g>
<!-- Node4 -->
<g id="node4" class="node"><title>Node4</title>
<g id="a_node4"><a xlink:href="driver_8f90.html#ab1e5a5816a57fc6e95d9563c2bb53590" target="_top" xlink:title=" Main Program ">
<polygon fill="white" stroke="black" points="419,-0.5 419,-19.5 451,-19.5 451,-0.5 419,-0.5"/>
<text text-anchor="middle" x="435" y="-7.5" font-family="Helvetica,sans-Serif" font-size="10.00">icar</text>
</a>
</g>
</g>
<!-- Node3&#45;&gt;Node4 -->
<g id="edge3" class="edge"><title>Node3&#45;&gt;Node4</title>
<path fill="none" stroke="midnightblue" d="M393.293,-10C402.593,-10 411.569,-10 418.714,-10"/>
<polygon fill="midnightblue" stroke="midnightblue" points="393.146,-6.5001 383.146,-10 393.146,-13.5001 393.146,-6.5001"/>
</g>
</g>
</svg>
