<?xml version="1.0" encoding="UTF-8" standalone="no"?>
<!DOCTYPE svg PUBLIC "-//W3C//DTD SVG 1.1//EN"
 "http://www.w3.org/Graphics/SVG/1.1/DTD/svg11.dtd">
<!-- Generated by graphviz version 2.38.0 (20140413.2041)
 -->
<!-- Title: module_mp_thompson::table_dropevap Pages: 1 -->
<svg width="595pt" height="78pt"
 viewBox="0.00 0.00 595.00 77.50" xmlns="http://www.w3.org/2000/svg" xmlns:xlink="http://www.w3.org/1999/xlink">
<g id="graph0" class="graph" transform="scale(1 1) rotate(0) translate(4 73.5)">
<title>module_mp_thompson::table_dropevap</title>
<polygon fill="white" stroke="none" points="-4,4 -4,-73.5 591,-73.5 591,4 -4,4"/>
<!-- Node1 -->
<g id="node1" class="node"><title>Node1</title>
<polygon fill="#bfbfbf" stroke="black" points="0,-17 0,-47 115,-47 115,-17 0,-17"/>
<text text-anchor="start" x="8" y="-35" font-family="Helvetica,sans-Serif" font-size="10.00">module_mp_thompson</text>
<text text-anchor="middle" x="57.5" y="-24" font-family="Helvetica,sans-Serif" font-size="10.00">::table_dropevap</text>
</g>
<!-- Node2 -->
<g id="node2" class="node"><title>Node2</title>
<g id="a_node2"><a xlink:href="classmodule__mp__thompson.html#a1f946ed505cb00dda905c9a8c773b9be" target="_top" xlink:title="module_mp_thompson\l::gammp">
<polygon fill="white" stroke="black" points="151,-17 151,-47 266,-47 266,-17 151,-17"/>
<text text-anchor="start" x="159" y="-35" font-family="Helvetica,sans-Serif" font-size="10.00">module_mp_thompson</text>
<text text-anchor="middle" x="208.5" y="-24" font-family="Helvetica,sans-Serif" font-size="10.00">::gammp</text>
</a>
</g>
</g>
<!-- Node1&#45;&gt;Node2 -->
<g id="edge1" class="edge"><title>Node1&#45;&gt;Node2</title>
<path fill="none" stroke="midnightblue" d="M115.256,-32C123.558,-32 132.173,-32 140.654,-32"/>
<polygon fill="midnightblue" stroke="midnightblue" points="140.902,-35.5001 150.902,-32 140.902,-28.5001 140.902,-35.5001"/>
</g>
<!-- Node3 -->
<g id="node3" class="node"><title>Node3</title>
<g id="a_node3"><a xlink:href="classmodule__mp__thompson.html#af4069d16cc3cbf9a1c493ae5314f4484" target="_top" xlink:title="module_mp_thompson\l::gser">
<polygon fill="white" stroke="black" points="311.5,-39 311.5,-69 426.5,-69 426.5,-39 311.5,-39"/>
<text text-anchor="start" x="319.5" y="-57" font-family="Helvetica,sans-Serif" font-size="10.00">module_mp_thompson</text>
<text text-anchor="middle" x="369" y="-46" font-family="Helvetica,sans-Serif" font-size="10.00">::gser</text>
</a>
</g>
</g>
<!-- Node2&#45;&gt;Node3 -->
<g id="edge2" class="edge"><title>Node2&#45;&gt;Node3</title>
<path fill="none" stroke="midnightblue" d="M266.274,-39.8804C277.61,-41.4538 289.615,-43.1201 301.251,-44.7352"/>
<polygon fill="midnightblue" stroke="midnightblue" points="300.969,-48.2295 311.356,-46.1377 301.932,-41.296 300.969,-48.2295"/>
</g>
<!-- Node5 -->
<g id="node5" class="node"><title>Node5</title>
<g id="a_node5"><a xlink:href="classmodule__mp__thompson.html#ae708350e2b07c93cbab0a8f77752e063" target="_top" xlink:title="module_mp_thompson::gcf">
<polygon fill="white" stroke="black" points="302,-0.5 302,-19.5 436,-19.5 436,-0.5 302,-0.5"/>
<text text-anchor="middle" x="369" y="-7.5" font-family="Helvetica,sans-Serif" font-size="10.00">module_mp_thompson::gcf</text>
</a>
</g>
</g>
<!-- Node2&#45;&gt;Node5 -->
<g id="edge4" class="edge"><title>Node2&#45;&gt;Node5</title>
<path fill="none" stroke="midnightblue" d="M266.274,-24.1196C274.574,-22.9676 283.233,-21.7658 291.842,-20.5708"/>
<polygon fill="midnightblue" stroke="midnightblue" points="292.479,-24.0161 301.903,-19.1744 291.516,-17.0826 292.479,-24.0161"/>
</g>
<!-- Node4 -->
<g id="node4" class="node"><title>Node4</title>
<g id="a_node4"><a xlink:href="classmodule__mp__thompson.html#a529ff675223a2d57e5e67a26707638cd" target="_top" xlink:title="module_mp_thompson\l::gammln">
<polygon fill="white" stroke="black" points="472,-17 472,-47 587,-47 587,-17 472,-17"/>
<text text-anchor="start" x="480" y="-35" font-family="Helvetica,sans-Serif" font-size="10.00">module_mp_thompson</text>
<text text-anchor="middle" x="529.5" y="-24" font-family="Helvetica,sans-Serif" font-size="10.00">::gammln</text>
</a>
</g>
</g>
<!-- Node3&#45;&gt;Node4 -->
<g id="edge3" class="edge"><title>Node3&#45;&gt;Node4</title>
<path fill="none" stroke="midnightblue" d="M426.774,-46.1196C438.11,-44.5462 450.115,-42.8799 461.751,-41.2648"/>
<polygon fill="midnightblue" stroke="midnightblue" points="462.432,-44.704 471.856,-39.8623 461.469,-37.7705 462.432,-44.704"/>
</g>
<!-- Node5&#45;&gt;Node4 -->
<g id="edge5" class="edge"><title>Node5&#45;&gt;Node4</title>
<path fill="none" stroke="midnightblue" d="M436.3,-19.2025C444.623,-20.3577 453.141,-21.5401 461.475,-22.6968"/>
<polygon fill="midnightblue" stroke="midnightblue" points="461.137,-26.1833 471.523,-24.0915 462.099,-19.2498 461.137,-26.1833"/>
</g>
</g>
</svg>
