<?xml version="1.0" encoding="UTF-8" standalone="no"?>
<!DOCTYPE svg PUBLIC "-//W3C//DTD SVG 1.1//EN"
 "http://www.w3.org/Graphics/SVG/1.1/DTD/svg11.dtd">
<!-- Generated by graphviz version 2.38.0 (20140413.2041)
 -->
<!-- Title: module_cu_tiedtke::tlucua Pages: 1 -->
<!--zoomable 298 -->
<svg id="main" version="1.1" xmlns="http://www.w3.org/2000/svg" xmlns:xlink="http://www.w3.org/1999/xlink" xml:space="preserve" onload="init(evt)">
<style type="text/css"><![CDATA[
.edge:hover path { stroke: red; }
.edge:hover polygon { stroke: red; fill: red; }
]]></style>
<script type="text/javascript"><![CDATA[
var edges = document.getElementsByTagName('g');
if (edges && edges.length) {
  for (var i=0;i<edges.length;i++) {
    if (edges[i].id.substr(0,4)=='edge') {
      edges[i].setAttribute('class','edge');
    }
  }
}
]]></script>
        <defs>
                <circle id="rim" cx="0" cy="0" r="7"/>
                <circle id="rim2" cx="0" cy="0" r="3.5"/>
                <g id="zoomPlus">
                        <use xlink:href="#rim" fill="#404040">
                                <set attributeName="fill" to="#808080" begin="zoomplus.mouseover" end="zoomplus.mouseout"/>
                        </use>
                        <path d="M-4,0h8M0,-4v8" fill="none" stroke="white" stroke-width="1.5" pointer-events="none"/>
                </g>
                <g id="zoomMin">
                        <use xlink:href="#rim" fill="#404040">
                                <set attributeName="fill" to="#808080" begin="zoomminus.mouseover" end="zoomminus.mouseout"/>
                        </use>
                        <path d="M-4,0h8" fill="none" stroke="white" stroke-width="1.5" pointer-events="none"/>
                </g>
                <g id="dirArrow">
                        <path fill="none" stroke="white" stroke-width="1.5" d="M0,-3.0v7 M-2.5,-0.5L0,-3.0L2.5,-0.5"/>
                </g>
               <g id="resetDef">
                       <use xlink:href="#rim2" fill="#404040">
                               <set attributeName="fill" to="#808080" begin="reset.mouseover" end="reset.mouseout"/>
                       </use>
               </g>
        </defs>

<script type="text/javascript">
var viewWidth = 1140;
var viewHeight = 298;
var sectionId = 'dynsection-29';
</script>
<script xlink:href="svgpan.js"/>
<svg id="graph" class="graph">
<g id="viewport">
<title>module_cu_tiedtke::tlucua</title>
<polygon fill="white" stroke="none" points="-4,4 -4,-294.147 1136,-294.147 1136,4 -4,4"/>
<!-- Node1 -->
<g id="node1" class="node"><title>Node1</title>
<polygon fill="#bfbfbf" stroke="black" points="0,-226.5 0,-256.5 104,-256.5 104,-226.5 0,-226.5"/>
<text text-anchor="start" x="8" y="-244.5" font-family="Helvetica,sans-Serif" font-size="10.00">module_cu_tiedtke::</text>
<text text-anchor="middle" x="52" y="-233.5" font-family="Helvetica,sans-Serif" font-size="10.00">tlucua</text>
</g>
<!-- Node2 -->
<g id="node2" class="node"><title>Node2</title>
<g id="a_node2"><a xlink:href="classmodule__cu__tiedtke.html#ae9c234f80f55688e10c72091b6c673dc" target="_top" xlink:title="module_cu_tiedtke::\ltiecnv">
<polygon fill="white" stroke="black" points="560,-218.5 560,-248.5 664,-248.5 664,-218.5 560,-218.5"/>
<text text-anchor="start" x="568" y="-236.5" font-family="Helvetica,sans-Serif" font-size="10.00">module_cu_tiedtke::</text>
<text text-anchor="middle" x="612" y="-225.5" font-family="Helvetica,sans-Serif" font-size="10.00">tiecnv</text>
</a>
</g>
</g>
<!-- Node1&#45;&gt;Node2 -->
<g id="edge1" class="edge"><title>Node1&#45;&gt;Node2</title>
<path fill="none" stroke="midnightblue" d="M113.276,-259.252C122.19,-261.549 131.301,-263.718 140,-265.5 246.56,-287.326 275.891,-296.495 384,-284.5 445.222,-277.707 514.058,-260.909 559.71,-248.437"/>
<polygon fill="midnightblue" stroke="midnightblue" points="113.89,-255.794 103.327,-256.617 112.098,-262.56 113.89,-255.794"/>
</g>
<!-- Node7 -->
<g id="node7" class="node"><title>Node7</title>
<g id="a_node7"><a xlink:href="classmodule__cu__tiedtke.html#ac9ae922d9f0655dae4887093c89d2909" target="_top" xlink:title="module_cu_tiedtke::\lcuasc_new">
<polygon fill="white" stroke="black" points="280,-245.5 280,-275.5 384,-275.5 384,-245.5 280,-245.5"/>
<text text-anchor="start" x="288" y="-263.5" font-family="Helvetica,sans-Serif" font-size="10.00">module_cu_tiedtke::</text>
<text text-anchor="middle" x="332" y="-252.5" font-family="Helvetica,sans-Serif" font-size="10.00">cuasc_new</text>
</a>
</g>
</g>
<!-- Node1&#45;&gt;Node7 -->
<g id="edge6" class="edge"><title>Node1&#45;&gt;Node7</title>
<path fill="none" stroke="midnightblue" d="M114.296,-245.689C164.009,-249.087 233.26,-253.82 279.986,-257.013"/>
<polygon fill="midnightblue" stroke="midnightblue" points="114.529,-242.197 104.313,-245.007 114.052,-249.181 114.529,-242.197"/>
</g>
<!-- Node9 -->
<g id="node9" class="node"><title>Node9</title>
<g id="a_node9"><a xlink:href="classmodule__cu__tiedtke.html#ac8165a71eb9a866902d5f7a0ad177f14" target="_top" xlink:title="module_cu_tiedtke::\lcuadjtq">
<polygon fill="white" stroke="black" points="140,-147.5 140,-177.5 244,-177.5 244,-147.5 140,-147.5"/>
<text text-anchor="start" x="148" y="-165.5" font-family="Helvetica,sans-Serif" font-size="10.00">module_cu_tiedtke::</text>
<text text-anchor="middle" x="192" y="-154.5" font-family="Helvetica,sans-Serif" font-size="10.00">cuadjtq</text>
</a>
</g>
</g>
<!-- Node1&#45;&gt;Node9 -->
<g id="edge9" class="edge"><title>Node1&#45;&gt;Node9</title>
<path fill="none" stroke="midnightblue" d="M87.9918,-221.468C111.721,-207.884 142.606,-190.204 164.346,-177.758"/>
<polygon fill="midnightblue" stroke="midnightblue" points="86.2213,-218.449 79.2816,-226.455 89.699,-224.524 86.2213,-218.449"/>
</g>
<!-- Node15 -->
<g id="node15" class="node"><title>Node15</title>
<g id="a_node15"><a xlink:href="classmodule__cu__tiedtke.html#ae56a73c0cf1c178147db2261edaef943" target="_top" xlink:title="module_cu_tiedtke::\lcuentr_new">
<polygon fill="white" stroke="black" points="140,-204.5 140,-234.5 244,-234.5 244,-204.5 140,-204.5"/>
<text text-anchor="start" x="148" y="-222.5" font-family="Helvetica,sans-Serif" font-size="10.00">module_cu_tiedtke::</text>
<text text-anchor="middle" x="192" y="-211.5" font-family="Helvetica,sans-Serif" font-size="10.00">cuentr_new</text>
</a>
</g>
</g>
<!-- Node1&#45;&gt;Node15 -->
<g id="edge21" class="edge"><title>Node1&#45;&gt;Node15</title>
<path fill="none" stroke="midnightblue" d="M114.496,-231.696C122.872,-230.361 131.398,-229.002 139.571,-227.699"/>
<polygon fill="midnightblue" stroke="midnightblue" points="113.71,-228.277 104.386,-233.308 114.812,-235.19 113.71,-228.277"/>
</g>
<!-- Node3 -->
<g id="node3" class="node"><title>Node3</title>
<g id="a_node3"><a xlink:href="classmodule__cu__tiedtke.html#ae3fdba4e560c50ab3f6b9f1e30f2f255" target="_top" xlink:title="module_cu_tiedtke::\lcu_tiedtke">
<polygon fill="white" stroke="black" points="700,-218.5 700,-248.5 804,-248.5 804,-218.5 700,-218.5"/>
<text text-anchor="start" x="708" y="-236.5" font-family="Helvetica,sans-Serif" font-size="10.00">module_cu_tiedtke::</text>
<text text-anchor="middle" x="752" y="-225.5" font-family="Helvetica,sans-Serif" font-size="10.00">cu_tiedtke</text>
</a>
</g>
</g>
<!-- Node2&#45;&gt;Node3 -->
<g id="edge2" class="edge"><title>Node2&#45;&gt;Node3</title>
<path fill="none" stroke="midnightblue" d="M674.496,-233.5C682.872,-233.5 691.398,-233.5 699.571,-233.5"/>
<polygon fill="midnightblue" stroke="midnightblue" points="674.386,-230 664.386,-233.5 674.386,-237 674.386,-230"/>
</g>
<!-- Node4 -->
<g id="node4" class="node"><title>Node4</title>
<g id="a_node4"><a xlink:href="classconvection.html#a06b811540eb747b3734e7fb35de41782" target="_top" xlink:title="convection::convect">
<polygon fill="white" stroke="black" points="840,-224 840,-243 944,-243 944,-224 840,-224"/>
<text text-anchor="middle" x="892" y="-231" font-family="Helvetica,sans-Serif" font-size="10.00">convection::convect</text>
</a>
</g>
</g>
<!-- Node3&#45;&gt;Node4 -->
<g id="edge3" class="edge"><title>Node3&#45;&gt;Node4</title>
<path fill="none" stroke="midnightblue" d="M814.496,-233.5C822.872,-233.5 831.398,-233.5 839.571,-233.5"/>
<polygon fill="midnightblue" stroke="midnightblue" points="814.386,-230 804.386,-233.5 814.386,-237 814.386,-230"/>
</g>
<!-- Node5 -->
<g id="node5" class="node"><title>Node5</title>
<g id="a_node5"><a xlink:href="classtime__step.html#a2c022f11247af72e607b1493289aa974" target="_top" xlink:title=" Step forward one IO time step. ">
<polygon fill="white" stroke="black" points="980,-224 980,-243 1064,-243 1064,-224 980,-224"/>
<text text-anchor="middle" x="1022" y="-231" font-family="Helvetica,sans-Serif" font-size="10.00">time_step::step</text>
</a>
</g>
</g>
<!-- Node4&#45;&gt;Node5 -->
<g id="edge4" class="edge"><title>Node4&#45;&gt;Node5</title>
<path fill="none" stroke="midnightblue" d="M954.406,-233.5C963.051,-233.5 971.759,-233.5 979.897,-233.5"/>
<polygon fill="midnightblue" stroke="midnightblue" points="954.325,-230 944.325,-233.5 954.325,-237 954.325,-230"/>
</g>
<!-- Node6 -->
<g id="node6" class="node"><title>Node6</title>
<g id="a_node6"><a xlink:href="driver_8f90.html#ab1e5a5816a57fc6e95d9563c2bb53590" target="_top" xlink:title=" Main Program ">
<polygon fill="white" stroke="black" points="1100,-224 1100,-243 1132,-243 1132,-224 1100,-224"/>
<text text-anchor="middle" x="1116" y="-231" font-family="Helvetica,sans-Serif" font-size="10.00">icar</text>
</a>
</g>
</g>
<!-- Node5&#45;&gt;Node6 -->
<g id="edge5" class="edge"><title>Node5&#45;&gt;Node6</title>
<path fill="none" stroke="midnightblue" d="M1074.25,-233.5C1083.52,-233.5 1092.5,-233.5 1099.66,-233.5"/>
<polygon fill="midnightblue" stroke="midnightblue" points="1074.16,-230 1064.16,-233.5 1074.16,-237 1074.16,-230"/>
</g>
<!-- Node8 -->
<g id="node8" class="node"><title>Node8</title>
<g id="a_node8"><a xlink:href="classmodule__cu__tiedtke.html#a8840397e245a13cbb7c61f8cea6e7894" target="_top" xlink:title="module_cu_tiedtke::\lcumastr_new">
<polygon fill="white" stroke="black" points="420,-147.5 420,-177.5 524,-177.5 524,-147.5 420,-147.5"/>
<text text-anchor="start" x="428" y="-165.5" font-family="Helvetica,sans-Serif" font-size="10.00">module_cu_tiedtke::</text>
<text text-anchor="middle" x="472" y="-154.5" font-family="Helvetica,sans-Serif" font-size="10.00">cumastr_new</text>
</a>
</g>
</g>
<!-- Node7&#45;&gt;Node8 -->
<g id="edge7" class="edge"><title>Node7&#45;&gt;Node8</title>
<path fill="none" stroke="midnightblue" d="M375.468,-240.68C378.401,-239.008 381.273,-237.275 384,-235.5 410.771,-218.077 438.499,-193.472 455.253,-177.752"/>
<polygon fill="midnightblue" stroke="midnightblue" points="373.696,-237.659 366.564,-245.495 377.026,-243.816 373.696,-237.659"/>
</g>
<!-- Node8&#45;&gt;Node2 -->
<g id="edge8" class="edge"><title>Node8&#45;&gt;Node2</title>
<path fill="none" stroke="midnightblue" d="M511.446,-182.28C533.711,-193.735 561.294,-207.927 581.776,-218.464"/>
<polygon fill="midnightblue" stroke="midnightblue" points="512.76,-179.02 502.266,-177.557 509.557,-185.245 512.76,-179.02"/>
</g>
<!-- Node9&#45;&gt;Node7 -->
<g id="edge16" class="edge"><title>Node9&#45;&gt;Node7</title>
<path fill="none" stroke="midnightblue" d="M228.969,-183.209C234.189,-186.739 239.36,-190.55 244,-194.5 262.464,-210.22 260.739,-220.766 280,-235.5 284.778,-239.155 290.174,-242.487 295.623,-245.443"/>
<polygon fill="midnightblue" stroke="midnightblue" points="230.521,-180.046 220.222,-177.559 226.723,-185.926 230.521,-180.046"/>
</g>
<!-- Node10 -->
<g id="node10" class="node"><title>Node10</title>
<g id="a_node10"><a xlink:href="classmodule__cu__tiedtke.html#ad58bc964dc1ba2f7c52ec660f3ac783a" target="_top" xlink:title="module_cu_tiedtke::\lcuini">
<polygon fill="white" stroke="black" points="280,-196.5 280,-226.5 384,-226.5 384,-196.5 280,-196.5"/>
<text text-anchor="start" x="288" y="-214.5" font-family="Helvetica,sans-Serif" font-size="10.00">module_cu_tiedtke::</text>
<text text-anchor="middle" x="332" y="-203.5" font-family="Helvetica,sans-Serif" font-size="10.00">cuini</text>
</a>
</g>
</g>
<!-- Node9&#45;&gt;Node10 -->
<g id="edge10" class="edge"><title>Node9&#45;&gt;Node10</title>
<path fill="none" stroke="midnightblue" d="M245.202,-181.036C259.454,-186.096 274.723,-191.518 288.372,-196.364"/>
<polygon fill="midnightblue" stroke="midnightblue" points="246.125,-177.649 235.531,-177.601 243.783,-184.246 246.125,-177.649"/>
</g>
<!-- Node11 -->
<g id="node11" class="node"><title>Node11</title>
<g id="a_node11"><a xlink:href="classmodule__cu__tiedtke.html#a252e2ab4e675cefd721c0e6b4c7d0796" target="_top" xlink:title="module_cu_tiedtke::\lcubase">
<polygon fill="white" stroke="black" points="280,-147.5 280,-177.5 384,-177.5 384,-147.5 280,-147.5"/>
<text text-anchor="start" x="288" y="-165.5" font-family="Helvetica,sans-Serif" font-size="10.00">module_cu_tiedtke::</text>
<text text-anchor="middle" x="332" y="-154.5" font-family="Helvetica,sans-Serif" font-size="10.00">cubase</text>
</a>
</g>
</g>
<!-- Node9&#45;&gt;Node11 -->
<g id="edge12" class="edge"><title>Node9&#45;&gt;Node11</title>
<path fill="none" stroke="midnightblue" d="M254.496,-162.5C262.872,-162.5 271.398,-162.5 279.571,-162.5"/>
<polygon fill="midnightblue" stroke="midnightblue" points="254.386,-159 244.386,-162.5 254.386,-166 254.386,-159"/>
</g>
<!-- Node12 -->
<g id="node12" class="node"><title>Node12</title>
<g id="a_node12"><a xlink:href="classmodule__cu__tiedtke.html#a75265ba406fbb983606db3742939bc18" target="_top" xlink:title="module_cu_tiedtke::\lcutype">
<polygon fill="white" stroke="black" points="280,-98.5 280,-128.5 384,-128.5 384,-98.5 280,-98.5"/>
<text text-anchor="start" x="288" y="-116.5" font-family="Helvetica,sans-Serif" font-size="10.00">module_cu_tiedtke::</text>
<text text-anchor="middle" x="332" y="-105.5" font-family="Helvetica,sans-Serif" font-size="10.00">cutype</text>
</a>
</g>
</g>
<!-- Node9&#45;&gt;Node12 -->
<g id="edge14" class="edge"><title>Node9&#45;&gt;Node12</title>
<path fill="none" stroke="midnightblue" d="M245.202,-143.964C259.454,-138.904 274.723,-133.482 288.372,-128.636"/>
<polygon fill="midnightblue" stroke="midnightblue" points="243.783,-140.754 235.531,-147.399 246.125,-147.351 243.783,-140.754"/>
</g>
<!-- Node13 -->
<g id="node13" class="node"><title>Node13</title>
<g id="a_node13"><a xlink:href="classmodule__cu__tiedtke.html#ac30d7f0b03de20b3c35ae750e7b0b6d4" target="_top" xlink:title="module_cu_tiedtke::\lcudlfs">
<polygon fill="white" stroke="black" points="280,-49.5 280,-79.5 384,-79.5 384,-49.5 280,-49.5"/>
<text text-anchor="start" x="288" y="-67.5" font-family="Helvetica,sans-Serif" font-size="10.00">module_cu_tiedtke::</text>
<text text-anchor="middle" x="332" y="-56.5" font-family="Helvetica,sans-Serif" font-size="10.00">cudlfs</text>
</a>
</g>
</g>
<!-- Node9&#45;&gt;Node13 -->
<g id="edge17" class="edge"><title>Node9&#45;&gt;Node13</title>
<path fill="none" stroke="midnightblue" d="M215.998,-139.975C232.805,-124.28 256.65,-103.543 280,-88.5 284.936,-85.3201 290.359,-82.3124 295.771,-79.5709"/>
<polygon fill="midnightblue" stroke="midnightblue" points="213.196,-137.809 208.346,-147.228 218.011,-142.889 213.196,-137.809"/>
</g>
<!-- Node14 -->
<g id="node14" class="node"><title>Node14</title>
<g id="a_node14"><a xlink:href="classmodule__cu__tiedtke.html#a38ab6318e5e3bdd086bd5969c9728dc4" target="_top" xlink:title="module_cu_tiedtke::\lcuddraf">
<polygon fill="white" stroke="black" points="280,-0.5 280,-30.5 384,-30.5 384,-0.5 280,-0.5"/>
<text text-anchor="start" x="288" y="-18.5" font-family="Helvetica,sans-Serif" font-size="10.00">module_cu_tiedtke::</text>
<text text-anchor="middle" x="332" y="-7.5" font-family="Helvetica,sans-Serif" font-size="10.00">cuddraf</text>
</a>
</g>
</g>
<!-- Node9&#45;&gt;Node14 -->
<g id="edge19" class="edge"><title>Node9&#45;&gt;Node14</title>
<path fill="none" stroke="midnightblue" d="M205.214,-138.19C219.844,-111.113 246.612,-67.4803 280,-39.5 283.975,-36.1687 288.49,-33.1882 293.151,-30.5558"/>
<polygon fill="midnightblue" stroke="midnightblue" points="201.949,-136.878 200.384,-147.357 208.142,-140.142 201.949,-136.878"/>
</g>
<!-- Node10&#45;&gt;Node8 -->
<g id="edge11" class="edge"><title>Node10&#45;&gt;Node8</title>
<path fill="none" stroke="midnightblue" d="M385.202,-192.964C399.454,-187.904 414.723,-182.482 428.372,-177.636"/>
<polygon fill="midnightblue" stroke="midnightblue" points="383.783,-189.754 375.531,-196.399 386.125,-196.351 383.783,-189.754"/>
</g>
<!-- Node11&#45;&gt;Node8 -->
<g id="edge13" class="edge"><title>Node11&#45;&gt;Node8</title>
<path fill="none" stroke="midnightblue" d="M394.496,-162.5C402.872,-162.5 411.398,-162.5 419.571,-162.5"/>
<polygon fill="midnightblue" stroke="midnightblue" points="394.386,-159 384.386,-162.5 394.386,-166 394.386,-159"/>
</g>
<!-- Node12&#45;&gt;Node8 -->
<g id="edge15" class="edge"><title>Node12&#45;&gt;Node8</title>
<path fill="none" stroke="midnightblue" d="M385.202,-132.036C399.454,-137.096 414.723,-142.518 428.372,-147.364"/>
<polygon fill="midnightblue" stroke="midnightblue" points="386.125,-128.649 375.531,-128.601 383.783,-135.246 386.125,-128.649"/>
</g>
<!-- Node13&#45;&gt;Node8 -->
<g id="edge18" class="edge"><title>Node13&#45;&gt;Node8</title>
<path fill="none" stroke="midnightblue" d="M377.284,-84.4331C379.588,-85.7506 381.841,-87.1088 384,-88.5 411.17,-106.005 439.012,-131.219 455.654,-147.228"/>
<polygon fill="midnightblue" stroke="midnightblue" points="378.695,-81.2184 368.229,-79.5709 375.383,-87.3855 378.695,-81.2184"/>
</g>
<!-- Node14&#45;&gt;Node8 -->
<g id="edge20" class="edge"><title>Node14&#45;&gt;Node8</title>
<path fill="none" stroke="midnightblue" d="M379.321,-35.9002C380.943,-37.0509 382.509,-38.2508 384,-39.5 421.488,-70.9165 450.63,-122.066 463.616,-147.357"/>
<polygon fill="midnightblue" stroke="midnightblue" points="381.174,-32.9308 370.849,-30.5558 377.439,-38.8513 381.174,-32.9308"/>
</g>
<!-- Node15&#45;&gt;Node7 -->
<g id="edge22" class="edge"><title>Node15&#45;&gt;Node7</title>
<path fill="none" stroke="midnightblue" d="M253.305,-237.417C262.347,-240.103 271.591,-242.85 280.404,-245.468"/>
<polygon fill="midnightblue" stroke="midnightblue" points="254.185,-234.027 243.603,-234.534 252.192,-240.737 254.185,-234.027"/>
</g>
</g>
</svg>
        <g id="navigator" transform="translate(0 0)" fill="#404254">
                <rect fill="#f2f5e9" fill-opacity="0.5" stroke="#606060" stroke-width=".5" x="0" y="0" width="60" height="60"/>
                <use id="zoomplus" xlink:href="#zoomPlus" x="17" y="9" onmousedown="handleZoom(evt,'in')"/>
                <use id="zoomminus" xlink:href="#zoomMin" x="42" y="9" onmousedown="handleZoom(evt,'out')"/>
                <use id="reset" xlink:href="#resetDef" x="30" y="36" onmousedown="handleReset()"/>
                <g id="arrowUp" xlink:href="#dirArrow" transform="translate(30 24)" onmousedown="handlePan(0,-1)">
                  <use xlink:href="#rim" fill="#404040">
                        <set attributeName="fill" to="#808080" begin="arrowUp.mouseover" end="arrowUp.mouseout"/>
                  </use>
                  <path fill="none" stroke="white" stroke-width="1.5" d="M0,-3.0v7 M-2.5,-0.5L0,-3.0L2.5,-0.5"/>
                </g>
                <g id="arrowRight" xlink:href="#dirArrow" transform="rotate(90) translate(36 -43)" onmousedown="handlePan(1,0)">
                  <use xlink:href="#rim" fill="#404040">
                        <set attributeName="fill" to="#808080" begin="arrowRight.mouseover" end="arrowRight.mouseout"/>
                  </use>
                  <path fill="none" stroke="white" stroke-width="1.5" d="M0,-3.0v7 M-2.5,-0.5L0,-3.0L2.5,-0.5"/>
                </g>
                <g id="arrowDown" xlink:href="#dirArrow" transform="rotate(180) translate(-30 -48)" onmousedown="handlePan(0,1)">
                  <use xlink:href="#rim" fill="#404040">
                        <set attributeName="fill" to="#808080" begin="arrowDown.mouseover" end="arrowDown.mouseout"/>
                  </use>
                  <path fill="none" stroke="white" stroke-width="1.5" d="M0,-3.0v7 M-2.5,-0.5L0,-3.0L2.5,-0.5"/>
                </g>
                <g id="arrowLeft" xlink:href="#dirArrow" transform="rotate(270) translate(-36 17)" onmousedown="handlePan(-1,0)">
                  <use xlink:href="#rim" fill="#404040">
                        <set attributeName="fill" to="#808080" begin="arrowLeft.mouseover" end="arrowLeft.mouseout"/>
                  </use>
                  <path fill="none" stroke="white" stroke-width="1.5" d="M0,-3.0v7 M-2.5,-0.5L0,-3.0L2.5,-0.5"/>
                </g>
        </g>
        <svg viewBox="0 0 15 15" width="100%" height="30px" preserveAspectRatio="xMaxYMin meet">
         <g id="arrow_out" transform="scale(0.3 0.3)">
          <a xlink:href="classmodule__cu__tiedtke_af662362ac33920875481aff9ea3c31d6_icgraph_org.svg" target="_base">
           <rect id="button" ry="5" rx="5" y="6" x="6" height="38" width="38"
                fill="#f2f5e9" fill-opacity="0.5" stroke="#606060" stroke-width="1.0"/>
           <path id="arrow"
             d="M 11.500037,31.436501 C 11.940474,20.09759 22.043105,11.32322 32.158766,21.979434 L 37.068811,17.246167 C 37.068811,17.246167 37.088388,32 37.088388,32 L 22.160133,31.978069 C 22.160133,31.978069 26.997745,27.140456 26.997745,27.140456 C 18.528582,18.264221 13.291696,25.230495 11.500037,31.436501 z"
             style="fill:#404040;"/>
          </a>
         </g>
        </svg>
</svg>
