<?xml version="1.0" encoding="UTF-8" standalone="no"?>
<!DOCTYPE svg PUBLIC "-//W3C//DTD SVG 1.1//EN"
 "http://www.w3.org/Graphics/SVG/1.1/DTD/svg11.dtd">
<!-- Generated by graphviz version 2.38.0 (20140413.2041)
 -->
<!-- Title: module_mp_thompson::mp_gt_driver Pages: 1 -->
<svg width="441pt" height="39pt"
 viewBox="0.00 0.00 441.00 39.00" xmlns="http://www.w3.org/2000/svg" xmlns:xlink="http://www.w3.org/1999/xlink">
<g id="graph0" class="graph" transform="scale(1 1) rotate(0) translate(4 35)">
<title>module_mp_thompson::mp_gt_driver</title>
<polygon fill="white" stroke="none" points="-4,4 -4,-35 437,-35 437,4 -4,4"/>
<!-- Node1 -->
<g id="node1" class="node"><title>Node1</title>
<polygon fill="#bfbfbf" stroke="black" points="0,-0.5 0,-30.5 115,-30.5 115,-0.5 0,-0.5"/>
<text text-anchor="start" x="8" y="-18.5" font-family="Helvetica,sans-Serif" font-size="10.00">module_mp_thompson</text>
<text text-anchor="middle" x="57.5" y="-7.5" font-family="Helvetica,sans-Serif" font-size="10.00">::mp_gt_driver</text>
</g>
<!-- Node2 -->
<g id="node2" class="node"><title>Node2</title>
<g id="a_node2"><a xlink:href="classmicrophysics.html#ad2296bf9e02061a692cb9bebb6abcf7d" target="_top" xlink:title=" Microphysical driver ">
<polygon fill="white" stroke="black" points="151,-6 151,-25 245,-25 245,-6 151,-6"/>
<text text-anchor="middle" x="198" y="-13" font-family="Helvetica,sans-Serif" font-size="10.00">microphysics::mp</text>
</a>
</g>
</g>
<!-- Node1&#45;&gt;Node2 -->
<g id="edge1" class="edge"><title>Node1&#45;&gt;Node2</title>
<path fill="none" stroke="midnightblue" d="M125.279,-15.5C133.884,-15.5 142.54,-15.5 150.715,-15.5"/>
<polygon fill="midnightblue" stroke="midnightblue" points="125.233,-12.0001 115.233,-15.5 125.233,-19.0001 125.233,-12.0001"/>
</g>
<!-- Node3 -->
<g id="node3" class="node"><title>Node3</title>
<g id="a_node3"><a xlink:href="classtime__step.html#a2c022f11247af72e607b1493289aa974" target="_top" xlink:title=" Step forward one IO time step. ">
<polygon fill="white" stroke="black" points="281,-6 281,-25 365,-25 365,-6 281,-6"/>
<text text-anchor="middle" x="323" y="-13" font-family="Helvetica,sans-Serif" font-size="10.00">time_step::step</text>
</a>
</g>
</g>
<!-- Node2&#45;&gt;Node3 -->
<g id="edge2" class="edge"><title>Node2&#45;&gt;Node3</title>
<path fill="none" stroke="midnightblue" d="M255.191,-15.5C263.834,-15.5 272.618,-15.5 280.853,-15.5"/>
<polygon fill="midnightblue" stroke="midnightblue" points="255.151,-12.0001 245.151,-15.5 255.151,-19.0001 255.151,-12.0001"/>
</g>
<!-- Node4 -->
<g id="node4" class="node"><title>Node4</title>
<g id="a_node4"><a xlink:href="driver_8f90.html#ab1e5a5816a57fc6e95d9563c2bb53590" target="_top" xlink:title=" Main Program ">
<polygon fill="white" stroke="black" points="401,-6 401,-25 433,-25 433,-6 401,-6"/>
<text text-anchor="middle" x="417" y="-13" font-family="Helvetica,sans-Serif" font-size="10.00">icar</text>
</a>
</g>
</g>
<!-- Node3&#45;&gt;Node4 -->
<g id="edge3" class="edge"><title>Node3&#45;&gt;Node4</title>
<path fill="none" stroke="midnightblue" d="M375.253,-15.5C384.521,-15.5 393.5,-15.5 400.66,-15.5"/>
<polygon fill="midnightblue" stroke="midnightblue" points="375.156,-12.0001 365.156,-15.5 375.156,-19.0001 375.156,-12.0001"/>
</g>
</g>
</svg>
