<?xml version="1.0" encoding="UTF-8" standalone="no"?>
<!DOCTYPE svg PUBLIC "-//W3C//DTD SVG 1.1//EN"
 "http://www.w3.org/Graphics/SVG/1.1/DTD/svg11.dtd">
<!-- Generated by graphviz version 2.32.0 (20130809.1645)
 -->
<!-- Title: boundary_conditions::read_2dvar Pages: 1 -->
<svg width="252pt" height="77pt"
 viewBox="0.00 0.00 252.00 77.00" xmlns="http://www.w3.org/2000/svg" xmlns:xlink="http://www.w3.org/1999/xlink">
<g id="graph0" class="graph" transform="scale(1 1) rotate(0) translate(4 73)">
<title>boundary_conditions::read_2dvar</title>
<polygon fill="white" stroke="white" points="-4,5 -4,-73 249,-73 249,5 -4,5"/>
<!-- Node1 -->
<g id="node1" class="node"><title>Node1</title>
<polygon fill="#bfbfbf" stroke="black" points="0,-17 0,-47 106,-47 106,-17 0,-17"/>
<text text-anchor="start" x="8" y="-35" font-family="Helvetica,sans-Serif" font-size="10.00">boundary_conditions</text>
<text text-anchor="middle" x="53" y="-24" font-family="Helvetica,sans-Serif" font-size="10.00">::read_2dvar</text>
</g>
<!-- Node2 -->
<g id="node2" class="node"><title>Node2</title>
<g id="a_node2"><a xlink:href="interfaceio__routines_1_1io__read.html#a35290f3b01bd8f36bae0173749f6b870" target="_top" xlink:title=" Same as io_read3d but for 2&#45;dimensional data ">
<polygon fill="white" stroke="black" points="142.5,-39 142.5,-69 243.5,-69 243.5,-39 142.5,-39"/>
<text text-anchor="start" x="150.5" y="-57" font-family="Helvetica,sans-Serif" font-size="10.00">io_routines::io_read</text>
<text text-anchor="middle" x="193" y="-46" font-family="Helvetica,sans-Serif" font-size="10.00">::io_read2d</text>
</a>
</g>
</g>
<!-- Node1&#45;&gt;Node2 -->
<g id="edge1" class="edge"><title>Node1&#45;&gt;Node2</title>
<path fill="none" stroke="midnightblue" d="M106.172,-40.3173C114.73,-41.6816 123.656,-43.1046 132.378,-44.4951"/>
<polygon fill="midnightblue" stroke="midnightblue" points="132.063,-47.989 142.489,-46.107 133.165,-41.0763 132.063,-47.989"/>
</g>
<!-- Node3 -->
<g id="node3" class="node"><title>Node3</title>
<g id="a_node3"><a xlink:href="classgeo.html#ad6df2866b0f12fabc9d1b393be1b06d7" target="_top" xlink:title="geo::geo_interp2d">
<polygon fill="white" stroke="black" points="146,-0.5 146,-19.5 240,-19.5 240,-0.5 146,-0.5"/>
<text text-anchor="middle" x="193" y="-7.5" font-family="Helvetica,sans-Serif" font-size="10.00">geo::geo_interp2d</text>
</a>
</g>
</g>
<!-- Node1&#45;&gt;Node3 -->
<g id="edge2" class="edge"><title>Node1&#45;&gt;Node3</title>
<path fill="none" stroke="midnightblue" d="M106.172,-23.6827C115.802,-22.1475 125.898,-20.538 135.646,-18.984"/>
<polygon fill="midnightblue" stroke="midnightblue" points="136.319,-22.421 145.643,-17.3902 135.217,-15.5083 136.319,-22.421"/>
</g>
</g>
</svg>
