<?xml version="1.0" encoding="UTF-8" standalone="no"?>
<!DOCTYPE svg PUBLIC "-//W3C//DTD SVG 1.1//EN"
 "http://www.w3.org/Graphics/SVG/1.1/DTD/svg11.dtd">
<!-- Generated by graphviz version 2.32.0 (20130809.1645)
 -->
<!-- Title: initialize_options::parameters_namelist Pages: 1 -->
<svg width="274pt" height="142pt"
 viewBox="0.00 0.00 274.00 142.00" xmlns="http://www.w3.org/2000/svg" xmlns:xlink="http://www.w3.org/1999/xlink">
<g id="graph0" class="graph" transform="scale(1 1) rotate(0) translate(4 138)">
<title>initialize_options::parameters_namelist</title>
<polygon fill="white" stroke="white" points="-4,5 -4,-138 271,-138 271,5 -4,5"/>
<!-- Node1 -->
<g id="node1" class="node"><title>Node1</title>
<polygon fill="#bfbfbf" stroke="black" points="0.5,-52 0.5,-82 113.5,-82 113.5,-52 0.5,-52"/>
<text text-anchor="start" x="8.5" y="-70" font-family="Helvetica,sans-Serif" font-size="10.00">initialize_options</text>
<text text-anchor="middle" x="57" y="-59" font-family="Helvetica,sans-Serif" font-size="10.00">::parameters_namelist</text>
</g>
<!-- Node2 -->
<g id="node2" class="node"><title>Node2</title>
<g id="a_node2"><a xlink:href="classio__routines.html#a754b76158aa8311e1ee112004ddae52b" target="_top" xlink:title=" Find an available file unit number. ">
<polygon fill="white" stroke="black" points="150,-114.5 150,-133.5 266,-133.5 266,-114.5 150,-114.5"/>
<text text-anchor="middle" x="208" y="-121.5" font-family="Helvetica,sans-Serif" font-size="10.00">io_routines::io_newunit</text>
</a>
</g>
</g>
<!-- Node1&#45;&gt;Node2 -->
<g id="edge1" class="edge"><title>Node1&#45;&gt;Node2</title>
<path fill="none" stroke="midnightblue" d="M92.722,-82.0143C109.853,-89.2491 130.892,-97.8791 150,-105 155.573,-107.077 161.491,-109.171 167.324,-111.172"/>
<polygon fill="midnightblue" stroke="midnightblue" points="166.389,-114.55 176.984,-114.431 168.628,-107.918 166.389,-114.55"/>
</g>
<!-- Node3 -->
<g id="node3" class="node"><title>Node3</title>
<g id="a_node3"><a xlink:href="classtime.html#ac7c0f37ed6d5c1c0bc9b1a75132c9edd" target="_top" xlink:title="time::parse_date">
<polygon fill="white" stroke="black" points="163.5,-76.5 163.5,-95.5 252.5,-95.5 252.5,-76.5 163.5,-76.5"/>
<text text-anchor="middle" x="208" y="-83.5" font-family="Helvetica,sans-Serif" font-size="10.00">time::parse_date</text>
</a>
</g>
</g>
<!-- Node1&#45;&gt;Node3 -->
<g id="edge2" class="edge"><title>Node1&#45;&gt;Node3</title>
<path fill="none" stroke="midnightblue" d="M113.906,-74.129C126.807,-75.7741 140.503,-77.5206 153.308,-79.1534"/>
<polygon fill="midnightblue" stroke="midnightblue" points="152.991,-82.6412 163.354,-80.4344 153.877,-75.6975 152.991,-82.6412"/>
</g>
<!-- Node4 -->
<g id="node4" class="node"><title>Node4</title>
<g id="a_node4"><a xlink:href="classtime.html#aac5c3bacccd51257742cb682e405d080" target="_top" xlink:title="time::time_init">
<polygon fill="white" stroke="black" points="169,-38.5 169,-57.5 247,-57.5 247,-38.5 169,-38.5"/>
<text text-anchor="middle" x="208" y="-45.5" font-family="Helvetica,sans-Serif" font-size="10.00">time::time_init</text>
</a>
</g>
</g>
<!-- Node1&#45;&gt;Node4 -->
<g id="edge3" class="edge"><title>Node1&#45;&gt;Node4</title>
<path fill="none" stroke="midnightblue" d="M113.906,-59.871C128.658,-57.99 144.448,-55.9764 158.757,-54.1518"/>
<polygon fill="midnightblue" stroke="midnightblue" points="159.401,-57.5981 168.878,-52.8612 158.516,-50.6543 159.401,-57.5981"/>
</g>
<!-- Node5 -->
<g id="node5" class="node"><title>Node5</title>
<g id="a_node5"><a xlink:href="classtime.html#a22e63418fe5d559327ca090619d097e0" target="_top" xlink:title="time::date_to_mjd">
<polygon fill="white" stroke="black" points="160.5,-0.5 160.5,-19.5 255.5,-19.5 255.5,-0.5 160.5,-0.5"/>
<text text-anchor="middle" x="208" y="-7.5" font-family="Helvetica,sans-Serif" font-size="10.00">time::date_to_mjd</text>
</a>
</g>
</g>
<!-- Node1&#45;&gt;Node5 -->
<g id="edge4" class="edge"><title>Node1&#45;&gt;Node5</title>
<path fill="none" stroke="midnightblue" d="M92.722,-51.9857C109.853,-44.7509 130.892,-36.1209 150,-29 155.573,-26.9231 161.491,-24.8289 167.324,-22.8281"/>
<polygon fill="midnightblue" stroke="midnightblue" points="168.628,-26.0821 176.984,-19.5686 166.389,-19.4495 168.628,-26.0821"/>
</g>
</g>
</svg>
