<?xml version="1.0" encoding="UTF-8" standalone="no"?>
<!DOCTYPE svg PUBLIC "-//W3C//DTD SVG 1.1//EN"
 "http://www.w3.org/Graphics/SVG/1.1/DTD/svg11.dtd">
<!-- Generated by graphviz version 2.32.0 (20130809.1645)
 -->
<!-- Title: planetary_boundary_layer::pbl_init Pages: 1 -->
<svg width="280pt" height="66pt"
 viewBox="0.00 0.00 280.00 66.00" xmlns="http://www.w3.org/2000/svg" xmlns:xlink="http://www.w3.org/1999/xlink">
<g id="graph0" class="graph" transform="scale(1 1) rotate(0) translate(4 62)">
<title>planetary_boundary_layer::pbl_init</title>
<polygon fill="white" stroke="white" points="-4,5 -4,-62 277,-62 277,5 -4,5"/>
<!-- Node1 -->
<g id="node1" class="node"><title>Node1</title>
<polygon fill="#bfbfbf" stroke="black" points="0.5,-14 0.5,-44 101.5,-44 101.5,-14 0.5,-14"/>
<text text-anchor="start" x="8.5" y="-32" font-family="Helvetica,sans-Serif" font-size="10.00">planetary_boundary</text>
<text text-anchor="middle" x="51" y="-21" font-family="Helvetica,sans-Serif" font-size="10.00">_layer::pbl_init</text>
</g>
<!-- Node2 -->
<g id="node2" class="node"><title>Node2</title>
<g id="a_node2"><a xlink:href="classpbl__simple.html#a0d3a6d04c622b7d39124153482f0cde4" target="_top" xlink:title="pbl_simple::init_simple_pbl">
<polygon fill="white" stroke="black" points="138,-38.5 138,-57.5 272,-57.5 272,-38.5 138,-38.5"/>
<text text-anchor="middle" x="205" y="-45.5" font-family="Helvetica,sans-Serif" font-size="10.00">pbl_simple::init_simple_pbl</text>
</a>
</g>
</g>
<!-- Node1&#45;&gt;Node2 -->
<g id="edge1" class="edge"><title>Node1&#45;&gt;Node2</title>
<path fill="none" stroke="midnightblue" d="M101.77,-35.2213C110.137,-36.2671 118.987,-37.3734 127.84,-38.48"/>
<polygon fill="midnightblue" stroke="midnightblue" points="127.454,-41.9589 137.811,-39.7263 128.322,-35.0129 127.454,-41.9589"/>
</g>
<!-- Node3 -->
<g id="node3" class="node"><title>Node3</title>
<g id="a_node3"><a xlink:href="classmodule__bl__ysu.html#a5e5cd7f0607bbf2b77ccbdaf3d8e02cf" target="_top" xlink:title="module_bl_ysu::ysuinit">
<polygon fill="white" stroke="black" points="147,-0.5 147,-19.5 263,-19.5 263,-0.5 147,-0.5"/>
<text text-anchor="middle" x="205" y="-7.5" font-family="Helvetica,sans-Serif" font-size="10.00">module_bl_ysu::ysuinit</text>
</a>
</g>
</g>
<!-- Node1&#45;&gt;Node3 -->
<g id="edge2" class="edge"><title>Node1&#45;&gt;Node3</title>
<path fill="none" stroke="midnightblue" d="M101.77,-22.7787C112.954,-21.3808 125.001,-19.8749 136.764,-18.4046"/>
<polygon fill="midnightblue" stroke="midnightblue" points="137.51,-21.8386 146.999,-17.1252 136.642,-14.8926 137.51,-21.8386"/>
</g>
</g>
</svg>
