<?xml version="1.0" encoding="UTF-8" standalone="no"?>
<!DOCTYPE svg PUBLIC "-//W3C//DTD SVG 1.1//EN"
 "http://www.w3.org/Graphics/SVG/1.1/DTD/svg11.dtd">
<!-- Generated by graphviz version 2.32.0 (20130809.1645)
 -->
<!-- Title: module_sf_noahlsm::hrt Pages: 1 -->
<svg width="440pt" height="175pt"
 viewBox="0.00 0.00 440.00 175.00" xmlns="http://www.w3.org/2000/svg" xmlns:xlink="http://www.w3.org/1999/xlink">
<g id="graph0" class="graph" transform="scale(1 1) rotate(0) translate(4 171)">
<title>module_sf_noahlsm::hrt</title>
<polygon fill="white" stroke="white" points="-4,5 -4,-171 437,-171 437,5 -4,5"/>
<!-- Node1 -->
<g id="node1" class="node"><title>Node1</title>
<polygon fill="#bfbfbf" stroke="black" points="0.5,-78.5 0.5,-97.5 121.5,-97.5 121.5,-78.5 0.5,-78.5"/>
<text text-anchor="middle" x="61" y="-85.5" font-family="Helvetica,sans-Serif" font-size="10.00">module_sf_noahlsm::hrt</text>
</g>
<!-- Node2 -->
<g id="node2" class="node"><title>Node2</title>
<g id="a_node2"><a xlink:href="classmodule__sf__noahlsm.html#a578d0dc05848d5bc7fb823e379da5cdd" target="_top" xlink:title="module_sf_noahlsm::tbnd">
<polygon fill="white" stroke="black" points="158,-147.5 158,-166.5 286,-166.5 286,-147.5 158,-147.5"/>
<text text-anchor="middle" x="222" y="-154.5" font-family="Helvetica,sans-Serif" font-size="10.00">module_sf_noahlsm::tbnd</text>
</a>
</g>
</g>
<!-- Node1&#45;&gt;Node2 -->
<g id="edge1" class="edge"><title>Node1&#45;&gt;Node2</title>
<path fill="none" stroke="midnightblue" d="M78.5989,-97.535C97.4314,-108.1 129.266,-125.2 158,-137 164.276,-139.577 171.014,-142.031 177.665,-144.281"/>
<polygon fill="midnightblue" stroke="midnightblue" points="176.691,-147.645 187.284,-147.421 178.864,-140.99 176.691,-147.645"/>
</g>
<!-- Node3 -->
<g id="node3" class="node"><title>Node3</title>
<g id="a_node3"><a xlink:href="classmodule__sf__noahlsm.html#ab786b4f52dbea2106470993f2ea20e69" target="_top" xlink:title="module_sf_noahlsm::\ltmpavg">
<polygon fill="white" stroke="black" points="167,-98 167,-128 277,-128 277,-98 167,-98"/>
<text text-anchor="start" x="175" y="-116" font-family="Helvetica,sans-Serif" font-size="10.00">module_sf_noahlsm::</text>
<text text-anchor="middle" x="222" y="-105" font-family="Helvetica,sans-Serif" font-size="10.00">tmpavg</text>
</a>
</g>
</g>
<!-- Node1&#45;&gt;Node3 -->
<g id="edge2" class="edge"><title>Node1&#45;&gt;Node3</title>
<path fill="none" stroke="midnightblue" d="M121.658,-97.3802C133.108,-99.1805 145.145,-101.073 156.733,-102.895"/>
<polygon fill="midnightblue" stroke="midnightblue" points="156.352,-106.378 166.775,-104.474 157.44,-99.4631 156.352,-106.378"/>
</g>
<!-- Node4 -->
<g id="node4" class="node"><title>Node4</title>
<g id="a_node4"><a xlink:href="classmodule__sf__noahlsm.html#a5d089c57c48085d25b95857c682922da" target="_top" xlink:title="module_sf_noahlsm::\lsnksrc">
<polygon fill="white" stroke="black" points="167,-49 167,-79 277,-79 277,-49 167,-49"/>
<text text-anchor="start" x="175" y="-67" font-family="Helvetica,sans-Serif" font-size="10.00">module_sf_noahlsm::</text>
<text text-anchor="middle" x="222" y="-56" font-family="Helvetica,sans-Serif" font-size="10.00">snksrc</text>
</a>
</g>
</g>
<!-- Node1&#45;&gt;Node4 -->
<g id="edge3" class="edge"><title>Node1&#45;&gt;Node4</title>
<path fill="none" stroke="midnightblue" d="M121.658,-78.995C133.108,-77.2667 145.145,-75.4499 156.733,-73.7007"/>
<polygon fill="midnightblue" stroke="midnightblue" points="157.409,-77.1384 166.775,-72.185 156.364,-70.2168 157.409,-77.1384"/>
</g>
<!-- Node6 -->
<g id="node6" class="node"><title>Node6</title>
<g id="a_node6"><a xlink:href="classmodule__sf__noahlsm.html#aac4dfa006a09d48e949536f4dc217bbf" target="_top" xlink:title="module_sf_noahlsm::\ltdfcnd">
<polygon fill="white" stroke="black" points="167,-0 167,-30 277,-30 277,-0 167,-0"/>
<text text-anchor="start" x="175" y="-18" font-family="Helvetica,sans-Serif" font-size="10.00">module_sf_noahlsm::</text>
<text text-anchor="middle" x="222" y="-7" font-family="Helvetica,sans-Serif" font-size="10.00">tdfcnd</text>
</a>
</g>
</g>
<!-- Node1&#45;&gt;Node6 -->
<g id="edge5" class="edge"><title>Node1&#45;&gt;Node6</title>
<path fill="none" stroke="midnightblue" d="M80.1795,-78.3242C99.3212,-68.2754 130.445,-52.3285 158,-40 162.464,-38.0026 167.14,-35.9948 171.84,-34.0326"/>
<polygon fill="midnightblue" stroke="midnightblue" points="173.538,-37.1192 181.462,-30.087 170.882,-30.6425 173.538,-37.1192"/>
</g>
<!-- Node5 -->
<g id="node5" class="node"><title>Node5</title>
<g id="a_node5"><a xlink:href="classmodule__sf__noahlsm.html#a5beb42f74e1a357ccfc0e904f356b33a" target="_top" xlink:title="module_sf_noahlsm::\lfrh2o">
<polygon fill="white" stroke="black" points="322,-49 322,-79 432,-79 432,-49 322,-49"/>
<text text-anchor="start" x="330" y="-67" font-family="Helvetica,sans-Serif" font-size="10.00">module_sf_noahlsm::</text>
<text text-anchor="middle" x="377" y="-56" font-family="Helvetica,sans-Serif" font-size="10.00">frh2o</text>
</a>
</g>
</g>
<!-- Node4&#45;&gt;Node5 -->
<g id="edge4" class="edge"><title>Node4&#45;&gt;Node5</title>
<path fill="none" stroke="midnightblue" d="M277.373,-64C288.421,-64 300.142,-64 311.502,-64"/>
<polygon fill="midnightblue" stroke="midnightblue" points="311.802,-67.5001 321.802,-64 311.802,-60.5001 311.802,-67.5001"/>
</g>
</g>
</svg>
