<?xml version="1.0" encoding="UTF-8" standalone="no"?>
<!DOCTYPE svg PUBLIC "-//W3C//DTD SVG 1.1//EN"
 "http://www.w3.org/Graphics/SVG/1.1/DTD/svg11.dtd">
<!-- Generated by graphviz version 2.32.0 (20130809.1645)
 -->
<!-- Title: init::init_domain_land Pages: 1 -->
<svg width="254pt" height="136pt"
 viewBox="0.00 0.00 254.00 136.00" xmlns="http://www.w3.org/2000/svg" xmlns:xlink="http://www.w3.org/1999/xlink">
<g id="graph0" class="graph" transform="scale(1 1) rotate(0) translate(4 132)">
<title>init::init_domain_land</title>
<polygon fill="white" stroke="white" points="-4,5 -4,-132 251,-132 251,5 -4,5"/>
<!-- Node1 -->
<g id="node1" class="node"><title>Node1</title>
<polygon fill="#bfbfbf" stroke="black" points="0,-54.5 0,-73.5 108,-73.5 108,-54.5 0,-54.5"/>
<text text-anchor="middle" x="54" y="-61.5" font-family="Helvetica,sans-Serif" font-size="10.00">init::init_domain_land</text>
</g>
<!-- Node2 -->
<g id="node2" class="node"><title>Node2</title>
<g id="a_node2"><a xlink:href="interfaceio__routines_1_1io__read.html#a9b6dacfccbb234dd949e7136e5b67f8c" target="_top" xlink:title=" Same as io_read6d but for 3&#45;dimensional data ">
<polygon fill="white" stroke="black" points="144.5,-98 144.5,-128 245.5,-128 245.5,-98 144.5,-98"/>
<text text-anchor="start" x="152.5" y="-116" font-family="Helvetica,sans-Serif" font-size="10.00">io_routines::io_read</text>
<text text-anchor="middle" x="195" y="-105" font-family="Helvetica,sans-Serif" font-size="10.00">::io_read3d</text>
</a>
</g>
</g>
<!-- Node1&#45;&gt;Node2 -->
<g id="edge1" class="edge"><title>Node1&#45;&gt;Node2</title>
<path fill="none" stroke="midnightblue" d="M82.1306,-73.564C99.1137,-79.5509 121.555,-87.4618 141.878,-94.626"/>
<polygon fill="midnightblue" stroke="midnightblue" points="140.749,-97.9392 151.344,-97.963 143.077,-91.3374 140.749,-97.9392"/>
</g>
<!-- Node3 -->
<g id="node3" class="node"><title>Node3</title>
<g id="a_node3"><a xlink:href="interfaceio__routines_1_1io__read.html#a35290f3b01bd8f36bae0173749f6b870" target="_top" xlink:title=" Same as io_read3d but for 2&#45;dimensional data ">
<polygon fill="white" stroke="black" points="144.5,-49 144.5,-79 245.5,-79 245.5,-49 144.5,-49"/>
<text text-anchor="start" x="152.5" y="-67" font-family="Helvetica,sans-Serif" font-size="10.00">io_routines::io_read</text>
<text text-anchor="middle" x="195" y="-56" font-family="Helvetica,sans-Serif" font-size="10.00">::io_read2d</text>
</a>
</g>
</g>
<!-- Node1&#45;&gt;Node3 -->
<g id="edge2" class="edge"><title>Node1&#45;&gt;Node3</title>
<path fill="none" stroke="midnightblue" d="M108.343,-64C116.726,-64 125.44,-64 133.96,-64"/>
<polygon fill="midnightblue" stroke="midnightblue" points="134.223,-67.5001 144.223,-64 134.223,-60.5001 134.223,-67.5001"/>
</g>
<!-- Node4 -->
<g id="node4" class="node"><title>Node4</title>
<g id="a_node4"><a xlink:href="interfaceio__routines_1_1io__read.html#a8b9f7abc143c8f5a7f3b727d2beea7c2" target="_top" xlink:title=" Same as io_read2d but for integer data ">
<polygon fill="white" stroke="black" points="144.5,-0 144.5,-30 245.5,-30 245.5,-0 144.5,-0"/>
<text text-anchor="start" x="152.5" y="-18" font-family="Helvetica,sans-Serif" font-size="10.00">io_routines::io_read</text>
<text text-anchor="middle" x="195" y="-7" font-family="Helvetica,sans-Serif" font-size="10.00">::io_read2di</text>
</a>
</g>
</g>
<!-- Node1&#45;&gt;Node4 -->
<g id="edge3" class="edge"><title>Node1&#45;&gt;Node4</title>
<path fill="none" stroke="midnightblue" d="M82.1306,-54.436C99.1137,-48.4491 121.555,-40.5382 141.878,-33.374"/>
<polygon fill="midnightblue" stroke="midnightblue" points="143.077,-36.6626 151.344,-30.037 140.749,-30.0608 143.077,-36.6626"/>
</g>
</g>
</svg>
