<?xml version="1.0" encoding="UTF-8" standalone="no"?>
<!DOCTYPE svg PUBLIC "-//W3C//DTD SVG 1.1//EN"
 "http://www.w3.org/Graphics/SVG/1.1/DTD/svg11.dtd">
<!-- Generated by graphviz version 2.38.0 (20140413.2041)
 -->
<!-- Title: module_sf_noahlsm::snowpack Pages: 1 -->
<!--zoomable 39 -->
<svg id="main" version="1.1" xmlns="http://www.w3.org/2000/svg" xmlns:xlink="http://www.w3.org/1999/xlink" xml:space="preserve" onload="init(evt)">
<style type="text/css"><![CDATA[
.edge:hover path { stroke: red; }
.edge:hover polygon { stroke: red; fill: red; }
]]></style>
<script type="text/javascript"><![CDATA[
var edges = document.getElementsByTagName('g');
if (edges && edges.length) {
  for (var i=0;i<edges.length;i++) {
    if (edges[i].id.substr(0,4)=='edge') {
      edges[i].setAttribute('class','edge');
    }
  }
}
]]></script>
        <defs>
                <circle id="rim" cx="0" cy="0" r="7"/>
                <circle id="rim2" cx="0" cy="0" r="3.5"/>
                <g id="zoomPlus">
                        <use xlink:href="#rim" fill="#404040">
                                <set attributeName="fill" to="#808080" begin="zoomplus.mouseover" end="zoomplus.mouseout"/>
                        </use>
                        <path d="M-4,0h8M0,-4v8" fill="none" stroke="white" stroke-width="1.5" pointer-events="none"/>
                </g>
                <g id="zoomMin">
                        <use xlink:href="#rim" fill="#404040">
                                <set attributeName="fill" to="#808080" begin="zoomminus.mouseover" end="zoomminus.mouseout"/>
                        </use>
                        <path d="M-4,0h8" fill="none" stroke="white" stroke-width="1.5" pointer-events="none"/>
                </g>
                <g id="dirArrow">
                        <path fill="none" stroke="white" stroke-width="1.5" d="M0,-3.0v7 M-2.5,-0.5L0,-3.0L2.5,-0.5"/>
                </g>
               <g id="resetDef">
                       <use xlink:href="#rim2" fill="#404040">
                               <set attributeName="fill" to="#808080" begin="reset.mouseover" end="reset.mouseout"/>
                       </use>
               </g>
        </defs>

<script type="text/javascript">
var viewWidth = 886;
var viewHeight = 39;
var sectionId = 'dynsection-29';
</script>
<script xlink:href="svgpan.js"/>
<svg id="graph" class="graph">
<g id="viewport">
<title>module_sf_noahlsm::snowpack</title>
<polygon fill="white" stroke="none" points="-4,4 -4,-35 882,-35 882,4 -4,4"/>
<!-- Node1 -->
<g id="node1" class="node"><title>Node1</title>
<polygon fill="#bfbfbf" stroke="black" points="0,-0.5 0,-30.5 110,-30.5 110,-0.5 0,-0.5"/>
<text text-anchor="start" x="8" y="-18.5" font-family="Helvetica,sans-Serif" font-size="10.00">module_sf_noahlsm::</text>
<text text-anchor="middle" x="55" y="-7.5" font-family="Helvetica,sans-Serif" font-size="10.00">snowpack</text>
</g>
<!-- Node2 -->
<g id="node2" class="node"><title>Node2</title>
<g id="a_node2"><a xlink:href="classmodule__sf__noahlsm.html#a9d1e26133ed89bc5465a230d45d0625d" target="_top" xlink:title="module_sf_noahlsm::\lsnopac">
<polygon fill="white" stroke="black" points="146,-0.5 146,-30.5 256,-30.5 256,-0.5 146,-0.5"/>
<text text-anchor="start" x="154" y="-18.5" font-family="Helvetica,sans-Serif" font-size="10.00">module_sf_noahlsm::</text>
<text text-anchor="middle" x="201" y="-7.5" font-family="Helvetica,sans-Serif" font-size="10.00">snopac</text>
</a>
</g>
</g>
<!-- Node1&#45;&gt;Node2 -->
<g id="edge1" class="edge"><title>Node1&#45;&gt;Node2</title>
<path fill="none" stroke="midnightblue" d="M120.27,-15.5C128.75,-15.5 137.375,-15.5 145.667,-15.5"/>
<polygon fill="midnightblue" stroke="midnightblue" points="120.03,-12.0001 110.03,-15.5 120.03,-19.0001 120.03,-12.0001"/>
</g>
<!-- Node3 -->
<g id="node3" class="node"><title>Node3</title>
<g id="a_node3"><a xlink:href="classmodule__sf__noahlsm.html#a7cd9a2732205c21a5f59d679e0a1fddd" target="_top" xlink:title="module_sf_noahlsm::sflx">
<polygon fill="white" stroke="black" points="292,-6 292,-25 417,-25 417,-6 292,-6"/>
<text text-anchor="middle" x="354.5" y="-13" font-family="Helvetica,sans-Serif" font-size="10.00">module_sf_noahlsm::sflx</text>
</a>
</g>
</g>
<!-- Node2&#45;&gt;Node3 -->
<g id="edge2" class="edge"><title>Node2&#45;&gt;Node3</title>
<path fill="none" stroke="midnightblue" d="M266.434,-15.5C274.87,-15.5 283.498,-15.5 291.886,-15.5"/>
<polygon fill="midnightblue" stroke="midnightblue" points="266.267,-12.0001 256.267,-15.5 266.267,-19.0001 266.267,-12.0001"/>
</g>
<!-- Node4 -->
<g id="node4" class="node"><title>Node4</title>
<g id="a_node4"><a xlink:href="classmodule__sf__noahdrv.html#a329dccdd0c1fc2797bc8ebcc9bcc0ff6" target="_top" xlink:title="module_sf_noahdrv::\llsm_noah">
<polygon fill="white" stroke="black" points="453,-0.5 453,-30.5 560,-30.5 560,-0.5 453,-0.5"/>
<text text-anchor="start" x="461" y="-18.5" font-family="Helvetica,sans-Serif" font-size="10.00">module_sf_noahdrv::</text>
<text text-anchor="middle" x="506.5" y="-7.5" font-family="Helvetica,sans-Serif" font-size="10.00">lsm_noah</text>
</a>
</g>
</g>
<!-- Node3&#45;&gt;Node4 -->
<g id="edge3" class="edge"><title>Node3&#45;&gt;Node4</title>
<path fill="none" stroke="midnightblue" d="M427.397,-15.5C435.977,-15.5 444.611,-15.5 452.85,-15.5"/>
<polygon fill="midnightblue" stroke="midnightblue" points="427.377,-12.0001 417.377,-15.5 427.377,-19.0001 427.377,-12.0001"/>
</g>
<!-- Node5 -->
<g id="node5" class="node"><title>Node5</title>
<g id="a_node5"><a xlink:href="classland__surface.html#a5eda887fb43d0e56a673bbec669be5ad" target="_top" xlink:title="land_surface::lsm">
<polygon fill="white" stroke="black" points="596,-6 596,-25 690,-25 690,-6 596,-6"/>
<text text-anchor="middle" x="643" y="-13" font-family="Helvetica,sans-Serif" font-size="10.00">land_surface::lsm</text>
</a>
</g>
</g>
<!-- Node4&#45;&gt;Node5 -->
<g id="edge4" class="edge"><title>Node4&#45;&gt;Node5</title>
<path fill="none" stroke="midnightblue" d="M570.321,-15.5C578.948,-15.5 587.673,-15.5 595.924,-15.5"/>
<polygon fill="midnightblue" stroke="midnightblue" points="570.272,-12.0001 560.272,-15.5 570.272,-19.0001 570.272,-12.0001"/>
</g>
<!-- Node6 -->
<g id="node6" class="node"><title>Node6</title>
<g id="a_node6"><a xlink:href="classtime__step.html#a2c022f11247af72e607b1493289aa974" target="_top" xlink:title=" Step forward one IO time step. ">
<polygon fill="white" stroke="black" points="726,-6 726,-25 810,-25 810,-6 726,-6"/>
<text text-anchor="middle" x="768" y="-13" font-family="Helvetica,sans-Serif" font-size="10.00">time_step::step</text>
</a>
</g>
</g>
<!-- Node5&#45;&gt;Node6 -->
<g id="edge5" class="edge"><title>Node5&#45;&gt;Node6</title>
<path fill="none" stroke="midnightblue" d="M700.191,-15.5C708.834,-15.5 717.618,-15.5 725.853,-15.5"/>
<polygon fill="midnightblue" stroke="midnightblue" points="700.151,-12.0001 690.151,-15.5 700.151,-19.0001 700.151,-12.0001"/>
</g>
<!-- Node7 -->
<g id="node7" class="node"><title>Node7</title>
<g id="a_node7"><a xlink:href="driver_8f90.html#ab1e5a5816a57fc6e95d9563c2bb53590" target="_top" xlink:title=" Main Program ">
<polygon fill="white" stroke="black" points="846,-6 846,-25 878,-25 878,-6 846,-6"/>
<text text-anchor="middle" x="862" y="-13" font-family="Helvetica,sans-Serif" font-size="10.00">icar</text>
</a>
</g>
</g>
<!-- Node6&#45;&gt;Node7 -->
<g id="edge6" class="edge"><title>Node6&#45;&gt;Node7</title>
<path fill="none" stroke="midnightblue" d="M820.253,-15.5C829.521,-15.5 838.5,-15.5 845.66,-15.5"/>
<polygon fill="midnightblue" stroke="midnightblue" points="820.156,-12.0001 810.156,-15.5 820.156,-19.0001 820.156,-12.0001"/>
</g>
</g>
</svg>
        <g id="navigator" transform="translate(0 0)" fill="#404254">
                <rect fill="#f2f5e9" fill-opacity="0.5" stroke="#606060" stroke-width=".5" x="0" y="0" width="60" height="60"/>
                <use id="zoomplus" xlink:href="#zoomPlus" x="17" y="9" onmousedown="handleZoom(evt,'in')"/>
                <use id="zoomminus" xlink:href="#zoomMin" x="42" y="9" onmousedown="handleZoom(evt,'out')"/>
                <use id="reset" xlink:href="#resetDef" x="30" y="36" onmousedown="handleReset()"/>
                <g id="arrowUp" xlink:href="#dirArrow" transform="translate(30 24)" onmousedown="handlePan(0,-1)">
                  <use xlink:href="#rim" fill="#404040">
                        <set attributeName="fill" to="#808080" begin="arrowUp.mouseover" end="arrowUp.mouseout"/>
                  </use>
                  <path fill="none" stroke="white" stroke-width="1.5" d="M0,-3.0v7 M-2.5,-0.5L0,-3.0L2.5,-0.5"/>
                </g>
                <g id="arrowRight" xlink:href="#dirArrow" transform="rotate(90) translate(36 -43)" onmousedown="handlePan(1,0)">
                  <use xlink:href="#rim" fill="#404040">
                        <set attributeName="fill" to="#808080" begin="arrowRight.mouseover" end="arrowRight.mouseout"/>
                  </use>
                  <path fill="none" stroke="white" stroke-width="1.5" d="M0,-3.0v7 M-2.5,-0.5L0,-3.0L2.5,-0.5"/>
                </g>
                <g id="arrowDown" xlink:href="#dirArrow" transform="rotate(180) translate(-30 -48)" onmousedown="handlePan(0,1)">
                  <use xlink:href="#rim" fill="#404040">
                        <set attributeName="fill" to="#808080" begin="arrowDown.mouseover" end="arrowDown.mouseout"/>
                  </use>
                  <path fill="none" stroke="white" stroke-width="1.5" d="M0,-3.0v7 M-2.5,-0.5L0,-3.0L2.5,-0.5"/>
                </g>
                <g id="arrowLeft" xlink:href="#dirArrow" transform="rotate(270) translate(-36 17)" onmousedown="handlePan(-1,0)">
                  <use xlink:href="#rim" fill="#404040">
                        <set attributeName="fill" to="#808080" begin="arrowLeft.mouseover" end="arrowLeft.mouseout"/>
                  </use>
                  <path fill="none" stroke="white" stroke-width="1.5" d="M0,-3.0v7 M-2.5,-0.5L0,-3.0L2.5,-0.5"/>
                </g>
        </g>
        <svg viewBox="0 0 15 15" width="100%" height="30px" preserveAspectRatio="xMaxYMin meet">
         <g id="arrow_out" transform="scale(0.3 0.3)">
          <a xlink:href="classmodule__sf__noahlsm_ae6d35ff66196a3ab369a3e87149ddcdc_icgraph_org.svg" target="_base">
           <rect id="button" ry="5" rx="5" y="6" x="6" height="38" width="38"
                fill="#f2f5e9" fill-opacity="0.5" stroke="#606060" stroke-width="1.0"/>
           <path id="arrow"
             d="M 11.500037,31.436501 C 11.940474,20.09759 22.043105,11.32322 32.158766,21.979434 L 37.068811,17.246167 C 37.068811,17.246167 37.088388,32 37.088388,32 L 22.160133,31.978069 C 22.160133,31.978069 26.997745,27.140456 26.997745,27.140456 C 18.528582,18.264221 13.291696,25.230495 11.500037,31.436501 z"
             style="fill:#404040;"/>
          </a>
         </g>
        </svg>
</svg>
