<?xml version="1.0" encoding="UTF-8" standalone="no"?>
<!DOCTYPE svg PUBLIC "-//W3C//DTD SVG 1.1//EN"
 "http://www.w3.org/Graphics/SVG/1.1/DTD/svg11.dtd">
<!-- Generated by graphviz version 2.32.0 (20130809.1645)
 -->
<!-- Title: boundary_conditions::read_var Pages: 1 -->
<svg width="466pt" height="142pt"
 viewBox="0.00 0.00 466.00 142.13" xmlns="http://www.w3.org/2000/svg" xmlns:xlink="http://www.w3.org/1999/xlink">
<g id="graph0" class="graph" transform="scale(1 1) rotate(0) translate(4 138.127)">
<title>boundary_conditions::read_var</title>
<polygon fill="white" stroke="white" points="-4,5 -4,-138.127 463,-138.127 463,5 -4,5"/>
<!-- Node1 -->
<g id="node1" class="node"><title>Node1</title>
<polygon fill="#bfbfbf" stroke="black" points="0,-38.1271 0,-68.1271 106,-68.1271 106,-38.1271 0,-38.1271"/>
<text text-anchor="start" x="8" y="-56.1271" font-family="Helvetica,sans-Serif" font-size="10.00">boundary_conditions</text>
<text text-anchor="middle" x="53" y="-45.1271" font-family="Helvetica,sans-Serif" font-size="10.00">::read_var</text>
</g>
<!-- Node2 -->
<g id="node2" class="node"><title>Node2</title>
<g id="a_node2"><a xlink:href="classboundary__conditions.html#afd8110e2b16915ce0cb12ce4958fe09c" target="_top" xlink:title=" Initialize the external winds information (filenames, nfiles, etc) and read the initial conditions ...">
<polygon fill="white" stroke="black" points="142,-104.127 142,-134.127 248,-134.127 248,-104.127 142,-104.127"/>
<text text-anchor="start" x="150" y="-122.127" font-family="Helvetica,sans-Serif" font-size="10.00">boundary_conditions</text>
<text text-anchor="middle" x="195" y="-111.127" font-family="Helvetica,sans-Serif" font-size="10.00">::ext_winds_init</text>
</a>
</g>
</g>
<!-- Node1&#45;&gt;Node2 -->
<g id="edge1" class="edge"><title>Node1&#45;&gt;Node2</title>
<path fill="none" stroke="midnightblue" d="M95.2711,-72.5835C116.598,-82.6375 142.229,-94.7208 162.031,-104.056"/>
<polygon fill="midnightblue" stroke="midnightblue" points="96.6566,-69.3672 86.1188,-68.2688 93.6716,-75.6989 96.6566,-69.3672"/>
</g>
<!-- Node3 -->
<g id="node3" class="node"><title>Node3</title>
<g id="a_node3"><a xlink:href="classboundary__conditions.html#a07a42f467f470ada98e0a35fd5a75f66" target="_top" xlink:title=" Initialize the boundary conditions (read inital conditions, etc.) ">
<polygon fill="white" stroke="black" points="284,-62.1271 284,-92.1271 390,-92.1271 390,-62.1271 284,-62.1271"/>
<text text-anchor="start" x="292" y="-80.1271" font-family="Helvetica,sans-Serif" font-size="10.00">boundary_conditions</text>
<text text-anchor="middle" x="337" y="-69.1271" font-family="Helvetica,sans-Serif" font-size="10.00">::bc_init</text>
</a>
</g>
</g>
<!-- Node1&#45;&gt;Node3 -->
<g id="edge4" class="edge"><title>Node1&#45;&gt;Node3</title>
<path fill="none" stroke="midnightblue" d="M116.146,-58.4161C166.407,-62.6937 236.373,-68.6482 283.775,-72.6824"/>
<polygon fill="midnightblue" stroke="midnightblue" points="116.313,-54.9177 106.052,-57.557 115.719,-61.8925 116.313,-54.9177"/>
</g>
<!-- Node5 -->
<g id="node5" class="node"><title>Node5</title>
<g id="a_node5"><a xlink:href="classboundary__conditions.html#a40ba01db58736c2bb018af7ebe72f55f" target="_top" xlink:title=" Update the external wind field ">
<polygon fill="white" stroke="black" points="142,-16.1271 142,-46.1271 248,-46.1271 248,-16.1271 142,-16.1271"/>
<text text-anchor="start" x="150" y="-34.1271" font-family="Helvetica,sans-Serif" font-size="10.00">boundary_conditions</text>
<text text-anchor="middle" x="195" y="-23.1271" font-family="Helvetica,sans-Serif" font-size="10.00">::update_ext_winds</text>
</a>
</g>
</g>
<!-- Node1&#45;&gt;Node5 -->
<g id="edge5" class="edge"><title>Node1&#45;&gt;Node5</title>
<path fill="none" stroke="midnightblue" d="M116.107,-43.3674C124.695,-42.0179 133.443,-40.6432 141.826,-39.3259"/>
<polygon fill="midnightblue" stroke="midnightblue" points="115.466,-39.9251 106.131,-44.9351 116.553,-46.8402 115.466,-39.9251"/>
</g>
<!-- Node6 -->
<g id="node6" class="node"><title>Node6</title>
<g id="a_node6"><a xlink:href="classboundary__conditions.html#a1e8385c37634f3d7f70ea7c749dcda11" target="_top" xlink:title=" Read in the next timestep of input data and apply to the dXdt grids as appropriate. ">
<polygon fill="white" stroke="black" points="284,-13.1271 284,-43.1271 390,-43.1271 390,-13.1271 284,-13.1271"/>
<text text-anchor="start" x="292" y="-31.1271" font-family="Helvetica,sans-Serif" font-size="10.00">boundary_conditions</text>
<text text-anchor="middle" x="337" y="-20.1271" font-family="Helvetica,sans-Serif" font-size="10.00">::bc_update</text>
</a>
</g>
</g>
<!-- Node1&#45;&gt;Node6 -->
<g id="edge8" class="edge"><title>Node1&#45;&gt;Node6</title>
<path fill="none" stroke="midnightblue" d="M83.7677,-32.4858C100.147,-22.3859 121.302,-11.308 142,-6.12708 190.501,6.01333 247.515,-3.13961 287.131,-13.0789"/>
<polygon fill="midnightblue" stroke="midnightblue" points="81.7432,-29.6256 75.1925,-37.9526 85.5062,-35.5281 81.7432,-29.6256"/>
</g>
<!-- Node2&#45;&gt;Node3 -->
<g id="edge2" class="edge"><title>Node2&#45;&gt;Node3</title>
<path fill="none" stroke="midnightblue" d="M255.951,-101.142C265.876,-98.1642 276.077,-95.1041 285.732,-92.2075"/>
<polygon fill="midnightblue" stroke="midnightblue" points="254.72,-97.8568 246.148,-104.083 256.732,-104.562 254.72,-97.8568"/>
</g>
<!-- Node4 -->
<g id="node4" class="node"><title>Node4</title>
<g id="a_node4"><a xlink:href="driver_8f90.html#ab1e5a5816a57fc6e95d9563c2bb53590" target="_top" xlink:title=" Main Program ">
<polygon fill="white" stroke="black" points="426,-42.6271 426,-61.6271 458,-61.6271 458,-42.6271 426,-42.6271"/>
<text text-anchor="middle" x="442" y="-49.6271" font-family="Helvetica,sans-Serif" font-size="10.00">icar</text>
</a>
</g>
</g>
<!-- Node3&#45;&gt;Node4 -->
<g id="edge3" class="edge"><title>Node3&#45;&gt;Node4</title>
<path fill="none" stroke="midnightblue" d="M400.071,-62.0613C409.517,-59.7685 418.468,-57.596 425.576,-55.8707"/>
<polygon fill="midnightblue" stroke="midnightblue" points="398.996,-58.7206 390.104,-64.4806 400.647,-65.5231 398.996,-58.7206"/>
</g>
<!-- Node5&#45;&gt;Node6 -->
<g id="edge6" class="edge"><title>Node5&#45;&gt;Node6</title>
<path fill="none" stroke="midnightblue" d="M258.387,-29.7902C266.885,-29.6081 275.534,-29.4228 283.826,-29.2451"/>
<polygon fill="midnightblue" stroke="midnightblue" points="258.054,-26.2965 248.131,-30.01 258.204,-33.2949 258.054,-26.2965"/>
</g>
<!-- Node6&#45;&gt;Node4 -->
<g id="edge7" class="edge"><title>Node6&#45;&gt;Node4</title>
<path fill="none" stroke="midnightblue" d="M400.071,-42.5902C409.517,-44.7913 418.468,-46.8769 425.576,-48.5332"/>
<polygon fill="midnightblue" stroke="midnightblue" points="400.637,-39.1284 390.104,-40.2677 399.048,-45.9458 400.637,-39.1284"/>
</g>
</g>
</svg>
