<?xml version="1.0" encoding="UTF-8" standalone="no"?>
<!DOCTYPE svg PUBLIC "-//W3C//DTD SVG 1.1//EN"
 "http://www.w3.org/Graphics/SVG/1.1/DTD/svg11.dtd">
<!-- Generated by graphviz version 2.38.0 (20140413.2041)
 -->
<!-- Title: geo::bilin_weights Pages: 1 -->
<svg width="627pt" height="47pt"
 viewBox="0.00 0.00 627.00 47.00" xmlns="http://www.w3.org/2000/svg" xmlns:xlink="http://www.w3.org/1999/xlink">
<g id="graph0" class="graph" transform="scale(1 1) rotate(0) translate(4 43)">
<title>geo::bilin_weights</title>
<polygon fill="white" stroke="none" points="-4,4 -4,-43 623,-43 623,4 -4,4"/>
<!-- Node1 -->
<g id="node1" class="node"><title>Node1</title>
<polygon fill="#bfbfbf" stroke="black" points="0,-0.5 0,-19.5 95,-19.5 95,-0.5 0,-0.5"/>
<text text-anchor="middle" x="47.5" y="-7.5" font-family="Helvetica,sans-Serif" font-size="10.00">geo::bilin_weights</text>
</g>
<!-- Node2 -->
<g id="node2" class="node"><title>Node2</title>
<g id="a_node2"><a xlink:href="classgeo.html#aa64883699f3b5a3f3b75da0b101a8a57" target="_top" xlink:title=" Compute the geographic look up table from LOw resolution grid to HIgh resolution grid ...">
<polygon fill="white" stroke="black" points="131,-0.5 131,-19.5 201,-19.5 201,-0.5 131,-0.5"/>
<text text-anchor="middle" x="166" y="-7.5" font-family="Helvetica,sans-Serif" font-size="10.00">geo::geo_lut</text>
</a>
</g>
</g>
<!-- Node1&#45;&gt;Node2 -->
<g id="edge1" class="edge"><title>Node1&#45;&gt;Node2</title>
<path fill="none" stroke="midnightblue" d="M105.367,-10C114.073,-10 122.819,-10 130.828,-10"/>
<polygon fill="midnightblue" stroke="midnightblue" points="105.214,-6.5001 95.2137,-10 105.214,-13.5001 105.214,-6.5001"/>
</g>
<!-- Node3 -->
<g id="node3" class="node"><title>Node3</title>
<g id="a_node3"><a xlink:href="classinit.html#a8b5935b5b45a47c58fdd67157c16764b" target="_top" xlink:title="init::init_ext_winds">
<polygon fill="white" stroke="black" points="237,-19.5 237,-38.5 335,-38.5 335,-19.5 237,-19.5"/>
<text text-anchor="middle" x="286" y="-26.5" font-family="Helvetica,sans-Serif" font-size="10.00">init::init_ext_winds</text>
</a>
</g>
</g>
<!-- Node2&#45;&gt;Node3 -->
<g id="edge2" class="edge"><title>Node2&#45;&gt;Node3</title>
<path fill="none" stroke="midnightblue" d="M211.125,-17.1049C219.535,-18.4591 228.377,-19.8827 236.904,-21.2557"/>
<polygon fill="midnightblue" stroke="midnightblue" points="211.56,-13.6299 201.13,-15.4956 210.447,-20.5409 211.56,-13.6299"/>
</g>
<!-- Node4 -->
<g id="node4" class="node"><title>Node4</title>
<g id="a_node4"><a xlink:href="classinit.html#a1c6cab46bb16bea719da3b193c43ccb3" target="_top" xlink:title="init::init_bc">
<polygon fill="white" stroke="black" points="371,-0.5 371,-19.5 435,-19.5 435,-0.5 371,-0.5"/>
<text text-anchor="middle" x="403" y="-7.5" font-family="Helvetica,sans-Serif" font-size="10.00">init::init_bc</text>
</a>
</g>
</g>
<!-- Node2&#45;&gt;Node4 -->
<g id="edge6" class="edge"><title>Node2&#45;&gt;Node4</title>
<path fill="none" stroke="midnightblue" d="M211.271,-10C257.82,-10 329.868,-10 370.792,-10"/>
<polygon fill="midnightblue" stroke="midnightblue" points="211.171,-6.5001 201.171,-10 211.171,-13.5001 211.171,-6.5001"/>
</g>
<!-- Node3&#45;&gt;Node4 -->
<g id="edge3" class="edge"><title>Node3&#45;&gt;Node4</title>
<path fill="none" stroke="midnightblue" d="M345.082,-19.4038C353.953,-17.9382 362.805,-16.4757 370.794,-15.1558"/>
<polygon fill="midnightblue" stroke="midnightblue" points="344.4,-15.969 335.104,-21.0524 345.541,-22.8754 344.4,-15.969"/>
</g>
<!-- Node5 -->
<g id="node5" class="node"><title>Node5</title>
<g id="a_node5"><a xlink:href="classinit.html#a1dd1e2b38eef39cba464f65c9ce82568" target="_top" xlink:title="init::init_model">
<polygon fill="white" stroke="black" points="471,-0.5 471,-19.5 551,-19.5 551,-0.5 471,-0.5"/>
<text text-anchor="middle" x="511" y="-7.5" font-family="Helvetica,sans-Serif" font-size="10.00">init::init_model</text>
</a>
</g>
</g>
<!-- Node4&#45;&gt;Node5 -->
<g id="edge4" class="edge"><title>Node4&#45;&gt;Node5</title>
<path fill="none" stroke="midnightblue" d="M445.472,-10C453.778,-10 462.48,-10 470.708,-10"/>
<polygon fill="midnightblue" stroke="midnightblue" points="445.23,-6.5001 435.23,-10 445.23,-13.5001 445.23,-6.5001"/>
</g>
<!-- Node6 -->
<g id="node6" class="node"><title>Node6</title>
<g id="a_node6"><a xlink:href="driver_8f90.html#ab1e5a5816a57fc6e95d9563c2bb53590" target="_top" xlink:title=" Main Program ">
<polygon fill="white" stroke="black" points="587,-0.5 587,-19.5 619,-19.5 619,-0.5 587,-0.5"/>
<text text-anchor="middle" x="603" y="-7.5" font-family="Helvetica,sans-Serif" font-size="10.00">icar</text>
</a>
</g>
</g>
<!-- Node5&#45;&gt;Node6 -->
<g id="edge5" class="edge"><title>Node5&#45;&gt;Node6</title>
<path fill="none" stroke="midnightblue" d="M561.233,-10C570.449,-10 579.425,-10 586.599,-10"/>
<polygon fill="midnightblue" stroke="midnightblue" points="561.214,-6.5001 551.213,-10 561.213,-13.5001 561.214,-6.5001"/>
</g>
</g>
</svg>
