<?xml version="1.0" encoding="UTF-8" standalone="no"?>
<!DOCTYPE svg PUBLIC "-//W3C//DTD SVG 1.1//EN"
 "http://www.w3.org/Graphics/SVG/1.1/DTD/svg11.dtd">
<!-- Generated by graphviz version 2.38.0 (20140413.2041)
 -->
<!-- Title: init::remove_edges Pages: 1 -->
<svg width="512pt" height="47pt"
 viewBox="0.00 0.00 512.00 47.00" xmlns="http://www.w3.org/2000/svg" xmlns:xlink="http://www.w3.org/1999/xlink">
<g id="graph0" class="graph" transform="scale(1 1) rotate(0) translate(4 43)">
<title>init::remove_edges</title>
<polygon fill="white" stroke="none" points="-4,4 -4,-43 508,-43 508,4 -4,4"/>
<!-- Node1 -->
<g id="node1" class="node"><title>Node1</title>
<polygon fill="#bfbfbf" stroke="black" points="0,-19.5 0,-38.5 99,-38.5 99,-19.5 0,-19.5"/>
<text text-anchor="middle" x="49.5" y="-26.5" font-family="Helvetica,sans-Serif" font-size="10.00">init::remove_edges</text>
</g>
<!-- Node2 -->
<g id="node2" class="node"><title>Node2</title>
<g id="a_node2"><a xlink:href="classinit.html#a2c0d47bd2656d1121f0522d0f77a0e07" target="_top" xlink:title="init::init_domain">
<polygon fill="white" stroke="black" points="135,-19.5 135,-38.5 220,-38.5 220,-19.5 135,-19.5"/>
<text text-anchor="middle" x="177.5" y="-26.5" font-family="Helvetica,sans-Serif" font-size="10.00">init::init_domain</text>
</a>
</g>
</g>
<!-- Node1&#45;&gt;Node2 -->
<g id="edge1" class="edge"><title>Node1&#45;&gt;Node2</title>
<path fill="none" stroke="midnightblue" d="M109.276,-29C117.921,-29 126.673,-29 134.876,-29"/>
<polygon fill="midnightblue" stroke="midnightblue" points="109.215,-25.5001 99.2149,-29 109.215,-32.5001 109.215,-25.5001"/>
</g>
<!-- Node3 -->
<g id="node3" class="node"><title>Node3</title>
<g id="a_node3"><a xlink:href="classinit.html#a1dd1e2b38eef39cba464f65c9ce82568" target="_top" xlink:title="init::init_model">
<polygon fill="white" stroke="black" points="356,-19.5 356,-38.5 436,-38.5 436,-19.5 356,-19.5"/>
<text text-anchor="middle" x="396" y="-26.5" font-family="Helvetica,sans-Serif" font-size="10.00">init::init_model</text>
</a>
</g>
</g>
<!-- Node2&#45;&gt;Node3 -->
<g id="edge2" class="edge"><title>Node2&#45;&gt;Node3</title>
<path fill="none" stroke="midnightblue" d="M230.252,-29C268.854,-29 320.775,-29 355.935,-29"/>
<polygon fill="midnightblue" stroke="midnightblue" points="230.243,-25.5001 220.243,-29 230.243,-32.5001 230.243,-25.5001"/>
</g>
<!-- Node5 -->
<g id="node5" class="node"><title>Node5</title>
<g id="a_node5"><a xlink:href="classinit.html#a1c6cab46bb16bea719da3b193c43ccb3" target="_top" xlink:title="init::init_bc">
<polygon fill="white" stroke="black" points="256,-0.5 256,-19.5 320,-19.5 320,-0.5 256,-0.5"/>
<text text-anchor="middle" x="288" y="-7.5" font-family="Helvetica,sans-Serif" font-size="10.00">init::init_bc</text>
</a>
</g>
</g>
<!-- Node2&#45;&gt;Node5 -->
<g id="edge4" class="edge"><title>Node2&#45;&gt;Node5</title>
<path fill="none" stroke="midnightblue" d="M230.27,-19.9344C238.979,-18.4092 247.774,-16.8691 255.754,-15.4717"/>
<polygon fill="midnightblue" stroke="midnightblue" points="229.385,-16.5359 220.139,-21.7084 230.592,-23.431 229.385,-16.5359"/>
</g>
<!-- Node4 -->
<g id="node4" class="node"><title>Node4</title>
<g id="a_node4"><a xlink:href="driver_8f90.html#ab1e5a5816a57fc6e95d9563c2bb53590" target="_top" xlink:title=" Main Program ">
<polygon fill="white" stroke="black" points="472,-19.5 472,-38.5 504,-38.5 504,-19.5 472,-19.5"/>
<text text-anchor="middle" x="488" y="-26.5" font-family="Helvetica,sans-Serif" font-size="10.00">icar</text>
</a>
</g>
</g>
<!-- Node3&#45;&gt;Node4 -->
<g id="edge3" class="edge"><title>Node3&#45;&gt;Node4</title>
<path fill="none" stroke="midnightblue" d="M446.233,-29C455.449,-29 464.425,-29 471.599,-29"/>
<polygon fill="midnightblue" stroke="midnightblue" points="446.214,-25.5001 436.213,-29 446.213,-32.5001 446.214,-25.5001"/>
</g>
<!-- Node5&#45;&gt;Node3 -->
<g id="edge5" class="edge"><title>Node5&#45;&gt;Node3</title>
<path fill="none" stroke="midnightblue" d="M330.196,-17.3841C338.584,-18.8877 347.388,-20.4658 355.708,-21.9572"/>
<polygon fill="midnightblue" stroke="midnightblue" points="330.691,-13.9172 320.23,-15.5979 329.456,-20.8074 330.691,-13.9172"/>
</g>
</g>
</svg>
