<?xml version="1.0" encoding="UTF-8" standalone="no"?>
<!DOCTYPE svg PUBLIC "-//W3C//DTD SVG 1.1//EN"
 "http://www.w3.org/Graphics/SVG/1.1/DTD/svg11.dtd">
<!-- Generated by graphviz version 2.38.0 (20140413.2041)
 -->
<!-- Title: linear_theory_winds::calc_speed Pages: 1 -->
<!--zoomable 88 -->
<svg id="main" version="1.1" xmlns="http://www.w3.org/2000/svg" xmlns:xlink="http://www.w3.org/1999/xlink" xml:space="preserve" onload="init(evt)">
<style type="text/css"><![CDATA[
.edge:hover path { stroke: red; }
.edge:hover polygon { stroke: red; fill: red; }
]]></style>
<script type="text/javascript"><![CDATA[
var edges = document.getElementsByTagName('g');
if (edges && edges.length) {
  for (var i=0;i<edges.length;i++) {
    if (edges[i].id.substr(0,4)=='edge') {
      edges[i].setAttribute('class','edge');
    }
  }
}
]]></script>
        <defs>
                <circle id="rim" cx="0" cy="0" r="7"/>
                <circle id="rim2" cx="0" cy="0" r="3.5"/>
                <g id="zoomPlus">
                        <use xlink:href="#rim" fill="#404040">
                                <set attributeName="fill" to="#808080" begin="zoomplus.mouseover" end="zoomplus.mouseout"/>
                        </use>
                        <path d="M-4,0h8M0,-4v8" fill="none" stroke="white" stroke-width="1.5" pointer-events="none"/>
                </g>
                <g id="zoomMin">
                        <use xlink:href="#rim" fill="#404040">
                                <set attributeName="fill" to="#808080" begin="zoomminus.mouseover" end="zoomminus.mouseout"/>
                        </use>
                        <path d="M-4,0h8" fill="none" stroke="white" stroke-width="1.5" pointer-events="none"/>
                </g>
                <g id="dirArrow">
                        <path fill="none" stroke="white" stroke-width="1.5" d="M0,-3.0v7 M-2.5,-0.5L0,-3.0L2.5,-0.5"/>
                </g>
               <g id="resetDef">
                       <use xlink:href="#rim2" fill="#404040">
                               <set attributeName="fill" to="#808080" begin="reset.mouseover" end="reset.mouseout"/>
                       </use>
               </g>
        </defs>

<script type="text/javascript">
var viewWidth = 749;
var viewHeight = 88;
var sectionId = 'dynsection-7';
</script>
<script xlink:href="svgpan.js"/>
<svg id="graph" class="graph">
<g id="viewport">
<title>linear_theory_winds::calc_speed</title>
<polygon fill="white" stroke="none" points="-4,4 -4,-84 745,-84 745,4 -4,4"/>
<!-- Node1 -->
<g id="node1" class="node"><title>Node1</title>
<polygon fill="#bfbfbf" stroke="black" points="0,-24.5 0,-54.5 103,-54.5 103,-24.5 0,-24.5"/>
<text text-anchor="start" x="8" y="-42.5" font-family="Helvetica,sans-Serif" font-size="10.00">linear_theory_winds</text>
<text text-anchor="middle" x="51.5" y="-31.5" font-family="Helvetica,sans-Serif" font-size="10.00">::calc_speed</text>
</g>
<!-- Node2 -->
<g id="node2" class="node"><title>Node2</title>
<g id="a_node2"><a xlink:href="classlinear__theory__winds.html#a2e662c05e82b0515704c9ab54f49373a" target="_top" xlink:title="linear_theory_winds\l::spatial_winds">
<polygon fill="white" stroke="black" points="139,-24.5 139,-54.5 242,-54.5 242,-24.5 139,-24.5"/>
<text text-anchor="start" x="147" y="-42.5" font-family="Helvetica,sans-Serif" font-size="10.00">linear_theory_winds</text>
<text text-anchor="middle" x="190.5" y="-31.5" font-family="Helvetica,sans-Serif" font-size="10.00">::spatial_winds</text>
</a>
</g>
</g>
<!-- Node1&#45;&gt;Node2 -->
<g id="edge1" class="edge"><title>Node1&#45;&gt;Node2</title>
<path fill="none" stroke="midnightblue" d="M113.32,-39.5C121.772,-39.5 130.382,-39.5 138.626,-39.5"/>
<polygon fill="midnightblue" stroke="midnightblue" points="113.125,-36.0001 103.125,-39.5 113.124,-43.0001 113.125,-36.0001"/>
</g>
<!-- Node3 -->
<g id="node3" class="node"><title>Node3</title>
<g id="a_node3"><a xlink:href="classlinear__theory__winds.html#a248a832d459ec9cd399c372d2ae9cb0a" target="_top" xlink:title="linear_theory_winds\l::linear_perturb">
<polygon fill="white" stroke="black" points="278,-24.5 278,-54.5 381,-54.5 381,-24.5 278,-24.5"/>
<text text-anchor="start" x="286" y="-42.5" font-family="Helvetica,sans-Serif" font-size="10.00">linear_theory_winds</text>
<text text-anchor="middle" x="329.5" y="-31.5" font-family="Helvetica,sans-Serif" font-size="10.00">::linear_perturb</text>
</a>
</g>
</g>
<!-- Node2&#45;&gt;Node3 -->
<g id="edge2" class="edge"><title>Node2&#45;&gt;Node3</title>
<path fill="none" stroke="midnightblue" d="M252.32,-39.5C260.772,-39.5 269.382,-39.5 277.626,-39.5"/>
<polygon fill="midnightblue" stroke="midnightblue" points="252.125,-36.0001 242.125,-39.5 252.124,-43.0001 252.125,-36.0001"/>
</g>
<!-- Node4 -->
<g id="node4" class="node"><title>Node4</title>
<g id="a_node4"><a xlink:href="classboundary__conditions.html#ac4cfb5127bfecdc6e088ef949694ea4a" target="_top" xlink:title=" Remove linear theory topographic winds perturbations from the low resolution wind field...">
<polygon fill="white" stroke="black" points="417,-46.5 417,-76.5 531,-76.5 531,-46.5 417,-46.5"/>
<text text-anchor="start" x="425" y="-64.5" font-family="Helvetica,sans-Serif" font-size="10.00">boundary_conditions</text>
<text text-anchor="middle" x="474" y="-53.5" font-family="Helvetica,sans-Serif" font-size="10.00">::remove_linear_winds</text>
</a>
</g>
</g>
<!-- Node3&#45;&gt;Node4 -->
<g id="edge3" class="edge"><title>Node3&#45;&gt;Node4</title>
<path fill="none" stroke="midnightblue" d="M391.295,-48.886C399.728,-50.1878 408.36,-51.5205 416.706,-52.809"/>
<polygon fill="midnightblue" stroke="midnightblue" points="391.558,-45.3852 381.141,-47.3183 390.49,-52.3032 391.558,-45.3852"/>
</g>
<!-- Node8 -->
<g id="node8" class="node"><title>Node8</title>
<g id="a_node8"><a xlink:href="classwind.html#a582192f02996b37543b966df84af1e78" target="_top" xlink:title="wind::update_winds">
<polygon fill="white" stroke="black" points="422.5,-8 422.5,-27 525.5,-27 525.5,-8 422.5,-8"/>
<text text-anchor="middle" x="474" y="-15" font-family="Helvetica,sans-Serif" font-size="10.00">wind::update_winds</text>
</a>
</g>
</g>
<!-- Node3&#45;&gt;Node8 -->
<g id="edge8" class="edge"><title>Node3&#45;&gt;Node8</title>
<path fill="none" stroke="midnightblue" d="M391.265,-30.1188C401.519,-28.5357 412.07,-26.9068 422.042,-25.3673"/>
<polygon fill="midnightblue" stroke="midnightblue" points="390.49,-26.6968 381.141,-31.6817 391.558,-33.6148 390.49,-26.6968"/>
</g>
<!-- Node5 -->
<g id="node5" class="node"><title>Node5</title>
<g id="a_node5"><a xlink:href="classboundary__conditions.html#a07a42f467f470ada98e0a35fd5a75f66" target="_top" xlink:title=" Initialize the boundary conditions (read inital conditions, etc.) ">
<polygon fill="white" stroke="black" points="567,-49.5 567,-79.5 673,-79.5 673,-49.5 567,-49.5"/>
<text text-anchor="start" x="575" y="-67.5" font-family="Helvetica,sans-Serif" font-size="10.00">boundary_conditions</text>
<text text-anchor="middle" x="620" y="-56.5" font-family="Helvetica,sans-Serif" font-size="10.00">::bc_init</text>
</a>
</g>
</g>
<!-- Node4&#45;&gt;Node5 -->
<g id="edge4" class="edge"><title>Node4&#45;&gt;Node5</title>
<path fill="none" stroke="midnightblue" d="M541.338,-62.882C549.811,-63.0586 558.389,-63.2373 566.599,-63.4083"/>
<polygon fill="midnightblue" stroke="midnightblue" points="541.157,-59.3776 531.086,-62.6685 541.011,-66.3761 541.157,-59.3776"/>
</g>
<!-- Node7 -->
<g id="node7" class="node"><title>Node7</title>
<g id="a_node7"><a xlink:href="classboundary__conditions.html#a1e8385c37634f3d7f70ea7c749dcda11" target="_top" xlink:title=" Read in the next timestep of input data and apply to the dXdt grids as appropriate. ">
<polygon fill="white" stroke="black" points="567,-0.5 567,-30.5 673,-30.5 673,-0.5 567,-0.5"/>
<text text-anchor="start" x="575" y="-18.5" font-family="Helvetica,sans-Serif" font-size="10.00">boundary_conditions</text>
<text text-anchor="middle" x="620" y="-7.5" font-family="Helvetica,sans-Serif" font-size="10.00">::bc_update</text>
</a>
</g>
</g>
<!-- Node4&#45;&gt;Node7 -->
<g id="edge6" class="edge"><title>Node4&#45;&gt;Node7</title>
<path fill="none" stroke="midnightblue" d="M532.045,-43.2772C545.202,-39.0743 559.056,-34.6487 571.743,-30.596"/>
<polygon fill="midnightblue" stroke="midnightblue" points="530.612,-40.0608 522.151,-46.4379 532.742,-46.7289 530.612,-40.0608"/>
</g>
<!-- Node6 -->
<g id="node6" class="node"><title>Node6</title>
<g id="a_node6"><a xlink:href="driver_8f90.html#ab1e5a5816a57fc6e95d9563c2bb53590" target="_top" xlink:title=" Main Program ">
<polygon fill="white" stroke="black" points="709,-30 709,-49 741,-49 741,-30 709,-30"/>
<text text-anchor="middle" x="725" y="-37" font-family="Helvetica,sans-Serif" font-size="10.00">icar</text>
</a>
</g>
</g>
<!-- Node5&#45;&gt;Node6 -->
<g id="edge5" class="edge"><title>Node5&#45;&gt;Node6</title>
<path fill="none" stroke="midnightblue" d="M683.071,-49.4343C692.517,-47.1414 701.468,-44.9689 708.576,-43.2436"/>
<polygon fill="midnightblue" stroke="midnightblue" points="681.996,-46.0935 673.104,-51.8535 683.647,-52.896 681.996,-46.0935"/>
</g>
<!-- Node7&#45;&gt;Node6 -->
<g id="edge7" class="edge"><title>Node7&#45;&gt;Node6</title>
<path fill="none" stroke="midnightblue" d="M683.071,-29.9631C692.517,-32.1642 701.468,-34.2498 708.576,-35.9061"/>
<polygon fill="midnightblue" stroke="midnightblue" points="683.637,-26.5013 673.104,-27.6406 682.048,-33.3187 683.637,-26.5013"/>
</g>
<!-- Node8&#45;&gt;Node5 -->
<g id="edge9" class="edge"><title>Node8&#45;&gt;Node5</title>
<path fill="none" stroke="midnightblue" d="M513.84,-30.1768C532.041,-36.1175 553.859,-43.2388 572.893,-49.4512"/>
<polygon fill="midnightblue" stroke="midnightblue" points="514.733,-26.7868 504.141,-27.0112 512.561,-33.4413 514.733,-26.7868"/>
</g>
<!-- Node8&#45;&gt;Node7 -->
<g id="edge10" class="edge"><title>Node8&#45;&gt;Node7</title>
<path fill="none" stroke="midnightblue" d="M535.895,-16.6542C546.156,-16.5117 556.725,-16.3649 566.742,-16.2258"/>
<polygon fill="midnightblue" stroke="midnightblue" points="535.719,-13.1562 525.769,-16.7949 535.817,-20.1556 535.719,-13.1562"/>
</g>
</g>
</svg>
        <g id="navigator" transform="translate(0 0)" fill="#404254">
                <rect fill="#f2f5e9" fill-opacity="0.5" stroke="#606060" stroke-width=".5" x="0" y="0" width="60" height="60"/>
                <use id="zoomplus" xlink:href="#zoomPlus" x="17" y="9" onmousedown="handleZoom(evt,'in')"/>
                <use id="zoomminus" xlink:href="#zoomMin" x="42" y="9" onmousedown="handleZoom(evt,'out')"/>
                <use id="reset" xlink:href="#resetDef" x="30" y="36" onmousedown="handleReset()"/>
                <g id="arrowUp" xlink:href="#dirArrow" transform="translate(30 24)" onmousedown="handlePan(0,-1)">
                  <use xlink:href="#rim" fill="#404040">
                        <set attributeName="fill" to="#808080" begin="arrowUp.mouseover" end="arrowUp.mouseout"/>
                  </use>
                  <path fill="none" stroke="white" stroke-width="1.5" d="M0,-3.0v7 M-2.5,-0.5L0,-3.0L2.5,-0.5"/>
                </g>
                <g id="arrowRight" xlink:href="#dirArrow" transform="rotate(90) translate(36 -43)" onmousedown="handlePan(1,0)">
                  <use xlink:href="#rim" fill="#404040">
                        <set attributeName="fill" to="#808080" begin="arrowRight.mouseover" end="arrowRight.mouseout"/>
                  </use>
                  <path fill="none" stroke="white" stroke-width="1.5" d="M0,-3.0v7 M-2.5,-0.5L0,-3.0L2.5,-0.5"/>
                </g>
                <g id="arrowDown" xlink:href="#dirArrow" transform="rotate(180) translate(-30 -48)" onmousedown="handlePan(0,1)">
                  <use xlink:href="#rim" fill="#404040">
                        <set attributeName="fill" to="#808080" begin="arrowDown.mouseover" end="arrowDown.mouseout"/>
                  </use>
                  <path fill="none" stroke="white" stroke-width="1.5" d="M0,-3.0v7 M-2.5,-0.5L0,-3.0L2.5,-0.5"/>
                </g>
                <g id="arrowLeft" xlink:href="#dirArrow" transform="rotate(270) translate(-36 17)" onmousedown="handlePan(-1,0)">
                  <use xlink:href="#rim" fill="#404040">
                        <set attributeName="fill" to="#808080" begin="arrowLeft.mouseover" end="arrowLeft.mouseout"/>
                  </use>
                  <path fill="none" stroke="white" stroke-width="1.5" d="M0,-3.0v7 M-2.5,-0.5L0,-3.0L2.5,-0.5"/>
                </g>
        </g>
        <svg viewBox="0 0 15 15" width="100%" height="30px" preserveAspectRatio="xMaxYMin meet">
         <g id="arrow_out" transform="scale(0.3 0.3)">
          <a xlink:href="classlinear__theory__winds_aee928bfcffbea89852741b027a26b8c3_icgraph_org.svg" target="_base">
           <rect id="button" ry="5" rx="5" y="6" x="6" height="38" width="38"
                fill="#f2f5e9" fill-opacity="0.5" stroke="#606060" stroke-width="1.0"/>
           <path id="arrow"
             d="M 11.500037,31.436501 C 11.940474,20.09759 22.043105,11.32322 32.158766,21.979434 L 37.068811,17.246167 C 37.068811,17.246167 37.088388,32 37.088388,32 L 22.160133,31.978069 C 22.160133,31.978069 26.997745,27.140456 26.997745,27.140456 C 18.528582,18.264221 13.291696,25.230495 11.500037,31.436501 z"
             style="fill:#404040;"/>
          </a>
         </g>
        </svg>
</svg>
