<?xml version="1.0" encoding="UTF-8" standalone="no"?>
<!DOCTYPE svg PUBLIC "-//W3C//DTD SVG 1.1//EN"
 "http://www.w3.org/Graphics/SVG/1.1/DTD/svg11.dtd">
<!-- Generated by graphviz version 2.38.0 (20140413.2041)
 -->
<!-- Title: geo::geo_lut Pages: 1 -->
<svg width="327pt" height="123pt"
 viewBox="0.00 0.00 327.00 123.00" xmlns="http://www.w3.org/2000/svg" xmlns:xlink="http://www.w3.org/1999/xlink">
<g id="graph0" class="graph" transform="scale(1 1) rotate(0) translate(4 119)">
<title>geo::geo_lut</title>
<polygon fill="white" stroke="none" points="-4,4 -4,-119 323,-119 323,4 -4,4"/>
<!-- Node1 -->
<g id="node1" class="node"><title>Node1</title>
<polygon fill="#bfbfbf" stroke="black" points="0,-38.5 0,-57.5 70,-57.5 70,-38.5 0,-38.5"/>
<text text-anchor="middle" x="35" y="-45.5" font-family="Helvetica,sans-Serif" font-size="10.00">geo::geo_lut</text>
</g>
<!-- Node2 -->
<g id="node2" class="node"><title>Node2</title>
<g id="a_node2"><a xlink:href="classgeo.html#a1e7273d41823570bc9f9de6b30aa60fd" target="_top" xlink:title=" Find a location lat,lon in lolat,lon grids Assumes that the lat/lon grids are semi&#45;regular (dx/dy ar...">
<polygon fill="white" stroke="black" points="114.5,-76.5 114.5,-95.5 207.5,-95.5 207.5,-76.5 114.5,-76.5"/>
<text text-anchor="middle" x="161" y="-83.5" font-family="Helvetica,sans-Serif" font-size="10.00">geo::find_location</text>
</a>
</g>
</g>
<!-- Node1&#45;&gt;Node2 -->
<g id="edge1" class="edge"><title>Node1&#45;&gt;Node2</title>
<path fill="none" stroke="midnightblue" d="M67.2904,-57.589C83.0039,-62.4044 102.238,-68.2988 119.106,-73.468"/>
<polygon fill="midnightblue" stroke="midnightblue" points="118.133,-76.8304 128.72,-76.4141 120.184,-70.1376 118.133,-76.8304"/>
</g>
<!-- Node5 -->
<g id="node5" class="node"><title>Node5</title>
<g id="a_node5"><a xlink:href="classgeo.html#a7d14c8e02963a466d18edcd79f330359" target="_top" xlink:title=" Given a closest position, return the 4 points surrounding the lat/lon position in lolat/lon ...">
<polygon fill="white" stroke="black" points="106,-38.5 106,-57.5 216,-57.5 216,-38.5 106,-38.5"/>
<text text-anchor="middle" x="161" y="-45.5" font-family="Helvetica,sans-Serif" font-size="10.00">geo::find_surrounding</text>
</a>
</g>
</g>
<!-- Node1&#45;&gt;Node5 -->
<g id="edge4" class="edge"><title>Node1&#45;&gt;Node5</title>
<path fill="none" stroke="midnightblue" d="M70.2118,-48C78.1465,-48 86.8469,-48 95.611,-48"/>
<polygon fill="midnightblue" stroke="midnightblue" points="95.8866,-51.5001 105.887,-48 95.8865,-44.5001 95.8866,-51.5001"/>
</g>
<!-- Node6 -->
<g id="node6" class="node"><title>Node6</title>
<g id="a_node6"><a xlink:href="classgeo.html#af4b522675af159cdf68f947dbaba102c" target="_top" xlink:title=" Calculate the weights to use for bilinear interpolation between surrounding points x...">
<polygon fill="white" stroke="black" points="113.5,-0.5 113.5,-19.5 208.5,-19.5 208.5,-0.5 113.5,-0.5"/>
<text text-anchor="middle" x="161" y="-7.5" font-family="Helvetica,sans-Serif" font-size="10.00">geo::bilin_weights</text>
</a>
</g>
</g>
<!-- Node1&#45;&gt;Node6 -->
<g id="edge5" class="edge"><title>Node1&#45;&gt;Node6</title>
<path fill="none" stroke="midnightblue" d="M67.2904,-38.411C83.0039,-33.5956 102.238,-27.7012 119.106,-22.532"/>
<polygon fill="midnightblue" stroke="midnightblue" points="120.184,-25.8624 128.72,-19.5859 118.133,-19.1696 120.184,-25.8624"/>
</g>
<!-- Node3 -->
<g id="node3" class="node"><title>Node3</title>
<g id="a_node3"><a xlink:href="classgeo.html#a90d24402dc82ec462d2683728881818e" target="_top" xlink:title=" Find the minimum next step size in the x direction xw=minxw(xw,lolon,xc,yc,lon) ">
<polygon fill="white" stroke="black" points="252,-95.5 252,-114.5 319,-114.5 319,-95.5 252,-95.5"/>
<text text-anchor="middle" x="285.5" y="-102.5" font-family="Helvetica,sans-Serif" font-size="10.00">geo::minxw</text>
</a>
</g>
</g>
<!-- Node2&#45;&gt;Node3 -->
<g id="edge2" class="edge"><title>Node2&#45;&gt;Node3</title>
<path fill="none" stroke="midnightblue" d="M207.614,-93.0749C218.864,-94.8197 230.868,-96.6815 241.965,-98.4027"/>
<polygon fill="midnightblue" stroke="midnightblue" points="241.435,-101.862 251.853,-99.9364 242.508,-94.945 241.435,-101.862"/>
</g>
<!-- Node4 -->
<g id="node4" class="node"><title>Node4</title>
<g id="a_node4"><a xlink:href="classgeo.html#a26f0801662f938ba2e6cd8d33a7be586" target="_top" xlink:title=" Find the minimum next step size in the y direction yw = minyw(yw,lolat,xc,yc,lat) ...">
<polygon fill="white" stroke="black" points="252,-57.5 252,-76.5 319,-76.5 319,-57.5 252,-57.5"/>
<text text-anchor="middle" x="285.5" y="-64.5" font-family="Helvetica,sans-Serif" font-size="10.00">geo::minyw</text>
</a>
</g>
</g>
<!-- Node2&#45;&gt;Node4 -->
<g id="edge3" class="edge"><title>Node2&#45;&gt;Node4</title>
<path fill="none" stroke="midnightblue" d="M207.614,-78.9251C218.864,-77.1803 230.868,-75.3185 241.965,-73.5973"/>
<polygon fill="midnightblue" stroke="midnightblue" points="242.508,-77.055 251.853,-72.0636 241.435,-70.1377 242.508,-77.055"/>
</g>
</g>
</svg>
