<?xml version="1.0" encoding="UTF-8" standalone="no"?>
<!DOCTYPE svg PUBLIC "-//W3C//DTD SVG 1.1//EN"
 "http://www.w3.org/Graphics/SVG/1.1/DTD/svg11.dtd">
<!-- Generated by graphviz version 2.38.0 (20140413.2041)
 -->
<!-- Title: model_tracking::print_model_diffs Pages: 1 -->
<svg width="719pt" height="212pt"
 viewBox="0.00 0.00 719.00 211.85" xmlns="http://www.w3.org/2000/svg" xmlns:xlink="http://www.w3.org/1999/xlink">
<g id="graph0" class="graph" transform="scale(1 1) rotate(0) translate(4 207.852)">
<title>model_tracking::print_model_diffs</title>
<polygon fill="white" stroke="none" points="-4,4 -4,-207.852 715,-207.852 715,4 -4,4"/>
<!-- Node1 -->
<g id="node1" class="node"><title>Node1</title>
<polygon fill="#bfbfbf" stroke="black" points="0,-98.5 0,-128.5 107,-128.5 107,-98.5 0,-98.5"/>
<text text-anchor="start" x="8" y="-116.5" font-family="Helvetica,sans-Serif" font-size="10.00">model_tracking::print</text>
<text text-anchor="middle" x="53.5" y="-105.5" font-family="Helvetica,sans-Serif" font-size="10.00">_model_diffs</text>
</g>
<!-- Node2 -->
<g id="node2" class="node"><title>Node2</title>
<g id="a_node2"><a xlink:href="classinitialize__options.html#a7161e810e27d3c830e135c3811ae290b" target="_top" xlink:title="initialize_options\l::version_check">
<polygon fill="white" stroke="black" points="143,-98.5 143,-128.5 232,-128.5 232,-98.5 143,-98.5"/>
<text text-anchor="start" x="151" y="-116.5" font-family="Helvetica,sans-Serif" font-size="10.00">initialize_options</text>
<text text-anchor="middle" x="187.5" y="-105.5" font-family="Helvetica,sans-Serif" font-size="10.00">::version_check</text>
</a>
</g>
</g>
<!-- Node1&#45;&gt;Node2 -->
<g id="edge1" class="edge"><title>Node1&#45;&gt;Node2</title>
<path fill="none" stroke="midnightblue" d="M117.104,-113.5C125.73,-113.5 134.434,-113.5 142.623,-113.5"/>
<polygon fill="midnightblue" stroke="midnightblue" points="117.049,-110 107.049,-113.5 117.049,-117 117.049,-110"/>
</g>
<!-- Node3 -->
<g id="node3" class="node"><title>Node3</title>
<g id="a_node3"><a xlink:href="classinitialize__options.html#a571709045f201082c9735408ef2f28e3" target="_top" xlink:title="initialize_options\l::init_options">
<polygon fill="white" stroke="black" points="438,-98.5 438,-128.5 527,-128.5 527,-98.5 438,-98.5"/>
<text text-anchor="start" x="446" y="-116.5" font-family="Helvetica,sans-Serif" font-size="10.00">initialize_options</text>
<text text-anchor="middle" x="482.5" y="-105.5" font-family="Helvetica,sans-Serif" font-size="10.00">::init_options</text>
</a>
</g>
</g>
<!-- Node2&#45;&gt;Node3 -->
<g id="edge2" class="edge"><title>Node2&#45;&gt;Node3</title>
<path fill="none" stroke="midnightblue" d="M205.45,-136.82C219.836,-154.474 242.214,-177.356 268,-187.5 323.421,-209.302 346.579,-209.302 402,-187.5 432.006,-175.696 457.397,-146.644 470.951,-128.653"/>
<polygon fill="midnightblue" stroke="midnightblue" points="207.972,-134.365 199.049,-128.653 202.462,-138.683 207.972,-134.365"/>
</g>
<!-- Node6 -->
<g id="node6" class="node"><title>Node6</title>
<g id="a_node6"><a xlink:href="classinitialize__options.html#acc4c031c2e7521b9eb81f779a67acb3b" target="_top" xlink:title="initialize_options\l::mp_parameters_namelist">
<polygon fill="white" stroke="black" points="269,-147.5 269,-177.5 401,-177.5 401,-147.5 269,-147.5"/>
<text text-anchor="start" x="277" y="-165.5" font-family="Helvetica,sans-Serif" font-size="10.00">initialize_options</text>
<text text-anchor="middle" x="335" y="-154.5" font-family="Helvetica,sans-Serif" font-size="10.00">::mp_parameters_namelist</text>
</a>
</g>
</g>
<!-- Node2&#45;&gt;Node6 -->
<g id="edge5" class="edge"><title>Node2&#45;&gt;Node6</title>
<path fill="none" stroke="midnightblue" d="M241.703,-131.417C257.356,-136.689 274.312,-142.399 289.369,-147.47"/>
<polygon fill="midnightblue" stroke="midnightblue" points="242.749,-128.076 232.155,-128.202 240.515,-134.71 242.749,-128.076"/>
</g>
<!-- Node7 -->
<g id="node7" class="node"><title>Node7</title>
<g id="a_node7"><a xlink:href="classinitialize__options.html#acf012270ed53d51ad745344175d1d8ae" target="_top" xlink:title="initialize_options\l::lt_parameters_namelist">
<polygon fill="white" stroke="black" points="273,-98.5 273,-128.5 397,-128.5 397,-98.5 273,-98.5"/>
<text text-anchor="start" x="281" y="-116.5" font-family="Helvetica,sans-Serif" font-size="10.00">initialize_options</text>
<text text-anchor="middle" x="335" y="-105.5" font-family="Helvetica,sans-Serif" font-size="10.00">::lt_parameters_namelist</text>
</a>
</g>
</g>
<!-- Node2&#45;&gt;Node7 -->
<g id="edge7" class="edge"><title>Node2&#45;&gt;Node7</title>
<path fill="none" stroke="midnightblue" d="M242.313,-113.5C252.271,-113.5 262.737,-113.5 272.893,-113.5"/>
<polygon fill="midnightblue" stroke="midnightblue" points="242.155,-110 232.155,-113.5 242.155,-117 242.155,-110"/>
</g>
<!-- Node8 -->
<g id="node8" class="node"><title>Node8</title>
<g id="a_node8"><a xlink:href="classinitialize__options.html#a502d4a0df0fedb55f73b9afb2e130107" target="_top" xlink:title="initialize_options\l::adv_parameters_namelist">
<polygon fill="white" stroke="black" points="268,-49.5 268,-79.5 402,-79.5 402,-49.5 268,-49.5"/>
<text text-anchor="start" x="276" y="-67.5" font-family="Helvetica,sans-Serif" font-size="10.00">initialize_options</text>
<text text-anchor="middle" x="335" y="-56.5" font-family="Helvetica,sans-Serif" font-size="10.00">::adv_parameters_namelist</text>
</a>
</g>
</g>
<!-- Node2&#45;&gt;Node8 -->
<g id="edge9" class="edge"><title>Node2&#45;&gt;Node8</title>
<path fill="none" stroke="midnightblue" d="M241.703,-95.5827C257.356,-90.3115 274.312,-84.6012 289.369,-79.5304"/>
<polygon fill="midnightblue" stroke="midnightblue" points="240.515,-92.2898 232.155,-98.7984 242.749,-98.9237 240.515,-92.2898"/>
</g>
<!-- Node9 -->
<g id="node9" class="node"><title>Node9</title>
<g id="a_node9"><a xlink:href="classinitialize__options.html#a71b56485a92a10478bb1179e3294c013" target="_top" xlink:title="initialize_options\l::lsm_parameters_namelist">
<polygon fill="white" stroke="black" points="268,-0.5 268,-30.5 402,-30.5 402,-0.5 268,-0.5"/>
<text text-anchor="start" x="276" y="-18.5" font-family="Helvetica,sans-Serif" font-size="10.00">initialize_options</text>
<text text-anchor="middle" x="335" y="-7.5" font-family="Helvetica,sans-Serif" font-size="10.00">::lsm_parameters_namelist</text>
</a>
</g>
</g>
<!-- Node2&#45;&gt;Node9 -->
<g id="edge11" class="edge"><title>Node2&#45;&gt;Node9</title>
<path fill="none" stroke="midnightblue" d="M208.62,-90.914C223.696,-75.0836 245.519,-54.3587 268,-40.5 274.049,-36.7707 280.746,-33.4479 287.485,-30.5389"/>
<polygon fill="midnightblue" stroke="midnightblue" points="206.048,-88.5401 201.787,-98.2406 211.167,-93.3142 206.048,-88.5401"/>
</g>
<!-- Node4 -->
<g id="node4" class="node"><title>Node4</title>
<g id="a_node4"><a xlink:href="classinit.html#a1dd1e2b38eef39cba464f65c9ce82568" target="_top" xlink:title="init::init_model">
<polygon fill="white" stroke="black" points="563,-104 563,-123 643,-123 643,-104 563,-104"/>
<text text-anchor="middle" x="603" y="-111" font-family="Helvetica,sans-Serif" font-size="10.00">init::init_model</text>
</a>
</g>
</g>
<!-- Node3&#45;&gt;Node4 -->
<g id="edge3" class="edge"><title>Node3&#45;&gt;Node4</title>
<path fill="none" stroke="midnightblue" d="M537.517,-113.5C546,-113.5 554.627,-113.5 562.696,-113.5"/>
<polygon fill="midnightblue" stroke="midnightblue" points="537.288,-110 527.288,-113.5 537.288,-117 537.288,-110"/>
</g>
<!-- Node5 -->
<g id="node5" class="node"><title>Node5</title>
<g id="a_node5"><a xlink:href="driver_8f90.html#ab1e5a5816a57fc6e95d9563c2bb53590" target="_top" xlink:title=" Main Program ">
<polygon fill="white" stroke="black" points="679,-104 679,-123 711,-123 711,-104 679,-104"/>
<text text-anchor="middle" x="695" y="-111" font-family="Helvetica,sans-Serif" font-size="10.00">icar</text>
</a>
</g>
</g>
<!-- Node4&#45;&gt;Node5 -->
<g id="edge4" class="edge"><title>Node4&#45;&gt;Node5</title>
<path fill="none" stroke="midnightblue" d="M653.233,-113.5C662.449,-113.5 671.425,-113.5 678.599,-113.5"/>
<polygon fill="midnightblue" stroke="midnightblue" points="653.214,-110 643.213,-113.5 653.213,-117 653.214,-110"/>
</g>
<!-- Node6&#45;&gt;Node3 -->
<g id="edge6" class="edge"><title>Node6&#45;&gt;Node3</title>
<path fill="none" stroke="midnightblue" d="M390.353,-144.196C405.922,-138.952 422.695,-133.304 437.555,-128.299"/>
<polygon fill="midnightblue" stroke="midnightblue" points="389.202,-140.89 380.842,-147.399 391.436,-147.524 389.202,-140.89"/>
</g>
<!-- Node7&#45;&gt;Node3 -->
<g id="edge8" class="edge"><title>Node7&#45;&gt;Node3</title>
<path fill="none" stroke="midnightblue" d="M407.284,-113.5C417.757,-113.5 428.271,-113.5 437.956,-113.5"/>
<polygon fill="midnightblue" stroke="midnightblue" points="407.283,-110 397.283,-113.5 407.283,-117 407.283,-110"/>
</g>
<!-- Node8&#45;&gt;Node3 -->
<g id="edge10" class="edge"><title>Node8&#45;&gt;Node3</title>
<path fill="none" stroke="midnightblue" d="M390.353,-82.8044C405.922,-88.0477 422.695,-93.6963 437.555,-98.7008"/>
<polygon fill="midnightblue" stroke="midnightblue" points="391.436,-79.4761 380.842,-79.6014 389.202,-86.11 391.436,-79.4761"/>
</g>
<!-- Node9&#45;&gt;Node3 -->
<g id="edge12" class="edge"><title>Node9&#45;&gt;Node3</title>
<path fill="none" stroke="midnightblue" d="M391.594,-34.7475C395.19,-36.5426 398.692,-38.4605 402,-40.5 428.159,-56.6265 453.429,-82.0501 468.213,-98.2406"/>
<polygon fill="midnightblue" stroke="midnightblue" points="393.06,-31.5695 382.515,-30.5389 390.116,-37.9202 393.06,-31.5695"/>
</g>
</g>
</svg>
