<?xml version="1.0" encoding="UTF-8" standalone="no"?>
<!DOCTYPE svg PUBLIC "-//W3C//DTD SVG 1.1//EN"
 "http://www.w3.org/Graphics/SVG/1.1/DTD/svg11.dtd">
<!-- Generated by graphviz version 2.38.0 (20140413.2041)
 -->
<!-- Title: module_bl_ysu::ysu Pages: 1 -->
<svg width="407pt" height="28pt"
 viewBox="0.00 0.00 407.00 28.00" xmlns="http://www.w3.org/2000/svg" xmlns:xlink="http://www.w3.org/1999/xlink">
<g id="graph0" class="graph" transform="scale(1 1) rotate(0) translate(4 24)">
<title>module_bl_ysu::ysu</title>
<polygon fill="white" stroke="none" points="-4,4 -4,-24 403,-24 403,4 -4,4"/>
<!-- Node1 -->
<g id="node1" class="node"><title>Node1</title>
<polygon fill="#bfbfbf" stroke="black" points="0,-0.5 0,-19.5 104,-19.5 104,-0.5 0,-0.5"/>
<text text-anchor="middle" x="52" y="-7.5" font-family="Helvetica,sans-Serif" font-size="10.00">module_bl_ysu::ysu</text>
</g>
<!-- Node2 -->
<g id="node2" class="node"><title>Node2</title>
<g id="a_node2"><a xlink:href="classmodule__bl__ysu.html#afb152e741c8b1d0fc4c164cb95e39872" target="_top" xlink:title="module_bl_ysu::ysu2d">
<polygon fill="white" stroke="black" points="140,-0.5 140,-19.5 254,-19.5 254,-0.5 140,-0.5"/>
<text text-anchor="middle" x="197" y="-7.5" font-family="Helvetica,sans-Serif" font-size="10.00">module_bl_ysu::ysu2d</text>
</a>
</g>
</g>
<!-- Node1&#45;&gt;Node2 -->
<g id="edge1" class="edge"><title>Node1&#45;&gt;Node2</title>
<path fill="none" stroke="midnightblue" d="M104.222,-10C112.517,-10 121.209,-10 129.798,-10"/>
<polygon fill="midnightblue" stroke="midnightblue" points="129.803,-13.5001 139.803,-10 129.803,-6.5001 129.803,-13.5001"/>
</g>
<!-- Node3 -->
<g id="node3" class="node"><title>Node3</title>
<g id="a_node3"><a xlink:href="classmodule__bl__ysu.html#ab85de17f374e0f09a057d617e11364ac" target="_top" xlink:title="module_bl_ysu::tridin">
<polygon fill="white" stroke="black" points="290,-0.5 290,-19.5 399,-19.5 399,-0.5 290,-0.5"/>
<text text-anchor="middle" x="344.5" y="-7.5" font-family="Helvetica,sans-Serif" font-size="10.00">module_bl_ysu::tridin</text>
</a>
</g>
</g>
<!-- Node2&#45;&gt;Node3 -->
<g id="edge2" class="edge"><title>Node2&#45;&gt;Node3</title>
<path fill="none" stroke="midnightblue" d="M254.254,-10C262.555,-10 271.157,-10 279.599,-10"/>
<polygon fill="midnightblue" stroke="midnightblue" points="279.785,-13.5001 289.785,-10 279.785,-6.5001 279.785,-13.5001"/>
</g>
</g>
</svg>
