<?xml version="1.0" encoding="UTF-8" standalone="no"?>
<!DOCTYPE svg PUBLIC "-//W3C//DTD SVG 1.1//EN"
 "http://www.w3.org/Graphics/SVG/1.1/DTD/svg11.dtd">
<!-- Generated by graphviz version 2.38.0 (20140413.2041)
 -->
<!-- Title: module_cu_tiedtke::cumastr_new Pages: 1 -->
<svg width="556pt" height="431pt"
 viewBox="0.00 0.00 556.00 431.00" xmlns="http://www.w3.org/2000/svg" xmlns:xlink="http://www.w3.org/1999/xlink">
<g id="graph0" class="graph" transform="scale(1 1) rotate(0) translate(4 427)">
<title>module_cu_tiedtke::cumastr_new</title>
<polygon fill="white" stroke="none" points="-4,4 -4,-427 552,-427 552,4 -4,4"/>
<!-- Node1 -->
<g id="node1" class="node"><title>Node1</title>
<polygon fill="#bfbfbf" stroke="black" points="0,-196.5 0,-226.5 104,-226.5 104,-196.5 0,-196.5"/>
<text text-anchor="start" x="8" y="-214.5" font-family="Helvetica,sans-Serif" font-size="10.00">module_cu_tiedtke::</text>
<text text-anchor="middle" x="52" y="-203.5" font-family="Helvetica,sans-Serif" font-size="10.00">cumastr_new</text>
</g>
<!-- Node2 -->
<g id="node2" class="node"><title>Node2</title>
<g id="a_node2"><a xlink:href="classmodule__cu__tiedtke.html#ad58bc964dc1ba2f7c52ec660f3ac783a" target="_top" xlink:title="module_cu_tiedtke::\lcuini">
<polygon fill="white" stroke="black" points="140,-392.5 140,-422.5 244,-422.5 244,-392.5 140,-392.5"/>
<text text-anchor="start" x="148" y="-410.5" font-family="Helvetica,sans-Serif" font-size="10.00">module_cu_tiedtke::</text>
<text text-anchor="middle" x="192" y="-399.5" font-family="Helvetica,sans-Serif" font-size="10.00">cuini</text>
</a>
</g>
</g>
<!-- Node1&#45;&gt;Node2 -->
<g id="edge1" class="edge"><title>Node1&#45;&gt;Node2</title>
<path fill="none" stroke="midnightblue" d="M57.0571,-226.875C66.4267,-259.683 92.4868,-337.319 140,-383.5 141.075,-384.544 142.203,-385.55 143.375,-386.517"/>
<polygon fill="midnightblue" stroke="midnightblue" points="141.449,-389.441 151.634,-392.356 145.49,-383.725 141.449,-389.441"/>
</g>
<!-- Node7 -->
<g id="node7" class="node"><title>Node7</title>
<g id="a_node7"><a xlink:href="classmodule__cu__tiedtke.html#a252e2ab4e675cefd721c0e6b4c7d0796" target="_top" xlink:title="module_cu_tiedtke::\lcubase">
<polygon fill="white" stroke="black" points="140,-343.5 140,-373.5 244,-373.5 244,-343.5 140,-343.5"/>
<text text-anchor="start" x="148" y="-361.5" font-family="Helvetica,sans-Serif" font-size="10.00">module_cu_tiedtke::</text>
<text text-anchor="middle" x="192" y="-350.5" font-family="Helvetica,sans-Serif" font-size="10.00">cubase</text>
</a>
</g>
</g>
<!-- Node1&#45;&gt;Node7 -->
<g id="edge6" class="edge"><title>Node1&#45;&gt;Node7</title>
<path fill="none" stroke="midnightblue" d="M60.3837,-226.643C73.3697,-251.934 102.512,-303.083 140,-334.5 141.491,-335.749 143.057,-336.949 144.679,-338.1"/>
<polygon fill="midnightblue" stroke="midnightblue" points="142.826,-341.069 153.151,-343.444 146.561,-335.149 142.826,-341.069"/>
</g>
<!-- Node8 -->
<g id="node8" class="node"><title>Node8</title>
<g id="a_node8"><a xlink:href="classmodule__cu__tiedtke.html#a75265ba406fbb983606db3742939bc18" target="_top" xlink:title="module_cu_tiedtke::\lcutype">
<polygon fill="white" stroke="black" points="140,-294.5 140,-324.5 244,-324.5 244,-294.5 140,-294.5"/>
<text text-anchor="start" x="148" y="-312.5" font-family="Helvetica,sans-Serif" font-size="10.00">module_cu_tiedtke::</text>
<text text-anchor="middle" x="192" y="-301.5" font-family="Helvetica,sans-Serif" font-size="10.00">cutype</text>
</a>
</g>
</g>
<!-- Node1&#45;&gt;Node8 -->
<g id="edge8" class="edge"><title>Node1&#45;&gt;Node8</title>
<path fill="none" stroke="midnightblue" d="M68.3456,-226.772C84.9882,-242.781 112.83,-267.995 140,-285.5 142.159,-286.891 144.412,-288.249 146.716,-289.567"/>
<polygon fill="midnightblue" stroke="midnightblue" points="145.305,-292.782 155.771,-294.429 148.617,-286.615 145.305,-292.782"/>
</g>
<!-- Node9 -->
<g id="node9" class="node"><title>Node9</title>
<g id="a_node9"><a xlink:href="classmodule__cu__tiedtke.html#ac9ae922d9f0655dae4887093c89d2909" target="_top" xlink:title="module_cu_tiedtke::\lcuasc_new">
<polygon fill="white" stroke="black" points="140,-147.5 140,-177.5 244,-177.5 244,-147.5 140,-147.5"/>
<text text-anchor="start" x="148" y="-165.5" font-family="Helvetica,sans-Serif" font-size="10.00">module_cu_tiedtke::</text>
<text text-anchor="middle" x="192" y="-154.5" font-family="Helvetica,sans-Serif" font-size="10.00">cuasc_new</text>
</a>
</g>
</g>
<!-- Node1&#45;&gt;Node9 -->
<g id="edge10" class="edge"><title>Node1&#45;&gt;Node9</title>
<path fill="none" stroke="midnightblue" d="M95.5306,-196.399C109.172,-191.555 124.44,-186.134 138.697,-181.072"/>
<polygon fill="midnightblue" stroke="midnightblue" points="140.12,-184.28 148.372,-177.636 137.778,-177.684 140.12,-184.28"/>
</g>
<!-- Node12 -->
<g id="node12" class="node"><title>Node12</title>
<g id="a_node12"><a xlink:href="classmodule__cu__tiedtke.html#ac30d7f0b03de20b3c35ae750e7b0b6d4" target="_top" xlink:title="module_cu_tiedtke::\lcudlfs">
<polygon fill="white" stroke="black" points="140,-245.5 140,-275.5 244,-275.5 244,-245.5 140,-245.5"/>
<text text-anchor="start" x="148" y="-263.5" font-family="Helvetica,sans-Serif" font-size="10.00">module_cu_tiedtke::</text>
<text text-anchor="middle" x="192" y="-252.5" font-family="Helvetica,sans-Serif" font-size="10.00">cudlfs</text>
</a>
</g>
</g>
<!-- Node1&#45;&gt;Node12 -->
<g id="edge16" class="edge"><title>Node1&#45;&gt;Node12</title>
<path fill="none" stroke="midnightblue" d="M95.5306,-226.601C109.172,-231.445 124.44,-236.866 138.697,-241.928"/>
<polygon fill="midnightblue" stroke="midnightblue" points="137.778,-245.316 148.372,-245.364 140.12,-238.72 137.778,-245.316"/>
</g>
<!-- Node13 -->
<g id="node13" class="node"><title>Node13</title>
<g id="a_node13"><a xlink:href="classmodule__cu__tiedtke.html#a38ab6318e5e3bdd086bd5969c9728dc4" target="_top" xlink:title="module_cu_tiedtke::\lcuddraf">
<polygon fill="white" stroke="black" points="140,-196.5 140,-226.5 244,-226.5 244,-196.5 140,-196.5"/>
<text text-anchor="start" x="148" y="-214.5" font-family="Helvetica,sans-Serif" font-size="10.00">module_cu_tiedtke::</text>
<text text-anchor="middle" x="192" y="-203.5" font-family="Helvetica,sans-Serif" font-size="10.00">cuddraf</text>
</a>
</g>
</g>
<!-- Node1&#45;&gt;Node13 -->
<g id="edge18" class="edge"><title>Node1&#45;&gt;Node13</title>
<path fill="none" stroke="midnightblue" d="M104.386,-211.5C112.558,-211.5 121.083,-211.5 129.46,-211.5"/>
<polygon fill="midnightblue" stroke="midnightblue" points="129.571,-215 139.571,-211.5 129.571,-208 129.571,-215"/>
</g>
<!-- Node14 -->
<g id="node14" class="node"><title>Node14</title>
<g id="a_node14"><a xlink:href="classmodule__cu__tiedtke.html#ae9117dff28b6b1fd04855f6e71e74b3a" target="_top" xlink:title="module_cu_tiedtke::\lcuflx">
<polygon fill="white" stroke="black" points="140,-98.5 140,-128.5 244,-128.5 244,-98.5 140,-98.5"/>
<text text-anchor="start" x="148" y="-116.5" font-family="Helvetica,sans-Serif" font-size="10.00">module_cu_tiedtke::</text>
<text text-anchor="middle" x="192" y="-105.5" font-family="Helvetica,sans-Serif" font-size="10.00">cuflx</text>
</a>
</g>
</g>
<!-- Node1&#45;&gt;Node14 -->
<g id="edge20" class="edge"><title>Node1&#45;&gt;Node14</title>
<path fill="none" stroke="midnightblue" d="M68.3456,-196.228C84.9882,-180.219 112.83,-155.005 140,-137.5 142.159,-136.109 144.412,-134.751 146.716,-133.433"/>
<polygon fill="midnightblue" stroke="midnightblue" points="148.617,-136.385 155.771,-128.571 145.305,-130.218 148.617,-136.385"/>
</g>
<!-- Node15 -->
<g id="node15" class="node"><title>Node15</title>
<g id="a_node15"><a xlink:href="classmodule__cu__tiedtke.html#a50e3681eeee419abf7eb4c94c7e09527" target="_top" xlink:title="module_cu_tiedtke::\lcudtdq">
<polygon fill="white" stroke="black" points="140,-49.5 140,-79.5 244,-79.5 244,-49.5 140,-49.5"/>
<text text-anchor="start" x="148" y="-67.5" font-family="Helvetica,sans-Serif" font-size="10.00">module_cu_tiedtke::</text>
<text text-anchor="middle" x="192" y="-56.5" font-family="Helvetica,sans-Serif" font-size="10.00">cudtdq</text>
</a>
</g>
</g>
<!-- Node1&#45;&gt;Node15 -->
<g id="edge21" class="edge"><title>Node1&#45;&gt;Node15</title>
<path fill="none" stroke="midnightblue" d="M60.3837,-196.357C73.3697,-171.066 102.512,-119.917 140,-88.5 141.491,-87.2508 143.057,-86.0509 144.679,-84.9002"/>
<polygon fill="midnightblue" stroke="midnightblue" points="146.561,-87.8513 153.151,-79.5558 142.826,-81.9308 146.561,-87.8513"/>
</g>
<!-- Node16 -->
<g id="node16" class="node"><title>Node16</title>
<g id="a_node16"><a xlink:href="classmodule__cu__tiedtke.html#a37c132c8ddca6fc509a2fe98724600f2" target="_top" xlink:title="module_cu_tiedtke::\lcududv">
<polygon fill="white" stroke="black" points="140,-0.5 140,-30.5 244,-30.5 244,-0.5 140,-0.5"/>
<text text-anchor="start" x="148" y="-18.5" font-family="Helvetica,sans-Serif" font-size="10.00">module_cu_tiedtke::</text>
<text text-anchor="middle" x="192" y="-7.5" font-family="Helvetica,sans-Serif" font-size="10.00">cududv</text>
</a>
</g>
</g>
<!-- Node1&#45;&gt;Node16 -->
<g id="edge22" class="edge"><title>Node1&#45;&gt;Node16</title>
<path fill="none" stroke="midnightblue" d="M57.0571,-196.125C66.4267,-163.317 92.4868,-85.6806 140,-39.5 141.075,-38.4556 142.203,-37.4503 143.375,-36.4832"/>
<polygon fill="midnightblue" stroke="midnightblue" points="145.49,-39.2745 151.634,-30.6436 141.449,-33.5588 145.49,-39.2745"/>
</g>
<!-- Node3 -->
<g id="node3" class="node"><title>Node3</title>
<g id="a_node3"><a xlink:href="classmodule__cu__tiedtke.html#ac8165a71eb9a866902d5f7a0ad177f14" target="_top" xlink:title="module_cu_tiedtke::\lcuadjtq">
<polygon fill="white" stroke="black" points="292,-245.5 292,-275.5 396,-275.5 396,-245.5 292,-245.5"/>
<text text-anchor="start" x="300" y="-263.5" font-family="Helvetica,sans-Serif" font-size="10.00">module_cu_tiedtke::</text>
<text text-anchor="middle" x="344" y="-252.5" font-family="Helvetica,sans-Serif" font-size="10.00">cuadjtq</text>
</a>
</g>
</g>
<!-- Node2&#45;&gt;Node3 -->
<g id="edge2" class="edge"><title>Node2&#45;&gt;Node3</title>
<path fill="none" stroke="midnightblue" d="M230.392,-392.355C235.176,-389.723 239.847,-386.767 244,-383.5 280.042,-355.153 311.252,-311.334 328.556,-284.367"/>
<polygon fill="midnightblue" stroke="midnightblue" points="331.719,-285.911 334.082,-275.583 325.794,-282.184 331.719,-285.911"/>
</g>
<!-- Node4 -->
<g id="node4" class="node"><title>Node4</title>
<g id="a_node4"><a xlink:href="classmodule__cu__tiedtke.html#af662362ac33920875481aff9ea3c31d6" target="_top" xlink:title="module_cu_tiedtke::\ltlucua">
<polygon fill="white" stroke="black" points="444,-193.5 444,-223.5 548,-223.5 548,-193.5 444,-193.5"/>
<text text-anchor="start" x="452" y="-211.5" font-family="Helvetica,sans-Serif" font-size="10.00">module_cu_tiedtke::</text>
<text text-anchor="middle" x="496" y="-200.5" font-family="Helvetica,sans-Serif" font-size="10.00">tlucua</text>
</a>
</g>
</g>
<!-- Node3&#45;&gt;Node4 -->
<g id="edge3" class="edge"><title>Node3&#45;&gt;Node4</title>
<path fill="none" stroke="midnightblue" d="M388.386,-245.459C405.177,-239.638 424.556,-232.92 442.149,-226.822"/>
<polygon fill="midnightblue" stroke="midnightblue" points="443.409,-230.089 451.711,-223.507 441.117,-223.475 443.409,-230.089"/>
</g>
<!-- Node5 -->
<g id="node5" class="node"><title>Node5</title>
<g id="a_node5"><a xlink:href="classmodule__cu__tiedtke.html#a0c084c1df13311e129af689ee7723b26" target="_top" xlink:title="module_cu_tiedtke::\ltlucub">
<polygon fill="white" stroke="black" points="444,-292.5 444,-322.5 548,-322.5 548,-292.5 444,-292.5"/>
<text text-anchor="start" x="452" y="-310.5" font-family="Helvetica,sans-Serif" font-size="10.00">module_cu_tiedtke::</text>
<text text-anchor="middle" x="496" y="-299.5" font-family="Helvetica,sans-Serif" font-size="10.00">tlucub</text>
</a>
</g>
</g>
<!-- Node3&#45;&gt;Node5 -->
<g id="edge4" class="edge"><title>Node3&#45;&gt;Node5</title>
<path fill="none" stroke="midnightblue" d="M392.873,-275.5C406.945,-279.91 422.49,-284.78 437.117,-289.363"/>
<polygon fill="midnightblue" stroke="midnightblue" points="436.478,-292.831 447.067,-292.481 438.571,-286.151 436.478,-292.831"/>
</g>
<!-- Node6 -->
<g id="node6" class="node"><title>Node6</title>
<g id="a_node6"><a xlink:href="classmodule__cu__tiedtke.html#afec35de95e006b1899bc1564186e8702" target="_top" xlink:title="module_cu_tiedtke::\ltlucuc">
<polygon fill="white" stroke="black" points="444,-243.5 444,-273.5 548,-273.5 548,-243.5 444,-243.5"/>
<text text-anchor="start" x="452" y="-261.5" font-family="Helvetica,sans-Serif" font-size="10.00">module_cu_tiedtke::</text>
<text text-anchor="middle" x="496" y="-250.5" font-family="Helvetica,sans-Serif" font-size="10.00">tlucuc</text>
</a>
</g>
</g>
<!-- Node3&#45;&gt;Node6 -->
<g id="edge5" class="edge"><title>Node3&#45;&gt;Node6</title>
<path fill="none" stroke="midnightblue" d="M396.202,-259.817C408.203,-259.657 421.111,-259.485 433.51,-259.32"/>
<polygon fill="midnightblue" stroke="midnightblue" points="433.822,-262.816 443.774,-259.183 433.728,-255.817 433.822,-262.816"/>
</g>
<!-- Node7&#45;&gt;Node3 -->
<g id="edge7" class="edge"><title>Node7&#45;&gt;Node3</title>
<path fill="none" stroke="midnightblue" d="M227.514,-343.423C233.126,-340.642 238.799,-337.624 244,-334.5 270.237,-318.742 297.968,-297.574 317.384,-281.914"/>
<polygon fill="midnightblue" stroke="midnightblue" points="319.626,-284.602 325.168,-275.572 315.205,-279.176 319.626,-284.602"/>
</g>
<!-- Node8&#45;&gt;Node3 -->
<g id="edge9" class="edge"><title>Node8&#45;&gt;Node3</title>
<path fill="none" stroke="midnightblue" d="M239.229,-294.399C254.413,-289.438 271.451,-283.873 287.264,-278.707"/>
<polygon fill="midnightblue" stroke="midnightblue" points="288.505,-281.984 296.924,-275.552 286.331,-275.33 288.505,-281.984"/>
</g>
<!-- Node9&#45;&gt;Node3 -->
<g id="edge15" class="edge"><title>Node9&#45;&gt;Node3</title>
<path fill="none" stroke="midnightblue" d="M227.593,-177.604C233.253,-180.593 238.921,-183.923 244,-187.5 262.245,-200.348 262.331,-208.87 280,-222.5 288.116,-228.761 297.335,-234.83 306.167,-240.214"/>
<polygon fill="midnightblue" stroke="midnightblue" points="304.43,-243.253 314.816,-245.35 308.005,-237.234 304.43,-243.253"/>
</g>
<!-- Node9&#45;&gt;Node4 -->
<g id="edge11" class="edge"><title>Node9&#45;&gt;Node4</title>
<path fill="none" stroke="midnightblue" d="M237.285,-177.576C250.853,-181.694 265.917,-185.768 280,-188.5 331.276,-198.445 390.424,-203.489 433.686,-206.021"/>
<polygon fill="midnightblue" stroke="midnightblue" points="433.593,-209.521 443.772,-206.583 433.982,-202.532 433.593,-209.521"/>
</g>
<!-- Node10 -->
<g id="node10" class="node"><title>Node10</title>
<g id="a_node10"><a xlink:href="classmodule__cu__tiedtke.html#a9a6e5559b2c162bbbdc6122e41309835" target="_top" xlink:title="module_cu_tiedtke::\lcubasmc">
<polygon fill="white" stroke="black" points="292,-149.5 292,-179.5 396,-179.5 396,-149.5 292,-149.5"/>
<text text-anchor="start" x="300" y="-167.5" font-family="Helvetica,sans-Serif" font-size="10.00">module_cu_tiedtke::</text>
<text text-anchor="middle" x="344" y="-156.5" font-family="Helvetica,sans-Serif" font-size="10.00">cubasmc</text>
</a>
</g>
</g>
<!-- Node9&#45;&gt;Node10 -->
<g id="edge12" class="edge"><title>Node9&#45;&gt;Node10</title>
<path fill="none" stroke="midnightblue" d="M244.202,-163.183C256.203,-163.343 269.111,-163.515 281.51,-163.68"/>
<polygon fill="midnightblue" stroke="midnightblue" points="281.728,-167.183 291.774,-163.817 281.822,-160.184 281.728,-167.183"/>
</g>
<!-- Node11 -->
<g id="node11" class="node"><title>Node11</title>
<g id="a_node11"><a xlink:href="classmodule__cu__tiedtke.html#ae56a73c0cf1c178147db2261edaef943" target="_top" xlink:title="module_cu_tiedtke::\lcuentr_new">
<polygon fill="white" stroke="black" points="292,-100.5 292,-130.5 396,-130.5 396,-100.5 292,-100.5"/>
<text text-anchor="start" x="300" y="-118.5" font-family="Helvetica,sans-Serif" font-size="10.00">module_cu_tiedtke::</text>
<text text-anchor="middle" x="344" y="-107.5" font-family="Helvetica,sans-Serif" font-size="10.00">cuentr_new</text>
</a>
</g>
</g>
<!-- Node9&#45;&gt;Node11 -->
<g id="edge13" class="edge"><title>Node9&#45;&gt;Node11</title>
<path fill="none" stroke="midnightblue" d="M240.873,-147.5C254.945,-143.09 270.49,-138.22 285.117,-133.637"/>
<polygon fill="midnightblue" stroke="midnightblue" points="286.571,-136.849 295.067,-130.519 284.478,-130.169 286.571,-136.849"/>
</g>
<!-- Node11&#45;&gt;Node4 -->
<g id="edge14" class="edge"><title>Node11&#45;&gt;Node4</title>
<path fill="none" stroke="midnightblue" d="M389.844,-130.623C396.084,-133.287 402.303,-136.259 408,-139.5 431.183,-152.689 454.72,-171.777 471.456,-186.535"/>
<polygon fill="midnightblue" stroke="midnightblue" points="469.314,-189.315 479.095,-193.387 473.988,-184.104 469.314,-189.315"/>
</g>
<!-- Node12&#45;&gt;Node3 -->
<g id="edge17" class="edge"><title>Node12&#45;&gt;Node3</title>
<path fill="none" stroke="midnightblue" d="M244.202,-260.5C256.203,-260.5 269.111,-260.5 281.51,-260.5"/>
<polygon fill="midnightblue" stroke="midnightblue" points="281.774,-264 291.774,-260.5 281.774,-257 281.774,-264"/>
</g>
<!-- Node13&#45;&gt;Node3 -->
<g id="edge19" class="edge"><title>Node13&#45;&gt;Node3</title>
<path fill="none" stroke="midnightblue" d="M239.229,-226.601C254.413,-231.562 271.451,-237.127 287.264,-242.293"/>
<polygon fill="midnightblue" stroke="midnightblue" points="286.331,-245.67 296.924,-245.448 288.505,-239.016 286.331,-245.67"/>
</g>
<!-- Node17 -->
<g id="node17" class="node"><title>Node17</title>
<g id="a_node17"><a xlink:href="classmodule__cu__tiedtke.html#aec8136392210f639383b24a04c1a9178" target="_top" xlink:title="module_cu_tiedtke::ssum">
<polygon fill="white" stroke="black" points="280,-6 280,-25 408,-25 408,-6 280,-6"/>
<text text-anchor="middle" x="344" y="-13" font-family="Helvetica,sans-Serif" font-size="10.00">module_cu_tiedtke::ssum</text>
</a>
</g>
</g>
<!-- Node16&#45;&gt;Node17 -->
<g id="edge23" class="edge"><title>Node16&#45;&gt;Node17</title>
<path fill="none" stroke="midnightblue" d="M244.202,-15.5C252.437,-15.5 261.099,-15.5 269.731,-15.5"/>
<polygon fill="midnightblue" stroke="midnightblue" points="269.822,-19.0001 279.822,-15.5 269.822,-12.0001 269.822,-19.0001"/>
</g>
</g>
</svg>
