<?xml version="1.0" encoding="UTF-8" standalone="no"?>
<!DOCTYPE svg PUBLIC "-//W3C//DTD SVG 1.1//EN"
 "http://www.w3.org/Graphics/SVG/1.1/DTD/svg11.dtd">
<!-- Generated by graphviz version 2.32.0 (20130809.1645)
 -->
<!-- Title: microphysics::distribute_precip Pages: 1 -->
<svg width="446pt" height="38pt"
 viewBox="0.00 0.00 446.00 38.00" xmlns="http://www.w3.org/2000/svg" xmlns:xlink="http://www.w3.org/1999/xlink">
<g id="graph0" class="graph" transform="scale(1 1) rotate(0) translate(4 34)">
<title>microphysics::distribute_precip</title>
<polygon fill="white" stroke="white" points="-4,5 -4,-34 443,-34 443,5 -4,5"/>
<!-- Node1 -->
<g id="node1" class="node"><title>Node1</title>
<polygon fill="#bfbfbf" stroke="black" points="0,-0 0,-30 120,-30 120,-0 0,-0"/>
<text text-anchor="start" x="8" y="-18" font-family="Helvetica,sans-Serif" font-size="10.00">microphysics::distribute</text>
<text text-anchor="middle" x="60" y="-7" font-family="Helvetica,sans-Serif" font-size="10.00">_precip</text>
</g>
<!-- Node2 -->
<g id="node2" class="node"><title>Node2</title>
<g id="a_node2"><a xlink:href="classmicrophysics.html#a97ab38e6007bb1f3aa63135be25a6145" target="_top" xlink:title="microphysics::mp">
<polygon fill="white" stroke="black" points="156,-5.5 156,-24.5 250,-24.5 250,-5.5 156,-5.5"/>
<text text-anchor="middle" x="203" y="-12.5" font-family="Helvetica,sans-Serif" font-size="10.00">microphysics::mp</text>
</a>
</g>
</g>
<!-- Node1&#45;&gt;Node2 -->
<g id="edge1" class="edge"><title>Node1&#45;&gt;Node2</title>
<path fill="none" stroke="midnightblue" d="M130.493,-15C139.135,-15 147.798,-15 155.961,-15"/>
<polygon fill="midnightblue" stroke="midnightblue" points="130.388,-11.5001 120.388,-15 130.388,-18.5001 130.388,-11.5001"/>
</g>
<!-- Node3 -->
<g id="node3" class="node"><title>Node3</title>
<g id="a_node3"><a xlink:href="classtime__step.html#a2c022f11247af72e607b1493289aa974" target="_top" xlink:title=" Step forward one IO time step. ">
<polygon fill="white" stroke="black" points="286,-5.5 286,-24.5 370,-24.5 370,-5.5 286,-5.5"/>
<text text-anchor="middle" x="328" y="-12.5" font-family="Helvetica,sans-Serif" font-size="10.00">time_step::step</text>
</a>
</g>
</g>
<!-- Node2&#45;&gt;Node3 -->
<g id="edge2" class="edge"><title>Node2&#45;&gt;Node3</title>
<path fill="none" stroke="midnightblue" d="M260.191,-15C268.834,-15 277.618,-15 285.853,-15"/>
<polygon fill="midnightblue" stroke="midnightblue" points="260.151,-11.5001 250.151,-15 260.151,-18.5001 260.151,-11.5001"/>
</g>
<!-- Node4 -->
<g id="node4" class="node"><title>Node4</title>
<g id="a_node4"><a xlink:href="driver_8f90.html#ab1e5a5816a57fc6e95d9563c2bb53590" target="_top" xlink:title=" Main Program ">
<polygon fill="white" stroke="black" points="406,-5.5 406,-24.5 438,-24.5 438,-5.5 406,-5.5"/>
<text text-anchor="middle" x="422" y="-12.5" font-family="Helvetica,sans-Serif" font-size="10.00">icar</text>
</a>
</g>
</g>
<!-- Node3&#45;&gt;Node4 -->
<g id="edge3" class="edge"><title>Node3&#45;&gt;Node4</title>
<path fill="none" stroke="midnightblue" d="M380.253,-15C389.521,-15 398.5,-15 405.66,-15"/>
<polygon fill="midnightblue" stroke="midnightblue" points="380.156,-11.5001 370.156,-15 380.156,-18.5001 380.156,-11.5001"/>
</g>
</g>
</svg>
