<?xml version="1.0" encoding="UTF-8" standalone="no"?>
<!DOCTYPE svg PUBLIC "-//W3C//DTD SVG 1.1//EN"
 "http://www.w3.org/Graphics/SVG/1.1/DTD/svg11.dtd">
<!-- Generated by graphviz version 2.38.0 (20140413.2041)
 -->
<!-- Title: wind::init_winds Pages: 1 -->
<svg width="499pt" height="47pt"
 viewBox="0.00 0.00 499.00 47.00" xmlns="http://www.w3.org/2000/svg" xmlns:xlink="http://www.w3.org/1999/xlink">
<g id="graph0" class="graph" transform="scale(1 1) rotate(0) translate(4 43)">
<title>wind::init_winds</title>
<polygon fill="white" stroke="none" points="-4,4 -4,-43 495,-43 495,4 -4,4"/>
<!-- Node1 -->
<g id="node1" class="node"><title>Node1</title>
<polygon fill="#bfbfbf" stroke="black" points="0,-19.5 0,-38.5 86,-38.5 86,-19.5 0,-19.5"/>
<text text-anchor="middle" x="43" y="-26.5" font-family="Helvetica,sans-Serif" font-size="10.00">wind::init_winds</text>
</g>
<!-- Node2 -->
<g id="node2" class="node"><title>Node2</title>
<g id="a_node2"><a xlink:href="classinit.html#a2c0d47bd2656d1121f0522d0f77a0e07" target="_top" xlink:title="init::init_domain">
<polygon fill="white" stroke="black" points="122,-19.5 122,-38.5 207,-38.5 207,-19.5 122,-19.5"/>
<text text-anchor="middle" x="164.5" y="-26.5" font-family="Helvetica,sans-Serif" font-size="10.00">init::init_domain</text>
</a>
</g>
</g>
<!-- Node1&#45;&gt;Node2 -->
<g id="edge1" class="edge"><title>Node1&#45;&gt;Node2</title>
<path fill="none" stroke="midnightblue" d="M96.349,-29C104.847,-29 113.548,-29 121.749,-29"/>
<polygon fill="midnightblue" stroke="midnightblue" points="96.1313,-25.5001 86.1312,-29 96.1312,-32.5001 96.1313,-25.5001"/>
</g>
<!-- Node3 -->
<g id="node3" class="node"><title>Node3</title>
<g id="a_node3"><a xlink:href="classinit.html#a1dd1e2b38eef39cba464f65c9ce82568" target="_top" xlink:title="init::init_model">
<polygon fill="white" stroke="black" points="343,-19.5 343,-38.5 423,-38.5 423,-19.5 343,-19.5"/>
<text text-anchor="middle" x="383" y="-26.5" font-family="Helvetica,sans-Serif" font-size="10.00">init::init_model</text>
</a>
</g>
</g>
<!-- Node2&#45;&gt;Node3 -->
<g id="edge2" class="edge"><title>Node2&#45;&gt;Node3</title>
<path fill="none" stroke="midnightblue" d="M217.252,-29C255.854,-29 307.775,-29 342.935,-29"/>
<polygon fill="midnightblue" stroke="midnightblue" points="217.243,-25.5001 207.243,-29 217.243,-32.5001 217.243,-25.5001"/>
</g>
<!-- Node5 -->
<g id="node5" class="node"><title>Node5</title>
<g id="a_node5"><a xlink:href="classinit.html#a1c6cab46bb16bea719da3b193c43ccb3" target="_top" xlink:title="init::init_bc">
<polygon fill="white" stroke="black" points="243,-0.5 243,-19.5 307,-19.5 307,-0.5 243,-0.5"/>
<text text-anchor="middle" x="275" y="-7.5" font-family="Helvetica,sans-Serif" font-size="10.00">init::init_bc</text>
</a>
</g>
</g>
<!-- Node2&#45;&gt;Node5 -->
<g id="edge4" class="edge"><title>Node2&#45;&gt;Node5</title>
<path fill="none" stroke="midnightblue" d="M217.27,-19.9344C225.979,-18.4092 234.774,-16.8691 242.754,-15.4717"/>
<polygon fill="midnightblue" stroke="midnightblue" points="216.385,-16.5359 207.139,-21.7084 217.592,-23.431 216.385,-16.5359"/>
</g>
<!-- Node4 -->
<g id="node4" class="node"><title>Node4</title>
<g id="a_node4"><a xlink:href="driver_8f90.html#ab1e5a5816a57fc6e95d9563c2bb53590" target="_top" xlink:title=" Main Program ">
<polygon fill="white" stroke="black" points="459,-19.5 459,-38.5 491,-38.5 491,-19.5 459,-19.5"/>
<text text-anchor="middle" x="475" y="-26.5" font-family="Helvetica,sans-Serif" font-size="10.00">icar</text>
</a>
</g>
</g>
<!-- Node3&#45;&gt;Node4 -->
<g id="edge3" class="edge"><title>Node3&#45;&gt;Node4</title>
<path fill="none" stroke="midnightblue" d="M433.233,-29C442.449,-29 451.425,-29 458.599,-29"/>
<polygon fill="midnightblue" stroke="midnightblue" points="433.214,-25.5001 423.213,-29 433.213,-32.5001 433.214,-25.5001"/>
</g>
<!-- Node5&#45;&gt;Node3 -->
<g id="edge5" class="edge"><title>Node5&#45;&gt;Node3</title>
<path fill="none" stroke="midnightblue" d="M317.196,-17.3841C325.584,-18.8877 334.388,-20.4658 342.708,-21.9572"/>
<polygon fill="midnightblue" stroke="midnightblue" points="317.691,-13.9172 307.23,-15.5979 316.456,-20.8074 317.691,-13.9172"/>
</g>
</g>
</svg>
