<?xml version="1.0" encoding="UTF-8" standalone="no"?>
<!DOCTYPE svg PUBLIC "-//W3C//DTD SVG 1.1//EN"
 "http://www.w3.org/Graphics/SVG/1.1/DTD/svg11.dtd">
<!-- Generated by graphviz version 2.32.0 (20130809.1645)
 -->
<!-- Title: module_mp_simple::mp_simple Pages: 1 -->
<svg width="680pt" height="203pt"
 viewBox="0.00 0.00 680.00 203.00" xmlns="http://www.w3.org/2000/svg" xmlns:xlink="http://www.w3.org/1999/xlink">
<g id="graph0" class="graph" transform="scale(1 1) rotate(0) translate(4 199)">
<title>module_mp_simple::mp_simple</title>
<polygon fill="white" stroke="white" points="-4,5 -4,-199 677,-199 677,5 -4,5"/>
<!-- Node1 -->
<g id="node1" class="node"><title>Node1</title>
<polygon fill="#bfbfbf" stroke="black" points="0,-52 0,-82 120,-82 120,-52 0,-52"/>
<text text-anchor="start" x="8" y="-70" font-family="Helvetica,sans-Serif" font-size="10.00">module_mp_simple::mp</text>
<text text-anchor="middle" x="60" y="-59" font-family="Helvetica,sans-Serif" font-size="10.00">_simple</text>
</g>
<!-- Node2 -->
<g id="node2" class="node"><title>Node2</title>
<g id="a_node2"><a xlink:href="classmodule__mp__simple.html#afa657f819d93fc905ac898e46b0551ce" target="_top" xlink:title=" Compute microphysical conversions ">
<polygon fill="white" stroke="black" points="169,-119 169,-149 289,-149 289,-119 169,-119"/>
<text text-anchor="start" x="177" y="-137" font-family="Helvetica,sans-Serif" font-size="10.00">module_mp_simple::mp</text>
<text text-anchor="middle" x="229" y="-126" font-family="Helvetica,sans-Serif" font-size="10.00">_conversions</text>
</a>
</g>
</g>
<!-- Node1&#45;&gt;Node2 -->
<g id="edge1" class="edge"><title>Node1&#45;&gt;Node2</title>
<path fill="none" stroke="midnightblue" d="M98.4781,-82.0361C122.888,-91.8292 154.928,-104.684 181.034,-115.157"/>
<polygon fill="midnightblue" stroke="midnightblue" points="179.774,-118.423 190.358,-118.898 182.381,-111.926 179.774,-118.423"/>
</g>
<!-- Node4 -->
<g id="node4" class="node"><title>Node4</title>
<g id="a_node4"><a xlink:href="classland__surface.html#ab611d871ec5af4909055c4484c2695e9" target="_top" xlink:title="land_surface::sat_mr">
<polygon fill="white" stroke="black" points="564,-104.5 564,-123.5 672,-123.5 672,-104.5 564,-104.5"/>
<text text-anchor="middle" x="618" y="-111.5" font-family="Helvetica,sans-Serif" font-size="10.00">land_surface::sat_mr</text>
</a>
</g>
</g>
<!-- Node1&#45;&gt;Node4 -->
<g id="edge7" class="edge"><title>Node1&#45;&gt;Node4</title>
<path fill="none" stroke="midnightblue" d="M120.342,-58.0064C210.125,-46.3973 385.167,-31.6021 528,-67 552.614,-73.1 577.923,-87.3883 595.228,-98.6207"/>
<polygon fill="midnightblue" stroke="midnightblue" points="593.709,-101.815 603.964,-104.475 597.606,-96.0004 593.709,-101.815"/>
</g>
<!-- Node6 -->
<g id="node6" class="node"><title>Node6</title>
<g id="a_node6"><a xlink:href="classmodule__mp__simple.html#aaf815931c9bfa8e29cd64e1133e8ac4d" target="_top" xlink:title=" Change the &quot;phase&quot; of a hydrometeor (e.g. evaporate rain) ">
<polygon fill="white" stroke="black" points="366.5,-77 366.5,-107 499.5,-107 499.5,-77 366.5,-77"/>
<text text-anchor="start" x="374.5" y="-95" font-family="Helvetica,sans-Serif" font-size="10.00">module_mp_simple::phase</text>
<text text-anchor="middle" x="433" y="-84" font-family="Helvetica,sans-Serif" font-size="10.00">_change</text>
</a>
</g>
</g>
<!-- Node1&#45;&gt;Node6 -->
<g id="edge8" class="edge"><title>Node1&#45;&gt;Node6</title>
<path fill="none" stroke="midnightblue" d="M120.196,-70.989C184.25,-75.3052 286.566,-82.1999 356.394,-86.9052"/>
<polygon fill="midnightblue" stroke="midnightblue" points="356.239,-90.4027 366.452,-87.583 356.71,-83.4185 356.239,-90.4027"/>
</g>
<!-- Node7 -->
<g id="node7" class="node"><title>Node7</title>
<g id="a_node7"><a xlink:href="classmodule__mp__simple.html#a555961f80b8e520a047abf3220b1e6df" target="_top" xlink:title=" Compute sedimentation in a column ">
<polygon fill="white" stroke="black" points="156,-0.5 156,-19.5 302,-19.5 302,-0.5 156,-0.5"/>
<text text-anchor="middle" x="229" y="-7.5" font-family="Helvetica,sans-Serif" font-size="10.00">module_mp_simple::sediment</text>
</a>
</g>
</g>
<!-- Node1&#45;&gt;Node7 -->
<g id="edge6" class="edge"><title>Node1&#45;&gt;Node7</title>
<path fill="none" stroke="midnightblue" d="M103.996,-51.9363C120.272,-46.2678 138.975,-39.7941 156,-34 166.792,-30.3272 178.512,-26.3958 189.302,-22.8001"/>
<polygon fill="midnightblue" stroke="midnightblue" points="190.511,-26.0865 198.895,-19.6093 188.301,-19.4443 190.511,-26.0865"/>
</g>
<!-- Node3 -->
<g id="node3" class="node"><title>Node3</title>
<g id="a_node3"><a xlink:href="classmodule__mp__simple.html#aa0106ae6c82c8b14c49b4afd1871e12b" target="_top" xlink:title=" Convert cloud water to vapor and back ">
<polygon fill="white" stroke="black" points="368,-165 368,-195 498,-195 498,-165 368,-165"/>
<text text-anchor="start" x="376" y="-183" font-family="Helvetica,sans-Serif" font-size="10.00">module_mp_simple::cloud</text>
<text text-anchor="middle" x="433" y="-172" font-family="Helvetica,sans-Serif" font-size="10.00">_conversion</text>
</a>
</g>
</g>
<!-- Node2&#45;&gt;Node3 -->
<g id="edge2" class="edge"><title>Node2&#45;&gt;Node3</title>
<path fill="none" stroke="midnightblue" d="M289.242,-147.491C310.74,-152.386 335.303,-157.98 357.922,-163.131"/>
<polygon fill="midnightblue" stroke="midnightblue" points="357.292,-166.577 367.819,-165.385 358.846,-159.751 357.292,-166.577"/>
</g>
<!-- Node5 -->
<g id="node5" class="node"><title>Node5</title>
<g id="a_node5"><a xlink:href="classmodule__mp__simple.html#a012afbddb9dca5c40bc5bfbe63b275c8" target="_top" xlink:title=" Convert cloud water or ice to rain or snow ">
<polygon fill="white" stroke="black" points="338.5,-126.5 338.5,-145.5 527.5,-145.5 527.5,-126.5 338.5,-126.5"/>
<text text-anchor="middle" x="433" y="-133.5" font-family="Helvetica,sans-Serif" font-size="10.00">module_mp_simple::cloud2hydrometeor</text>
</a>
</g>
</g>
<!-- Node2&#45;&gt;Node5 -->
<g id="edge4" class="edge"><title>Node2&#45;&gt;Node5</title>
<path fill="none" stroke="midnightblue" d="M289.242,-134.587C301.487,-134.708 314.727,-134.839 328.035,-134.971"/>
<polygon fill="midnightblue" stroke="midnightblue" points="328.175,-138.472 338.209,-135.071 328.245,-131.472 328.175,-138.472"/>
</g>
<!-- Node2&#45;&gt;Node6 -->
<g id="edge5" class="edge"><title>Node2&#45;&gt;Node6</title>
<path fill="none" stroke="midnightblue" d="M289.242,-121.682C310.24,-117.316 334.161,-112.343 356.34,-107.731"/>
<polygon fill="midnightblue" stroke="midnightblue" points="357.312,-111.104 366.39,-105.642 355.887,-104.251 357.312,-111.104"/>
</g>
<!-- Node3&#45;&gt;Node4 -->
<g id="edge3" class="edge"><title>Node3&#45;&gt;Node4</title>
<path fill="none" stroke="midnightblue" d="M496.657,-164.946C507.216,-161.951 517.991,-158.606 528,-155 549.202,-147.361 572.292,-136.65 589.64,-128.091"/>
<polygon fill="midnightblue" stroke="midnightblue" points="591.26,-131.194 598.638,-123.591 588.129,-124.933 591.26,-131.194"/>
</g>
</g>
</svg>
