<?xml version="1.0" encoding="UTF-8" standalone="no"?>
<!DOCTYPE svg PUBLIC "-//W3C//DTD SVG 1.1//EN"
 "http://www.w3.org/Graphics/SVG/1.1/DTD/svg11.dtd">
<!-- Generated by graphviz version 2.32.0 (20130809.1645)
 -->
<!-- Title: linear_theory_lut_disk_io::setup_var Pages: 1 -->
<svg width="268pt" height="87pt"
 viewBox="0.00 0.00 268.00 87.00" xmlns="http://www.w3.org/2000/svg" xmlns:xlink="http://www.w3.org/1999/xlink">
<g id="graph0" class="graph" transform="scale(1 1) rotate(0) translate(4 83)">
<title>linear_theory_lut_disk_io::setup_var</title>
<polygon fill="white" stroke="white" points="-4,5 -4,-83 265,-83 265,5 -4,5"/>
<!-- Node1 -->
<g id="node1" class="node"><title>Node1</title>
<polygon fill="#bfbfbf" stroke="black" points="0.5,-24 0.5,-54 111.5,-54 111.5,-24 0.5,-24"/>
<text text-anchor="start" x="8.5" y="-42" font-family="Helvetica,sans-Serif" font-size="10.00">linear_theory_lut_disk</text>
<text text-anchor="middle" x="56" y="-31" font-family="Helvetica,sans-Serif" font-size="10.00">_io::setup_var</text>
</g>
<!-- Node2 -->
<g id="node2" class="node"><title>Node2</title>
<g id="a_node2"><a xlink:href="classlinear__theory__lut__disk__io.html#afded6d7210b9fcb3708f213aabfe56a4" target="_top" xlink:title=" Write a 6D variable to a netCDF file ">
<polygon fill="white" stroke="black" points="148.5,-49 148.5,-79 259.5,-79 259.5,-49 148.5,-49"/>
<text text-anchor="start" x="156.5" y="-67" font-family="Helvetica,sans-Serif" font-size="10.00">linear_theory_lut_disk</text>
<text text-anchor="middle" x="204" y="-56" font-family="Helvetica,sans-Serif" font-size="10.00">_io::write_var_6d</text>
</a>
</g>
</g>
<!-- Node1&#45;&gt;Node2 -->
<g id="edge1" class="edge"><title>Node1&#45;&gt;Node2</title>
<path fill="none" stroke="midnightblue" d="M121.732,-50.0842C130.634,-51.6086 139.702,-53.1614 148.398,-54.6504"/>
<polygon fill="midnightblue" stroke="midnightblue" points="122.228,-46.6183 111.78,-48.3802 121.046,-53.5178 122.228,-46.6183"/>
</g>
<!-- Node3 -->
<g id="node3" class="node"><title>Node3</title>
<g id="a_node3"><a xlink:href="classlinear__theory__lut__disk__io.html#a6a39ae31079f8c5a2e481a031b801870" target="_top" xlink:title=" Same as write_var_6d but for a 1D variable ">
<polygon fill="white" stroke="black" points="148.5,-0 148.5,-30 259.5,-30 259.5,-0 148.5,-0"/>
<text text-anchor="start" x="156.5" y="-18" font-family="Helvetica,sans-Serif" font-size="10.00">linear_theory_lut_disk</text>
<text text-anchor="middle" x="204" y="-7" font-family="Helvetica,sans-Serif" font-size="10.00">_io::write_var_1d</text>
</a>
</g>
</g>
<!-- Node1&#45;&gt;Node3 -->
<g id="edge2" class="edge"><title>Node1&#45;&gt;Node3</title>
<path fill="none" stroke="midnightblue" d="M121.732,-28.3591C130.634,-26.8958 139.702,-25.4051 148.398,-23.9756"/>
<polygon fill="midnightblue" stroke="midnightblue" points="121.08,-24.9192 111.78,-29.995 122.216,-31.8265 121.08,-24.9192"/>
</g>
</g>
</svg>
