<?xml version="1.0" encoding="UTF-8" standalone="no"?>
<!DOCTYPE svg PUBLIC "-//W3C//DTD SVG 1.1//EN"
 "http://www.w3.org/Graphics/SVG/1.1/DTD/svg11.dtd">
<!-- Generated by graphviz version 2.32.0 (20130809.1645)
 -->
<!-- Title: module_mp_thompson::mp_gt_driver Pages: 1 -->
<svg width="428pt" height="87pt"
 viewBox="0.00 0.00 428.00 87.00" xmlns="http://www.w3.org/2000/svg" xmlns:xlink="http://www.w3.org/1999/xlink">
<g id="graph0" class="graph" transform="scale(1 1) rotate(0) translate(4 83)">
<title>module_mp_thompson::mp_gt_driver</title>
<polygon fill="white" stroke="white" points="-4,5 -4,-83 425,-83 425,5 -4,5"/>
<!-- Node1 -->
<g id="node1" class="node"><title>Node1</title>
<polygon fill="#bfbfbf" stroke="black" points="0.5,-24 0.5,-54 115.5,-54 115.5,-24 0.5,-24"/>
<text text-anchor="start" x="8.5" y="-42" font-family="Helvetica,sans-Serif" font-size="10.00">module_mp_thompson</text>
<text text-anchor="middle" x="58" y="-31" font-family="Helvetica,sans-Serif" font-size="10.00">::mp_gt_driver</text>
</g>
<!-- Node2 -->
<g id="node2" class="node"><title>Node2</title>
<g id="a_node2"><a xlink:href="classmodule__mp__thompson.html#a9c09ed2f3aeb55e40a86a3ddc72d1ca8" target="_top" xlink:title="module_mp_thompson\l::mp_thompson">
<polygon fill="white" stroke="black" points="152.5,-24 152.5,-54 267.5,-54 267.5,-24 152.5,-24"/>
<text text-anchor="start" x="160.5" y="-42" font-family="Helvetica,sans-Serif" font-size="10.00">module_mp_thompson</text>
<text text-anchor="middle" x="210" y="-31" font-family="Helvetica,sans-Serif" font-size="10.00">::mp_thompson</text>
</a>
</g>
</g>
<!-- Node1&#45;&gt;Node2 -->
<g id="edge1" class="edge"><title>Node1&#45;&gt;Node2</title>
<path fill="none" stroke="midnightblue" d="M115.709,-39C124.295,-39 133.223,-39 142.002,-39"/>
<polygon fill="midnightblue" stroke="midnightblue" points="142.211,-42.5001 152.211,-39 142.211,-35.5001 142.211,-42.5001"/>
</g>
<!-- Node3 -->
<g id="node3" class="node"><title>Node3</title>
<g id="a_node3"><a xlink:href="classmodule__mp__thompson.html#a1dec755eb8c0e1e28e03af70d9817b96" target="_top" xlink:title="module_mp_thompson\l::rslf">
<polygon fill="white" stroke="black" points="304.5,-49 304.5,-79 419.5,-79 419.5,-49 304.5,-49"/>
<text text-anchor="start" x="312.5" y="-67" font-family="Helvetica,sans-Serif" font-size="10.00">module_mp_thompson</text>
<text text-anchor="middle" x="362" y="-56" font-family="Helvetica,sans-Serif" font-size="10.00">::rslf</text>
</a>
</g>
</g>
<!-- Node2&#45;&gt;Node3 -->
<g id="edge2" class="edge"><title>Node2&#45;&gt;Node3</title>
<path fill="none" stroke="midnightblue" d="M267.709,-48.4514C276.389,-49.8981 285.417,-51.4028 294.288,-52.8814"/>
<polygon fill="midnightblue" stroke="midnightblue" points="293.772,-56.3435 304.211,-54.5352 294.923,-49.4388 293.772,-56.3435"/>
</g>
<!-- Node4 -->
<g id="node4" class="node"><title>Node4</title>
<g id="a_node4"><a xlink:href="classmodule__mp__thompson.html#a67de3f9e0eff315e30c6567db69e3722" target="_top" xlink:title="module_mp_thompson\l::rsif">
<polygon fill="white" stroke="black" points="304.5,-0 304.5,-30 419.5,-30 419.5,-0 304.5,-0"/>
<text text-anchor="start" x="312.5" y="-18" font-family="Helvetica,sans-Serif" font-size="10.00">module_mp_thompson</text>
<text text-anchor="middle" x="362" y="-7" font-family="Helvetica,sans-Serif" font-size="10.00">::rsif</text>
</a>
</g>
</g>
<!-- Node2&#45;&gt;Node4 -->
<g id="edge3" class="edge"><title>Node2&#45;&gt;Node4</title>
<path fill="none" stroke="midnightblue" d="M267.709,-29.9266C276.389,-28.5378 285.417,-27.0933 294.288,-25.6739"/>
<polygon fill="midnightblue" stroke="midnightblue" points="294.89,-29.1222 304.211,-24.0862 293.784,-22.2101 294.89,-29.1222"/>
</g>
</g>
</svg>
