<?xml version="1.0" encoding="UTF-8" standalone="no"?>
<!DOCTYPE svg PUBLIC "-//W3C//DTD SVG 1.1//EN"
 "http://www.w3.org/Graphics/SVG/1.1/DTD/svg11.dtd">
<!-- Generated by graphviz version 2.32.0 (20130809.1645)
 -->
<!-- Title: boundary_conditions::update_edges Pages: 1 -->
<svg width="466pt" height="38pt"
 viewBox="0.00 0.00 466.00 38.00" xmlns="http://www.w3.org/2000/svg" xmlns:xlink="http://www.w3.org/1999/xlink">
<g id="graph0" class="graph" transform="scale(1 1) rotate(0) translate(4 34)">
<title>boundary_conditions::update_edges</title>
<polygon fill="white" stroke="white" points="-4,5 -4,-34 463,-34 463,5 -4,5"/>
<!-- Node1 -->
<g id="node1" class="node"><title>Node1</title>
<polygon fill="#bfbfbf" stroke="black" points="0,-0 0,-30 106,-30 106,-0 0,-0"/>
<text text-anchor="start" x="8" y="-18" font-family="Helvetica,sans-Serif" font-size="10.00">boundary_conditions</text>
<text text-anchor="middle" x="53" y="-7" font-family="Helvetica,sans-Serif" font-size="10.00">::update_edges</text>
</g>
<!-- Node2 -->
<g id="node2" class="node"><title>Node2</title>
<g id="a_node2"><a xlink:href="classboundary__conditions.html#a59c7f74c734cc083800659cb24213051" target="_top" xlink:title=" Calculate changes between the current boundary conditions and the time step boundary conditions ...">
<polygon fill="white" stroke="black" points="142,-0 142,-30 248,-30 248,-0 142,-0"/>
<text text-anchor="start" x="150" y="-18" font-family="Helvetica,sans-Serif" font-size="10.00">boundary_conditions</text>
<text text-anchor="middle" x="195" y="-7" font-family="Helvetica,sans-Serif" font-size="10.00">::update_dxdt</text>
</a>
</g>
</g>
<!-- Node1&#45;&gt;Node2 -->
<g id="edge1" class="edge"><title>Node1&#45;&gt;Node2</title>
<path fill="none" stroke="midnightblue" d="M116.387,-15C124.885,-15 133.534,-15 141.826,-15"/>
<polygon fill="midnightblue" stroke="midnightblue" points="116.131,-11.5001 106.131,-15 116.131,-18.5001 116.131,-11.5001"/>
</g>
<!-- Node3 -->
<g id="node3" class="node"><title>Node3</title>
<g id="a_node3"><a xlink:href="classboundary__conditions.html#a1e8385c37634f3d7f70ea7c749dcda11" target="_top" xlink:title=" Read in the next timestep of input data and apply to the dXdt grids as appropriate. ">
<polygon fill="white" stroke="black" points="284,-0 284,-30 390,-30 390,-0 284,-0"/>
<text text-anchor="start" x="292" y="-18" font-family="Helvetica,sans-Serif" font-size="10.00">boundary_conditions</text>
<text text-anchor="middle" x="337" y="-7" font-family="Helvetica,sans-Serif" font-size="10.00">::bc_update</text>
</a>
</g>
</g>
<!-- Node2&#45;&gt;Node3 -->
<g id="edge2" class="edge"><title>Node2&#45;&gt;Node3</title>
<path fill="none" stroke="midnightblue" d="M258.387,-15C266.885,-15 275.534,-15 283.826,-15"/>
<polygon fill="midnightblue" stroke="midnightblue" points="258.131,-11.5001 248.131,-15 258.131,-18.5001 258.131,-11.5001"/>
</g>
<!-- Node4 -->
<g id="node4" class="node"><title>Node4</title>
<g id="a_node4"><a xlink:href="driver_8f90.html#ab1e5a5816a57fc6e95d9563c2bb53590" target="_top" xlink:title=" Main Program ">
<polygon fill="white" stroke="black" points="426,-5.5 426,-24.5 458,-24.5 458,-5.5 426,-5.5"/>
<text text-anchor="middle" x="442" y="-12.5" font-family="Helvetica,sans-Serif" font-size="10.00">icar</text>
</a>
</g>
</g>
<!-- Node3&#45;&gt;Node4 -->
<g id="edge3" class="edge"><title>Node3&#45;&gt;Node4</title>
<path fill="none" stroke="midnightblue" d="M400.369,-15C409.706,-15 418.543,-15 425.576,-15"/>
<polygon fill="midnightblue" stroke="midnightblue" points="400.104,-11.5001 390.104,-15 400.103,-18.5001 400.104,-11.5001"/>
</g>
</g>
</svg>
