<?xml version="1.0" encoding="UTF-8" standalone="no"?>
<!DOCTYPE svg PUBLIC "-//W3C//DTD SVG 1.1//EN"
 "http://www.w3.org/Graphics/SVG/1.1/DTD/svg11.dtd">
<!-- Generated by graphviz version 2.32.0 (20130809.1645)
 -->
<!-- Title: init::destroy_lut Pages: 1 -->
<svg width="488pt" height="47pt"
 viewBox="0.00 0.00 488.00 47.00" xmlns="http://www.w3.org/2000/svg" xmlns:xlink="http://www.w3.org/1999/xlink">
<g id="graph0" class="graph" transform="scale(1 1) rotate(0) translate(4 43)">
<title>init::destroy_lut</title>
<polygon fill="white" stroke="white" points="-4,5 -4,-43 485,-43 485,5 -4,5"/>
<!-- Node1 -->
<g id="node1" class="node"><title>Node1</title>
<polygon fill="#bfbfbf" stroke="black" points="0.5,-0.5 0.5,-19.5 83.5,-19.5 83.5,-0.5 0.5,-0.5"/>
<text text-anchor="middle" x="42" y="-7.5" font-family="Helvetica,sans-Serif" font-size="10.00">init::destroy_lut</text>
</g>
<!-- Node2 -->
<g id="node2" class="node"><title>Node2</title>
<g id="a_node2"><a xlink:href="classinit.html#acbdc0285617ecd4acfdc2e09c615de40" target="_top" xlink:title="init::move_lut">
<polygon fill="white" stroke="black" points="120.5,-19.5 120.5,-38.5 195.5,-38.5 195.5,-19.5 120.5,-19.5"/>
<text text-anchor="middle" x="158" y="-26.5" font-family="Helvetica,sans-Serif" font-size="10.00">init::move_lut</text>
</a>
</g>
</g>
<!-- Node1&#45;&gt;Node2 -->
<g id="edge1" class="edge"><title>Node1&#45;&gt;Node2</title>
<path fill="none" stroke="midnightblue" d="M93.574,-18.429C102.611,-19.9352 111.866,-21.4777 120.415,-22.9025"/>
<polygon fill="midnightblue" stroke="midnightblue" points="93.9525,-14.9439 83.5131,-16.7522 92.8016,-21.8486 93.9525,-14.9439"/>
</g>
<!-- Node3 -->
<g id="node3" class="node"><title>Node3</title>
<g id="a_node3"><a xlink:href="classinit.html#a1c6cab46bb16bea719da3b193c43ccb3" target="_top" xlink:title="init::init_bc">
<polygon fill="white" stroke="black" points="232,-0.5 232,-19.5 296,-19.5 296,-0.5 232,-0.5"/>
<text text-anchor="middle" x="264" y="-7.5" font-family="Helvetica,sans-Serif" font-size="10.00">init::init_bc</text>
</a>
</g>
</g>
<!-- Node1&#45;&gt;Node3 -->
<g id="edge5" class="edge"><title>Node1&#45;&gt;Node3</title>
<path fill="none" stroke="midnightblue" d="M93.7862,-10C136.421,-10 195.962,-10 231.866,-10"/>
<polygon fill="midnightblue" stroke="midnightblue" points="93.6078,-6.5001 83.6078,-10 93.6077,-13.5001 93.6078,-6.5001"/>
</g>
<!-- Node2&#45;&gt;Node3 -->
<g id="edge2" class="edge"><title>Node2&#45;&gt;Node3</title>
<path fill="none" stroke="midnightblue" d="M205.561,-20.4937C214.455,-18.8688 223.564,-17.2047 231.831,-15.6944"/>
<polygon fill="midnightblue" stroke="midnightblue" points="204.875,-17.061 195.667,-22.3013 206.133,-23.9471 204.875,-17.061"/>
</g>
<!-- Node4 -->
<g id="node4" class="node"><title>Node4</title>
<g id="a_node4"><a xlink:href="classinit.html#a1dd1e2b38eef39cba464f65c9ce82568" target="_top" xlink:title="init::init_model">
<polygon fill="white" stroke="black" points="332,-0.5 332,-19.5 412,-19.5 412,-0.5 332,-0.5"/>
<text text-anchor="middle" x="372" y="-7.5" font-family="Helvetica,sans-Serif" font-size="10.00">init::init_model</text>
</a>
</g>
</g>
<!-- Node3&#45;&gt;Node4 -->
<g id="edge3" class="edge"><title>Node3&#45;&gt;Node4</title>
<path fill="none" stroke="midnightblue" d="M306.472,-10C314.778,-10 323.48,-10 331.708,-10"/>
<polygon fill="midnightblue" stroke="midnightblue" points="306.23,-6.5001 296.23,-10 306.23,-13.5001 306.23,-6.5001"/>
</g>
<!-- Node5 -->
<g id="node5" class="node"><title>Node5</title>
<g id="a_node5"><a xlink:href="driver_8f90.html#ab1e5a5816a57fc6e95d9563c2bb53590" target="_top" xlink:title=" Main Program ">
<polygon fill="white" stroke="black" points="448,-0.5 448,-19.5 480,-19.5 480,-0.5 448,-0.5"/>
<text text-anchor="middle" x="464" y="-7.5" font-family="Helvetica,sans-Serif" font-size="10.00">icar</text>
</a>
</g>
</g>
<!-- Node4&#45;&gt;Node5 -->
<g id="edge4" class="edge"><title>Node4&#45;&gt;Node5</title>
<path fill="none" stroke="midnightblue" d="M422.233,-10C431.449,-10 440.425,-10 447.599,-10"/>
<polygon fill="midnightblue" stroke="midnightblue" points="422.214,-6.5001 412.213,-10 422.213,-13.5001 422.214,-6.5001"/>
</g>
</g>
</svg>
