<?xml version="1.0" encoding="UTF-8" standalone="no"?>
<!DOCTYPE svg PUBLIC "-//W3C//DTD SVG 1.1//EN"
 "http://www.w3.org/Graphics/SVG/1.1/DTD/svg11.dtd">
<!-- Generated by graphviz version 2.32.0 (20130809.1645)
 -->
<!-- Title: init::init_physics Pages: 1 -->
<!--zoomable 560 -->
<svg id="main" version="1.1" xmlns="http://www.w3.org/2000/svg" xmlns:xlink="http://www.w3.org/1999/xlink" xml:space="preserve" onload="init(evt)">
<style type="text/css"><![CDATA[
.edge:hover path { stroke: red; }
.edge:hover polygon { stroke: red; fill: red; }
]]></style>
<script type="text/javascript"><![CDATA[
var edges = document.getElementsByTagName('g');
if (edges && edges.length) {
  for (var i=0;i<edges.length;i++) {
    if (edges[i].id.substr(0,4)=='edge') {
      edges[i].setAttribute('class','edge');
    }
  }
}
]]></script>
        <defs>
                <circle id="rim" cx="0" cy="0" r="7"/>
                <circle id="rim2" cx="0" cy="0" r="3.5"/>
                <g id="zoomPlus">
                        <use xlink:href="#rim" fill="#404040">
                                <set attributeName="fill" to="#808080" begin="zoomplus.mouseover" end="zoomplus.mouseout"/>
                        </use>
                        <path d="M-4,0h8M0,-4v8" fill="none" stroke="white" stroke-width="1.5" pointer-events="none"/>
                </g>
                <g id="zoomMin">
                        <use xlink:href="#rim" fill="#404040">
                                <set attributeName="fill" to="#808080" begin="zoomminus.mouseover" end="zoomminus.mouseout"/>
                        </use>
                        <path d="M-4,0h8" fill="none" stroke="white" stroke-width="1.5" pointer-events="none"/>
                </g>
                <g id="dirArrow">
                        <path fill="none" stroke="white" stroke-width="1.5" d="M0,-3.0v7 M-2.5,-0.5L0,-3.0L2.5,-0.5"/>
                </g>
               <g id="resetDef">
                       <use xlink:href="#rim2" fill="#404040">
                               <set attributeName="fill" to="#808080" begin="reset.mouseover" end="reset.mouseout"/>
                       </use>
               </g>
        </defs>

<script type="text/javascript">
var viewWidth = 1064;
var viewHeight = 560;
var sectionId = 'dynsection-17';
</script>
<script xlink:href="svgpan.js"/>
<svg id="graph" class="graph">
<g id="viewport">
<title>init::init_physics</title>
<polygon fill="white" stroke="white" points="-4,5 -4,-556.335 1061,-556.335 1061,5 -4,5"/>
<!-- Node1 -->
<g id="node1" class="node"><title>Node1</title>
<polygon fill="#bfbfbf" stroke="black" points="0.5,-213.5 0.5,-232.5 87.5,-232.5 87.5,-213.5 0.5,-213.5"/>
<text text-anchor="middle" x="44" y="-220.5" font-family="Helvetica,sans-Serif" font-size="10.00">init::init_physics</text>
</g>
<!-- Node2 -->
<g id="node2" class="node"><title>Node2</title>
<g id="a_node2"><a xlink:href="classmicrophysics.html#afa6d0466868d2249a5e1827b39907554" target="_top" xlink:title="microphysics::mp_init">
<polygon fill="white" stroke="black" points="136,-376.5 136,-395.5 248,-395.5 248,-376.5 136,-376.5"/>
<text text-anchor="middle" x="192" y="-383.5" font-family="Helvetica,sans-Serif" font-size="10.00">microphysics::mp_init</text>
</a>
</g>
</g>
<!-- Node1&#45;&gt;Node2 -->
<g id="edge1" class="edge"><title>Node1&#45;&gt;Node2</title>
<path fill="none" stroke="midnightblue" d="M49.896,-232.669C60.9649,-253.884 89.6459,-305.378 124,-340 136.031,-352.125 151.667,-363.07 164.807,-371.238"/>
<polygon fill="midnightblue" stroke="midnightblue" points="163.059,-374.271 173.431,-376.431 166.669,-368.274 163.059,-374.271"/>
</g>
<!-- Node15 -->
<g id="node15" class="node"><title>Node15</title>
<g id="a_node15"><a xlink:href="classconvection.html#a2e577ff8b07394b466c553650318dd47" target="_top" xlink:title="convection::init_convection">
<polygon fill="white" stroke="black" points="124.5,-311.5 124.5,-330.5 259.5,-330.5 259.5,-311.5 124.5,-311.5"/>
<text text-anchor="middle" x="192" y="-318.5" font-family="Helvetica,sans-Serif" font-size="10.00">convection::init_convection</text>
</a>
</g>
</g>
<!-- Node1&#45;&gt;Node15 -->
<g id="edge16" class="edge"><title>Node1&#45;&gt;Node15</title>
<path fill="none" stroke="midnightblue" d="M59.2649,-232.575C84.6037,-249.583 137.658,-285.195 168.142,-305.657"/>
<polygon fill="midnightblue" stroke="midnightblue" points="166.207,-308.574 176.461,-311.241 170.109,-302.762 166.207,-308.574"/>
</g>
<!-- Node18 -->
<g id="node18" class="node"><title>Node18</title>
<g id="a_node18"><a xlink:href="classplanetary__boundary__layer.html#a3aa43010ef750e900073bf0ce5cca626" target="_top" xlink:title="planetary_boundary\l_layer::pbl_init">
<polygon fill="white" stroke="black" points="141.5,-230 141.5,-260 242.5,-260 242.5,-230 141.5,-230"/>
<text text-anchor="start" x="149.5" y="-248" font-family="Helvetica,sans-Serif" font-size="10.00">planetary_boundary</text>
<text text-anchor="middle" x="192" y="-237" font-family="Helvetica,sans-Serif" font-size="10.00">_layer::pbl_init</text>
</a>
</g>
</g>
<!-- Node1&#45;&gt;Node18 -->
<g id="edge19" class="edge"><title>Node1&#45;&gt;Node18</title>
<path fill="none" stroke="midnightblue" d="M87.6217,-229.422C101.299,-231.483 116.708,-233.805 131.371,-236.015"/>
<polygon fill="midnightblue" stroke="midnightblue" points="130.964,-239.493 141.374,-237.522 132.007,-232.571 130.964,-239.493"/>
</g>
<!-- Node21 -->
<g id="node21" class="node"><title>Node21</title>
<g id="a_node21"><a xlink:href="classradiation.html#a94649060f6141f802e4bc2d749b9b718" target="_top" xlink:title="radiation::radiation_init">
<polygon fill="white" stroke="black" points="135,-191.5 135,-210.5 249,-210.5 249,-191.5 135,-191.5"/>
<text text-anchor="middle" x="192" y="-198.5" font-family="Helvetica,sans-Serif" font-size="10.00">radiation::radiation_init</text>
</a>
</g>
</g>
<!-- Node1&#45;&gt;Node21 -->
<g id="edge22" class="edge"><title>Node1&#45;&gt;Node21</title>
<path fill="none" stroke="midnightblue" d="M87.6217,-216.578C99.2441,-214.826 112.117,-212.886 124.72,-210.987"/>
<polygon fill="midnightblue" stroke="midnightblue" points="125.374,-214.428 134.741,-209.477 124.331,-207.507 125.374,-214.428"/>
</g>
<!-- Node23 -->
<g id="node23" class="node"><title>Node23</title>
<g id="a_node23"><a xlink:href="classland__surface.html#a1cb38f371db4d5b7c7bcfe172b7147bf" target="_top" xlink:title="land_surface::lsm_init">
<polygon fill="white" stroke="black" points="136,-118.5 136,-137.5 248,-137.5 248,-118.5 136,-118.5"/>
<text text-anchor="middle" x="192" y="-125.5" font-family="Helvetica,sans-Serif" font-size="10.00">land_surface::lsm_init</text>
</a>
</g>
</g>
<!-- Node1&#45;&gt;Node23 -->
<g id="edge24" class="edge"><title>Node1&#45;&gt;Node23</title>
<path fill="none" stroke="midnightblue" d="M59.8027,-213.368C85.1624,-196.867 137.112,-163.064 167.48,-143.304"/>
<polygon fill="midnightblue" stroke="midnightblue" points="169.685,-146.045 176.158,-137.657 165.867,-140.178 169.685,-146.045"/>
</g>
<!-- Node29 -->
<g id="node29" class="node"><title>Node29</title>
<g id="a_node29"><a xlink:href="classadvection.html#a2c37b670011de9a6acbe996ea899eac2" target="_top" xlink:title="advection::adv_init">
<polygon fill="white" stroke="black" points="143,-28.5 143,-47.5 241,-47.5 241,-28.5 143,-28.5"/>
<text text-anchor="middle" x="192" y="-35.5" font-family="Helvetica,sans-Serif" font-size="10.00">advection::adv_init</text>
</a>
</g>
</g>
<!-- Node1&#45;&gt;Node29 -->
<g id="edge30" class="edge"><title>Node1&#45;&gt;Node29</title>
<path fill="none" stroke="midnightblue" d="M50.8942,-213.497C63.4486,-193.493 94.1276,-145.849 124,-109 139.702,-89.6302 159.486,-69.0738 173.473,-55.0924"/>
<polygon fill="midnightblue" stroke="midnightblue" points="176.318,-57.2008 180.964,-47.6788 171.394,-52.2254 176.318,-57.2008"/>
</g>
<!-- Node3 -->
<g id="node3" class="node"><title>Node3</title>
<g id="a_node3"><a xlink:href="classmodule__mp__thompson.html#ac48fd402382d0687fe2a123025ba6a13" target="_top" xlink:title="module_mp_thompson\l::thompson_init">
<polygon fill="white" stroke="black" points="305.5,-399 305.5,-429 420.5,-429 420.5,-399 305.5,-399"/>
<text text-anchor="start" x="313.5" y="-417" font-family="Helvetica,sans-Serif" font-size="10.00">module_mp_thompson</text>
<text text-anchor="middle" x="363" y="-406" font-family="Helvetica,sans-Serif" font-size="10.00">::thompson_init</text>
</a>
</g>
</g>
<!-- Node2&#45;&gt;Node3 -->
<g id="edge2" class="edge"><title>Node2&#45;&gt;Node3</title>
<path fill="none" stroke="midnightblue" d="M248.337,-395.168C263.341,-397.654 279.743,-400.372 295.301,-402.949"/>
<polygon fill="midnightblue" stroke="midnightblue" points="294.943,-406.438 305.38,-404.619 296.087,-399.532 294.943,-406.438"/>
</g>
<!-- Node4 -->
<g id="node4" class="node"><title>Node4</title>
<g id="a_node4"><a xlink:href="classmodule__mp__thompson.html#a8a455cb4e751f42fa53a31bb47649767" target="_top" xlink:title="module_mp_thompson\l::wgamma">
<polygon fill="white" stroke="black" points="618.5,-515 618.5,-545 733.5,-545 733.5,-515 618.5,-515"/>
<text text-anchor="start" x="626.5" y="-533" font-family="Helvetica,sans-Serif" font-size="10.00">module_mp_thompson</text>
<text text-anchor="middle" x="676" y="-522" font-family="Helvetica,sans-Serif" font-size="10.00">::wgamma</text>
</a>
</g>
</g>
<!-- Node3&#45;&gt;Node4 -->
<g id="edge3" class="edge"><title>Node3&#45;&gt;Node4</title>
<path fill="none" stroke="midnightblue" d="M371.149,-429.283C384.962,-456.75 418.229,-513.672 466,-536 510.144,-556.633 565.46,-553.977 608.093,-546.784"/>
<polygon fill="midnightblue" stroke="midnightblue" points="608.872,-550.2 618.09,-544.976 607.627,-543.311 608.872,-550.2"/>
</g>
<!-- Node6 -->
<g id="node6" class="node"><title>Node6</title>
<g id="a_node6"><a xlink:href="classmodule__mp__thompson.html#aafc69c30a2dad10d06a05f1b7239926c" target="_top" xlink:title="module_mp_thompson\l::table_efrw">
<polygon fill="white" stroke="black" points="466.5,-497 466.5,-527 581.5,-527 581.5,-497 466.5,-497"/>
<text text-anchor="start" x="474.5" y="-515" font-family="Helvetica,sans-Serif" font-size="10.00">module_mp_thompson</text>
<text text-anchor="middle" x="524" y="-504" font-family="Helvetica,sans-Serif" font-size="10.00">::table_efrw</text>
</a>
</g>
</g>
<!-- Node3&#45;&gt;Node6 -->
<g id="edge5" class="edge"><title>Node3&#45;&gt;Node6</title>
<path fill="none" stroke="midnightblue" d="M382.755,-429.243C402.636,-444.956 435.337,-469.555 466,-487 469.39,-488.929 472.957,-490.81 476.584,-492.62"/>
<polygon fill="midnightblue" stroke="midnightblue" points="475.124,-495.802 485.656,-496.956 478.143,-489.486 475.124,-495.802"/>
</g>
<!-- Node7 -->
<g id="node7" class="node"><title>Node7</title>
<g id="a_node7"><a xlink:href="classmodule__mp__thompson.html#ab74dffc6baa178d41426700bfd1a08c6" target="_top" xlink:title="module_mp_thompson\l::table_efsw">
<polygon fill="white" stroke="black" points="466.5,-448 466.5,-478 581.5,-478 581.5,-448 466.5,-448"/>
<text text-anchor="start" x="474.5" y="-466" font-family="Helvetica,sans-Serif" font-size="10.00">module_mp_thompson</text>
<text text-anchor="middle" x="524" y="-455" font-family="Helvetica,sans-Serif" font-size="10.00">::table_efsw</text>
</a>
</g>
</g>
<!-- Node3&#45;&gt;Node7 -->
<g id="edge6" class="edge"><title>Node3&#45;&gt;Node7</title>
<path fill="none" stroke="midnightblue" d="M413.003,-429.101C429.249,-434.108 447.499,-439.732 464.394,-444.939"/>
<polygon fill="midnightblue" stroke="midnightblue" points="463.572,-448.348 474.159,-447.948 465.633,-441.659 463.572,-448.348"/>
</g>
<!-- Node8 -->
<g id="node8" class="node"><title>Node8</title>
<g id="a_node8"><a xlink:href="classmodule__mp__thompson.html#ac898e25fc9f98509e6110b13be2a0f47" target="_top" xlink:title="module_mp_thompson\l::qr_acr_qg">
<polygon fill="white" stroke="black" points="466.5,-399 466.5,-429 581.5,-429 581.5,-399 466.5,-399"/>
<text text-anchor="start" x="474.5" y="-417" font-family="Helvetica,sans-Serif" font-size="10.00">module_mp_thompson</text>
<text text-anchor="middle" x="524" y="-406" font-family="Helvetica,sans-Serif" font-size="10.00">::qr_acr_qg</text>
</a>
</g>
</g>
<!-- Node3&#45;&gt;Node8 -->
<g id="edge7" class="edge"><title>Node3&#45;&gt;Node8</title>
<path fill="none" stroke="midnightblue" d="M420.505,-414C432.034,-414 444.269,-414 456.121,-414"/>
<polygon fill="midnightblue" stroke="midnightblue" points="456.409,-417.5 466.409,-414 456.409,-410.5 456.409,-417.5"/>
</g>
<!-- Node9 -->
<g id="node9" class="node"><title>Node9</title>
<g id="a_node9"><a xlink:href="classmodule__mp__thompson.html#abcd924082fb7889d94345fcd108bc7ae" target="_top" xlink:title="module_mp_thompson\l::qr_acr_qs">
<polygon fill="white" stroke="black" points="466.5,-350 466.5,-380 581.5,-380 581.5,-350 466.5,-350"/>
<text text-anchor="start" x="474.5" y="-368" font-family="Helvetica,sans-Serif" font-size="10.00">module_mp_thompson</text>
<text text-anchor="middle" x="524" y="-357" font-family="Helvetica,sans-Serif" font-size="10.00">::qr_acr_qs</text>
</a>
</g>
</g>
<!-- Node3&#45;&gt;Node9 -->
<g id="edge8" class="edge"><title>Node3&#45;&gt;Node9</title>
<path fill="none" stroke="midnightblue" d="M413.003,-398.899C429.249,-393.892 447.499,-388.268 464.394,-383.061"/>
<polygon fill="midnightblue" stroke="midnightblue" points="465.633,-386.341 474.159,-380.052 463.572,-379.652 465.633,-386.341"/>
</g>
<!-- Node10 -->
<g id="node10" class="node"><title>Node10</title>
<g id="a_node10"><a xlink:href="classmodule__mp__thompson.html#aef8e7a0baae69fe6c2719f923b818fe4" target="_top" xlink:title="module_mp_thompson\l::freezeh2o">
<polygon fill="white" stroke="black" points="466.5,-301 466.5,-331 581.5,-331 581.5,-301 466.5,-301"/>
<text text-anchor="start" x="474.5" y="-319" font-family="Helvetica,sans-Serif" font-size="10.00">module_mp_thompson</text>
<text text-anchor="middle" x="524" y="-308" font-family="Helvetica,sans-Serif" font-size="10.00">::freezeh2o</text>
</a>
</g>
</g>
<!-- Node3&#45;&gt;Node10 -->
<g id="edge9" class="edge"><title>Node3&#45;&gt;Node10</title>
<path fill="none" stroke="midnightblue" d="M413.613,-398.853C419.411,-396.046 425.024,-392.78 430,-389 451.519,-372.654 444.782,-356.736 466,-340 467.581,-338.753 469.236,-337.56 470.945,-336.42"/>
<polygon fill="midnightblue" stroke="midnightblue" points="473.033,-339.252 479.862,-331.152 469.472,-333.225 473.033,-339.252"/>
</g>
<!-- Node11 -->
<g id="node11" class="node"><title>Node11</title>
<g id="a_node11"><a xlink:href="classmodule__mp__thompson.html#a38c4bc57c8dd450c76cc65b1991cf23d" target="_top" xlink:title="module_mp_thompson\l::qi_aut_qs">
<polygon fill="white" stroke="black" points="466.5,-252 466.5,-282 581.5,-282 581.5,-252 466.5,-252"/>
<text text-anchor="start" x="474.5" y="-270" font-family="Helvetica,sans-Serif" font-size="10.00">module_mp_thompson</text>
<text text-anchor="middle" x="524" y="-259" font-family="Helvetica,sans-Serif" font-size="10.00">::qi_aut_qs</text>
</a>
</g>
</g>
<!-- Node3&#45;&gt;Node11 -->
<g id="edge10" class="edge"><title>Node3&#45;&gt;Node11</title>
<path fill="none" stroke="midnightblue" d="M417.017,-398.844C421.768,-396.084 426.207,-392.831 430,-389 462.646,-356.025 433.961,-324.564 466,-291 466.917,-290.039 467.879,-289.115 468.879,-288.226"/>
<polygon fill="midnightblue" stroke="midnightblue" points="471.224,-290.845 477.184,-282.086 467.062,-285.217 471.224,-290.845"/>
</g>
<!-- Node5 -->
<g id="node5" class="node"><title>Node5</title>
<g id="a_node5"><a xlink:href="classmodule__mp__thompson.html#a529ff675223a2d57e5e67a26707638cd" target="_top" xlink:title="module_mp_thompson\l::gammln">
<polygon fill="white" stroke="black" points="940.5,-396 940.5,-426 1055.5,-426 1055.5,-396 940.5,-396"/>
<text text-anchor="start" x="948.5" y="-414" font-family="Helvetica,sans-Serif" font-size="10.00">module_mp_thompson</text>
<text text-anchor="middle" x="998" y="-403" font-family="Helvetica,sans-Serif" font-size="10.00">::gammln</text>
</a>
</g>
</g>
<!-- Node4&#45;&gt;Node5 -->
<g id="edge4" class="edge"><title>Node4&#45;&gt;Node5</title>
<path fill="none" stroke="midnightblue" d="M717.528,-514.929C775.996,-493.186 883.915,-453.053 947.173,-429.529"/>
<polygon fill="midnightblue" stroke="midnightblue" points="948.396,-432.809 956.549,-426.043 945.956,-426.248 948.396,-432.809"/>
</g>
<!-- Node12 -->
<g id="node12" class="node"><title>Node12</title>
<g id="a_node12"><a xlink:href="classmodule__mp__thompson.html#a1f946ed505cb00dda905c9a8c773b9be" target="_top" xlink:title="module_mp_thompson\l::gammp">
<polygon fill="white" stroke="black" points="618.5,-352 618.5,-382 733.5,-382 733.5,-352 618.5,-352"/>
<text text-anchor="start" x="626.5" y="-370" font-family="Helvetica,sans-Serif" font-size="10.00">module_mp_thompson</text>
<text text-anchor="middle" x="676" y="-359" font-family="Helvetica,sans-Serif" font-size="10.00">::gammp</text>
</a>
</g>
</g>
<!-- Node11&#45;&gt;Node12 -->
<g id="edge11" class="edge"><title>Node11&#45;&gt;Node12</title>
<path fill="none" stroke="midnightblue" d="M564.973,-282.099C570.821,-284.8 576.664,-287.788 582,-291 607.562,-306.386 633.603,-328.315 651.601,-344.667"/>
<polygon fill="midnightblue" stroke="midnightblue" points="649.551,-347.537 659.274,-351.743 654.296,-342.391 649.551,-347.537"/>
</g>
<!-- Node13 -->
<g id="node13" class="node"><title>Node13</title>
<g id="a_node13"><a xlink:href="classmodule__mp__thompson.html#af4069d16cc3cbf9a1c493ae5314f4484" target="_top" xlink:title="module_mp_thompson\l::gser">
<polygon fill="white" stroke="black" points="779.5,-396 779.5,-426 894.5,-426 894.5,-396 779.5,-396"/>
<text text-anchor="start" x="787.5" y="-414" font-family="Helvetica,sans-Serif" font-size="10.00">module_mp_thompson</text>
<text text-anchor="middle" x="837" y="-403" font-family="Helvetica,sans-Serif" font-size="10.00">::gser</text>
</a>
</g>
</g>
<!-- Node12&#45;&gt;Node13 -->
<g id="edge12" class="edge"><title>Node12&#45;&gt;Node13</title>
<path fill="none" stroke="midnightblue" d="M731.274,-382.019C744.377,-385.645 758.5,-389.553 772.002,-393.29"/>
<polygon fill="midnightblue" stroke="midnightblue" points="771.129,-396.68 781.701,-395.974 772.996,-389.933 771.129,-396.68"/>
</g>
<!-- Node14 -->
<g id="node14" class="node"><title>Node14</title>
<g id="a_node14"><a xlink:href="classmodule__mp__thompson.html#ae708350e2b07c93cbab0a8f77752e063" target="_top" xlink:title="module_mp_thompson::gcf">
<polygon fill="white" stroke="black" points="770,-357.5 770,-376.5 904,-376.5 904,-357.5 770,-357.5"/>
<text text-anchor="middle" x="837" y="-364.5" font-family="Helvetica,sans-Serif" font-size="10.00">module_mp_thompson::gcf</text>
</a>
</g>
</g>
<!-- Node12&#45;&gt;Node14 -->
<g id="edge14" class="edge"><title>Node12&#45;&gt;Node14</title>
<path fill="none" stroke="midnightblue" d="M733.505,-367C741.974,-367 750.823,-367 759.622,-367"/>
<polygon fill="midnightblue" stroke="midnightblue" points="759.901,-370.5 769.901,-367 759.901,-363.5 759.901,-370.5"/>
</g>
<!-- Node13&#45;&gt;Node5 -->
<g id="edge13" class="edge"><title>Node13&#45;&gt;Node5</title>
<path fill="none" stroke="midnightblue" d="M894.505,-411C906.034,-411 918.269,-411 930.121,-411"/>
<polygon fill="midnightblue" stroke="midnightblue" points="930.409,-414.5 940.409,-411 930.409,-407.5 930.409,-414.5"/>
</g>
<!-- Node14&#45;&gt;Node5 -->
<g id="edge15" class="edge"><title>Node14&#45;&gt;Node5</title>
<path fill="none" stroke="midnightblue" d="M872.501,-376.547C890.162,-381.435 912.242,-387.545 932.884,-393.257"/>
<polygon fill="midnightblue" stroke="midnightblue" points="931.988,-396.641 942.559,-395.935 933.855,-389.894 931.988,-396.641"/>
</g>
<!-- Node16 -->
<g id="node16" class="node"><title>Node16</title>
<g id="a_node16"><a xlink:href="classmodule__cu__tiedtke.html#a60f0cad4dfe50584efbfe0fd3f2e4d33" target="_top" xlink:title="module_cu_tiedtke::\ltiedtkeinit">
<polygon fill="white" stroke="black" points="311,-350 311,-380 415,-380 415,-350 311,-350"/>
<text text-anchor="start" x="319" y="-368" font-family="Helvetica,sans-Serif" font-size="10.00">module_cu_tiedtke::</text>
<text text-anchor="middle" x="363" y="-357" font-family="Helvetica,sans-Serif" font-size="10.00">tiedtkeinit</text>
</a>
</g>
</g>
<!-- Node15&#45;&gt;Node16 -->
<g id="edge17" class="edge"><title>Node15&#45;&gt;Node16</title>
<path fill="none" stroke="midnightblue" d="M229.67,-330.547C250.575,-335.99 277.302,-342.948 301.257,-349.185"/>
<polygon fill="midnightblue" stroke="midnightblue" points="300.418,-352.583 310.977,-351.716 302.182,-345.809 300.418,-352.583"/>
</g>
<!-- Node17 -->
<g id="node17" class="node"><title>Node17</title>
<g id="a_node17"><a xlink:href="classmodule__cu__kf.html#a1220d4bd1b534a12c94b07e3f45ebec4" target="_top" xlink:title="module_cu_kf::kfinit">
<polygon fill="white" stroke="black" points="311,-311.5 311,-330.5 415,-330.5 415,-311.5 311,-311.5"/>
<text text-anchor="middle" x="363" y="-318.5" font-family="Helvetica,sans-Serif" font-size="10.00">module_cu_kf::kfinit</text>
</a>
</g>
</g>
<!-- Node15&#45;&gt;Node17 -->
<g id="edge18" class="edge"><title>Node15&#45;&gt;Node17</title>
<path fill="none" stroke="midnightblue" d="M259.793,-321C273.321,-321 287.483,-321 300.807,-321"/>
<polygon fill="midnightblue" stroke="midnightblue" points="300.807,-324.5 310.807,-321 300.807,-317.5 300.807,-324.5"/>
</g>
<!-- Node19 -->
<g id="node19" class="node"><title>Node19</title>
<g id="a_node19"><a xlink:href="classpbl__simple.html#a0d3a6d04c622b7d39124153482f0cde4" target="_top" xlink:title="pbl_simple::init_simple_pbl">
<polygon fill="white" stroke="black" points="296,-273.5 296,-292.5 430,-292.5 430,-273.5 296,-273.5"/>
<text text-anchor="middle" x="363" y="-280.5" font-family="Helvetica,sans-Serif" font-size="10.00">pbl_simple::init_simple_pbl</text>
</a>
</g>
</g>
<!-- Node18&#45;&gt;Node19 -->
<g id="edge20" class="edge"><title>Node18&#45;&gt;Node19</title>
<path fill="none" stroke="midnightblue" d="M242.792,-256.196C263.889,-260.94 288.48,-266.469 309.829,-271.269"/>
<polygon fill="midnightblue" stroke="midnightblue" points="309.177,-274.71 319.702,-273.489 310.713,-267.881 309.177,-274.71"/>
</g>
<!-- Node20 -->
<g id="node20" class="node"><title>Node20</title>
<g id="a_node20"><a xlink:href="classmodule__bl__ysu.html#a5e5cd7f0607bbf2b77ccbdaf3d8e02cf" target="_top" xlink:title="module_bl_ysu::ysuinit">
<polygon fill="white" stroke="black" points="305,-235.5 305,-254.5 421,-254.5 421,-235.5 305,-235.5"/>
<text text-anchor="middle" x="363" y="-242.5" font-family="Helvetica,sans-Serif" font-size="10.00">module_bl_ysu::ysuinit</text>
</a>
</g>
</g>
<!-- Node18&#45;&gt;Node20 -->
<g id="edge21" class="edge"><title>Node18&#45;&gt;Node20</title>
<path fill="none" stroke="midnightblue" d="M242.792,-245C259.07,-245 277.428,-245 294.772,-245"/>
<polygon fill="midnightblue" stroke="midnightblue" points="294.843,-248.5 304.843,-245 294.843,-241.5 294.843,-248.5"/>
</g>
<!-- Node22 -->
<g id="node22" class="node"><title>Node22</title>
<g id="a_node22"><a xlink:href="classmodule__ra__simple.html#abb164c3a377c5beb3eb0fcd49a44a681" target="_top" xlink:title="module_ra_simple::ra\l_simple_init">
<polygon fill="white" stroke="black" points="308,-186 308,-216 418,-216 418,-186 308,-186"/>
<text text-anchor="start" x="316" y="-204" font-family="Helvetica,sans-Serif" font-size="10.00">module_ra_simple::ra</text>
<text text-anchor="middle" x="363" y="-193" font-family="Helvetica,sans-Serif" font-size="10.00">_simple_init</text>
</a>
</g>
</g>
<!-- Node21&#45;&gt;Node22 -->
<g id="edge23" class="edge"><title>Node21&#45;&gt;Node22</title>
<path fill="none" stroke="midnightblue" d="M249.275,-201C264.792,-201 281.743,-201 297.678,-201"/>
<polygon fill="midnightblue" stroke="midnightblue" points="297.977,-204.5 307.977,-201 297.977,-197.5 297.977,-204.5"/>
</g>
<!-- Node24 -->
<g id="node24" class="node"><title>Node24</title>
<g id="a_node24"><a xlink:href="classmodule__lsm__simple.html#a8dd721614e8dd253eb84b1d4f8628be3" target="_top" xlink:title="module_lsm_simple::\llsm_simple_init">
<polygon fill="white" stroke="black" points="308.5,-137 308.5,-167 417.5,-167 417.5,-137 308.5,-137"/>
<text text-anchor="start" x="316.5" y="-155" font-family="Helvetica,sans-Serif" font-size="10.00">module_lsm_simple::</text>
<text text-anchor="middle" x="363" y="-144" font-family="Helvetica,sans-Serif" font-size="10.00">lsm_simple_init</text>
</a>
</g>
</g>
<!-- Node23&#45;&gt;Node24 -->
<g id="edge25" class="edge"><title>Node23&#45;&gt;Node24</title>
<path fill="none" stroke="midnightblue" d="M248.337,-135.858C264.281,-138.123 281.803,-140.611 298.215,-142.942"/>
<polygon fill="midnightblue" stroke="midnightblue" points="297.873,-146.428 308.266,-144.369 298.858,-139.498 297.873,-146.428"/>
</g>
<!-- Node25 -->
<g id="node25" class="node"><title>Node25</title>
<g id="a_node25"><a xlink:href="classland__surface.html#a91478f83b5063f03b97e560543bcae28" target="_top" xlink:title="land_surface::allocate\l_noah_data">
<polygon fill="white" stroke="black" points="307,-88 307,-118 419,-118 419,-88 307,-88"/>
<text text-anchor="start" x="315" y="-106" font-family="Helvetica,sans-Serif" font-size="10.00">land_surface::allocate</text>
<text text-anchor="middle" x="363" y="-95" font-family="Helvetica,sans-Serif" font-size="10.00">_noah_data</text>
</a>
</g>
</g>
<!-- Node23&#45;&gt;Node25 -->
<g id="edge26" class="edge"><title>Node23&#45;&gt;Node25</title>
<path fill="none" stroke="midnightblue" d="M248.337,-119.814C263.736,-117.536 280.607,-115.04 296.528,-112.685"/>
<polygon fill="midnightblue" stroke="midnightblue" points="297.447,-116.087 306.828,-111.162 296.423,-109.163 297.447,-116.087"/>
</g>
<!-- Node26 -->
<g id="node26" class="node"><title>Node26</title>
<g id="a_node26"><a xlink:href="classmodule__sf__noahdrv.html#a198d0ba5f79e7b049e5b685d2972fb32" target="_top" xlink:title="module_sf_noahdrv::\llsm_noah_init">
<polygon fill="white" stroke="black" points="309.5,-39 309.5,-69 416.5,-69 416.5,-39 309.5,-39"/>
<text text-anchor="start" x="317.5" y="-57" font-family="Helvetica,sans-Serif" font-size="10.00">module_sf_noahdrv::</text>
<text text-anchor="middle" x="363" y="-46" font-family="Helvetica,sans-Serif" font-size="10.00">lsm_noah_init</text>
</a>
</g>
</g>
<!-- Node23&#45;&gt;Node26 -->
<g id="edge27" class="edge"><title>Node23&#45;&gt;Node26</title>
<path fill="none" stroke="midnightblue" d="M211.342,-118.384C231.738,-107.859 265.796,-90.7827 296,-78 300.154,-76.2418 304.487,-74.4905 308.859,-72.7808"/>
<polygon fill="midnightblue" stroke="midnightblue" points="310.348,-75.9584 318.439,-69.118 307.849,-69.42 310.348,-75.9584"/>
</g>
<!-- Node27 -->
<g id="node27" class="node"><title>Node27</title>
<g id="a_node27"><a xlink:href="classmodule__sf__noahdrv.html#aeb286b1a6b9c0691f65581432dbf283f" target="_top" xlink:title="module_sf_noahdrv::\lsoil_veg_gen_parm">
<polygon fill="white" stroke="black" points="470.5,-64 470.5,-94 577.5,-94 577.5,-64 470.5,-64"/>
<text text-anchor="start" x="478.5" y="-82" font-family="Helvetica,sans-Serif" font-size="10.00">module_sf_noahdrv::</text>
<text text-anchor="middle" x="524" y="-71" font-family="Helvetica,sans-Serif" font-size="10.00">soil_veg_gen_parm</text>
</a>
</g>
</g>
<!-- Node26&#45;&gt;Node27 -->
<g id="edge28" class="edge"><title>Node26&#45;&gt;Node27</title>
<path fill="none" stroke="midnightblue" d="M416.503,-62.2552C430.541,-64.4624 445.853,-66.8699 460.377,-69.1536"/>
<polygon fill="midnightblue" stroke="midnightblue" points="459.858,-72.615 470.28,-70.7108 460.945,-65.6999 459.858,-72.615"/>
</g>
<!-- Node28 -->
<g id="node28" class="node"><title>Node28</title>
<g id="a_node28"><a xlink:href="classmodule__sf__noahlsm.html#a5beb42f74e1a357ccfc0e904f356b33a" target="_top" xlink:title="module_sf_noahlsm::\lfrh2o">
<polygon fill="white" stroke="black" points="469,-15 469,-45 579,-45 579,-15 469,-15"/>
<text text-anchor="start" x="477" y="-33" font-family="Helvetica,sans-Serif" font-size="10.00">module_sf_noahlsm::</text>
<text text-anchor="middle" x="524" y="-22" font-family="Helvetica,sans-Serif" font-size="10.00">frh2o</text>
</a>
</g>
</g>
<!-- Node26&#45;&gt;Node28 -->
<g id="edge29" class="edge"><title>Node26&#45;&gt;Node28</title>
<path fill="none" stroke="midnightblue" d="M416.503,-46.075C430.042,-44.0314 444.766,-41.8089 458.825,-39.6868"/>
<polygon fill="midnightblue" stroke="midnightblue" points="459.553,-43.1167 468.919,-38.1632 458.508,-36.1951 459.553,-43.1167"/>
</g>
<!-- Node30 -->
<g id="node30" class="node"><title>Node30</title>
<g id="a_node30"><a xlink:href="classadv__mpdata.html#ae7f3e6c9a2371ef13f7ed661aaed2ef3" target="_top" xlink:title="adv_mpdata::mpdata_init">
<polygon fill="white" stroke="black" points="300,-0.5 300,-19.5 426,-19.5 426,-0.5 300,-0.5"/>
<text text-anchor="middle" x="363" y="-7.5" font-family="Helvetica,sans-Serif" font-size="10.00">adv_mpdata::mpdata_init</text>
</a>
</g>
</g>
<!-- Node29&#45;&gt;Node30 -->
<g id="edge31" class="edge"><title>Node29&#45;&gt;Node30</title>
<path fill="none" stroke="midnightblue" d="M241.429,-29.9763C257.899,-27.2475 276.62,-24.1459 294.315,-21.214"/>
<polygon fill="midnightblue" stroke="midnightblue" points="295.297,-24.5991 304.591,-19.5116 294.153,-17.6932 295.297,-24.5991"/>
</g>
</g>
</svg>
        <g id="navigator" transform="translate(0 0)" fill="#404254">
                <rect fill="#f2f5e9" fill-opacity="0.5" stroke="#606060" stroke-width=".5" x="0" y="0" width="60" height="60"/>
                <use id="zoomplus" xlink:href="#zoomPlus" x="17" y="9" onmousedown="handleZoom(evt,'in')"/>
                <use id="zoomminus" xlink:href="#zoomMin" x="42" y="9" onmousedown="handleZoom(evt,'out')"/>
                <use id="reset" xlink:href="#resetDef" x="30" y="36" onmousedown="handleReset()"/>
                <g id="arrowUp" xlink:href="#dirArrow" transform="translate(30 24)" onmousedown="handlePan(0,-1)">
                  <use xlink:href="#rim" fill="#404040">
                        <set attributeName="fill" to="#808080" begin="arrowUp.mouseover" end="arrowUp.mouseout"/>
                  </use>
                  <path fill="none" stroke="white" stroke-width="1.5" d="M0,-3.0v7 M-2.5,-0.5L0,-3.0L2.5,-0.5"/>
                </g>
                <g id="arrowRight" xlink:href="#dirArrow" transform="rotate(90) translate(36 -43)" onmousedown="handlePan(1,0)">
                  <use xlink:href="#rim" fill="#404040">
                        <set attributeName="fill" to="#808080" begin="arrowRight.mouseover" end="arrowRight.mouseout"/>
                  </use>
                  <path fill="none" stroke="white" stroke-width="1.5" d="M0,-3.0v7 M-2.5,-0.5L0,-3.0L2.5,-0.5"/>
                </g>
                <g id="arrowDown" xlink:href="#dirArrow" transform="rotate(180) translate(-30 -48)" onmousedown="handlePan(0,1)">
                  <use xlink:href="#rim" fill="#404040">
                        <set attributeName="fill" to="#808080" begin="arrowDown.mouseover" end="arrowDown.mouseout"/>
                  </use>
                  <path fill="none" stroke="white" stroke-width="1.5" d="M0,-3.0v7 M-2.5,-0.5L0,-3.0L2.5,-0.5"/>
                </g>
                <g id="arrowLeft" xlink:href="#dirArrow" transform="rotate(270) translate(-36 17)" onmousedown="handlePan(-1,0)">
                  <use xlink:href="#rim" fill="#404040">
                        <set attributeName="fill" to="#808080" begin="arrowLeft.mouseover" end="arrowLeft.mouseout"/>
                  </use>
                  <path fill="none" stroke="white" stroke-width="1.5" d="M0,-3.0v7 M-2.5,-0.5L0,-3.0L2.5,-0.5"/>
                </g>
        </g>
        <svg viewBox="0 0 15 15" width="100%" height="30px" preserveAspectRatio="xMaxYMin meet">
         <g id="arrow_out" transform="scale(0.3 0.3)">
          <a xlink:href="classinit_ad066397f42956c6e9d50884a2e84d4e4_cgraph_org.svg" target="_base">
           <rect id="button" ry="5" rx="5" y="6" x="6" height="38" width="38"
                fill="#f2f5e9" fill-opacity="0.5" stroke="#606060" stroke-width="1.0"/>
           <path id="arrow"
             d="M 11.500037,31.436501 C 11.940474,20.09759 22.043105,11.32322 32.158766,21.979434 L 37.068811,17.246167 C 37.068811,17.246167 37.088388,32 37.088388,32 L 22.160133,31.978069 C 22.160133,31.978069 26.997745,27.140456 26.997745,27.140456 C 18.528582,18.264221 13.291696,25.230495 11.500037,31.436501 z"
             style="fill:#404040;"/>
          </a>
         </g>
        </svg>
</svg>
