<?xml version="1.0" encoding="UTF-8" standalone="no"?>
<!DOCTYPE svg PUBLIC "-//W3C//DTD SVG 1.1//EN"
 "http://www.w3.org/Graphics/SVG/1.1/DTD/svg11.dtd">
<!-- Generated by graphviz version 2.38.0 (20140413.2041)
 -->
<!-- Title: output::write_domain Pages: 1 -->
<svg width="325pt" height="116pt"
 viewBox="0.00 0.00 325.00 115.50" xmlns="http://www.w3.org/2000/svg" xmlns:xlink="http://www.w3.org/1999/xlink">
<g id="graph0" class="graph" transform="scale(1 1) rotate(0) translate(4 111.5)">
<title>output::write_domain</title>
<polygon fill="white" stroke="none" points="-4,4 -4,-111.5 321,-111.5 321,4 -4,4"/>
<!-- Node1 -->
<g id="node1" class="node"><title>Node1</title>
<polygon fill="#bfbfbf" stroke="black" points="0,-38.5 0,-57.5 107,-57.5 107,-38.5 0,-38.5"/>
<text text-anchor="middle" x="53.5" y="-45.5" font-family="Helvetica,sans-Serif" font-size="10.00">output::write_domain</text>
</g>
<!-- Node2 -->
<g id="node2" class="node"><title>Node2</title>
<g id="a_node2"><a xlink:href="classboundary__conditions.html#a07a42f467f470ada98e0a35fd5a75f66" target="_top" xlink:title=" Initialize the boundary conditions (read inital conditions, etc.) ">
<polygon fill="white" stroke="black" points="143,-77 143,-107 249,-107 249,-77 143,-77"/>
<text text-anchor="start" x="151" y="-95" font-family="Helvetica,sans-Serif" font-size="10.00">boundary_conditions</text>
<text text-anchor="middle" x="196" y="-84" font-family="Helvetica,sans-Serif" font-size="10.00">::bc_init</text>
</a>
</g>
</g>
<!-- Node1&#45;&gt;Node2 -->
<g id="edge1" class="edge"><title>Node1&#45;&gt;Node2</title>
<path fill="none" stroke="midnightblue" d="M94.7315,-60.5992C110.997,-65.6931 129.907,-71.6151 146.894,-76.9346"/>
<polygon fill="midnightblue" stroke="midnightblue" points="95.5754,-57.1959 84.9864,-57.5473 93.4834,-63.876 95.5754,-57.1959"/>
</g>
<!-- Node3 -->
<g id="node3" class="node"><title>Node3</title>
<g id="a_node3"><a xlink:href="driver_8f90.html#ab1e5a5816a57fc6e95d9563c2bb53590" target="_top" xlink:title=" Main Program ">
<polygon fill="white" stroke="black" points="285,-38.5 285,-57.5 317,-57.5 317,-38.5 285,-38.5"/>
<text text-anchor="middle" x="301" y="-45.5" font-family="Helvetica,sans-Serif" font-size="10.00">icar</text>
</a>
</g>
</g>
<!-- Node1&#45;&gt;Node3 -->
<g id="edge3" class="edge"><title>Node1&#45;&gt;Node3</title>
<path fill="none" stroke="midnightblue" d="M117.414,-48C173.771,-48 252.406,-48 284.965,-48"/>
<polygon fill="midnightblue" stroke="midnightblue" points="117.166,-44.5001 107.166,-48 117.166,-51.5001 117.166,-44.5001"/>
</g>
<!-- Node4 -->
<g id="node4" class="node"><title>Node4</title>
<g id="a_node4"><a xlink:href="classtime__step.html#a2c022f11247af72e607b1493289aa974" target="_top" xlink:title=" Step forward one IO time step. ">
<polygon fill="white" stroke="black" points="154,-0.5 154,-19.5 238,-19.5 238,-0.5 154,-0.5"/>
<text text-anchor="middle" x="196" y="-7.5" font-family="Helvetica,sans-Serif" font-size="10.00">time_step::step</text>
</a>
</g>
</g>
<!-- Node1&#45;&gt;Node4 -->
<g id="edge4" class="edge"><title>Node1&#45;&gt;Node4</title>
<path fill="none" stroke="midnightblue" d="M99.7787,-35.7538C119.145,-30.516 141.422,-24.4909 159.557,-19.5859"/>
<polygon fill="midnightblue" stroke="midnightblue" points="98.6934,-32.4215 89.9541,-38.411 100.521,-39.1787 98.6934,-32.4215"/>
</g>
<!-- Node2&#45;&gt;Node3 -->
<g id="edge2" class="edge"><title>Node2&#45;&gt;Node3</title>
<path fill="none" stroke="midnightblue" d="M241.625,-72.937C257.084,-66.3328 273.386,-59.3692 284.821,-54.4842"/>
<polygon fill="midnightblue" stroke="midnightblue" points="239.98,-69.8337 232.159,-76.9808 242.73,-76.2709 239.98,-69.8337"/>
</g>
<!-- Node4&#45;&gt;Node3 -->
<g id="edge5" class="edge"><title>Node4&#45;&gt;Node3</title>
<path fill="none" stroke="midnightblue" d="M232.572,-23.1236C250.456,-29.7216 271.183,-37.3684 284.885,-42.4236"/>
<polygon fill="midnightblue" stroke="midnightblue" points="233.585,-19.7667 222.991,-19.589 231.162,-26.334 233.585,-19.7667"/>
</g>
</g>
</svg>
