<?xml version="1.0" encoding="UTF-8" standalone="no"?>
<!DOCTYPE svg PUBLIC "-//W3C//DTD SVG 1.1//EN"
 "http://www.w3.org/Graphics/SVG/1.1/DTD/svg11.dtd">
<!-- Generated by graphviz version 2.32.0 (20130809.1645)
 -->
<!-- Title: module_water_simple::water_simple Pages: 1 -->
<svg width="270pt" height="126pt"
 viewBox="0.00 0.00 270.00 126.00" xmlns="http://www.w3.org/2000/svg" xmlns:xlink="http://www.w3.org/1999/xlink">
<g id="graph0" class="graph" transform="scale(1 1) rotate(0) translate(4 122)">
<title>module_water_simple::water_simple</title>
<polygon fill="white" stroke="white" points="-4,5 -4,-122 267,-122 267,5 -4,5"/>
<!-- Node1 -->
<g id="node1" class="node"><title>Node1</title>
<polygon fill="#bfbfbf" stroke="black" points="0.5,-49 0.5,-79 111.5,-79 111.5,-49 0.5,-49"/>
<text text-anchor="start" x="8.5" y="-67" font-family="Helvetica,sans-Serif" font-size="10.00">module_water_simple</text>
<text text-anchor="middle" x="56" y="-56" font-family="Helvetica,sans-Serif" font-size="10.00">::water_simple</text>
</g>
<!-- Node2 -->
<g id="node2" class="node"><title>Node2</title>
<g id="a_node2"><a xlink:href="classland__surface.html#ab611d871ec5af4909055c4484c2695e9" target="_top" xlink:title="land_surface::sat_mr">
<polygon fill="white" stroke="black" points="151,-98.5 151,-117.5 259,-117.5 259,-98.5 151,-98.5"/>
<text text-anchor="middle" x="205" y="-105.5" font-family="Helvetica,sans-Serif" font-size="10.00">land_surface::sat_mr</text>
</a>
</g>
</g>
<!-- Node1&#45;&gt;Node2 -->
<g id="edge1" class="edge"><title>Node1&#45;&gt;Node2</title>
<path fill="none" stroke="midnightblue" d="M107.178,-79.0192C125.116,-84.3885 145.122,-90.3766 162.27,-95.5095"/>
<polygon fill="midnightblue" stroke="midnightblue" points="161.416,-98.9072 172,-98.4217 163.423,-92.2011 161.416,-98.9072"/>
</g>
<!-- Node3 -->
<g id="node3" class="node"><title>Node3</title>
<g id="a_node3"><a xlink:href="classmodule__water__simple.html#a5b9a1a842f3dc930a7240399069f9810" target="_top" xlink:title="module_water_simple\l::ocean_roughness">
<polygon fill="white" stroke="black" points="149.5,-49 149.5,-79 260.5,-79 260.5,-49 149.5,-49"/>
<text text-anchor="start" x="157.5" y="-67" font-family="Helvetica,sans-Serif" font-size="10.00">module_water_simple</text>
<text text-anchor="middle" x="205" y="-56" font-family="Helvetica,sans-Serif" font-size="10.00">::ocean_roughness</text>
</a>
</g>
</g>
<!-- Node1&#45;&gt;Node3 -->
<g id="edge2" class="edge"><title>Node1&#45;&gt;Node3</title>
<path fill="none" stroke="midnightblue" d="M111.737,-64C120.634,-64 129.923,-64 139.035,-64"/>
<polygon fill="midnightblue" stroke="midnightblue" points="139.217,-67.5001 149.217,-64 139.217,-60.5001 139.217,-67.5001"/>
</g>
<!-- Node4 -->
<g id="node4" class="node"><title>Node4</title>
<g id="a_node4"><a xlink:href="classland__surface.html#a91d5fd091cf016fb3312e53c3907d1c5" target="_top" xlink:title="land_surface::calc\l_exchange_coefficient">
<polygon fill="white" stroke="black" points="148,-0 148,-30 262,-30 262,-0 148,-0"/>
<text text-anchor="start" x="156" y="-18" font-family="Helvetica,sans-Serif" font-size="10.00">land_surface::calc</text>
<text text-anchor="middle" x="205" y="-7" font-family="Helvetica,sans-Serif" font-size="10.00">_exchange_coefficient</text>
</a>
</g>
</g>
<!-- Node1&#45;&gt;Node4 -->
<g id="edge3" class="edge"><title>Node1&#45;&gt;Node4</title>
<path fill="none" stroke="midnightblue" d="M102.304,-48.8986C117.044,-43.9853 133.567,-38.4776 148.94,-33.3534"/>
<polygon fill="midnightblue" stroke="midnightblue" points="150.465,-36.5343 158.845,-30.0516 148.252,-29.8935 150.465,-36.5343"/>
</g>
</g>
</svg>
