<?xml version="1.0" encoding="UTF-8" standalone="no"?>
<!DOCTYPE svg PUBLIC "-//W3C//DTD SVG 1.1//EN"
 "http://www.w3.org/Graphics/SVG/1.1/DTD/svg11.dtd">
<!-- Generated by graphviz version 2.38.0 (20140413.2041)
 -->
<!-- Title: module_ra_simple::ra_simple_init Pages: 1 -->
<svg width="459pt" height="39pt"
 viewBox="0.00 0.00 459.00 39.00" xmlns="http://www.w3.org/2000/svg" xmlns:xlink="http://www.w3.org/1999/xlink">
<g id="graph0" class="graph" transform="scale(1 1) rotate(0) translate(4 35)">
<title>module_ra_simple::ra_simple_init</title>
<polygon fill="white" stroke="none" points="-4,4 -4,-35 455,-35 455,4 -4,4"/>
<!-- Node1 -->
<g id="node1" class="node"><title>Node1</title>
<polygon fill="#bfbfbf" stroke="black" points="0,-0.5 0,-30.5 110,-30.5 110,-0.5 0,-0.5"/>
<text text-anchor="start" x="8" y="-18.5" font-family="Helvetica,sans-Serif" font-size="10.00">module_ra_simple::ra</text>
<text text-anchor="middle" x="55" y="-7.5" font-family="Helvetica,sans-Serif" font-size="10.00">_simple_init</text>
</g>
<!-- Node2 -->
<g id="node2" class="node"><title>Node2</title>
<g id="a_node2"><a xlink:href="classradiation.html#a94649060f6141f802e4bc2d749b9b718" target="_top" xlink:title="radiation::radiation_init">
<polygon fill="white" stroke="black" points="146,-6 146,-25 260,-25 260,-6 146,-6"/>
<text text-anchor="middle" x="203" y="-13" font-family="Helvetica,sans-Serif" font-size="10.00">radiation::radiation_init</text>
</a>
</g>
</g>
<!-- Node1&#45;&gt;Node2 -->
<g id="edge1" class="edge"><title>Node1&#45;&gt;Node2</title>
<path fill="none" stroke="midnightblue" d="M120.484,-15.5C128.867,-15.5 137.401,-15.5 145.637,-15.5"/>
<polygon fill="midnightblue" stroke="midnightblue" points="120.365,-12.0001 110.365,-15.5 120.365,-19.0001 120.365,-12.0001"/>
</g>
<!-- Node3 -->
<g id="node3" class="node"><title>Node3</title>
<g id="a_node3"><a xlink:href="classinit.html#ad066397f42956c6e9d50884a2e84d4e4" target="_top" xlink:title="init::init_physics">
<polygon fill="white" stroke="black" points="296,-6 296,-25 383,-25 383,-6 296,-6"/>
<text text-anchor="middle" x="339.5" y="-13" font-family="Helvetica,sans-Serif" font-size="10.00">init::init_physics</text>
</a>
</g>
</g>
<!-- Node2&#45;&gt;Node3 -->
<g id="edge2" class="edge"><title>Node2&#45;&gt;Node3</title>
<path fill="none" stroke="midnightblue" d="M270.421,-15.5C279.113,-15.5 287.824,-15.5 295.972,-15.5"/>
<polygon fill="midnightblue" stroke="midnightblue" points="270.261,-12.0001 260.261,-15.5 270.261,-19.0001 270.261,-12.0001"/>
</g>
<!-- Node4 -->
<g id="node4" class="node"><title>Node4</title>
<g id="a_node4"><a xlink:href="driver_8f90.html#ab1e5a5816a57fc6e95d9563c2bb53590" target="_top" xlink:title=" Main Program ">
<polygon fill="white" stroke="black" points="419,-6 419,-25 451,-25 451,-6 419,-6"/>
<text text-anchor="middle" x="435" y="-13" font-family="Helvetica,sans-Serif" font-size="10.00">icar</text>
</a>
</g>
</g>
<!-- Node3&#45;&gt;Node4 -->
<g id="edge3" class="edge"><title>Node3&#45;&gt;Node4</title>
<path fill="none" stroke="midnightblue" d="M393.293,-15.5C402.593,-15.5 411.569,-15.5 418.714,-15.5"/>
<polygon fill="midnightblue" stroke="midnightblue" points="393.146,-12.0001 383.146,-15.5 393.146,-19.0001 393.146,-12.0001"/>
</g>
</g>
</svg>
