<?xml version="1.0" encoding="UTF-8" standalone="no"?>
<!DOCTYPE svg PUBLIC "-//W3C//DTD SVG 1.1//EN"
 "http://www.w3.org/Graphics/SVG/1.1/DTD/svg11.dtd">
<!-- Generated by graphviz version 2.38.0 (20140413.2041)
 -->
<!-- Title: linear_theory_winds::calc_stability Pages: 1 -->
<svg width="402pt" height="88pt"
 viewBox="0.00 0.00 402.00 88.00" xmlns="http://www.w3.org/2000/svg" xmlns:xlink="http://www.w3.org/1999/xlink">
<g id="graph0" class="graph" transform="scale(1 1) rotate(0) translate(4 84)">
<title>linear_theory_winds::calc_stability</title>
<polygon fill="white" stroke="none" points="-4,4 -4,-84 398,-84 398,4 -4,4"/>
<!-- Node1 -->
<g id="node1" class="node"><title>Node1</title>
<polygon fill="#bfbfbf" stroke="black" points="0,-24.5 0,-54.5 103,-54.5 103,-24.5 0,-24.5"/>
<text text-anchor="start" x="8" y="-42.5" font-family="Helvetica,sans-Serif" font-size="10.00">linear_theory_winds</text>
<text text-anchor="middle" x="51.5" y="-31.5" font-family="Helvetica,sans-Serif" font-size="10.00">::calc_stability</text>
</g>
<!-- Node2 -->
<g id="node2" class="node"><title>Node2</title>
<g id="a_node2"><a xlink:href="classlinear__theory__winds.html#ad578ccb07e18c99e958d5ae7c43f3c19" target="_top" xlink:title="linear_theory_winds\l::calc_dry_stability">
<polygon fill="white" stroke="black" points="142,-49.5 142,-79.5 245,-79.5 245,-49.5 142,-49.5"/>
<text text-anchor="start" x="150" y="-67.5" font-family="Helvetica,sans-Serif" font-size="10.00">linear_theory_winds</text>
<text text-anchor="middle" x="193.5" y="-56.5" font-family="Helvetica,sans-Serif" font-size="10.00">::calc_dry_stability</text>
</a>
</g>
</g>
<!-- Node1&#45;&gt;Node2 -->
<g id="edge1" class="edge"><title>Node1&#45;&gt;Node2</title>
<path fill="none" stroke="midnightblue" d="M103.043,-48.5256C112.344,-50.1864 122.143,-51.9362 131.708,-53.6443"/>
<polygon fill="midnightblue" stroke="midnightblue" points="131.101,-57.0912 141.561,-55.4037 132.332,-50.2002 131.101,-57.0912"/>
</g>
<!-- Node3 -->
<g id="node3" class="node"><title>Node3</title>
<g id="a_node3"><a xlink:href="classlinear__theory__winds.html#af214d362ee340566892db3d7f0470c63" target="_top" xlink:title="linear_theory_winds\l::calc_moist_stability">
<polygon fill="white" stroke="black" points="139,-0.5 139,-30.5 248,-30.5 248,-0.5 139,-0.5"/>
<text text-anchor="start" x="147" y="-18.5" font-family="Helvetica,sans-Serif" font-size="10.00">linear_theory_winds</text>
<text text-anchor="middle" x="193.5" y="-7.5" font-family="Helvetica,sans-Serif" font-size="10.00">::calc_moist_stability</text>
</a>
</g>
</g>
<!-- Node1&#45;&gt;Node3 -->
<g id="edge2" class="edge"><title>Node1&#45;&gt;Node3</title>
<path fill="none" stroke="midnightblue" d="M103.043,-30.8354C111.375,-29.4072 120.106,-27.9104 128.711,-26.4353"/>
<polygon fill="midnightblue" stroke="midnightblue" points="129.458,-29.8584 138.723,-24.719 128.275,-22.959 129.458,-29.8584"/>
</g>
<!-- Node4 -->
<g id="node4" class="node"><title>Node4</title>
<g id="a_node4"><a xlink:href="classlinear__theory__winds.html#afe0e22332a64bd0a17cc533e6f1048fd" target="_top" xlink:title="linear_theory_winds\l::calc_sat_lapse_rate">
<polygon fill="white" stroke="black" points="284,-0.5 284,-30.5 394,-30.5 394,-0.5 284,-0.5"/>
<text text-anchor="start" x="292" y="-18.5" font-family="Helvetica,sans-Serif" font-size="10.00">linear_theory_winds</text>
<text text-anchor="middle" x="339" y="-7.5" font-family="Helvetica,sans-Serif" font-size="10.00">::calc_sat_lapse_rate</text>
</a>
</g>
</g>
<!-- Node3&#45;&gt;Node4 -->
<g id="edge3" class="edge"><title>Node3&#45;&gt;Node4</title>
<path fill="none" stroke="midnightblue" d="M248.342,-15.5C256.597,-15.5 265.19,-15.5 273.644,-15.5"/>
<polygon fill="midnightblue" stroke="midnightblue" points="273.856,-19.0001 283.856,-15.5 273.856,-12.0001 273.856,-19.0001"/>
</g>
</g>
</svg>
