<?xml version="1.0" encoding="UTF-8" standalone="no"?>
<!DOCTYPE svg PUBLIC "-//W3C//DTD SVG 1.1//EN"
 "http://www.w3.org/Graphics/SVG/1.1/DTD/svg11.dtd">
<!-- Generated by graphviz version 2.38.0 (20140413.2041)
 -->
<!-- Title: module_ra_simple::cloudfrac Pages: 1 -->
<!--zoomable 53 -->
<svg id="main" version="1.1" xmlns="http://www.w3.org/2000/svg" xmlns:xlink="http://www.w3.org/1999/xlink" xml:space="preserve" onload="init(evt)">
<style type="text/css"><![CDATA[
.edge:hover path { stroke: red; }
.edge:hover polygon { stroke: red; fill: red; }
]]></style>
<script type="text/javascript"><![CDATA[
var edges = document.getElementsByTagName('g');
if (edges && edges.length) {
  for (var i=0;i<edges.length;i++) {
    if (edges[i].id.substr(0,4)=='edge') {
      edges[i].setAttribute('class','edge');
    }
  }
}
]]></script>
        <defs>
                <circle id="rim" cx="0" cy="0" r="7"/>
                <circle id="rim2" cx="0" cy="0" r="3.5"/>
                <g id="zoomPlus">
                        <use xlink:href="#rim" fill="#404040">
                                <set attributeName="fill" to="#808080" begin="zoomplus.mouseover" end="zoomplus.mouseout"/>
                        </use>
                        <path d="M-4,0h8M0,-4v8" fill="none" stroke="white" stroke-width="1.5" pointer-events="none"/>
                </g>
                <g id="zoomMin">
                        <use xlink:href="#rim" fill="#404040">
                                <set attributeName="fill" to="#808080" begin="zoomminus.mouseover" end="zoomminus.mouseout"/>
                        </use>
                        <path d="M-4,0h8" fill="none" stroke="white" stroke-width="1.5" pointer-events="none"/>
                </g>
                <g id="dirArrow">
                        <path fill="none" stroke="white" stroke-width="1.5" d="M0,-3.0v7 M-2.5,-0.5L0,-3.0L2.5,-0.5"/>
                </g>
               <g id="resetDef">
                       <use xlink:href="#rim2" fill="#404040">
                               <set attributeName="fill" to="#808080" begin="reset.mouseover" end="reset.mouseout"/>
                       </use>
               </g>
        </defs>

<script type="text/javascript">
var viewWidth = 1021;
var viewHeight = 53;
var sectionId = 'dynsection-2';
</script>
<script xlink:href="svgpan.js"/>
<svg id="graph" class="graph">
<g id="viewport">
<title>module_ra_simple::cloudfrac</title>
<polygon fill="white" stroke="none" points="-4,4 -4,-48.5 1017,-48.5 1017,4 -4,4"/>
<!-- Node1 -->
<g id="node1" class="node"><title>Node1</title>
<polygon fill="#bfbfbf" stroke="black" points="0,-19.5 0,-38.5 141,-38.5 141,-19.5 0,-19.5"/>
<text text-anchor="middle" x="70.5" y="-26.5" font-family="Helvetica,sans-Serif" font-size="10.00">module_ra_simple::cloudfrac</text>
</g>
<!-- Node2 -->
<g id="node2" class="node"><title>Node2</title>
<g id="a_node2"><a xlink:href="classmodule__ra__simple.html#ad1c74605b2817f833d31e806f791e246" target="_top" xlink:title="module_ra_simple::ra\l_simple">
<polygon fill="white" stroke="black" points="177,-14 177,-44 287,-44 287,-14 177,-14"/>
<text text-anchor="start" x="185" y="-32" font-family="Helvetica,sans-Serif" font-size="10.00">module_ra_simple::ra</text>
<text text-anchor="middle" x="232" y="-21" font-family="Helvetica,sans-Serif" font-size="10.00">_simple</text>
</a>
</g>
</g>
<!-- Node1&#45;&gt;Node2 -->
<g id="edge1" class="edge"><title>Node1&#45;&gt;Node2</title>
<path fill="none" stroke="midnightblue" d="M151.534,-29C160.134,-29 168.731,-29 176.922,-29"/>
<polygon fill="midnightblue" stroke="midnightblue" points="151.459,-25.5001 141.459,-29 151.459,-32.5001 151.459,-25.5001"/>
</g>
<!-- Node3 -->
<g id="node3" class="node"><title>Node3</title>
<g id="a_node3"><a xlink:href="classradiation.html#aba1a06d27af96fe11d576458c8ccfe77" target="_top" xlink:title="radiation::rad">
<polygon fill="white" stroke="black" points="323,-19.5 323,-38.5 396,-38.5 396,-19.5 323,-19.5"/>
<text text-anchor="middle" x="359.5" y="-26.5" font-family="Helvetica,sans-Serif" font-size="10.00">radiation::rad</text>
</a>
</g>
</g>
<!-- Node2&#45;&gt;Node3 -->
<g id="edge2" class="edge"><title>Node2&#45;&gt;Node3</title>
<path fill="none" stroke="midnightblue" d="M297.549,-29C306.282,-29 314.969,-29 322.931,-29"/>
<polygon fill="midnightblue" stroke="midnightblue" points="297.316,-25.5001 287.316,-29 297.316,-32.5001 297.316,-25.5001"/>
</g>
<!-- Node4 -->
<g id="node4" class="node"><title>Node4</title>
<g id="a_node4"><a xlink:href="classtime__step.html#a2c022f11247af72e607b1493289aa974" target="_top" xlink:title=" Step forward one IO time step. ">
<polygon fill="white" stroke="black" points="861,-19.5 861,-38.5 945,-38.5 945,-19.5 861,-19.5"/>
<text text-anchor="middle" x="903" y="-26.5" font-family="Helvetica,sans-Serif" font-size="10.00">time_step::step</text>
</a>
</g>
</g>
<!-- Node3&#45;&gt;Node4 -->
<g id="edge3" class="edge"><title>Node3&#45;&gt;Node4</title>
<path fill="none" stroke="midnightblue" d="M406.175,-29C509.858,-29 761.677,-29 860.869,-29"/>
<polygon fill="midnightblue" stroke="midnightblue" points="406.029,-25.5001 396.029,-29 406.029,-32.5001 406.029,-25.5001"/>
</g>
<!-- Node6 -->
<g id="node6" class="node"><title>Node6</title>
<g id="a_node6"><a xlink:href="classmodule__cu__kf.html#afbc0670c02010c630409b1796e89a3fb" target="_top" xlink:title="module_cu_kf::kfpara">
<polygon fill="white" stroke="black" points="432,-0.5 432,-19.5 542,-19.5 542,-0.5 432,-0.5"/>
<text text-anchor="middle" x="487" y="-7.5" font-family="Helvetica,sans-Serif" font-size="10.00">module_cu_kf::kfpara</text>
</a>
</g>
</g>
<!-- Node3&#45;&gt;Node6 -->
<g id="edge5" class="edge"><title>Node3&#45;&gt;Node6</title>
<path fill="none" stroke="midnightblue" d="M406.116,-22.094C414.522,-20.8214 423.372,-19.4816 431.997,-18.1757"/>
<polygon fill="midnightblue" stroke="midnightblue" points="405.491,-18.6486 396.128,-23.6062 406.539,-25.5698 405.491,-18.6486"/>
</g>
<!-- Node5 -->
<g id="node5" class="node"><title>Node5</title>
<g id="a_node5"><a xlink:href="driver_8f90.html#ab1e5a5816a57fc6e95d9563c2bb53590" target="_top" xlink:title=" Main Program ">
<polygon fill="white" stroke="black" points="981,-19.5 981,-38.5 1013,-38.5 1013,-19.5 981,-19.5"/>
<text text-anchor="middle" x="997" y="-26.5" font-family="Helvetica,sans-Serif" font-size="10.00">icar</text>
</a>
</g>
</g>
<!-- Node4&#45;&gt;Node5 -->
<g id="edge4" class="edge"><title>Node4&#45;&gt;Node5</title>
<path fill="none" stroke="midnightblue" d="M955.253,-29C964.521,-29 973.5,-29 980.66,-29"/>
<polygon fill="midnightblue" stroke="midnightblue" points="955.156,-25.5001 945.156,-29 955.156,-32.5001 955.156,-25.5001"/>
</g>
<!-- Node7 -->
<g id="node7" class="node"><title>Node7</title>
<g id="a_node7"><a xlink:href="classmodule__cu__kf.html#a273d9ce9bce064bfc092d6940bea4e27" target="_top" xlink:title="module_cu_kf::kfcps">
<polygon fill="white" stroke="black" points="578,-0.5 578,-19.5 685,-19.5 685,-0.5 578,-0.5"/>
<text text-anchor="middle" x="631.5" y="-7.5" font-family="Helvetica,sans-Serif" font-size="10.00">module_cu_kf::kfcps</text>
</a>
</g>
</g>
<!-- Node6&#45;&gt;Node7 -->
<g id="edge6" class="edge"><title>Node6&#45;&gt;Node7</title>
<path fill="none" stroke="midnightblue" d="M552.503,-10C560.962,-10 569.55,-10 577.783,-10"/>
<polygon fill="midnightblue" stroke="midnightblue" points="552.28,-6.5001 542.28,-10 552.28,-13.5001 552.28,-6.5001"/>
</g>
<!-- Node8 -->
<g id="node8" class="node"><title>Node8</title>
<g id="a_node8"><a xlink:href="classconvection.html#a06b811540eb747b3734e7fb35de41782" target="_top" xlink:title="convection::convect">
<polygon fill="white" stroke="black" points="721,-0.5 721,-19.5 825,-19.5 825,-0.5 721,-0.5"/>
<text text-anchor="middle" x="773" y="-7.5" font-family="Helvetica,sans-Serif" font-size="10.00">convection::convect</text>
</a>
</g>
</g>
<!-- Node7&#45;&gt;Node8 -->
<g id="edge7" class="edge"><title>Node7&#45;&gt;Node8</title>
<path fill="none" stroke="midnightblue" d="M695.409,-10C703.828,-10 712.382,-10 720.572,-10"/>
<polygon fill="midnightblue" stroke="midnightblue" points="695.239,-6.5001 685.239,-10 695.239,-13.5001 695.239,-6.5001"/>
</g>
<!-- Node8&#45;&gt;Node4 -->
<g id="edge8" class="edge"><title>Node8&#45;&gt;Node4</title>
<path fill="none" stroke="midnightblue" d="M835.406,-19.115C844.051,-20.3982 852.759,-21.6907 860.897,-22.8988"/>
<polygon fill="midnightblue" stroke="midnightblue" points="835.731,-15.6249 825.325,-17.6185 834.703,-22.549 835.731,-15.6249"/>
</g>
</g>
</svg>
        <g id="navigator" transform="translate(0 0)" fill="#404254">
                <rect fill="#f2f5e9" fill-opacity="0.5" stroke="#606060" stroke-width=".5" x="0" y="0" width="60" height="60"/>
                <use id="zoomplus" xlink:href="#zoomPlus" x="17" y="9" onmousedown="handleZoom(evt,'in')"/>
                <use id="zoomminus" xlink:href="#zoomMin" x="42" y="9" onmousedown="handleZoom(evt,'out')"/>
                <use id="reset" xlink:href="#resetDef" x="30" y="36" onmousedown="handleReset()"/>
                <g id="arrowUp" xlink:href="#dirArrow" transform="translate(30 24)" onmousedown="handlePan(0,-1)">
                  <use xlink:href="#rim" fill="#404040">
                        <set attributeName="fill" to="#808080" begin="arrowUp.mouseover" end="arrowUp.mouseout"/>
                  </use>
                  <path fill="none" stroke="white" stroke-width="1.5" d="M0,-3.0v7 M-2.5,-0.5L0,-3.0L2.5,-0.5"/>
                </g>
                <g id="arrowRight" xlink:href="#dirArrow" transform="rotate(90) translate(36 -43)" onmousedown="handlePan(1,0)">
                  <use xlink:href="#rim" fill="#404040">
                        <set attributeName="fill" to="#808080" begin="arrowRight.mouseover" end="arrowRight.mouseout"/>
                  </use>
                  <path fill="none" stroke="white" stroke-width="1.5" d="M0,-3.0v7 M-2.5,-0.5L0,-3.0L2.5,-0.5"/>
                </g>
                <g id="arrowDown" xlink:href="#dirArrow" transform="rotate(180) translate(-30 -48)" onmousedown="handlePan(0,1)">
                  <use xlink:href="#rim" fill="#404040">
                        <set attributeName="fill" to="#808080" begin="arrowDown.mouseover" end="arrowDown.mouseout"/>
                  </use>
                  <path fill="none" stroke="white" stroke-width="1.5" d="M0,-3.0v7 M-2.5,-0.5L0,-3.0L2.5,-0.5"/>
                </g>
                <g id="arrowLeft" xlink:href="#dirArrow" transform="rotate(270) translate(-36 17)" onmousedown="handlePan(-1,0)">
                  <use xlink:href="#rim" fill="#404040">
                        <set attributeName="fill" to="#808080" begin="arrowLeft.mouseover" end="arrowLeft.mouseout"/>
                  </use>
                  <path fill="none" stroke="white" stroke-width="1.5" d="M0,-3.0v7 M-2.5,-0.5L0,-3.0L2.5,-0.5"/>
                </g>
        </g>
        <svg viewBox="0 0 15 15" width="100%" height="30px" preserveAspectRatio="xMaxYMin meet">
         <g id="arrow_out" transform="scale(0.3 0.3)">
          <a xlink:href="classmodule__ra__simple_af96b45b6aa6ee7f751648e8edb2eff97_icgraph_org.svg" target="_base">
           <rect id="button" ry="5" rx="5" y="6" x="6" height="38" width="38"
                fill="#f2f5e9" fill-opacity="0.5" stroke="#606060" stroke-width="1.0"/>
           <path id="arrow"
             d="M 11.500037,31.436501 C 11.940474,20.09759 22.043105,11.32322 32.158766,21.979434 L 37.068811,17.246167 C 37.068811,17.246167 37.088388,32 37.088388,32 L 22.160133,31.978069 C 22.160133,31.978069 26.997745,27.140456 26.997745,27.140456 C 18.528582,18.264221 13.291696,25.230495 11.500037,31.436501 z"
             style="fill:#404040;"/>
          </a>
         </g>
        </svg>
</svg>
