<?xml version="1.0" encoding="UTF-8" standalone="no"?>
<!DOCTYPE svg PUBLIC "-//W3C//DTD SVG 1.1//EN"
 "http://www.w3.org/Graphics/SVG/1.1/DTD/svg11.dtd">
<!-- Generated by graphviz version 2.38.0 (20140413.2041)
 -->
<!-- Title: advection::advect Pages: 1 -->
<svg width="690pt" height="127pt"
 viewBox="0.00 0.00 690.00 126.50" xmlns="http://www.w3.org/2000/svg" xmlns:xlink="http://www.w3.org/1999/xlink">
<g id="graph0" class="graph" transform="scale(1 1) rotate(0) translate(4 122.5)">
<title>advection::advect</title>
<polygon fill="white" stroke="none" points="-4,4 -4,-122.5 686,-122.5 686,4 -4,4"/>
<!-- Node1 -->
<g id="node1" class="node"><title>Node1</title>
<polygon fill="#bfbfbf" stroke="black" points="0,-44.5 0,-63.5 94,-63.5 94,-44.5 0,-44.5"/>
<text text-anchor="middle" x="47" y="-51.5" font-family="Helvetica,sans-Serif" font-size="10.00">advection::advect</text>
</g>
<!-- Node2 -->
<g id="node2" class="node"><title>Node2</title>
<g id="a_node2"><a xlink:href="classadv__upwind.html#a3a006d2b2d9ebc4dbd83152ff5a0f35b" target="_top" xlink:title="adv_upwind::upwind">
<polygon fill="white" stroke="black" points="131.5,-63.5 131.5,-82.5 236.5,-82.5 236.5,-63.5 131.5,-63.5"/>
<text text-anchor="middle" x="184" y="-70.5" font-family="Helvetica,sans-Serif" font-size="10.00">adv_upwind::upwind</text>
</a>
</g>
</g>
<!-- Node1&#45;&gt;Node2 -->
<g id="edge1" class="edge"><title>Node1&#45;&gt;Node2</title>
<path fill="none" stroke="midnightblue" d="M94.0818,-60.4856C102.739,-61.7041 111.921,-62.9963 120.971,-64.2701"/>
<polygon fill="midnightblue" stroke="midnightblue" points="120.708,-67.7674 131.098,-65.6953 121.684,-60.8357 120.708,-67.7674"/>
</g>
<!-- Node8 -->
<g id="node8" class="node"><title>Node8</title>
<g id="a_node8"><a xlink:href="classadv__mpdata.html#ab7491af9ff38f8d903ae2d4ddabc410d" target="_top" xlink:title="adv_mpdata::mpdata">
<polygon fill="white" stroke="black" points="130,-25.5 130,-44.5 238,-44.5 238,-25.5 130,-25.5"/>
<text text-anchor="middle" x="184" y="-32.5" font-family="Helvetica,sans-Serif" font-size="10.00">adv_mpdata::mpdata</text>
</a>
</g>
</g>
<!-- Node1&#45;&gt;Node8 -->
<g id="edge7" class="edge"><title>Node1&#45;&gt;Node8</title>
<path fill="none" stroke="midnightblue" d="M94.0818,-47.5144C102.317,-46.3554 111.026,-45.1296 119.646,-43.9165"/>
<polygon fill="midnightblue" stroke="midnightblue" points="120.274,-47.3627 129.688,-42.5031 119.298,-40.431 120.274,-47.3627"/>
</g>
<!-- Node3 -->
<g id="node3" class="node"><title>Node3</title>
<g id="a_node3"><a xlink:href="classadv__mpdata.html#a3f8f14aa56b629a78a5935b1a130e4c2" target="_top" xlink:title="adv_mpdata::advect3d">
<polygon fill="white" stroke="black" points="274,-44.5 274,-63.5 390,-63.5 390,-44.5 274,-44.5"/>
<text text-anchor="middle" x="332" y="-51.5" font-family="Helvetica,sans-Serif" font-size="10.00">adv_mpdata::advect3d</text>
</a>
</g>
</g>
<!-- Node2&#45;&gt;Node3 -->
<g id="edge2" class="edge"><title>Node2&#45;&gt;Node3</title>
<path fill="none" stroke="midnightblue" d="M236.885,-66.2478C245.58,-65.1164 254.711,-63.928 263.726,-62.7549"/>
<polygon fill="midnightblue" stroke="midnightblue" points="264.359,-66.202 273.824,-61.4407 263.456,-59.2606 264.359,-66.202"/>
</g>
<!-- Node4 -->
<g id="node4" class="node"><title>Node4</title>
<g id="a_node4"><a xlink:href="classadv__mpdata.html#aaed7970de15d6b6a51067bc3351f48cb" target="_top" xlink:title="adv_mpdata::upwind\l_advection">
<polygon fill="white" stroke="black" points="434,-88 434,-118 541,-118 541,-88 434,-88"/>
<text text-anchor="start" x="442" y="-106" font-family="Helvetica,sans-Serif" font-size="10.00">adv_mpdata::upwind</text>
<text text-anchor="middle" x="487.5" y="-95" font-family="Helvetica,sans-Serif" font-size="10.00">_advection</text>
</a>
</g>
</g>
<!-- Node3&#45;&gt;Node4 -->
<g id="edge3" class="edge"><title>Node3&#45;&gt;Node4</title>
<path fill="none" stroke="midnightblue" d="M362.961,-63.564C381.97,-69.6321 407.172,-77.677 429.853,-84.9174"/>
<polygon fill="midnightblue" stroke="midnightblue" points="428.804,-88.2562 439.394,-87.963 430.932,-81.5877 428.804,-88.2562"/>
</g>
<!-- Node5 -->
<g id="node5" class="node"><title>Node5</title>
<g id="a_node5"><a xlink:href="classadv__mpdata.html#a85e4c645ede02cc8f44ef1a7e01c3049" target="_top" xlink:title="adv_mpdata::mpdata\l_fluxes">
<polygon fill="white" stroke="black" points="433.5,-39 433.5,-69 541.5,-69 541.5,-39 433.5,-39"/>
<text text-anchor="start" x="441.5" y="-57" font-family="Helvetica,sans-Serif" font-size="10.00">adv_mpdata::mpdata</text>
<text text-anchor="middle" x="487.5" y="-46" font-family="Helvetica,sans-Serif" font-size="10.00">_fluxes</text>
</a>
</g>
</g>
<!-- Node3&#45;&gt;Node5 -->
<g id="edge4" class="edge"><title>Node3&#45;&gt;Node5</title>
<path fill="none" stroke="midnightblue" d="M390.158,-54C400.88,-54 412.15,-54 423.05,-54"/>
<polygon fill="midnightblue" stroke="midnightblue" points="423.358,-57.5001 433.358,-54 423.358,-50.5001 423.358,-57.5001"/>
</g>
<!-- Node6 -->
<g id="node6" class="node"><title>Node6</title>
<g id="a_node6"><a xlink:href="classadv__mpdata.html#a7ffe4b8c6d4a1bb51d0f4693043f3147" target="_top" xlink:title="adv_mpdata::flux_limiter">
<polygon fill="white" stroke="black" points="426,-0.5 426,-19.5 549,-19.5 549,-0.5 426,-0.5"/>
<text text-anchor="middle" x="487.5" y="-7.5" font-family="Helvetica,sans-Serif" font-size="10.00">adv_mpdata::flux_limiter</text>
</a>
</g>
</g>
<!-- Node3&#45;&gt;Node6 -->
<g id="edge5" class="edge"><title>Node3&#45;&gt;Node6</title>
<path fill="none" stroke="midnightblue" d="M366.307,-44.4527C388.936,-37.9661 419.079,-29.326 443.516,-22.3211"/>
<polygon fill="midnightblue" stroke="midnightblue" points="444.609,-25.6488 453.258,-19.5287 442.68,-18.9198 444.609,-25.6488"/>
</g>
<!-- Node7 -->
<g id="node7" class="node"><title>Node7</title>
<g id="a_node7"><a xlink:href="classadv__mpdata.html#a42101c164bf5bf768e556d84234ae3a6" target="_top" xlink:title="adv_mpdata::flux1">
<polygon fill="white" stroke="black" points="585,-0.5 585,-19.5 682,-19.5 682,-0.5 585,-0.5"/>
<text text-anchor="middle" x="633.5" y="-7.5" font-family="Helvetica,sans-Serif" font-size="10.00">adv_mpdata::flux1</text>
</a>
</g>
</g>
<!-- Node6&#45;&gt;Node7 -->
<g id="edge6" class="edge"><title>Node6&#45;&gt;Node7</title>
<path fill="none" stroke="midnightblue" d="M549.152,-10C557.567,-10 566.195,-10 574.559,-10"/>
<polygon fill="midnightblue" stroke="midnightblue" points="574.599,-13.5001 584.599,-10 574.599,-6.5001 574.599,-13.5001"/>
</g>
<!-- Node8&#45;&gt;Node3 -->
<g id="edge8" class="edge"><title>Node8&#45;&gt;Node3</title>
<path fill="none" stroke="midnightblue" d="M238.122,-41.9132C246.444,-42.9961 255.138,-44.1276 263.727,-45.2452"/>
<polygon fill="midnightblue" stroke="midnightblue" points="263.363,-48.7273 273.731,-46.5471 264.266,-41.7858 263.363,-48.7273"/>
</g>
</g>
</svg>
