<?xml version="1.0" encoding="UTF-8" standalone="no"?>
<!DOCTYPE svg PUBLIC "-//W3C//DTD SVG 1.1//EN"
 "http://www.w3.org/Graphics/SVG/1.1/DTD/svg11.dtd">
<!-- Generated by graphviz version 2.32.0 (20130809.1645)
 -->
<!-- Title: module_lsm_basic::simple_land_surface_fluxes Pages: 1 -->
<svg width="614pt" height="38pt"
 viewBox="0.00 0.00 614.00 38.00" xmlns="http://www.w3.org/2000/svg" xmlns:xlink="http://www.w3.org/1999/xlink">
<g id="graph0" class="graph" transform="scale(1 1) rotate(0) translate(4 34)">
<title>module_lsm_basic::simple_land_surface_fluxes</title>
<polygon fill="white" stroke="white" points="-4,5 -4,-34 611,-34 611,5 -4,5"/>
<!-- Node1 -->
<g id="node1" class="node"><title>Node1</title>
<polygon fill="#bfbfbf" stroke="black" points="0,-0 0,-30 132,-30 132,-0 0,-0"/>
<text text-anchor="start" x="8" y="-18" font-family="Helvetica,sans-Serif" font-size="10.00">module_lsm_basic::simple</text>
<text text-anchor="middle" x="66" y="-7" font-family="Helvetica,sans-Serif" font-size="10.00">_land_surface_fluxes</text>
</g>
<!-- Node2 -->
<g id="node2" class="node"><title>Node2</title>
<g id="a_node2"><a xlink:href="classmodule__lsm__basic.html#a1acb1c23aafdeaef72a00a123bed7ed2" target="_top" xlink:title="module_lsm_basic::lsm\l_basic">
<polygon fill="white" stroke="black" points="168.5,-0 168.5,-30 287.5,-30 287.5,-0 168.5,-0"/>
<text text-anchor="start" x="176.5" y="-18" font-family="Helvetica,sans-Serif" font-size="10.00">module_lsm_basic::lsm</text>
<text text-anchor="middle" x="228" y="-7" font-family="Helvetica,sans-Serif" font-size="10.00">_basic</text>
</a>
</g>
</g>
<!-- Node1&#45;&gt;Node2 -->
<g id="edge1" class="edge"><title>Node1&#45;&gt;Node2</title>
<path fill="none" stroke="midnightblue" d="M142.31,-15C151.078,-15 159.92,-15 168.415,-15"/>
<polygon fill="midnightblue" stroke="midnightblue" points="142.078,-11.5001 132.078,-15 142.078,-18.5001 142.078,-11.5001"/>
</g>
<!-- Node3 -->
<g id="node3" class="node"><title>Node3</title>
<g id="a_node3"><a xlink:href="classland__surface.html#a5eda887fb43d0e56a673bbec669be5ad" target="_top" xlink:title="land_surface::lsm">
<polygon fill="white" stroke="black" points="324,-5.5 324,-24.5 418,-24.5 418,-5.5 324,-5.5"/>
<text text-anchor="middle" x="371" y="-12.5" font-family="Helvetica,sans-Serif" font-size="10.00">land_surface::lsm</text>
</a>
</g>
</g>
<!-- Node2&#45;&gt;Node3 -->
<g id="edge2" class="edge"><title>Node2&#45;&gt;Node3</title>
<path fill="none" stroke="midnightblue" d="M297.581,-15C306.488,-15 315.436,-15 323.856,-15"/>
<polygon fill="midnightblue" stroke="midnightblue" points="297.572,-11.5001 287.572,-15 297.572,-18.5001 297.572,-11.5001"/>
</g>
<!-- Node4 -->
<g id="node4" class="node"><title>Node4</title>
<g id="a_node4"><a xlink:href="classtime__step.html#a2c022f11247af72e607b1493289aa974" target="_top" xlink:title=" Step forward one IO time step. ">
<polygon fill="white" stroke="black" points="454,-5.5 454,-24.5 538,-24.5 538,-5.5 454,-5.5"/>
<text text-anchor="middle" x="496" y="-12.5" font-family="Helvetica,sans-Serif" font-size="10.00">time_step::step</text>
</a>
</g>
</g>
<!-- Node3&#45;&gt;Node4 -->
<g id="edge3" class="edge"><title>Node3&#45;&gt;Node4</title>
<path fill="none" stroke="midnightblue" d="M428.191,-15C436.834,-15 445.618,-15 453.853,-15"/>
<polygon fill="midnightblue" stroke="midnightblue" points="428.151,-11.5001 418.151,-15 428.151,-18.5001 428.151,-11.5001"/>
</g>
<!-- Node5 -->
<g id="node5" class="node"><title>Node5</title>
<g id="a_node5"><a xlink:href="driver_8f90.html#ab1e5a5816a57fc6e95d9563c2bb53590" target="_top" xlink:title=" Main Program ">
<polygon fill="white" stroke="black" points="574,-5.5 574,-24.5 606,-24.5 606,-5.5 574,-5.5"/>
<text text-anchor="middle" x="590" y="-12.5" font-family="Helvetica,sans-Serif" font-size="10.00">icar</text>
</a>
</g>
</g>
<!-- Node4&#45;&gt;Node5 -->
<g id="edge4" class="edge"><title>Node4&#45;&gt;Node5</title>
<path fill="none" stroke="midnightblue" d="M548.253,-15C557.521,-15 566.5,-15 573.66,-15"/>
<polygon fill="midnightblue" stroke="midnightblue" points="548.156,-11.5001 538.156,-15 548.156,-18.5001 548.156,-11.5001"/>
</g>
</g>
</svg>
