<?xml version="1.0" encoding="UTF-8" standalone="no"?>
<!DOCTYPE svg PUBLIC "-//W3C//DTD SVG 1.1//EN"
 "http://www.w3.org/Graphics/SVG/1.1/DTD/svg11.dtd">
<!-- Generated by graphviz version 2.32.0 (20130809.1645)
 -->
<!-- Title: init::init_bc Pages: 1 -->
<svg width="628pt" height="791pt"
 viewBox="0.00 0.00 628.00 791.00" xmlns="http://www.w3.org/2000/svg" xmlns:xlink="http://www.w3.org/1999/xlink">
<g id="graph0" class="graph" transform="scale(1 1) rotate(0) translate(4 787)">
<title>init::init_bc</title>
<polygon fill="white" stroke="white" points="-4,5 -4,-787 625,-787 625,5 -4,5"/>
<!-- Node1 -->
<g id="node1" class="node"><title>Node1</title>
<polygon fill="#bfbfbf" stroke="black" points="0,-212.5 0,-231.5 64,-231.5 64,-212.5 0,-212.5"/>
<text text-anchor="middle" x="32" y="-219.5" font-family="Helvetica,sans-Serif" font-size="10.00">init::init_bc</text>
</g>
<!-- Node2 -->
<g id="node2" class="node"><title>Node2</title>
<g id="a_node2"><a xlink:href="classinit.html#a7c8bdf3006c76dd9d3464a56db072726" target="_top" xlink:title="init::init_bc_data">
<polygon fill="white" stroke="black" points="109,-478.5 109,-497.5 197,-497.5 197,-478.5 109,-478.5"/>
<text text-anchor="middle" x="153" y="-485.5" font-family="Helvetica,sans-Serif" font-size="10.00">init::init_bc_data</text>
</a>
</g>
</g>
<!-- Node1&#45;&gt;Node2 -->
<g id="edge1" class="edge"><title>Node1&#45;&gt;Node2</title>
<path fill="none" stroke="midnightblue" d="M37.3764,-231.783C54.9092,-270.974 120.25,-417.03 143.621,-469.271"/>
<polygon fill="midnightblue" stroke="midnightblue" points="140.431,-470.71 147.709,-478.409 146.82,-467.852 140.431,-470.71"/>
</g>
<!-- Node7 -->
<g id="node7" class="node"><title>Node7</title>
<g id="a_node7"><a xlink:href="classinit.html#a2c0d47bd2656d1121f0522d0f77a0e07" target="_top" xlink:title="init::init_domain">
<polygon fill="white" stroke="black" points="110.5,-288.5 110.5,-307.5 195.5,-307.5 195.5,-288.5 110.5,-288.5"/>
<text text-anchor="middle" x="153" y="-295.5" font-family="Helvetica,sans-Serif" font-size="10.00">init::init_domain</text>
</a>
</g>
</g>
<!-- Node1&#45;&gt;Node7 -->
<g id="edge6" class="edge"><title>Node1&#45;&gt;Node7</title>
<path fill="none" stroke="midnightblue" d="M48.0714,-231.625C68.3686,-244.588 104.691,-267.786 128.569,-283.035"/>
<polygon fill="midnightblue" stroke="midnightblue" points="126.739,-286.02 137.051,-288.453 130.507,-280.12 126.739,-286.02"/>
</g>
<!-- Node9 -->
<g id="node9" class="node"><title>Node9</title>
<g id="a_node9"><a xlink:href="classinit.html#a2e2a9637c6d081ac63404006b8a56c66" target="_top" xlink:title="init::copy_z">
<polygon fill="white" stroke="black" points="272.5,-174.5 272.5,-193.5 339.5,-193.5 339.5,-174.5 272.5,-174.5"/>
<text text-anchor="middle" x="306" y="-181.5" font-family="Helvetica,sans-Serif" font-size="10.00">init::copy_z</text>
</a>
</g>
</g>
<!-- Node1&#45;&gt;Node9 -->
<g id="edge33" class="edge"><title>Node1&#45;&gt;Node9</title>
<path fill="none" stroke="midnightblue" d="M64.0356,-219.348C98.7344,-216.207 156.551,-210.448 206,-203 224.517,-200.211 244.85,-196.434 262.247,-192.982"/>
<polygon fill="midnightblue" stroke="midnightblue" points="263,-196.401 272.114,-190.998 261.62,-189.538 263,-196.401"/>
</g>
<!-- Node15 -->
<g id="node15" class="node"><title>Node15</title>
<g id="a_node15"><a xlink:href="classgeo.html#aa64883699f3b5a3f3b75da0b101a8a57" target="_top" xlink:title="geo::geo_lut">
<polygon fill="white" stroke="black" points="271,-706.5 271,-725.5 341,-725.5 341,-706.5 271,-706.5"/>
<text text-anchor="middle" x="306" y="-713.5" font-family="Helvetica,sans-Serif" font-size="10.00">geo::geo_lut</text>
</a>
</g>
</g>
<!-- Node1&#45;&gt;Node15 -->
<g id="edge19" class="edge"><title>Node1&#45;&gt;Node15</title>
<path fill="none" stroke="midnightblue" d="M33.0656,-231.541C33.6617,-289.813 39.6629,-597.441 100,-664 140.58,-708.764 213.693,-717.466 260.749,-717.971"/>
<polygon fill="midnightblue" stroke="midnightblue" points="260.957,-721.47 270.952,-717.956 260.948,-714.47 260.957,-721.47"/>
</g>
<!-- Node21 -->
<g id="node21" class="node"><title>Node21</title>
<g id="a_node21"><a xlink:href="classinit.html#acbdc0285617ecd4acfdc2e09c615de40" target="_top" xlink:title="init::move_lut">
<polygon fill="white" stroke="black" points="115.5,-174.5 115.5,-193.5 190.5,-193.5 190.5,-174.5 115.5,-174.5"/>
<text text-anchor="middle" x="153" y="-181.5" font-family="Helvetica,sans-Serif" font-size="10.00">init::move_lut</text>
</a>
</g>
</g>
<!-- Node1&#45;&gt;Node21 -->
<g id="edge25" class="edge"><title>Node1&#45;&gt;Node21</title>
<path fill="none" stroke="midnightblue" d="M63.0287,-212.411C77.9677,-207.641 96.2227,-201.811 112.301,-196.677"/>
<polygon fill="midnightblue" stroke="midnightblue" points="113.519,-199.962 121.981,-193.586 111.39,-193.294 113.519,-199.962"/>
</g>
<!-- Node22 -->
<g id="node22" class="node"><title>Node22</title>
<g id="a_node22"><a xlink:href="classinit.html#ae1a1368cc733a75325f3527010f5119d" target="_top" xlink:title="init::destroy_lut">
<polygon fill="white" stroke="black" points="264.5,-136.5 264.5,-155.5 347.5,-155.5 347.5,-136.5 264.5,-136.5"/>
<text text-anchor="middle" x="306" y="-143.5" font-family="Helvetica,sans-Serif" font-size="10.00">init::destroy_lut</text>
</a>
</g>
</g>
<!-- Node1&#45;&gt;Node22 -->
<g id="edge37" class="edge"><title>Node1&#45;&gt;Node22</title>
<path fill="none" stroke="midnightblue" d="M40.8924,-212.289C52.3421,-198.988 74.9479,-175.553 100,-165 149.45,-144.17 211.399,-141.236 254.183,-142.373"/>
<polygon fill="midnightblue" stroke="midnightblue" points="254.241,-145.877 264.358,-142.729 254.487,-138.881 254.241,-145.877"/>
</g>
<!-- Node23 -->
<g id="node23" class="node"><title>Node23</title>
<g id="a_node23"><a xlink:href="classinit.html#a8b5935b5b45a47c58fdd67157c16764b" target="_top" xlink:title="init::init_ext_winds">
<polygon fill="white" stroke="black" points="104,-597.5 104,-616.5 202,-616.5 202,-597.5 104,-597.5"/>
<text text-anchor="middle" x="153" y="-604.5" font-family="Helvetica,sans-Serif" font-size="10.00">init::init_ext_winds</text>
</a>
</g>
</g>
<!-- Node1&#45;&gt;Node23 -->
<g id="edge27" class="edge"><title>Node1&#45;&gt;Node23</title>
<path fill="none" stroke="midnightblue" d="M34.3681,-231.599C39.7771,-268.261 61.2869,-402.635 100,-507 111.062,-536.82 129.039,-569.086 140.691,-588.67"/>
<polygon fill="midnightblue" stroke="midnightblue" points="137.823,-590.691 145.992,-597.438 143.813,-587.069 137.823,-590.691"/>
</g>
<!-- Node24 -->
<g id="node24" class="node"><title>Node24</title>
<g id="a_node24"><a xlink:href="classgeo.html#ad6df2866b0f12fabc9d1b393be1b06d7" target="_top" xlink:title="geo::geo_interp2d">
<polygon fill="white" stroke="black" points="259,-668.5 259,-687.5 353,-687.5 353,-668.5 259,-668.5"/>
<text text-anchor="middle" x="306" y="-675.5" font-family="Helvetica,sans-Serif" font-size="10.00">geo::geo_interp2d</text>
</a>
</g>
</g>
<!-- Node1&#45;&gt;Node24 -->
<g id="edge34" class="edge"><title>Node1&#45;&gt;Node24</title>
<path fill="none" stroke="midnightblue" d="M33.2206,-231.793C34.6787,-287.669 44.6666,-565.807 100,-626 137.425,-666.712 201.769,-677.519 248.404,-679.517"/>
<polygon fill="midnightblue" stroke="midnightblue" points="248.56,-683.023 258.662,-679.828 248.773,-676.026 248.56,-683.023"/>
</g>
<!-- Node26 -->
<g id="node26" class="node"><title>Node26</title>
<g id="a_node26"><a xlink:href="classgeo.html#acb54dc322e31524d40cc746c37b28898" target="_top" xlink:title="geo::geo_interp">
<polygon fill="white" stroke="black" points="111.5,-98.5 111.5,-117.5 194.5,-117.5 194.5,-98.5 111.5,-98.5"/>
<text text-anchor="middle" x="153" y="-105.5" font-family="Helvetica,sans-Serif" font-size="10.00">geo::geo_interp</text>
</a>
</g>
</g>
<!-- Node1&#45;&gt;Node26 -->
<g id="edge35" class="edge"><title>Node1&#45;&gt;Node26</title>
<path fill="none" stroke="midnightblue" d="M38.0232,-212.356C47.791,-194.407 70.9571,-155.564 100,-132 104.65,-128.227 109.989,-124.902 115.437,-122.021"/>
<polygon fill="midnightblue" stroke="midnightblue" points="117.121,-125.095 124.604,-117.594 114.077,-118.792 117.121,-125.095"/>
</g>
<!-- Node28 -->
<g id="node28" class="node"><title>Node28</title>
<g id="a_node28"><a xlink:href="classvertical__interpolation.html#af3f0f4fbb7bcbfed1f562450a7865cc9" target="_top" xlink:title="vertical_interpolation\l::vlut">
<polygon fill="white" stroke="black" points="100,-49 100,-79 206,-79 206,-49 100,-49"/>
<text text-anchor="start" x="108" y="-67" font-family="Helvetica,sans-Serif" font-size="10.00">vertical_interpolation</text>
<text text-anchor="middle" x="153" y="-56" font-family="Helvetica,sans-Serif" font-size="10.00">::vlut</text>
</a>
</g>
</g>
<!-- Node1&#45;&gt;Node28 -->
<g id="edge38" class="edge"><title>Node1&#45;&gt;Node28</title>
<path fill="none" stroke="midnightblue" d="M35.5113,-212.34C42.1636,-188.467 62.3612,-125.949 100,-89 101.448,-87.579 102.991,-86.2264 104.607,-84.9403"/>
<polygon fill="midnightblue" stroke="midnightblue" points="106.915,-87.6016 113.175,-79.0543 102.951,-81.8319 106.915,-87.6016"/>
</g>
<!-- Node31 -->
<g id="node31" class="node"><title>Node31</title>
<g id="a_node31"><a xlink:href="classinit.html#abd3d01e0027c3704064c778c8f6609d8" target="_top" xlink:title="init::swap_z">
<polygon fill="white" stroke="black" points="118.5,-10.5 118.5,-29.5 187.5,-29.5 187.5,-10.5 118.5,-10.5"/>
<text text-anchor="middle" x="153" y="-17.5" font-family="Helvetica,sans-Serif" font-size="10.00">init::swap_z</text>
</a>
</g>
</g>
<!-- Node1&#45;&gt;Node31 -->
<g id="edge41" class="edge"><title>Node1&#45;&gt;Node31</title>
<path fill="none" stroke="midnightblue" d="M33.7611,-212.134C36.6119,-181.929 49.2653,-89.7018 100,-39 102.709,-36.2929 105.834,-33.9683 109.18,-31.9726"/>
<polygon fill="midnightblue" stroke="midnightblue" points="110.997,-34.9796 118.421,-27.4214 107.904,-28.6999 110.997,-34.9796"/>
</g>
<!-- Node3 -->
<g id="node3" class="node"><title>Node3</title>
<g id="a_node3"><a xlink:href="interfaceio__routines_1_1io__read.html#a35290f3b01bd8f36bae0173749f6b870" target="_top" xlink:title=" Same as io_read3d but for 2&#45;dimensional data ">
<polygon fill="white" stroke="black" points="410.5,-479 410.5,-509 511.5,-509 511.5,-479 410.5,-479"/>
<text text-anchor="start" x="418.5" y="-497" font-family="Helvetica,sans-Serif" font-size="10.00">io_routines::io_read</text>
<text text-anchor="middle" x="461" y="-486" font-family="Helvetica,sans-Serif" font-size="10.00">::io_read2d</text>
</a>
</g>
</g>
<!-- Node2&#45;&gt;Node3 -->
<g id="edge2" class="edge"><title>Node2&#45;&gt;Node3</title>
<path fill="none" stroke="midnightblue" d="M189.684,-497.509C205.574,-501.273 224.593,-505.142 242,-507 298.568,-513.037 313.257,-511.077 370,-507 379.802,-506.296 390.159,-505.165 400.221,-503.858"/>
<polygon fill="midnightblue" stroke="midnightblue" points="400.719,-507.322 410.153,-502.5 399.771,-500.387 400.719,-507.322"/>
</g>
<!-- Node4 -->
<g id="node4" class="node"><title>Node4</title>
<g id="a_node4"><a xlink:href="classinit.html#a12de2a1a2b6818e778283cc79e883f88" target="_top" xlink:title="init::convert_longitudes">
<polygon fill="white" stroke="black" points="247.5,-554.5 247.5,-573.5 364.5,-573.5 364.5,-554.5 247.5,-554.5"/>
<text text-anchor="middle" x="306" y="-561.5" font-family="Helvetica,sans-Serif" font-size="10.00">init::convert_longitudes</text>
</a>
</g>
</g>
<!-- Node2&#45;&gt;Node4 -->
<g id="edge3" class="edge"><title>Node2&#45;&gt;Node4</title>
<path fill="none" stroke="midnightblue" d="M168.525,-497.623C185.635,-508.712 215.14,-527.063 242,-540 250.121,-543.911 259.058,-547.642 267.584,-550.945"/>
<polygon fill="midnightblue" stroke="midnightblue" points="266.38,-554.232 276.972,-554.482 268.847,-547.681 266.38,-554.232"/>
</g>
<!-- Node5 -->
<g id="node5" class="node"><title>Node5</title>
<g id="a_node5"><a xlink:href="interfaceio__routines_1_1io__read.html#a9b6dacfccbb234dd949e7136e5b67f8c" target="_top" xlink:title=" Same as io_read6d but for 3&#45;dimensional data ">
<polygon fill="white" stroke="black" points="410.5,-353 410.5,-383 511.5,-383 511.5,-353 410.5,-353"/>
<text text-anchor="start" x="418.5" y="-371" font-family="Helvetica,sans-Serif" font-size="10.00">io_routines::io_read</text>
<text text-anchor="middle" x="461" y="-360" font-family="Helvetica,sans-Serif" font-size="10.00">::io_read3d</text>
</a>
</g>
</g>
<!-- Node2&#45;&gt;Node5 -->
<g id="edge4" class="edge"><title>Node2&#45;&gt;Node5</title>
<path fill="none" stroke="midnightblue" d="M159.572,-478.377C171.677,-458.482 202.491,-413.015 242,-393 291.287,-368.032 354.697,-363.33 400.409,-363.946"/>
<polygon fill="midnightblue" stroke="midnightblue" points="400.387,-367.446 410.463,-364.17 400.544,-360.448 400.387,-367.446"/>
</g>
<!-- Node6 -->
<g id="node6" class="node"><title>Node6</title>
<g id="a_node6"><a xlink:href="classinit.html#a162bb77321c63c58104c2df3f1554332" target="_top" xlink:title="init::boundary_allocate">
<polygon fill="white" stroke="black" points="249,-478.5 249,-497.5 363,-497.5 363,-478.5 249,-478.5"/>
<text text-anchor="middle" x="306" y="-485.5" font-family="Helvetica,sans-Serif" font-size="10.00">init::boundary_allocate</text>
</a>
</g>
</g>
<!-- Node2&#45;&gt;Node6 -->
<g id="edge5" class="edge"><title>Node2&#45;&gt;Node6</title>
<path fill="none" stroke="midnightblue" d="M197.271,-488C210.174,-488 224.624,-488 238.646,-488"/>
<polygon fill="midnightblue" stroke="midnightblue" points="238.753,-491.5 248.753,-488 238.753,-484.5 238.753,-491.5"/>
</g>
<!-- Node7&#45;&gt;Node3 -->
<g id="edge7" class="edge"><title>Node7&#45;&gt;Node3</title>
<path fill="none" stroke="midnightblue" d="M157.641,-307.73C167.347,-332.321 196.265,-397.387 242,-431 245.315,-433.436 337.143,-459.522 400.547,-477.354"/>
<polygon fill="midnightblue" stroke="midnightblue" points="399.887,-480.804 410.461,-480.14 401.781,-474.065 399.887,-480.804"/>
</g>
<!-- Node7&#45;&gt;Node4 -->
<g id="edge8" class="edge"><title>Node7&#45;&gt;Node4</title>
<path fill="none" stroke="midnightblue" d="M156.508,-307.92C164.782,-339.337 193.485,-438.601 242,-507 253.34,-522.988 269.883,-537.737 283.172,-548.225"/>
<polygon fill="midnightblue" stroke="midnightblue" points="281.276,-551.181 291.347,-554.472 285.527,-545.619 281.276,-551.181"/>
</g>
<!-- Node7&#45;&gt;Node5 -->
<g id="edge10" class="edge"><title>Node7&#45;&gt;Node5</title>
<path fill="none" stroke="midnightblue" d="M195.587,-307.513C248.526,-319.624 340.333,-340.625 400.626,-354.418"/>
<polygon fill="midnightblue" stroke="midnightblue" points="399.862,-357.833 410.391,-356.651 401.423,-351.01 399.862,-357.833"/>
</g>
<!-- Node8 -->
<g id="node8" class="node"><title>Node8</title>
<g id="a_node8"><a xlink:href="classinit.html#ad8a43afe3ab7ba952332c174b2c9587c" target="_top" xlink:title="init::remove_edges">
<polygon fill="white" stroke="black" points="256.5,-250.5 256.5,-269.5 355.5,-269.5 355.5,-250.5 256.5,-250.5"/>
<text text-anchor="middle" x="306" y="-257.5" font-family="Helvetica,sans-Serif" font-size="10.00">init::remove_edges</text>
</a>
</g>
</g>
<!-- Node7&#45;&gt;Node8 -->
<g id="edge9" class="edge"><title>Node7&#45;&gt;Node8</title>
<path fill="none" stroke="midnightblue" d="M192.104,-288.411C211.94,-283.419 236.384,-277.268 257.448,-271.967"/>
<polygon fill="midnightblue" stroke="midnightblue" points="258.327,-275.355 267.17,-269.52 256.618,-268.566 258.327,-275.355"/>
</g>
<!-- Node7&#45;&gt;Node9 -->
<g id="edge11" class="edge"><title>Node7&#45;&gt;Node9</title>
<path fill="none" stroke="midnightblue" d="M161.787,-288.387C179.516,-266.707 222.836,-214.969 242,-203 248.262,-199.089 255.377,-195.942 262.516,-193.422"/>
<polygon fill="midnightblue" stroke="midnightblue" points="263.708,-196.716 272.187,-190.362 261.597,-190.042 263.708,-196.716"/>
</g>
<!-- Node10 -->
<g id="node10" class="node"><title>Node10</title>
<g id="a_node10"><a xlink:href="classinit.html#ae736523becb73ff7a6b08d6552211833" target="_top" xlink:title="init::domain_allocation">
<polygon fill="white" stroke="black" points="249.5,-212.5 249.5,-231.5 362.5,-231.5 362.5,-212.5 249.5,-212.5"/>
<text text-anchor="middle" x="306" y="-219.5" font-family="Helvetica,sans-Serif" font-size="10.00">init::domain_allocation</text>
</a>
</g>
</g>
<!-- Node7&#45;&gt;Node10 -->
<g id="edge12" class="edge"><title>Node7&#45;&gt;Node10</title>
<path fill="none" stroke="midnightblue" d="M166.457,-288.3C182.936,-275.862 213.262,-254.314 242,-241 246.924,-238.719 252.189,-236.63 257.5,-234.741"/>
<polygon fill="midnightblue" stroke="midnightblue" points="258.666,-238.042 267.045,-231.558 256.451,-231.401 258.666,-238.042"/>
</g>
<!-- Node11 -->
<g id="node11" class="node"><title>Node11</title>
<g id="a_node11"><a xlink:href="classinit.html#a78428952f4f16f84b944bbea4900ef3d" target="_top" xlink:title="init::init_domain_land">
<polygon fill="white" stroke="black" points="252,-402.5 252,-421.5 360,-421.5 360,-402.5 252,-402.5"/>
<text text-anchor="middle" x="306" y="-409.5" font-family="Helvetica,sans-Serif" font-size="10.00">init::init_domain_land</text>
</a>
</g>
</g>
<!-- Node7&#45;&gt;Node11 -->
<g id="edge13" class="edge"><title>Node7&#45;&gt;Node11</title>
<path fill="none" stroke="midnightblue" d="M166.614,-307.523C192.53,-327.089 252.003,-371.989 283.89,-396.063"/>
<polygon fill="midnightblue" stroke="midnightblue" points="282.012,-399.03 292.101,-402.262 286.229,-393.443 282.012,-399.03"/>
</g>
<!-- Node13 -->
<g id="node13" class="node"><title>Node13</title>
<g id="a_node13"><a xlink:href="classwind.html#aa3e008f44175ff536a88fe141d295601" target="_top" xlink:title="wind::init_winds">
<polygon fill="white" stroke="black" points="263,-288.5 263,-307.5 349,-307.5 349,-288.5 263,-288.5"/>
<text text-anchor="middle" x="306" y="-295.5" font-family="Helvetica,sans-Serif" font-size="10.00">wind::init_winds</text>
</a>
</g>
</g>
<!-- Node7&#45;&gt;Node13 -->
<g id="edge17" class="edge"><title>Node7&#45;&gt;Node13</title>
<path fill="none" stroke="midnightblue" d="M195.661,-298C213.338,-298 234.136,-298 252.821,-298"/>
<polygon fill="midnightblue" stroke="midnightblue" points="252.951,-301.5 262.951,-298 252.951,-294.5 252.951,-301.5"/>
</g>
<!-- Node11&#45;&gt;Node3 -->
<g id="edge15" class="edge"><title>Node11&#45;&gt;Node3</title>
<path fill="none" stroke="midnightblue" d="M335.767,-421.526C346.703,-425.516 359.138,-430.507 370,-436 391.188,-446.716 413.639,-461.178 430.817,-472.98"/>
<polygon fill="midnightblue" stroke="midnightblue" points="429.078,-476.034 439.285,-478.875 433.078,-470.289 429.078,-476.034"/>
</g>
<!-- Node11&#45;&gt;Node5 -->
<g id="edge14" class="edge"><title>Node11&#45;&gt;Node5</title>
<path fill="none" stroke="midnightblue" d="M340.199,-402.453C357.797,-397.392 379.953,-391.02 400.411,-385.137"/>
<polygon fill="midnightblue" stroke="midnightblue" points="401.647,-388.423 410.291,-382.296 399.713,-381.696 401.647,-388.423"/>
</g>
<!-- Node12 -->
<g id="node12" class="node"><title>Node12</title>
<g id="a_node12"><a xlink:href="interfaceio__routines_1_1io__read.html#a8b9f7abc143c8f5a7f3b727d2beea7c2" target="_top" xlink:title=" Same as io_read2d but for integer data ">
<polygon fill="white" stroke="black" points="410.5,-402 410.5,-432 511.5,-432 511.5,-402 410.5,-402"/>
<text text-anchor="start" x="418.5" y="-420" font-family="Helvetica,sans-Serif" font-size="10.00">io_routines::io_read</text>
<text text-anchor="middle" x="461" y="-409" font-family="Helvetica,sans-Serif" font-size="10.00">::io_read2di</text>
</a>
</g>
</g>
<!-- Node11&#45;&gt;Node12 -->
<g id="edge16" class="edge"><title>Node11&#45;&gt;Node12</title>
<path fill="none" stroke="midnightblue" d="M360.083,-413.735C372.954,-414.155 386.804,-414.608 399.971,-415.038"/>
<polygon fill="midnightblue" stroke="midnightblue" points="400.244,-418.549 410.353,-415.378 400.472,-411.553 400.244,-418.549"/>
</g>
<!-- Node14 -->
<g id="node14" class="node"><title>Node14</title>
<g id="a_node14"><a xlink:href="classwind.html#a0c5b970e225fdcde294562217da6c36e" target="_top" xlink:title="wind::allocate_winds">
<polygon fill="white" stroke="black" points="407.5,-288.5 407.5,-307.5 514.5,-307.5 514.5,-288.5 407.5,-288.5"/>
<text text-anchor="middle" x="461" y="-295.5" font-family="Helvetica,sans-Serif" font-size="10.00">wind::allocate_winds</text>
</a>
</g>
</g>
<!-- Node13&#45;&gt;Node14 -->
<g id="edge18" class="edge"><title>Node13&#45;&gt;Node14</title>
<path fill="none" stroke="midnightblue" d="M349.213,-298C363.942,-298 380.81,-298 396.866,-298"/>
<polygon fill="midnightblue" stroke="midnightblue" points="397.27,-301.5 407.27,-298 397.27,-294.5 397.27,-301.5"/>
</g>
<!-- Node16 -->
<g id="node16" class="node"><title>Node16</title>
<g id="a_node16"><a xlink:href="classgeo.html#a1e7273d41823570bc9f9de6b30aa60fd" target="_top" xlink:title="geo::find_location">
<polygon fill="white" stroke="black" points="414.5,-744.5 414.5,-763.5 507.5,-763.5 507.5,-744.5 414.5,-744.5"/>
<text text-anchor="middle" x="461" y="-751.5" font-family="Helvetica,sans-Serif" font-size="10.00">geo::find_location</text>
</a>
</g>
</g>
<!-- Node15&#45;&gt;Node16 -->
<g id="edge20" class="edge"><title>Node15&#45;&gt;Node16</title>
<path fill="none" stroke="midnightblue" d="M341.336,-724.528C362.135,-729.694 388.98,-736.361 411.875,-742.047"/>
<polygon fill="midnightblue" stroke="midnightblue" points="411.198,-745.486 421.747,-744.499 412.886,-738.692 411.198,-745.486"/>
</g>
<!-- Node19 -->
<g id="node19" class="node"><title>Node19</title>
<g id="a_node19"><a xlink:href="classgeo.html#a7d14c8e02963a466d18edcd79f330359" target="_top" xlink:title="geo::find_surrounding">
<polygon fill="white" stroke="black" points="406,-706.5 406,-725.5 516,-725.5 516,-706.5 406,-706.5"/>
<text text-anchor="middle" x="461" y="-713.5" font-family="Helvetica,sans-Serif" font-size="10.00">geo::find_surrounding</text>
</a>
</g>
</g>
<!-- Node15&#45;&gt;Node19 -->
<g id="edge23" class="edge"><title>Node15&#45;&gt;Node19</title>
<path fill="none" stroke="midnightblue" d="M341.336,-716C357.393,-716 377.054,-716 395.719,-716"/>
<polygon fill="midnightblue" stroke="midnightblue" points="395.957,-719.5 405.957,-716 395.957,-712.5 395.957,-719.5"/>
</g>
<!-- Node20 -->
<g id="node20" class="node"><title>Node20</title>
<g id="a_node20"><a xlink:href="classgeo.html#af4b522675af159cdf68f947dbaba102c" target="_top" xlink:title="geo::bilin_weights">
<polygon fill="white" stroke="black" points="413.5,-668.5 413.5,-687.5 508.5,-687.5 508.5,-668.5 413.5,-668.5"/>
<text text-anchor="middle" x="461" y="-675.5" font-family="Helvetica,sans-Serif" font-size="10.00">geo::bilin_weights</text>
</a>
</g>
</g>
<!-- Node15&#45;&gt;Node20 -->
<g id="edge24" class="edge"><title>Node15&#45;&gt;Node20</title>
<path fill="none" stroke="midnightblue" d="M341.336,-707.472C362.135,-702.306 388.98,-695.639 411.875,-689.953"/>
<polygon fill="midnightblue" stroke="midnightblue" points="412.886,-693.308 421.747,-687.501 411.198,-686.514 412.886,-693.308"/>
</g>
<!-- Node17 -->
<g id="node17" class="node"><title>Node17</title>
<g id="a_node17"><a xlink:href="classgeo.html#a90d24402dc82ec462d2683728881818e" target="_top" xlink:title="geo::minxw">
<polygon fill="white" stroke="black" points="552.5,-763.5 552.5,-782.5 619.5,-782.5 619.5,-763.5 552.5,-763.5"/>
<text text-anchor="middle" x="586" y="-770.5" font-family="Helvetica,sans-Serif" font-size="10.00">geo::minxw</text>
</a>
</g>
</g>
<!-- Node16&#45;&gt;Node17 -->
<g id="edge21" class="edge"><title>Node16&#45;&gt;Node17</title>
<path fill="none" stroke="midnightblue" d="M507.801,-761.075C519.096,-762.82 531.149,-764.682 542.291,-766.403"/>
<polygon fill="midnightblue" stroke="midnightblue" points="541.803,-769.869 552.22,-767.936 542.872,-762.951 541.803,-769.869"/>
</g>
<!-- Node18 -->
<g id="node18" class="node"><title>Node18</title>
<g id="a_node18"><a xlink:href="classgeo.html#a26f0801662f938ba2e6cd8d33a7be586" target="_top" xlink:title="geo::minyw">
<polygon fill="white" stroke="black" points="552.5,-725.5 552.5,-744.5 619.5,-744.5 619.5,-725.5 552.5,-725.5"/>
<text text-anchor="middle" x="586" y="-732.5" font-family="Helvetica,sans-Serif" font-size="10.00">geo::minyw</text>
</a>
</g>
</g>
<!-- Node16&#45;&gt;Node18 -->
<g id="edge22" class="edge"><title>Node16&#45;&gt;Node18</title>
<path fill="none" stroke="midnightblue" d="M507.801,-746.925C519.096,-745.18 531.149,-743.318 542.291,-741.597"/>
<polygon fill="midnightblue" stroke="midnightblue" points="542.872,-745.049 552.22,-740.064 541.803,-738.131 542.872,-745.049"/>
</g>
<!-- Node21&#45;&gt;Node22 -->
<g id="edge26" class="edge"><title>Node21&#45;&gt;Node22</title>
<path fill="none" stroke="midnightblue" d="M190.553,-174.801C210.596,-169.757 235.682,-163.444 257.255,-158.015"/>
<polygon fill="midnightblue" stroke="midnightblue" points="258.363,-161.346 267.207,-155.511 256.655,-154.557 258.363,-161.346"/>
</g>
<!-- Node23&#45;&gt;Node3 -->
<g id="edge28" class="edge"><title>Node23&#45;&gt;Node3</title>
<path fill="none" stroke="midnightblue" d="M202.374,-610.467C247.85,-611.738 316.708,-608.43 370,-583 401.027,-568.194 427.743,-538.247 443.83,-517.193"/>
<polygon fill="midnightblue" stroke="midnightblue" points="446.715,-519.179 449.858,-509.06 441.091,-515.01 446.715,-519.179"/>
</g>
<!-- Node23&#45;&gt;Node4 -->
<g id="edge29" class="edge"><title>Node23&#45;&gt;Node4</title>
<path fill="none" stroke="midnightblue" d="M187.512,-597.457C209.407,-591.222 238.211,-583.019 261.818,-576.297"/>
<polygon fill="midnightblue" stroke="midnightblue" points="262.923,-579.621 271.582,-573.516 261.006,-572.889 262.923,-579.621"/>
</g>
<!-- Node23&#45;&gt;Node15 -->
<g id="edge30" class="edge"><title>Node23&#45;&gt;Node15</title>
<path fill="none" stroke="midnightblue" d="M160.812,-616.698C174.229,-635.089 205.929,-675.143 242,-697 247.908,-700.58 254.54,-703.529 261.224,-705.945"/>
<polygon fill="midnightblue" stroke="midnightblue" points="260.385,-709.352 270.977,-709.115 262.549,-702.695 260.385,-709.352"/>
</g>
<!-- Node23&#45;&gt;Node24 -->
<g id="edge31" class="edge"><title>Node23&#45;&gt;Node24</title>
<path fill="none" stroke="midnightblue" d="M167.767,-616.56C184.632,-627.928 214.372,-646.883 242,-659 247.1,-661.237 252.543,-663.311 258.012,-665.203"/>
<polygon fill="midnightblue" stroke="midnightblue" points="257.225,-668.628 267.818,-668.408 259.4,-661.974 257.225,-668.628"/>
</g>
<!-- Node25 -->
<g id="node25" class="node"><title>Node25</title>
<g id="a_node25"><a xlink:href="classinit.html#a038ea10ca872de4c73000c8a6d31fdb0" target="_top" xlink:title="init::setup_extwinds">
<polygon fill="white" stroke="black" points="254,-630.5 254,-649.5 358,-649.5 358,-630.5 254,-630.5"/>
<text text-anchor="middle" x="306" y="-637.5" font-family="Helvetica,sans-Serif" font-size="10.00">init::setup_extwinds</text>
</a>
</g>
</g>
<!-- Node23&#45;&gt;Node25 -->
<g id="edge32" class="edge"><title>Node23&#45;&gt;Node25</title>
<path fill="none" stroke="midnightblue" d="M197.675,-616.545C214.422,-620.205 233.726,-624.423 251.304,-628.265"/>
<polygon fill="midnightblue" stroke="midnightblue" points="250.906,-631.761 261.423,-630.476 252.401,-624.922 250.906,-631.761"/>
</g>
<!-- Node27 -->
<g id="node27" class="node"><title>Node27</title>
<g id="a_node27"><a xlink:href="classgeo.html#a61629d616a7b4ee1cd910362724f0f6d" target="_top" xlink:title="geo::boundary_interpolate">
<polygon fill="white" stroke="black" points="242,-98.5 242,-117.5 370,-117.5 370,-98.5 242,-98.5"/>
<text text-anchor="middle" x="306" y="-105.5" font-family="Helvetica,sans-Serif" font-size="10.00">geo::boundary_interpolate</text>
</a>
</g>
</g>
<!-- Node26&#45;&gt;Node27 -->
<g id="edge36" class="edge"><title>Node26&#45;&gt;Node27</title>
<path fill="none" stroke="midnightblue" d="M194.863,-108C206.303,-108 219.098,-108 231.806,-108"/>
<polygon fill="midnightblue" stroke="midnightblue" points="231.952,-111.5 241.952,-108 231.952,-104.5 231.952,-111.5"/>
</g>
<!-- Node29 -->
<g id="node29" class="node"><title>Node29</title>
<g id="a_node29"><a xlink:href="classvertical__interpolation.html#a3576f3120acea907e0bde55f9a0f6a3f" target="_top" xlink:title="vertical_interpolation\l::find_match">
<polygon fill="white" stroke="black" points="253,-0 253,-30 359,-30 359,-0 253,-0"/>
<text text-anchor="start" x="261" y="-18" font-family="Helvetica,sans-Serif" font-size="10.00">vertical_interpolation</text>
<text text-anchor="middle" x="306" y="-7" font-family="Helvetica,sans-Serif" font-size="10.00">::find_match</text>
</a>
</g>
</g>
<!-- Node28&#45;&gt;Node29 -->
<g id="edge39" class="edge"><title>Node28&#45;&gt;Node29</title>
<path fill="none" stroke="midnightblue" d="M200.537,-48.8986C215.822,-43.9385 232.974,-38.3726 248.892,-33.2071"/>
<polygon fill="midnightblue" stroke="midnightblue" points="250.185,-36.4673 258.617,-30.0516 248.025,-29.8091 250.185,-36.4673"/>
</g>
<!-- Node30 -->
<g id="node30" class="node"><title>Node30</title>
<g id="a_node30"><a xlink:href="classvertical__interpolation.html#a70fa258a08a3fdfbcfdda875a47d51d9" target="_top" xlink:title="vertical_interpolation\l::weights">
<polygon fill="white" stroke="black" points="253,-49 253,-79 359,-79 359,-49 253,-49"/>
<text text-anchor="start" x="261" y="-67" font-family="Helvetica,sans-Serif" font-size="10.00">vertical_interpolation</text>
<text text-anchor="middle" x="306" y="-56" font-family="Helvetica,sans-Serif" font-size="10.00">::weights</text>
</a>
</g>
</g>
<!-- Node28&#45;&gt;Node30 -->
<g id="edge40" class="edge"><title>Node28&#45;&gt;Node30</title>
<path fill="none" stroke="midnightblue" d="M206.389,-64C218.168,-64 230.777,-64 242.909,-64"/>
<polygon fill="midnightblue" stroke="midnightblue" points="242.959,-67.5001 252.959,-64 242.959,-60.5001 242.959,-67.5001"/>
</g>
</g>
</svg>
