<?xml version="1.0" encoding="UTF-8" standalone="no"?>
<!DOCTYPE svg PUBLIC "-//W3C//DTD SVG 1.1//EN"
 "http://www.w3.org/Graphics/SVG/1.1/DTD/svg11.dtd">
<!-- Generated by graphviz version 2.32.0 (20130809.1645)
 -->
<!-- Title: advection::advect Pages: 1 -->
<!--zoomable 126 -->
<svg id="main" version="1.1" xmlns="http://www.w3.org/2000/svg" xmlns:xlink="http://www.w3.org/1999/xlink" xml:space="preserve" onload="init(evt)">
<style type="text/css"><![CDATA[
.edge:hover path { stroke: red; }
.edge:hover polygon { stroke: red; fill: red; }
]]></style>
<script type="text/javascript"><![CDATA[
var edges = document.getElementsByTagName('g');
if (edges && edges.length) {
  for (var i=0;i<edges.length;i++) {
    if (edges[i].id.substr(0,4)=='edge') {
      edges[i].setAttribute('class','edge');
    }
  }
}
]]></script>
        <defs>
                <circle id="rim" cx="0" cy="0" r="7"/>
                <circle id="rim2" cx="0" cy="0" r="3.5"/>
                <g id="zoomPlus">
                        <use xlink:href="#rim" fill="#404040">
                                <set attributeName="fill" to="#808080" begin="zoomplus.mouseover" end="zoomplus.mouseout"/>
                        </use>
                        <path d="M-4,0h8M0,-4v8" fill="none" stroke="white" stroke-width="1.5" pointer-events="none"/>
                </g>
                <g id="zoomMin">
                        <use xlink:href="#rim" fill="#404040">
                                <set attributeName="fill" to="#808080" begin="zoomminus.mouseover" end="zoomminus.mouseout"/>
                        </use>
                        <path d="M-4,0h8" fill="none" stroke="white" stroke-width="1.5" pointer-events="none"/>
                </g>
                <g id="dirArrow">
                        <path fill="none" stroke="white" stroke-width="1.5" d="M0,-3.0v7 M-2.5,-0.5L0,-3.0L2.5,-0.5"/>
                </g>
               <g id="resetDef">
                       <use xlink:href="#rim2" fill="#404040">
                               <set attributeName="fill" to="#808080" begin="reset.mouseover" end="reset.mouseout"/>
                       </use>
               </g>
        </defs>

<script type="text/javascript">
var viewWidth = 692;
var viewHeight = 126;
var sectionId = 'dynsection-2';
</script>
<script xlink:href="svgpan.js"/>
<svg id="graph" class="graph">
<g id="viewport">
<title>advection::advect</title>
<polygon fill="white" stroke="white" points="-4,5 -4,-122 689,-122 689,5 -4,5"/>
<!-- Node1 -->
<g id="node1" class="node"><title>Node1</title>
<polygon fill="#bfbfbf" stroke="black" points="0,-44.5 0,-63.5 94,-63.5 94,-44.5 0,-44.5"/>
<text text-anchor="middle" x="47" y="-51.5" font-family="Helvetica,sans-Serif" font-size="10.00">advection::advect</text>
</g>
<!-- Node2 -->
<g id="node2" class="node"><title>Node2</title>
<g id="a_node2"><a xlink:href="classadv__upwind.html#a3a006d2b2d9ebc4dbd83152ff5a0f35b" target="_top" xlink:title="adv_upwind::upwind">
<polygon fill="white" stroke="black" points="131.5,-63.5 131.5,-82.5 236.5,-82.5 236.5,-63.5 131.5,-63.5"/>
<text text-anchor="middle" x="184" y="-70.5" font-family="Helvetica,sans-Serif" font-size="10.00">adv_upwind::upwind</text>
</a>
</g>
</g>
<!-- Node1&#45;&gt;Node2 -->
<g id="edge1" class="edge"><title>Node1&#45;&gt;Node2</title>
<path fill="none" stroke="midnightblue" d="M94.0818,-60.4856C102.739,-61.7041 111.921,-62.9963 120.971,-64.2701"/>
<polygon fill="midnightblue" stroke="midnightblue" points="120.708,-67.7674 131.098,-65.6953 121.684,-60.8357 120.708,-67.7674"/>
</g>
<!-- Node8 -->
<g id="node8" class="node"><title>Node8</title>
<g id="a_node8"><a xlink:href="classadv__mpdata.html#ab7491af9ff38f8d903ae2d4ddabc410d" target="_top" xlink:title="adv_mpdata::mpdata">
<polygon fill="white" stroke="black" points="130,-25.5 130,-44.5 238,-44.5 238,-25.5 130,-25.5"/>
<text text-anchor="middle" x="184" y="-32.5" font-family="Helvetica,sans-Serif" font-size="10.00">adv_mpdata::mpdata</text>
</a>
</g>
</g>
<!-- Node1&#45;&gt;Node8 -->
<g id="edge7" class="edge"><title>Node1&#45;&gt;Node8</title>
<path fill="none" stroke="midnightblue" d="M94.0818,-47.5144C102.317,-46.3554 111.026,-45.1296 119.646,-43.9165"/>
<polygon fill="midnightblue" stroke="midnightblue" points="120.274,-47.3627 129.688,-42.5031 119.298,-40.431 120.274,-47.3627"/>
</g>
<!-- Node3 -->
<g id="node3" class="node"><title>Node3</title>
<g id="a_node3"><a xlink:href="classadv__mpdata.html#a3f8f14aa56b629a78a5935b1a130e4c2" target="_top" xlink:title="adv_mpdata::advect3d">
<polygon fill="white" stroke="black" points="274,-44.5 274,-63.5 390,-63.5 390,-44.5 274,-44.5"/>
<text text-anchor="middle" x="332" y="-51.5" font-family="Helvetica,sans-Serif" font-size="10.00">adv_mpdata::advect3d</text>
</a>
</g>
</g>
<!-- Node2&#45;&gt;Node3 -->
<g id="edge2" class="edge"><title>Node2&#45;&gt;Node3</title>
<path fill="none" stroke="midnightblue" d="M236.885,-66.2478C245.58,-65.1164 254.711,-63.928 263.726,-62.7549"/>
<polygon fill="midnightblue" stroke="midnightblue" points="264.359,-66.202 273.824,-61.4407 263.456,-59.2606 264.359,-66.202"/>
</g>
<!-- Node4 -->
<g id="node4" class="node"><title>Node4</title>
<g id="a_node4"><a xlink:href="classadv__mpdata.html#aaed7970de15d6b6a51067bc3351f48cb" target="_top" xlink:title="adv_mpdata::upwind\l_advection">
<polygon fill="white" stroke="black" points="434.5,-88 434.5,-118 541.5,-118 541.5,-88 434.5,-88"/>
<text text-anchor="start" x="442.5" y="-106" font-family="Helvetica,sans-Serif" font-size="10.00">adv_mpdata::upwind</text>
<text text-anchor="middle" x="488" y="-95" font-family="Helvetica,sans-Serif" font-size="10.00">_advection</text>
</a>
</g>
</g>
<!-- Node3&#45;&gt;Node4 -->
<g id="edge3" class="edge"><title>Node3&#45;&gt;Node4</title>
<path fill="none" stroke="midnightblue" d="M363.058,-63.564C382.13,-69.6321 407.413,-77.677 430.169,-84.9174"/>
<polygon fill="midnightblue" stroke="midnightblue" points="429.15,-88.2662 439.741,-87.963 431.273,-81.5957 429.15,-88.2662"/>
</g>
<!-- Node5 -->
<g id="node5" class="node"><title>Node5</title>
<g id="a_node5"><a xlink:href="classadv__mpdata.html#a85e4c645ede02cc8f44ef1a7e01c3049" target="_top" xlink:title="adv_mpdata::mpdata\l_fluxes">
<polygon fill="white" stroke="black" points="434,-39 434,-69 542,-69 542,-39 434,-39"/>
<text text-anchor="start" x="442" y="-57" font-family="Helvetica,sans-Serif" font-size="10.00">adv_mpdata::mpdata</text>
<text text-anchor="middle" x="488" y="-46" font-family="Helvetica,sans-Serif" font-size="10.00">_fluxes</text>
</a>
</g>
</g>
<!-- Node3&#45;&gt;Node5 -->
<g id="edge4" class="edge"><title>Node3&#45;&gt;Node5</title>
<path fill="none" stroke="midnightblue" d="M390.344,-54C401.278,-54 412.779,-54 423.881,-54"/>
<polygon fill="midnightblue" stroke="midnightblue" points="423.938,-57.5001 433.938,-54 423.938,-50.5001 423.938,-57.5001"/>
</g>
<!-- Node6 -->
<g id="node6" class="node"><title>Node6</title>
<g id="a_node6"><a xlink:href="classadv__mpdata.html#a7ffe4b8c6d4a1bb51d0f4693043f3147" target="_top" xlink:title="adv_mpdata::flux_limiter">
<polygon fill="white" stroke="black" points="426.5,-0.5 426.5,-19.5 549.5,-19.5 549.5,-0.5 426.5,-0.5"/>
<text text-anchor="middle" x="488" y="-7.5" font-family="Helvetica,sans-Serif" font-size="10.00">adv_mpdata::flux_limiter</text>
</a>
</g>
</g>
<!-- Node3&#45;&gt;Node6 -->
<g id="edge5" class="edge"><title>Node3&#45;&gt;Node6</title>
<path fill="none" stroke="midnightblue" d="M366.416,-44.4527C389.119,-37.9661 419.359,-29.326 443.876,-22.3211"/>
<polygon fill="midnightblue" stroke="midnightblue" points="444.996,-25.6413 453.65,-19.5287 443.073,-18.9107 444.996,-25.6413"/>
</g>
<!-- Node7 -->
<g id="node7" class="node"><title>Node7</title>
<g id="a_node7"><a xlink:href="classadv__mpdata.html#a42101c164bf5bf768e556d84234ae3a6" target="_top" xlink:title="adv_mpdata::flux1">
<polygon fill="white" stroke="black" points="586.5,-0.5 586.5,-19.5 683.5,-19.5 683.5,-0.5 586.5,-0.5"/>
<text text-anchor="middle" x="635" y="-7.5" font-family="Helvetica,sans-Serif" font-size="10.00">adv_mpdata::flux1</text>
</a>
</g>
</g>
<!-- Node6&#45;&gt;Node7 -->
<g id="edge6" class="edge"><title>Node6&#45;&gt;Node7</title>
<path fill="none" stroke="midnightblue" d="M549.653,-10C558.466,-10 567.519,-10 576.272,-10"/>
<polygon fill="midnightblue" stroke="midnightblue" points="576.377,-13.5001 586.377,-10 576.377,-6.5001 576.377,-13.5001"/>
</g>
<!-- Node8&#45;&gt;Node3 -->
<g id="edge8" class="edge"><title>Node8&#45;&gt;Node3</title>
<path fill="none" stroke="midnightblue" d="M238.122,-41.9132C246.444,-42.9961 255.138,-44.1276 263.727,-45.2452"/>
<polygon fill="midnightblue" stroke="midnightblue" points="263.363,-48.7273 273.731,-46.5471 264.266,-41.7858 263.363,-48.7273"/>
</g>
</g>
</svg>
        <g id="navigator" transform="translate(0 0)" fill="#404254">
                <rect fill="#f2f5e9" fill-opacity="0.5" stroke="#606060" stroke-width=".5" x="0" y="0" width="60" height="60"/>
                <use id="zoomplus" xlink:href="#zoomPlus" x="17" y="9" onmousedown="handleZoom(evt,'in')"/>
                <use id="zoomminus" xlink:href="#zoomMin" x="42" y="9" onmousedown="handleZoom(evt,'out')"/>
                <use id="reset" xlink:href="#resetDef" x="30" y="36" onmousedown="handleReset()"/>
                <g id="arrowUp" xlink:href="#dirArrow" transform="translate(30 24)" onmousedown="handlePan(0,-1)">
                  <use xlink:href="#rim" fill="#404040">
                        <set attributeName="fill" to="#808080" begin="arrowUp.mouseover" end="arrowUp.mouseout"/>
                  </use>
                  <path fill="none" stroke="white" stroke-width="1.5" d="M0,-3.0v7 M-2.5,-0.5L0,-3.0L2.5,-0.5"/>
                </g>
                <g id="arrowRight" xlink:href="#dirArrow" transform="rotate(90) translate(36 -43)" onmousedown="handlePan(1,0)">
                  <use xlink:href="#rim" fill="#404040">
                        <set attributeName="fill" to="#808080" begin="arrowRight.mouseover" end="arrowRight.mouseout"/>
                  </use>
                  <path fill="none" stroke="white" stroke-width="1.5" d="M0,-3.0v7 M-2.5,-0.5L0,-3.0L2.5,-0.5"/>
                </g>
                <g id="arrowDown" xlink:href="#dirArrow" transform="rotate(180) translate(-30 -48)" onmousedown="handlePan(0,1)">
                  <use xlink:href="#rim" fill="#404040">
                        <set attributeName="fill" to="#808080" begin="arrowDown.mouseover" end="arrowDown.mouseout"/>
                  </use>
                  <path fill="none" stroke="white" stroke-width="1.5" d="M0,-3.0v7 M-2.5,-0.5L0,-3.0L2.5,-0.5"/>
                </g>
                <g id="arrowLeft" xlink:href="#dirArrow" transform="rotate(270) translate(-36 17)" onmousedown="handlePan(-1,0)">
                  <use xlink:href="#rim" fill="#404040">
                        <set attributeName="fill" to="#808080" begin="arrowLeft.mouseover" end="arrowLeft.mouseout"/>
                  </use>
                  <path fill="none" stroke="white" stroke-width="1.5" d="M0,-3.0v7 M-2.5,-0.5L0,-3.0L2.5,-0.5"/>
                </g>
        </g>
        <svg viewBox="0 0 15 15" width="100%" height="30px" preserveAspectRatio="xMaxYMin meet">
         <g id="arrow_out" transform="scale(0.3 0.3)">
          <a xlink:href="classadvection_a27abbf643ae159c75c9c0c68b7627f31_cgraph_org.svg" target="_base">
           <rect id="button" ry="5" rx="5" y="6" x="6" height="38" width="38"
                fill="#f2f5e9" fill-opacity="0.5" stroke="#606060" stroke-width="1.0"/>
           <path id="arrow"
             d="M 11.500037,31.436501 C 11.940474,20.09759 22.043105,11.32322 32.158766,21.979434 L 37.068811,17.246167 C 37.068811,17.246167 37.088388,32 37.088388,32 L 22.160133,31.978069 C 22.160133,31.978069 26.997745,27.140456 26.997745,27.140456 C 18.528582,18.264221 13.291696,25.230495 11.500037,31.436501 z"
             style="fill:#404040;"/>
          </a>
         </g>
        </svg>
</svg>
