<?xml version="1.0" encoding="UTF-8" standalone="no"?>
<!DOCTYPE svg PUBLIC "-//W3C//DTD SVG 1.1//EN"
 "http://www.w3.org/Graphics/SVG/1.1/DTD/svg11.dtd">
<!-- Generated by graphviz version 2.32.0 (20130809.1645)
 -->
<!-- Title: init::init_domain_land Pages: 1 -->
<svg width="522pt" height="47pt"
 viewBox="0.00 0.00 522.00 47.00" xmlns="http://www.w3.org/2000/svg" xmlns:xlink="http://www.w3.org/1999/xlink">
<g id="graph0" class="graph" transform="scale(1 1) rotate(0) translate(4 43)">
<title>init::init_domain_land</title>
<polygon fill="white" stroke="white" points="-4,5 -4,-43 519,-43 519,5 -4,5"/>
<!-- Node1 -->
<g id="node1" class="node"><title>Node1</title>
<polygon fill="#bfbfbf" stroke="black" points="0,-19.5 0,-38.5 108,-38.5 108,-19.5 0,-19.5"/>
<text text-anchor="middle" x="54" y="-26.5" font-family="Helvetica,sans-Serif" font-size="10.00">init::init_domain_land</text>
</g>
<!-- Node2 -->
<g id="node2" class="node"><title>Node2</title>
<g id="a_node2"><a xlink:href="classinit.html#a2c0d47bd2656d1121f0522d0f77a0e07" target="_top" xlink:title="init::init_domain">
<polygon fill="white" stroke="black" points="144.5,-19.5 144.5,-38.5 229.5,-38.5 229.5,-19.5 144.5,-19.5"/>
<text text-anchor="middle" x="187" y="-26.5" font-family="Helvetica,sans-Serif" font-size="10.00">init::init_domain</text>
</a>
</g>
</g>
<!-- Node1&#45;&gt;Node2 -->
<g id="edge1" class="edge"><title>Node1&#45;&gt;Node2</title>
<path fill="none" stroke="midnightblue" d="M118.541,-29C127.33,-29 136.166,-29 144.416,-29"/>
<polygon fill="midnightblue" stroke="midnightblue" points="118.283,-25.5001 108.283,-29 118.283,-32.5001 118.283,-25.5001"/>
</g>
<!-- Node3 -->
<g id="node3" class="node"><title>Node3</title>
<g id="a_node3"><a xlink:href="classinit.html#a1dd1e2b38eef39cba464f65c9ce82568" target="_top" xlink:title="init::init_model">
<polygon fill="white" stroke="black" points="366,-19.5 366,-38.5 446,-38.5 446,-19.5 366,-19.5"/>
<text text-anchor="middle" x="406" y="-26.5" font-family="Helvetica,sans-Serif" font-size="10.00">init::init_model</text>
</a>
</g>
</g>
<!-- Node2&#45;&gt;Node3 -->
<g id="edge2" class="edge"><title>Node2&#45;&gt;Node3</title>
<path fill="none" stroke="midnightblue" d="M239.61,-29C278.293,-29 330.431,-29 365.75,-29"/>
<polygon fill="midnightblue" stroke="midnightblue" points="239.583,-25.5001 229.583,-29 239.583,-32.5001 239.583,-25.5001"/>
</g>
<!-- Node5 -->
<g id="node5" class="node"><title>Node5</title>
<g id="a_node5"><a xlink:href="classinit.html#a1c6cab46bb16bea719da3b193c43ccb3" target="_top" xlink:title="init::init_bc">
<polygon fill="white" stroke="black" points="266,-0.5 266,-19.5 330,-19.5 330,-0.5 266,-0.5"/>
<text text-anchor="middle" x="298" y="-7.5" font-family="Helvetica,sans-Serif" font-size="10.00">init::init_bc</text>
</a>
</g>
</g>
<!-- Node2&#45;&gt;Node5 -->
<g id="edge4" class="edge"><title>Node2&#45;&gt;Node5</title>
<path fill="none" stroke="midnightblue" d="M239.539,-20.0162C248.5,-18.4542 257.567,-16.8736 265.77,-15.4438"/>
<polygon fill="midnightblue" stroke="midnightblue" points="238.77,-16.5974 229.519,-21.7627 239.972,-23.4934 238.77,-16.5974"/>
</g>
<!-- Node4 -->
<g id="node4" class="node"><title>Node4</title>
<g id="a_node4"><a xlink:href="driver_8f90.html#ab1e5a5816a57fc6e95d9563c2bb53590" target="_top" xlink:title=" Main Program ">
<polygon fill="white" stroke="black" points="482,-19.5 482,-38.5 514,-38.5 514,-19.5 482,-19.5"/>
<text text-anchor="middle" x="498" y="-26.5" font-family="Helvetica,sans-Serif" font-size="10.00">icar</text>
</a>
</g>
</g>
<!-- Node3&#45;&gt;Node4 -->
<g id="edge3" class="edge"><title>Node3&#45;&gt;Node4</title>
<path fill="none" stroke="midnightblue" d="M456.233,-29C465.449,-29 474.425,-29 481.599,-29"/>
<polygon fill="midnightblue" stroke="midnightblue" points="456.214,-25.5001 446.213,-29 456.213,-32.5001 456.214,-25.5001"/>
</g>
<!-- Node5&#45;&gt;Node3 -->
<g id="edge5" class="edge"><title>Node5&#45;&gt;Node3</title>
<path fill="none" stroke="midnightblue" d="M340.196,-17.3841C348.584,-18.8877 357.388,-20.4658 365.708,-21.9572"/>
<polygon fill="midnightblue" stroke="midnightblue" points="340.691,-13.9172 330.23,-15.5979 339.456,-20.8074 340.691,-13.9172"/>
</g>
</g>
</svg>
