<?xml version="1.0" encoding="UTF-8" standalone="no"?>
<!DOCTYPE svg PUBLIC "-//W3C//DTD SVG 1.1//EN"
 "http://www.w3.org/Graphics/SVG/1.1/DTD/svg11.dtd">
<!-- Generated by graphviz version 2.38.0 (20140413.2041)
 -->
<!-- Title: module_sf_noahlsm::hrt Pages: 1 -->
<svg width="439pt" height="176pt"
 viewBox="0.00 0.00 439.00 175.50" xmlns="http://www.w3.org/2000/svg" xmlns:xlink="http://www.w3.org/1999/xlink">
<g id="graph0" class="graph" transform="scale(1 1) rotate(0) translate(4 171.5)">
<title>module_sf_noahlsm::hrt</title>
<polygon fill="white" stroke="none" points="-4,4 -4,-171.5 435,-171.5 435,4 -4,4"/>
<!-- Node1 -->
<g id="node1" class="node"><title>Node1</title>
<polygon fill="#bfbfbf" stroke="black" points="0,-79 0,-98 121,-98 121,-79 0,-79"/>
<text text-anchor="middle" x="60.5" y="-86" font-family="Helvetica,sans-Serif" font-size="10.00">module_sf_noahlsm::hrt</text>
</g>
<!-- Node2 -->
<g id="node2" class="node"><title>Node2</title>
<g id="a_node2"><a xlink:href="classmodule__sf__noahlsm.html#a578d0dc05848d5bc7fb823e379da5cdd" target="_top" xlink:title="module_sf_noahlsm::tbnd">
<polygon fill="white" stroke="black" points="157,-148 157,-167 285,-167 285,-148 157,-148"/>
<text text-anchor="middle" x="221" y="-155" font-family="Helvetica,sans-Serif" font-size="10.00">module_sf_noahlsm::tbnd</text>
</a>
</g>
</g>
<!-- Node1&#45;&gt;Node2 -->
<g id="edge1" class="edge"><title>Node1&#45;&gt;Node2</title>
<path fill="none" stroke="midnightblue" d="M77.6104,-98.1443C96.2408,-109.008 128.065,-126.687 157,-138.5 162.488,-140.741 168.34,-142.854 174.182,-144.799"/>
<polygon fill="midnightblue" stroke="midnightblue" points="173.35,-148.207 183.94,-147.906 175.474,-141.537 173.35,-148.207"/>
</g>
<!-- Node3 -->
<g id="node3" class="node"><title>Node3</title>
<g id="a_node3"><a xlink:href="classmodule__sf__noahlsm.html#ab786b4f52dbea2106470993f2ea20e69" target="_top" xlink:title="module_sf_noahlsm::\ltmpavg">
<polygon fill="white" stroke="black" points="166,-98.5 166,-128.5 276,-128.5 276,-98.5 166,-98.5"/>
<text text-anchor="start" x="174" y="-116.5" font-family="Helvetica,sans-Serif" font-size="10.00">module_sf_noahlsm::</text>
<text text-anchor="middle" x="221" y="-105.5" font-family="Helvetica,sans-Serif" font-size="10.00">tmpavg</text>
</a>
</g>
</g>
<!-- Node1&#45;&gt;Node3 -->
<g id="edge2" class="edge"><title>Node1&#45;&gt;Node3</title>
<path fill="none" stroke="midnightblue" d="M121.422,-97.9514C132.745,-99.7374 144.629,-101.612 156.07,-103.416"/>
<polygon fill="midnightblue" stroke="midnightblue" points="155.562,-106.879 165.985,-104.98 156.652,-99.9649 155.562,-106.879"/>
</g>
<!-- Node4 -->
<g id="node4" class="node"><title>Node4</title>
<g id="a_node4"><a xlink:href="classmodule__sf__noahlsm.html#a5d089c57c48085d25b95857c682922da" target="_top" xlink:title="module_sf_noahlsm::\lsnksrc">
<polygon fill="white" stroke="black" points="166,-49.5 166,-79.5 276,-79.5 276,-49.5 166,-49.5"/>
<text text-anchor="start" x="174" y="-67.5" font-family="Helvetica,sans-Serif" font-size="10.00">module_sf_noahlsm::</text>
<text text-anchor="middle" x="221" y="-56.5" font-family="Helvetica,sans-Serif" font-size="10.00">snksrc</text>
</a>
</g>
</g>
<!-- Node1&#45;&gt;Node4 -->
<g id="edge3" class="edge"><title>Node1&#45;&gt;Node4</title>
<path fill="none" stroke="midnightblue" d="M121.422,-79.4266C132.745,-77.7121 144.629,-75.9126 156.07,-74.1803"/>
<polygon fill="midnightblue" stroke="midnightblue" points="156.622,-77.6367 165.985,-72.679 155.574,-70.7156 156.622,-77.6367"/>
</g>
<!-- Node6 -->
<g id="node6" class="node"><title>Node6</title>
<g id="a_node6"><a xlink:href="classmodule__sf__noahlsm.html#aac4dfa006a09d48e949536f4dc217bbf" target="_top" xlink:title="module_sf_noahlsm::\ltdfcnd">
<polygon fill="white" stroke="black" points="166,-0.5 166,-30.5 276,-30.5 276,-0.5 166,-0.5"/>
<text text-anchor="start" x="174" y="-18.5" font-family="Helvetica,sans-Serif" font-size="10.00">module_sf_noahlsm::</text>
<text text-anchor="middle" x="221" y="-7.5" font-family="Helvetica,sans-Serif" font-size="10.00">tdfcnd</text>
</a>
</g>
</g>
<!-- Node1&#45;&gt;Node6 -->
<g id="edge5" class="edge"><title>Node1&#45;&gt;Node6</title>
<path fill="none" stroke="midnightblue" d="M79.5784,-78.8151C98.6151,-68.7588 129.573,-52.8059 157,-40.5 161.462,-38.4979 166.136,-36.487 170.835,-34.5228"/>
<polygon fill="midnightblue" stroke="midnightblue" points="172.534,-37.6089 180.457,-30.5746 169.877,-31.1329 172.534,-37.6089"/>
</g>
<!-- Node5 -->
<g id="node5" class="node"><title>Node5</title>
<g id="a_node5"><a xlink:href="classmodule__sf__noahlsm.html#a5beb42f74e1a357ccfc0e904f356b33a" target="_top" xlink:title="module_sf_noahlsm::\lfrh2o">
<polygon fill="white" stroke="black" points="321,-49.5 321,-79.5 431,-79.5 431,-49.5 321,-49.5"/>
<text text-anchor="start" x="329" y="-67.5" font-family="Helvetica,sans-Serif" font-size="10.00">module_sf_noahlsm::</text>
<text text-anchor="middle" x="376" y="-56.5" font-family="Helvetica,sans-Serif" font-size="10.00">frh2o</text>
</a>
</g>
</g>
<!-- Node4&#45;&gt;Node5 -->
<g id="edge4" class="edge"><title>Node4&#45;&gt;Node5</title>
<path fill="none" stroke="midnightblue" d="M276.373,-64.5C287.421,-64.5 299.142,-64.5 310.502,-64.5"/>
<polygon fill="midnightblue" stroke="midnightblue" points="310.802,-68.0001 320.802,-64.5 310.802,-61.0001 310.802,-68.0001"/>
</g>
</g>
</svg>
