<?xml version="1.0" encoding="UTF-8" standalone="no"?>
<!DOCTYPE svg PUBLIC "-//W3C//DTD SVG 1.1//EN"
 "http://www.w3.org/Graphics/SVG/1.1/DTD/svg11.dtd">
<!-- Generated by graphviz version 2.38.0 (20140413.2041)
 -->
<!-- Title: module_sf_noahdrv::lsm_noah Pages: 1 -->
<!--zoomable 621 -->
<svg id="main" version="1.1" xmlns="http://www.w3.org/2000/svg" xmlns:xlink="http://www.w3.org/1999/xlink" xml:space="preserve" onload="init(evt)">
<style type="text/css"><![CDATA[
.edge:hover path { stroke: red; }
.edge:hover polygon { stroke: red; fill: red; }
]]></style>
<script type="text/javascript"><![CDATA[
var edges = document.getElementsByTagName('g');
if (edges && edges.length) {
  for (var i=0;i<edges.length;i++) {
    if (edges[i].id.substr(0,4)=='edge') {
      edges[i].setAttribute('class','edge');
    }
  }
}
]]></script>
        <defs>
                <circle id="rim" cx="0" cy="0" r="7"/>
                <circle id="rim2" cx="0" cy="0" r="3.5"/>
                <g id="zoomPlus">
                        <use xlink:href="#rim" fill="#404040">
                                <set attributeName="fill" to="#808080" begin="zoomplus.mouseover" end="zoomplus.mouseout"/>
                        </use>
                        <path d="M-4,0h8M0,-4v8" fill="none" stroke="white" stroke-width="1.5" pointer-events="none"/>
                </g>
                <g id="zoomMin">
                        <use xlink:href="#rim" fill="#404040">
                                <set attributeName="fill" to="#808080" begin="zoomminus.mouseover" end="zoomminus.mouseout"/>
                        </use>
                        <path d="M-4,0h8" fill="none" stroke="white" stroke-width="1.5" pointer-events="none"/>
                </g>
                <g id="dirArrow">
                        <path fill="none" stroke="white" stroke-width="1.5" d="M0,-3.0v7 M-2.5,-0.5L0,-3.0L2.5,-0.5"/>
                </g>
               <g id="resetDef">
                       <use xlink:href="#rim2" fill="#404040">
                               <set attributeName="fill" to="#808080" begin="reset.mouseover" end="reset.mouseout"/>
                       </use>
               </g>
        </defs>

<script type="text/javascript">
var viewWidth = 1035;
var viewHeight = 621;
var sectionId = 'dynsection-0';
</script>
<script xlink:href="svgpan.js"/>
<svg id="graph" class="graph">
<g id="viewport">
<title>module_sf_noahdrv::lsm_noah</title>
<polygon fill="white" stroke="none" points="-4,4 -4,-617 1031,-617 1031,4 -4,4"/>
<!-- Node1 -->
<g id="node1" class="node"><title>Node1</title>
<polygon fill="#bfbfbf" stroke="black" points="0,-342.5 0,-372.5 107,-372.5 107,-342.5 0,-342.5"/>
<text text-anchor="start" x="8" y="-360.5" font-family="Helvetica,sans-Serif" font-size="10.00">module_sf_noahdrv::</text>
<text text-anchor="middle" x="53.5" y="-349.5" font-family="Helvetica,sans-Serif" font-size="10.00">lsm_noah</text>
</g>
<!-- Node2 -->
<g id="node2" class="node"><title>Node2</title>
<g id="a_node2"><a xlink:href="classmodule__sf__noahlsm.html#a7cd9a2732205c21a5f59d679e0a1fddd" target="_top" xlink:title="module_sf_noahlsm::sflx">
<polygon fill="white" stroke="black" points="143,-348 143,-367 268,-367 268,-348 143,-348"/>
<text text-anchor="middle" x="205.5" y="-355" font-family="Helvetica,sans-Serif" font-size="10.00">module_sf_noahlsm::sflx</text>
</a>
</g>
</g>
<!-- Node1&#45;&gt;Node2 -->
<g id="edge1" class="edge"><title>Node1&#45;&gt;Node2</title>
<path fill="none" stroke="midnightblue" d="M107.384,-357.5C115.629,-357.5 124.266,-357.5 132.844,-357.5"/>
<polygon fill="midnightblue" stroke="midnightblue" points="132.86,-361 142.86,-357.5 132.86,-354 132.86,-361"/>
</g>
<!-- Node3 -->
<g id="node3" class="node"><title>Node3</title>
<g id="a_node3"><a xlink:href="classmodule__sf__noahlsm.html#a035da859804652a83bc5fd235e70b2e0" target="_top" xlink:title="module_sf_noahlsm::\lredprm">
<polygon fill="white" stroke="black" points="304,-582.5 304,-612.5 414,-612.5 414,-582.5 304,-582.5"/>
<text text-anchor="start" x="312" y="-600.5" font-family="Helvetica,sans-Serif" font-size="10.00">module_sf_noahlsm::</text>
<text text-anchor="middle" x="359" y="-589.5" font-family="Helvetica,sans-Serif" font-size="10.00">redprm</text>
</a>
</g>
</g>
<!-- Node2&#45;&gt;Node3 -->
<g id="edge2" class="edge"><title>Node2&#45;&gt;Node3</title>
<path fill="none" stroke="midnightblue" d="M208.281,-367.083C214.894,-400.146 240.978,-510.842 304,-573.5 305.069,-574.562 306.192,-575.582 307.361,-576.56"/>
<polygon fill="midnightblue" stroke="midnightblue" points="305.449,-579.494 315.629,-582.428 309.5,-573.786 305.449,-579.494"/>
</g>
<!-- Node4 -->
<g id="node4" class="node"><title>Node4</title>
<g id="a_node4"><a xlink:href="classmodule__sf__noahlsm.html#abb6e84ee87a6fdb3281c33e8e8457a04" target="_top" xlink:title="module_sf_noahlsm::\lcsnow">
<polygon fill="white" stroke="black" points="304,-533.5 304,-563.5 414,-563.5 414,-533.5 304,-533.5"/>
<text text-anchor="start" x="312" y="-551.5" font-family="Helvetica,sans-Serif" font-size="10.00">module_sf_noahlsm::</text>
<text text-anchor="middle" x="359" y="-540.5" font-family="Helvetica,sans-Serif" font-size="10.00">csnow</text>
</a>
</g>
</g>
<!-- Node2&#45;&gt;Node4 -->
<g id="edge3" class="edge"><title>Node2&#45;&gt;Node4</title>
<path fill="none" stroke="midnightblue" d="M209.725,-367.183C219.515,-395.222 251.477,-477.469 304,-524.5 305.287,-525.653 306.639,-526.758 308.041,-527.816"/>
<polygon fill="midnightblue" stroke="midnightblue" points="306.242,-530.822 316.524,-533.379 310.081,-524.968 306.242,-530.822"/>
</g>
<!-- Node5 -->
<g id="node5" class="node"><title>Node5</title>
<g id="a_node5"><a xlink:href="classmodule__sf__noahlsm.html#ab7e465439f409557715a28bea71551c1" target="_top" xlink:title="module_sf_noahlsm::\lsnow_new">
<polygon fill="white" stroke="black" points="304,-484.5 304,-514.5 414,-514.5 414,-484.5 304,-484.5"/>
<text text-anchor="start" x="312" y="-502.5" font-family="Helvetica,sans-Serif" font-size="10.00">module_sf_noahlsm::</text>
<text text-anchor="middle" x="359" y="-491.5" font-family="Helvetica,sans-Serif" font-size="10.00">snow_new</text>
</a>
</g>
</g>
<!-- Node2&#45;&gt;Node5 -->
<g id="edge4" class="edge"><title>Node2&#45;&gt;Node5</title>
<path fill="none" stroke="midnightblue" d="M212.176,-367.028C225.612,-388.88 261.452,-443.207 304,-475.5 305.624,-476.733 307.322,-477.919 309.071,-479.058"/>
<polygon fill="midnightblue" stroke="midnightblue" points="307.755,-482.342 318.156,-484.361 311.284,-476.297 307.755,-482.342"/>
</g>
<!-- Node6 -->
<g id="node6" class="node"><title>Node6</title>
<g id="a_node6"><a xlink:href="classmodule__sf__noahlsm.html#ae7ad09a03325fa6a08429faa078bb8f2" target="_top" xlink:title="module_sf_noahlsm::\lsnfrac">
<polygon fill="white" stroke="black" points="304,-435.5 304,-465.5 414,-465.5 414,-435.5 304,-435.5"/>
<text text-anchor="start" x="312" y="-453.5" font-family="Helvetica,sans-Serif" font-size="10.00">module_sf_noahlsm::</text>
<text text-anchor="middle" x="359" y="-442.5" font-family="Helvetica,sans-Serif" font-size="10.00">snfrac</text>
</a>
</g>
</g>
<!-- Node2&#45;&gt;Node6 -->
<g id="edge5" class="edge"><title>Node2&#45;&gt;Node6</title>
<path fill="none" stroke="midnightblue" d="M218.301,-367.019C236.143,-381.136 271.372,-407.946 304,-426.5 306.678,-428.023 309.471,-429.519 312.315,-430.973"/>
<polygon fill="midnightblue" stroke="midnightblue" points="310.973,-434.213 321.494,-435.458 314.046,-427.923 310.973,-434.213"/>
</g>
<!-- Node7 -->
<g id="node7" class="node"><title>Node7</title>
<g id="a_node7"><a xlink:href="classmodule__sf__noahlsm.html#a7a78bcce992262a6c96711208974f7f1" target="_top" xlink:title="module_sf_noahlsm::\lalcalc">
<polygon fill="white" stroke="black" points="304,-386.5 304,-416.5 414,-416.5 414,-386.5 304,-386.5"/>
<text text-anchor="start" x="312" y="-404.5" font-family="Helvetica,sans-Serif" font-size="10.00">module_sf_noahlsm::</text>
<text text-anchor="middle" x="359" y="-393.5" font-family="Helvetica,sans-Serif" font-size="10.00">alcalc</text>
</a>
</g>
</g>
<!-- Node2&#45;&gt;Node7 -->
<g id="edge6" class="edge"><title>Node2&#45;&gt;Node7</title>
<path fill="none" stroke="midnightblue" d="M239.373,-367.047C256.05,-371.891 276.86,-377.935 296.374,-383.602"/>
<polygon fill="midnightblue" stroke="midnightblue" points="295.548,-387.007 306.127,-386.435 297.5,-380.284 295.548,-387.007"/>
</g>
<!-- Node8 -->
<g id="node8" class="node"><title>Node8</title>
<g id="a_node8"><a xlink:href="classmodule__sf__noahlsm.html#aac4dfa006a09d48e949536f4dc217bbf" target="_top" xlink:title="module_sf_noahlsm::\ltdfcnd">
<polygon fill="white" stroke="black" points="762,-339.5 762,-369.5 872,-369.5 872,-339.5 762,-339.5"/>
<text text-anchor="start" x="770" y="-357.5" font-family="Helvetica,sans-Serif" font-size="10.00">module_sf_noahlsm::</text>
<text text-anchor="middle" x="817" y="-346.5" font-family="Helvetica,sans-Serif" font-size="10.00">tdfcnd</text>
</a>
</g>
</g>
<!-- Node2&#45;&gt;Node8 -->
<g id="edge7" class="edge"><title>Node2&#45;&gt;Node8</title>
<path fill="none" stroke="midnightblue" d="M268.014,-357.197C383.909,-356.627 633.545,-355.398 751.612,-354.817"/>
<polygon fill="midnightblue" stroke="midnightblue" points="751.953,-358.315 761.936,-354.766 751.918,-351.315 751.953,-358.315"/>
</g>
<!-- Node9 -->
<g id="node9" class="node"><title>Node9</title>
<g id="a_node9"><a xlink:href="classmodule__sf__noahlsm.html#ab3693cb1c40b1bd7b4db5e96337f6eef" target="_top" xlink:title="module_sf_noahlsm::\lsnowz0">
<polygon fill="white" stroke="black" points="304,-200.5 304,-230.5 414,-230.5 414,-200.5 304,-200.5"/>
<text text-anchor="start" x="312" y="-218.5" font-family="Helvetica,sans-Serif" font-size="10.00">module_sf_noahlsm::</text>
<text text-anchor="middle" x="359" y="-207.5" font-family="Helvetica,sans-Serif" font-size="10.00">snowz0</text>
</a>
</g>
</g>
<!-- Node2&#45;&gt;Node9 -->
<g id="edge8" class="edge"><title>Node2&#45;&gt;Node9</title>
<path fill="none" stroke="midnightblue" d="M212.434,-347.777C226.14,-326.001 262.056,-272.706 304,-240.5 306.266,-238.76 308.673,-237.104 311.163,-235.535"/>
<polygon fill="midnightblue" stroke="midnightblue" points="312.943,-238.549 319.871,-230.534 309.457,-232.479 312.943,-238.549"/>
</g>
<!-- Node10 -->
<g id="node10" class="node"><title>Node10</title>
<g id="a_node10"><a xlink:href="classmodule__sf__noahlsm.html#adebb599290dd898c8995442436263d52" target="_top" xlink:title="module_sf_noahlsm::\lpenman">
<polygon fill="white" stroke="black" points="304,-151.5 304,-181.5 414,-181.5 414,-151.5 304,-151.5"/>
<text text-anchor="start" x="312" y="-169.5" font-family="Helvetica,sans-Serif" font-size="10.00">module_sf_noahlsm::</text>
<text text-anchor="middle" x="359" y="-158.5" font-family="Helvetica,sans-Serif" font-size="10.00">penman</text>
</a>
</g>
</g>
<!-- Node2&#45;&gt;Node10 -->
<g id="edge9" class="edge"><title>Node2&#45;&gt;Node10</title>
<path fill="none" stroke="midnightblue" d="M209.777,-347.914C219.707,-320.149 252.01,-238.653 304,-191.5 305.679,-189.977 307.466,-188.532 309.332,-187.162"/>
<polygon fill="midnightblue" stroke="midnightblue" points="311.404,-189.991 317.913,-181.632 307.611,-184.107 311.404,-189.991"/>
</g>
<!-- Node11 -->
<g id="node11" class="node"><title>Node11</title>
<g id="a_node11"><a xlink:href="classmodule__sf__noahlsm.html#a433b2b986f9e11459dc99a8a99db6ba7" target="_top" xlink:title="module_sf_noahlsm::\lcanres">
<polygon fill="white" stroke="black" points="304,-102.5 304,-132.5 414,-132.5 414,-102.5 304,-102.5"/>
<text text-anchor="start" x="312" y="-120.5" font-family="Helvetica,sans-Serif" font-size="10.00">module_sf_noahlsm::</text>
<text text-anchor="middle" x="359" y="-109.5" font-family="Helvetica,sans-Serif" font-size="10.00">canres</text>
</a>
</g>
</g>
<!-- Node2&#45;&gt;Node11 -->
<g id="edge10" class="edge"><title>Node2&#45;&gt;Node11</title>
<path fill="none" stroke="midnightblue" d="M208.281,-347.917C214.894,-314.854 240.978,-204.158 304,-141.5 305.069,-140.438 306.192,-139.418 307.361,-138.44"/>
<polygon fill="midnightblue" stroke="midnightblue" points="309.5,-141.214 315.629,-132.572 305.449,-135.506 309.5,-141.214"/>
</g>
<!-- Node12 -->
<g id="node12" class="node"><title>Node12</title>
<g id="a_node12"><a xlink:href="classmodule__sf__noahlsm.html#a6a17443ddbf15acdb25690cfbb3749a3" target="_top" xlink:title="module_sf_noahlsm::\lnopac">
<polygon fill="white" stroke="black" points="304,-298.5 304,-328.5 414,-328.5 414,-298.5 304,-298.5"/>
<text text-anchor="start" x="312" y="-316.5" font-family="Helvetica,sans-Serif" font-size="10.00">module_sf_noahlsm::</text>
<text text-anchor="middle" x="359" y="-305.5" font-family="Helvetica,sans-Serif" font-size="10.00">nopac</text>
</a>
</g>
</g>
<!-- Node2&#45;&gt;Node12 -->
<g id="edge11" class="edge"><title>Node2&#45;&gt;Node12</title>
<path fill="none" stroke="midnightblue" d="M239.373,-347.953C256.05,-343.109 276.86,-337.065 296.374,-331.398"/>
<polygon fill="midnightblue" stroke="midnightblue" points="297.5,-334.716 306.127,-328.565 295.548,-327.993 297.5,-334.716"/>
</g>
<!-- Node29 -->
<g id="node29" class="node"><title>Node29</title>
<g id="a_node29"><a xlink:href="classmodule__sf__noahlsm.html#a9d1e26133ed89bc5465a230d45d0625d" target="_top" xlink:title="module_sf_noahlsm::\lsnopac">
<polygon fill="white" stroke="black" points="304,-249.5 304,-279.5 414,-279.5 414,-249.5 304,-249.5"/>
<text text-anchor="start" x="312" y="-267.5" font-family="Helvetica,sans-Serif" font-size="10.00">module_sf_noahlsm::</text>
<text text-anchor="middle" x="359" y="-256.5" font-family="Helvetica,sans-Serif" font-size="10.00">snopac</text>
</a>
</g>
</g>
<!-- Node2&#45;&gt;Node29 -->
<g id="edge31" class="edge"><title>Node2&#45;&gt;Node29</title>
<path fill="none" stroke="midnightblue" d="M218.66,-347.97C236.671,-334.102 271.787,-307.999 304,-289.5 307.189,-287.669 310.535,-285.863 313.932,-284.112"/>
<polygon fill="midnightblue" stroke="midnightblue" points="315.575,-287.205 322.975,-279.623 312.462,-280.935 315.575,-287.205"/>
</g>
<!-- Node12&#45;&gt;Node8 -->
<g id="edge21" class="edge"><title>Node12&#45;&gt;Node8</title>
<path fill="none" stroke="midnightblue" d="M414.1,-318.364C498.604,-325.962 661.576,-340.615 751.864,-348.733"/>
<polygon fill="midnightblue" stroke="midnightblue" points="751.697,-352.232 761.971,-349.642 752.324,-345.261 751.697,-352.232"/>
</g>
<!-- Node13 -->
<g id="node13" class="node"><title>Node13</title>
<g id="a_node13"><a xlink:href="classmodule__sf__noahlsm.html#a8def37e83c3ce04050b98a11d265caeb" target="_top" xlink:title="module_sf_noahlsm::\levapo">
<polygon fill="white" stroke="black" points="450,-205.5 450,-235.5 560,-235.5 560,-205.5 450,-205.5"/>
<text text-anchor="start" x="458" y="-223.5" font-family="Helvetica,sans-Serif" font-size="10.00">module_sf_noahlsm::</text>
<text text-anchor="middle" x="505" y="-212.5" font-family="Helvetica,sans-Serif" font-size="10.00">evapo</text>
</a>
</g>
</g>
<!-- Node12&#45;&gt;Node13 -->
<g id="edge12" class="edge"><title>Node12&#45;&gt;Node13</title>
<path fill="none" stroke="midnightblue" d="M398.748,-298.458C404.051,-295.781 409.287,-292.785 414,-289.5 432.823,-276.381 431.974,-266.694 450,-252.5 455.113,-248.474 460.779,-244.585 466.462,-240.988"/>
<polygon fill="midnightblue" stroke="midnightblue" points="468.601,-243.783 475.329,-235.598 464.966,-237.802 468.601,-243.783"/>
</g>
<!-- Node16 -->
<g id="node16" class="node"><title>Node16</title>
<g id="a_node16"><a xlink:href="classmodule__sf__noahlsm.html#a0d0b4c4b1c11cc7ff836dfdd13fb1b20" target="_top" xlink:title="module_sf_noahlsm::\lsmflx">
<polygon fill="white" stroke="black" points="450,-128.5 450,-158.5 560,-158.5 560,-128.5 450,-128.5"/>
<text text-anchor="start" x="458" y="-146.5" font-family="Helvetica,sans-Serif" font-size="10.00">module_sf_noahlsm::</text>
<text text-anchor="middle" x="505" y="-135.5" font-family="Helvetica,sans-Serif" font-size="10.00">smflx</text>
</a>
</g>
</g>
<!-- Node12&#45;&gt;Node16 -->
<g id="edge15" class="edge"><title>Node12&#45;&gt;Node16</title>
<path fill="none" stroke="midnightblue" d="M402.826,-298.445C406.917,-295.882 410.746,-292.918 414,-289.5 444.565,-257.403 425.635,-233.524 450,-196.5 457.521,-185.071 467.861,-174.168 477.481,-165.256"/>
<polygon fill="midnightblue" stroke="midnightblue" points="479.848,-167.835 484.974,-158.563 475.185,-162.615 479.848,-167.835"/>
</g>
<!-- Node22 -->
<g id="node22" class="node"><title>Node22</title>
<g id="a_node22"><a xlink:href="classmodule__sf__noahlsm.html#ac5c49267c44f18dfd5359b29fdfed38e" target="_top" xlink:title="module_sf_noahlsm::\lshflx">
<polygon fill="white" stroke="black" points="450,-261.5 450,-291.5 560,-291.5 560,-261.5 450,-261.5"/>
<text text-anchor="start" x="458" y="-279.5" font-family="Helvetica,sans-Serif" font-size="10.00">module_sf_noahlsm::</text>
<text text-anchor="middle" x="505" y="-268.5" font-family="Helvetica,sans-Serif" font-size="10.00">shflx</text>
</a>
</g>
</g>
<!-- Node12&#45;&gt;Node22 -->
<g id="edge22" class="edge"><title>Node12&#45;&gt;Node22</title>
<path fill="none" stroke="midnightblue" d="M414.03,-299.617C422.496,-297.442 431.315,-295.176 439.979,-292.95"/>
<polygon fill="midnightblue" stroke="midnightblue" points="440.853,-296.339 449.667,-290.461 439.111,-289.559 440.853,-296.339"/>
</g>
<!-- Node14 -->
<g id="node14" class="node"><title>Node14</title>
<g id="a_node14"><a xlink:href="classmodule__sf__noahlsm.html#a1f4bae7bb5581ef61d8c22e58df4c88f" target="_top" xlink:title="module_sf_noahlsm::\ldevap">
<polygon fill="white" stroke="black" points="601.5,-186.5 601.5,-216.5 711.5,-216.5 711.5,-186.5 601.5,-186.5"/>
<text text-anchor="start" x="609.5" y="-204.5" font-family="Helvetica,sans-Serif" font-size="10.00">module_sf_noahlsm::</text>
<text text-anchor="middle" x="656.5" y="-193.5" font-family="Helvetica,sans-Serif" font-size="10.00">devap</text>
</a>
</g>
</g>
<!-- Node13&#45;&gt;Node14 -->
<g id="edge13" class="edge"><title>Node13&#45;&gt;Node14</title>
<path fill="none" stroke="midnightblue" d="M560.396,-213.587C570.414,-212.314 580.961,-210.973 591.238,-209.667"/>
<polygon fill="midnightblue" stroke="midnightblue" points="591.916,-213.109 601.395,-208.376 591.033,-206.165 591.916,-213.109"/>
</g>
<!-- Node15 -->
<g id="node15" class="node"><title>Node15</title>
<g id="a_node15"><a xlink:href="classmodule__sf__noahlsm.html#aa418d6be3fc3de942821faf6fb68e3f8" target="_top" xlink:title="module_sf_noahlsm::\ltransp">
<polygon fill="white" stroke="black" points="601.5,-137.5 601.5,-167.5 711.5,-167.5 711.5,-137.5 601.5,-137.5"/>
<text text-anchor="start" x="609.5" y="-155.5" font-family="Helvetica,sans-Serif" font-size="10.00">module_sf_noahlsm::</text>
<text text-anchor="middle" x="656.5" y="-144.5" font-family="Helvetica,sans-Serif" font-size="10.00">transp</text>
</a>
</g>
</g>
<!-- Node13&#45;&gt;Node15 -->
<g id="edge14" class="edge"><title>Node13&#45;&gt;Node15</title>
<path fill="none" stroke="midnightblue" d="M535.341,-205.498C552.812,-196.731 575.505,-185.629 596,-176.5 599.777,-174.817 603.71,-173.118 607.675,-171.442"/>
<polygon fill="midnightblue" stroke="midnightblue" points="609.035,-174.667 616.922,-167.594 606.345,-168.205 609.035,-174.667"/>
</g>
<!-- Node17 -->
<g id="node17" class="node"><title>Node17</title>
<g id="a_node17"><a xlink:href="classmodule__sf__noahlsm.html#ad15804ed9573673deb4f95b3f160eeb2" target="_top" xlink:title="module_sf_noahlsm::\lfac2mit">
<polygon fill="white" stroke="black" points="601.5,-0.5 601.5,-30.5 711.5,-30.5 711.5,-0.5 601.5,-0.5"/>
<text text-anchor="start" x="609.5" y="-18.5" font-family="Helvetica,sans-Serif" font-size="10.00">module_sf_noahlsm::</text>
<text text-anchor="middle" x="656.5" y="-7.5" font-family="Helvetica,sans-Serif" font-size="10.00">fac2mit</text>
</a>
</g>
</g>
<!-- Node16&#45;&gt;Node17 -->
<g id="edge16" class="edge"><title>Node16&#45;&gt;Node17</title>
<path fill="none" stroke="midnightblue" d="M546.989,-128.416C551.721,-125.589 556.204,-122.301 560,-118.5 586.982,-91.4862 568.539,-67.0264 596,-40.5 597.481,-39.0696 599.056,-37.7157 600.703,-36.4348"/>
<polygon fill="midnightblue" stroke="midnightblue" points="603.06,-39.0712 609.451,-30.6211 599.185,-33.2414 603.06,-39.0712"/>
</g>
<!-- Node18 -->
<g id="node18" class="node"><title>Node18</title>
<g id="a_node18"><a xlink:href="classmodule__sf__noahlsm.html#a2e71343dc4bdf7438e0abf6d850d0c79" target="_top" xlink:title="module_sf_noahlsm::srt">
<polygon fill="white" stroke="black" points="596,-50 596,-69 717,-69 717,-50 596,-50"/>
<text text-anchor="middle" x="656.5" y="-57" font-family="Helvetica,sans-Serif" font-size="10.00">module_sf_noahlsm::srt</text>
</a>
</g>
</g>
<!-- Node16&#45;&gt;Node18 -->
<g id="edge17" class="edge"><title>Node16&#45;&gt;Node18</title>
<path fill="none" stroke="midnightblue" d="M543.721,-128.449C549.397,-125.509 555.013,-122.181 560,-118.5 579.244,-104.298 575.91,-91.4778 596,-78.5 599.145,-76.4682 602.525,-74.6389 606.018,-72.9943"/>
<polygon fill="midnightblue" stroke="midnightblue" points="607.565,-76.141 615.447,-69.0605 604.87,-69.6807 607.565,-76.141"/>
</g>
<!-- Node20 -->
<g id="node20" class="node"><title>Node20</title>
<g id="a_node20"><a xlink:href="classmodule__sf__noahlsm.html#ada19fa401e97fc92326932b406bbc2c3" target="_top" xlink:title="module_sf_noahlsm::\lsstep">
<polygon fill="white" stroke="black" points="601.5,-88.5 601.5,-118.5 711.5,-118.5 711.5,-88.5 601.5,-88.5"/>
<text text-anchor="start" x="609.5" y="-106.5" font-family="Helvetica,sans-Serif" font-size="10.00">module_sf_noahlsm::</text>
<text text-anchor="middle" x="656.5" y="-95.5" font-family="Helvetica,sans-Serif" font-size="10.00">sstep</text>
</a>
</g>
</g>
<!-- Node16&#45;&gt;Node20 -->
<g id="edge19" class="edge"><title>Node16&#45;&gt;Node20</title>
<path fill="none" stroke="midnightblue" d="M560.396,-128.946C570.519,-126.237 581.181,-123.385 591.559,-120.608"/>
<polygon fill="midnightblue" stroke="midnightblue" points="592.639,-123.942 601.395,-117.976 590.83,-117.18 592.639,-123.942"/>
</g>
<!-- Node19 -->
<g id="node19" class="node"><title>Node19</title>
<g id="a_node19"><a xlink:href="classmodule__sf__noahlsm.html#a3b4a7f68699fbc22922e958770009b57" target="_top" xlink:title="module_sf_noahlsm::\lwdfcnd">
<polygon fill="white" stroke="black" points="762,-44.5 762,-74.5 872,-74.5 872,-44.5 762,-44.5"/>
<text text-anchor="start" x="770" y="-62.5" font-family="Helvetica,sans-Serif" font-size="10.00">module_sf_noahlsm::</text>
<text text-anchor="middle" x="817" y="-51.5" font-family="Helvetica,sans-Serif" font-size="10.00">wdfcnd</text>
</a>
</g>
</g>
<!-- Node18&#45;&gt;Node19 -->
<g id="edge18" class="edge"><title>Node18&#45;&gt;Node19</title>
<path fill="none" stroke="midnightblue" d="M717.422,-59.5C728.631,-59.5 740.389,-59.5 751.723,-59.5"/>
<polygon fill="midnightblue" stroke="midnightblue" points="751.985,-63.0001 761.985,-59.5 751.985,-56.0001 751.985,-63.0001"/>
</g>
<!-- Node21 -->
<g id="node21" class="node"><title>Node21</title>
<g id="a_node21"><a xlink:href="classmodule__sf__noahlsm.html#ac6e3e7bb3f0322070546653306177216" target="_top" xlink:title="module_sf_noahlsm::\lrosr12">
<polygon fill="white" stroke="black" points="762,-115.5 762,-145.5 872,-145.5 872,-115.5 762,-115.5"/>
<text text-anchor="start" x="770" y="-133.5" font-family="Helvetica,sans-Serif" font-size="10.00">module_sf_noahlsm::</text>
<text text-anchor="middle" x="817" y="-122.5" font-family="Helvetica,sans-Serif" font-size="10.00">rosr12</text>
</a>
</g>
</g>
<!-- Node20&#45;&gt;Node21 -->
<g id="edge20" class="edge"><title>Node20&#45;&gt;Node21</title>
<path fill="none" stroke="midnightblue" d="M711.603,-112.716C724.538,-114.92 738.47,-117.293 751.811,-119.566"/>
<polygon fill="midnightblue" stroke="midnightblue" points="751.426,-123.05 761.872,-121.279 752.601,-116.15 751.426,-123.05"/>
</g>
<!-- Node23 -->
<g id="node23" class="node"><title>Node23</title>
<g id="a_node23"><a xlink:href="classmodule__sf__noahlsm.html#a3d4ab86e98738d55bb24f5f2256bc036" target="_top" xlink:title="module_sf_noahlsm::hrt">
<polygon fill="white" stroke="black" points="596,-285 596,-304 717,-304 717,-285 596,-285"/>
<text text-anchor="middle" x="656.5" y="-292" font-family="Helvetica,sans-Serif" font-size="10.00">module_sf_noahlsm::hrt</text>
</a>
</g>
</g>
<!-- Node22&#45;&gt;Node23 -->
<g id="edge23" class="edge"><title>Node22&#45;&gt;Node23</title>
<path fill="none" stroke="midnightblue" d="M560.396,-283.049C568.677,-284.046 577.318,-285.087 585.87,-286.117"/>
<polygon fill="midnightblue" stroke="midnightblue" points="585.495,-289.596 595.841,-287.317 586.331,-282.647 585.495,-289.596"/>
</g>
<!-- Node28 -->
<g id="node28" class="node"><title>Node28</title>
<g id="a_node28"><a xlink:href="classmodule__sf__noahlsm.html#adacf01be4e33445ea186feffce24eb35" target="_top" xlink:title="module_sf_noahlsm::\lhstep">
<polygon fill="white" stroke="black" points="601.5,-235.5 601.5,-265.5 711.5,-265.5 711.5,-235.5 601.5,-235.5"/>
<text text-anchor="start" x="609.5" y="-253.5" font-family="Helvetica,sans-Serif" font-size="10.00">module_sf_noahlsm::</text>
<text text-anchor="middle" x="656.5" y="-242.5" font-family="Helvetica,sans-Serif" font-size="10.00">hstep</text>
</a>
</g>
</g>
<!-- Node22&#45;&gt;Node28 -->
<g id="edge29" class="edge"><title>Node22&#45;&gt;Node28</title>
<path fill="none" stroke="midnightblue" d="M560.396,-267.04C570.414,-265.298 580.961,-263.463 591.238,-261.676"/>
<polygon fill="midnightblue" stroke="midnightblue" points="592.143,-265.071 601.395,-259.91 590.943,-258.175 592.143,-265.071"/>
</g>
<!-- Node23&#45;&gt;Node8 -->
<g id="edge28" class="edge"><title>Node23&#45;&gt;Node8</title>
<path fill="none" stroke="midnightblue" d="M682.615,-304.007C705.103,-312.52 738.731,-325.25 766.595,-335.798"/>
<polygon fill="midnightblue" stroke="midnightblue" points="765.591,-339.16 776.183,-339.427 768.07,-332.614 765.591,-339.16"/>
</g>
<!-- Node24 -->
<g id="node24" class="node"><title>Node24</title>
<g id="a_node24"><a xlink:href="classmodule__sf__noahlsm.html#a578d0dc05848d5bc7fb823e379da5cdd" target="_top" xlink:title="module_sf_noahlsm::tbnd">
<polygon fill="white" stroke="black" points="753,-301 753,-320 881,-320 881,-301 753,-301"/>
<text text-anchor="middle" x="817" y="-308" font-family="Helvetica,sans-Serif" font-size="10.00">module_sf_noahlsm::tbnd</text>
</a>
</g>
</g>
<!-- Node23&#45;&gt;Node24 -->
<g id="edge24" class="edge"><title>Node23&#45;&gt;Node24</title>
<path fill="none" stroke="midnightblue" d="M717.422,-300.549C725.649,-301.379 734.172,-302.24 742.605,-303.091"/>
<polygon fill="midnightblue" stroke="midnightblue" points="742.522,-306.6 752.823,-304.122 743.225,-299.636 742.522,-306.6"/>
</g>
<!-- Node25 -->
<g id="node25" class="node"><title>Node25</title>
<g id="a_node25"><a xlink:href="classmodule__sf__noahlsm.html#ab786b4f52dbea2106470993f2ea20e69" target="_top" xlink:title="module_sf_noahlsm::\ltmpavg">
<polygon fill="white" stroke="black" points="762,-251.5 762,-281.5 872,-281.5 872,-251.5 762,-251.5"/>
<text text-anchor="start" x="770" y="-269.5" font-family="Helvetica,sans-Serif" font-size="10.00">module_sf_noahlsm::</text>
<text text-anchor="middle" x="817" y="-258.5" font-family="Helvetica,sans-Serif" font-size="10.00">tmpavg</text>
</a>
</g>
</g>
<!-- Node23&#45;&gt;Node25 -->
<g id="edge25" class="edge"><title>Node23&#45;&gt;Node25</title>
<path fill="none" stroke="midnightblue" d="M711.603,-284.942C724.538,-282.657 738.47,-280.196 751.811,-277.839"/>
<polygon fill="midnightblue" stroke="midnightblue" points="752.633,-281.248 761.872,-276.062 751.415,-274.355 752.633,-281.248"/>
</g>
<!-- Node26 -->
<g id="node26" class="node"><title>Node26</title>
<g id="a_node26"><a xlink:href="classmodule__sf__noahlsm.html#a5d089c57c48085d25b95857c682922da" target="_top" xlink:title="module_sf_noahlsm::\lsnksrc">
<polygon fill="white" stroke="black" points="762,-202.5 762,-232.5 872,-232.5 872,-202.5 762,-202.5"/>
<text text-anchor="start" x="770" y="-220.5" font-family="Helvetica,sans-Serif" font-size="10.00">module_sf_noahlsm::</text>
<text text-anchor="middle" x="817" y="-209.5" font-family="Helvetica,sans-Serif" font-size="10.00">snksrc</text>
</a>
</g>
</g>
<!-- Node23&#45;&gt;Node26 -->
<g id="edge26" class="edge"><title>Node23&#45;&gt;Node26</title>
<path fill="none" stroke="midnightblue" d="M696.002,-284.905C703.221,-282.364 710.527,-279.254 717,-275.5 735.776,-264.611 734.609,-254.027 753,-242.5 756.125,-240.541 759.43,-238.687 762.822,-236.942"/>
<polygon fill="midnightblue" stroke="midnightblue" points="764.436,-240.05 771.947,-232.578 761.416,-233.735 764.436,-240.05"/>
</g>
<!-- Node27 -->
<g id="node27" class="node"><title>Node27</title>
<g id="a_node27"><a xlink:href="classmodule__sf__noahlsm.html#a5beb42f74e1a357ccfc0e904f356b33a" target="_top" xlink:title="module_sf_noahlsm::\lfrh2o">
<polygon fill="white" stroke="black" points="917,-202.5 917,-232.5 1027,-232.5 1027,-202.5 917,-202.5"/>
<text text-anchor="start" x="925" y="-220.5" font-family="Helvetica,sans-Serif" font-size="10.00">module_sf_noahlsm::</text>
<text text-anchor="middle" x="972" y="-209.5" font-family="Helvetica,sans-Serif" font-size="10.00">frh2o</text>
</a>
</g>
</g>
<!-- Node26&#45;&gt;Node27 -->
<g id="edge27" class="edge"><title>Node26&#45;&gt;Node27</title>
<path fill="none" stroke="midnightblue" d="M872.373,-217.5C883.421,-217.5 895.142,-217.5 906.502,-217.5"/>
<polygon fill="midnightblue" stroke="midnightblue" points="906.802,-221 916.802,-217.5 906.802,-214 906.802,-221"/>
</g>
<!-- Node28&#45;&gt;Node21 -->
<g id="edge30" class="edge"><title>Node28&#45;&gt;Node21</title>
<path fill="none" stroke="midnightblue" d="M700.757,-235.379C706.396,-232.744 711.958,-229.78 717,-226.5 725.631,-220.886 767.363,-179.471 793.815,-152.903"/>
<polygon fill="midnightblue" stroke="midnightblue" points="796.588,-155.078 801.155,-145.518 791.623,-150.143 796.588,-155.078"/>
</g>
<!-- Node29&#45;&gt;Node13 -->
<g id="edge32" class="edge"><title>Node29&#45;&gt;Node13</title>
<path fill="none" stroke="midnightblue" d="M409.154,-249.481C420.611,-245.98 432.93,-242.216 444.772,-238.597"/>
<polygon fill="midnightblue" stroke="midnightblue" points="446.038,-241.87 454.579,-235.601 443.992,-235.176 446.038,-241.87"/>
</g>
<!-- Node29&#45;&gt;Node16 -->
<g id="edge33" class="edge"><title>Node29&#45;&gt;Node16</title>
<path fill="none" stroke="midnightblue" d="M399.859,-249.381C404.829,-246.759 409.677,-243.798 414,-240.5 434.089,-225.176 432.958,-215.155 450,-196.5 459.508,-186.092 470.533,-175.097 480.133,-165.836"/>
<polygon fill="midnightblue" stroke="midnightblue" points="482.659,-168.263 487.471,-158.824 477.823,-163.203 482.659,-168.263"/>
</g>
<!-- Node29&#45;&gt;Node22 -->
<g id="edge34" class="edge"><title>Node29&#45;&gt;Node22</title>
<path fill="none" stroke="midnightblue" d="M414.03,-269.002C422.405,-269.7 431.126,-270.427 439.7,-271.142"/>
<polygon fill="midnightblue" stroke="midnightblue" points="439.411,-274.63 449.667,-271.972 439.992,-267.654 439.411,-274.63"/>
</g>
<!-- Node30 -->
<g id="node30" class="node"><title>Node30</title>
<g id="a_node30"><a xlink:href="classmodule__sf__noahlsm.html#ae6d35ff66196a3ab369a3e87149ddcdc" target="_top" xlink:title="module_sf_noahlsm::\lsnowpack">
<polygon fill="white" stroke="black" points="450,-79.5 450,-109.5 560,-109.5 560,-79.5 450,-79.5"/>
<text text-anchor="start" x="458" y="-97.5" font-family="Helvetica,sans-Serif" font-size="10.00">module_sf_noahlsm::</text>
<text text-anchor="middle" x="505" y="-86.5" font-family="Helvetica,sans-Serif" font-size="10.00">snowpack</text>
</a>
</g>
</g>
<!-- Node29&#45;&gt;Node30 -->
<g id="edge35" class="edge"><title>Node29&#45;&gt;Node30</title>
<path fill="none" stroke="midnightblue" d="M403.641,-249.367C407.476,-246.831 411.024,-243.894 414,-240.5 451.267,-197.989 412.733,-161.011 450,-118.5 450.744,-117.651 451.524,-116.831 452.335,-116.039"/>
<polygon fill="midnightblue" stroke="midnightblue" points="454.728,-118.607 460.359,-109.633 450.361,-113.137 454.728,-118.607"/>
</g>
</g>
</svg>
        <g id="navigator" transform="translate(0 0)" fill="#404254">
                <rect fill="#f2f5e9" fill-opacity="0.5" stroke="#606060" stroke-width=".5" x="0" y="0" width="60" height="60"/>
                <use id="zoomplus" xlink:href="#zoomPlus" x="17" y="9" onmousedown="handleZoom(evt,'in')"/>
                <use id="zoomminus" xlink:href="#zoomMin" x="42" y="9" onmousedown="handleZoom(evt,'out')"/>
                <use id="reset" xlink:href="#resetDef" x="30" y="36" onmousedown="handleReset()"/>
                <g id="arrowUp" xlink:href="#dirArrow" transform="translate(30 24)" onmousedown="handlePan(0,-1)">
                  <use xlink:href="#rim" fill="#404040">
                        <set attributeName="fill" to="#808080" begin="arrowUp.mouseover" end="arrowUp.mouseout"/>
                  </use>
                  <path fill="none" stroke="white" stroke-width="1.5" d="M0,-3.0v7 M-2.5,-0.5L0,-3.0L2.5,-0.5"/>
                </g>
                <g id="arrowRight" xlink:href="#dirArrow" transform="rotate(90) translate(36 -43)" onmousedown="handlePan(1,0)">
                  <use xlink:href="#rim" fill="#404040">
                        <set attributeName="fill" to="#808080" begin="arrowRight.mouseover" end="arrowRight.mouseout"/>
                  </use>
                  <path fill="none" stroke="white" stroke-width="1.5" d="M0,-3.0v7 M-2.5,-0.5L0,-3.0L2.5,-0.5"/>
                </g>
                <g id="arrowDown" xlink:href="#dirArrow" transform="rotate(180) translate(-30 -48)" onmousedown="handlePan(0,1)">
                  <use xlink:href="#rim" fill="#404040">
                        <set attributeName="fill" to="#808080" begin="arrowDown.mouseover" end="arrowDown.mouseout"/>
                  </use>
                  <path fill="none" stroke="white" stroke-width="1.5" d="M0,-3.0v7 M-2.5,-0.5L0,-3.0L2.5,-0.5"/>
                </g>
                <g id="arrowLeft" xlink:href="#dirArrow" transform="rotate(270) translate(-36 17)" onmousedown="handlePan(-1,0)">
                  <use xlink:href="#rim" fill="#404040">
                        <set attributeName="fill" to="#808080" begin="arrowLeft.mouseover" end="arrowLeft.mouseout"/>
                  </use>
                  <path fill="none" stroke="white" stroke-width="1.5" d="M0,-3.0v7 M-2.5,-0.5L0,-3.0L2.5,-0.5"/>
                </g>
        </g>
        <svg viewBox="0 0 15 15" width="100%" height="30px" preserveAspectRatio="xMaxYMin meet">
         <g id="arrow_out" transform="scale(0.3 0.3)">
          <a xlink:href="classmodule__sf__noahdrv_a329dccdd0c1fc2797bc8ebcc9bcc0ff6_cgraph_org.svg" target="_base">
           <rect id="button" ry="5" rx="5" y="6" x="6" height="38" width="38"
                fill="#f2f5e9" fill-opacity="0.5" stroke="#606060" stroke-width="1.0"/>
           <path id="arrow"
             d="M 11.500037,31.436501 C 11.940474,20.09759 22.043105,11.32322 32.158766,21.979434 L 37.068811,17.246167 C 37.068811,17.246167 37.088388,32 37.088388,32 L 22.160133,31.978069 C 22.160133,31.978069 26.997745,27.140456 26.997745,27.140456 C 18.528582,18.264221 13.291696,25.230495 11.500037,31.436501 z"
             style="fill:#404040;"/>
          </a>
         </g>
        </svg>
</svg>
