<?xml version="1.0" encoding="UTF-8" standalone="no"?>
<!DOCTYPE svg PUBLIC "-//W3C//DTD SVG 1.1//EN"
 "http://www.w3.org/Graphics/SVG/1.1/DTD/svg11.dtd">
<!-- Generated by graphviz version 2.38.0 (20140413.2041)
 -->
<!-- Title: linear_theory_winds::calc_dry_stability Pages: 1 -->
<svg width="888pt" height="88pt"
 viewBox="0.00 0.00 888.00 88.00" xmlns="http://www.w3.org/2000/svg" xmlns:xlink="http://www.w3.org/1999/xlink">
<g id="graph0" class="graph" transform="scale(1 1) rotate(0) translate(4 84)">
<title>linear_theory_winds::calc_dry_stability</title>
<polygon fill="white" stroke="none" points="-4,4 -4,-84 884,-84 884,4 -4,4"/>
<!-- Node1 -->
<g id="node1" class="node"><title>Node1</title>
<polygon fill="#bfbfbf" stroke="black" points="0,-24.5 0,-54.5 103,-54.5 103,-24.5 0,-24.5"/>
<text text-anchor="start" x="8" y="-42.5" font-family="Helvetica,sans-Serif" font-size="10.00">linear_theory_winds</text>
<text text-anchor="middle" x="51.5" y="-31.5" font-family="Helvetica,sans-Serif" font-size="10.00">::calc_dry_stability</text>
</g>
<!-- Node2 -->
<g id="node2" class="node"><title>Node2</title>
<g id="a_node2"><a xlink:href="classlinear__theory__winds.html#a027dc1b837380d8d4fbe2e9689e9ed46" target="_top" xlink:title="linear_theory_winds\l::calc_stability">
<polygon fill="white" stroke="black" points="139,-24.5 139,-54.5 242,-54.5 242,-24.5 139,-24.5"/>
<text text-anchor="start" x="147" y="-42.5" font-family="Helvetica,sans-Serif" font-size="10.00">linear_theory_winds</text>
<text text-anchor="middle" x="190.5" y="-31.5" font-family="Helvetica,sans-Serif" font-size="10.00">::calc_stability</text>
</a>
</g>
</g>
<!-- Node1&#45;&gt;Node2 -->
<g id="edge1" class="edge"><title>Node1&#45;&gt;Node2</title>
<path fill="none" stroke="midnightblue" d="M113.32,-39.5C121.772,-39.5 130.382,-39.5 138.626,-39.5"/>
<polygon fill="midnightblue" stroke="midnightblue" points="113.125,-36.0001 103.125,-39.5 113.124,-43.0001 113.125,-36.0001"/>
</g>
<!-- Node3 -->
<g id="node3" class="node"><title>Node3</title>
<g id="a_node3"><a xlink:href="classlinear__theory__winds.html#a2e662c05e82b0515704c9ab54f49373a" target="_top" xlink:title="linear_theory_winds\l::spatial_winds">
<polygon fill="white" stroke="black" points="278,-24.5 278,-54.5 381,-54.5 381,-24.5 278,-24.5"/>
<text text-anchor="start" x="286" y="-42.5" font-family="Helvetica,sans-Serif" font-size="10.00">linear_theory_winds</text>
<text text-anchor="middle" x="329.5" y="-31.5" font-family="Helvetica,sans-Serif" font-size="10.00">::spatial_winds</text>
</a>
</g>
</g>
<!-- Node2&#45;&gt;Node3 -->
<g id="edge2" class="edge"><title>Node2&#45;&gt;Node3</title>
<path fill="none" stroke="midnightblue" d="M252.32,-39.5C260.772,-39.5 269.382,-39.5 277.626,-39.5"/>
<polygon fill="midnightblue" stroke="midnightblue" points="252.125,-36.0001 242.125,-39.5 252.124,-43.0001 252.125,-36.0001"/>
</g>
<!-- Node4 -->
<g id="node4" class="node"><title>Node4</title>
<g id="a_node4"><a xlink:href="classlinear__theory__winds.html#a248a832d459ec9cd399c372d2ae9cb0a" target="_top" xlink:title="linear_theory_winds\l::linear_perturb">
<polygon fill="white" stroke="black" points="417,-24.5 417,-54.5 520,-54.5 520,-24.5 417,-24.5"/>
<text text-anchor="start" x="425" y="-42.5" font-family="Helvetica,sans-Serif" font-size="10.00">linear_theory_winds</text>
<text text-anchor="middle" x="468.5" y="-31.5" font-family="Helvetica,sans-Serif" font-size="10.00">::linear_perturb</text>
</a>
</g>
</g>
<!-- Node3&#45;&gt;Node4 -->
<g id="edge3" class="edge"><title>Node3&#45;&gt;Node4</title>
<path fill="none" stroke="midnightblue" d="M391.32,-39.5C399.772,-39.5 408.382,-39.5 416.626,-39.5"/>
<polygon fill="midnightblue" stroke="midnightblue" points="391.125,-36.0001 381.125,-39.5 391.124,-43.0001 391.125,-36.0001"/>
</g>
<!-- Node5 -->
<g id="node5" class="node"><title>Node5</title>
<g id="a_node5"><a xlink:href="classboundary__conditions.html#ac4cfb5127bfecdc6e088ef949694ea4a" target="_top" xlink:title=" Remove linear theory topographic winds perturbations from the low resolution wind field...">
<polygon fill="white" stroke="black" points="556,-46.5 556,-76.5 670,-76.5 670,-46.5 556,-46.5"/>
<text text-anchor="start" x="564" y="-64.5" font-family="Helvetica,sans-Serif" font-size="10.00">boundary_conditions</text>
<text text-anchor="middle" x="613" y="-53.5" font-family="Helvetica,sans-Serif" font-size="10.00">::remove_linear_winds</text>
</a>
</g>
</g>
<!-- Node4&#45;&gt;Node5 -->
<g id="edge4" class="edge"><title>Node4&#45;&gt;Node5</title>
<path fill="none" stroke="midnightblue" d="M530.295,-48.886C538.728,-50.1878 547.36,-51.5205 555.706,-52.809"/>
<polygon fill="midnightblue" stroke="midnightblue" points="530.558,-45.3852 520.141,-47.3183 529.49,-52.3032 530.558,-45.3852"/>
</g>
<!-- Node9 -->
<g id="node9" class="node"><title>Node9</title>
<g id="a_node9"><a xlink:href="classwind.html#a582192f02996b37543b966df84af1e78" target="_top" xlink:title="wind::update_winds">
<polygon fill="white" stroke="black" points="561.5,-8 561.5,-27 664.5,-27 664.5,-8 561.5,-8"/>
<text text-anchor="middle" x="613" y="-15" font-family="Helvetica,sans-Serif" font-size="10.00">wind::update_winds</text>
</a>
</g>
</g>
<!-- Node4&#45;&gt;Node9 -->
<g id="edge9" class="edge"><title>Node4&#45;&gt;Node9</title>
<path fill="none" stroke="midnightblue" d="M530.265,-30.1188C540.519,-28.5357 551.07,-26.9068 561.042,-25.3673"/>
<polygon fill="midnightblue" stroke="midnightblue" points="529.49,-26.6968 520.141,-31.6817 530.558,-33.6148 529.49,-26.6968"/>
</g>
<!-- Node6 -->
<g id="node6" class="node"><title>Node6</title>
<g id="a_node6"><a xlink:href="classboundary__conditions.html#a07a42f467f470ada98e0a35fd5a75f66" target="_top" xlink:title=" Initialize the boundary conditions (read inital conditions, etc.) ">
<polygon fill="white" stroke="black" points="706,-49.5 706,-79.5 812,-79.5 812,-49.5 706,-49.5"/>
<text text-anchor="start" x="714" y="-67.5" font-family="Helvetica,sans-Serif" font-size="10.00">boundary_conditions</text>
<text text-anchor="middle" x="759" y="-56.5" font-family="Helvetica,sans-Serif" font-size="10.00">::bc_init</text>
</a>
</g>
</g>
<!-- Node5&#45;&gt;Node6 -->
<g id="edge5" class="edge"><title>Node5&#45;&gt;Node6</title>
<path fill="none" stroke="midnightblue" d="M680.338,-62.882C688.811,-63.0586 697.389,-63.2373 705.599,-63.4083"/>
<polygon fill="midnightblue" stroke="midnightblue" points="680.157,-59.3776 670.086,-62.6685 680.011,-66.3761 680.157,-59.3776"/>
</g>
<!-- Node8 -->
<g id="node8" class="node"><title>Node8</title>
<g id="a_node8"><a xlink:href="classboundary__conditions.html#a1e8385c37634f3d7f70ea7c749dcda11" target="_top" xlink:title=" Read in the next timestep of input data and apply to the dXdt grids as appropriate. ">
<polygon fill="white" stroke="black" points="706,-0.5 706,-30.5 812,-30.5 812,-0.5 706,-0.5"/>
<text text-anchor="start" x="714" y="-18.5" font-family="Helvetica,sans-Serif" font-size="10.00">boundary_conditions</text>
<text text-anchor="middle" x="759" y="-7.5" font-family="Helvetica,sans-Serif" font-size="10.00">::bc_update</text>
</a>
</g>
</g>
<!-- Node5&#45;&gt;Node8 -->
<g id="edge7" class="edge"><title>Node5&#45;&gt;Node8</title>
<path fill="none" stroke="midnightblue" d="M671.045,-43.2772C684.202,-39.0743 698.056,-34.6487 710.743,-30.596"/>
<polygon fill="midnightblue" stroke="midnightblue" points="669.612,-40.0608 661.151,-46.4379 671.742,-46.7289 669.612,-40.0608"/>
</g>
<!-- Node7 -->
<g id="node7" class="node"><title>Node7</title>
<g id="a_node7"><a xlink:href="driver_8f90.html#ab1e5a5816a57fc6e95d9563c2bb53590" target="_top" xlink:title=" Main Program ">
<polygon fill="white" stroke="black" points="848,-30 848,-49 880,-49 880,-30 848,-30"/>
<text text-anchor="middle" x="864" y="-37" font-family="Helvetica,sans-Serif" font-size="10.00">icar</text>
</a>
</g>
</g>
<!-- Node6&#45;&gt;Node7 -->
<g id="edge6" class="edge"><title>Node6&#45;&gt;Node7</title>
<path fill="none" stroke="midnightblue" d="M822.071,-49.4343C831.517,-47.1414 840.468,-44.9689 847.576,-43.2436"/>
<polygon fill="midnightblue" stroke="midnightblue" points="820.996,-46.0935 812.104,-51.8535 822.647,-52.896 820.996,-46.0935"/>
</g>
<!-- Node8&#45;&gt;Node7 -->
<g id="edge8" class="edge"><title>Node8&#45;&gt;Node7</title>
<path fill="none" stroke="midnightblue" d="M822.071,-29.9631C831.517,-32.1642 840.468,-34.2498 847.576,-35.9061"/>
<polygon fill="midnightblue" stroke="midnightblue" points="822.637,-26.5013 812.104,-27.6406 821.048,-33.3187 822.637,-26.5013"/>
</g>
<!-- Node9&#45;&gt;Node6 -->
<g id="edge10" class="edge"><title>Node9&#45;&gt;Node6</title>
<path fill="none" stroke="midnightblue" d="M652.84,-30.1768C671.041,-36.1175 692.859,-43.2388 711.893,-49.4512"/>
<polygon fill="midnightblue" stroke="midnightblue" points="653.733,-26.7868 643.141,-27.0112 651.561,-33.4413 653.733,-26.7868"/>
</g>
<!-- Node9&#45;&gt;Node8 -->
<g id="edge11" class="edge"><title>Node9&#45;&gt;Node8</title>
<path fill="none" stroke="midnightblue" d="M674.895,-16.6542C685.156,-16.5117 695.725,-16.3649 705.742,-16.2258"/>
<polygon fill="midnightblue" stroke="midnightblue" points="674.719,-13.1562 664.769,-16.7949 674.817,-20.1556 674.719,-13.1562"/>
</g>
</g>
</svg>
