<?xml version="1.0" encoding="UTF-8" standalone="no"?>
<!DOCTYPE svg PUBLIC "-//W3C//DTD SVG 1.1//EN"
 "http://www.w3.org/Graphics/SVG/1.1/DTD/svg11.dtd">
<!-- Generated by graphviz version 2.38.0 (20140413.2041)
 -->
<!-- Title: linear_theory_lut_disk_io::check_dz Pages: 1 -->
<svg width="1062pt" height="88pt"
 viewBox="0.00 0.00 1062.00 88.00" xmlns="http://www.w3.org/2000/svg" xmlns:xlink="http://www.w3.org/1999/xlink">
<g id="graph0" class="graph" transform="scale(1 1) rotate(0) translate(4 84)">
<title>linear_theory_lut_disk_io::check_dz</title>
<polygon fill="white" stroke="none" points="-4,4 -4,-84 1058,-84 1058,4 -4,4"/>
<!-- Node1 -->
<g id="node1" class="node"><title>Node1</title>
<polygon fill="#bfbfbf" stroke="black" points="0,-24.5 0,-54.5 111,-54.5 111,-24.5 0,-24.5"/>
<text text-anchor="start" x="8" y="-42.5" font-family="Helvetica,sans-Serif" font-size="10.00">linear_theory_lut_disk</text>
<text text-anchor="middle" x="55.5" y="-31.5" font-family="Helvetica,sans-Serif" font-size="10.00">_io::check_dz</text>
</g>
<!-- Node2 -->
<g id="node2" class="node"><title>Node2</title>
<g id="a_node2"><a xlink:href="classlinear__theory__lut__disk__io.html#a7b4e839b4cee03c05190479e277bc34a" target="_top" xlink:title=" Write linear wind look up tables to disk along with the parameters for that table ...">
<polygon fill="white" stroke="black" points="147,-24.5 147,-54.5 258,-54.5 258,-24.5 147,-24.5"/>
<text text-anchor="start" x="155" y="-42.5" font-family="Helvetica,sans-Serif" font-size="10.00">linear_theory_lut_disk</text>
<text text-anchor="middle" x="202.5" y="-31.5" font-family="Helvetica,sans-Serif" font-size="10.00">_io::read_lut</text>
</a>
</g>
</g>
<!-- Node1&#45;&gt;Node2 -->
<g id="edge1" class="edge"><title>Node1&#45;&gt;Node2</title>
<path fill="none" stroke="midnightblue" d="M121.462,-39.5C129.859,-39.5 138.392,-39.5 146.604,-39.5"/>
<polygon fill="midnightblue" stroke="midnightblue" points="121.318,-36.0001 111.318,-39.5 121.318,-43.0001 121.318,-36.0001"/>
</g>
<!-- Node3 -->
<g id="node3" class="node"><title>Node3</title>
<g id="a_node3"><a xlink:href="classlinear__theory__winds.html#a1c7117dad74a51614a026a50aec8b988" target="_top" xlink:title="linear_theory_winds\l::initialize_spatial_winds">
<polygon fill="white" stroke="black" points="294,-24.5 294,-54.5 416,-54.5 416,-24.5 294,-24.5"/>
<text text-anchor="start" x="302" y="-42.5" font-family="Helvetica,sans-Serif" font-size="10.00">linear_theory_winds</text>
<text text-anchor="middle" x="355" y="-31.5" font-family="Helvetica,sans-Serif" font-size="10.00">::initialize_spatial_winds</text>
</a>
</g>
</g>
<!-- Node2&#45;&gt;Node3 -->
<g id="edge2" class="edge"><title>Node2&#45;&gt;Node3</title>
<path fill="none" stroke="midnightblue" d="M268.464,-39.5C276.926,-39.5 285.565,-39.5 293.942,-39.5"/>
<polygon fill="midnightblue" stroke="midnightblue" points="268.26,-36.0001 258.26,-39.5 268.26,-43.0001 268.26,-36.0001"/>
</g>
<!-- Node4 -->
<g id="node4" class="node"><title>Node4</title>
<g id="a_node4"><a xlink:href="classlinear__theory__winds.html#a5aed1fad471120ba77c203fa6158a5ba" target="_top" xlink:title="linear_theory_winds\l::setup_linwinds">
<polygon fill="white" stroke="black" points="452,-24.5 452,-54.5 555,-54.5 555,-24.5 452,-24.5"/>
<text text-anchor="start" x="460" y="-42.5" font-family="Helvetica,sans-Serif" font-size="10.00">linear_theory_winds</text>
<text text-anchor="middle" x="503.5" y="-31.5" font-family="Helvetica,sans-Serif" font-size="10.00">::setup_linwinds</text>
</a>
</g>
</g>
<!-- Node3&#45;&gt;Node4 -->
<g id="edge3" class="edge"><title>Node3&#45;&gt;Node4</title>
<path fill="none" stroke="midnightblue" d="M426.095,-39.5C434.734,-39.5 443.432,-39.5 451.706,-39.5"/>
<polygon fill="midnightblue" stroke="midnightblue" points="426.01,-36.0001 416.01,-39.5 426.01,-43.0001 426.01,-36.0001"/>
</g>
<!-- Node5 -->
<g id="node5" class="node"><title>Node5</title>
<g id="a_node5"><a xlink:href="classlinear__theory__winds.html#a248a832d459ec9cd399c372d2ae9cb0a" target="_top" xlink:title="linear_theory_winds\l::linear_perturb">
<polygon fill="white" stroke="black" points="591,-24.5 591,-54.5 694,-54.5 694,-24.5 591,-24.5"/>
<text text-anchor="start" x="599" y="-42.5" font-family="Helvetica,sans-Serif" font-size="10.00">linear_theory_winds</text>
<text text-anchor="middle" x="642.5" y="-31.5" font-family="Helvetica,sans-Serif" font-size="10.00">::linear_perturb</text>
</a>
</g>
</g>
<!-- Node4&#45;&gt;Node5 -->
<g id="edge4" class="edge"><title>Node4&#45;&gt;Node5</title>
<path fill="none" stroke="midnightblue" d="M565.32,-39.5C573.772,-39.5 582.382,-39.5 590.626,-39.5"/>
<polygon fill="midnightblue" stroke="midnightblue" points="565.125,-36.0001 555.125,-39.5 565.124,-43.0001 565.125,-36.0001"/>
</g>
<!-- Node6 -->
<g id="node6" class="node"><title>Node6</title>
<g id="a_node6"><a xlink:href="classboundary__conditions.html#ac4cfb5127bfecdc6e088ef949694ea4a" target="_top" xlink:title=" Remove linear theory topographic winds perturbations from the low resolution wind field...">
<polygon fill="white" stroke="black" points="730,-46.5 730,-76.5 844,-76.5 844,-46.5 730,-46.5"/>
<text text-anchor="start" x="738" y="-64.5" font-family="Helvetica,sans-Serif" font-size="10.00">boundary_conditions</text>
<text text-anchor="middle" x="787" y="-53.5" font-family="Helvetica,sans-Serif" font-size="10.00">::remove_linear_winds</text>
</a>
</g>
</g>
<!-- Node5&#45;&gt;Node6 -->
<g id="edge5" class="edge"><title>Node5&#45;&gt;Node6</title>
<path fill="none" stroke="midnightblue" d="M704.295,-48.886C712.728,-50.1878 721.36,-51.5205 729.706,-52.809"/>
<polygon fill="midnightblue" stroke="midnightblue" points="704.558,-45.3852 694.141,-47.3183 703.49,-52.3032 704.558,-45.3852"/>
</g>
<!-- Node10 -->
<g id="node10" class="node"><title>Node10</title>
<g id="a_node10"><a xlink:href="classwind.html#a582192f02996b37543b966df84af1e78" target="_top" xlink:title="wind::update_winds">
<polygon fill="white" stroke="black" points="735.5,-8 735.5,-27 838.5,-27 838.5,-8 735.5,-8"/>
<text text-anchor="middle" x="787" y="-15" font-family="Helvetica,sans-Serif" font-size="10.00">wind::update_winds</text>
</a>
</g>
</g>
<!-- Node5&#45;&gt;Node10 -->
<g id="edge10" class="edge"><title>Node5&#45;&gt;Node10</title>
<path fill="none" stroke="midnightblue" d="M704.265,-30.1188C714.519,-28.5357 725.07,-26.9068 735.042,-25.3673"/>
<polygon fill="midnightblue" stroke="midnightblue" points="703.49,-26.6968 694.141,-31.6817 704.558,-33.6148 703.49,-26.6968"/>
</g>
<!-- Node7 -->
<g id="node7" class="node"><title>Node7</title>
<g id="a_node7"><a xlink:href="classboundary__conditions.html#a07a42f467f470ada98e0a35fd5a75f66" target="_top" xlink:title=" Initialize the boundary conditions (read inital conditions, etc.) ">
<polygon fill="white" stroke="black" points="880,-49.5 880,-79.5 986,-79.5 986,-49.5 880,-49.5"/>
<text text-anchor="start" x="888" y="-67.5" font-family="Helvetica,sans-Serif" font-size="10.00">boundary_conditions</text>
<text text-anchor="middle" x="933" y="-56.5" font-family="Helvetica,sans-Serif" font-size="10.00">::bc_init</text>
</a>
</g>
</g>
<!-- Node6&#45;&gt;Node7 -->
<g id="edge6" class="edge"><title>Node6&#45;&gt;Node7</title>
<path fill="none" stroke="midnightblue" d="M854.338,-62.882C862.811,-63.0586 871.389,-63.2373 879.599,-63.4083"/>
<polygon fill="midnightblue" stroke="midnightblue" points="854.157,-59.3776 844.086,-62.6685 854.011,-66.3761 854.157,-59.3776"/>
</g>
<!-- Node9 -->
<g id="node9" class="node"><title>Node9</title>
<g id="a_node9"><a xlink:href="classboundary__conditions.html#a1e8385c37634f3d7f70ea7c749dcda11" target="_top" xlink:title=" Read in the next timestep of input data and apply to the dXdt grids as appropriate. ">
<polygon fill="white" stroke="black" points="880,-0.5 880,-30.5 986,-30.5 986,-0.5 880,-0.5"/>
<text text-anchor="start" x="888" y="-18.5" font-family="Helvetica,sans-Serif" font-size="10.00">boundary_conditions</text>
<text text-anchor="middle" x="933" y="-7.5" font-family="Helvetica,sans-Serif" font-size="10.00">::bc_update</text>
</a>
</g>
</g>
<!-- Node6&#45;&gt;Node9 -->
<g id="edge8" class="edge"><title>Node6&#45;&gt;Node9</title>
<path fill="none" stroke="midnightblue" d="M845.045,-43.2772C858.202,-39.0743 872.056,-34.6487 884.743,-30.596"/>
<polygon fill="midnightblue" stroke="midnightblue" points="843.612,-40.0608 835.151,-46.4379 845.742,-46.7289 843.612,-40.0608"/>
</g>
<!-- Node8 -->
<g id="node8" class="node"><title>Node8</title>
<g id="a_node8"><a xlink:href="driver_8f90.html#ab1e5a5816a57fc6e95d9563c2bb53590" target="_top" xlink:title=" Main Program ">
<polygon fill="white" stroke="black" points="1022,-30 1022,-49 1054,-49 1054,-30 1022,-30"/>
<text text-anchor="middle" x="1038" y="-37" font-family="Helvetica,sans-Serif" font-size="10.00">icar</text>
</a>
</g>
</g>
<!-- Node7&#45;&gt;Node8 -->
<g id="edge7" class="edge"><title>Node7&#45;&gt;Node8</title>
<path fill="none" stroke="midnightblue" d="M996.071,-49.4343C1005.52,-47.1414 1014.47,-44.9689 1021.58,-43.2436"/>
<polygon fill="midnightblue" stroke="midnightblue" points="994.996,-46.0935 986.104,-51.8535 996.647,-52.896 994.996,-46.0935"/>
</g>
<!-- Node9&#45;&gt;Node8 -->
<g id="edge9" class="edge"><title>Node9&#45;&gt;Node8</title>
<path fill="none" stroke="midnightblue" d="M996.071,-29.9631C1005.52,-32.1642 1014.47,-34.2498 1021.58,-35.9061"/>
<polygon fill="midnightblue" stroke="midnightblue" points="996.637,-26.5013 986.104,-27.6406 995.048,-33.3187 996.637,-26.5013"/>
</g>
<!-- Node10&#45;&gt;Node7 -->
<g id="edge11" class="edge"><title>Node10&#45;&gt;Node7</title>
<path fill="none" stroke="midnightblue" d="M826.84,-30.1768C845.041,-36.1175 866.859,-43.2388 885.893,-49.4512"/>
<polygon fill="midnightblue" stroke="midnightblue" points="827.733,-26.7868 817.141,-27.0112 825.561,-33.4413 827.733,-26.7868"/>
</g>
<!-- Node10&#45;&gt;Node9 -->
<g id="edge12" class="edge"><title>Node10&#45;&gt;Node9</title>
<path fill="none" stroke="midnightblue" d="M848.895,-16.6542C859.156,-16.5117 869.725,-16.3649 879.742,-16.2258"/>
<polygon fill="midnightblue" stroke="midnightblue" points="848.719,-13.1562 838.769,-16.7949 848.817,-20.1556 848.719,-13.1562"/>
</g>
</g>
</svg>
