<?xml version="1.0" encoding="UTF-8" standalone="no"?>
<!DOCTYPE svg PUBLIC "-//W3C//DTD SVG 1.1//EN"
 "http://www.w3.org/Graphics/SVG/1.1/DTD/svg11.dtd">
<!-- Generated by graphviz version 2.32.0 (20130809.1645)
 -->
<!-- Title: geo::bilin_weights Pages: 1 -->
<svg width="628pt" height="47pt"
 viewBox="0.00 0.00 628.00 47.00" xmlns="http://www.w3.org/2000/svg" xmlns:xlink="http://www.w3.org/1999/xlink">
<g id="graph0" class="graph" transform="scale(1 1) rotate(0) translate(4 43)">
<title>geo::bilin_weights</title>
<polygon fill="white" stroke="white" points="-4,5 -4,-43 625,-43 625,5 -4,5"/>
<!-- Node1 -->
<g id="node1" class="node"><title>Node1</title>
<polygon fill="#bfbfbf" stroke="black" points="0.5,-0.5 0.5,-19.5 95.5,-19.5 95.5,-0.5 0.5,-0.5"/>
<text text-anchor="middle" x="48" y="-7.5" font-family="Helvetica,sans-Serif" font-size="10.00">geo::bilin_weights</text>
</g>
<!-- Node2 -->
<g id="node2" class="node"><title>Node2</title>
<g id="a_node2"><a xlink:href="classgeo.html#aa64883699f3b5a3f3b75da0b101a8a57" target="_top" xlink:title="geo::geo_lut">
<polygon fill="white" stroke="black" points="132,-0.5 132,-19.5 202,-19.5 202,-0.5 132,-0.5"/>
<text text-anchor="middle" x="167" y="-7.5" font-family="Helvetica,sans-Serif" font-size="10.00">geo::geo_lut</text>
</a>
</g>
</g>
<!-- Node1&#45;&gt;Node2 -->
<g id="edge1" class="edge"><title>Node1&#45;&gt;Node2</title>
<path fill="none" stroke="midnightblue" d="M105.625,-10C114.585,-10 123.605,-10 131.841,-10"/>
<polygon fill="midnightblue" stroke="midnightblue" points="105.578,-6.5001 95.5777,-10 105.578,-13.5001 105.578,-6.5001"/>
</g>
<!-- Node3 -->
<g id="node3" class="node"><title>Node3</title>
<g id="a_node3"><a xlink:href="classinit.html#a8b5935b5b45a47c58fdd67157c16764b" target="_top" xlink:title="init::init_ext_winds">
<polygon fill="white" stroke="black" points="238,-19.5 238,-38.5 336,-38.5 336,-19.5 238,-19.5"/>
<text text-anchor="middle" x="287" y="-26.5" font-family="Helvetica,sans-Serif" font-size="10.00">init::init_ext_winds</text>
</a>
</g>
</g>
<!-- Node2&#45;&gt;Node3 -->
<g id="edge2" class="edge"><title>Node2&#45;&gt;Node3</title>
<path fill="none" stroke="midnightblue" d="M212.125,-17.1049C220.535,-18.4591 229.377,-19.8827 237.904,-21.2557"/>
<polygon fill="midnightblue" stroke="midnightblue" points="212.56,-13.6299 202.13,-15.4956 211.447,-20.5409 212.56,-13.6299"/>
</g>
<!-- Node4 -->
<g id="node4" class="node"><title>Node4</title>
<g id="a_node4"><a xlink:href="classinit.html#a1c6cab46bb16bea719da3b193c43ccb3" target="_top" xlink:title="init::init_bc">
<polygon fill="white" stroke="black" points="372,-0.5 372,-19.5 436,-19.5 436,-0.5 372,-0.5"/>
<text text-anchor="middle" x="404" y="-7.5" font-family="Helvetica,sans-Serif" font-size="10.00">init::init_bc</text>
</a>
</g>
</g>
<!-- Node2&#45;&gt;Node4 -->
<g id="edge6" class="edge"><title>Node2&#45;&gt;Node4</title>
<path fill="none" stroke="midnightblue" d="M212.271,-10C258.82,-10 330.868,-10 371.792,-10"/>
<polygon fill="midnightblue" stroke="midnightblue" points="212.171,-6.5001 202.171,-10 212.171,-13.5001 212.171,-6.5001"/>
</g>
<!-- Node3&#45;&gt;Node4 -->
<g id="edge3" class="edge"><title>Node3&#45;&gt;Node4</title>
<path fill="none" stroke="midnightblue" d="M346.082,-19.4038C354.953,-17.9382 363.805,-16.4757 371.794,-15.1558"/>
<polygon fill="midnightblue" stroke="midnightblue" points="345.4,-15.969 336.104,-21.0524 346.541,-22.8754 345.4,-15.969"/>
</g>
<!-- Node5 -->
<g id="node5" class="node"><title>Node5</title>
<g id="a_node5"><a xlink:href="classinit.html#a1dd1e2b38eef39cba464f65c9ce82568" target="_top" xlink:title="init::init_model">
<polygon fill="white" stroke="black" points="472,-0.5 472,-19.5 552,-19.5 552,-0.5 472,-0.5"/>
<text text-anchor="middle" x="512" y="-7.5" font-family="Helvetica,sans-Serif" font-size="10.00">init::init_model</text>
</a>
</g>
</g>
<!-- Node4&#45;&gt;Node5 -->
<g id="edge4" class="edge"><title>Node4&#45;&gt;Node5</title>
<path fill="none" stroke="midnightblue" d="M446.472,-10C454.778,-10 463.48,-10 471.708,-10"/>
<polygon fill="midnightblue" stroke="midnightblue" points="446.23,-6.5001 436.23,-10 446.23,-13.5001 446.23,-6.5001"/>
</g>
<!-- Node6 -->
<g id="node6" class="node"><title>Node6</title>
<g id="a_node6"><a xlink:href="driver_8f90.html#ab1e5a5816a57fc6e95d9563c2bb53590" target="_top" xlink:title=" Main Program ">
<polygon fill="white" stroke="black" points="588,-0.5 588,-19.5 620,-19.5 620,-0.5 588,-0.5"/>
<text text-anchor="middle" x="604" y="-7.5" font-family="Helvetica,sans-Serif" font-size="10.00">icar</text>
</a>
</g>
</g>
<!-- Node5&#45;&gt;Node6 -->
<g id="edge5" class="edge"><title>Node5&#45;&gt;Node6</title>
<path fill="none" stroke="midnightblue" d="M562.233,-10C571.449,-10 580.425,-10 587.599,-10"/>
<polygon fill="midnightblue" stroke="midnightblue" points="562.214,-6.5001 552.213,-10 562.213,-13.5001 562.214,-6.5001"/>
</g>
</g>
</svg>
