<?xml version="1.0" encoding="UTF-8" standalone="no"?>
<!DOCTYPE svg PUBLIC "-//W3C//DTD SVG 1.1//EN"
 "http://www.w3.org/Graphics/SVG/1.1/DTD/svg11.dtd">
<!-- Generated by graphviz version 2.38.0 (20140413.2041)
 -->
<!-- Title: module_mp_thompson::mp_thompson Pages: 1 -->
<svg width="274pt" height="88pt"
 viewBox="0.00 0.00 274.00 88.00" xmlns="http://www.w3.org/2000/svg" xmlns:xlink="http://www.w3.org/1999/xlink">
<g id="graph0" class="graph" transform="scale(1 1) rotate(0) translate(4 84)">
<title>module_mp_thompson::mp_thompson</title>
<polygon fill="white" stroke="none" points="-4,4 -4,-84 270,-84 270,4 -4,4"/>
<!-- Node1 -->
<g id="node1" class="node"><title>Node1</title>
<polygon fill="#bfbfbf" stroke="black" points="0,-24.5 0,-54.5 115,-54.5 115,-24.5 0,-24.5"/>
<text text-anchor="start" x="8" y="-42.5" font-family="Helvetica,sans-Serif" font-size="10.00">module_mp_thompson</text>
<text text-anchor="middle" x="57.5" y="-31.5" font-family="Helvetica,sans-Serif" font-size="10.00">::mp_thompson</text>
</g>
<!-- Node2 -->
<g id="node2" class="node"><title>Node2</title>
<g id="a_node2"><a xlink:href="classmodule__mp__thompson.html#a1dec755eb8c0e1e28e03af70d9817b96" target="_top" xlink:title="module_mp_thompson\l::rslf">
<polygon fill="white" stroke="black" points="151,-49.5 151,-79.5 266,-79.5 266,-49.5 151,-49.5"/>
<text text-anchor="start" x="159" y="-67.5" font-family="Helvetica,sans-Serif" font-size="10.00">module_mp_thompson</text>
<text text-anchor="middle" x="208.5" y="-56.5" font-family="Helvetica,sans-Serif" font-size="10.00">::rslf</text>
</a>
</g>
</g>
<!-- Node1&#45;&gt;Node2 -->
<g id="edge1" class="edge"><title>Node1&#45;&gt;Node2</title>
<path fill="none" stroke="midnightblue" d="M115.256,-49.0227C123.649,-50.4311 132.362,-51.893 140.933,-53.3311"/>
<polygon fill="midnightblue" stroke="midnightblue" points="140.461,-56.8007 150.902,-55.0037 141.619,-49.8972 140.461,-56.8007"/>
</g>
<!-- Node3 -->
<g id="node3" class="node"><title>Node3</title>
<g id="a_node3"><a xlink:href="classmodule__mp__thompson.html#a67de3f9e0eff315e30c6567db69e3722" target="_top" xlink:title="module_mp_thompson\l::rsif">
<polygon fill="white" stroke="black" points="151,-0.5 151,-30.5 266,-30.5 266,-0.5 151,-0.5"/>
<text text-anchor="start" x="159" y="-18.5" font-family="Helvetica,sans-Serif" font-size="10.00">module_mp_thompson</text>
<text text-anchor="middle" x="208.5" y="-7.5" font-family="Helvetica,sans-Serif" font-size="10.00">::rsif</text>
</a>
</g>
</g>
<!-- Node1&#45;&gt;Node3 -->
<g id="edge2" class="edge"><title>Node1&#45;&gt;Node3</title>
<path fill="none" stroke="midnightblue" d="M115.256,-30.3582C123.649,-29.0062 132.362,-27.6028 140.933,-26.2222"/>
<polygon fill="midnightblue" stroke="midnightblue" points="141.586,-29.6622 150.902,-24.6164 140.473,-22.7513 141.586,-29.6622"/>
</g>
</g>
</svg>
