<?xml version="1.0" encoding="UTF-8" standalone="no"?>
<!DOCTYPE svg PUBLIC "-//W3C//DTD SVG 1.1//EN"
 "http://www.w3.org/Graphics/SVG/1.1/DTD/svg11.dtd">
<!-- Generated by graphviz version 2.32.0 (20130809.1645)
 -->
<!-- Title: linear_theory_lut_disk_io::write_var_6d Pages: 1 -->
<svg width="400pt" height="101pt"
 viewBox="0.00 0.00 400.00 101.09" xmlns="http://www.w3.org/2000/svg" xmlns:xlink="http://www.w3.org/1999/xlink">
<g id="graph0" class="graph" transform="scale(1 1) rotate(0) translate(4 97.0913)">
<title>linear_theory_lut_disk_io::write_var_6d</title>
<polygon fill="white" stroke="white" points="-4,5 -4,-97.0913 397,-97.0913 397,5 -4,5"/>
<!-- Node1 -->
<g id="node1" class="node"><title>Node1</title>
<polygon fill="#bfbfbf" stroke="black" points="0.5,-49 0.5,-79 111.5,-79 111.5,-49 0.5,-49"/>
<text text-anchor="start" x="8.5" y="-67" font-family="Helvetica,sans-Serif" font-size="10.00">linear_theory_lut_disk</text>
<text text-anchor="middle" x="56" y="-56" font-family="Helvetica,sans-Serif" font-size="10.00">_io::write_var_6d</text>
</g>
<!-- Node2 -->
<g id="node2" class="node"><title>Node2</title>
<g id="a_node2"><a xlink:href="classio__routines.html#ac4835ed66f2e10d8e5bb40f6122f0ca1" target="_top" xlink:title=" Simple error handling for common netcdf file errors ">
<polygon fill="white" stroke="black" points="296,-54.5 296,-73.5 392,-73.5 392,-54.5 296,-54.5"/>
<text text-anchor="middle" x="344" y="-61.5" font-family="Helvetica,sans-Serif" font-size="10.00">io_routines::check</text>
</a>
</g>
</g>
<!-- Node1&#45;&gt;Node2 -->
<g id="edge1" class="edge"><title>Node1&#45;&gt;Node2</title>
<path fill="none" stroke="midnightblue" d="M104.712,-79.0534C118.532,-82.7377 133.741,-86.1513 148,-88 197.365,-94.4002 210.714,-94.9826 260,-88 275.808,-85.7604 292.819,-81.2344 307.299,-76.7103"/>
<polygon fill="midnightblue" stroke="midnightblue" points="308.441,-80.0196 316.875,-73.6067 306.283,-73.3607 308.441,-80.0196"/>
</g>
<!-- Node3 -->
<g id="node3" class="node"><title>Node3</title>
<g id="a_node3"><a xlink:href="classlinear__theory__lut__disk__io.html#abb38011ddeae204021d9e43bd62b3084" target="_top" xlink:title=" Setup a new dimension in a given netcdf file ">
<polygon fill="white" stroke="black" points="148.5,-49 148.5,-79 259.5,-79 259.5,-49 148.5,-49"/>
<text text-anchor="start" x="156.5" y="-67" font-family="Helvetica,sans-Serif" font-size="10.00">linear_theory_lut_disk</text>
<text text-anchor="middle" x="204" y="-56" font-family="Helvetica,sans-Serif" font-size="10.00">_io::setup_dim</text>
</a>
</g>
</g>
<!-- Node1&#45;&gt;Node3 -->
<g id="edge2" class="edge"><title>Node1&#45;&gt;Node3</title>
<path fill="none" stroke="midnightblue" d="M111.78,-64C120.388,-64 129.356,-64 138.164,-64"/>
<polygon fill="midnightblue" stroke="midnightblue" points="138.398,-67.5001 148.398,-64 138.398,-60.5001 138.398,-67.5001"/>
</g>
<!-- Node4 -->
<g id="node4" class="node"><title>Node4</title>
<g id="a_node4"><a xlink:href="classlinear__theory__lut__disk__io.html#a1c226f1639c088893adff763253224f1" target="_top" xlink:title=" Setup a new variable to be written ">
<polygon fill="white" stroke="black" points="148.5,-0 148.5,-30 259.5,-30 259.5,-0 148.5,-0"/>
<text text-anchor="start" x="156.5" y="-18" font-family="Helvetica,sans-Serif" font-size="10.00">linear_theory_lut_disk</text>
<text text-anchor="middle" x="204" y="-7" font-family="Helvetica,sans-Serif" font-size="10.00">_io::setup_var</text>
</a>
</g>
</g>
<!-- Node1&#45;&gt;Node4 -->
<g id="edge4" class="edge"><title>Node1&#45;&gt;Node4</title>
<path fill="none" stroke="midnightblue" d="M101.996,-48.8986C116.636,-43.9853 133.046,-38.4776 148.314,-33.3534"/>
<polygon fill="midnightblue" stroke="midnightblue" points="149.786,-36.5515 158.152,-30.0516 147.558,-29.9153 149.786,-36.5515"/>
</g>
<!-- Node3&#45;&gt;Node2 -->
<g id="edge3" class="edge"><title>Node3&#45;&gt;Node2</title>
<path fill="none" stroke="midnightblue" d="M259.541,-64C268.205,-64 277.188,-64 285.908,-64"/>
<polygon fill="midnightblue" stroke="midnightblue" points="285.991,-67.5001 295.991,-64 285.991,-60.5001 285.991,-67.5001"/>
</g>
<!-- Node4&#45;&gt;Node2 -->
<g id="edge5" class="edge"><title>Node4&#45;&gt;Node2</title>
<path fill="none" stroke="midnightblue" d="M247.531,-30.1014C266.374,-36.7922 288.322,-44.5852 306.419,-51.011"/>
<polygon fill="midnightblue" stroke="midnightblue" points="305.438,-54.3767 316.033,-54.4246 307.78,-47.7802 305.438,-54.3767"/>
</g>
</g>
</svg>
