<?xml version="1.0" encoding="UTF-8" standalone="no"?>
<!DOCTYPE svg PUBLIC "-//W3C//DTD SVG 1.1//EN"
 "http://www.w3.org/Graphics/SVG/1.1/DTD/svg11.dtd">
<!-- Generated by graphviz version 2.32.0 (20130809.1645)
 -->
<!-- Title: pbl_simple::finalize_simple_pbl Pages: 1 -->
<svg width="246pt" height="38pt"
 viewBox="0.00 0.00 246.00 38.00" xmlns="http://www.w3.org/2000/svg" xmlns:xlink="http://www.w3.org/1999/xlink">
<g id="graph0" class="graph" transform="scale(1 1) rotate(0) translate(4 34)">
<title>pbl_simple::finalize_simple_pbl</title>
<polygon fill="white" stroke="white" points="-4,5 -4,-34 243,-34 243,5 -4,5"/>
<!-- Node1 -->
<g id="node1" class="node"><title>Node1</title>
<polygon fill="#bfbfbf" stroke="black" points="0,-0 0,-30 100,-30 100,-0 0,-0"/>
<text text-anchor="start" x="8" y="-18" font-family="Helvetica,sans-Serif" font-size="10.00">pbl_simple::finalize</text>
<text text-anchor="middle" x="50" y="-7" font-family="Helvetica,sans-Serif" font-size="10.00">_simple_pbl</text>
</g>
<!-- Node2 -->
<g id="node2" class="node"><title>Node2</title>
<g id="a_node2"><a xlink:href="classplanetary__boundary__layer.html#aa3a084cea71adfaca59aac8e2dd627fc" target="_top" xlink:title="planetary_boundary\l_layer::pbl_finalize">
<polygon fill="white" stroke="black" points="136.5,-0 136.5,-30 237.5,-30 237.5,-0 136.5,-0"/>
<text text-anchor="start" x="144.5" y="-18" font-family="Helvetica,sans-Serif" font-size="10.00">planetary_boundary</text>
<text text-anchor="middle" x="187" y="-7" font-family="Helvetica,sans-Serif" font-size="10.00">_layer::pbl_finalize</text>
</a>
</g>
</g>
<!-- Node1&#45;&gt;Node2 -->
<g id="edge1" class="edge"><title>Node1&#45;&gt;Node2</title>
<path fill="none" stroke="midnightblue" d="M110.199,-15C118.888,-15 127.763,-15 136.237,-15"/>
<polygon fill="midnightblue" stroke="midnightblue" points="110.12,-11.5001 100.12,-15 110.12,-18.5001 110.12,-11.5001"/>
</g>
</g>
</svg>
