<?xml version="1.0" encoding="UTF-8" standalone="no"?>
<!DOCTYPE svg PUBLIC "-//W3C//DTD SVG 1.1//EN"
 "http://www.w3.org/Graphics/SVG/1.1/DTD/svg11.dtd">
<!-- Generated by graphviz version 2.32.0 (20130809.1645)
 -->
<!-- Title: geo::find_surrounding Pages: 1 -->
<svg width="642pt" height="47pt"
 viewBox="0.00 0.00 642.00 47.00" xmlns="http://www.w3.org/2000/svg" xmlns:xlink="http://www.w3.org/1999/xlink">
<g id="graph0" class="graph" transform="scale(1 1) rotate(0) translate(4 43)">
<title>geo::find_surrounding</title>
<polygon fill="white" stroke="white" points="-4,5 -4,-43 639,-43 639,5 -4,5"/>
<!-- Node1 -->
<g id="node1" class="node"><title>Node1</title>
<polygon fill="#bfbfbf" stroke="black" points="0,-0.5 0,-19.5 110,-19.5 110,-0.5 0,-0.5"/>
<text text-anchor="middle" x="55" y="-7.5" font-family="Helvetica,sans-Serif" font-size="10.00">geo::find_surrounding</text>
</g>
<!-- Node2 -->
<g id="node2" class="node"><title>Node2</title>
<g id="a_node2"><a xlink:href="classgeo.html#aa64883699f3b5a3f3b75da0b101a8a57" target="_top" xlink:title="geo::geo_lut">
<polygon fill="white" stroke="black" points="146,-0.5 146,-19.5 216,-19.5 216,-0.5 146,-0.5"/>
<text text-anchor="middle" x="181" y="-7.5" font-family="Helvetica,sans-Serif" font-size="10.00">geo::geo_lut</text>
</a>
</g>
</g>
<!-- Node1&#45;&gt;Node2 -->
<g id="edge1" class="edge"><title>Node1&#45;&gt;Node2</title>
<path fill="none" stroke="midnightblue" d="M120.04,-10C128.921,-10 137.746,-10 145.786,-10"/>
<polygon fill="midnightblue" stroke="midnightblue" points="120.028,-6.5001 110.027,-10 120.027,-13.5001 120.028,-6.5001"/>
</g>
<!-- Node3 -->
<g id="node3" class="node"><title>Node3</title>
<g id="a_node3"><a xlink:href="classinit.html#a8b5935b5b45a47c58fdd67157c16764b" target="_top" xlink:title="init::init_ext_winds">
<polygon fill="white" stroke="black" points="252,-19.5 252,-38.5 350,-38.5 350,-19.5 252,-19.5"/>
<text text-anchor="middle" x="301" y="-26.5" font-family="Helvetica,sans-Serif" font-size="10.00">init::init_ext_winds</text>
</a>
</g>
</g>
<!-- Node2&#45;&gt;Node3 -->
<g id="edge2" class="edge"><title>Node2&#45;&gt;Node3</title>
<path fill="none" stroke="midnightblue" d="M226.125,-17.1049C234.535,-18.4591 243.377,-19.8827 251.904,-21.2557"/>
<polygon fill="midnightblue" stroke="midnightblue" points="226.56,-13.6299 216.13,-15.4956 225.447,-20.5409 226.56,-13.6299"/>
</g>
<!-- Node4 -->
<g id="node4" class="node"><title>Node4</title>
<g id="a_node4"><a xlink:href="classinit.html#a1c6cab46bb16bea719da3b193c43ccb3" target="_top" xlink:title="init::init_bc">
<polygon fill="white" stroke="black" points="386,-0.5 386,-19.5 450,-19.5 450,-0.5 386,-0.5"/>
<text text-anchor="middle" x="418" y="-7.5" font-family="Helvetica,sans-Serif" font-size="10.00">init::init_bc</text>
</a>
</g>
</g>
<!-- Node2&#45;&gt;Node4 -->
<g id="edge6" class="edge"><title>Node2&#45;&gt;Node4</title>
<path fill="none" stroke="midnightblue" d="M226.271,-10C272.82,-10 344.868,-10 385.792,-10"/>
<polygon fill="midnightblue" stroke="midnightblue" points="226.171,-6.5001 216.171,-10 226.171,-13.5001 226.171,-6.5001"/>
</g>
<!-- Node3&#45;&gt;Node4 -->
<g id="edge3" class="edge"><title>Node3&#45;&gt;Node4</title>
<path fill="none" stroke="midnightblue" d="M360.082,-19.4038C368.953,-17.9382 377.805,-16.4757 385.794,-15.1558"/>
<polygon fill="midnightblue" stroke="midnightblue" points="359.4,-15.969 350.104,-21.0524 360.541,-22.8754 359.4,-15.969"/>
</g>
<!-- Node5 -->
<g id="node5" class="node"><title>Node5</title>
<g id="a_node5"><a xlink:href="classinit.html#a1dd1e2b38eef39cba464f65c9ce82568" target="_top" xlink:title="init::init_model">
<polygon fill="white" stroke="black" points="486,-0.5 486,-19.5 566,-19.5 566,-0.5 486,-0.5"/>
<text text-anchor="middle" x="526" y="-7.5" font-family="Helvetica,sans-Serif" font-size="10.00">init::init_model</text>
</a>
</g>
</g>
<!-- Node4&#45;&gt;Node5 -->
<g id="edge4" class="edge"><title>Node4&#45;&gt;Node5</title>
<path fill="none" stroke="midnightblue" d="M460.472,-10C468.778,-10 477.48,-10 485.708,-10"/>
<polygon fill="midnightblue" stroke="midnightblue" points="460.23,-6.5001 450.23,-10 460.23,-13.5001 460.23,-6.5001"/>
</g>
<!-- Node6 -->
<g id="node6" class="node"><title>Node6</title>
<g id="a_node6"><a xlink:href="driver_8f90.html#ab1e5a5816a57fc6e95d9563c2bb53590" target="_top" xlink:title=" Main Program ">
<polygon fill="white" stroke="black" points="602,-0.5 602,-19.5 634,-19.5 634,-0.5 602,-0.5"/>
<text text-anchor="middle" x="618" y="-7.5" font-family="Helvetica,sans-Serif" font-size="10.00">icar</text>
</a>
</g>
</g>
<!-- Node5&#45;&gt;Node6 -->
<g id="edge5" class="edge"><title>Node5&#45;&gt;Node6</title>
<path fill="none" stroke="midnightblue" d="M576.233,-10C585.449,-10 594.425,-10 601.599,-10"/>
<polygon fill="midnightblue" stroke="midnightblue" points="576.214,-6.5001 566.213,-10 576.213,-13.5001 576.214,-6.5001"/>
</g>
</g>
</svg>
