<?xml version="1.0" encoding="UTF-8" standalone="no"?>
<!DOCTYPE svg PUBLIC "-//W3C//DTD SVG 1.1//EN"
 "http://www.w3.org/Graphics/SVG/1.1/DTD/svg11.dtd">
<!-- Generated by graphviz version 2.32.0 (20130809.1645)
 -->
<!-- Title: init::init_ext_winds Pages: 1 -->
<!--zoomable 191 -->
<svg id="main" version="1.1" xmlns="http://www.w3.org/2000/svg" xmlns:xlink="http://www.w3.org/1999/xlink" xml:space="preserve" onload="init(evt)">
<style type="text/css"><![CDATA[
.edge:hover path { stroke: red; }
.edge:hover polygon { stroke: red; fill: red; }
]]></style>
<script type="text/javascript"><![CDATA[
var edges = document.getElementsByTagName('g');
if (edges && edges.length) {
  for (var i=0;i<edges.length;i++) {
    if (edges[i].id.substr(0,4)=='edge') {
      edges[i].setAttribute('class','edge');
    }
  }
}
]]></script>
        <defs>
                <circle id="rim" cx="0" cy="0" r="7"/>
                <circle id="rim2" cx="0" cy="0" r="3.5"/>
                <g id="zoomPlus">
                        <use xlink:href="#rim" fill="#404040">
                                <set attributeName="fill" to="#808080" begin="zoomplus.mouseover" end="zoomplus.mouseout"/>
                        </use>
                        <path d="M-4,0h8M0,-4v8" fill="none" stroke="white" stroke-width="1.5" pointer-events="none"/>
                </g>
                <g id="zoomMin">
                        <use xlink:href="#rim" fill="#404040">
                                <set attributeName="fill" to="#808080" begin="zoomminus.mouseover" end="zoomminus.mouseout"/>
                        </use>
                        <path d="M-4,0h8" fill="none" stroke="white" stroke-width="1.5" pointer-events="none"/>
                </g>
                <g id="dirArrow">
                        <path fill="none" stroke="white" stroke-width="1.5" d="M0,-3.0v7 M-2.5,-0.5L0,-3.0L2.5,-0.5"/>
                </g>
               <g id="resetDef">
                       <use xlink:href="#rim2" fill="#404040">
                               <set attributeName="fill" to="#808080" begin="reset.mouseover" end="reset.mouseout"/>
                       </use>
               </g>
        </defs>

<script type="text/javascript">
var viewWidth = 510;
var viewHeight = 191;
var sectionId = 'dynsection-13';
</script>
<script xlink:href="svgpan.js"/>
<svg id="graph" class="graph">
<g id="viewport">
<title>init::init_ext_winds</title>
<polygon fill="white" stroke="white" points="-4,5 -4,-187 507,-187 507,5 -4,5"/>
<!-- Node1 -->
<g id="node1" class="node"><title>Node1</title>
<polygon fill="#bfbfbf" stroke="black" points="0,-76.5 0,-95.5 98,-95.5 98,-76.5 0,-76.5"/>
<text text-anchor="middle" x="49" y="-83.5" font-family="Helvetica,sans-Serif" font-size="10.00">init::init_ext_winds</text>
</g>
<!-- Node2 -->
<g id="node2" class="node"><title>Node2</title>
<g id="a_node2"><a xlink:href="interfaceio__routines_1_1io__read.html#a35290f3b01bd8f36bae0173749f6b870" target="_top" xlink:title=" Same as io_read3d but for 2&#45;dimensional data ">
<polygon fill="white" stroke="black" points="142.5,-153 142.5,-183 243.5,-183 243.5,-153 142.5,-153"/>
<text text-anchor="start" x="150.5" y="-171" font-family="Helvetica,sans-Serif" font-size="10.00">io_routines::io_read</text>
<text text-anchor="middle" x="193" y="-160" font-family="Helvetica,sans-Serif" font-size="10.00">::io_read2d</text>
</a>
</g>
</g>
<!-- Node1&#45;&gt;Node2 -->
<g id="edge1" class="edge"><title>Node1&#45;&gt;Node2</title>
<path fill="none" stroke="midnightblue" d="M62.6117,-95.6758C78.6385,-107.704 107.421,-128.425 134,-143 137.47,-144.903 141.115,-146.766 144.816,-148.563"/>
<polygon fill="midnightblue" stroke="midnightblue" points="143.522,-151.822 154.064,-152.878 146.482,-145.478 143.522,-151.822"/>
</g>
<!-- Node3 -->
<g id="node3" class="node"><title>Node3</title>
<g id="a_node3"><a xlink:href="classinit.html#a12de2a1a2b6818e778283cc79e883f88" target="_top" xlink:title="init::convert_longitudes">
<polygon fill="white" stroke="black" points="134.5,-114.5 134.5,-133.5 251.5,-133.5 251.5,-114.5 134.5,-114.5"/>
<text text-anchor="middle" x="193" y="-121.5" font-family="Helvetica,sans-Serif" font-size="10.00">init::convert_longitudes</text>
</a>
</g>
</g>
<!-- Node1&#45;&gt;Node3 -->
<g id="edge2" class="edge"><title>Node1&#45;&gt;Node3</title>
<path fill="none" stroke="midnightblue" d="M85.8326,-95.589C104.163,-100.494 126.678,-106.52 146.25,-111.757"/>
<polygon fill="midnightblue" stroke="midnightblue" points="145.614,-115.21 156.179,-114.414 147.424,-108.448 145.614,-115.21"/>
</g>
<!-- Node4 -->
<g id="node4" class="node"><title>Node4</title>
<g id="a_node4"><a xlink:href="classgeo.html#aa64883699f3b5a3f3b75da0b101a8a57" target="_top" xlink:title="geo::geo_lut">
<polygon fill="white" stroke="black" points="158,-76.5 158,-95.5 228,-95.5 228,-76.5 158,-76.5"/>
<text text-anchor="middle" x="193" y="-83.5" font-family="Helvetica,sans-Serif" font-size="10.00">geo::geo_lut</text>
</a>
</g>
</g>
<!-- Node1&#45;&gt;Node4 -->
<g id="edge3" class="edge"><title>Node1&#45;&gt;Node4</title>
<path fill="none" stroke="midnightblue" d="M98.0747,-86C114.179,-86 132.046,-86 147.837,-86"/>
<polygon fill="midnightblue" stroke="midnightblue" points="147.875,-89.5001 157.875,-86 147.875,-82.5001 147.875,-89.5001"/>
</g>
<!-- Node10 -->
<g id="node10" class="node"><title>Node10</title>
<g id="a_node10"><a xlink:href="classgeo.html#ad6df2866b0f12fabc9d1b393be1b06d7" target="_top" xlink:title="geo::geo_interp2d">
<polygon fill="white" stroke="black" points="146,-38.5 146,-57.5 240,-57.5 240,-38.5 146,-38.5"/>
<text text-anchor="middle" x="193" y="-45.5" font-family="Helvetica,sans-Serif" font-size="10.00">geo::geo_interp2d</text>
</a>
</g>
</g>
<!-- Node1&#45;&gt;Node10 -->
<g id="edge9" class="edge"><title>Node1&#45;&gt;Node10</title>
<path fill="none" stroke="midnightblue" d="M85.8326,-76.411C104.163,-71.5056 126.678,-65.4804 146.25,-60.2429"/>
<polygon fill="midnightblue" stroke="midnightblue" points="147.424,-63.5521 156.179,-57.5859 145.614,-56.7901 147.424,-63.5521"/>
</g>
<!-- Node11 -->
<g id="node11" class="node"><title>Node11</title>
<g id="a_node11"><a xlink:href="classinit.html#a038ea10ca872de4c73000c8a6d31fdb0" target="_top" xlink:title="init::setup_extwinds">
<polygon fill="white" stroke="black" points="141,-0.5 141,-19.5 245,-19.5 245,-0.5 141,-0.5"/>
<text text-anchor="middle" x="193" y="-7.5" font-family="Helvetica,sans-Serif" font-size="10.00">init::setup_extwinds</text>
</a>
</g>
</g>
<!-- Node1&#45;&gt;Node11 -->
<g id="edge10" class="edge"><title>Node1&#45;&gt;Node11</title>
<path fill="none" stroke="midnightblue" d="M61.8612,-76.3616C77.5596,-63.9903 106.473,-42.5145 134,-29 138.405,-26.8373 143.114,-24.8353 147.874,-23.0067"/>
<polygon fill="midnightblue" stroke="midnightblue" points="149.405,-26.1757 157.632,-19.5005 147.038,-19.588 149.405,-26.1757"/>
</g>
<!-- Node5 -->
<g id="node5" class="node"><title>Node5</title>
<g id="a_node5"><a xlink:href="classgeo.html#a1e7273d41823570bc9f9de6b30aa60fd" target="_top" xlink:title="geo::find_location">
<polygon fill="white" stroke="black" points="296.5,-114.5 296.5,-133.5 389.5,-133.5 389.5,-114.5 296.5,-114.5"/>
<text text-anchor="middle" x="343" y="-121.5" font-family="Helvetica,sans-Serif" font-size="10.00">geo::find_location</text>
</a>
</g>
</g>
<!-- Node4&#45;&gt;Node5 -->
<g id="edge4" class="edge"><title>Node4&#45;&gt;Node5</title>
<path fill="none" stroke="midnightblue" d="M228.326,-94.8135C248.082,-99.886 273.195,-106.334 294.789,-111.878"/>
<polygon fill="midnightblue" stroke="midnightblue" points="294.193,-115.339 304.749,-114.436 295.934,-108.559 294.193,-115.339"/>
</g>
<!-- Node8 -->
<g id="node8" class="node"><title>Node8</title>
<g id="a_node8"><a xlink:href="classgeo.html#a7d14c8e02963a466d18edcd79f330359" target="_top" xlink:title="geo::find_surrounding">
<polygon fill="white" stroke="black" points="288,-76.5 288,-95.5 398,-95.5 398,-76.5 288,-76.5"/>
<text text-anchor="middle" x="343" y="-83.5" font-family="Helvetica,sans-Serif" font-size="10.00">geo::find_surrounding</text>
</a>
</g>
</g>
<!-- Node4&#45;&gt;Node8 -->
<g id="edge7" class="edge"><title>Node4&#45;&gt;Node8</title>
<path fill="none" stroke="midnightblue" d="M228.326,-86C242.964,-86 260.543,-86 277.452,-86"/>
<polygon fill="midnightblue" stroke="midnightblue" points="277.862,-89.5001 287.862,-86 277.862,-82.5001 277.862,-89.5001"/>
</g>
<!-- Node9 -->
<g id="node9" class="node"><title>Node9</title>
<g id="a_node9"><a xlink:href="classgeo.html#af4b522675af159cdf68f947dbaba102c" target="_top" xlink:title="geo::bilin_weights">
<polygon fill="white" stroke="black" points="295.5,-38.5 295.5,-57.5 390.5,-57.5 390.5,-38.5 295.5,-38.5"/>
<text text-anchor="middle" x="343" y="-45.5" font-family="Helvetica,sans-Serif" font-size="10.00">geo::bilin_weights</text>
</a>
</g>
</g>
<!-- Node4&#45;&gt;Node9 -->
<g id="edge8" class="edge"><title>Node4&#45;&gt;Node9</title>
<path fill="none" stroke="midnightblue" d="M228.326,-77.1865C248.082,-72.114 273.195,-65.6661 294.789,-60.1217"/>
<polygon fill="midnightblue" stroke="midnightblue" points="295.934,-63.4415 304.749,-57.5645 294.193,-56.6614 295.934,-63.4415"/>
</g>
<!-- Node6 -->
<g id="node6" class="node"><title>Node6</title>
<g id="a_node6"><a xlink:href="classgeo.html#a90d24402dc82ec462d2683728881818e" target="_top" xlink:title="geo::minxw">
<polygon fill="white" stroke="black" points="434.5,-133.5 434.5,-152.5 501.5,-152.5 501.5,-133.5 434.5,-133.5"/>
<text text-anchor="middle" x="468" y="-140.5" font-family="Helvetica,sans-Serif" font-size="10.00">geo::minxw</text>
</a>
</g>
</g>
<!-- Node5&#45;&gt;Node6 -->
<g id="edge5" class="edge"><title>Node5&#45;&gt;Node6</title>
<path fill="none" stroke="midnightblue" d="M389.801,-131.075C401.096,-132.82 413.149,-134.682 424.291,-136.403"/>
<polygon fill="midnightblue" stroke="midnightblue" points="423.803,-139.869 434.22,-137.936 424.872,-132.951 423.803,-139.869"/>
</g>
<!-- Node7 -->
<g id="node7" class="node"><title>Node7</title>
<g id="a_node7"><a xlink:href="classgeo.html#a26f0801662f938ba2e6cd8d33a7be586" target="_top" xlink:title="geo::minyw">
<polygon fill="white" stroke="black" points="434.5,-95.5 434.5,-114.5 501.5,-114.5 501.5,-95.5 434.5,-95.5"/>
<text text-anchor="middle" x="468" y="-102.5" font-family="Helvetica,sans-Serif" font-size="10.00">geo::minyw</text>
</a>
</g>
</g>
<!-- Node5&#45;&gt;Node7 -->
<g id="edge6" class="edge"><title>Node5&#45;&gt;Node7</title>
<path fill="none" stroke="midnightblue" d="M389.801,-116.925C401.096,-115.18 413.149,-113.318 424.291,-111.597"/>
<polygon fill="midnightblue" stroke="midnightblue" points="424.872,-115.049 434.22,-110.064 423.803,-108.131 424.872,-115.049"/>
</g>
</g>
</svg>
        <g id="navigator" transform="translate(0 0)" fill="#404254">
                <rect fill="#f2f5e9" fill-opacity="0.5" stroke="#606060" stroke-width=".5" x="0" y="0" width="60" height="60"/>
                <use id="zoomplus" xlink:href="#zoomPlus" x="17" y="9" onmousedown="handleZoom(evt,'in')"/>
                <use id="zoomminus" xlink:href="#zoomMin" x="42" y="9" onmousedown="handleZoom(evt,'out')"/>
                <use id="reset" xlink:href="#resetDef" x="30" y="36" onmousedown="handleReset()"/>
                <g id="arrowUp" xlink:href="#dirArrow" transform="translate(30 24)" onmousedown="handlePan(0,-1)">
                  <use xlink:href="#rim" fill="#404040">
                        <set attributeName="fill" to="#808080" begin="arrowUp.mouseover" end="arrowUp.mouseout"/>
                  </use>
                  <path fill="none" stroke="white" stroke-width="1.5" d="M0,-3.0v7 M-2.5,-0.5L0,-3.0L2.5,-0.5"/>
                </g>
                <g id="arrowRight" xlink:href="#dirArrow" transform="rotate(90) translate(36 -43)" onmousedown="handlePan(1,0)">
                  <use xlink:href="#rim" fill="#404040">
                        <set attributeName="fill" to="#808080" begin="arrowRight.mouseover" end="arrowRight.mouseout"/>
                  </use>
                  <path fill="none" stroke="white" stroke-width="1.5" d="M0,-3.0v7 M-2.5,-0.5L0,-3.0L2.5,-0.5"/>
                </g>
                <g id="arrowDown" xlink:href="#dirArrow" transform="rotate(180) translate(-30 -48)" onmousedown="handlePan(0,1)">
                  <use xlink:href="#rim" fill="#404040">
                        <set attributeName="fill" to="#808080" begin="arrowDown.mouseover" end="arrowDown.mouseout"/>
                  </use>
                  <path fill="none" stroke="white" stroke-width="1.5" d="M0,-3.0v7 M-2.5,-0.5L0,-3.0L2.5,-0.5"/>
                </g>
                <g id="arrowLeft" xlink:href="#dirArrow" transform="rotate(270) translate(-36 17)" onmousedown="handlePan(-1,0)">
                  <use xlink:href="#rim" fill="#404040">
                        <set attributeName="fill" to="#808080" begin="arrowLeft.mouseover" end="arrowLeft.mouseout"/>
                  </use>
                  <path fill="none" stroke="white" stroke-width="1.5" d="M0,-3.0v7 M-2.5,-0.5L0,-3.0L2.5,-0.5"/>
                </g>
        </g>
        <svg viewBox="0 0 15 15" width="100%" height="30px" preserveAspectRatio="xMaxYMin meet">
         <g id="arrow_out" transform="scale(0.3 0.3)">
          <a xlink:href="classinit_a8b5935b5b45a47c58fdd67157c16764b_cgraph_org.svg" target="_base">
           <rect id="button" ry="5" rx="5" y="6" x="6" height="38" width="38"
                fill="#f2f5e9" fill-opacity="0.5" stroke="#606060" stroke-width="1.0"/>
           <path id="arrow"
             d="M 11.500037,31.436501 C 11.940474,20.09759 22.043105,11.32322 32.158766,21.979434 L 37.068811,17.246167 C 37.068811,17.246167 37.088388,32 37.088388,32 L 22.160133,31.978069 C 22.160133,31.978069 26.997745,27.140456 26.997745,27.140456 C 18.528582,18.264221 13.291696,25.230495 11.500037,31.436501 z"
             style="fill:#404040;"/>
          </a>
         </g>
        </svg>
</svg>
