<?xml version="1.0" encoding="UTF-8" standalone="no"?>
<!DOCTYPE svg PUBLIC "-//W3C//DTD SVG 1.1//EN"
 "http://www.w3.org/Graphics/SVG/1.1/DTD/svg11.dtd">
<!-- Generated by graphviz version 2.38.0 (20140413.2041)
 -->
<!-- Title: initialize_options::init_options Pages: 1 -->
<!--zoomable 763 -->
<svg id="main" version="1.1" xmlns="http://www.w3.org/2000/svg" xmlns:xlink="http://www.w3.org/1999/xlink" xml:space="preserve" onload="init(evt)">
<style type="text/css"><![CDATA[
.edge:hover path { stroke: red; }
.edge:hover polygon { stroke: red; fill: red; }
]]></style>
<script type="text/javascript"><![CDATA[
var edges = document.getElementsByTagName('g');
if (edges && edges.length) {
  for (var i=0;i<edges.length;i++) {
    if (edges[i].id.substr(0,4)=='edge') {
      edges[i].setAttribute('class','edge');
    }
  }
}
]]></script>
        <defs>
                <circle id="rim" cx="0" cy="0" r="7"/>
                <circle id="rim2" cx="0" cy="0" r="3.5"/>
                <g id="zoomPlus">
                        <use xlink:href="#rim" fill="#404040">
                                <set attributeName="fill" to="#808080" begin="zoomplus.mouseover" end="zoomplus.mouseout"/>
                        </use>
                        <path d="M-4,0h8M0,-4v8" fill="none" stroke="white" stroke-width="1.5" pointer-events="none"/>
                </g>
                <g id="zoomMin">
                        <use xlink:href="#rim" fill="#404040">
                                <set attributeName="fill" to="#808080" begin="zoomminus.mouseover" end="zoomminus.mouseout"/>
                        </use>
                        <path d="M-4,0h8" fill="none" stroke="white" stroke-width="1.5" pointer-events="none"/>
                </g>
                <g id="dirArrow">
                        <path fill="none" stroke="white" stroke-width="1.5" d="M0,-3.0v7 M-2.5,-0.5L0,-3.0L2.5,-0.5"/>
                </g>
               <g id="resetDef">
                       <use xlink:href="#rim2" fill="#404040">
                               <set attributeName="fill" to="#808080" begin="reset.mouseover" end="reset.mouseout"/>
                       </use>
               </g>
        </defs>

<script type="text/javascript">
var viewWidth = 726;
var viewHeight = 763;
var sectionId = 'dynsection-5';
</script>
<script xlink:href="svgpan.js"/>
<svg id="graph" class="graph">
<g id="viewport">
<title>initialize_options::init_options</title>
<polygon fill="white" stroke="none" points="-4,4 -4,-759.139 722,-759.139 722,4 -4,4"/>
<!-- Node1 -->
<g id="node1" class="node"><title>Node1</title>
<polygon fill="#bfbfbf" stroke="black" points="0,-415.5 0,-445.5 89,-445.5 89,-415.5 0,-415.5"/>
<text text-anchor="start" x="8" y="-433.5" font-family="Helvetica,sans-Serif" font-size="10.00">initialize_options</text>
<text text-anchor="middle" x="44.5" y="-422.5" font-family="Helvetica,sans-Serif" font-size="10.00">::init_options</text>
</g>
<!-- Node2 -->
<g id="node2" class="node"><title>Node2</title>
<g id="a_node2"><a xlink:href="classinitialize__options.html#a09a50b9cb8e065acef2d92f2a1b615fd" target="_top" xlink:title="initialize_options\l::get_options_file">
<polygon fill="white" stroke="black" points="316.5,-591.5 316.5,-621.5 407.5,-621.5 407.5,-591.5 316.5,-591.5"/>
<text text-anchor="start" x="324.5" y="-609.5" font-family="Helvetica,sans-Serif" font-size="10.00">initialize_options</text>
<text text-anchor="middle" x="362" y="-598.5" font-family="Helvetica,sans-Serif" font-size="10.00">::get_options_file</text>
</a>
</g>
</g>
<!-- Node1&#45;&gt;Node2 -->
<g id="edge1" class="edge"><title>Node1&#45;&gt;Node2</title>
<path fill="none" stroke="midnightblue" d="M48.1589,-445.833C54.684,-478.304 74.774,-553.783 125,-587.5 178.48,-623.401 254.916,-622.469 306.165,-616.346"/>
<polygon fill="midnightblue" stroke="midnightblue" points="306.918,-619.777 316.383,-615.016 306.015,-612.836 306.918,-619.777"/>
</g>
<!-- Node3 -->
<g id="node3" class="node"><title>Node3</title>
<g id="a_node3"><a xlink:href="classinitialize__options.html#a7161e810e27d3c830e135c3811ae290b" target="_top" xlink:title="initialize_options\l::version_check">
<polygon fill="white" stroke="black" points="317.5,-679.5 317.5,-709.5 406.5,-709.5 406.5,-679.5 317.5,-679.5"/>
<text text-anchor="start" x="325.5" y="-697.5" font-family="Helvetica,sans-Serif" font-size="10.00">initialize_options</text>
<text text-anchor="middle" x="362" y="-686.5" font-family="Helvetica,sans-Serif" font-size="10.00">::version_check</text>
</a>
</g>
</g>
<!-- Node1&#45;&gt;Node3 -->
<g id="edge2" class="edge"><title>Node1&#45;&gt;Node3</title>
<path fill="none" stroke="midnightblue" d="M45.1409,-445.749C45.0233,-489.714 51.3161,-617.282 125,-675.5 176.251,-715.994 254.808,-713.537 307.024,-705.849"/>
<polygon fill="midnightblue" stroke="midnightblue" points="307.771,-709.274 317.1,-704.252 306.676,-702.36 307.771,-709.274"/>
</g>
<!-- Node7 -->
<g id="node7" class="node"><title>Node7</title>
<g id="a_node7"><a xlink:href="classinitialize__options.html#ad6b38b82a6d2ce60e8a7985fa0af9f5c" target="_top" xlink:title="initialize_options\l::physics_namelist">
<polygon fill="white" stroke="black" points="313,-415.5 313,-445.5 411,-445.5 411,-415.5 313,-415.5"/>
<text text-anchor="start" x="321" y="-433.5" font-family="Helvetica,sans-Serif" font-size="10.00">initialize_options</text>
<text text-anchor="middle" x="362" y="-422.5" font-family="Helvetica,sans-Serif" font-size="10.00">::physics_namelist</text>
</a>
</g>
</g>
<!-- Node1&#45;&gt;Node7 -->
<g id="edge6" class="edge"><title>Node1&#45;&gt;Node7</title>
<path fill="none" stroke="midnightblue" d="M89.0377,-430.5C144.488,-430.5 240.517,-430.5 302.369,-430.5"/>
<polygon fill="midnightblue" stroke="midnightblue" points="302.746,-434 312.746,-430.5 302.746,-427 302.746,-434"/>
</g>
<!-- Node8 -->
<g id="node8" class="node"><title>Node8</title>
<g id="a_node8"><a xlink:href="classinitialize__options.html#a141165ac65b43c1947dbaa1a5acb70ae" target="_top" xlink:title="initialize_options\l::var_namelist">
<polygon fill="white" stroke="black" points="317.5,-366.5 317.5,-396.5 406.5,-396.5 406.5,-366.5 317.5,-366.5"/>
<text text-anchor="start" x="325.5" y="-384.5" font-family="Helvetica,sans-Serif" font-size="10.00">initialize_options</text>
<text text-anchor="middle" x="362" y="-373.5" font-family="Helvetica,sans-Serif" font-size="10.00">::var_namelist</text>
</a>
</g>
</g>
<!-- Node1&#45;&gt;Node8 -->
<g id="edge8" class="edge"><title>Node1&#45;&gt;Node8</title>
<path fill="none" stroke="midnightblue" d="M89.0377,-423.738C146.043,-414.885 245.937,-399.37 307.493,-389.81"/>
<polygon fill="midnightblue" stroke="midnightblue" points="308.059,-393.264 317.403,-388.271 306.984,-386.347 308.059,-393.264"/>
</g>
<!-- Node9 -->
<g id="node9" class="node"><title>Node9</title>
<g id="a_node9"><a xlink:href="classinitialize__options.html#ab0058e1f8dbc07d787cc0705c5d9366a" target="_top" xlink:title="initialize_options\l::parameters_namelist">
<polygon fill="white" stroke="black" points="135.5,-158.5 135.5,-188.5 248.5,-188.5 248.5,-158.5 135.5,-158.5"/>
<text text-anchor="start" x="143.5" y="-176.5" font-family="Helvetica,sans-Serif" font-size="10.00">initialize_options</text>
<text text-anchor="middle" x="192" y="-165.5" font-family="Helvetica,sans-Serif" font-size="10.00">::parameters_namelist</text>
</a>
</g>
</g>
<!-- Node1&#45;&gt;Node9 -->
<g id="edge10" class="edge"><title>Node1&#45;&gt;Node9</title>
<path fill="none" stroke="midnightblue" d="M52.6444,-415.152C65.967,-386.85 95.8971,-324.738 125,-274.5 140.823,-247.186 160.888,-217.03 174.718,-196.843"/>
<polygon fill="midnightblue" stroke="midnightblue" points="177.621,-198.798 180.414,-188.578 171.857,-194.826 177.621,-198.798"/>
</g>
<!-- Node13 -->
<g id="node13" class="node"><title>Node13</title>
<g id="a_node13"><a xlink:href="classinitialize__options.html#a14f98c882d07ead49841d25d7de75d4c" target="_top" xlink:title="initialize_options\l::model_levels_namelist">
<polygon fill="white" stroke="black" points="131,-333.5 131,-363.5 253,-363.5 253,-333.5 131,-333.5"/>
<text text-anchor="start" x="139" y="-351.5" font-family="Helvetica,sans-Serif" font-size="10.00">initialize_options</text>
<text text-anchor="middle" x="192" y="-340.5" font-family="Helvetica,sans-Serif" font-size="10.00">::model_levels_namelist</text>
</a>
</g>
</g>
<!-- Node1&#45;&gt;Node13 -->
<g id="edge15" class="edge"><title>Node1&#45;&gt;Node13</title>
<path fill="none" stroke="midnightblue" d="M66.5474,-415.464C82.2647,-404.553 104.481,-389.788 125,-378.5 131.596,-374.871 138.713,-371.301 145.747,-367.959"/>
<polygon fill="midnightblue" stroke="midnightblue" points="147.632,-370.943 155.231,-363.56 144.686,-364.593 147.632,-370.943"/>
</g>
<!-- Node14 -->
<g id="node14" class="node"><title>Node14</title>
<g id="a_node14"><a xlink:href="classinitialize__options.html#acf012270ed53d51ad745344175d1d8ae" target="_top" xlink:title="initialize_options\l::lt_parameters_namelist">
<polygon fill="white" stroke="black" points="130,-723.5 130,-753.5 254,-753.5 254,-723.5 130,-723.5"/>
<text text-anchor="start" x="138" y="-741.5" font-family="Helvetica,sans-Serif" font-size="10.00">initialize_options</text>
<text text-anchor="middle" x="192" y="-730.5" font-family="Helvetica,sans-Serif" font-size="10.00">::lt_parameters_namelist</text>
</a>
</g>
</g>
<!-- Node1&#45;&gt;Node14 -->
<g id="edge17" class="edge"><title>Node1&#45;&gt;Node14</title>
<path fill="none" stroke="midnightblue" d="M45.5958,-445.813C46.6821,-491.438 55.8498,-628.269 125,-708.5 128.04,-712.028 131.581,-715.162 135.413,-717.944"/>
<polygon fill="midnightblue" stroke="midnightblue" points="133.863,-721.104 144.187,-723.484 137.6,-715.186 133.863,-721.104"/>
</g>
<!-- Node15 -->
<g id="node15" class="node"><title>Node15</title>
<g id="a_node15"><a xlink:href="classinitialize__options.html#acc4c031c2e7521b9eb81f779a67acb3b" target="_top" xlink:title="initialize_options\l::mp_parameters_namelist">
<polygon fill="white" stroke="black" points="126,-635.5 126,-665.5 258,-665.5 258,-635.5 126,-635.5"/>
<text text-anchor="start" x="134" y="-653.5" font-family="Helvetica,sans-Serif" font-size="10.00">initialize_options</text>
<text text-anchor="middle" x="192" y="-642.5" font-family="Helvetica,sans-Serif" font-size="10.00">::mp_parameters_namelist</text>
</a>
</g>
</g>
<!-- Node1&#45;&gt;Node15 -->
<g id="edge21" class="edge"><title>Node1&#45;&gt;Node15</title>
<path fill="none" stroke="midnightblue" d="M47.9539,-445.636C54.3855,-480.768 74.8311,-568.785 125,-620.5 128.578,-624.188 132.694,-627.463 137.084,-630.363"/>
<polygon fill="midnightblue" stroke="midnightblue" points="135.403,-633.435 145.798,-635.486 138.951,-627.401 135.403,-633.435"/>
</g>
<!-- Node16 -->
<g id="node16" class="node"><title>Node16</title>
<g id="a_node16"><a xlink:href="classinitialize__options.html#a502d4a0df0fedb55f73b9afb2e130107" target="_top" xlink:title="initialize_options\l::adv_parameters_namelist">
<polygon fill="white" stroke="black" points="125,-547.5 125,-577.5 259,-577.5 259,-547.5 125,-547.5"/>
<text text-anchor="start" x="133" y="-565.5" font-family="Helvetica,sans-Serif" font-size="10.00">initialize_options</text>
<text text-anchor="middle" x="192" y="-554.5" font-family="Helvetica,sans-Serif" font-size="10.00">::adv_parameters_namelist</text>
</a>
</g>
</g>
<!-- Node1&#45;&gt;Node16 -->
<g id="edge25" class="edge"><title>Node1&#45;&gt;Node16</title>
<path fill="none" stroke="midnightblue" d="M52.8856,-445.609C64.9217,-468.752 90.8895,-512.97 125,-538.5 126.864,-539.895 128.817,-541.215 130.835,-542.464"/>
<polygon fill="midnightblue" stroke="midnightblue" points="129.578,-545.766 140.031,-547.496 132.938,-539.625 129.578,-545.766"/>
</g>
<!-- Node17 -->
<g id="node17" class="node"><title>Node17</title>
<g id="a_node17"><a xlink:href="classinitialize__options.html#a71b56485a92a10478bb1179e3294c013" target="_top" xlink:title="initialize_options\l::lsm_parameters_namelist">
<polygon fill="white" stroke="black" points="125,-498.5 125,-528.5 259,-528.5 259,-498.5 125,-498.5"/>
<text text-anchor="start" x="133" y="-516.5" font-family="Helvetica,sans-Serif" font-size="10.00">initialize_options</text>
<text text-anchor="middle" x="192" y="-505.5" font-family="Helvetica,sans-Serif" font-size="10.00">::lsm_parameters_namelist</text>
</a>
</g>
</g>
<!-- Node1&#45;&gt;Node17 -->
<g id="edge29" class="edge"><title>Node1&#45;&gt;Node17</title>
<path fill="none" stroke="midnightblue" d="M71.849,-445.531C95.2908,-458.903 129.764,-478.568 155.607,-493.31"/>
<polygon fill="midnightblue" stroke="midnightblue" points="153.935,-496.386 164.355,-498.301 157.404,-490.306 153.935,-496.386"/>
</g>
<!-- Node19 -->
<g id="node19" class="node"><title>Node19</title>
<g id="a_node19"><a xlink:href="classinitialize__options.html#aa5c0f26f48774390be64bb2fc8243db6" target="_top" xlink:title="initialize_options\l::init_restart_options">
<polygon fill="white" stroke="black" points="139.5,-82.5 139.5,-112.5 244.5,-112.5 244.5,-82.5 139.5,-82.5"/>
<text text-anchor="start" x="147.5" y="-100.5" font-family="Helvetica,sans-Serif" font-size="10.00">initialize_options</text>
<text text-anchor="middle" x="192" y="-89.5" font-family="Helvetica,sans-Serif" font-size="10.00">::init_restart_options</text>
</a>
</g>
</g>
<!-- Node1&#45;&gt;Node19 -->
<g id="edge34" class="edge"><title>Node1&#45;&gt;Node19</title>
<path fill="none" stroke="midnightblue" d="M46.4635,-415.352C49.951,-370.711 65.0863,-237.243 125,-148.5 132.942,-136.737 144.477,-126.505 155.69,-118.356"/>
<polygon fill="midnightblue" stroke="midnightblue" points="157.886,-121.094 164.137,-112.54 153.916,-115.329 157.886,-121.094"/>
</g>
<!-- Node22 -->
<g id="node22" class="node"><title>Node22</title>
<g id="a_node22"><a xlink:href="classinitialize__options.html#af329549f76b4aa24da83a0f292e32088" target="_top" xlink:title="initialize_options\l::filename_namelist">
<polygon fill="white" stroke="black" points="141.5,-284.5 141.5,-314.5 242.5,-314.5 242.5,-284.5 141.5,-284.5"/>
<text text-anchor="start" x="149.5" y="-302.5" font-family="Helvetica,sans-Serif" font-size="10.00">initialize_options</text>
<text text-anchor="middle" x="192" y="-291.5" font-family="Helvetica,sans-Serif" font-size="10.00">::filename_namelist</text>
</a>
</g>
</g>
<!-- Node1&#45;&gt;Node22 -->
<g id="edge39" class="edge"><title>Node1&#45;&gt;Node22</title>
<path fill="none" stroke="midnightblue" d="M53.1211,-415.155C65.291,-392.129 91.2232,-348.663 125,-323.5 127.337,-321.759 129.814,-320.133 132.383,-318.617"/>
<polygon fill="midnightblue" stroke="midnightblue" points="134.183,-321.625 141.407,-313.876 130.927,-315.429 134.183,-321.625"/>
</g>
<!-- Node24 -->
<g id="node24" class="node"><title>Node24</title>
<g id="a_node24"><a xlink:href="classinitialize__options.html#a1b4956e6e37b255118956f900511b45d" target="_top" xlink:title="initialize_options\l::options_check">
<polygon fill="white" stroke="black" points="147.5,-33.5 147.5,-63.5 236.5,-63.5 236.5,-33.5 147.5,-33.5"/>
<text text-anchor="start" x="155.5" y="-51.5" font-family="Helvetica,sans-Serif" font-size="10.00">initialize_options</text>
<text text-anchor="middle" x="192" y="-40.5" font-family="Helvetica,sans-Serif" font-size="10.00">::options_check</text>
</a>
</g>
</g>
<!-- Node1&#45;&gt;Node24 -->
<g id="edge43" class="edge"><title>Node1&#45;&gt;Node24</title>
<path fill="none" stroke="midnightblue" d="M46.9496,-415.22C53.0638,-353.76 78.5966,-125.378 125,-72.5 128.719,-68.2616 133.249,-64.7713 138.175,-61.8971"/>
<polygon fill="midnightblue" stroke="midnightblue" points="139.957,-64.9208 147.38,-57.3606 136.863,-58.642 139.957,-64.9208"/>
</g>
<!-- Node4 -->
<g id="node4" class="node"><title>Node4</title>
<g id="a_node4"><a xlink:href="classio__routines.html#a754b76158aa8311e1ee112004ddae52b" target="_top" xlink:title=" Find an available file unit number. ">
<polygon fill="white" stroke="black" points="465,-396 465,-415 581,-415 581,-396 465,-396"/>
<text text-anchor="middle" x="523" y="-403" font-family="Helvetica,sans-Serif" font-size="10.00">io_routines::io_newunit</text>
</a>
</g>
</g>
<!-- Node3&#45;&gt;Node4 -->
<g id="edge3" class="edge"><title>Node3&#45;&gt;Node4</title>
<path fill="none" stroke="midnightblue" d="M406.758,-680.614C414.953,-676.454 422.86,-671.165 429,-664.5 494.643,-593.248 514.645,-472.368 520.124,-425.188"/>
<polygon fill="midnightblue" stroke="midnightblue" points="523.621,-425.405 521.201,-415.09 516.66,-424.663 523.621,-425.405"/>
</g>
<!-- Node5 -->
<g id="node5" class="node"><title>Node5</title>
<g id="a_node5"><a xlink:href="classmodel__tracking.html#a0c78b5716b846487efd52d7b78dae261" target="_top" xlink:title="model_tracking::print\l_model_diffs">
<polygon fill="white" stroke="black" points="469.5,-679.5 469.5,-709.5 576.5,-709.5 576.5,-679.5 469.5,-679.5"/>
<text text-anchor="start" x="477.5" y="-697.5" font-family="Helvetica,sans-Serif" font-size="10.00">model_tracking::print</text>
<text text-anchor="middle" x="523" y="-686.5" font-family="Helvetica,sans-Serif" font-size="10.00">_model_diffs</text>
</a>
</g>
</g>
<!-- Node3&#45;&gt;Node5 -->
<g id="edge4" class="edge"><title>Node3&#45;&gt;Node5</title>
<path fill="none" stroke="midnightblue" d="M406.868,-694.5C423.005,-694.5 441.61,-694.5 459.095,-694.5"/>
<polygon fill="midnightblue" stroke="midnightblue" points="459.233,-698 469.233,-694.5 459.233,-691 459.233,-698"/>
</g>
<!-- Node6 -->
<g id="node6" class="node"><title>Node6</title>
<g id="a_node6"><a xlink:href="classmodel__tracking.html#a417ef049855367c1fb14cadf2203536f" target="_top" xlink:title="model_tracking::init\l_model_diffs">
<polygon fill="white" stroke="black" points="617,-679.5 617,-709.5 718,-709.5 718,-679.5 617,-679.5"/>
<text text-anchor="start" x="625" y="-697.5" font-family="Helvetica,sans-Serif" font-size="10.00">model_tracking::init</text>
<text text-anchor="middle" x="667.5" y="-686.5" font-family="Helvetica,sans-Serif" font-size="10.00">_model_diffs</text>
</a>
</g>
</g>
<!-- Node5&#45;&gt;Node6 -->
<g id="edge5" class="edge"><title>Node5&#45;&gt;Node6</title>
<path fill="none" stroke="midnightblue" d="M576.657,-694.5C586.425,-694.5 596.694,-694.5 606.658,-694.5"/>
<polygon fill="midnightblue" stroke="midnightblue" points="606.896,-698 616.896,-694.5 606.896,-691 606.896,-698"/>
</g>
<!-- Node7&#45;&gt;Node4 -->
<g id="edge7" class="edge"><title>Node7&#45;&gt;Node4</title>
<path fill="none" stroke="midnightblue" d="M411.137,-422.931C424.876,-420.771 440.103,-418.377 454.76,-416.072"/>
<polygon fill="midnightblue" stroke="midnightblue" points="455.456,-419.506 464.791,-414.495 454.369,-412.591 455.456,-419.506"/>
</g>
<!-- Node8&#45;&gt;Node4 -->
<g id="edge9" class="edge"><title>Node8&#45;&gt;Node4</title>
<path fill="none" stroke="midnightblue" d="M406.868,-388.122C421.712,-390.362 438.645,-392.918 454.873,-395.368"/>
<polygon fill="midnightblue" stroke="midnightblue" points="454.451,-398.844 464.861,-396.875 455.496,-391.922 454.451,-398.844"/>
</g>
<!-- Node9&#45;&gt;Node4 -->
<g id="edge11" class="edge"><title>Node9&#45;&gt;Node4</title>
<path fill="none" stroke="midnightblue" d="M248.781,-184.469C313.951,-197.671 414.74,-219.441 429,-230.5 481.234,-271.01 507.447,-349.281 517.275,-385.818"/>
<polygon fill="midnightblue" stroke="midnightblue" points="513.942,-386.909 519.81,-395.73 520.723,-385.174 513.942,-386.909"/>
</g>
<!-- Node10 -->
<g id="node10" class="node"><title>Node10</title>
<g id="a_node10"><a xlink:href="classtime.html#ac7c0f37ed6d5c1c0bc9b1a75132c9edd" target="_top" xlink:title="time::parse_date">
<polygon fill="white" stroke="black" points="317.5,-164 317.5,-183 406.5,-183 406.5,-164 317.5,-164"/>
<text text-anchor="middle" x="362" y="-171" font-family="Helvetica,sans-Serif" font-size="10.00">time::parse_date</text>
</a>
</g>
</g>
<!-- Node9&#45;&gt;Node10 -->
<g id="edge12" class="edge"><title>Node9&#45;&gt;Node10</title>
<path fill="none" stroke="midnightblue" d="M248.942,-173.5C267.707,-173.5 288.583,-173.5 307.182,-173.5"/>
<polygon fill="midnightblue" stroke="midnightblue" points="307.252,-177 317.252,-173.5 307.252,-170 307.252,-177"/>
</g>
<!-- Node11 -->
<g id="node11" class="node"><title>Node11</title>
<g id="a_node11"><a xlink:href="classtime.html#aac5c3bacccd51257742cb682e405d080" target="_top" xlink:title="time::time_init">
<polygon fill="white" stroke="black" points="323,-126 323,-145 401,-145 401,-126 323,-126"/>
<text text-anchor="middle" x="362" y="-133" font-family="Helvetica,sans-Serif" font-size="10.00">time::time_init</text>
</a>
</g>
</g>
<!-- Node9&#45;&gt;Node11 -->
<g id="edge13" class="edge"><title>Node9&#45;&gt;Node11</title>
<path fill="none" stroke="midnightblue" d="M248.942,-160.847C269.682,-156.155 293.001,-150.881 312.975,-146.363"/>
<polygon fill="midnightblue" stroke="midnightblue" points="313.802,-149.764 322.783,-144.144 312.257,-142.937 313.802,-149.764"/>
</g>
<!-- Node12 -->
<g id="node12" class="node"><title>Node12</title>
<g id="a_node12"><a xlink:href="classtime.html#a22e63418fe5d559327ca090619d097e0" target="_top" xlink:title="time::date_to_mjd">
<polygon fill="white" stroke="black" points="314.5,-88 314.5,-107 409.5,-107 409.5,-88 314.5,-88"/>
<text text-anchor="middle" x="362" y="-95" font-family="Helvetica,sans-Serif" font-size="10.00">time::date_to_mjd</text>
</a>
</g>
</g>
<!-- Node9&#45;&gt;Node12 -->
<g id="edge14" class="edge"><title>Node9&#45;&gt;Node12</title>
<path fill="none" stroke="midnightblue" d="M216.535,-158.297C236.722,-145.765 266.914,-128.208 295,-116.5 300.499,-114.208 306.367,-112.086 312.248,-110.156"/>
<polygon fill="midnightblue" stroke="midnightblue" points="313.589,-113.405 322.098,-107.093 311.51,-106.721 313.589,-113.405"/>
</g>
<!-- Node13&#45;&gt;Node4 -->
<g id="edge16" class="edge"><title>Node13&#45;&gt;Node4</title>
<path fill="none" stroke="midnightblue" d="M253.218,-343.664C301.548,-341.472 370.711,-342.163 429,-357.5 454.737,-364.272 481.467,-379.008 499.628,-390.377"/>
<polygon fill="midnightblue" stroke="midnightblue" points="497.991,-393.486 508.294,-395.956 501.78,-387.6 497.991,-393.486"/>
</g>
<!-- Node14&#45;&gt;Node2 -->
<g id="edge18" class="edge"><title>Node14&#45;&gt;Node2</title>
<path fill="none" stroke="midnightblue" d="M212.272,-723.358C242.067,-699.947 299.432,-654.875 333.552,-628.066"/>
<polygon fill="midnightblue" stroke="midnightblue" points="335.994,-630.599 341.695,-621.668 331.669,-625.094 335.994,-630.599"/>
</g>
<!-- Node14&#45;&gt;Node3 -->
<g id="edge19" class="edge"><title>Node14&#45;&gt;Node3</title>
<path fill="none" stroke="midnightblue" d="M250.346,-723.481C268.873,-718.628 289.33,-713.271 307.562,-708.496"/>
<polygon fill="midnightblue" stroke="midnightblue" points="308.649,-711.829 317.436,-705.91 306.876,-705.057 308.649,-711.829"/>
</g>
<!-- Node14&#45;&gt;Node4 -->
<g id="edge20" class="edge"><title>Node14&#45;&gt;Node4</title>
<path fill="none" stroke="midnightblue" d="M254.179,-751.13C306.379,-758.181 380.48,-758.864 429,-719.5 476.176,-681.226 509.395,-488.047 519.086,-425.252"/>
<polygon fill="midnightblue" stroke="midnightblue" points="522.585,-425.521 520.619,-415.11 515.663,-424.474 522.585,-425.521"/>
</g>
<!-- Node15&#45;&gt;Node2 -->
<g id="edge22" class="edge"><title>Node15&#45;&gt;Node2</title>
<path fill="none" stroke="midnightblue" d="M250.346,-635.481C268.552,-630.713 288.622,-625.456 306.613,-620.744"/>
<polygon fill="midnightblue" stroke="midnightblue" points="307.582,-624.108 316.369,-618.189 305.809,-617.337 307.582,-624.108"/>
</g>
<!-- Node15&#45;&gt;Node3 -->
<g id="edge23" class="edge"><title>Node15&#45;&gt;Node3</title>
<path fill="none" stroke="midnightblue" d="M250.346,-665.519C268.873,-670.372 289.33,-675.729 307.562,-680.504"/>
<polygon fill="midnightblue" stroke="midnightblue" points="306.876,-683.943 317.436,-683.09 308.649,-677.171 306.876,-683.943"/>
</g>
<!-- Node15&#45;&gt;Node4 -->
<g id="edge24" class="edge"><title>Node15&#45;&gt;Node4</title>
<path fill="none" stroke="midnightblue" d="M258.111,-662.442C309.379,-668.098 380.106,-667.177 429,-631.5 497.88,-581.239 515.928,-470.612 520.504,-425.373"/>
<polygon fill="midnightblue" stroke="midnightblue" points="523.995,-425.629 521.4,-415.357 517.023,-425.005 523.995,-425.629"/>
</g>
<!-- Node16&#45;&gt;Node2 -->
<g id="edge26" class="edge"><title>Node16&#45;&gt;Node2</title>
<path fill="none" stroke="midnightblue" d="M250.346,-577.519C268.552,-582.287 288.622,-587.544 306.613,-592.256"/>
<polygon fill="midnightblue" stroke="midnightblue" points="305.809,-595.663 316.369,-594.811 307.582,-588.892 305.809,-595.663"/>
</g>
<!-- Node16&#45;&gt;Node3 -->
<g id="edge27" class="edge"><title>Node16&#45;&gt;Node3</title>
<path fill="none" stroke="midnightblue" d="M212.272,-577.642C242.067,-601.053 299.432,-646.125 333.552,-672.934"/>
<polygon fill="midnightblue" stroke="midnightblue" points="331.669,-675.906 341.695,-679.332 335.994,-670.401 331.669,-675.906"/>
</g>
<!-- Node16&#45;&gt;Node4 -->
<g id="edge28" class="edge"><title>Node16&#45;&gt;Node4</title>
<path fill="none" stroke="midnightblue" d="M259.129,-571.888C309.143,-575.668 377.724,-573.479 429,-543.5 475.406,-516.368 503.483,-455.777 515.36,-424.696"/>
<polygon fill="midnightblue" stroke="midnightblue" points="518.745,-425.63 518.889,-415.036 512.17,-423.228 518.745,-425.63"/>
</g>
<!-- Node17&#45;&gt;Node2 -->
<g id="edge30" class="edge"><title>Node17&#45;&gt;Node2</title>
<path fill="none" stroke="midnightblue" d="M236.92,-528.541C244.415,-531.557 252.027,-534.913 259,-538.5 285.213,-551.982 312.919,-570.781 332.829,-585.196"/>
<polygon fill="midnightblue" stroke="midnightblue" points="330.991,-588.188 341.126,-591.276 335.129,-582.542 330.991,-588.188"/>
</g>
<!-- Node17&#45;&gt;Node3 -->
<g id="edge31" class="edge"><title>Node17&#45;&gt;Node3</title>
<path fill="none" stroke="midnightblue" d="M245.624,-528.537C250.51,-531.324 255.087,-534.615 259,-538.5 290.454,-569.727 270.378,-594.646 295,-631.5 305.348,-646.989 320.115,-661.541 333.059,-672.749"/>
<polygon fill="midnightblue" stroke="midnightblue" points="330.918,-675.522 340.826,-679.274 335.421,-670.162 330.918,-675.522"/>
</g>
<!-- Node17&#45;&gt;Node4 -->
<g id="edge32" class="edge"><title>Node17&#45;&gt;Node4</title>
<path fill="none" stroke="midnightblue" d="M259.215,-501.881C307.287,-492.335 373.376,-476.892 429,-455.5 453.736,-445.987 480.194,-431.272 498.54,-420.265"/>
<polygon fill="midnightblue" stroke="midnightblue" points="500.381,-423.241 507.096,-415.046 496.736,-417.265 500.381,-423.241"/>
</g>
<!-- Node18 -->
<g id="node18" class="node"><title>Node18</title>
<g id="a_node18"><a xlink:href="classinitialize__options.html#a953ba7fde6963a7279fa7b8e47998dae" target="_top" xlink:title="initialize_options\l::set_default_lu_categories">
<polygon fill="white" stroke="black" points="295,-503.5 295,-533.5 429,-533.5 429,-503.5 295,-503.5"/>
<text text-anchor="start" x="303" y="-521.5" font-family="Helvetica,sans-Serif" font-size="10.00">initialize_options</text>
<text text-anchor="middle" x="362" y="-510.5" font-family="Helvetica,sans-Serif" font-size="10.00">::set_default_lu_categories</text>
</a>
</g>
</g>
<!-- Node17&#45;&gt;Node18 -->
<g id="edge33" class="edge"><title>Node17&#45;&gt;Node18</title>
<path fill="none" stroke="midnightblue" d="M259.398,-515.476C267.679,-515.723 276.199,-515.976 284.616,-516.227"/>
<polygon fill="midnightblue" stroke="midnightblue" points="284.709,-519.731 294.809,-516.53 284.918,-512.734 284.709,-519.731"/>
</g>
<!-- Node19&#45;&gt;Node4 -->
<g id="edge35" class="edge"><title>Node19&#45;&gt;Node4</title>
<path fill="none" stroke="midnightblue" d="M244.5,-85.6018C305.077,-72.912 400.955,-57.3191 429,-78.5 479.54,-116.671 510.702,-320.66 519.457,-385.618"/>
<polygon fill="midnightblue" stroke="midnightblue" points="516.015,-386.291 520.791,-395.748 522.955,-385.377 516.015,-386.291"/>
</g>
<!-- Node19&#45;&gt;Node12 -->
<g id="edge36" class="edge"><title>Node19&#45;&gt;Node12</title>
<path fill="none" stroke="midnightblue" d="M244.776,-97.5C263.573,-97.5 284.906,-97.5 304.12,-97.5"/>
<polygon fill="midnightblue" stroke="midnightblue" points="304.246,-101 314.246,-97.5 304.246,-94.0001 304.246,-101"/>
</g>
<!-- Node20 -->
<g id="node20" class="node"><title>Node20</title>
<g id="a_node20"><a xlink:href="classio__routines.html#af199c5971982f00c29c4ad34bdf15be0" target="_top" xlink:title=" Finds the nearest time step in a file to a given MJD Uses the &quot;time&quot; variable from filename...">
<polygon fill="white" stroke="black" points="304.5,-0.5 304.5,-30.5 419.5,-30.5 419.5,-0.5 304.5,-0.5"/>
<text text-anchor="start" x="312.5" y="-18.5" font-family="Helvetica,sans-Serif" font-size="10.00">io_routines::io_nearest</text>
<text text-anchor="middle" x="362" y="-7.5" font-family="Helvetica,sans-Serif" font-size="10.00">_time_step</text>
</a>
</g>
</g>
<!-- Node19&#45;&gt;Node20 -->
<g id="edge37" class="edge"><title>Node19&#45;&gt;Node20</title>
<path fill="none" stroke="midnightblue" d="M237.793,-82.4956C245.04,-79.5146 252.343,-76.1607 259,-72.5 276.525,-62.8625 277.795,-55.6979 295,-45.5 301.253,-41.7937 308.043,-38.2329 314.81,-34.9406"/>
<polygon fill="midnightblue" stroke="midnightblue" points="316.414,-38.0543 323.971,-30.629 313.433,-31.7207 316.414,-38.0543"/>
</g>
<!-- Node21 -->
<g id="node21" class="node"><title>Node21</title>
<g id="a_node21"><a xlink:href="classio__routines.html#ac4835ed66f2e10d8e5bb40f6122f0ca1" target="_top" xlink:title=" Simple error handling for common netcdf file errors ">
<polygon fill="white" stroke="black" points="475,-6 475,-25 571,-25 571,-6 475,-6"/>
<text text-anchor="middle" x="523" y="-13" font-family="Helvetica,sans-Serif" font-size="10.00">io_routines::check</text>
</a>
</g>
</g>
<!-- Node20&#45;&gt;Node21 -->
<g id="edge38" class="edge"><title>Node20&#45;&gt;Node21</title>
<path fill="none" stroke="midnightblue" d="M419.505,-15.5C434.227,-15.5 450.101,-15.5 464.856,-15.5"/>
<polygon fill="midnightblue" stroke="midnightblue" points="464.865,-19.0001 474.865,-15.5 464.865,-12.0001 464.865,-19.0001"/>
</g>
<!-- Node22&#45;&gt;Node4 -->
<g id="edge40" class="edge"><title>Node22&#45;&gt;Node4</title>
<path fill="none" stroke="midnightblue" d="M242.676,-301.49C291.697,-304.915 367.951,-314.224 429,-339.5 457.768,-351.411 486.288,-373.595 504.007,-388.936"/>
<polygon fill="midnightblue" stroke="midnightblue" points="501.989,-391.824 511.792,-395.842 506.634,-386.587 501.989,-391.824"/>
</g>
<!-- Node23 -->
<g id="node23" class="node"><title>Node23</title>
<g id="a_node23"><a xlink:href="classinitialize__options.html#aa31ad836b4bdcd1a555c9e8fa4b2975a" target="_top" xlink:title=" Read in the name of the boundary condition files from a text file ">
<polygon fill="white" stroke="black" points="298,-240.5 298,-270.5 426,-270.5 426,-240.5 298,-240.5"/>
<text text-anchor="start" x="306" y="-258.5" font-family="Helvetica,sans-Serif" font-size="10.00">initialize_options</text>
<text text-anchor="middle" x="362" y="-247.5" font-family="Helvetica,sans-Serif" font-size="10.00">::read_forcing_file_names</text>
</a>
</g>
</g>
<!-- Node22&#45;&gt;Node23 -->
<g id="edge41" class="edge"><title>Node22&#45;&gt;Node23</title>
<path fill="none" stroke="midnightblue" d="M242.951,-286.418C258.879,-282.246 276.773,-277.559 293.721,-273.121"/>
<polygon fill="midnightblue" stroke="midnightblue" points="294.782,-276.461 303.569,-270.542 293.008,-269.689 294.782,-276.461"/>
</g>
<!-- Node23&#45;&gt;Node4 -->
<g id="edge42" class="edge"><title>Node23&#45;&gt;Node4</title>
<path fill="none" stroke="midnightblue" d="M404.22,-270.503C412.864,-274.646 421.595,-279.645 429,-285.5 465.849,-314.637 496.467,-361.369 511.669,-387.072"/>
<polygon fill="midnightblue" stroke="midnightblue" points="508.686,-388.907 516.721,-395.813 514.747,-385.404 508.686,-388.907"/>
</g>
</g>
</svg>
        <g id="navigator" transform="translate(0 0)" fill="#404254">
                <rect fill="#f2f5e9" fill-opacity="0.5" stroke="#606060" stroke-width=".5" x="0" y="0" width="60" height="60"/>
                <use id="zoomplus" xlink:href="#zoomPlus" x="17" y="9" onmousedown="handleZoom(evt,'in')"/>
                <use id="zoomminus" xlink:href="#zoomMin" x="42" y="9" onmousedown="handleZoom(evt,'out')"/>
                <use id="reset" xlink:href="#resetDef" x="30" y="36" onmousedown="handleReset()"/>
                <g id="arrowUp" xlink:href="#dirArrow" transform="translate(30 24)" onmousedown="handlePan(0,-1)">
                  <use xlink:href="#rim" fill="#404040">
                        <set attributeName="fill" to="#808080" begin="arrowUp.mouseover" end="arrowUp.mouseout"/>
                  </use>
                  <path fill="none" stroke="white" stroke-width="1.5" d="M0,-3.0v7 M-2.5,-0.5L0,-3.0L2.5,-0.5"/>
                </g>
                <g id="arrowRight" xlink:href="#dirArrow" transform="rotate(90) translate(36 -43)" onmousedown="handlePan(1,0)">
                  <use xlink:href="#rim" fill="#404040">
                        <set attributeName="fill" to="#808080" begin="arrowRight.mouseover" end="arrowRight.mouseout"/>
                  </use>
                  <path fill="none" stroke="white" stroke-width="1.5" d="M0,-3.0v7 M-2.5,-0.5L0,-3.0L2.5,-0.5"/>
                </g>
                <g id="arrowDown" xlink:href="#dirArrow" transform="rotate(180) translate(-30 -48)" onmousedown="handlePan(0,1)">
                  <use xlink:href="#rim" fill="#404040">
                        <set attributeName="fill" to="#808080" begin="arrowDown.mouseover" end="arrowDown.mouseout"/>
                  </use>
                  <path fill="none" stroke="white" stroke-width="1.5" d="M0,-3.0v7 M-2.5,-0.5L0,-3.0L2.5,-0.5"/>
                </g>
                <g id="arrowLeft" xlink:href="#dirArrow" transform="rotate(270) translate(-36 17)" onmousedown="handlePan(-1,0)">
                  <use xlink:href="#rim" fill="#404040">
                        <set attributeName="fill" to="#808080" begin="arrowLeft.mouseover" end="arrowLeft.mouseout"/>
                  </use>
                  <path fill="none" stroke="white" stroke-width="1.5" d="M0,-3.0v7 M-2.5,-0.5L0,-3.0L2.5,-0.5"/>
                </g>
        </g>
        <svg viewBox="0 0 15 15" width="100%" height="30px" preserveAspectRatio="xMaxYMin meet">
         <g id="arrow_out" transform="scale(0.3 0.3)">
          <a xlink:href="classinitialize__options_a571709045f201082c9735408ef2f28e3_cgraph_org.svg" target="_base">
           <rect id="button" ry="5" rx="5" y="6" x="6" height="38" width="38"
                fill="#f2f5e9" fill-opacity="0.5" stroke="#606060" stroke-width="1.0"/>
           <path id="arrow"
             d="M 11.500037,31.436501 C 11.940474,20.09759 22.043105,11.32322 32.158766,21.979434 L 37.068811,17.246167 C 37.068811,17.246167 37.088388,32 37.088388,32 L 22.160133,31.978069 C 22.160133,31.978069 26.997745,27.140456 26.997745,27.140456 C 18.528582,18.264221 13.291696,25.230495 11.500037,31.436501 z"
             style="fill:#404040;"/>
          </a>
         </g>
        </svg>
</svg>
