<?xml version="1.0" encoding="UTF-8" standalone="no"?>
<!DOCTYPE svg PUBLIC "-//W3C//DTD SVG 1.1//EN"
 "http://www.w3.org/Graphics/SVG/1.1/DTD/svg11.dtd">
<!-- Generated by graphviz version 2.32.0 (20130809.1645)
 -->
<!-- Title: module_mp_simple::mp_conversions Pages: 1 -->
<svg width="758pt" height="38pt"
 viewBox="0.00 0.00 758.00 38.00" xmlns="http://www.w3.org/2000/svg" xmlns:xlink="http://www.w3.org/1999/xlink">
<g id="graph0" class="graph" transform="scale(1 1) rotate(0) translate(4 34)">
<title>module_mp_simple::mp_conversions</title>
<polygon fill="white" stroke="white" points="-4,5 -4,-34 755,-34 755,5 -4,5"/>
<!-- Node1 -->
<g id="node1" class="node"><title>Node1</title>
<polygon fill="#bfbfbf" stroke="black" points="0,-0 0,-30 120,-30 120,-0 0,-0"/>
<text text-anchor="start" x="8" y="-18" font-family="Helvetica,sans-Serif" font-size="10.00">module_mp_simple::mp</text>
<text text-anchor="middle" x="60" y="-7" font-family="Helvetica,sans-Serif" font-size="10.00">_conversions</text>
</g>
<!-- Node2 -->
<g id="node2" class="node"><title>Node2</title>
<g id="a_node2"><a xlink:href="classmodule__mp__simple.html#ac6e0bb6089333d9b063ba5f4e6f8127f" target="_top" xlink:title=" Basic microphysics code for a column of air ">
<polygon fill="white" stroke="black" points="156,-0 156,-30 276,-30 276,-0 156,-0"/>
<text text-anchor="start" x="164" y="-18" font-family="Helvetica,sans-Serif" font-size="10.00">module_mp_simple::mp</text>
<text text-anchor="middle" x="216" y="-7" font-family="Helvetica,sans-Serif" font-size="10.00">_simple</text>
</a>
</g>
</g>
<!-- Node1&#45;&gt;Node2 -->
<g id="edge1" class="edge"><title>Node1&#45;&gt;Node2</title>
<path fill="none" stroke="midnightblue" d="M130.369,-15C138.862,-15 147.48,-15 155.804,-15"/>
<polygon fill="midnightblue" stroke="midnightblue" points="130.1,-11.5001 120.1,-15 130.1,-18.5001 130.1,-11.5001"/>
</g>
<!-- Node3 -->
<g id="node3" class="node"><title>Node3</title>
<g id="a_node3"><a xlink:href="classmodule__mp__simple.html#a3b5b540d9d511651c42ec6b3ba842796" target="_top" xlink:title=" Driver code to control simple microphysics ">
<polygon fill="white" stroke="black" points="312,-0 312,-30 432,-30 432,-0 312,-0"/>
<text text-anchor="start" x="320" y="-18" font-family="Helvetica,sans-Serif" font-size="10.00">module_mp_simple::mp</text>
<text text-anchor="middle" x="372" y="-7" font-family="Helvetica,sans-Serif" font-size="10.00">_simple_driver</text>
</a>
</g>
</g>
<!-- Node2&#45;&gt;Node3 -->
<g id="edge2" class="edge"><title>Node2&#45;&gt;Node3</title>
<path fill="none" stroke="midnightblue" d="M286.369,-15C294.862,-15 303.48,-15 311.804,-15"/>
<polygon fill="midnightblue" stroke="midnightblue" points="286.1,-11.5001 276.1,-15 286.1,-18.5001 286.1,-11.5001"/>
</g>
<!-- Node4 -->
<g id="node4" class="node"><title>Node4</title>
<g id="a_node4"><a xlink:href="classmicrophysics.html#a97ab38e6007bb1f3aa63135be25a6145" target="_top" xlink:title="microphysics::mp">
<polygon fill="white" stroke="black" points="468,-5.5 468,-24.5 562,-24.5 562,-5.5 468,-5.5"/>
<text text-anchor="middle" x="515" y="-12.5" font-family="Helvetica,sans-Serif" font-size="10.00">microphysics::mp</text>
</a>
</g>
</g>
<!-- Node3&#45;&gt;Node4 -->
<g id="edge3" class="edge"><title>Node3&#45;&gt;Node4</title>
<path fill="none" stroke="midnightblue" d="M442.493,-15C451.135,-15 459.798,-15 467.961,-15"/>
<polygon fill="midnightblue" stroke="midnightblue" points="442.388,-11.5001 432.388,-15 442.388,-18.5001 442.388,-11.5001"/>
</g>
<!-- Node5 -->
<g id="node5" class="node"><title>Node5</title>
<g id="a_node5"><a xlink:href="classtime__step.html#a2c022f11247af72e607b1493289aa974" target="_top" xlink:title=" Step forward one IO time step. ">
<polygon fill="white" stroke="black" points="598,-5.5 598,-24.5 682,-24.5 682,-5.5 598,-5.5"/>
<text text-anchor="middle" x="640" y="-12.5" font-family="Helvetica,sans-Serif" font-size="10.00">time_step::step</text>
</a>
</g>
</g>
<!-- Node4&#45;&gt;Node5 -->
<g id="edge4" class="edge"><title>Node4&#45;&gt;Node5</title>
<path fill="none" stroke="midnightblue" d="M572.191,-15C580.834,-15 589.618,-15 597.853,-15"/>
<polygon fill="midnightblue" stroke="midnightblue" points="572.151,-11.5001 562.151,-15 572.151,-18.5001 572.151,-11.5001"/>
</g>
<!-- Node6 -->
<g id="node6" class="node"><title>Node6</title>
<g id="a_node6"><a xlink:href="driver_8f90.html#ab1e5a5816a57fc6e95d9563c2bb53590" target="_top" xlink:title=" Main Program ">
<polygon fill="white" stroke="black" points="718,-5.5 718,-24.5 750,-24.5 750,-5.5 718,-5.5"/>
<text text-anchor="middle" x="734" y="-12.5" font-family="Helvetica,sans-Serif" font-size="10.00">icar</text>
</a>
</g>
</g>
<!-- Node5&#45;&gt;Node6 -->
<g id="edge5" class="edge"><title>Node5&#45;&gt;Node6</title>
<path fill="none" stroke="midnightblue" d="M692.253,-15C701.521,-15 710.5,-15 717.66,-15"/>
<polygon fill="midnightblue" stroke="midnightblue" points="692.156,-11.5001 682.156,-15 692.156,-18.5001 692.156,-11.5001"/>
</g>
</g>
</svg>
