<?xml version="1.0" encoding="UTF-8" standalone="no"?>
<!DOCTYPE svg PUBLIC "-//W3C//DTD SVG 1.1//EN"
 "http://www.w3.org/Graphics/SVG/1.1/DTD/svg11.dtd">
<!-- Generated by graphviz version 2.32.0 (20130809.1645)
 -->
<!-- Title: wind::balance_uvw Pages: 1 -->
<svg width="458pt" height="131pt"
 viewBox="0.00 0.00 458.00 131.00" xmlns="http://www.w3.org/2000/svg" xmlns:xlink="http://www.w3.org/1999/xlink">
<g id="graph0" class="graph" transform="scale(1 1) rotate(0) translate(4 127)">
<title>wind::balance_uvw</title>
<polygon fill="white" stroke="white" points="-4,5 -4,-127 455,-127 455,5 -4,5"/>
<!-- Node1 -->
<g id="node1" class="node"><title>Node1</title>
<polygon fill="#bfbfbf" stroke="black" points="0,-76.5 0,-95.5 100,-95.5 100,-76.5 0,-76.5"/>
<text text-anchor="middle" x="50" y="-83.5" font-family="Helvetica,sans-Serif" font-size="10.00">wind::balance_uvw</text>
</g>
<!-- Node2 -->
<g id="node2" class="node"><title>Node2</title>
<g id="a_node2"><a xlink:href="classtime__step.html#ab024d227ede8d503dbe333dd3b38515a" target="_top" xlink:title=" Updated all fields in domain using the respective dXdt variables ">
<polygon fill="white" stroke="black" points="140.5,-93 140.5,-123 235.5,-123 235.5,-93 140.5,-93"/>
<text text-anchor="start" x="148.5" y="-111" font-family="Helvetica,sans-Serif" font-size="10.00">time_step::forcing</text>
<text text-anchor="middle" x="188" y="-100" font-family="Helvetica,sans-Serif" font-size="10.00">_update</text>
</a>
</g>
</g>
<!-- Node1&#45;&gt;Node2 -->
<g id="edge1" class="edge"><title>Node1&#45;&gt;Node2</title>
<path fill="none" stroke="midnightblue" d="M110.071,-95.5555C120.165,-97.1884 130.526,-98.8645 140.244,-100.437"/>
<polygon fill="midnightblue" stroke="midnightblue" points="110.53,-92.0844 100.099,-93.9425 109.412,-98.9946 110.53,-92.0844"/>
</g>
<!-- Node5 -->
<g id="node5" class="node"><title>Node5</title>
<g id="a_node5"><a xlink:href="classwind.html#a582192f02996b37543b966df84af1e78" target="_top" xlink:title="wind::update_winds">
<polygon fill="white" stroke="black" points="136.5,-54.5 136.5,-73.5 239.5,-73.5 239.5,-54.5 136.5,-54.5"/>
<text text-anchor="middle" x="188" y="-61.5" font-family="Helvetica,sans-Serif" font-size="10.00">wind::update_winds</text>
</a>
</g>
</g>
<!-- Node1&#45;&gt;Node5 -->
<g id="edge4" class="edge"><title>Node1&#45;&gt;Node5</title>
<path fill="none" stroke="midnightblue" d="M110.144,-76.4326C118.806,-75.0313 127.664,-73.5985 136.141,-72.2272"/>
<polygon fill="midnightblue" stroke="midnightblue" points="109.412,-73.0054 100.099,-78.0575 110.53,-79.9156 109.412,-73.0054"/>
</g>
<!-- Node3 -->
<g id="node3" class="node"><title>Node3</title>
<g id="a_node3"><a xlink:href="classtime__step.html#a2c022f11247af72e607b1493289aa974" target="_top" xlink:title=" Step forward one IO time step. ">
<polygon fill="white" stroke="black" points="287,-98.5 287,-117.5 371,-117.5 371,-98.5 287,-98.5"/>
<text text-anchor="middle" x="329" y="-105.5" font-family="Helvetica,sans-Serif" font-size="10.00">time_step::step</text>
</a>
</g>
</g>
<!-- Node2&#45;&gt;Node3 -->
<g id="edge2" class="edge"><title>Node2&#45;&gt;Node3</title>
<path fill="none" stroke="midnightblue" d="M245.969,-108C259.653,-108 274.007,-108 286.814,-108"/>
<polygon fill="midnightblue" stroke="midnightblue" points="245.672,-104.5 235.672,-108 245.672,-111.5 245.672,-104.5"/>
</g>
<!-- Node4 -->
<g id="node4" class="node"><title>Node4</title>
<g id="a_node4"><a xlink:href="driver_8f90.html#ab1e5a5816a57fc6e95d9563c2bb53590" target="_top" xlink:title=" Main Program ">
<polygon fill="white" stroke="black" points="418,-54.5 418,-73.5 450,-73.5 450,-54.5 418,-54.5"/>
<text text-anchor="middle" x="434" y="-61.5" font-family="Helvetica,sans-Serif" font-size="10.00">icar</text>
</a>
</g>
</g>
<!-- Node3&#45;&gt;Node4 -->
<g id="edge3" class="edge"><title>Node3&#45;&gt;Node4</title>
<path fill="none" stroke="midnightblue" d="M365.144,-94.8826C370.808,-92.6541 376.586,-90.3114 382,-88 394.24,-82.7745 407.868,-76.3277 417.956,-71.4319"/>
<polygon fill="midnightblue" stroke="midnightblue" points="363.865,-91.6243 355.804,-98.4996 366.393,-98.1518 363.865,-91.6243"/>
</g>
<!-- Node6 -->
<g id="node6" class="node"><title>Node6</title>
<g id="a_node6"><a xlink:href="classboundary__conditions.html#a07a42f467f470ada98e0a35fd5a75f66" target="_top" xlink:title=" Initialize the boundary conditions (read inital conditions, etc.) ">
<polygon fill="white" stroke="black" points="276,-49 276,-79 382,-79 382,-49 276,-49"/>
<text text-anchor="start" x="284" y="-67" font-family="Helvetica,sans-Serif" font-size="10.00">boundary_conditions</text>
<text text-anchor="middle" x="329" y="-56" font-family="Helvetica,sans-Serif" font-size="10.00">::bc_init</text>
</a>
</g>
</g>
<!-- Node5&#45;&gt;Node6 -->
<g id="edge5" class="edge"><title>Node5&#45;&gt;Node6</title>
<path fill="none" stroke="midnightblue" d="M249.684,-64C258.397,-64 267.298,-64 275.828,-64"/>
<polygon fill="midnightblue" stroke="midnightblue" points="249.575,-60.5001 239.575,-64 249.575,-67.5001 249.575,-60.5001"/>
</g>
<!-- Node7 -->
<g id="node7" class="node"><title>Node7</title>
<g id="a_node7"><a xlink:href="classboundary__conditions.html#a1e8385c37634f3d7f70ea7c749dcda11" target="_top" xlink:title=" Read in the next timestep of input data and apply to the dXdt grids as appropriate. ">
<polygon fill="white" stroke="black" points="276,-0 276,-30 382,-30 382,-0 276,-0"/>
<text text-anchor="start" x="284" y="-18" font-family="Helvetica,sans-Serif" font-size="10.00">boundary_conditions</text>
<text text-anchor="middle" x="329" y="-7" font-family="Helvetica,sans-Serif" font-size="10.00">::bc_update</text>
</a>
</g>
</g>
<!-- Node5&#45;&gt;Node7 -->
<g id="edge7" class="edge"><title>Node5&#45;&gt;Node7</title>
<path fill="none" stroke="midnightblue" d="M225.59,-51.1014C243.926,-44.6378 266.234,-36.7735 285.344,-30.037"/>
<polygon fill="midnightblue" stroke="midnightblue" points="224.398,-47.8104 216.131,-54.436 226.725,-54.4122 224.398,-47.8104"/>
</g>
<!-- Node6&#45;&gt;Node4 -->
<g id="edge6" class="edge"><title>Node6&#45;&gt;Node4</title>
<path fill="none" stroke="midnightblue" d="M392.369,-64C401.706,-64 410.543,-64 417.576,-64"/>
<polygon fill="midnightblue" stroke="midnightblue" points="392.104,-60.5001 382.104,-64 392.103,-67.5001 392.104,-60.5001"/>
</g>
<!-- Node7&#45;&gt;Node4 -->
<g id="edge8" class="edge"><title>Node7&#45;&gt;Node4</title>
<path fill="none" stroke="midnightblue" d="M372.306,-34.4258C375.591,-35.9644 378.852,-37.5022 382,-39 394.11,-44.7617 407.746,-51.4573 417.87,-56.4683"/>
<polygon fill="midnightblue" stroke="midnightblue" points="373.607,-31.1705 363.064,-30.1197 370.651,-37.5156 373.607,-31.1705"/>
</g>
</g>
</svg>
