<?xml version="1.0" encoding="UTF-8" standalone="no"?>
<!DOCTYPE svg PUBLIC "-//W3C//DTD SVG 1.1//EN"
 "http://www.w3.org/Graphics/SVG/1.1/DTD/svg11.dtd">
<!-- Generated by graphviz version 2.38.0 (20140413.2041)
 -->
<!-- Title: initialize_options::read_forcing_file_names Pages: 1 -->
<svg width="582pt" height="39pt"
 viewBox="0.00 0.00 582.00 39.00" xmlns="http://www.w3.org/2000/svg" xmlns:xlink="http://www.w3.org/1999/xlink">
<g id="graph0" class="graph" transform="scale(1 1) rotate(0) translate(4 35)">
<title>initialize_options::read_forcing_file_names</title>
<polygon fill="white" stroke="none" points="-4,4 -4,-35 578,-35 578,4 -4,4"/>
<!-- Node1 -->
<g id="node1" class="node"><title>Node1</title>
<polygon fill="#bfbfbf" stroke="black" points="0,-0.5 0,-30.5 128,-30.5 128,-0.5 0,-0.5"/>
<text text-anchor="start" x="8" y="-18.5" font-family="Helvetica,sans-Serif" font-size="10.00">initialize_options</text>
<text text-anchor="middle" x="64" y="-7.5" font-family="Helvetica,sans-Serif" font-size="10.00">::read_forcing_file_names</text>
</g>
<!-- Node2 -->
<g id="node2" class="node"><title>Node2</title>
<g id="a_node2"><a xlink:href="classinitialize__options.html#af329549f76b4aa24da83a0f292e32088" target="_top" xlink:title="initialize_options\l::filename_namelist">
<polygon fill="white" stroke="black" points="164,-0.5 164,-30.5 265,-30.5 265,-0.5 164,-0.5"/>
<text text-anchor="start" x="172" y="-18.5" font-family="Helvetica,sans-Serif" font-size="10.00">initialize_options</text>
<text text-anchor="middle" x="214.5" y="-7.5" font-family="Helvetica,sans-Serif" font-size="10.00">::filename_namelist</text>
</a>
</g>
</g>
<!-- Node1&#45;&gt;Node2 -->
<g id="edge1" class="edge"><title>Node1&#45;&gt;Node2</title>
<path fill="none" stroke="midnightblue" d="M138.447,-15.5C147.027,-15.5 155.622,-15.5 163.773,-15.5"/>
<polygon fill="midnightblue" stroke="midnightblue" points="138.408,-12.0001 128.408,-15.5 138.408,-19.0001 138.408,-12.0001"/>
</g>
<!-- Node3 -->
<g id="node3" class="node"><title>Node3</title>
<g id="a_node3"><a xlink:href="classinitialize__options.html#a571709045f201082c9735408ef2f28e3" target="_top" xlink:title="initialize_options\l::init_options">
<polygon fill="white" stroke="black" points="301,-0.5 301,-30.5 390,-30.5 390,-0.5 301,-0.5"/>
<text text-anchor="start" x="309" y="-18.5" font-family="Helvetica,sans-Serif" font-size="10.00">initialize_options</text>
<text text-anchor="middle" x="345.5" y="-7.5" font-family="Helvetica,sans-Serif" font-size="10.00">::init_options</text>
</a>
</g>
</g>
<!-- Node2&#45;&gt;Node3 -->
<g id="edge2" class="edge"><title>Node2&#45;&gt;Node3</title>
<path fill="none" stroke="midnightblue" d="M275.088,-15.5C283.755,-15.5 292.541,-15.5 300.815,-15.5"/>
<polygon fill="midnightblue" stroke="midnightblue" points="275.006,-12.0001 265.006,-15.5 275.006,-19.0001 275.006,-12.0001"/>
</g>
<!-- Node4 -->
<g id="node4" class="node"><title>Node4</title>
<g id="a_node4"><a xlink:href="classinit.html#a1dd1e2b38eef39cba464f65c9ce82568" target="_top" xlink:title="init::init_model">
<polygon fill="white" stroke="black" points="426,-6 426,-25 506,-25 506,-6 426,-6"/>
<text text-anchor="middle" x="466" y="-13" font-family="Helvetica,sans-Serif" font-size="10.00">init::init_model</text>
</a>
</g>
</g>
<!-- Node3&#45;&gt;Node4 -->
<g id="edge3" class="edge"><title>Node3&#45;&gt;Node4</title>
<path fill="none" stroke="midnightblue" d="M400.517,-15.5C409,-15.5 417.627,-15.5 425.696,-15.5"/>
<polygon fill="midnightblue" stroke="midnightblue" points="400.288,-12.0001 390.288,-15.5 400.288,-19.0001 400.288,-12.0001"/>
</g>
<!-- Node5 -->
<g id="node5" class="node"><title>Node5</title>
<g id="a_node5"><a xlink:href="driver_8f90.html#ab1e5a5816a57fc6e95d9563c2bb53590" target="_top" xlink:title=" Main Program ">
<polygon fill="white" stroke="black" points="542,-6 542,-25 574,-25 574,-6 542,-6"/>
<text text-anchor="middle" x="558" y="-13" font-family="Helvetica,sans-Serif" font-size="10.00">icar</text>
</a>
</g>
</g>
<!-- Node4&#45;&gt;Node5 -->
<g id="edge4" class="edge"><title>Node4&#45;&gt;Node5</title>
<path fill="none" stroke="midnightblue" d="M516.233,-15.5C525.449,-15.5 534.425,-15.5 541.599,-15.5"/>
<polygon fill="midnightblue" stroke="midnightblue" points="516.214,-12.0001 506.213,-15.5 516.213,-19.0001 516.214,-12.0001"/>
</g>
</g>
</svg>
