<?xml version="1.0" encoding="UTF-8" standalone="no"?>
<!DOCTYPE svg PUBLIC "-//W3C//DTD SVG 1.1//EN"
 "http://www.w3.org/Graphics/SVG/1.1/DTD/svg11.dtd">
<!-- Generated by graphviz version 2.38.0 (20140413.2041)
 -->
<!-- Title: init::init_domain Pages: 1 -->
<svg width="377pt" height="47pt"
 viewBox="0.00 0.00 377.00 47.00" xmlns="http://www.w3.org/2000/svg" xmlns:xlink="http://www.w3.org/1999/xlink">
<g id="graph0" class="graph" transform="scale(1 1) rotate(0) translate(4 43)">
<title>init::init_domain</title>
<polygon fill="white" stroke="none" points="-4,4 -4,-43 373,-43 373,4 -4,4"/>
<!-- Node1 -->
<g id="node1" class="node"><title>Node1</title>
<polygon fill="#bfbfbf" stroke="black" points="0,-19.5 0,-38.5 85,-38.5 85,-19.5 0,-19.5"/>
<text text-anchor="middle" x="42.5" y="-26.5" font-family="Helvetica,sans-Serif" font-size="10.00">init::init_domain</text>
</g>
<!-- Node2 -->
<g id="node2" class="node"><title>Node2</title>
<g id="a_node2"><a xlink:href="classinit.html#a1dd1e2b38eef39cba464f65c9ce82568" target="_top" xlink:title="init::init_model">
<polygon fill="white" stroke="black" points="221,-19.5 221,-38.5 301,-38.5 301,-19.5 221,-19.5"/>
<text text-anchor="middle" x="261" y="-26.5" font-family="Helvetica,sans-Serif" font-size="10.00">init::init_model</text>
</a>
</g>
</g>
<!-- Node1&#45;&gt;Node2 -->
<g id="edge1" class="edge"><title>Node1&#45;&gt;Node2</title>
<path fill="none" stroke="midnightblue" d="M95.2516,-29C133.854,-29 185.775,-29 220.935,-29"/>
<polygon fill="midnightblue" stroke="midnightblue" points="95.2434,-25.5001 85.2434,-29 95.2433,-32.5001 95.2434,-25.5001"/>
</g>
<!-- Node4 -->
<g id="node4" class="node"><title>Node4</title>
<g id="a_node4"><a xlink:href="classinit.html#a1c6cab46bb16bea719da3b193c43ccb3" target="_top" xlink:title="init::init_bc">
<polygon fill="white" stroke="black" points="121,-0.5 121,-19.5 185,-19.5 185,-0.5 121,-0.5"/>
<text text-anchor="middle" x="153" y="-7.5" font-family="Helvetica,sans-Serif" font-size="10.00">init::init_bc</text>
</a>
</g>
</g>
<!-- Node1&#45;&gt;Node4 -->
<g id="edge3" class="edge"><title>Node1&#45;&gt;Node4</title>
<path fill="none" stroke="midnightblue" d="M95.2696,-19.9344C103.979,-18.4092 112.774,-16.8691 120.754,-15.4717"/>
<polygon fill="midnightblue" stroke="midnightblue" points="94.385,-16.5359 85.1386,-21.7084 95.5925,-23.431 94.385,-16.5359"/>
</g>
<!-- Node3 -->
<g id="node3" class="node"><title>Node3</title>
<g id="a_node3"><a xlink:href="driver_8f90.html#ab1e5a5816a57fc6e95d9563c2bb53590" target="_top" xlink:title=" Main Program ">
<polygon fill="white" stroke="black" points="337,-19.5 337,-38.5 369,-38.5 369,-19.5 337,-19.5"/>
<text text-anchor="middle" x="353" y="-26.5" font-family="Helvetica,sans-Serif" font-size="10.00">icar</text>
</a>
</g>
</g>
<!-- Node2&#45;&gt;Node3 -->
<g id="edge2" class="edge"><title>Node2&#45;&gt;Node3</title>
<path fill="none" stroke="midnightblue" d="M311.233,-29C320.449,-29 329.425,-29 336.599,-29"/>
<polygon fill="midnightblue" stroke="midnightblue" points="311.214,-25.5001 301.213,-29 311.213,-32.5001 311.214,-25.5001"/>
</g>
<!-- Node4&#45;&gt;Node2 -->
<g id="edge4" class="edge"><title>Node4&#45;&gt;Node2</title>
<path fill="none" stroke="midnightblue" d="M195.196,-17.3841C203.584,-18.8877 212.388,-20.4658 220.708,-21.9572"/>
<polygon fill="midnightblue" stroke="midnightblue" points="195.691,-13.9172 185.23,-15.5979 194.456,-20.8074 195.691,-13.9172"/>
</g>
</g>
</svg>
