<?xml version="1.0" encoding="UTF-8" standalone="no"?>
<!DOCTYPE svg PUBLIC "-//W3C//DTD SVG 1.1//EN"
 "http://www.w3.org/Graphics/SVG/1.1/DTD/svg11.dtd">
<!-- Generated by graphviz version 2.32.0 (20130809.1645)
 -->
<!-- Title: planetary_boundary_layer::pbl_finalize Pages: 1 -->
<svg width="246pt" height="38pt"
 viewBox="0.00 0.00 246.00 38.00" xmlns="http://www.w3.org/2000/svg" xmlns:xlink="http://www.w3.org/1999/xlink">
<g id="graph0" class="graph" transform="scale(1 1) rotate(0) translate(4 34)">
<title>planetary_boundary_layer::pbl_finalize</title>
<polygon fill="white" stroke="white" points="-4,5 -4,-34 243,-34 243,5 -4,5"/>
<!-- Node1 -->
<g id="node1" class="node"><title>Node1</title>
<polygon fill="#bfbfbf" stroke="black" points="0.5,-0 0.5,-30 101.5,-30 101.5,-0 0.5,-0"/>
<text text-anchor="start" x="8.5" y="-18" font-family="Helvetica,sans-Serif" font-size="10.00">planetary_boundary</text>
<text text-anchor="middle" x="51" y="-7" font-family="Helvetica,sans-Serif" font-size="10.00">_layer::pbl_finalize</text>
</g>
<!-- Node2 -->
<g id="node2" class="node"><title>Node2</title>
<g id="a_node2"><a xlink:href="classpbl__simple.html#a6d6f20e09015f53e1d4d952b03bd909d" target="_top" xlink:title="pbl_simple::finalize\l_simple_pbl">
<polygon fill="white" stroke="black" points="138,-0 138,-30 238,-30 238,-0 138,-0"/>
<text text-anchor="start" x="146" y="-18" font-family="Helvetica,sans-Serif" font-size="10.00">pbl_simple::finalize</text>
<text text-anchor="middle" x="188" y="-7" font-family="Helvetica,sans-Serif" font-size="10.00">_simple_pbl</text>
</a>
</g>
</g>
<!-- Node1&#45;&gt;Node2 -->
<g id="edge1" class="edge"><title>Node1&#45;&gt;Node2</title>
<path fill="none" stroke="midnightblue" d="M101.502,-15C110.048,-15 119.009,-15 127.781,-15"/>
<polygon fill="midnightblue" stroke="midnightblue" points="127.955,-18.5001 137.955,-15 127.955,-11.5001 127.955,-18.5001"/>
</g>
</g>
</svg>
