<?xml version="1.0" encoding="UTF-8" standalone="no"?>
<!DOCTYPE svg PUBLIC "-//W3C//DTD SVG 1.1//EN"
 "http://www.w3.org/Graphics/SVG/1.1/DTD/svg11.dtd">
<!-- Generated by graphviz version 2.38.0 (20140413.2041)
 -->
<!-- Title: advection::adv_init Pages: 1 -->
<svg width="297pt" height="28pt"
 viewBox="0.00 0.00 297.00 28.00" xmlns="http://www.w3.org/2000/svg" xmlns:xlink="http://www.w3.org/1999/xlink">
<g id="graph0" class="graph" transform="scale(1 1) rotate(0) translate(4 24)">
<title>advection::adv_init</title>
<polygon fill="white" stroke="none" points="-4,4 -4,-24 293,-24 293,4 -4,4"/>
<!-- Node1 -->
<g id="node1" class="node"><title>Node1</title>
<polygon fill="#bfbfbf" stroke="black" points="0,-0.5 0,-19.5 98,-19.5 98,-0.5 0,-0.5"/>
<text text-anchor="middle" x="49" y="-7.5" font-family="Helvetica,sans-Serif" font-size="10.00">advection::adv_init</text>
</g>
<!-- Node2 -->
<g id="node2" class="node"><title>Node2</title>
<g id="a_node2"><a xlink:href="classinit.html#ad066397f42956c6e9d50884a2e84d4e4" target="_top" xlink:title="init::init_physics">
<polygon fill="white" stroke="black" points="134,-0.5 134,-19.5 221,-19.5 221,-0.5 134,-0.5"/>
<text text-anchor="middle" x="177.5" y="-7.5" font-family="Helvetica,sans-Serif" font-size="10.00">init::init_physics</text>
</a>
</g>
</g>
<!-- Node1&#45;&gt;Node2 -->
<g id="edge1" class="edge"><title>Node1&#45;&gt;Node2</title>
<path fill="none" stroke="midnightblue" d="M108.218,-10C116.846,-10 125.601,-10 133.833,-10"/>
<polygon fill="midnightblue" stroke="midnightblue" points="108.185,-6.5001 98.1851,-10 108.185,-13.5001 108.185,-6.5001"/>
</g>
<!-- Node3 -->
<g id="node3" class="node"><title>Node3</title>
<g id="a_node3"><a xlink:href="driver_8f90.html#ab1e5a5816a57fc6e95d9563c2bb53590" target="_top" xlink:title=" Main Program ">
<polygon fill="white" stroke="black" points="257,-0.5 257,-19.5 289,-19.5 289,-0.5 257,-0.5"/>
<text text-anchor="middle" x="273" y="-7.5" font-family="Helvetica,sans-Serif" font-size="10.00">icar</text>
</a>
</g>
</g>
<!-- Node2&#45;&gt;Node3 -->
<g id="edge2" class="edge"><title>Node2&#45;&gt;Node3</title>
<path fill="none" stroke="midnightblue" d="M231.293,-10C240.593,-10 249.569,-10 256.714,-10"/>
<polygon fill="midnightblue" stroke="midnightblue" points="231.146,-6.5001 221.146,-10 231.146,-13.5001 231.146,-6.5001"/>
</g>
</g>
</svg>
