<?xml version="1.0" encoding="UTF-8" standalone="no"?>
<!DOCTYPE svg PUBLIC "-//W3C//DTD SVG 1.1//EN"
 "http://www.w3.org/Graphics/SVG/1.1/DTD/svg11.dtd">
<!-- Generated by graphviz version 2.38.0 (20140413.2041)
 -->
<!-- Title: module_mp_simple::cloud2hydrometeor Pages: 1 -->
<svg width="983pt" height="39pt"
 viewBox="0.00 0.00 983.00 39.00" xmlns="http://www.w3.org/2000/svg" xmlns:xlink="http://www.w3.org/1999/xlink">
<g id="graph0" class="graph" transform="scale(1 1) rotate(0) translate(4 35)">
<title>module_mp_simple::cloud2hydrometeor</title>
<polygon fill="white" stroke="none" points="-4,4 -4,-35 979,-35 979,4 -4,4"/>
<!-- Node1 -->
<g id="node1" class="node"><title>Node1</title>
<polygon fill="#bfbfbf" stroke="black" points="0,-6 0,-25 189,-25 189,-6 0,-6"/>
<text text-anchor="middle" x="94.5" y="-13" font-family="Helvetica,sans-Serif" font-size="10.00">module_mp_simple::cloud2hydrometeor</text>
</g>
<!-- Node2 -->
<g id="node2" class="node"><title>Node2</title>
<g id="a_node2"><a xlink:href="classmodule__mp__simple.html#afa657f819d93fc905ac898e46b0551ce" target="_top" xlink:title=" Compute microphysical conversions ">
<polygon fill="white" stroke="black" points="225,-0.5 225,-30.5 345,-30.5 345,-0.5 225,-0.5"/>
<text text-anchor="start" x="233" y="-18.5" font-family="Helvetica,sans-Serif" font-size="10.00">module_mp_simple::mp</text>
<text text-anchor="middle" x="285" y="-7.5" font-family="Helvetica,sans-Serif" font-size="10.00">_conversions</text>
</a>
</g>
</g>
<!-- Node1&#45;&gt;Node2 -->
<g id="edge1" class="edge"><title>Node1&#45;&gt;Node2</title>
<path fill="none" stroke="midnightblue" d="M199.396,-15.5C208.055,-15.5 216.605,-15.5 224.748,-15.5"/>
<polygon fill="midnightblue" stroke="midnightblue" points="199.198,-12.0001 189.198,-15.5 199.198,-19.0001 199.198,-12.0001"/>
</g>
<!-- Node3 -->
<g id="node3" class="node"><title>Node3</title>
<g id="a_node3"><a xlink:href="classmodule__mp__simple.html#ac6e0bb6089333d9b063ba5f4e6f8127f" target="_top" xlink:title=" Basic microphysics code for a column of air ">
<polygon fill="white" stroke="black" points="381,-0.5 381,-30.5 501,-30.5 501,-0.5 381,-0.5"/>
<text text-anchor="start" x="389" y="-18.5" font-family="Helvetica,sans-Serif" font-size="10.00">module_mp_simple::mp</text>
<text text-anchor="middle" x="441" y="-7.5" font-family="Helvetica,sans-Serif" font-size="10.00">_simple</text>
</a>
</g>
</g>
<!-- Node2&#45;&gt;Node3 -->
<g id="edge2" class="edge"><title>Node2&#45;&gt;Node3</title>
<path fill="none" stroke="midnightblue" d="M355.369,-15.5C363.862,-15.5 372.48,-15.5 380.804,-15.5"/>
<polygon fill="midnightblue" stroke="midnightblue" points="355.1,-12.0001 345.1,-15.5 355.1,-19.0001 355.1,-12.0001"/>
</g>
<!-- Node4 -->
<g id="node4" class="node"><title>Node4</title>
<g id="a_node4"><a xlink:href="classmodule__mp__simple.html#a3b5b540d9d511651c42ec6b3ba842796" target="_top" xlink:title=" Driver code to control simple microphysics ">
<polygon fill="white" stroke="black" points="537,-0.5 537,-30.5 657,-30.5 657,-0.5 537,-0.5"/>
<text text-anchor="start" x="545" y="-18.5" font-family="Helvetica,sans-Serif" font-size="10.00">module_mp_simple::mp</text>
<text text-anchor="middle" x="597" y="-7.5" font-family="Helvetica,sans-Serif" font-size="10.00">_simple_driver</text>
</a>
</g>
</g>
<!-- Node3&#45;&gt;Node4 -->
<g id="edge3" class="edge"><title>Node3&#45;&gt;Node4</title>
<path fill="none" stroke="midnightblue" d="M511.369,-15.5C519.862,-15.5 528.48,-15.5 536.804,-15.5"/>
<polygon fill="midnightblue" stroke="midnightblue" points="511.1,-12.0001 501.1,-15.5 511.1,-19.0001 511.1,-12.0001"/>
</g>
<!-- Node5 -->
<g id="node5" class="node"><title>Node5</title>
<g id="a_node5"><a xlink:href="classmicrophysics.html#ad2296bf9e02061a692cb9bebb6abcf7d" target="_top" xlink:title=" Microphysical driver ">
<polygon fill="white" stroke="black" points="693,-6 693,-25 787,-25 787,-6 693,-6"/>
<text text-anchor="middle" x="740" y="-13" font-family="Helvetica,sans-Serif" font-size="10.00">microphysics::mp</text>
</a>
</g>
</g>
<!-- Node4&#45;&gt;Node5 -->
<g id="edge4" class="edge"><title>Node4&#45;&gt;Node5</title>
<path fill="none" stroke="midnightblue" d="M667.493,-15.5C676.135,-15.5 684.798,-15.5 692.961,-15.5"/>
<polygon fill="midnightblue" stroke="midnightblue" points="667.388,-12.0001 657.388,-15.5 667.388,-19.0001 667.388,-12.0001"/>
</g>
<!-- Node6 -->
<g id="node6" class="node"><title>Node6</title>
<g id="a_node6"><a xlink:href="classtime__step.html#a2c022f11247af72e607b1493289aa974" target="_top" xlink:title=" Step forward one IO time step. ">
<polygon fill="white" stroke="black" points="823,-6 823,-25 907,-25 907,-6 823,-6"/>
<text text-anchor="middle" x="865" y="-13" font-family="Helvetica,sans-Serif" font-size="10.00">time_step::step</text>
</a>
</g>
</g>
<!-- Node5&#45;&gt;Node6 -->
<g id="edge5" class="edge"><title>Node5&#45;&gt;Node6</title>
<path fill="none" stroke="midnightblue" d="M797.191,-15.5C805.834,-15.5 814.618,-15.5 822.853,-15.5"/>
<polygon fill="midnightblue" stroke="midnightblue" points="797.151,-12.0001 787.151,-15.5 797.151,-19.0001 797.151,-12.0001"/>
</g>
<!-- Node7 -->
<g id="node7" class="node"><title>Node7</title>
<g id="a_node7"><a xlink:href="driver_8f90.html#ab1e5a5816a57fc6e95d9563c2bb53590" target="_top" xlink:title=" Main Program ">
<polygon fill="white" stroke="black" points="943,-6 943,-25 975,-25 975,-6 943,-6"/>
<text text-anchor="middle" x="959" y="-13" font-family="Helvetica,sans-Serif" font-size="10.00">icar</text>
</a>
</g>
</g>
<!-- Node6&#45;&gt;Node7 -->
<g id="edge6" class="edge"><title>Node6&#45;&gt;Node7</title>
<path fill="none" stroke="midnightblue" d="M917.253,-15.5C926.521,-15.5 935.5,-15.5 942.66,-15.5"/>
<polygon fill="midnightblue" stroke="midnightblue" points="917.156,-12.0001 907.156,-15.5 917.156,-19.0001 917.156,-12.0001"/>
</g>
</g>
</svg>
