<?xml version="1.0" encoding="UTF-8" standalone="no"?>
<!DOCTYPE svg PUBLIC "-//W3C//DTD SVG 1.1//EN"
 "http://www.w3.org/Graphics/SVG/1.1/DTD/svg11.dtd">
<!-- Generated by graphviz version 2.38.0 (20140413.2041)
 -->
<!-- Title: init::init_ext_winds Pages: 1 -->
<!--zoomable 268 -->
<svg id="main" version="1.1" xmlns="http://www.w3.org/2000/svg" xmlns:xlink="http://www.w3.org/1999/xlink" xml:space="preserve" onload="init(evt)">
<style type="text/css"><![CDATA[
.edge:hover path { stroke: red; }
.edge:hover polygon { stroke: red; fill: red; }
]]></style>
<script type="text/javascript"><![CDATA[
var edges = document.getElementsByTagName('g');
if (edges && edges.length) {
  for (var i=0;i<edges.length;i++) {
    if (edges[i].id.substr(0,4)=='edge') {
      edges[i].setAttribute('class','edge');
    }
  }
}
]]></script>
        <defs>
                <circle id="rim" cx="0" cy="0" r="7"/>
                <circle id="rim2" cx="0" cy="0" r="3.5"/>
                <g id="zoomPlus">
                        <use xlink:href="#rim" fill="#404040">
                                <set attributeName="fill" to="#808080" begin="zoomplus.mouseover" end="zoomplus.mouseout"/>
                        </use>
                        <path d="M-4,0h8M0,-4v8" fill="none" stroke="white" stroke-width="1.5" pointer-events="none"/>
                </g>
                <g id="zoomMin">
                        <use xlink:href="#rim" fill="#404040">
                                <set attributeName="fill" to="#808080" begin="zoomminus.mouseover" end="zoomminus.mouseout"/>
                        </use>
                        <path d="M-4,0h8" fill="none" stroke="white" stroke-width="1.5" pointer-events="none"/>
                </g>
                <g id="dirArrow">
                        <path fill="none" stroke="white" stroke-width="1.5" d="M0,-3.0v7 M-2.5,-0.5L0,-3.0L2.5,-0.5"/>
                </g>
               <g id="resetDef">
                       <use xlink:href="#rim2" fill="#404040">
                               <set attributeName="fill" to="#808080" begin="reset.mouseover" end="reset.mouseout"/>
                       </use>
               </g>
        </defs>

<script type="text/javascript">
var viewWidth = 508;
var viewHeight = 268;
var sectionId = 'dynsection-13';
</script>
<script xlink:href="svgpan.js"/>
<svg id="graph" class="graph">
<g id="viewport">
<title>init::init_ext_winds</title>
<polygon fill="white" stroke="none" points="-4,4 -4,-263.5 504,-263.5 504,4 -4,4"/>
<!-- Node1 -->
<g id="node1" class="node"><title>Node1</title>
<polygon fill="#bfbfbf" stroke="black" points="0,-114.5 0,-133.5 98,-133.5 98,-114.5 0,-114.5"/>
<text text-anchor="middle" x="49" y="-121.5" font-family="Helvetica,sans-Serif" font-size="10.00">init::init_ext_winds</text>
</g>
<!-- Node2 -->
<g id="node2" class="node"><title>Node2</title>
<g id="a_node2"><a xlink:href="interfaceio__routines_1_1io__read.html#a35290f3b01bd8f36bae0173749f6b870" target="_top" xlink:title=" Same as io_read3d but for 2&#45;dimensional data ">
<polygon fill="white" stroke="black" points="142,-229 142,-259 243,-259 243,-229 142,-229"/>
<text text-anchor="start" x="150" y="-247" font-family="Helvetica,sans-Serif" font-size="10.00">io_routines::io_read</text>
<text text-anchor="middle" x="192.5" y="-236" font-family="Helvetica,sans-Serif" font-size="10.00">::io_read2d</text>
</a>
</g>
</g>
<!-- Node1&#45;&gt;Node2 -->
<g id="edge1" class="edge"><title>Node1&#45;&gt;Node2</title>
<path fill="none" stroke="midnightblue" d="M56.3149,-133.599C69.0252,-152.281 99.4497,-193.891 134,-219 136.474,-220.798 139.097,-222.502 141.807,-224.112"/>
<polygon fill="midnightblue" stroke="midnightblue" points="140.224,-227.235 150.683,-228.929 143.564,-221.083 140.224,-227.235"/>
</g>
<!-- Node3 -->
<g id="node3" class="node"><title>Node3</title>
<g id="a_node3"><a xlink:href="classinit.html#a12de2a1a2b6818e778283cc79e883f88" target="_top" xlink:title=" Conver longitudes into a common format for geographic interpolation ">
<polygon fill="white" stroke="black" points="134,-190.5 134,-209.5 251,-209.5 251,-190.5 134,-190.5"/>
<text text-anchor="middle" x="192.5" y="-197.5" font-family="Helvetica,sans-Serif" font-size="10.00">init::convert_longitudes</text>
</a>
</g>
</g>
<!-- Node1&#45;&gt;Node3 -->
<g id="edge2" class="edge"><title>Node1&#45;&gt;Node3</title>
<path fill="none" stroke="midnightblue" d="M61.8666,-133.627C77.5708,-145.987 106.49,-167.45 134,-181 138.368,-183.151 143.037,-185.146 147.756,-186.971"/>
<polygon fill="midnightblue" stroke="midnightblue" points="146.837,-190.36 157.431,-190.472 149.219,-183.778 146.837,-190.36"/>
</g>
<!-- Node4 -->
<g id="node4" class="node"><title>Node4</title>
<g id="a_node4"><a xlink:href="classinit.html#acc580cb29fb9163913d039be6a7442a9" target="_top" xlink:title=" Interpolate a 2D data array in the &quot;x&quot; (first) dimension, extrapolate out one on edges ...">
<polygon fill="white" stroke="black" points="140.5,-152.5 140.5,-171.5 244.5,-171.5 244.5,-152.5 140.5,-152.5"/>
<text text-anchor="middle" x="192.5" y="-159.5" font-family="Helvetica,sans-Serif" font-size="10.00">init::interpolate_in_x</text>
</a>
</g>
</g>
<!-- Node1&#45;&gt;Node4 -->
<g id="edge3" class="edge"><title>Node1&#45;&gt;Node4</title>
<path fill="none" stroke="midnightblue" d="M85.7064,-133.589C103.973,-138.494 126.408,-144.52 145.911,-149.757"/>
<polygon fill="midnightblue" stroke="midnightblue" points="145.239,-153.201 155.805,-152.414 147.055,-146.44 145.239,-153.201"/>
</g>
<!-- Node5 -->
<g id="node5" class="node"><title>Node5</title>
<g id="a_node5"><a xlink:href="classinit.html#ad45c97ba7b7d1f2c70d6596ff77334bd" target="_top" xlink:title=" Interpolate a 2D data array in the &quot;y&quot; (second) dimension, extrapolate out one on edges ...">
<polygon fill="white" stroke="black" points="140.5,-114.5 140.5,-133.5 244.5,-133.5 244.5,-114.5 140.5,-114.5"/>
<text text-anchor="middle" x="192.5" y="-121.5" font-family="Helvetica,sans-Serif" font-size="10.00">init::interpolate_in_y</text>
</a>
</g>
</g>
<!-- Node1&#45;&gt;Node5 -->
<g id="edge4" class="edge"><title>Node1&#45;&gt;Node5</title>
<path fill="none" stroke="midnightblue" d="M98.3005,-124C108.493,-124 119.38,-124 129.984,-124"/>
<polygon fill="midnightblue" stroke="midnightblue" points="130.034,-127.5 140.034,-124 130.034,-120.5 130.034,-127.5"/>
</g>
<!-- Node6 -->
<g id="node6" class="node"><title>Node6</title>
<g id="a_node6"><a xlink:href="classgeo.html#aa64883699f3b5a3f3b75da0b101a8a57" target="_top" xlink:title=" Compute the geographic look up table from LOw resolution grid to HIgh resolution grid ...">
<polygon fill="white" stroke="black" points="157.5,-76.5 157.5,-95.5 227.5,-95.5 227.5,-76.5 157.5,-76.5"/>
<text text-anchor="middle" x="192.5" y="-83.5" font-family="Helvetica,sans-Serif" font-size="10.00">geo::geo_lut</text>
</a>
</g>
</g>
<!-- Node1&#45;&gt;Node6 -->
<g id="edge5" class="edge"><title>Node1&#45;&gt;Node6</title>
<path fill="none" stroke="midnightblue" d="M85.7064,-114.411C104.477,-109.37 127.65,-103.147 147.519,-97.8112"/>
<polygon fill="midnightblue" stroke="midnightblue" points="148.519,-101.167 157.269,-95.1927 146.704,-94.4061 148.519,-101.167"/>
</g>
<!-- Node12 -->
<g id="node12" class="node"><title>Node12</title>
<g id="a_node12"><a xlink:href="classgeo.html#ad6df2866b0f12fabc9d1b393be1b06d7" target="_top" xlink:title=" Interpolate fieldout to fieldin using geolut. ">
<polygon fill="white" stroke="black" points="145.5,-38.5 145.5,-57.5 239.5,-57.5 239.5,-38.5 145.5,-38.5"/>
<text text-anchor="middle" x="192.5" y="-45.5" font-family="Helvetica,sans-Serif" font-size="10.00">geo::geo_interp2d</text>
</a>
</g>
</g>
<!-- Node1&#45;&gt;Node12 -->
<g id="edge11" class="edge"><title>Node1&#45;&gt;Node12</title>
<path fill="none" stroke="midnightblue" d="M61.8666,-114.373C77.5708,-102.013 106.49,-80.5498 134,-67 138.368,-64.8486 143.037,-62.8537 147.756,-61.0292"/>
<polygon fill="midnightblue" stroke="midnightblue" points="149.219,-64.2221 157.431,-57.5279 146.837,-57.6399 149.219,-64.2221"/>
</g>
<!-- Node13 -->
<g id="node13" class="node"><title>Node13</title>
<g id="a_node13"><a xlink:href="classinit.html#a038ea10ca872de4c73000c8a6d31fdb0" target="_top" xlink:title="init::setup_extwinds">
<polygon fill="white" stroke="black" points="140.5,-0.5 140.5,-19.5 244.5,-19.5 244.5,-0.5 140.5,-0.5"/>
<text text-anchor="middle" x="192.5" y="-7.5" font-family="Helvetica,sans-Serif" font-size="10.00">init::setup_extwinds</text>
</a>
</g>
</g>
<!-- Node1&#45;&gt;Node13 -->
<g id="edge12" class="edge"><title>Node1&#45;&gt;Node13</title>
<path fill="none" stroke="midnightblue" d="M55.9303,-114.414C68.1818,-95.3831 98.1597,-52.6332 134,-29 137.077,-26.9707 140.391,-25.1409 143.817,-23.4939"/>
<polygon fill="midnightblue" stroke="midnightblue" points="145.241,-26.6915 153.068,-19.5502 142.496,-20.2523 145.241,-26.6915"/>
</g>
<!-- Node7 -->
<g id="node7" class="node"><title>Node7</title>
<g id="a_node7"><a xlink:href="classgeo.html#a1e7273d41823570bc9f9de6b30aa60fd" target="_top" xlink:title=" Find a location lat,lon in lolat,lon grids Assumes that the lat/lon grids are semi&#45;regular (dx/dy ar...">
<polygon fill="white" stroke="black" points="295.5,-114.5 295.5,-133.5 388.5,-133.5 388.5,-114.5 295.5,-114.5"/>
<text text-anchor="middle" x="342" y="-121.5" font-family="Helvetica,sans-Serif" font-size="10.00">geo::find_location</text>
</a>
</g>
</g>
<!-- Node6&#45;&gt;Node7 -->
<g id="edge6" class="edge"><title>Node6&#45;&gt;Node7</title>
<path fill="none" stroke="midnightblue" d="M227.71,-94.8135C247.4,-99.886 272.427,-106.334 293.949,-111.878"/>
<polygon fill="midnightblue" stroke="midnightblue" points="293.318,-115.33 303.875,-114.436 295.064,-108.551 293.318,-115.33"/>
</g>
<!-- Node10 -->
<g id="node10" class="node"><title>Node10</title>
<g id="a_node10"><a xlink:href="classgeo.html#a7d14c8e02963a466d18edcd79f330359" target="_top" xlink:title=" Given a closest position, return the 4 points surrounding the lat/lon position in lolat/lon ...">
<polygon fill="white" stroke="black" points="287,-76.5 287,-95.5 397,-95.5 397,-76.5 287,-76.5"/>
<text text-anchor="middle" x="342" y="-83.5" font-family="Helvetica,sans-Serif" font-size="10.00">geo::find_surrounding</text>
</a>
</g>
</g>
<!-- Node6&#45;&gt;Node10 -->
<g id="edge9" class="edge"><title>Node6&#45;&gt;Node10</title>
<path fill="none" stroke="midnightblue" d="M227.71,-86C242.228,-86 259.649,-86 276.426,-86"/>
<polygon fill="midnightblue" stroke="midnightblue" points="276.757,-89.5001 286.757,-86 276.757,-82.5001 276.757,-89.5001"/>
</g>
<!-- Node11 -->
<g id="node11" class="node"><title>Node11</title>
<g id="a_node11"><a xlink:href="classgeo.html#af4b522675af159cdf68f947dbaba102c" target="_top" xlink:title=" Calculate the weights to use for bilinear interpolation between surrounding points x...">
<polygon fill="white" stroke="black" points="294.5,-38.5 294.5,-57.5 389.5,-57.5 389.5,-38.5 294.5,-38.5"/>
<text text-anchor="middle" x="342" y="-45.5" font-family="Helvetica,sans-Serif" font-size="10.00">geo::bilin_weights</text>
</a>
</g>
</g>
<!-- Node6&#45;&gt;Node11 -->
<g id="edge10" class="edge"><title>Node6&#45;&gt;Node11</title>
<path fill="none" stroke="midnightblue" d="M227.71,-77.1865C247.4,-72.114 272.427,-65.6661 293.949,-60.1217"/>
<polygon fill="midnightblue" stroke="midnightblue" points="295.064,-63.4487 303.875,-57.5645 293.318,-56.67 295.064,-63.4487"/>
</g>
<!-- Node8 -->
<g id="node8" class="node"><title>Node8</title>
<g id="a_node8"><a xlink:href="classgeo.html#a90d24402dc82ec462d2683728881818e" target="_top" xlink:title=" Find the minimum next step size in the x direction xw=minxw(xw,lolon,xc,yc,lon) ">
<polygon fill="white" stroke="black" points="433,-133.5 433,-152.5 500,-152.5 500,-133.5 433,-133.5"/>
<text text-anchor="middle" x="466.5" y="-140.5" font-family="Helvetica,sans-Serif" font-size="10.00">geo::minxw</text>
</a>
</g>
</g>
<!-- Node7&#45;&gt;Node8 -->
<g id="edge7" class="edge"><title>Node7&#45;&gt;Node8</title>
<path fill="none" stroke="midnightblue" d="M388.614,-131.075C399.864,-132.82 411.868,-134.682 422.965,-136.403"/>
<polygon fill="midnightblue" stroke="midnightblue" points="422.435,-139.862 432.853,-137.936 423.508,-132.945 422.435,-139.862"/>
</g>
<!-- Node9 -->
<g id="node9" class="node"><title>Node9</title>
<g id="a_node9"><a xlink:href="classgeo.html#a26f0801662f938ba2e6cd8d33a7be586" target="_top" xlink:title=" Find the minimum next step size in the y direction yw = minyw(yw,lolat,xc,yc,lat) ...">
<polygon fill="white" stroke="black" points="433,-95.5 433,-114.5 500,-114.5 500,-95.5 433,-95.5"/>
<text text-anchor="middle" x="466.5" y="-102.5" font-family="Helvetica,sans-Serif" font-size="10.00">geo::minyw</text>
</a>
</g>
</g>
<!-- Node7&#45;&gt;Node9 -->
<g id="edge8" class="edge"><title>Node7&#45;&gt;Node9</title>
<path fill="none" stroke="midnightblue" d="M388.614,-116.925C399.864,-115.18 411.868,-113.318 422.965,-111.597"/>
<polygon fill="midnightblue" stroke="midnightblue" points="423.508,-115.055 432.853,-110.064 422.435,-108.138 423.508,-115.055"/>
</g>
</g>
</svg>
        <g id="navigator" transform="translate(0 0)" fill="#404254">
                <rect fill="#f2f5e9" fill-opacity="0.5" stroke="#606060" stroke-width=".5" x="0" y="0" width="60" height="60"/>
                <use id="zoomplus" xlink:href="#zoomPlus" x="17" y="9" onmousedown="handleZoom(evt,'in')"/>
                <use id="zoomminus" xlink:href="#zoomMin" x="42" y="9" onmousedown="handleZoom(evt,'out')"/>
                <use id="reset" xlink:href="#resetDef" x="30" y="36" onmousedown="handleReset()"/>
                <g id="arrowUp" xlink:href="#dirArrow" transform="translate(30 24)" onmousedown="handlePan(0,-1)">
                  <use xlink:href="#rim" fill="#404040">
                        <set attributeName="fill" to="#808080" begin="arrowUp.mouseover" end="arrowUp.mouseout"/>
                  </use>
                  <path fill="none" stroke="white" stroke-width="1.5" d="M0,-3.0v7 M-2.5,-0.5L0,-3.0L2.5,-0.5"/>
                </g>
                <g id="arrowRight" xlink:href="#dirArrow" transform="rotate(90) translate(36 -43)" onmousedown="handlePan(1,0)">
                  <use xlink:href="#rim" fill="#404040">
                        <set attributeName="fill" to="#808080" begin="arrowRight.mouseover" end="arrowRight.mouseout"/>
                  </use>
                  <path fill="none" stroke="white" stroke-width="1.5" d="M0,-3.0v7 M-2.5,-0.5L0,-3.0L2.5,-0.5"/>
                </g>
                <g id="arrowDown" xlink:href="#dirArrow" transform="rotate(180) translate(-30 -48)" onmousedown="handlePan(0,1)">
                  <use xlink:href="#rim" fill="#404040">
                        <set attributeName="fill" to="#808080" begin="arrowDown.mouseover" end="arrowDown.mouseout"/>
                  </use>
                  <path fill="none" stroke="white" stroke-width="1.5" d="M0,-3.0v7 M-2.5,-0.5L0,-3.0L2.5,-0.5"/>
                </g>
                <g id="arrowLeft" xlink:href="#dirArrow" transform="rotate(270) translate(-36 17)" onmousedown="handlePan(-1,0)">
                  <use xlink:href="#rim" fill="#404040">
                        <set attributeName="fill" to="#808080" begin="arrowLeft.mouseover" end="arrowLeft.mouseout"/>
                  </use>
                  <path fill="none" stroke="white" stroke-width="1.5" d="M0,-3.0v7 M-2.5,-0.5L0,-3.0L2.5,-0.5"/>
                </g>
        </g>
        <svg viewBox="0 0 15 15" width="100%" height="30px" preserveAspectRatio="xMaxYMin meet">
         <g id="arrow_out" transform="scale(0.3 0.3)">
          <a xlink:href="classinit_a8b5935b5b45a47c58fdd67157c16764b_cgraph_org.svg" target="_base">
           <rect id="button" ry="5" rx="5" y="6" x="6" height="38" width="38"
                fill="#f2f5e9" fill-opacity="0.5" stroke="#606060" stroke-width="1.0"/>
           <path id="arrow"
             d="M 11.500037,31.436501 C 11.940474,20.09759 22.043105,11.32322 32.158766,21.979434 L 37.068811,17.246167 C 37.068811,17.246167 37.088388,32 37.088388,32 L 22.160133,31.978069 C 22.160133,31.978069 26.997745,27.140456 26.997745,27.140456 C 18.528582,18.264221 13.291696,25.230495 11.500037,31.436501 z"
             style="fill:#404040;"/>
          </a>
         </g>
        </svg>
</svg>
