<?xml version="1.0" encoding="UTF-8" standalone="no"?>
<!DOCTYPE svg PUBLIC "-//W3C//DTD SVG 1.1//EN"
 "http://www.w3.org/Graphics/SVG/1.1/DTD/svg11.dtd">
<!-- Generated by graphviz version 2.38.0 (20140413.2041)
 -->
<!-- Title: time::calc_day_of_year Pages: 1 -->
<svg width="1153pt" height="53pt"
 viewBox="0.00 0.00 1153.00 52.50" xmlns="http://www.w3.org/2000/svg" xmlns:xlink="http://www.w3.org/1999/xlink">
<g id="graph0" class="graph" transform="scale(1 1) rotate(0) translate(4 48.5)">
<title>time::calc_day_of_year</title>
<polygon fill="white" stroke="none" points="-4,4 -4,-48.5 1149,-48.5 1149,4 -4,4"/>
<!-- Node1 -->
<g id="node1" class="node"><title>Node1</title>
<polygon fill="#bfbfbf" stroke="black" points="0,-19.5 0,-38.5 118,-38.5 118,-19.5 0,-19.5"/>
<text text-anchor="middle" x="59" y="-26.5" font-family="Helvetica,sans-Serif" font-size="10.00">time::calc_day_of_year</text>
</g>
<!-- Node2 -->
<g id="node2" class="node"><title>Node2</title>
<g id="a_node2"><a xlink:href="classmodule__ra__simple.html#a4529da23ec7082aeafd82ffcad0e6e43" target="_top" xlink:title="module_ra_simple::calc\l_solar_elevation">
<polygon fill="white" stroke="black" points="154,-14 154,-44 273,-44 273,-14 154,-14"/>
<text text-anchor="start" x="162" y="-32" font-family="Helvetica,sans-Serif" font-size="10.00">module_ra_simple::calc</text>
<text text-anchor="middle" x="213.5" y="-21" font-family="Helvetica,sans-Serif" font-size="10.00">_solar_elevation</text>
</a>
</g>
</g>
<!-- Node1&#45;&gt;Node2 -->
<g id="edge1" class="edge"><title>Node1&#45;&gt;Node2</title>
<path fill="none" stroke="midnightblue" d="M128.358,-29C136.854,-29 145.482,-29 153.815,-29"/>
<polygon fill="midnightblue" stroke="midnightblue" points="128.089,-25.5001 118.089,-29 128.089,-32.5001 128.089,-25.5001"/>
</g>
<!-- Node3 -->
<g id="node3" class="node"><title>Node3</title>
<g id="a_node3"><a xlink:href="classmodule__ra__simple.html#ad1c74605b2817f833d31e806f791e246" target="_top" xlink:title="module_ra_simple::ra\l_simple">
<polygon fill="white" stroke="black" points="309,-14 309,-44 419,-44 419,-14 309,-14"/>
<text text-anchor="start" x="317" y="-32" font-family="Helvetica,sans-Serif" font-size="10.00">module_ra_simple::ra</text>
<text text-anchor="middle" x="364" y="-21" font-family="Helvetica,sans-Serif" font-size="10.00">_simple</text>
</a>
</g>
</g>
<!-- Node2&#45;&gt;Node3 -->
<g id="edge2" class="edge"><title>Node2&#45;&gt;Node3</title>
<path fill="none" stroke="midnightblue" d="M283.42,-29C291.868,-29 300.408,-29 308.6,-29"/>
<polygon fill="midnightblue" stroke="midnightblue" points="283.191,-25.5001 273.191,-29 283.191,-32.5001 283.191,-25.5001"/>
</g>
<!-- Node4 -->
<g id="node4" class="node"><title>Node4</title>
<g id="a_node4"><a xlink:href="classradiation.html#aba1a06d27af96fe11d576458c8ccfe77" target="_top" xlink:title="radiation::rad">
<polygon fill="white" stroke="black" points="455,-19.5 455,-38.5 528,-38.5 528,-19.5 455,-19.5"/>
<text text-anchor="middle" x="491.5" y="-26.5" font-family="Helvetica,sans-Serif" font-size="10.00">radiation::rad</text>
</a>
</g>
</g>
<!-- Node3&#45;&gt;Node4 -->
<g id="edge3" class="edge"><title>Node3&#45;&gt;Node4</title>
<path fill="none" stroke="midnightblue" d="M429.549,-29C438.282,-29 446.969,-29 454.931,-29"/>
<polygon fill="midnightblue" stroke="midnightblue" points="429.316,-25.5001 419.316,-29 429.316,-32.5001 429.316,-25.5001"/>
</g>
<!-- Node5 -->
<g id="node5" class="node"><title>Node5</title>
<g id="a_node5"><a xlink:href="classtime__step.html#a2c022f11247af72e607b1493289aa974" target="_top" xlink:title=" Step forward one IO time step. ">
<polygon fill="white" stroke="black" points="993,-19.5 993,-38.5 1077,-38.5 1077,-19.5 993,-19.5"/>
<text text-anchor="middle" x="1035" y="-26.5" font-family="Helvetica,sans-Serif" font-size="10.00">time_step::step</text>
</a>
</g>
</g>
<!-- Node4&#45;&gt;Node5 -->
<g id="edge4" class="edge"><title>Node4&#45;&gt;Node5</title>
<path fill="none" stroke="midnightblue" d="M538.175,-29C641.858,-29 893.677,-29 992.869,-29"/>
<polygon fill="midnightblue" stroke="midnightblue" points="538.029,-25.5001 528.029,-29 538.029,-32.5001 538.029,-25.5001"/>
</g>
<!-- Node7 -->
<g id="node7" class="node"><title>Node7</title>
<g id="a_node7"><a xlink:href="classmodule__cu__kf.html#afbc0670c02010c630409b1796e89a3fb" target="_top" xlink:title="module_cu_kf::kfpara">
<polygon fill="white" stroke="black" points="564,-0.5 564,-19.5 674,-19.5 674,-0.5 564,-0.5"/>
<text text-anchor="middle" x="619" y="-7.5" font-family="Helvetica,sans-Serif" font-size="10.00">module_cu_kf::kfpara</text>
</a>
</g>
</g>
<!-- Node4&#45;&gt;Node7 -->
<g id="edge6" class="edge"><title>Node4&#45;&gt;Node7</title>
<path fill="none" stroke="midnightblue" d="M538.116,-22.094C546.522,-20.8214 555.372,-19.4816 563.997,-18.1757"/>
<polygon fill="midnightblue" stroke="midnightblue" points="537.491,-18.6486 528.128,-23.6062 538.539,-25.5698 537.491,-18.6486"/>
</g>
<!-- Node6 -->
<g id="node6" class="node"><title>Node6</title>
<g id="a_node6"><a xlink:href="driver_8f90.html#ab1e5a5816a57fc6e95d9563c2bb53590" target="_top" xlink:title=" Main Program ">
<polygon fill="white" stroke="black" points="1113,-19.5 1113,-38.5 1145,-38.5 1145,-19.5 1113,-19.5"/>
<text text-anchor="middle" x="1129" y="-26.5" font-family="Helvetica,sans-Serif" font-size="10.00">icar</text>
</a>
</g>
</g>
<!-- Node5&#45;&gt;Node6 -->
<g id="edge5" class="edge"><title>Node5&#45;&gt;Node6</title>
<path fill="none" stroke="midnightblue" d="M1087.25,-29C1096.52,-29 1105.5,-29 1112.66,-29"/>
<polygon fill="midnightblue" stroke="midnightblue" points="1087.16,-25.5001 1077.16,-29 1087.16,-32.5001 1087.16,-25.5001"/>
</g>
<!-- Node8 -->
<g id="node8" class="node"><title>Node8</title>
<g id="a_node8"><a xlink:href="classmodule__cu__kf.html#a273d9ce9bce064bfc092d6940bea4e27" target="_top" xlink:title="module_cu_kf::kfcps">
<polygon fill="white" stroke="black" points="710,-0.5 710,-19.5 817,-19.5 817,-0.5 710,-0.5"/>
<text text-anchor="middle" x="763.5" y="-7.5" font-family="Helvetica,sans-Serif" font-size="10.00">module_cu_kf::kfcps</text>
</a>
</g>
</g>
<!-- Node7&#45;&gt;Node8 -->
<g id="edge7" class="edge"><title>Node7&#45;&gt;Node8</title>
<path fill="none" stroke="midnightblue" d="M684.503,-10C692.962,-10 701.55,-10 709.783,-10"/>
<polygon fill="midnightblue" stroke="midnightblue" points="684.28,-6.5001 674.28,-10 684.28,-13.5001 684.28,-6.5001"/>
</g>
<!-- Node9 -->
<g id="node9" class="node"><title>Node9</title>
<g id="a_node9"><a xlink:href="classconvection.html#a06b811540eb747b3734e7fb35de41782" target="_top" xlink:title="convection::convect">
<polygon fill="white" stroke="black" points="853,-0.5 853,-19.5 957,-19.5 957,-0.5 853,-0.5"/>
<text text-anchor="middle" x="905" y="-7.5" font-family="Helvetica,sans-Serif" font-size="10.00">convection::convect</text>
</a>
</g>
</g>
<!-- Node8&#45;&gt;Node9 -->
<g id="edge8" class="edge"><title>Node8&#45;&gt;Node9</title>
<path fill="none" stroke="midnightblue" d="M827.409,-10C835.828,-10 844.382,-10 852.572,-10"/>
<polygon fill="midnightblue" stroke="midnightblue" points="827.239,-6.5001 817.239,-10 827.239,-13.5001 827.239,-6.5001"/>
</g>
<!-- Node9&#45;&gt;Node5 -->
<g id="edge9" class="edge"><title>Node9&#45;&gt;Node5</title>
<path fill="none" stroke="midnightblue" d="M967.406,-19.115C976.051,-20.3982 984.759,-21.6907 992.897,-22.8988"/>
<polygon fill="midnightblue" stroke="midnightblue" points="967.731,-15.6249 957.325,-17.6185 966.703,-22.549 967.731,-15.6249"/>
</g>
</g>
</svg>
