<?xml version="1.0" encoding="UTF-8" standalone="no"?>
<!DOCTYPE svg PUBLIC "-//W3C//DTD SVG 1.1//EN"
 "http://www.w3.org/Graphics/SVG/1.1/DTD/svg11.dtd">
<!-- Generated by graphviz version 2.38.0 (20140413.2041)
 -->
<!-- Title: linear_theory_winds::linear_perturb Pages: 1 -->
<svg width="471pt" height="88pt"
 viewBox="0.00 0.00 471.00 88.00" xmlns="http://www.w3.org/2000/svg" xmlns:xlink="http://www.w3.org/1999/xlink">
<g id="graph0" class="graph" transform="scale(1 1) rotate(0) translate(4 84)">
<title>linear_theory_winds::linear_perturb</title>
<polygon fill="white" stroke="none" points="-4,4 -4,-84 467,-84 467,4 -4,4"/>
<!-- Node1 -->
<g id="node1" class="node"><title>Node1</title>
<polygon fill="#bfbfbf" stroke="black" points="0,-24.5 0,-54.5 103,-54.5 103,-24.5 0,-24.5"/>
<text text-anchor="start" x="8" y="-42.5" font-family="Helvetica,sans-Serif" font-size="10.00">linear_theory_winds</text>
<text text-anchor="middle" x="51.5" y="-31.5" font-family="Helvetica,sans-Serif" font-size="10.00">::linear_perturb</text>
</g>
<!-- Node2 -->
<g id="node2" class="node"><title>Node2</title>
<g id="a_node2"><a xlink:href="classboundary__conditions.html#ac4cfb5127bfecdc6e088ef949694ea4a" target="_top" xlink:title=" Remove linear theory topographic winds perturbations from the low resolution wind field...">
<polygon fill="white" stroke="black" points="139,-46.5 139,-76.5 253,-76.5 253,-46.5 139,-46.5"/>
<text text-anchor="start" x="147" y="-64.5" font-family="Helvetica,sans-Serif" font-size="10.00">boundary_conditions</text>
<text text-anchor="middle" x="196" y="-53.5" font-family="Helvetica,sans-Serif" font-size="10.00">::remove_linear_winds</text>
</a>
</g>
</g>
<!-- Node1&#45;&gt;Node2 -->
<g id="edge1" class="edge"><title>Node1&#45;&gt;Node2</title>
<path fill="none" stroke="midnightblue" d="M113.295,-48.886C121.728,-50.1878 130.36,-51.5205 138.706,-52.809"/>
<polygon fill="midnightblue" stroke="midnightblue" points="113.558,-45.3852 103.141,-47.3183 112.49,-52.3032 113.558,-45.3852"/>
</g>
<!-- Node6 -->
<g id="node6" class="node"><title>Node6</title>
<g id="a_node6"><a xlink:href="classwind.html#a582192f02996b37543b966df84af1e78" target="_top" xlink:title="wind::update_winds">
<polygon fill="white" stroke="black" points="144.5,-8 144.5,-27 247.5,-27 247.5,-8 144.5,-8"/>
<text text-anchor="middle" x="196" y="-15" font-family="Helvetica,sans-Serif" font-size="10.00">wind::update_winds</text>
</a>
</g>
</g>
<!-- Node1&#45;&gt;Node6 -->
<g id="edge6" class="edge"><title>Node1&#45;&gt;Node6</title>
<path fill="none" stroke="midnightblue" d="M113.265,-30.1188C123.519,-28.5357 134.07,-26.9068 144.042,-25.3673"/>
<polygon fill="midnightblue" stroke="midnightblue" points="112.49,-26.6968 103.141,-31.6817 113.558,-33.6148 112.49,-26.6968"/>
</g>
<!-- Node3 -->
<g id="node3" class="node"><title>Node3</title>
<g id="a_node3"><a xlink:href="classboundary__conditions.html#a07a42f467f470ada98e0a35fd5a75f66" target="_top" xlink:title=" Initialize the boundary conditions (read inital conditions, etc.) ">
<polygon fill="white" stroke="black" points="289,-49.5 289,-79.5 395,-79.5 395,-49.5 289,-49.5"/>
<text text-anchor="start" x="297" y="-67.5" font-family="Helvetica,sans-Serif" font-size="10.00">boundary_conditions</text>
<text text-anchor="middle" x="342" y="-56.5" font-family="Helvetica,sans-Serif" font-size="10.00">::bc_init</text>
</a>
</g>
</g>
<!-- Node2&#45;&gt;Node3 -->
<g id="edge2" class="edge"><title>Node2&#45;&gt;Node3</title>
<path fill="none" stroke="midnightblue" d="M263.338,-62.882C271.811,-63.0586 280.389,-63.2373 288.599,-63.4083"/>
<polygon fill="midnightblue" stroke="midnightblue" points="263.157,-59.3776 253.086,-62.6685 263.011,-66.3761 263.157,-59.3776"/>
</g>
<!-- Node5 -->
<g id="node5" class="node"><title>Node5</title>
<g id="a_node5"><a xlink:href="classboundary__conditions.html#a1e8385c37634f3d7f70ea7c749dcda11" target="_top" xlink:title=" Read in the next timestep of input data and apply to the dXdt grids as appropriate. ">
<polygon fill="white" stroke="black" points="289,-0.5 289,-30.5 395,-30.5 395,-0.5 289,-0.5"/>
<text text-anchor="start" x="297" y="-18.5" font-family="Helvetica,sans-Serif" font-size="10.00">boundary_conditions</text>
<text text-anchor="middle" x="342" y="-7.5" font-family="Helvetica,sans-Serif" font-size="10.00">::bc_update</text>
</a>
</g>
</g>
<!-- Node2&#45;&gt;Node5 -->
<g id="edge4" class="edge"><title>Node2&#45;&gt;Node5</title>
<path fill="none" stroke="midnightblue" d="M254.045,-43.2772C267.202,-39.0743 281.056,-34.6487 293.743,-30.596"/>
<polygon fill="midnightblue" stroke="midnightblue" points="252.612,-40.0608 244.151,-46.4379 254.742,-46.7289 252.612,-40.0608"/>
</g>
<!-- Node4 -->
<g id="node4" class="node"><title>Node4</title>
<g id="a_node4"><a xlink:href="driver_8f90.html#ab1e5a5816a57fc6e95d9563c2bb53590" target="_top" xlink:title=" Main Program ">
<polygon fill="white" stroke="black" points="431,-30 431,-49 463,-49 463,-30 431,-30"/>
<text text-anchor="middle" x="447" y="-37" font-family="Helvetica,sans-Serif" font-size="10.00">icar</text>
</a>
</g>
</g>
<!-- Node3&#45;&gt;Node4 -->
<g id="edge3" class="edge"><title>Node3&#45;&gt;Node4</title>
<path fill="none" stroke="midnightblue" d="M405.071,-49.4343C414.517,-47.1414 423.468,-44.9689 430.576,-43.2436"/>
<polygon fill="midnightblue" stroke="midnightblue" points="403.996,-46.0935 395.104,-51.8535 405.647,-52.896 403.996,-46.0935"/>
</g>
<!-- Node5&#45;&gt;Node4 -->
<g id="edge5" class="edge"><title>Node5&#45;&gt;Node4</title>
<path fill="none" stroke="midnightblue" d="M405.071,-29.9631C414.517,-32.1642 423.468,-34.2498 430.576,-35.9061"/>
<polygon fill="midnightblue" stroke="midnightblue" points="405.637,-26.5013 395.104,-27.6406 404.048,-33.3187 405.637,-26.5013"/>
</g>
<!-- Node6&#45;&gt;Node3 -->
<g id="edge7" class="edge"><title>Node6&#45;&gt;Node3</title>
<path fill="none" stroke="midnightblue" d="M235.84,-30.1768C254.041,-36.1175 275.859,-43.2388 294.893,-49.4512"/>
<polygon fill="midnightblue" stroke="midnightblue" points="236.733,-26.7868 226.141,-27.0112 234.561,-33.4413 236.733,-26.7868"/>
</g>
<!-- Node6&#45;&gt;Node5 -->
<g id="edge8" class="edge"><title>Node6&#45;&gt;Node5</title>
<path fill="none" stroke="midnightblue" d="M257.895,-16.6542C268.156,-16.5117 278.725,-16.3649 288.742,-16.2258"/>
<polygon fill="midnightblue" stroke="midnightblue" points="257.719,-13.1562 247.769,-16.7949 257.817,-20.1556 257.719,-13.1562"/>
</g>
</g>
</svg>
