<?xml version="1.0" encoding="UTF-8" standalone="no"?>
<!DOCTYPE svg PUBLIC "-//W3C//DTD SVG 1.1//EN"
 "http://www.w3.org/Graphics/SVG/1.1/DTD/svg11.dtd">
<!-- Generated by graphviz version 2.32.0 (20130809.1645)
 -->
<!-- Title: linear_theory_winds::setup_linwinds Pages: 1 -->
<svg width="854pt" height="319pt"
 viewBox="0.00 0.00 854.00 319.00" xmlns="http://www.w3.org/2000/svg" xmlns:xlink="http://www.w3.org/1999/xlink">
<g id="graph0" class="graph" transform="scale(1 1) rotate(0) translate(4 315)">
<title>linear_theory_winds::setup_linwinds</title>
<polygon fill="white" stroke="white" points="-4,5 -4,-315 851,-315 851,5 -4,5"/>
<!-- Node1 -->
<g id="node1" class="node"><title>Node1</title>
<polygon fill="#bfbfbf" stroke="black" points="0.5,-207 0.5,-237 103.5,-237 103.5,-207 0.5,-207"/>
<text text-anchor="start" x="8.5" y="-225" font-family="Helvetica,sans-Serif" font-size="10.00">linear_theory_winds</text>
<text text-anchor="middle" x="52" y="-214" font-family="Helvetica,sans-Serif" font-size="10.00">::setup_linwinds</text>
</g>
<!-- Node2 -->
<g id="node2" class="node"><title>Node2</title>
<g id="a_node2"><a xlink:href="classlinear__theory__winds.html#abd669b485ef98ac64dad6b8590974da3" target="_top" xlink:title="linear_theory_winds\l::set_module_options">
<polygon fill="white" stroke="black" points="146,-281 146,-311 256,-311 256,-281 146,-281"/>
<text text-anchor="start" x="154" y="-299" font-family="Helvetica,sans-Serif" font-size="10.00">linear_theory_winds</text>
<text text-anchor="middle" x="201" y="-288" font-family="Helvetica,sans-Serif" font-size="10.00">::set_module_options</text>
</a>
</g>
</g>
<!-- Node1&#45;&gt;Node2 -->
<g id="edge1" class="edge"><title>Node1&#45;&gt;Node2</title>
<path fill="none" stroke="midnightblue" d="M78.0832,-237.17C95.24,-247.286 118.655,-260.587 140,-271 144.046,-272.974 148.288,-274.939 152.566,-276.851"/>
<polygon fill="midnightblue" stroke="midnightblue" points="151.364,-280.145 161.929,-280.934 154.162,-273.729 151.364,-280.145"/>
</g>
<!-- Node3 -->
<g id="node3" class="node"><title>Node3</title>
<g id="a_node3"><a xlink:href="classlinear__theory__winds.html#a9a4361691c200925fcb5da146c4f0691" target="_top" xlink:title="linear_theory_winds\l::add_buffer_topo">
<polygon fill="white" stroke="black" points="149.5,-232 149.5,-262 252.5,-262 252.5,-232 149.5,-232"/>
<text text-anchor="start" x="157.5" y="-250" font-family="Helvetica,sans-Serif" font-size="10.00">linear_theory_winds</text>
<text text-anchor="middle" x="201" y="-239" font-family="Helvetica,sans-Serif" font-size="10.00">::add_buffer_topo</text>
</a>
</g>
</g>
<!-- Node1&#45;&gt;Node3 -->
<g id="edge2" class="edge"><title>Node1&#45;&gt;Node3</title>
<path fill="none" stroke="midnightblue" d="M103.589,-230.604C115.138,-232.568 127.526,-234.674 139.445,-236.702"/>
<polygon fill="midnightblue" stroke="midnightblue" points="138.872,-240.154 149.318,-238.381 140.046,-233.253 138.872,-240.154"/>
</g>
<!-- Node5 -->
<g id="node5" class="node"><title>Node5</title>
<g id="a_node5"><a xlink:href="interfaceio__routines_1_1io__read.html#a35290f3b01bd8f36bae0173749f6b870" target="_top" xlink:title=" Same as io_read3d but for 2&#45;dimensional data ">
<polygon fill="white" stroke="black" points="150.5,-183 150.5,-213 251.5,-213 251.5,-183 150.5,-183"/>
<text text-anchor="start" x="158.5" y="-201" font-family="Helvetica,sans-Serif" font-size="10.00">io_routines::io_read</text>
<text text-anchor="middle" x="201" y="-190" font-family="Helvetica,sans-Serif" font-size="10.00">::io_read2d</text>
</a>
</g>
</g>
<!-- Node1&#45;&gt;Node5 -->
<g id="edge4" class="edge"><title>Node1&#45;&gt;Node5</title>
<path fill="none" stroke="midnightblue" d="M103.589,-213.741C115.398,-211.813 128.083,-209.742 140.248,-207.755"/>
<polygon fill="midnightblue" stroke="midnightblue" points="141.007,-211.178 150.313,-206.112 139.879,-204.269 141.007,-211.178"/>
</g>
<!-- Node6 -->
<g id="node6" class="node"><title>Node6</title>
<g id="a_node6"><a xlink:href="classlinear__theory__winds.html#a1c7117dad74a51614a026a50aec8b988" target="_top" xlink:title="linear_theory_winds\l::initialize_spatial_winds">
<polygon fill="white" stroke="black" points="140,-110 140,-140 262,-140 262,-110 140,-110"/>
<text text-anchor="start" x="148" y="-128" font-family="Helvetica,sans-Serif" font-size="10.00">linear_theory_winds</text>
<text text-anchor="middle" x="201" y="-117" font-family="Helvetica,sans-Serif" font-size="10.00">::initialize_spatial_winds</text>
</a>
</g>
</g>
<!-- Node1&#45;&gt;Node6 -->
<g id="edge5" class="edge"><title>Node1&#45;&gt;Node6</title>
<path fill="none" stroke="midnightblue" d="M75.9688,-206.844C100.888,-190.4 140.827,-164.046 168.628,-145.702"/>
<polygon fill="midnightblue" stroke="midnightblue" points="170.774,-148.479 177.193,-140.05 166.918,-142.636 170.774,-148.479"/>
</g>
<!-- Node4 -->
<g id="node4" class="node"><title>Node4</title>
<g id="a_node4"><a xlink:href="interfaceio__routines_1_1io__write.html#a96eb70acfac04d289ad2eb5892062172" target="_top" xlink:title=" Same as io_write3d but for 2&#45;dimensional arrays ">
<polygon fill="white" stroke="black" points="302,-245 302,-275 406,-275 406,-245 302,-245"/>
<text text-anchor="start" x="310" y="-263" font-family="Helvetica,sans-Serif" font-size="10.00">io_routines::io_write</text>
<text text-anchor="middle" x="354" y="-252" font-family="Helvetica,sans-Serif" font-size="10.00">::io_write2d</text>
</a>
</g>
</g>
<!-- Node3&#45;&gt;Node4 -->
<g id="edge3" class="edge"><title>Node3&#45;&gt;Node4</title>
<path fill="none" stroke="midnightblue" d="M252.701,-251.365C265.208,-252.442 278.736,-253.606 291.687,-254.721"/>
<polygon fill="midnightblue" stroke="midnightblue" points="291.655,-258.232 301.919,-255.602 292.256,-251.257 291.655,-258.232"/>
</g>
<!-- Node7 -->
<g id="node7" class="node"><title>Node7</title>
<g id="a_node7"><a xlink:href="classlinear__theory__lut__disk__io.html#a7b4e839b4cee03c05190479e277bc34a" target="_top" xlink:title=" Write linear wind look up tables to disk along with the parameters for that table ...">
<polygon fill="white" stroke="black" points="298.5,-196 298.5,-226 409.5,-226 409.5,-196 298.5,-196"/>
<text text-anchor="start" x="306.5" y="-214" font-family="Helvetica,sans-Serif" font-size="10.00">linear_theory_lut_disk</text>
<text text-anchor="middle" x="354" y="-203" font-family="Helvetica,sans-Serif" font-size="10.00">_io::read_lut</text>
</a>
</g>
</g>
<!-- Node6&#45;&gt;Node7 -->
<g id="edge6" class="edge"><title>Node6&#45;&gt;Node7</title>
<path fill="none" stroke="midnightblue" d="M223.969,-140.202C243.092,-153.129 271.781,-171.801 298,-186 301.48,-187.885 305.13,-189.757 308.822,-191.58"/>
<polygon fill="midnightblue" stroke="midnightblue" points="307.489,-194.822 318.02,-195.986 310.514,-188.509 307.489,-194.822"/>
</g>
<!-- Node13 -->
<g id="node13" class="node"><title>Node13</title>
<g id="a_node13"><a xlink:href="classlinear__theory__winds.html#a813750f1f575af521dd81654aff2ee54" target="_top" xlink:title="linear_theory_winds\l::calc_u">
<polygon fill="white" stroke="black" points="302.5,-147 302.5,-177 405.5,-177 405.5,-147 302.5,-147"/>
<text text-anchor="start" x="310.5" y="-165" font-family="Helvetica,sans-Serif" font-size="10.00">linear_theory_winds</text>
<text text-anchor="middle" x="354" y="-154" font-family="Helvetica,sans-Serif" font-size="10.00">::calc_u</text>
</a>
</g>
</g>
<!-- Node6&#45;&gt;Node13 -->
<g id="edge12" class="edge"><title>Node6&#45;&gt;Node13</title>
<path fill="none" stroke="midnightblue" d="M262.113,-139.73C272.106,-142.178 282.474,-144.719 292.477,-147.17"/>
<polygon fill="midnightblue" stroke="midnightblue" points="291.785,-150.604 302.33,-149.584 293.451,-143.805 291.785,-150.604"/>
</g>
<!-- Node14 -->
<g id="node14" class="node"><title>Node14</title>
<g id="a_node14"><a xlink:href="classlinear__theory__winds.html#adbd589b5f5daf777414839f415fe8dbb" target="_top" xlink:title="linear_theory_winds\l::calc_v">
<polygon fill="white" stroke="black" points="302.5,-98 302.5,-128 405.5,-128 405.5,-98 302.5,-98"/>
<text text-anchor="start" x="310.5" y="-116" font-family="Helvetica,sans-Serif" font-size="10.00">linear_theory_winds</text>
<text text-anchor="middle" x="354" y="-105" font-family="Helvetica,sans-Serif" font-size="10.00">::calc_v</text>
</a>
</g>
</g>
<!-- Node6&#45;&gt;Node14 -->
<g id="edge13" class="edge"><title>Node6&#45;&gt;Node14</title>
<path fill="none" stroke="midnightblue" d="M262.113,-120.223C272.002,-119.437 282.258,-118.622 292.164,-117.835"/>
<polygon fill="midnightblue" stroke="midnightblue" points="292.639,-121.308 302.33,-117.027 292.084,-114.33 292.639,-121.308"/>
</g>
<!-- Node15 -->
<g id="node15" class="node"><title>Node15</title>
<g id="a_node15"><a xlink:href="classlinear__theory__winds.html#a352c9ebbb4416a470bc197c2c3b4c91a" target="_top" xlink:title="linear_theory_winds\l::linear_winds">
<polygon fill="white" stroke="black" points="302.5,-49 302.5,-79 405.5,-79 405.5,-49 302.5,-49"/>
<text text-anchor="start" x="310.5" y="-67" font-family="Helvetica,sans-Serif" font-size="10.00">linear_theory_winds</text>
<text text-anchor="middle" x="354" y="-56" font-family="Helvetica,sans-Serif" font-size="10.00">::linear_winds</text>
</a>
</g>
</g>
<!-- Node6&#45;&gt;Node15 -->
<g id="edge14" class="edge"><title>Node6&#45;&gt;Node15</title>
<path fill="none" stroke="midnightblue" d="M239.326,-109.921C259.638,-101.716 284.954,-91.489 306.535,-82.7707"/>
<polygon fill="midnightblue" stroke="midnightblue" points="307.881,-86.0017 315.842,-79.0108 305.259,-79.5113 307.881,-86.0017"/>
</g>
<!-- Node16 -->
<g id="node16" class="node"><title>Node16</title>
<g id="a_node16"><a xlink:href="classlinear__theory__lut__disk__io.html#a839923739fe9f10f439952d059c3261d" target="_top" xlink:title=" Write linear wind look up tables to disk along with the parameters for that table ...">
<polygon fill="white" stroke="black" points="298.5,-0 298.5,-30 409.5,-30 409.5,-0 298.5,-0"/>
<text text-anchor="start" x="306.5" y="-18" font-family="Helvetica,sans-Serif" font-size="10.00">linear_theory_lut_disk</text>
<text text-anchor="middle" x="354" y="-7" font-family="Helvetica,sans-Serif" font-size="10.00">_io::write_lut</text>
</a>
</g>
</g>
<!-- Node6&#45;&gt;Node16 -->
<g id="edge15" class="edge"><title>Node6&#45;&gt;Node16</title>
<path fill="none" stroke="midnightblue" d="M216.075,-109.692C233.788,-91.1044 265.806,-59.6798 298,-39 300.304,-37.5202 302.714,-36.0913 305.185,-34.7185"/>
<polygon fill="midnightblue" stroke="midnightblue" points="307.036,-37.7014 314.314,-30.0017 303.823,-31.4825 307.036,-37.7014"/>
</g>
<!-- Node8 -->
<g id="node8" class="node"><title>Node8</title>
<g id="a_node8"><a xlink:href="classio__routines.html#a2f5490f632bd50662c7da9fd964e88e3" target="_top" xlink:title=" Tests to see if a file exists ">
<polygon fill="white" stroke="black" points="446,-56.5 446,-75.5 560,-75.5 560,-56.5 446,-56.5"/>
<text text-anchor="middle" x="503" y="-63.5" font-family="Helvetica,sans-Serif" font-size="10.00">io_routines::file_exists</text>
</a>
</g>
</g>
<!-- Node7&#45;&gt;Node8 -->
<g id="edge7" class="edge"><title>Node7&#45;&gt;Node8</title>
<path fill="none" stroke="midnightblue" d="M394.55,-195.911C399.997,-193.024 405.32,-189.72 410,-186 446.625,-156.884 476.846,-110.144 491.827,-84.4336"/>
<polygon fill="midnightblue" stroke="midnightblue" points="494.899,-86.1121 496.805,-75.6899 488.816,-82.6491 494.899,-86.1121"/>
</g>
<!-- Node9 -->
<g id="node9" class="node"><title>Node9</title>
<g id="a_node9"><a xlink:href="classlinear__theory__lut__disk__io.html#a941618f7357edb1ceb9ecfa66f9c8151" target="_top" xlink:title=" Check that the dimensions of a LUT file and current expected LUT match ">
<polygon fill="white" stroke="black" points="447.5,-220 447.5,-250 558.5,-250 558.5,-220 447.5,-220"/>
<text text-anchor="start" x="455.5" y="-238" font-family="Helvetica,sans-Serif" font-size="10.00">linear_theory_lut_disk</text>
<text text-anchor="middle" x="503" y="-227" font-family="Helvetica,sans-Serif" font-size="10.00">_io::dims_match</text>
</a>
</g>
</g>
<!-- Node7&#45;&gt;Node9 -->
<g id="edge8" class="edge"><title>Node7&#45;&gt;Node9</title>
<path fill="none" stroke="midnightblue" d="M409.737,-219.937C418.729,-221.405 428.123,-222.938 437.329,-224.441"/>
<polygon fill="midnightblue" stroke="midnightblue" points="436.784,-227.899 447.217,-226.056 437.912,-220.99 436.784,-227.899"/>
</g>
<!-- Node12 -->
<g id="node12" class="node"><title>Node12</title>
<g id="a_node12"><a xlink:href="classlinear__theory__lut__disk__io.html#acd8076f02eabf99278d4b3f142688be2" target="_top" xlink:title=" Check that the dz level thicknesses of a LUT file and current domain match ">
<polygon fill="white" stroke="black" points="447.5,-171 447.5,-201 558.5,-201 558.5,-171 447.5,-171"/>
<text text-anchor="start" x="455.5" y="-189" font-family="Helvetica,sans-Serif" font-size="10.00">linear_theory_lut_disk</text>
<text text-anchor="middle" x="503" y="-178" font-family="Helvetica,sans-Serif" font-size="10.00">_io::check_dz</text>
</a>
</g>
</g>
<!-- Node7&#45;&gt;Node12 -->
<g id="edge11" class="edge"><title>Node7&#45;&gt;Node12</title>
<path fill="none" stroke="midnightblue" d="M409.737,-201.691C418.729,-200.162 428.123,-198.564 437.329,-196.998"/>
<polygon fill="midnightblue" stroke="midnightblue" points="437.945,-200.444 447.217,-195.317 436.772,-193.543 437.945,-200.444"/>
</g>
<!-- Node10 -->
<g id="node10" class="node"><title>Node10</title>
<g id="a_node10"><a xlink:href="classio__routines.html#ae987ea578b7a3fe5c0d51363e0f154a7" target="_top" xlink:title=" Read the dimensions of a variable in a given netcdf file ">
<polygon fill="white" stroke="black" points="596.5,-225.5 596.5,-244.5 713.5,-244.5 713.5,-225.5 596.5,-225.5"/>
<text text-anchor="middle" x="655" y="-232.5" font-family="Helvetica,sans-Serif" font-size="10.00">io_routines::io_getdims</text>
</a>
</g>
</g>
<!-- Node9&#45;&gt;Node10 -->
<g id="edge9" class="edge"><title>Node9&#45;&gt;Node10</title>
<path fill="none" stroke="midnightblue" d="M558.578,-235C567.621,-235 577.092,-235 586.41,-235"/>
<polygon fill="midnightblue" stroke="midnightblue" points="586.433,-238.5 596.433,-235 586.433,-231.5 586.433,-238.5"/>
</g>
<!-- Node11 -->
<g id="node11" class="node"><title>Node11</title>
<g id="a_node11"><a xlink:href="classio__routines.html#ac4835ed66f2e10d8e5bb40f6122f0ca1" target="_top" xlink:title=" Simple error handling for common netcdf file errors ">
<polygon fill="white" stroke="black" points="750,-225.5 750,-244.5 846,-244.5 846,-225.5 750,-225.5"/>
<text text-anchor="middle" x="798" y="-232.5" font-family="Helvetica,sans-Serif" font-size="10.00">io_routines::check</text>
</a>
</g>
</g>
<!-- Node10&#45;&gt;Node11 -->
<g id="edge10" class="edge"><title>Node10&#45;&gt;Node11</title>
<path fill="none" stroke="midnightblue" d="M713.757,-235C722.3,-235 731.101,-235 739.636,-235"/>
<polygon fill="midnightblue" stroke="midnightblue" points="739.879,-238.5 749.879,-235 739.879,-231.5 739.879,-238.5"/>
</g>
<!-- Node16&#45;&gt;Node8 -->
<g id="edge16" class="edge"><title>Node16&#45;&gt;Node8</title>
<path fill="none" stroke="midnightblue" d="M398.31,-30.0258C419.416,-37.3485 444.543,-46.0658 464.775,-53.0852"/>
<polygon fill="midnightblue" stroke="midnightblue" points="463.68,-56.4099 474.275,-56.3811 465.975,-49.7966 463.68,-56.4099"/>
</g>
</g>
</svg>
