<?xml version="1.0" encoding="UTF-8" standalone="no"?>
<!DOCTYPE svg PUBLIC "-//W3C//DTD SVG 1.1//EN"
 "http://www.w3.org/Graphics/SVG/1.1/DTD/svg11.dtd">
<!-- Generated by graphviz version 2.38.0 (20140413.2041)
 -->
<!-- Title: boundary_conditions::update_pressure Pages: 1 -->
<svg width="612pt" height="141pt"
 viewBox="0.00 0.00 612.00 141.34" xmlns="http://www.w3.org/2000/svg" xmlns:xlink="http://www.w3.org/1999/xlink">
<g id="graph0" class="graph" transform="scale(1 1) rotate(0) translate(4 137.34)">
<title>boundary_conditions::update_pressure</title>
<polygon fill="white" stroke="none" points="-4,4 -4,-137.34 608,-137.34 608,4 -4,4"/>
<!-- Node1 -->
<g id="node1" class="node"><title>Node1</title>
<polygon fill="#bfbfbf" stroke="black" points="0,-58.8404 0,-88.8404 106,-88.8404 106,-58.8404 0,-58.8404"/>
<text text-anchor="start" x="8" y="-76.8404" font-family="Helvetica,sans-Serif" font-size="10.00">boundary_conditions</text>
<text text-anchor="middle" x="53" y="-65.8404" font-family="Helvetica,sans-Serif" font-size="10.00">::update_pressure</text>
</g>
<!-- Node2 -->
<g id="node2" class="node"><title>Node2</title>
<g id="a_node2"><a xlink:href="classboundary__conditions.html#a07a42f467f470ada98e0a35fd5a75f66" target="_top" xlink:title=" Initialize the boundary conditions (read inital conditions, etc.) ">
<polygon fill="white" stroke="black" points="288,-102.84 288,-132.84 394,-132.84 394,-102.84 288,-102.84"/>
<text text-anchor="start" x="296" y="-120.84" font-family="Helvetica,sans-Serif" font-size="10.00">boundary_conditions</text>
<text text-anchor="middle" x="341" y="-109.84" font-family="Helvetica,sans-Serif" font-size="10.00">::bc_init</text>
</a>
</g>
</g>
<!-- Node1&#45;&gt;Node2 -->
<g id="edge1" class="edge"><title>Node1&#45;&gt;Node2</title>
<path fill="none" stroke="midnightblue" d="M116.189,-83.7928C124.856,-85.1627 133.65,-86.5436 142,-87.8404 191.472,-95.5234 247.936,-104.055 287.874,-110.05"/>
<polygon fill="midnightblue" stroke="midnightblue" points="116.531,-80.3034 106.106,-82.1953 115.435,-87.2172 116.531,-80.3034"/>
</g>
<!-- Node4 -->
<g id="node4" class="node"><title>Node4</title>
<g id="a_node4"><a xlink:href="classboundary__conditions.html#a1e8385c37634f3d7f70ea7c749dcda11" target="_top" xlink:title=" Read in the next timestep of input data and apply to the dXdt grids as appropriate. ">
<polygon fill="white" stroke="black" points="430,-58.8404 430,-88.8404 536,-88.8404 536,-58.8404 430,-58.8404"/>
<text text-anchor="start" x="438" y="-76.8404" font-family="Helvetica,sans-Serif" font-size="10.00">boundary_conditions</text>
<text text-anchor="middle" x="483" y="-65.8404" font-family="Helvetica,sans-Serif" font-size="10.00">::bc_update</text>
</a>
</g>
</g>
<!-- Node1&#45;&gt;Node4 -->
<g id="edge3" class="edge"><title>Node1&#45;&gt;Node4</title>
<path fill="none" stroke="midnightblue" d="M116.301,-73.8404C201.003,-73.8404 350.97,-73.8404 429.975,-73.8404"/>
<polygon fill="midnightblue" stroke="midnightblue" points="116.053,-70.3405 106.053,-73.8404 116.053,-77.3405 116.053,-70.3405"/>
</g>
<!-- Node5 -->
<g id="node5" class="node"><title>Node5</title>
<g id="a_node5"><a xlink:href="classtime__step.html#ac561f85b36df27574da9e51a9c2abf7e" target="_top" xlink:title=" Update model diagnostic fields ">
<polygon fill="white" stroke="black" points="142,-14.8404 142,-44.8404 252,-44.8404 252,-14.8404 142,-14.8404"/>
<text text-anchor="start" x="150" y="-32.8404" font-family="Helvetica,sans-Serif" font-size="10.00">time_step::diagnostic</text>
<text text-anchor="middle" x="197" y="-21.8404" font-family="Helvetica,sans-Serif" font-size="10.00">_update</text>
</a>
</g>
</g>
<!-- Node1&#45;&gt;Node5 -->
<g id="edge5" class="edge"><title>Node1&#45;&gt;Node5</title>
<path fill="none" stroke="midnightblue" d="M112.133,-55.8274C123.803,-52.2112 135.954,-48.4463 147.265,-44.9413"/>
<polygon fill="midnightblue" stroke="midnightblue" points="110.987,-52.5181 102.471,-58.8211 113.059,-59.2045 110.987,-52.5181"/>
</g>
<!-- Node3 -->
<g id="node3" class="node"><title>Node3</title>
<g id="a_node3"><a xlink:href="driver_8f90.html#ab1e5a5816a57fc6e95d9563c2bb53590" target="_top" xlink:title=" Main Program ">
<polygon fill="white" stroke="black" points="572,-64.3404 572,-83.3404 604,-83.3404 604,-64.3404 572,-64.3404"/>
<text text-anchor="middle" x="588" y="-71.3404" font-family="Helvetica,sans-Serif" font-size="10.00">icar</text>
</a>
</g>
</g>
<!-- Node2&#45;&gt;Node3 -->
<g id="edge2" class="edge"><title>Node2&#45;&gt;Node3</title>
<path fill="none" stroke="midnightblue" d="M404.385,-116.727C442.914,-114.74 493.029,-109.792 536,-97.8404 548.633,-94.3266 562.014,-87.9156 571.899,-82.6032"/>
<polygon fill="midnightblue" stroke="midnightblue" points="404.174,-113.233 394.347,-117.191 404.498,-120.225 404.174,-113.233"/>
</g>
<!-- Node4&#45;&gt;Node3 -->
<g id="edge4" class="edge"><title>Node4&#45;&gt;Node3</title>
<path fill="none" stroke="midnightblue" d="M546.369,-73.8404C555.706,-73.8404 564.543,-73.8404 571.576,-73.8404"/>
<polygon fill="midnightblue" stroke="midnightblue" points="546.104,-70.3405 536.104,-73.8404 546.103,-77.3405 546.104,-70.3405"/>
</g>
<!-- Node6 -->
<g id="node6" class="node"><title>Node6</title>
<g id="a_node6"><a xlink:href="classtime__step.html#ab024d227ede8d503dbe333dd3b38515a" target="_top" xlink:title=" Updated all fields in domain using the respective dXdt variables ">
<polygon fill="white" stroke="black" points="293.5,-14.8404 293.5,-44.8404 388.5,-44.8404 388.5,-14.8404 293.5,-14.8404"/>
<text text-anchor="start" x="301.5" y="-32.8404" font-family="Helvetica,sans-Serif" font-size="10.00">time_step::forcing</text>
<text text-anchor="middle" x="341" y="-21.8404" font-family="Helvetica,sans-Serif" font-size="10.00">_update</text>
</a>
</g>
</g>
<!-- Node5&#45;&gt;Node6 -->
<g id="edge6" class="edge"><title>Node5&#45;&gt;Node6</title>
<path fill="none" stroke="midnightblue" d="M262.122,-29.8404C272.685,-29.8404 283.452,-29.8404 293.478,-29.8404"/>
<polygon fill="midnightblue" stroke="midnightblue" points="262.089,-26.3405 252.089,-29.8404 262.089,-33.3405 262.089,-26.3405"/>
</g>
<!-- Node7 -->
<g id="node7" class="node"><title>Node7</title>
<g id="a_node7"><a xlink:href="classtime__step.html#a2c022f11247af72e607b1493289aa974" target="_top" xlink:title=" Step forward one IO time step. ">
<polygon fill="white" stroke="black" points="441,-20.3404 441,-39.3404 525,-39.3404 525,-20.3404 441,-20.3404"/>
<text text-anchor="middle" x="483" y="-27.3404" font-family="Helvetica,sans-Serif" font-size="10.00">time_step::step</text>
</a>
</g>
</g>
<!-- Node5&#45;&gt;Node7 -->
<g id="edge9" class="edge"><title>Node5&#45;&gt;Node7</title>
<path fill="none" stroke="midnightblue" d="M252.751,-12.0957C264.274,-9.07956 276.442,-6.41578 288,-4.84037 334.679,1.52243 347.339,1.65897 394,-4.84037 415.079,-7.77643 438.202,-14.4885 455.453,-20.2191"/>
<polygon fill="midnightblue" stroke="midnightblue" points="251.541,-8.79837 242.823,-14.8185 253.392,-15.5491 251.541,-8.79837"/>
</g>
<!-- Node6&#45;&gt;Node7 -->
<g id="edge7" class="edge"><title>Node6&#45;&gt;Node7</title>
<path fill="none" stroke="midnightblue" d="M398.699,-29.8404C412.77,-29.8404 427.587,-29.8404 440.758,-29.8404"/>
<polygon fill="midnightblue" stroke="midnightblue" points="398.618,-26.3405 388.618,-29.8404 398.618,-33.3405 398.618,-26.3405"/>
</g>
<!-- Node7&#45;&gt;Node3 -->
<g id="edge8" class="edge"><title>Node7&#45;&gt;Node3</title>
<path fill="none" stroke="midnightblue" d="M521.222,-42.8985C526.222,-44.8105 531.259,-46.8188 536,-48.8404 548.155,-54.0229 561.558,-60.6297 571.573,-65.7497"/>
<polygon fill="midnightblue" stroke="midnightblue" points="522.331,-39.5767 511.739,-39.3624 519.886,-46.1356 522.331,-39.5767"/>
</g>
</g>
</svg>
