<?xml version="1.0" encoding="UTF-8" standalone="no"?>
<!DOCTYPE svg PUBLIC "-//W3C//DTD SVG 1.1//EN"
 "http://www.w3.org/Graphics/SVG/1.1/DTD/svg11.dtd">
<!-- Generated by graphviz version 2.32.0 (20130809.1645)
 -->
<!-- Title: time::time_init Pages: 1 -->
<svg width="546pt" height="38pt"
 viewBox="0.00 0.00 546.00 38.00" xmlns="http://www.w3.org/2000/svg" xmlns:xlink="http://www.w3.org/1999/xlink">
<g id="graph0" class="graph" transform="scale(1 1) rotate(0) translate(4 34)">
<title>time::time_init</title>
<polygon fill="white" stroke="white" points="-4,5 -4,-34 543,-34 543,5 -4,5"/>
<!-- Node1 -->
<g id="node1" class="node"><title>Node1</title>
<polygon fill="#bfbfbf" stroke="black" points="0,-5.5 0,-24.5 78,-24.5 78,-5.5 0,-5.5"/>
<text text-anchor="middle" x="39" y="-12.5" font-family="Helvetica,sans-Serif" font-size="10.00">time::time_init</text>
</g>
<!-- Node2 -->
<g id="node2" class="node"><title>Node2</title>
<g id="a_node2"><a xlink:href="classinitialize__options.html#ab0058e1f8dbc07d787cc0705c5d9366a" target="_top" xlink:title="initialize_options\l::parameters_namelist">
<polygon fill="white" stroke="black" points="114.5,-0 114.5,-30 227.5,-30 227.5,-0 114.5,-0"/>
<text text-anchor="start" x="122.5" y="-18" font-family="Helvetica,sans-Serif" font-size="10.00">initialize_options</text>
<text text-anchor="middle" x="171" y="-7" font-family="Helvetica,sans-Serif" font-size="10.00">::parameters_namelist</text>
</a>
</g>
</g>
<!-- Node1&#45;&gt;Node2 -->
<g id="edge1" class="edge"><title>Node1&#45;&gt;Node2</title>
<path fill="none" stroke="midnightblue" d="M88.3248,-15C96.739,-15 105.553,-15 114.149,-15"/>
<polygon fill="midnightblue" stroke="midnightblue" points="88.3012,-11.5001 78.3012,-15 88.3011,-18.5001 88.3012,-11.5001"/>
</g>
<!-- Node3 -->
<g id="node3" class="node"><title>Node3</title>
<g id="a_node3"><a xlink:href="classinitialize__options.html#a571709045f201082c9735408ef2f28e3" target="_top" xlink:title="initialize_options\l::init_options">
<polygon fill="white" stroke="black" points="264.5,-0 264.5,-30 353.5,-30 353.5,-0 264.5,-0"/>
<text text-anchor="start" x="272.5" y="-18" font-family="Helvetica,sans-Serif" font-size="10.00">initialize_options</text>
<text text-anchor="middle" x="309" y="-7" font-family="Helvetica,sans-Serif" font-size="10.00">::init_options</text>
</a>
</g>
</g>
<!-- Node2&#45;&gt;Node3 -->
<g id="edge2" class="edge"><title>Node2&#45;&gt;Node3</title>
<path fill="none" stroke="midnightblue" d="M237.786,-15C246.761,-15 255.788,-15 264.239,-15"/>
<polygon fill="midnightblue" stroke="midnightblue" points="237.709,-11.5001 227.709,-15 237.709,-18.5001 237.709,-11.5001"/>
</g>
<!-- Node4 -->
<g id="node4" class="node"><title>Node4</title>
<g id="a_node4"><a xlink:href="classinit.html#a1dd1e2b38eef39cba464f65c9ce82568" target="_top" xlink:title="init::init_model">
<polygon fill="white" stroke="black" points="390,-5.5 390,-24.5 470,-24.5 470,-5.5 390,-5.5"/>
<text text-anchor="middle" x="430" y="-12.5" font-family="Helvetica,sans-Serif" font-size="10.00">init::init_model</text>
</a>
</g>
</g>
<!-- Node3&#45;&gt;Node4 -->
<g id="edge3" class="edge"><title>Node3&#45;&gt;Node4</title>
<path fill="none" stroke="midnightblue" d="M363.766,-15C372.499,-15 381.399,-15 389.703,-15"/>
<polygon fill="midnightblue" stroke="midnightblue" points="363.636,-11.5001 353.635,-15 363.635,-18.5001 363.636,-11.5001"/>
</g>
<!-- Node5 -->
<g id="node5" class="node"><title>Node5</title>
<g id="a_node5"><a xlink:href="driver_8f90.html#ab1e5a5816a57fc6e95d9563c2bb53590" target="_top" xlink:title=" Main Program ">
<polygon fill="white" stroke="black" points="506,-5.5 506,-24.5 538,-24.5 538,-5.5 506,-5.5"/>
<text text-anchor="middle" x="522" y="-12.5" font-family="Helvetica,sans-Serif" font-size="10.00">icar</text>
</a>
</g>
</g>
<!-- Node4&#45;&gt;Node5 -->
<g id="edge4" class="edge"><title>Node4&#45;&gt;Node5</title>
<path fill="none" stroke="midnightblue" d="M480.233,-15C489.449,-15 498.425,-15 505.599,-15"/>
<polygon fill="midnightblue" stroke="midnightblue" points="480.214,-11.5001 470.213,-15 480.213,-18.5001 480.214,-11.5001"/>
</g>
</g>
</svg>
