<?xml version="1.0" encoding="UTF-8" standalone="no"?>
<!DOCTYPE svg PUBLIC "-//W3C//DTD SVG 1.1//EN"
 "http://www.w3.org/Graphics/SVG/1.1/DTD/svg11.dtd">
<!-- Generated by graphviz version 2.38.0 (20140413.2041)
 -->
<!-- Title: pbl_simple::calc_pbl_stability_function Pages: 1 -->
<svg width="590pt" height="39pt"
 viewBox="0.00 0.00 590.00 39.00" xmlns="http://www.w3.org/2000/svg" xmlns:xlink="http://www.w3.org/1999/xlink">
<g id="graph0" class="graph" transform="scale(1 1) rotate(0) translate(4 35)">
<title>pbl_simple::calc_pbl_stability_function</title>
<polygon fill="white" stroke="none" points="-4,4 -4,-35 586,-35 586,4 -4,4"/>
<!-- Node1 -->
<g id="node1" class="node"><title>Node1</title>
<polygon fill="#bfbfbf" stroke="black" points="0,-0.5 0,-30.5 105,-30.5 105,-0.5 0,-0.5"/>
<text text-anchor="start" x="8" y="-18.5" font-family="Helvetica,sans-Serif" font-size="10.00">pbl_simple::calc_pbl</text>
<text text-anchor="middle" x="52.5" y="-7.5" font-family="Helvetica,sans-Serif" font-size="10.00">_stability_function</text>
</g>
<!-- Node2 -->
<g id="node2" class="node"><title>Node2</title>
<g id="a_node2"><a xlink:href="classpbl__simple.html#a0c4a8ea58856a89e2ea7c5026ac60a08" target="_top" xlink:title="pbl_simple::simple_pbl">
<polygon fill="white" stroke="black" points="141,-6 141,-25 257,-25 257,-6 141,-6"/>
<text text-anchor="middle" x="199" y="-13" font-family="Helvetica,sans-Serif" font-size="10.00">pbl_simple::simple_pbl</text>
</a>
</g>
</g>
<!-- Node1&#45;&gt;Node2 -->
<g id="edge1" class="edge"><title>Node1&#45;&gt;Node2</title>
<path fill="none" stroke="midnightblue" d="M115.39,-15.5C123.798,-15.5 132.397,-15.5 140.72,-15.5"/>
<polygon fill="midnightblue" stroke="midnightblue" points="115.26,-12.0001 105.26,-15.5 115.26,-19.0001 115.26,-12.0001"/>
</g>
<!-- Node3 -->
<g id="node3" class="node"><title>Node3</title>
<g id="a_node3"><a xlink:href="classplanetary__boundary__layer.html#ac1da4433b1830b1d11a543b893a97c50" target="_top" xlink:title="planetary_boundary\l_layer::pbl">
<polygon fill="white" stroke="black" points="293,-0.5 293,-30.5 394,-30.5 394,-0.5 293,-0.5"/>
<text text-anchor="start" x="301" y="-18.5" font-family="Helvetica,sans-Serif" font-size="10.00">planetary_boundary</text>
<text text-anchor="middle" x="343.5" y="-7.5" font-family="Helvetica,sans-Serif" font-size="10.00">_layer::pbl</text>
</a>
</g>
</g>
<!-- Node2&#45;&gt;Node3 -->
<g id="edge2" class="edge"><title>Node2&#45;&gt;Node3</title>
<path fill="none" stroke="midnightblue" d="M267.166,-15.5C275.765,-15.5 284.443,-15.5 292.698,-15.5"/>
<polygon fill="midnightblue" stroke="midnightblue" points="267.139,-12.0001 257.139,-15.5 267.139,-19.0001 267.139,-12.0001"/>
</g>
<!-- Node4 -->
<g id="node4" class="node"><title>Node4</title>
<g id="a_node4"><a xlink:href="classtime__step.html#a2c022f11247af72e607b1493289aa974" target="_top" xlink:title=" Step forward one IO time step. ">
<polygon fill="white" stroke="black" points="430,-6 430,-25 514,-25 514,-6 430,-6"/>
<text text-anchor="middle" x="472" y="-13" font-family="Helvetica,sans-Serif" font-size="10.00">time_step::step</text>
</a>
</g>
</g>
<!-- Node3&#45;&gt;Node4 -->
<g id="edge3" class="edge"><title>Node3&#45;&gt;Node4</title>
<path fill="none" stroke="midnightblue" d="M404.18,-15.5C412.805,-15.5 421.52,-15.5 429.679,-15.5"/>
<polygon fill="midnightblue" stroke="midnightblue" points="404.133,-12.0001 394.133,-15.5 404.133,-19.0001 404.133,-12.0001"/>
</g>
<!-- Node5 -->
<g id="node5" class="node"><title>Node5</title>
<g id="a_node5"><a xlink:href="driver_8f90.html#ab1e5a5816a57fc6e95d9563c2bb53590" target="_top" xlink:title=" Main Program ">
<polygon fill="white" stroke="black" points="550,-6 550,-25 582,-25 582,-6 550,-6"/>
<text text-anchor="middle" x="566" y="-13" font-family="Helvetica,sans-Serif" font-size="10.00">icar</text>
</a>
</g>
</g>
<!-- Node4&#45;&gt;Node5 -->
<g id="edge4" class="edge"><title>Node4&#45;&gt;Node5</title>
<path fill="none" stroke="midnightblue" d="M524.253,-15.5C533.521,-15.5 542.5,-15.5 549.66,-15.5"/>
<polygon fill="midnightblue" stroke="midnightblue" points="524.156,-12.0001 514.156,-15.5 524.156,-19.0001 524.156,-12.0001"/>
</g>
</g>
</svg>
