<?xml version="1.0" encoding="UTF-8" standalone="no"?>
<!DOCTYPE svg PUBLIC "-//W3C//DTD SVG 1.1//EN"
 "http://www.w3.org/Graphics/SVG/1.1/DTD/svg11.dtd">
<!-- Generated by graphviz version 2.32.0 (20130809.1645)
 -->
<!-- Title: convection::init_convection Pages: 1 -->
<svg width="284pt" height="77pt"
 viewBox="0.00 0.00 284.00 77.00" xmlns="http://www.w3.org/2000/svg" xmlns:xlink="http://www.w3.org/1999/xlink">
<g id="graph0" class="graph" transform="scale(1 1) rotate(0) translate(4 73)">
<title>convection::init_convection</title>
<polygon fill="white" stroke="white" points="-4,5 -4,-73 281,-73 281,5 -4,5"/>
<!-- Node1 -->
<g id="node1" class="node"><title>Node1</title>
<polygon fill="#bfbfbf" stroke="black" points="0.5,-22.5 0.5,-41.5 135.5,-41.5 135.5,-22.5 0.5,-22.5"/>
<text text-anchor="middle" x="68" y="-29.5" font-family="Helvetica,sans-Serif" font-size="10.00">convection::init_convection</text>
</g>
<!-- Node2 -->
<g id="node2" class="node"><title>Node2</title>
<g id="a_node2"><a xlink:href="classmodule__cu__tiedtke.html#a60f0cad4dfe50584efbfe0fd3f2e4d33" target="_top" xlink:title="module_cu_tiedtke::\ltiedtkeinit">
<polygon fill="white" stroke="black" points="172,-39 172,-69 276,-69 276,-39 172,-39"/>
<text text-anchor="start" x="180" y="-57" font-family="Helvetica,sans-Serif" font-size="10.00">module_cu_tiedtke::</text>
<text text-anchor="middle" x="224" y="-46" font-family="Helvetica,sans-Serif" font-size="10.00">tiedtkeinit</text>
</a>
</g>
</g>
<!-- Node1&#45;&gt;Node2 -->
<g id="edge1" class="edge"><title>Node1&#45;&gt;Node2</title>
<path fill="none" stroke="midnightblue" d="M135.651,-41.5216C144.204,-42.7435 152.931,-43.9901 161.399,-45.1998"/>
<polygon fill="midnightblue" stroke="midnightblue" points="161.175,-48.7033 171.57,-46.6528 162.165,-41.7737 161.175,-48.7033"/>
</g>
<!-- Node3 -->
<g id="node3" class="node"><title>Node3</title>
<g id="a_node3"><a xlink:href="classmodule__cu__kf.html#a1220d4bd1b534a12c94b07e3f45ebec4" target="_top" xlink:title="module_cu_kf::kfinit">
<polygon fill="white" stroke="black" points="172,-0.5 172,-19.5 276,-19.5 276,-0.5 172,-0.5"/>
<text text-anchor="middle" x="224" y="-7.5" font-family="Helvetica,sans-Serif" font-size="10.00">module_cu_kf::kfinit</text>
</a>
</g>
</g>
<!-- Node1&#45;&gt;Node3 -->
<g id="edge2" class="edge"><title>Node1&#45;&gt;Node3</title>
<path fill="none" stroke="midnightblue" d="M135.651,-22.4784C144.204,-21.2565 152.931,-20.0099 161.399,-18.8002"/>
<polygon fill="midnightblue" stroke="midnightblue" points="162.165,-22.2263 171.57,-17.3472 161.175,-15.2967 162.165,-22.2263"/>
</g>
</g>
</svg>
