<?xml version="1.0" encoding="UTF-8" standalone="no"?>
<!DOCTYPE svg PUBLIC "-//W3C//DTD SVG 1.1//EN"
 "http://www.w3.org/Graphics/SVG/1.1/DTD/svg11.dtd">
<!-- Generated by graphviz version 2.32.0 (20130809.1645)
 -->
<!-- Title: init::convert_longitudes Pages: 1 -->
<svg width="544pt" height="104pt"
 viewBox="0.00 0.00 544.00 104.00" xmlns="http://www.w3.org/2000/svg" xmlns:xlink="http://www.w3.org/1999/xlink">
<g id="graph0" class="graph" transform="scale(1 1) rotate(0) translate(4 100)">
<title>init::convert_longitudes</title>
<polygon fill="white" stroke="white" points="-4,5 -4,-100 541,-100 541,5 -4,5"/>
<!-- Node1 -->
<g id="node1" class="node"><title>Node1</title>
<polygon fill="#bfbfbf" stroke="black" points="0.5,-38.5 0.5,-57.5 117.5,-57.5 117.5,-38.5 0.5,-38.5"/>
<text text-anchor="middle" x="59" y="-45.5" font-family="Helvetica,sans-Serif" font-size="10.00">init::convert_longitudes</text>
</g>
<!-- Node2 -->
<g id="node2" class="node"><title>Node2</title>
<g id="a_node2"><a xlink:href="classinit.html#a2c0d47bd2656d1121f0522d0f77a0e07" target="_top" xlink:title="init::init_domain">
<polygon fill="white" stroke="black" points="160.5,-76.5 160.5,-95.5 245.5,-95.5 245.5,-76.5 160.5,-76.5"/>
<text text-anchor="middle" x="203" y="-83.5" font-family="Helvetica,sans-Serif" font-size="10.00">init::init_domain</text>
</a>
</g>
</g>
<!-- Node1&#45;&gt;Node2 -->
<g id="edge1" class="edge"><title>Node1&#45;&gt;Node2</title>
<path fill="none" stroke="midnightblue" d="M105.493,-60.1742C125.128,-65.4287 147.766,-71.4866 166.179,-76.4141"/>
<polygon fill="midnightblue" stroke="midnightblue" points="106.397,-56.7931 95.8326,-57.589 104.588,-63.5552 106.397,-56.7931"/>
</g>
<!-- Node6 -->
<g id="node6" class="node"><title>Node6</title>
<g id="a_node6"><a xlink:href="classinit.html#a7c8bdf3006c76dd9d3464a56db072726" target="_top" xlink:title="init::init_bc_data">
<polygon fill="white" stroke="black" points="159,-38.5 159,-57.5 247,-57.5 247,-38.5 159,-38.5"/>
<text text-anchor="middle" x="203" y="-45.5" font-family="Helvetica,sans-Serif" font-size="10.00">init::init_bc_data</text>
</a>
</g>
</g>
<!-- Node1&#45;&gt;Node6 -->
<g id="edge6" class="edge"><title>Node1&#45;&gt;Node6</title>
<path fill="none" stroke="midnightblue" d="M127.776,-48C138.289,-48 148.895,-48 158.672,-48"/>
<polygon fill="midnightblue" stroke="midnightblue" points="127.757,-44.5001 117.757,-48 127.757,-51.5001 127.757,-44.5001"/>
</g>
<!-- Node7 -->
<g id="node7" class="node"><title>Node7</title>
<g id="a_node7"><a xlink:href="classinit.html#a8b5935b5b45a47c58fdd67157c16764b" target="_top" xlink:title="init::init_ext_winds">
<polygon fill="white" stroke="black" points="154,-0.5 154,-19.5 252,-19.5 252,-0.5 154,-0.5"/>
<text text-anchor="middle" x="203" y="-7.5" font-family="Helvetica,sans-Serif" font-size="10.00">init::init_ext_winds</text>
</a>
</g>
</g>
<!-- Node1&#45;&gt;Node7 -->
<g id="edge8" class="edge"><title>Node1&#45;&gt;Node7</title>
<path fill="none" stroke="midnightblue" d="M105.493,-35.8258C125.128,-30.5713 147.766,-24.5134 166.179,-19.5859"/>
<polygon fill="midnightblue" stroke="midnightblue" points="104.588,-32.4448 95.8326,-38.411 106.397,-39.2069 104.588,-32.4448"/>
</g>
<!-- Node3 -->
<g id="node3" class="node"><title>Node3</title>
<g id="a_node3"><a xlink:href="classinit.html#a1dd1e2b38eef39cba464f65c9ce82568" target="_top" xlink:title="init::init_model">
<polygon fill="white" stroke="black" points="388,-57.5 388,-76.5 468,-76.5 468,-57.5 388,-57.5"/>
<text text-anchor="middle" x="428" y="-64.5" font-family="Helvetica,sans-Serif" font-size="10.00">init::init_model</text>
</a>
</g>
</g>
<!-- Node2&#45;&gt;Node3 -->
<g id="edge2" class="edge"><title>Node2&#45;&gt;Node3</title>
<path fill="none" stroke="midnightblue" d="M255.843,-81.5829C296.113,-78.1518 351.098,-73.467 387.765,-70.3429"/>
<polygon fill="midnightblue" stroke="midnightblue" points="255.35,-78.1121 245.683,-82.4485 255.944,-85.0869 255.35,-78.1121"/>
</g>
<!-- Node5 -->
<g id="node5" class="node"><title>Node5</title>
<g id="a_node5"><a xlink:href="classinit.html#a1c6cab46bb16bea719da3b193c43ccb3" target="_top" xlink:title="init::init_bc">
<polygon fill="white" stroke="black" points="288,-38.5 288,-57.5 352,-57.5 352,-38.5 288,-38.5"/>
<text text-anchor="middle" x="320" y="-45.5" font-family="Helvetica,sans-Serif" font-size="10.00">init::init_bc</text>
</a>
</g>
</g>
<!-- Node2&#45;&gt;Node5 -->
<g id="edge4" class="edge"><title>Node2&#45;&gt;Node5</title>
<path fill="none" stroke="midnightblue" d="M242.815,-73.1741C258.246,-68.0753 275.691,-62.3109 289.99,-57.5859"/>
<polygon fill="midnightblue" stroke="midnightblue" points="241.416,-69.9502 233.019,-76.411 243.613,-76.5967 241.416,-69.9502"/>
</g>
<!-- Node4 -->
<g id="node4" class="node"><title>Node4</title>
<g id="a_node4"><a xlink:href="driver_8f90.html#ab1e5a5816a57fc6e95d9563c2bb53590" target="_top" xlink:title=" Main Program ">
<polygon fill="white" stroke="black" points="504,-57.5 504,-76.5 536,-76.5 536,-57.5 504,-57.5"/>
<text text-anchor="middle" x="520" y="-64.5" font-family="Helvetica,sans-Serif" font-size="10.00">icar</text>
</a>
</g>
</g>
<!-- Node3&#45;&gt;Node4 -->
<g id="edge3" class="edge"><title>Node3&#45;&gt;Node4</title>
<path fill="none" stroke="midnightblue" d="M478.233,-67C487.449,-67 496.425,-67 503.599,-67"/>
<polygon fill="midnightblue" stroke="midnightblue" points="478.214,-63.5001 468.213,-67 478.213,-70.5001 478.214,-63.5001"/>
</g>
<!-- Node5&#45;&gt;Node3 -->
<g id="edge5" class="edge"><title>Node5&#45;&gt;Node3</title>
<path fill="none" stroke="midnightblue" d="M362.196,-55.3841C370.584,-56.8877 379.388,-58.4658 387.708,-59.9572"/>
<polygon fill="midnightblue" stroke="midnightblue" points="362.691,-51.9172 352.23,-53.5979 361.456,-58.8074 362.691,-51.9172"/>
</g>
<!-- Node6&#45;&gt;Node5 -->
<g id="edge7" class="edge"><title>Node6&#45;&gt;Node5</title>
<path fill="none" stroke="midnightblue" d="M257.444,-48C267.848,-48 278.431,-48 287.82,-48"/>
<polygon fill="midnightblue" stroke="midnightblue" points="257.149,-44.5001 247.149,-48 257.149,-51.5001 257.149,-44.5001"/>
</g>
<!-- Node7&#45;&gt;Node5 -->
<g id="edge9" class="edge"><title>Node7&#45;&gt;Node5</title>
<path fill="none" stroke="midnightblue" d="M242.815,-22.8259C258.246,-27.9247 275.691,-33.6891 289.99,-38.4141"/>
<polygon fill="midnightblue" stroke="midnightblue" points="243.613,-19.4033 233.019,-19.589 241.416,-26.0498 243.613,-19.4033"/>
</g>
</g>
</svg>
