<?xml version="1.0" encoding="UTF-8" standalone="no"?>
<!DOCTYPE svg PUBLIC "-//W3C//DTD SVG 1.1//EN"
 "http://www.w3.org/Graphics/SVG/1.1/DTD/svg11.dtd">
<!-- Generated by graphviz version 2.38.0 (20140413.2041)
 -->
<!-- Title: initialize_options::mp_parameters_namelist Pages: 1 -->
<svg width="449pt" height="39pt"
 viewBox="0.00 0.00 449.00 39.00" xmlns="http://www.w3.org/2000/svg" xmlns:xlink="http://www.w3.org/1999/xlink">
<g id="graph0" class="graph" transform="scale(1 1) rotate(0) translate(4 35)">
<title>initialize_options::mp_parameters_namelist</title>
<polygon fill="white" stroke="none" points="-4,4 -4,-35 445,-35 445,4 -4,4"/>
<!-- Node1 -->
<g id="node1" class="node"><title>Node1</title>
<polygon fill="#bfbfbf" stroke="black" points="0,-0.5 0,-30.5 132,-30.5 132,-0.5 0,-0.5"/>
<text text-anchor="start" x="8" y="-18.5" font-family="Helvetica,sans-Serif" font-size="10.00">initialize_options</text>
<text text-anchor="middle" x="66" y="-7.5" font-family="Helvetica,sans-Serif" font-size="10.00">::mp_parameters_namelist</text>
</g>
<!-- Node2 -->
<g id="node2" class="node"><title>Node2</title>
<g id="a_node2"><a xlink:href="classinitialize__options.html#a571709045f201082c9735408ef2f28e3" target="_top" xlink:title="initialize_options\l::init_options">
<polygon fill="white" stroke="black" points="168,-0.5 168,-30.5 257,-30.5 257,-0.5 168,-0.5"/>
<text text-anchor="start" x="176" y="-18.5" font-family="Helvetica,sans-Serif" font-size="10.00">initialize_options</text>
<text text-anchor="middle" x="212.5" y="-7.5" font-family="Helvetica,sans-Serif" font-size="10.00">::init_options</text>
</a>
</g>
</g>
<!-- Node1&#45;&gt;Node2 -->
<g id="edge1" class="edge"><title>Node1&#45;&gt;Node2</title>
<path fill="none" stroke="midnightblue" d="M142.337,-15.5C151.091,-15.5 159.784,-15.5 167.902,-15.5"/>
<polygon fill="midnightblue" stroke="midnightblue" points="142.064,-12.0001 132.064,-15.5 142.064,-19.0001 142.064,-12.0001"/>
</g>
<!-- Node3 -->
<g id="node3" class="node"><title>Node3</title>
<g id="a_node3"><a xlink:href="classinit.html#a1dd1e2b38eef39cba464f65c9ce82568" target="_top" xlink:title="init::init_model">
<polygon fill="white" stroke="black" points="293,-6 293,-25 373,-25 373,-6 293,-6"/>
<text text-anchor="middle" x="333" y="-13" font-family="Helvetica,sans-Serif" font-size="10.00">init::init_model</text>
</a>
</g>
</g>
<!-- Node2&#45;&gt;Node3 -->
<g id="edge2" class="edge"><title>Node2&#45;&gt;Node3</title>
<path fill="none" stroke="midnightblue" d="M267.517,-15.5C276,-15.5 284.627,-15.5 292.696,-15.5"/>
<polygon fill="midnightblue" stroke="midnightblue" points="267.288,-12.0001 257.288,-15.5 267.288,-19.0001 267.288,-12.0001"/>
</g>
<!-- Node4 -->
<g id="node4" class="node"><title>Node4</title>
<g id="a_node4"><a xlink:href="driver_8f90.html#ab1e5a5816a57fc6e95d9563c2bb53590" target="_top" xlink:title=" Main Program ">
<polygon fill="white" stroke="black" points="409,-6 409,-25 441,-25 441,-6 409,-6"/>
<text text-anchor="middle" x="425" y="-13" font-family="Helvetica,sans-Serif" font-size="10.00">icar</text>
</a>
</g>
</g>
<!-- Node3&#45;&gt;Node4 -->
<g id="edge3" class="edge"><title>Node3&#45;&gt;Node4</title>
<path fill="none" stroke="midnightblue" d="M383.233,-15.5C392.449,-15.5 401.425,-15.5 408.599,-15.5"/>
<polygon fill="midnightblue" stroke="midnightblue" points="383.214,-12.0001 373.213,-15.5 383.213,-19.0001 383.214,-12.0001"/>
</g>
</g>
</svg>
