<?xml version="1.0" encoding="UTF-8" standalone="no"?>
<!DOCTYPE svg PUBLIC "-//W3C//DTD SVG 1.1//EN"
 "http://www.w3.org/Graphics/SVG/1.1/DTD/svg11.dtd">
<!-- Generated by graphviz version 2.32.0 (20130809.1645)
 -->
<!-- Title: module_cu_kf::kfinit Pages: 1 -->
<svg width="476pt" height="28pt"
 viewBox="0.00 0.00 476.00 28.00" xmlns="http://www.w3.org/2000/svg" xmlns:xlink="http://www.w3.org/1999/xlink">
<g id="graph0" class="graph" transform="scale(1 1) rotate(0) translate(4 24)">
<title>module_cu_kf::kfinit</title>
<polygon fill="white" stroke="white" points="-4,5 -4,-24 473,-24 473,5 -4,5"/>
<!-- Node1 -->
<g id="node1" class="node"><title>Node1</title>
<polygon fill="#bfbfbf" stroke="black" points="0,-0.5 0,-19.5 104,-19.5 104,-0.5 0,-0.5"/>
<text text-anchor="middle" x="52" y="-7.5" font-family="Helvetica,sans-Serif" font-size="10.00">module_cu_kf::kfinit</text>
</g>
<!-- Node2 -->
<g id="node2" class="node"><title>Node2</title>
<g id="a_node2"><a xlink:href="classconvection.html#a2e577ff8b07394b466c553650318dd47" target="_top" xlink:title="convection::init_convection">
<polygon fill="white" stroke="black" points="140.5,-0.5 140.5,-19.5 275.5,-19.5 275.5,-0.5 140.5,-0.5"/>
<text text-anchor="middle" x="208" y="-7.5" font-family="Helvetica,sans-Serif" font-size="10.00">convection::init_convection</text>
</a>
</g>
</g>
<!-- Node1&#45;&gt;Node2 -->
<g id="edge1" class="edge"><title>Node1&#45;&gt;Node2</title>
<path fill="none" stroke="midnightblue" d="M114.485,-10C122.982,-10 131.742,-10 140.328,-10"/>
<polygon fill="midnightblue" stroke="midnightblue" points="114.28,-6.5001 104.28,-10 114.28,-13.5001 114.28,-6.5001"/>
</g>
<!-- Node3 -->
<g id="node3" class="node"><title>Node3</title>
<g id="a_node3"><a xlink:href="classinit.html#ad066397f42956c6e9d50884a2e84d4e4" target="_top" xlink:title="init::init_physics">
<polygon fill="white" stroke="black" points="312.5,-0.5 312.5,-19.5 399.5,-19.5 399.5,-0.5 312.5,-0.5"/>
<text text-anchor="middle" x="356" y="-7.5" font-family="Helvetica,sans-Serif" font-size="10.00">init::init_physics</text>
</a>
</g>
</g>
<!-- Node2&#45;&gt;Node3 -->
<g id="edge2" class="edge"><title>Node2&#45;&gt;Node3</title>
<path fill="none" stroke="midnightblue" d="M285.859,-10C294.949,-10 303.96,-10 312.325,-10"/>
<polygon fill="midnightblue" stroke="midnightblue" points="285.591,-6.5001 275.591,-10 285.591,-13.5001 285.591,-6.5001"/>
</g>
<!-- Node4 -->
<g id="node4" class="node"><title>Node4</title>
<g id="a_node4"><a xlink:href="driver_8f90.html#ab1e5a5816a57fc6e95d9563c2bb53590" target="_top" xlink:title=" Main Program ">
<polygon fill="white" stroke="black" points="436,-0.5 436,-19.5 468,-19.5 468,-0.5 436,-0.5"/>
<text text-anchor="middle" x="452" y="-7.5" font-family="Helvetica,sans-Serif" font-size="10.00">icar</text>
</a>
</g>
</g>
<!-- Node3&#45;&gt;Node4 -->
<g id="edge3" class="edge"><title>Node3&#45;&gt;Node4</title>
<path fill="none" stroke="midnightblue" d="M409.69,-10C419.326,-10 428.639,-10 435.975,-10"/>
<polygon fill="midnightblue" stroke="midnightblue" points="409.6,-6.5001 399.599,-10 409.599,-13.5001 409.6,-6.5001"/>
</g>
</g>
</svg>
