<?xml version="1.0" encoding="UTF-8" standalone="no"?>
<!DOCTYPE svg PUBLIC "-//W3C//DTD SVG 1.1//EN"
 "http://www.w3.org/Graphics/SVG/1.1/DTD/svg11.dtd">
<!-- Generated by graphviz version 2.38.0 (20140413.2041)
 -->
<!-- Title: module_sf_noahlsm::transp Pages: 1 -->
<svg width="1032pt" height="88pt"
 viewBox="0.00 0.00 1032.00 88.00" xmlns="http://www.w3.org/2000/svg" xmlns:xlink="http://www.w3.org/1999/xlink">
<g id="graph0" class="graph" transform="scale(1 1) rotate(0) translate(4 84)">
<title>module_sf_noahlsm::transp</title>
<polygon fill="white" stroke="none" points="-4,4 -4,-84 1028,-84 1028,4 -4,4"/>
<!-- Node1 -->
<g id="node1" class="node"><title>Node1</title>
<polygon fill="#bfbfbf" stroke="black" points="0,-24.5 0,-54.5 110,-54.5 110,-24.5 0,-24.5"/>
<text text-anchor="start" x="8" y="-42.5" font-family="Helvetica,sans-Serif" font-size="10.00">module_sf_noahlsm::</text>
<text text-anchor="middle" x="55" y="-31.5" font-family="Helvetica,sans-Serif" font-size="10.00">transp</text>
</g>
<!-- Node2 -->
<g id="node2" class="node"><title>Node2</title>
<g id="a_node2"><a xlink:href="classmodule__sf__noahlsm.html#a8def37e83c3ce04050b98a11d265caeb" target="_top" xlink:title="module_sf_noahlsm::\levapo">
<polygon fill="white" stroke="black" points="146,-24.5 146,-54.5 256,-54.5 256,-24.5 146,-24.5"/>
<text text-anchor="start" x="154" y="-42.5" font-family="Helvetica,sans-Serif" font-size="10.00">module_sf_noahlsm::</text>
<text text-anchor="middle" x="201" y="-31.5" font-family="Helvetica,sans-Serif" font-size="10.00">evapo</text>
</a>
</g>
</g>
<!-- Node1&#45;&gt;Node2 -->
<g id="edge1" class="edge"><title>Node1&#45;&gt;Node2</title>
<path fill="none" stroke="midnightblue" d="M120.27,-39.5C128.75,-39.5 137.375,-39.5 145.667,-39.5"/>
<polygon fill="midnightblue" stroke="midnightblue" points="120.03,-36.0001 110.03,-39.5 120.03,-43.0001 120.03,-36.0001"/>
</g>
<!-- Node3 -->
<g id="node3" class="node"><title>Node3</title>
<g id="a_node3"><a xlink:href="classmodule__sf__noahlsm.html#a6a17443ddbf15acdb25690cfbb3749a3" target="_top" xlink:title="module_sf_noahlsm::\lnopac">
<polygon fill="white" stroke="black" points="292,-49.5 292,-79.5 402,-79.5 402,-49.5 292,-49.5"/>
<text text-anchor="start" x="300" y="-67.5" font-family="Helvetica,sans-Serif" font-size="10.00">module_sf_noahlsm::</text>
<text text-anchor="middle" x="347" y="-56.5" font-family="Helvetica,sans-Serif" font-size="10.00">nopac</text>
</a>
</g>
</g>
<!-- Node2&#45;&gt;Node3 -->
<g id="edge2" class="edge"><title>Node2&#45;&gt;Node3</title>
<path fill="none" stroke="midnightblue" d="M265.991,-50.6095C274.561,-52.0974 283.284,-53.6119 291.667,-55.0672"/>
<polygon fill="midnightblue" stroke="midnightblue" points="266.481,-47.1424 256.03,-48.8802 265.284,-54.0392 266.481,-47.1424"/>
</g>
<!-- Node9 -->
<g id="node9" class="node"><title>Node9</title>
<g id="a_node9"><a xlink:href="classmodule__sf__noahlsm.html#a9d1e26133ed89bc5465a230d45d0625d" target="_top" xlink:title="module_sf_noahlsm::\lsnopac">
<polygon fill="white" stroke="black" points="292,-0.5 292,-30.5 402,-30.5 402,-0.5 292,-0.5"/>
<text text-anchor="start" x="300" y="-18.5" font-family="Helvetica,sans-Serif" font-size="10.00">module_sf_noahlsm::</text>
<text text-anchor="middle" x="347" y="-7.5" font-family="Helvetica,sans-Serif" font-size="10.00">snopac</text>
</a>
</g>
</g>
<!-- Node2&#45;&gt;Node9 -->
<g id="edge8" class="edge"><title>Node2&#45;&gt;Node9</title>
<path fill="none" stroke="midnightblue" d="M265.991,-28.8349C274.561,-27.4065 283.284,-25.9526 291.667,-24.5555"/>
<polygon fill="midnightblue" stroke="midnightblue" points="265.318,-25.3986 256.03,-30.495 266.469,-32.3033 265.318,-25.3986"/>
</g>
<!-- Node4 -->
<g id="node4" class="node"><title>Node4</title>
<g id="a_node4"><a xlink:href="classmodule__sf__noahlsm.html#a7cd9a2732205c21a5f59d679e0a1fddd" target="_top" xlink:title="module_sf_noahlsm::sflx">
<polygon fill="white" stroke="black" points="438,-30 438,-49 563,-49 563,-30 438,-30"/>
<text text-anchor="middle" x="500.5" y="-37" font-family="Helvetica,sans-Serif" font-size="10.00">module_sf_noahlsm::sflx</text>
</a>
</g>
</g>
<!-- Node3&#45;&gt;Node4 -->
<g id="edge3" class="edge"><title>Node3&#45;&gt;Node4</title>
<path fill="none" stroke="midnightblue" d="M412.333,-53.8839C422.11,-52.2706 432.147,-50.6144 441.771,-49.0262"/>
<polygon fill="midnightblue" stroke="midnightblue" points="411.564,-50.4635 402.267,-55.545 412.704,-57.3701 411.564,-50.4635"/>
</g>
<!-- Node5 -->
<g id="node5" class="node"><title>Node5</title>
<g id="a_node5"><a xlink:href="classmodule__sf__noahdrv.html#a329dccdd0c1fc2797bc8ebcc9bcc0ff6" target="_top" xlink:title="module_sf_noahdrv::\llsm_noah">
<polygon fill="white" stroke="black" points="599,-24.5 599,-54.5 706,-54.5 706,-24.5 599,-24.5"/>
<text text-anchor="start" x="607" y="-42.5" font-family="Helvetica,sans-Serif" font-size="10.00">module_sf_noahdrv::</text>
<text text-anchor="middle" x="652.5" y="-31.5" font-family="Helvetica,sans-Serif" font-size="10.00">lsm_noah</text>
</a>
</g>
</g>
<!-- Node4&#45;&gt;Node5 -->
<g id="edge4" class="edge"><title>Node4&#45;&gt;Node5</title>
<path fill="none" stroke="midnightblue" d="M573.397,-39.5C581.977,-39.5 590.611,-39.5 598.85,-39.5"/>
<polygon fill="midnightblue" stroke="midnightblue" points="573.377,-36.0001 563.377,-39.5 573.377,-43.0001 573.377,-36.0001"/>
</g>
<!-- Node6 -->
<g id="node6" class="node"><title>Node6</title>
<g id="a_node6"><a xlink:href="classland__surface.html#a5eda887fb43d0e56a673bbec669be5ad" target="_top" xlink:title="land_surface::lsm">
<polygon fill="white" stroke="black" points="742,-30 742,-49 836,-49 836,-30 742,-30"/>
<text text-anchor="middle" x="789" y="-37" font-family="Helvetica,sans-Serif" font-size="10.00">land_surface::lsm</text>
</a>
</g>
</g>
<!-- Node5&#45;&gt;Node6 -->
<g id="edge5" class="edge"><title>Node5&#45;&gt;Node6</title>
<path fill="none" stroke="midnightblue" d="M716.321,-39.5C724.948,-39.5 733.673,-39.5 741.924,-39.5"/>
<polygon fill="midnightblue" stroke="midnightblue" points="716.272,-36.0001 706.272,-39.5 716.272,-43.0001 716.272,-36.0001"/>
</g>
<!-- Node7 -->
<g id="node7" class="node"><title>Node7</title>
<g id="a_node7"><a xlink:href="classtime__step.html#a2c022f11247af72e607b1493289aa974" target="_top" xlink:title=" Step forward one IO time step. ">
<polygon fill="white" stroke="black" points="872,-30 872,-49 956,-49 956,-30 872,-30"/>
<text text-anchor="middle" x="914" y="-37" font-family="Helvetica,sans-Serif" font-size="10.00">time_step::step</text>
</a>
</g>
</g>
<!-- Node6&#45;&gt;Node7 -->
<g id="edge6" class="edge"><title>Node6&#45;&gt;Node7</title>
<path fill="none" stroke="midnightblue" d="M846.191,-39.5C854.834,-39.5 863.618,-39.5 871.853,-39.5"/>
<polygon fill="midnightblue" stroke="midnightblue" points="846.151,-36.0001 836.151,-39.5 846.151,-43.0001 846.151,-36.0001"/>
</g>
<!-- Node8 -->
<g id="node8" class="node"><title>Node8</title>
<g id="a_node8"><a xlink:href="driver_8f90.html#ab1e5a5816a57fc6e95d9563c2bb53590" target="_top" xlink:title=" Main Program ">
<polygon fill="white" stroke="black" points="992,-30 992,-49 1024,-49 1024,-30 992,-30"/>
<text text-anchor="middle" x="1008" y="-37" font-family="Helvetica,sans-Serif" font-size="10.00">icar</text>
</a>
</g>
</g>
<!-- Node7&#45;&gt;Node8 -->
<g id="edge7" class="edge"><title>Node7&#45;&gt;Node8</title>
<path fill="none" stroke="midnightblue" d="M966.253,-39.5C975.521,-39.5 984.5,-39.5 991.66,-39.5"/>
<polygon fill="midnightblue" stroke="midnightblue" points="966.156,-36.0001 956.156,-39.5 966.156,-43.0001 966.156,-36.0001"/>
</g>
<!-- Node9&#45;&gt;Node4 -->
<g id="edge9" class="edge"><title>Node9&#45;&gt;Node4</title>
<path fill="none" stroke="midnightblue" d="M412.307,-25.6872C421.307,-27.113 430.528,-28.5737 439.445,-29.9863"/>
<polygon fill="midnightblue" stroke="midnightblue" points="412.692,-22.2046 402.267,-24.0968 411.596,-29.1184 412.692,-22.2046"/>
</g>
</g>
</svg>
