<?xml version="1.0" encoding="UTF-8" standalone="no"?>
<!DOCTYPE svg PUBLIC "-//W3C//DTD SVG 1.1//EN"
 "http://www.w3.org/Graphics/SVG/1.1/DTD/svg11.dtd">
<!-- Generated by graphviz version 2.38.0 (20140413.2041)
 -->
<!-- Title: init::domain_allocation Pages: 1 -->
<svg width="526pt" height="47pt"
 viewBox="0.00 0.00 526.00 47.00" xmlns="http://www.w3.org/2000/svg" xmlns:xlink="http://www.w3.org/1999/xlink">
<g id="graph0" class="graph" transform="scale(1 1) rotate(0) translate(4 43)">
<title>init::domain_allocation</title>
<polygon fill="white" stroke="none" points="-4,4 -4,-43 522,-43 522,4 -4,4"/>
<!-- Node1 -->
<g id="node1" class="node"><title>Node1</title>
<polygon fill="#bfbfbf" stroke="black" points="0,-19.5 0,-38.5 113,-38.5 113,-19.5 0,-19.5"/>
<text text-anchor="middle" x="56.5" y="-26.5" font-family="Helvetica,sans-Serif" font-size="10.00">init::domain_allocation</text>
</g>
<!-- Node2 -->
<g id="node2" class="node"><title>Node2</title>
<g id="a_node2"><a xlink:href="classinit.html#a2c0d47bd2656d1121f0522d0f77a0e07" target="_top" xlink:title="init::init_domain">
<polygon fill="white" stroke="black" points="149,-19.5 149,-38.5 234,-38.5 234,-19.5 149,-19.5"/>
<text text-anchor="middle" x="191.5" y="-26.5" font-family="Helvetica,sans-Serif" font-size="10.00">init::init_domain</text>
</a>
</g>
</g>
<!-- Node1&#45;&gt;Node2 -->
<g id="edge1" class="edge"><title>Node1&#45;&gt;Node2</title>
<path fill="none" stroke="midnightblue" d="M123.302,-29C132.001,-29 140.716,-29 148.851,-29"/>
<polygon fill="midnightblue" stroke="midnightblue" points="123.133,-25.5001 113.133,-29 123.133,-32.5001 123.133,-25.5001"/>
</g>
<!-- Node3 -->
<g id="node3" class="node"><title>Node3</title>
<g id="a_node3"><a xlink:href="classinit.html#a1dd1e2b38eef39cba464f65c9ce82568" target="_top" xlink:title="init::init_model">
<polygon fill="white" stroke="black" points="370,-19.5 370,-38.5 450,-38.5 450,-19.5 370,-19.5"/>
<text text-anchor="middle" x="410" y="-26.5" font-family="Helvetica,sans-Serif" font-size="10.00">init::init_model</text>
</a>
</g>
</g>
<!-- Node2&#45;&gt;Node3 -->
<g id="edge2" class="edge"><title>Node2&#45;&gt;Node3</title>
<path fill="none" stroke="midnightblue" d="M244.252,-29C282.854,-29 334.775,-29 369.935,-29"/>
<polygon fill="midnightblue" stroke="midnightblue" points="244.243,-25.5001 234.243,-29 244.243,-32.5001 244.243,-25.5001"/>
</g>
<!-- Node5 -->
<g id="node5" class="node"><title>Node5</title>
<g id="a_node5"><a xlink:href="classinit.html#a1c6cab46bb16bea719da3b193c43ccb3" target="_top" xlink:title="init::init_bc">
<polygon fill="white" stroke="black" points="270,-0.5 270,-19.5 334,-19.5 334,-0.5 270,-0.5"/>
<text text-anchor="middle" x="302" y="-7.5" font-family="Helvetica,sans-Serif" font-size="10.00">init::init_bc</text>
</a>
</g>
</g>
<!-- Node2&#45;&gt;Node5 -->
<g id="edge4" class="edge"><title>Node2&#45;&gt;Node5</title>
<path fill="none" stroke="midnightblue" d="M244.27,-19.9344C252.979,-18.4092 261.774,-16.8691 269.754,-15.4717"/>
<polygon fill="midnightblue" stroke="midnightblue" points="243.385,-16.5359 234.139,-21.7084 244.592,-23.431 243.385,-16.5359"/>
</g>
<!-- Node4 -->
<g id="node4" class="node"><title>Node4</title>
<g id="a_node4"><a xlink:href="driver_8f90.html#ab1e5a5816a57fc6e95d9563c2bb53590" target="_top" xlink:title=" Main Program ">
<polygon fill="white" stroke="black" points="486,-19.5 486,-38.5 518,-38.5 518,-19.5 486,-19.5"/>
<text text-anchor="middle" x="502" y="-26.5" font-family="Helvetica,sans-Serif" font-size="10.00">icar</text>
</a>
</g>
</g>
<!-- Node3&#45;&gt;Node4 -->
<g id="edge3" class="edge"><title>Node3&#45;&gt;Node4</title>
<path fill="none" stroke="midnightblue" d="M460.233,-29C469.449,-29 478.425,-29 485.599,-29"/>
<polygon fill="midnightblue" stroke="midnightblue" points="460.214,-25.5001 450.213,-29 460.213,-32.5001 460.214,-25.5001"/>
</g>
<!-- Node5&#45;&gt;Node3 -->
<g id="edge5" class="edge"><title>Node5&#45;&gt;Node3</title>
<path fill="none" stroke="midnightblue" d="M344.196,-17.3841C352.584,-18.8877 361.388,-20.4658 369.708,-21.9572"/>
<polygon fill="midnightblue" stroke="midnightblue" points="344.691,-13.9172 334.23,-15.5979 343.456,-20.8074 344.691,-13.9172"/>
</g>
</g>
</svg>
