<?xml version="1.0" encoding="UTF-8" standalone="no"?>
<!DOCTYPE svg PUBLIC "-//W3C//DTD SVG 1.1//EN"
 "http://www.w3.org/Graphics/SVG/1.1/DTD/svg11.dtd">
<!-- Generated by graphviz version 2.38.0 (20140413.2041)
 -->
<!-- Title: linear_theory_lut_disk_io::setup_dim Pages: 1 -->
<svg width="266pt" height="88pt"
 viewBox="0.00 0.00 266.00 88.00" xmlns="http://www.w3.org/2000/svg" xmlns:xlink="http://www.w3.org/1999/xlink">
<g id="graph0" class="graph" transform="scale(1 1) rotate(0) translate(4 84)">
<title>linear_theory_lut_disk_io::setup_dim</title>
<polygon fill="white" stroke="none" points="-4,4 -4,-84 262,-84 262,4 -4,4"/>
<!-- Node1 -->
<g id="node1" class="node"><title>Node1</title>
<polygon fill="#bfbfbf" stroke="black" points="0,-24.5 0,-54.5 111,-54.5 111,-24.5 0,-24.5"/>
<text text-anchor="start" x="8" y="-42.5" font-family="Helvetica,sans-Serif" font-size="10.00">linear_theory_lut_disk</text>
<text text-anchor="middle" x="55.5" y="-31.5" font-family="Helvetica,sans-Serif" font-size="10.00">_io::setup_dim</text>
</g>
<!-- Node2 -->
<g id="node2" class="node"><title>Node2</title>
<g id="a_node2"><a xlink:href="classlinear__theory__lut__disk__io.html#afded6d7210b9fcb3708f213aabfe56a4" target="_top" xlink:title=" Write a 6D variable to a netCDF file ">
<polygon fill="white" stroke="black" points="147,-49.5 147,-79.5 258,-79.5 258,-49.5 147,-49.5"/>
<text text-anchor="start" x="155" y="-67.5" font-family="Helvetica,sans-Serif" font-size="10.00">linear_theory_lut_disk</text>
<text text-anchor="middle" x="202.5" y="-56.5" font-family="Helvetica,sans-Serif" font-size="10.00">_io::write_var_6d</text>
</a>
</g>
</g>
<!-- Node1&#45;&gt;Node2 -->
<g id="edge1" class="edge"><title>Node1&#45;&gt;Node2</title>
<path fill="none" stroke="midnightblue" d="M121.185,-50.6526C129.671,-52.1157 138.302,-53.6037 146.604,-55.0352"/>
<polygon fill="midnightblue" stroke="midnightblue" points="121.768,-47.2015 111.318,-48.9514 120.578,-54.0997 121.768,-47.2015"/>
</g>
<!-- Node3 -->
<g id="node3" class="node"><title>Node3</title>
<g id="a_node3"><a xlink:href="classlinear__theory__lut__disk__io.html#a6a39ae31079f8c5a2e481a031b801870" target="_top" xlink:title=" Same as write_var_6d but for a 1D variable ">
<polygon fill="white" stroke="black" points="147,-0.5 147,-30.5 258,-30.5 258,-0.5 147,-0.5"/>
<text text-anchor="start" x="155" y="-18.5" font-family="Helvetica,sans-Serif" font-size="10.00">linear_theory_lut_disk</text>
<text text-anchor="middle" x="202.5" y="-7.5" font-family="Helvetica,sans-Serif" font-size="10.00">_io::write_var_1d</text>
</a>
</g>
</g>
<!-- Node1&#45;&gt;Node3 -->
<g id="edge2" class="edge"><title>Node1&#45;&gt;Node3</title>
<path fill="none" stroke="midnightblue" d="M121.185,-28.7935C129.671,-27.3889 138.302,-25.9604 146.604,-24.5862"/>
<polygon fill="midnightblue" stroke="midnightblue" points="120.612,-25.3406 111.318,-30.4266 121.756,-32.2466 120.612,-25.3406"/>
</g>
</g>
</svg>
