<?xml version="1.0" encoding="UTF-8" standalone="no"?>
<!DOCTYPE svg PUBLIC "-//W3C//DTD SVG 1.1//EN"
 "http://www.w3.org/Graphics/SVG/1.1/DTD/svg11.dtd">
<!-- Generated by graphviz version 2.32.0 (20130809.1645)
 -->
<!-- Title: io_routines::check Pages: 1 -->
<svg width="1358pt" height="1077pt"
 viewBox="0.00 0.00 1358.00 1077.00" xmlns="http://www.w3.org/2000/svg" xmlns:xlink="http://www.w3.org/1999/xlink">
<g id="graph0" class="graph" transform="scale(1 1) rotate(0) translate(4 1073)">
<title>io_routines::check</title>
<polygon fill="white" stroke="white" points="-4,5 -4,-1073 1355,-1073 1355,5 -4,5"/>
<!-- Node1 -->
<g id="node1" class="node"><title>Node1</title>
<polygon fill="#bfbfbf" stroke="black" points="0,-540.5 0,-559.5 96,-559.5 96,-540.5 0,-540.5"/>
<text text-anchor="middle" x="48" y="-547.5" font-family="Helvetica,sans-Serif" font-size="10.00">io_routines::check</text>
</g>
<!-- Node2 -->
<g id="node2" class="node"><title>Node2</title>
<g id="a_node2"><a xlink:href="classio__routines.html#a17f18d6dd50473973791b936651a50a2" target="_top" xlink:title=" Tests to see if a variable is present in a netcdf file returns true of it is, false if it isn&#39;t ...">
<polygon fill="white" stroke="black" points="133,-979 133,-1009 249,-1009 249,-979 133,-979"/>
<text text-anchor="start" x="141" y="-997" font-family="Helvetica,sans-Serif" font-size="10.00">io_routines::io_variable</text>
<text text-anchor="middle" x="191" y="-986" font-family="Helvetica,sans-Serif" font-size="10.00">_is_present</text>
</a>
</g>
</g>
<!-- Node1&#45;&gt;Node2 -->
<g id="edge1" class="edge"><title>Node1&#45;&gt;Node2</title>
<path fill="none" stroke="midnightblue" d="M50.804,-569.975C57.7702,-643.448 84.9011,-897.769 132,-962 137.032,-968.863 144.002,-974.432 151.368,-978.882"/>
<polygon fill="midnightblue" stroke="midnightblue" points="54.2682,-569.426 49.8591,-559.792 47.2981,-570.073 54.2682,-569.426"/>
</g>
<!-- Node6 -->
<g id="node6" class="node"><title>Node6</title>
<g id="a_node6"><a xlink:href="classio__routines.html#af199c5971982f00c29c4ad34bdf15be0" target="_top" xlink:title=" Finds the nearest time step in a file to a given MJD Uses the &quot;time&quot; variable from filename...">
<polygon fill="white" stroke="black" points="286.5,-1039 286.5,-1069 401.5,-1069 401.5,-1039 286.5,-1039"/>
<text text-anchor="start" x="294.5" y="-1057" font-family="Helvetica,sans-Serif" font-size="10.00">io_routines::io_nearest</text>
<text text-anchor="middle" x="344" y="-1046" font-family="Helvetica,sans-Serif" font-size="10.00">_time_step</text>
</a>
</g>
</g>
<!-- Node1&#45;&gt;Node6 -->
<g id="edge5" class="edge"><title>Node1&#45;&gt;Node6</title>
<path fill="none" stroke="midnightblue" d="M49.5979,-570.11C52.4395,-651.307 67.2774,-953.699 132,-1018 171.94,-1057.68 238.504,-1063 286.193,-1060.74"/>
<polygon fill="midnightblue" stroke="midnightblue" points="53.0855,-569.67 49.2612,-559.79 46.0893,-569.899 53.0855,-569.67"/>
</g>
<!-- Node10 -->
<g id="node10" class="node"><title>Node10</title>
<g id="a_node10"><a xlink:href="classio__routines.html#ae987ea578b7a3fe5c0d51363e0f154a7" target="_top" xlink:title=" Read the dimensions of a variable in a given netcdf file ">
<polygon fill="white" stroke="black" points="132.5,-850.5 132.5,-869.5 249.5,-869.5 249.5,-850.5 132.5,-850.5"/>
<text text-anchor="middle" x="191" y="-857.5" font-family="Helvetica,sans-Serif" font-size="10.00">io_routines::io_getdims</text>
</a>
</g>
</g>
<!-- Node1&#45;&gt;Node10 -->
<g id="edge10" class="edge"><title>Node1&#45;&gt;Node10</title>
<path fill="none" stroke="midnightblue" d="M49.1398,-569.763C50.5493,-620.492 61.1139,-756.863 132,-836 137.599,-842.25 145.076,-846.912 152.797,-850.375"/>
<polygon fill="midnightblue" stroke="midnightblue" points="52.6351,-569.469 48.9529,-559.535 45.6363,-569.597 52.6351,-569.469"/>
</g>
<!-- Node11 -->
<g id="node11" class="node"><title>Node11</title>
<g id="a_node11"><a xlink:href="classio__routines.html#a0f7ace0d74c231e564127091b91a1829" target="_top" xlink:title=" Reads in a variable from a netcdf file, allocating memory in data_in for it. ">
<polygon fill="white" stroke="black" points="288,-962.5 288,-981.5 400,-981.5 400,-962.5 288,-962.5"/>
<text text-anchor="middle" x="344" y="-969.5" font-family="Helvetica,sans-Serif" font-size="10.00">io_routines::io_read6d</text>
</a>
</g>
</g>
<!-- Node1&#45;&gt;Node11 -->
<g id="edge34" class="edge"><title>Node1&#45;&gt;Node11</title>
<path fill="none" stroke="midnightblue" d="M50.7917,-569.971C57.3961,-639.16 82.5985,-867.159 132,-918 172.317,-959.492 239.81,-970.676 287.595,-972.96"/>
<polygon fill="midnightblue" stroke="midnightblue" points="54.2405,-569.256 49.8311,-559.622 47.2704,-569.903 54.2405,-569.256"/>
</g>
<!-- Node12 -->
<g id="node12" class="node"><title>Node12</title>
<g id="a_node12"><a xlink:href="classio__routines.html#a9299c31d7f403c198f9e37dcee752d62" target="_top" xlink:title=" Same as io_read6d but for 3&#45;dimensional data ">
<polygon fill="white" stroke="black" points="288,-924.5 288,-943.5 400,-943.5 400,-924.5 288,-924.5"/>
<text text-anchor="middle" x="344" y="-931.5" font-family="Helvetica,sans-Serif" font-size="10.00">io_routines::io_read3d</text>
</a>
</g>
</g>
<!-- Node1&#45;&gt;Node12 -->
<g id="edge35" class="edge"><title>Node1&#45;&gt;Node12</title>
<path fill="none" stroke="midnightblue" d="M51.3155,-569.497C59.2719,-633.267 87.4784,-834.127 132,-879 172.794,-920.116 240.194,-931.731 287.826,-934.422"/>
<polygon fill="midnightblue" stroke="midnightblue" points="54.7881,-569.059 50.1023,-559.556 47.8397,-569.907 54.7881,-569.059"/>
</g>
<!-- Node13 -->
<g id="node13" class="node"><title>Node13</title>
<g id="a_node13"><a xlink:href="classio__routines.html#aba898af2a0a5add631af1aefb0fc2562" target="_top" xlink:title=" Same as io_read3d but for 2&#45;dimensional data ">
<polygon fill="white" stroke="black" points="288,-665.5 288,-684.5 400,-684.5 400,-665.5 288,-665.5"/>
<text text-anchor="middle" x="344" y="-672.5" font-family="Helvetica,sans-Serif" font-size="10.00">io_routines::io_read2d</text>
</a>
</g>
</g>
<!-- Node1&#45;&gt;Node13 -->
<g id="edge36" class="edge"><title>Node1&#45;&gt;Node13</title>
<path fill="none" stroke="midnightblue" d="M49.2511,-569.631C51.0279,-615.299 62.5687,-728.46 132,-777 174.982,-807.049 205.824,-805.265 250,-777 282.161,-756.422 258.549,-725.537 286,-699 292.408,-692.806 300.652,-688.106 308.868,-684.581"/>
<polygon fill="midnightblue" stroke="midnightblue" points="52.7478,-569.458 48.9804,-559.555 45.7503,-569.646 52.7478,-569.458"/>
</g>
<!-- Node14 -->
<g id="node14" class="node"><title>Node14</title>
<g id="a_node14"><a xlink:href="classio__routines.html#a1a4ac7d9c4c52ca39c377e88466a6096" target="_top" xlink:title=" Same as io_read2d but for integer data ">
<polygon fill="white" stroke="black" points="287,-627.5 287,-646.5 401,-646.5 401,-627.5 287,-627.5"/>
<text text-anchor="middle" x="344" y="-634.5" font-family="Helvetica,sans-Serif" font-size="10.00">io_routines::io_read2di</text>
</a>
</g>
</g>
<!-- Node1&#45;&gt;Node14 -->
<g id="edge37" class="edge"><title>Node1&#45;&gt;Node14</title>
<path fill="none" stroke="midnightblue" d="M50.2561,-570.062C54.1143,-612.363 69.6846,-710.234 132,-752 175.565,-781.198 206.895,-781.872 250,-752 287.454,-726.045 253.188,-687.62 286,-656 290.056,-652.091 294.937,-648.986 300.115,-646.52"/>
<polygon fill="midnightblue" stroke="midnightblue" points="53.7317,-569.611 49.4633,-559.914 46.753,-570.157 53.7317,-569.611"/>
</g>
<!-- Node15 -->
<g id="node15" class="node"><title>Node15</title>
<g id="a_node15"><a xlink:href="classio__routines.html#a1d20fcc0dfc593cf25697874a30c5edf" target="_top" xlink:title=" Same as io_read3d but for 1&#45;dimensional data ">
<polygon fill="white" stroke="black" points="288,-589.5 288,-608.5 400,-608.5 400,-589.5 288,-589.5"/>
<text text-anchor="middle" x="344" y="-596.5" font-family="Helvetica,sans-Serif" font-size="10.00">io_routines::io_read1d</text>
</a>
</g>
</g>
<!-- Node1&#45;&gt;Node15 -->
<g id="edge38" class="edge"><title>Node1&#45;&gt;Node15</title>
<path fill="none" stroke="midnightblue" d="M51.4744,-569.939C57.4304,-608.299 76.448,-691.693 132,-727 176.261,-755.131 207.497,-757.723 250,-727 291.347,-697.112 249.974,-654.125 286,-618 289.904,-614.085 294.634,-610.977 299.682,-608.51"/>
<polygon fill="midnightblue" stroke="midnightblue" points="54.8767,-568.999 50.0193,-559.583 47.9448,-569.973 54.8767,-568.999"/>
</g>
<!-- Node26 -->
<g id="node26" class="node"><title>Node26</title>
<g id="a_node26"><a xlink:href="classio__routines.html#a854f47811c08569cb6ea433ec432a52d" target="_top" xlink:title=" Write a 6&#45;dimensional variable to a netcdf file ">
<polygon fill="white" stroke="black" points="134,-698.5 134,-717.5 248,-717.5 248,-698.5 134,-698.5"/>
<text text-anchor="middle" x="191" y="-705.5" font-family="Helvetica,sans-Serif" font-size="10.00">io_routines::io_write6d</text>
</a>
</g>
</g>
<!-- Node1&#45;&gt;Node26 -->
<g id="edge39" class="edge"><title>Node1&#45;&gt;Node26</title>
<path fill="none" stroke="midnightblue" d="M55.5139,-569.396C66.5481,-599.357 91.7261,-656.795 132,-689 136.883,-692.904 142.595,-696.018 148.496,-698.499"/>
<polygon fill="midnightblue" stroke="midnightblue" points="58.7188,-567.96 52.0868,-559.698 52.1188,-570.293 58.7188,-567.96"/>
</g>
<!-- Node27 -->
<g id="node27" class="node"><title>Node27</title>
<g id="a_node27"><a xlink:href="classio__routines.html#aa27a95c5b349d5a435a4714319a913d7" target="_top" xlink:title=" Same as io_write6d but for 3&#45;dimensional data ">
<polygon fill="white" stroke="black" points="134,-660.5 134,-679.5 248,-679.5 248,-660.5 134,-660.5"/>
<text text-anchor="middle" x="191" y="-667.5" font-family="Helvetica,sans-Serif" font-size="10.00">io_routines::io_write3d</text>
</a>
</g>
</g>
<!-- Node1&#45;&gt;Node27 -->
<g id="edge40" class="edge"><title>Node1&#45;&gt;Node27</title>
<path fill="none" stroke="midnightblue" d="M59.4456,-568.222C73.2702,-590.782 99.7054,-628.918 132,-651 137.598,-654.828 144.022,-657.929 150.509,-660.428"/>
<polygon fill="midnightblue" stroke="midnightblue" points="62.4354,-566.402 54.3125,-559.6 56.4205,-569.983 62.4354,-566.402"/>
</g>
<!-- Node28 -->
<g id="node28" class="node"><title>Node28</title>
<g id="a_node28"><a xlink:href="classio__routines.html#ae7be8aa8aee31f44b10ebee72e15dd8f" target="_top" xlink:title=" Same as io_write3d but for integer arrays ">
<polygon fill="white" stroke="black" points="133,-622.5 133,-641.5 249,-641.5 249,-622.5 133,-622.5"/>
<text text-anchor="middle" x="191" y="-629.5" font-family="Helvetica,sans-Serif" font-size="10.00">io_routines::io_write3di</text>
</a>
</g>
</g>
<!-- Node1&#45;&gt;Node28 -->
<g id="edge41" class="edge"><title>Node1&#45;&gt;Node28</title>
<path fill="none" stroke="midnightblue" d="M66.7714,-566.304C82.8127,-580.303 107.578,-600.195 132,-613 139.038,-616.69 146.931,-619.849 154.573,-622.471"/>
<polygon fill="midnightblue" stroke="midnightblue" points="69.0231,-563.622 59.226,-559.589 64.3694,-568.852 69.0231,-563.622"/>
</g>
<!-- Node29 -->
<g id="node29" class="node"><title>Node29</title>
<g id="a_node29"><a xlink:href="classio__routines.html#a7b166a4ab2614f8c788e63d7b3b05862" target="_top" xlink:title=" Same as io_write3d but for 2&#45;dimensional arrays ">
<polygon fill="white" stroke="black" points="134,-584.5 134,-603.5 248,-603.5 248,-584.5 134,-584.5"/>
<text text-anchor="middle" x="191" y="-591.5" font-family="Helvetica,sans-Serif" font-size="10.00">io_routines::io_write2d</text>
</a>
</g>
</g>
<!-- Node1&#45;&gt;Node29 -->
<g id="edge42" class="edge"><title>Node1&#45;&gt;Node29</title>
<path fill="none" stroke="midnightblue" d="M89.148,-562.528C111.497,-569.503 138.876,-578.046 159.465,-584.471"/>
<polygon fill="midnightblue" stroke="midnightblue" points="90.1835,-559.185 79.5949,-559.547 88.0983,-565.867 90.1835,-559.185"/>
</g>
<!-- Node30 -->
<g id="node30" class="node"><title>Node30</title>
<g id="a_node30"><a xlink:href="classio__routines.html#a7cd7ff951d63551cbee360f9f71faf50" target="_top" xlink:title=" Read a real type attribute from a named file from an optional variable ">
<polygon fill="white" stroke="black" points="140.5,-535 140.5,-565 241.5,-565 241.5,-535 140.5,-535"/>
<text text-anchor="start" x="148.5" y="-553" font-family="Helvetica,sans-Serif" font-size="10.00">io_routines::io_read</text>
<text text-anchor="middle" x="191" y="-542" font-family="Helvetica,sans-Serif" font-size="10.00">_attribute_r</text>
</a>
</g>
</g>
<!-- Node1&#45;&gt;Node30 -->
<g id="edge43" class="edge"><title>Node1&#45;&gt;Node30</title>
<path fill="none" stroke="midnightblue" d="M106.438,-550C117.606,-550 129.228,-550 140.127,-550"/>
<polygon fill="midnightblue" stroke="midnightblue" points="106.343,-546.5 96.3432,-550 106.343,-553.5 106.343,-546.5"/>
</g>
<!-- Node31 -->
<g id="node31" class="node"><title>Node31</title>
<g id="a_node31"><a xlink:href="classio__routines.html#a72928f288bf0a617cf1285a786007f4a" target="_top" xlink:title=" Read a integer type attribute from a named file from an optional variable ">
<polygon fill="white" stroke="black" points="140.5,-486 140.5,-516 241.5,-516 241.5,-486 140.5,-486"/>
<text text-anchor="start" x="148.5" y="-504" font-family="Helvetica,sans-Serif" font-size="10.00">io_routines::io_read</text>
<text text-anchor="middle" x="191" y="-493" font-family="Helvetica,sans-Serif" font-size="10.00">_attribute_i</text>
</a>
</g>
</g>
<!-- Node1&#45;&gt;Node31 -->
<g id="edge44" class="edge"><title>Node1&#45;&gt;Node31</title>
<path fill="none" stroke="midnightblue" d="M86.1164,-537.101C104.716,-530.638 127.346,-522.773 146.73,-516.037"/>
<polygon fill="midnightblue" stroke="midnightblue" points="84.8179,-533.847 76.5209,-540.436 87.1158,-540.459 84.8179,-533.847"/>
</g>
<!-- Node32 -->
<g id="node32" class="node"><title>Node32</title>
<g id="a_node32"><a xlink:href="classio__routines.html#a58fc435dfdb89a28609641c674554a42" target="_top" xlink:title=" Read a character type attribute from a named file from an optional variable ">
<polygon fill="white" stroke="black" points="140.5,-437 140.5,-467 241.5,-467 241.5,-437 140.5,-437"/>
<text text-anchor="start" x="148.5" y="-455" font-family="Helvetica,sans-Serif" font-size="10.00">io_routines::io_read</text>
<text text-anchor="middle" x="191" y="-444" font-family="Helvetica,sans-Serif" font-size="10.00">_attribute_c</text>
</a>
</g>
</g>
<!-- Node1&#45;&gt;Node32 -->
<g id="edge45" class="edge"><title>Node1&#45;&gt;Node32</title>
<path fill="none" stroke="midnightblue" d="M64.78,-532.934C80.5599,-516.636 106.14,-492.221 132,-476 137.17,-472.757 142.853,-469.785 148.578,-467.119"/>
<polygon fill="midnightblue" stroke="midnightblue" points="62.2154,-530.552 57.8624,-540.211 67.2889,-535.375 62.2154,-530.552"/>
</g>
<!-- Node33 -->
<g id="node33" class="node"><title>Node33</title>
<g id="a_node33"><a xlink:href="classio__routines.html#a7deda15a61d8c75745d1632a48872685" target="_top" xlink:title=" Write a real type attribute to a named file for an optional variable ">
<polygon fill="white" stroke="black" points="142,-388 142,-418 240,-418 240,-388 142,-388"/>
<text text-anchor="start" x="150" y="-406" font-family="Helvetica,sans-Serif" font-size="10.00">io_routines::io_add</text>
<text text-anchor="middle" x="191" y="-395" font-family="Helvetica,sans-Serif" font-size="10.00">_attribute_r</text>
</a>
</g>
</g>
<!-- Node1&#45;&gt;Node33 -->
<g id="edge46" class="edge"><title>Node1&#45;&gt;Node33</title>
<path fill="none" stroke="midnightblue" d="M57.4585,-530.927C70.1324,-504.317 96.4167,-456.056 132,-427 136.136,-423.623 140.814,-420.659 145.674,-418.074"/>
<polygon fill="midnightblue" stroke="midnightblue" points="54.1527,-529.737 53.1409,-540.284 60.5087,-532.67 54.1527,-529.737"/>
</g>
<!-- Node34 -->
<g id="node34" class="node"><title>Node34</title>
<g id="a_node34"><a xlink:href="classio__routines.html#a91996ae291448cc3af6c62f5f633a071" target="_top" xlink:title=" Write an integer type attribute to a named file for an optional variable ">
<polygon fill="white" stroke="black" points="142,-339 142,-369 240,-369 240,-339 142,-339"/>
<text text-anchor="start" x="150" y="-357" font-family="Helvetica,sans-Serif" font-size="10.00">io_routines::io_add</text>
<text text-anchor="middle" x="191" y="-346" font-family="Helvetica,sans-Serif" font-size="10.00">_attribute_i</text>
</a>
</g>
</g>
<!-- Node1&#45;&gt;Node34 -->
<g id="edge47" class="edge"><title>Node1&#45;&gt;Node34</title>
<path fill="none" stroke="midnightblue" d="M53.5163,-530.441C62.5657,-495.353 86.1028,-421.342 132,-378 135.645,-374.558 139.852,-371.579 144.303,-369.006"/>
<polygon fill="midnightblue" stroke="midnightblue" points="50.0622,-529.831 51.0772,-540.377 56.8604,-531.5 50.0622,-529.831"/>
</g>
<!-- Node35 -->
<g id="node35" class="node"><title>Node35</title>
<g id="a_node35"><a xlink:href="classio__routines.html#ac3a947fae3ad6f98884c1816c88ce9d5" target="_top" xlink:title=" Write an character type attribute to a named file for an optional variable ">
<polygon fill="white" stroke="black" points="142,-290 142,-320 240,-320 240,-290 142,-290"/>
<text text-anchor="start" x="150" y="-308" font-family="Helvetica,sans-Serif" font-size="10.00">io_routines::io_add</text>
<text text-anchor="middle" x="191" y="-297" font-family="Helvetica,sans-Serif" font-size="10.00">_attribute_c</text>
</a>
</g>
</g>
<!-- Node1&#45;&gt;Node35 -->
<g id="edge48" class="edge"><title>Node1&#45;&gt;Node35</title>
<path fill="none" stroke="midnightblue" d="M51.1738,-529.999C56.8082,-487.488 75.6152,-387.281 132,-329 135.334,-325.554 139.235,-322.583 143.41,-320.027"/>
<polygon fill="midnightblue" stroke="midnightblue" points="47.6711,-529.81 49.9375,-540.16 54.6198,-530.656 47.6711,-529.81"/>
</g>
<!-- Node36 -->
<g id="node36" class="node"><title>Node36</title>
<g id="a_node36"><a xlink:href="classlinear__theory__lut__disk__io.html#afded6d7210b9fcb3708f213aabfe56a4" target="_top" xlink:title=" Write a 6D variable to a netCDF file ">
<polygon fill="white" stroke="black" points="288.5,-202 288.5,-232 399.5,-232 399.5,-202 288.5,-202"/>
<text text-anchor="start" x="296.5" y="-220" font-family="Helvetica,sans-Serif" font-size="10.00">linear_theory_lut_disk</text>
<text text-anchor="middle" x="344" y="-209" font-family="Helvetica,sans-Serif" font-size="10.00">_io::write_var_6d</text>
</a>
</g>
</g>
<!-- Node1&#45;&gt;Node36 -->
<g id="edge49" class="edge"><title>Node1&#45;&gt;Node36</title>
<path fill="none" stroke="midnightblue" d="M49.08,-530.238C50.3822,-480.793 60.7778,-350.649 132,-280 137.734,-274.312 227.852,-248.678 288.442,-231.912"/>
<polygon fill="midnightblue" stroke="midnightblue" points="45.5802,-530.201 48.9167,-540.257 52.5793,-530.315 45.5802,-530.201"/>
</g>
<!-- Node37 -->
<g id="node37" class="node"><title>Node37</title>
<g id="a_node37"><a xlink:href="classlinear__theory__lut__disk__io.html#a6a39ae31079f8c5a2e481a031b801870" target="_top" xlink:title=" Same as write_var_6d but for a 1D variable ">
<polygon fill="white" stroke="black" points="288.5,-153 288.5,-183 399.5,-183 399.5,-153 288.5,-153"/>
<text text-anchor="start" x="296.5" y="-171" font-family="Helvetica,sans-Serif" font-size="10.00">linear_theory_lut_disk</text>
<text text-anchor="middle" x="344" y="-160" font-family="Helvetica,sans-Serif" font-size="10.00">_io::write_var_1d</text>
</a>
</g>
</g>
<!-- Node1&#45;&gt;Node37 -->
<g id="edge50" class="edge"><title>Node1&#45;&gt;Node37</title>
<path fill="none" stroke="midnightblue" d="M49.8779,-529.871C53.6113,-454.8 70.896,-192.901 132,-143 184.571,-100.068 270.574,-131.766 314.792,-152.992"/>
<polygon fill="midnightblue" stroke="midnightblue" points="46.3633,-530.101 49.3904,-540.255 53.3556,-530.43 46.3633,-530.101"/>
</g>
<!-- Node38 -->
<g id="node38" class="node"><title>Node38</title>
<g id="a_node38"><a xlink:href="classlinear__theory__lut__disk__io.html#a1c226f1639c088893adff763253224f1" target="_top" xlink:title=" Setup a new variable to be written ">
<polygon fill="white" stroke="black" points="135.5,-153 135.5,-183 246.5,-183 246.5,-153 135.5,-153"/>
<text text-anchor="start" x="143.5" y="-171" font-family="Helvetica,sans-Serif" font-size="10.00">linear_theory_lut_disk</text>
<text text-anchor="middle" x="191" y="-160" font-family="Helvetica,sans-Serif" font-size="10.00">_io::setup_var</text>
</a>
</g>
</g>
<!-- Node1&#45;&gt;Node38 -->
<g id="edge51" class="edge"><title>Node1&#45;&gt;Node38</title>
<path fill="none" stroke="midnightblue" d="M51.1821,-530.364C58.9866,-463.299 87.444,-244.563 132,-192 134.889,-188.592 138.34,-185.66 142.1,-183.139"/>
<polygon fill="midnightblue" stroke="midnightblue" points="47.6911,-530.087 50.0359,-540.419 54.6461,-530.88 47.6911,-530.087"/>
</g>
<!-- Node39 -->
<g id="node39" class="node"><title>Node39</title>
<g id="a_node39"><a xlink:href="classlinear__theory__lut__disk__io.html#abb38011ddeae204021d9e43bd62b3084" target="_top" xlink:title=" Setup a new dimension in a given netcdf file ">
<polygon fill="white" stroke="black" points="135.5,-202 135.5,-232 246.5,-232 246.5,-202 135.5,-202"/>
<text text-anchor="start" x="143.5" y="-220" font-family="Helvetica,sans-Serif" font-size="10.00">linear_theory_lut_disk</text>
<text text-anchor="middle" x="191" y="-209" font-family="Helvetica,sans-Serif" font-size="10.00">_io::setup_dim</text>
</a>
</g>
</g>
<!-- Node1&#45;&gt;Node39 -->
<g id="edge54" class="edge"><title>Node1&#45;&gt;Node39</title>
<path fill="none" stroke="midnightblue" d="M49.1643,-530.132C50.6041,-477.857 61.1811,-334.502 132,-247 136.85,-241.008 143.215,-236.082 149.949,-232.079"/>
<polygon fill="midnightblue" stroke="midnightblue" points="45.6606,-530.302 48.9723,-540.366 52.6593,-530.434 45.6606,-530.302"/>
</g>
<!-- Node40 -->
<g id="node40" class="node"><title>Node40</title>
<g id="a_node40"><a xlink:href="classoutput.html#abf88076008ba1520740fd573165ee72d" target="_top" xlink:title=" Creates a new NetCDF output file ">
<polygon fill="white" stroke="black" points="143.5,-76.5 143.5,-95.5 238.5,-95.5 238.5,-76.5 143.5,-76.5"/>
<text text-anchor="middle" x="191" y="-83.5" font-family="Helvetica,sans-Serif" font-size="10.00">output::create_file</text>
</a>
</g>
</g>
<!-- Node1&#45;&gt;Node40 -->
<g id="edge57" class="edge"><title>Node1&#45;&gt;Node40</title>
<path fill="none" stroke="midnightblue" d="M50.2831,-529.987C55.5916,-452.911 78.1378,-176.274 132,-110 137.155,-103.657 144.267,-98.9713 151.748,-95.5154"/>
<polygon fill="midnightblue" stroke="midnightblue" points="46.7737,-530.014 49.5999,-540.225 53.7581,-530.48 46.7737,-530.014"/>
</g>
<!-- Node41 -->
<g id="node41" class="node"><title>Node41</title>
<g id="a_node41"><a xlink:href="classoutput.html#a96fb2c72004c645360fa3e6f2b551b50" target="_top" xlink:title=" Simple routine to write all domain data from this current time step to the output file...">
<polygon fill="white" stroke="black" points="290.5,-95.5 290.5,-114.5 397.5,-114.5 397.5,-95.5 290.5,-95.5"/>
<text text-anchor="middle" x="344" y="-102.5" font-family="Helvetica,sans-Serif" font-size="10.00">output::write_domain</text>
</a>
</g>
</g>
<!-- Node1&#45;&gt;Node41 -->
<g id="edge65" class="edge"><title>Node1&#45;&gt;Node41</title>
<path fill="none" stroke="midnightblue" d="M49.1809,-529.987C50.3961,-446.55 59.7671,-127.879 132,-67 190.487,-17.706 291.04,-72.0385 328.435,-95.3926"/>
<polygon fill="midnightblue" stroke="midnightblue" points="45.6793,-530.107 49.0579,-540.148 52.6788,-530.192 45.6793,-530.107"/>
</g>
<!-- Node43 -->
<g id="node43" class="node"><title>Node43</title>
<g id="a_node43"><a xlink:href="classoutput.html#a92fd667efbd13e99735e947dc0344b30" target="_top" xlink:title=" Set up the varids for an existing NetCDF file by searching for the variable name ...">
<polygon fill="white" stroke="black" points="138.5,-0.5 138.5,-19.5 243.5,-19.5 243.5,-0.5 138.5,-0.5"/>
<text text-anchor="middle" x="191" y="-7.5" font-family="Helvetica,sans-Serif" font-size="10.00">output::setup_varids</text>
</a>
</g>
</g>
<!-- Node1&#45;&gt;Node43 -->
<g id="edge63" class="edge"><title>Node1&#45;&gt;Node43</title>
<path fill="none" stroke="midnightblue" d="M49.6645,-530.171C52.8785,-445.29 69.3242,-113.278 132,-34 137.001,-27.674 143.957,-22.9999 151.32,-19.5512"/>
<polygon fill="midnightblue" stroke="midnightblue" points="46.1634,-530.142 49.302,-540.261 53.1589,-530.393 46.1634,-530.142"/>
</g>
<!-- Node3 -->
<g id="node3" class="node"><title>Node3</title>
<g id="a_node3"><a xlink:href="classboundary__conditions.html#ad2ea45f7b77ad1c1d998b3ad7d236d89" target="_top" xlink:title=" Load restart file ">
<polygon fill="white" stroke="black" points="744,-965 744,-995 850,-995 850,-965 744,-965"/>
<text text-anchor="start" x="752" y="-983" font-family="Helvetica,sans-Serif" font-size="10.00">boundary_conditions</text>
<text text-anchor="middle" x="797" y="-972" font-family="Helvetica,sans-Serif" font-size="10.00">::load_restart_file</text>
</a>
</g>
</g>
<!-- Node2&#45;&gt;Node3 -->
<g id="edge2" class="edge"><title>Node2&#45;&gt;Node3</title>
<path fill="none" stroke="midnightblue" d="M259.241,-993.272C300.452,-992.769 354.28,-992.007 402,-991 524.461,-988.416 668.298,-984.068 743.745,-981.685"/>
<polygon fill="midnightblue" stroke="midnightblue" points="259.004,-989.775 249.047,-993.395 259.088,-996.774 259.004,-989.775"/>
</g>
<!-- Node4 -->
<g id="node4" class="node"><title>Node4</title>
<g id="a_node4"><a xlink:href="classboundary__conditions.html#a07a42f467f470ada98e0a35fd5a75f66" target="_top" xlink:title=" Initialize the boundary conditions (read inital conditions, etc.) ">
<polygon fill="white" stroke="black" points="1176,-816 1176,-846 1282,-846 1282,-816 1176,-816"/>
<text text-anchor="start" x="1184" y="-834" font-family="Helvetica,sans-Serif" font-size="10.00">boundary_conditions</text>
<text text-anchor="middle" x="1229" y="-823" font-family="Helvetica,sans-Serif" font-size="10.00">::bc_init</text>
</a>
</g>
</g>
<!-- Node3&#45;&gt;Node4 -->
<g id="edge3" class="edge"><title>Node3&#45;&gt;Node4</title>
<path fill="none" stroke="midnightblue" d="M860.311,-980.551C931.799,-978.713 1050.65,-967.941 1140,-921 1174.24,-903.011 1203.2,-866.873 1217.81,-846.283"/>
<polygon fill="midnightblue" stroke="midnightblue" points="860.042,-977.056 850.116,-980.76 860.186,-984.054 860.042,-977.056"/>
</g>
<!-- Node5 -->
<g id="node5" class="node"><title>Node5</title>
<g id="a_node5"><a xlink:href="driver_8f90.html#ab1e5a5816a57fc6e95d9563c2bb53590" target="_top" xlink:title=" Main Program ">
<polygon fill="white" stroke="black" points="1318,-717.5 1318,-736.5 1350,-736.5 1350,-717.5 1318,-717.5"/>
<text text-anchor="middle" x="1334" y="-724.5" font-family="Helvetica,sans-Serif" font-size="10.00">icar</text>
</a>
</g>
</g>
<!-- Node4&#45;&gt;Node5 -->
<g id="edge4" class="edge"><title>Node4&#45;&gt;Node5</title>
<path fill="none" stroke="midnightblue" d="M1252.28,-808.508C1274.49,-786.078 1307.55,-752.7 1323.59,-736.502"/>
<polygon fill="midnightblue" stroke="midnightblue" points="1249.75,-806.086 1245.2,-815.654 1254.72,-811.012 1249.75,-806.086"/>
</g>
<!-- Node7 -->
<g id="node7" class="node"><title>Node7</title>
<g id="a_node7"><a xlink:href="classinitialize__options.html#aa5c0f26f48774390be64bb2fc8243db6" target="_top" xlink:title="initialize_options\l::init_restart_options">
<polygon fill="white" stroke="black" points="441.5,-1039 441.5,-1069 546.5,-1069 546.5,-1039 441.5,-1039"/>
<text text-anchor="start" x="449.5" y="-1057" font-family="Helvetica,sans-Serif" font-size="10.00">initialize_options</text>
<text text-anchor="middle" x="494" y="-1046" font-family="Helvetica,sans-Serif" font-size="10.00">::init_restart_options</text>
</a>
</g>
</g>
<!-- Node6&#45;&gt;Node7 -->
<g id="edge6" class="edge"><title>Node6&#45;&gt;Node7</title>
<path fill="none" stroke="midnightblue" d="M412.006,-1054C421.889,-1054 431.939,-1054 441.445,-1054"/>
<polygon fill="midnightblue" stroke="midnightblue" points="411.797,-1050.5 401.797,-1054 411.797,-1057.5 411.797,-1050.5"/>
</g>
<!-- Node8 -->
<g id="node8" class="node"><title>Node8</title>
<g id="a_node8"><a xlink:href="classinitialize__options.html#a571709045f201082c9735408ef2f28e3" target="_top" xlink:title="initialize_options\l::init_options">
<polygon fill="white" stroke="black" points="602.5,-1039 602.5,-1069 691.5,-1069 691.5,-1039 602.5,-1039"/>
<text text-anchor="start" x="610.5" y="-1057" font-family="Helvetica,sans-Serif" font-size="10.00">initialize_options</text>
<text text-anchor="middle" x="647" y="-1046" font-family="Helvetica,sans-Serif" font-size="10.00">::init_options</text>
</a>
</g>
</g>
<!-- Node7&#45;&gt;Node8 -->
<g id="edge7" class="edge"><title>Node7&#45;&gt;Node8</title>
<path fill="none" stroke="midnightblue" d="M556.916,-1054C572.121,-1054 588.085,-1054 602.233,-1054"/>
<polygon fill="midnightblue" stroke="midnightblue" points="556.543,-1050.5 546.543,-1054 556.543,-1057.5 556.543,-1050.5"/>
</g>
<!-- Node9 -->
<g id="node9" class="node"><title>Node9</title>
<g id="a_node9"><a xlink:href="classinit.html#a1dd1e2b38eef39cba464f65c9ce82568" target="_top" xlink:title="init::init_model">
<polygon fill="white" stroke="black" points="898,-1019.5 898,-1038.5 978,-1038.5 978,-1019.5 898,-1019.5"/>
<text text-anchor="middle" x="938" y="-1026.5" font-family="Helvetica,sans-Serif" font-size="10.00">init::init_model</text>
</a>
</g>
</g>
<!-- Node8&#45;&gt;Node9 -->
<g id="edge8" class="edge"><title>Node8&#45;&gt;Node9</title>
<path fill="none" stroke="midnightblue" d="M701.818,-1049.34C758.701,-1044.42 847.048,-1036.78 897.713,-1032.4"/>
<polygon fill="midnightblue" stroke="midnightblue" points="701.24,-1045.88 691.579,-1050.23 701.844,-1052.86 701.24,-1045.88"/>
</g>
<!-- Node9&#45;&gt;Node5 -->
<g id="edge9" class="edge"><title>Node9&#45;&gt;Node5</title>
<path fill="none" stroke="midnightblue" d="M988.369,-1017.94C1063.58,-998.46 1206.11,-950.682 1282,-855 1312.03,-817.142 1326.42,-759.333 1331.16,-736.63"/>
<polygon fill="midnightblue" stroke="midnightblue" points="987.055,-1014.67 978.217,-1020.51 988.769,-1021.45 987.055,-1014.67"/>
</g>
<!-- Node10&#45;&gt;Node4 -->
<g id="edge30" class="edge"><title>Node10&#45;&gt;Node4</title>
<path fill="none" stroke="midnightblue" d="M255.98,-871.049C266.006,-872.537 276.268,-873.921 286,-875 511.728,-900.034 568.888,-907 796,-907 796,-907 796,-907 939,-907 1030.45,-907 1052.17,-888.46 1140,-863 1149.45,-860.262 1169.62,-852.963 1188.28,-846.027"/>
<polygon fill="midnightblue" stroke="midnightblue" points="256.475,-867.584 246.061,-869.532 255.417,-874.504 256.475,-867.584"/>
</g>
<!-- Node10&#45;&gt;Node11 -->
<g id="edge11" class="edge"><title>Node10&#45;&gt;Node11</title>
<path fill="none" stroke="midnightblue" d="M205.513,-877.61C222.296,-898.364 252.796,-932.601 286,-953 292.133,-956.768 299.1,-959.884 306.007,-962.428"/>
<polygon fill="midnightblue" stroke="midnightblue" points="208.142,-875.291 199.193,-869.62 202.652,-879.634 208.142,-875.291"/>
</g>
<!-- Node10&#45;&gt;Node12 -->
<g id="edge12" class="edge"><title>Node10&#45;&gt;Node12</title>
<path fill="none" stroke="midnightblue" d="M217.894,-874.586C236.596,-884.92 262.578,-898.868 286,-910 296.667,-915.07 308.691,-920.214 318.937,-924.433"/>
<polygon fill="midnightblue" stroke="midnightblue" points="219.527,-871.49 209.087,-869.689 216.126,-877.608 219.527,-871.49"/>
</g>
<!-- Node10&#45;&gt;Node13 -->
<g id="edge13" class="edge"><title>Node10&#45;&gt;Node13</title>
<path fill="none" stroke="midnightblue" d="M238.479,-845.62C242.767,-842.931 246.723,-839.753 250,-836 291.404,-788.574 244.743,-746.553 286,-699 291.418,-692.755 298.734,-688.096 306.315,-684.633"/>
<polygon fill="midnightblue" stroke="midnightblue" points="236.514,-842.7 229.321,-850.479 239.795,-848.884 236.514,-842.7"/>
</g>
<!-- Node10&#45;&gt;Node14 -->
<g id="edge14" class="edge"><title>Node10&#45;&gt;Node14</title>
<path fill="none" stroke="midnightblue" d="M211.9,-843.541C224.578,-832.03 240.374,-815.612 250,-798 281.225,-740.868 241.684,-703.698 286,-656 289.621,-652.103 294.062,-649.004 298.851,-646.541"/>
<polygon fill="midnightblue" stroke="midnightblue" points="209.331,-841.138 204.114,-850.36 213.943,-846.404 209.331,-841.138"/>
</g>
<!-- Node10&#45;&gt;Node15 -->
<g id="edge15" class="edge"><title>Node10&#45;&gt;Node15</title>
<path fill="none" stroke="midnightblue" d="M204.653,-841.784C217.66,-822.324 237.699,-790.188 250,-760 274.569,-699.706 241.684,-665.698 286,-618 289.621,-614.103 294.062,-611.004 298.851,-608.541"/>
<polygon fill="midnightblue" stroke="midnightblue" points="201.623,-840.016 198.898,-850.255 207.413,-843.95 201.623,-840.016"/>
</g>
<!-- Node16 -->
<g id="node16" class="node"><title>Node16</title>
<g id="a_node16"><a xlink:href="classlinear__theory__lut__disk__io.html#a941618f7357edb1ceb9ecfa66f9c8151" target="_top" xlink:title=" Check that the dimensions of a LUT file and current expected LUT match ">
<polygon fill="white" stroke="black" points="288.5,-799 288.5,-829 399.5,-829 399.5,-799 288.5,-799"/>
<text text-anchor="start" x="296.5" y="-817" font-family="Helvetica,sans-Serif" font-size="10.00">linear_theory_lut_disk</text>
<text text-anchor="middle" x="344" y="-806" font-family="Helvetica,sans-Serif" font-size="10.00">_io::dims_match</text>
</a>
</g>
</g>
<!-- Node10&#45;&gt;Node16 -->
<g id="edge16" class="edge"><title>Node10&#45;&gt;Node16</title>
<path fill="none" stroke="midnightblue" d="M232.987,-847.514C251.692,-841.816 273.999,-835.02 293.621,-829.043"/>
<polygon fill="midnightblue" stroke="midnightblue" points="231.833,-844.206 223.287,-850.469 233.873,-850.903 231.833,-844.206"/>
</g>
<!-- Node22 -->
<g id="node22" class="node"><title>Node22</title>
<g id="a_node22"><a xlink:href="classboundary__conditions.html#a1e8385c37634f3d7f70ea7c749dcda11" target="_top" xlink:title=" Read in the next timestep of input data and apply to the dXdt grids as appropriate. ">
<polygon fill="white" stroke="black" points="1176,-712 1176,-742 1282,-742 1282,-712 1176,-712"/>
<text text-anchor="start" x="1184" y="-730" font-family="Helvetica,sans-Serif" font-size="10.00">boundary_conditions</text>
<text text-anchor="middle" x="1229" y="-719" font-family="Helvetica,sans-Serif" font-size="10.00">::bc_update</text>
</a>
</g>
</g>
<!-- Node10&#45;&gt;Node22 -->
<g id="edge33" class="edge"><title>Node10&#45;&gt;Node22</title>
<path fill="none" stroke="midnightblue" d="M209.901,-843.272C221.778,-831.824 237.433,-816.049 250,-801 267.784,-779.704 262.534,-764.803 286,-750 343.967,-713.433 370.059,-733.017 438,-724 619.968,-699.849 666.58,-687.738 850,-695 979.192,-700.115 1011.24,-706.311 1140,-718 1151.62,-719.055 1164.1,-720.277 1175.9,-721.474"/>
<polygon fill="midnightblue" stroke="midnightblue" points="207.196,-841.014 202.366,-850.444 212.022,-846.084 207.196,-841.014"/>
</g>
<!-- Node24 -->
<g id="node24" class="node"><title>Node24</title>
<g id="a_node24"><a xlink:href="classboundary__conditions.html#afd8110e2b16915ce0cb12ce4958fe09c" target="_top" xlink:title=" Initialize the external winds information (filenames, nfiles, etc) and read the initial conditions ...">
<polygon fill="white" stroke="black" points="594,-848 594,-878 700,-878 700,-848 594,-848"/>
<text text-anchor="start" x="602" y="-866" font-family="Helvetica,sans-Serif" font-size="10.00">boundary_conditions</text>
<text text-anchor="middle" x="647" y="-855" font-family="Helvetica,sans-Serif" font-size="10.00">::ext_winds_init</text>
</a>
</g>
</g>
<!-- Node10&#45;&gt;Node24 -->
<g id="edge28" class="edge"><title>Node10&#45;&gt;Node24</title>
<path fill="none" stroke="midnightblue" d="M260.21,-860.451C351.586,-861.055 511.737,-862.113 593.996,-862.656"/>
<polygon fill="midnightblue" stroke="midnightblue" points="259.983,-856.949 249.961,-860.383 259.937,-863.949 259.983,-856.949"/>
</g>
<!-- Node25 -->
<g id="node25" class="node"><title>Node25</title>
<g id="a_node25"><a xlink:href="classboundary__conditions.html#a40ba01db58736c2bb018af7ebe72f55f" target="_top" xlink:title=" Update the external wind field ">
<polygon fill="white" stroke="black" points="744,-704 744,-734 850,-734 850,-704 744,-704"/>
<text text-anchor="start" x="752" y="-722" font-family="Helvetica,sans-Serif" font-size="10.00">boundary_conditions</text>
<text text-anchor="middle" x="797" y="-711" font-family="Helvetica,sans-Serif" font-size="10.00">::update_ext_winds</text>
</a>
</g>
</g>
<!-- Node10&#45;&gt;Node25 -->
<g id="edge31" class="edge"><title>Node10&#45;&gt;Node25</title>
<path fill="none" stroke="midnightblue" d="M208.608,-843.462C226.217,-827.003 255.635,-802.454 286,-790 443.562,-725.379 649.037,-717.616 743.869,-717.874"/>
<polygon fill="midnightblue" stroke="midnightblue" points="206.185,-840.936 201.387,-850.382 211.028,-845.99 206.185,-840.936"/>
</g>
<!-- Node17 -->
<g id="node17" class="node"><title>Node17</title>
<g id="a_node17"><a xlink:href="classlinear__theory__lut__disk__io.html#a7b4e839b4cee03c05190479e277bc34a" target="_top" xlink:title=" Write linear wind look up tables to disk along with the parameters for that table ...">
<polygon fill="white" stroke="black" points="438.5,-799 438.5,-829 549.5,-829 549.5,-799 438.5,-799"/>
<text text-anchor="start" x="446.5" y="-817" font-family="Helvetica,sans-Serif" font-size="10.00">linear_theory_lut_disk</text>
<text text-anchor="middle" x="494" y="-806" font-family="Helvetica,sans-Serif" font-size="10.00">_io::read_lut</text>
</a>
</g>
</g>
<!-- Node16&#45;&gt;Node17 -->
<g id="edge17" class="edge"><title>Node16&#45;&gt;Node17</title>
<path fill="none" stroke="midnightblue" d="M409.801,-814C419.22,-814 428.842,-814 438.041,-814"/>
<polygon fill="midnightblue" stroke="midnightblue" points="409.689,-810.5 399.689,-814 409.689,-817.5 409.689,-810.5"/>
</g>
<!-- Node18 -->
<g id="node18" class="node"><title>Node18</title>
<g id="a_node18"><a xlink:href="classlinear__theory__winds.html#a1c7117dad74a51614a026a50aec8b988" target="_top" xlink:title="linear_theory_winds\l::initialize_spatial_winds">
<polygon fill="white" stroke="black" points="586,-799 586,-829 708,-829 708,-799 586,-799"/>
<text text-anchor="start" x="594" y="-817" font-family="Helvetica,sans-Serif" font-size="10.00">linear_theory_winds</text>
<text text-anchor="middle" x="647" y="-806" font-family="Helvetica,sans-Serif" font-size="10.00">::initialize_spatial_winds</text>
</a>
</g>
</g>
<!-- Node17&#45;&gt;Node18 -->
<g id="edge18" class="edge"><title>Node17&#45;&gt;Node18</title>
<path fill="none" stroke="midnightblue" d="M559.642,-814C568.37,-814 577.297,-814 585.941,-814"/>
<polygon fill="midnightblue" stroke="midnightblue" points="559.514,-810.5 549.514,-814 559.514,-817.5 559.514,-810.5"/>
</g>
<!-- Node19 -->
<g id="node19" class="node"><title>Node19</title>
<g id="a_node19"><a xlink:href="classlinear__theory__winds.html#a5aed1fad471120ba77c203fa6158a5ba" target="_top" xlink:title="linear_theory_winds\l::setup_linwinds">
<polygon fill="white" stroke="black" points="745.5,-799 745.5,-829 848.5,-829 848.5,-799 745.5,-799"/>
<text text-anchor="start" x="753.5" y="-817" font-family="Helvetica,sans-Serif" font-size="10.00">linear_theory_winds</text>
<text text-anchor="middle" x="797" y="-806" font-family="Helvetica,sans-Serif" font-size="10.00">::setup_linwinds</text>
</a>
</g>
</g>
<!-- Node18&#45;&gt;Node19 -->
<g id="edge19" class="edge"><title>Node18&#45;&gt;Node19</title>
<path fill="none" stroke="midnightblue" d="M718.397,-814C727.484,-814 736.643,-814 745.326,-814"/>
<polygon fill="midnightblue" stroke="midnightblue" points="718.197,-810.5 708.197,-814 718.197,-817.5 718.197,-810.5"/>
</g>
<!-- Node20 -->
<g id="node20" class="node"><title>Node20</title>
<g id="a_node20"><a xlink:href="classlinear__theory__winds.html#a248a832d459ec9cd399c372d2ae9cb0a" target="_top" xlink:title="linear_theory_winds\l::linear_perturb">
<polygon fill="white" stroke="black" points="886.5,-772 886.5,-802 989.5,-802 989.5,-772 886.5,-772"/>
<text text-anchor="start" x="894.5" y="-790" font-family="Helvetica,sans-Serif" font-size="10.00">linear_theory_winds</text>
<text text-anchor="middle" x="938" y="-779" font-family="Helvetica,sans-Serif" font-size="10.00">::linear_perturb</text>
</a>
</g>
</g>
<!-- Node19&#45;&gt;Node20 -->
<g id="edge20" class="edge"><title>Node19&#45;&gt;Node20</title>
<path fill="none" stroke="midnightblue" d="M858.497,-802.249C867.748,-800.452 877.216,-798.613 886.229,-796.862"/>
<polygon fill="midnightblue" stroke="midnightblue" points="857.725,-798.833 848.575,-804.176 859.059,-805.705 857.725,-798.833"/>
</g>
<!-- Node21 -->
<g id="node21" class="node"><title>Node21</title>
<g id="a_node21"><a xlink:href="classboundary__conditions.html#ac4cfb5127bfecdc6e088ef949694ea4a" target="_top" xlink:title=" Remove linear theory topographic winds perturbations from the low resolution wind field...">
<polygon fill="white" stroke="black" points="1026,-734 1026,-764 1140,-764 1140,-734 1026,-734"/>
<text text-anchor="start" x="1034" y="-752" font-family="Helvetica,sans-Serif" font-size="10.00">boundary_conditions</text>
<text text-anchor="middle" x="1083" y="-741" font-family="Helvetica,sans-Serif" font-size="10.00">::remove_linear_winds</text>
</a>
</g>
</g>
<!-- Node20&#45;&gt;Node21 -->
<g id="edge21" class="edge"><title>Node20&#45;&gt;Node21</title>
<path fill="none" stroke="midnightblue" d="M999.587,-770.9C1008.35,-768.572 1017.33,-766.184 1026,-763.881"/>
<polygon fill="midnightblue" stroke="midnightblue" points="998.585,-767.545 989.819,-773.496 1000.38,-774.31 998.585,-767.545"/>
</g>
<!-- Node23 -->
<g id="node23" class="node"><title>Node23</title>
<g id="a_node23"><a xlink:href="classwind.html#a582192f02996b37543b966df84af1e78" target="_top" xlink:title="wind::update_winds">
<polygon fill="white" stroke="black" points="1031.5,-783.5 1031.5,-802.5 1134.5,-802.5 1134.5,-783.5 1031.5,-783.5"/>
<text text-anchor="middle" x="1083" y="-790.5" font-family="Helvetica,sans-Serif" font-size="10.00">wind::update_winds</text>
</a>
</g>
</g>
<!-- Node20&#45;&gt;Node23 -->
<g id="edge25" class="edge"><title>Node20&#45;&gt;Node23</title>
<path fill="none" stroke="midnightblue" d="M1000.1,-789.564C1010.52,-790.001 1021.24,-790.45 1031.34,-790.875"/>
<polygon fill="midnightblue" stroke="midnightblue" points="999.957,-786.055 989.819,-789.132 999.664,-793.048 999.957,-786.055"/>
</g>
<!-- Node21&#45;&gt;Node4 -->
<g id="edge22" class="edge"><title>Node21&#45;&gt;Node4</title>
<path fill="none" stroke="midnightblue" d="M1129.17,-768.431C1132.87,-770.243 1136.52,-772.111 1140,-774 1163.68,-786.852 1189.39,-803.895 1206.87,-815.988"/>
<polygon fill="midnightblue" stroke="midnightblue" points="1130.49,-765.18 1119.95,-764.057 1127.49,-771.505 1130.49,-765.18"/>
</g>
<!-- Node21&#45;&gt;Node22 -->
<g id="edge23" class="edge"><title>Node21&#45;&gt;Node22</title>
<path fill="none" stroke="midnightblue" d="M1150.06,-738.908C1158.62,-737.599 1167.3,-736.274 1175.6,-735.006"/>
<polygon fill="midnightblue" stroke="midnightblue" points="1149.44,-735.461 1140.09,-740.431 1150.5,-742.381 1149.44,-735.461"/>
</g>
<!-- Node22&#45;&gt;Node5 -->
<g id="edge24" class="edge"><title>Node22&#45;&gt;Node5</title>
<path fill="none" stroke="midnightblue" d="M1292.37,-727C1301.71,-727 1310.54,-727 1317.58,-727"/>
<polygon fill="midnightblue" stroke="midnightblue" points="1292.1,-723.5 1282.1,-727 1292.1,-730.5 1292.1,-723.5"/>
</g>
<!-- Node23&#45;&gt;Node4 -->
<g id="edge26" class="edge"><title>Node23&#45;&gt;Node4</title>
<path fill="none" stroke="midnightblue" d="M1130.14,-805.175C1144.72,-809.023 1160.93,-813.301 1175.9,-817.251"/>
<polygon fill="midnightblue" stroke="midnightblue" points="1130.9,-801.756 1120.34,-802.589 1129.11,-808.525 1130.9,-801.756"/>
</g>
<!-- Node23&#45;&gt;Node22 -->
<g id="edge27" class="edge"><title>Node23&#45;&gt;Node22</title>
<path fill="none" stroke="midnightblue" d="M1122.74,-779.955C1128.58,-777.762 1134.49,-775.412 1140,-773 1161.16,-763.742 1184.28,-751.573 1201.51,-742.076"/>
<polygon fill="midnightblue" stroke="midnightblue" points="1121.27,-776.765 1113.08,-783.477 1123.67,-783.343 1121.27,-776.765"/>
</g>
<!-- Node24&#45;&gt;Node4 -->
<g id="edge29" class="edge"><title>Node24&#45;&gt;Node4</title>
<path fill="none" stroke="midnightblue" d="M710.347,-863.135C803.899,-862.791 986.051,-860.006 1140,-845 1151.55,-843.874 1163.88,-842.207 1175.55,-840.411"/>
<polygon fill="midnightblue" stroke="midnightblue" points="710.196,-859.635 700.206,-863.164 710.216,-866.635 710.196,-859.635"/>
</g>
<!-- Node25&#45;&gt;Node22 -->
<g id="edge32" class="edge"><title>Node25&#45;&gt;Node22</title>
<path fill="none" stroke="midnightblue" d="M860.343,-719.997C928.897,-721.116 1042.3,-723.033 1140,-725 1151.61,-725.234 1164.08,-725.505 1175.88,-725.771"/>
<polygon fill="midnightblue" stroke="midnightblue" points="860.204,-716.494 850.148,-719.831 860.09,-723.493 860.204,-716.494"/>
</g>
<!-- Node38&#45;&gt;Node36 -->
<g id="edge52" class="edge"><title>Node38&#45;&gt;Node36</title>
<path fill="none" stroke="midnightblue" d="M248.268,-186.259C264.194,-191.427 281.344,-196.992 296.617,-201.948"/>
<polygon fill="midnightblue" stroke="midnightblue" points="249.129,-182.859 238.537,-183.101 246.968,-189.517 249.129,-182.859"/>
</g>
<!-- Node38&#45;&gt;Node37 -->
<g id="edge53" class="edge"><title>Node38&#45;&gt;Node37</title>
<path fill="none" stroke="midnightblue" d="M256.542,-168C267.124,-168 277.999,-168 288.312,-168"/>
<polygon fill="midnightblue" stroke="midnightblue" points="256.515,-164.5 246.514,-168 256.514,-171.5 256.515,-164.5"/>
</g>
<!-- Node39&#45;&gt;Node36 -->
<g id="edge55" class="edge"><title>Node39&#45;&gt;Node36</title>
<path fill="none" stroke="midnightblue" d="M256.542,-217C267.124,-217 277.999,-217 288.312,-217"/>
<polygon fill="midnightblue" stroke="midnightblue" points="256.515,-213.5 246.514,-217 256.514,-220.5 256.515,-213.5"/>
</g>
<!-- Node39&#45;&gt;Node37 -->
<g id="edge56" class="edge"><title>Node39&#45;&gt;Node37</title>
<path fill="none" stroke="midnightblue" d="M248.268,-198.741C264.194,-193.573 281.344,-188.008 296.617,-183.052"/>
<polygon fill="midnightblue" stroke="midnightblue" points="246.968,-195.483 238.537,-201.899 249.129,-202.141 246.968,-195.483"/>
</g>
<!-- Node40&#45;&gt;Node41 -->
<g id="edge58" class="edge"><title>Node40&#45;&gt;Node41</title>
<path fill="none" stroke="midnightblue" d="M248.751,-93.1408C262.37,-94.8545 276.859,-96.6776 290.286,-98.3671"/>
<polygon fill="midnightblue" stroke="midnightblue" points="248.896,-89.6316 238.537,-91.8557 248.022,-96.5768 248.896,-89.6316"/>
</g>
<!-- Node41&#45;&gt;Node4 -->
<g id="edge59" class="edge"><title>Node41&#45;&gt;Node4</title>
<path fill="none" stroke="midnightblue" d="M374.002,-119.685C383.906,-125.816 394.39,-133.696 402,-143 428.753,-175.71 419.107,-193.201 438,-231 556.522,-468.129 545.525,-567.258 744,-743 782.583,-777.164 804.117,-766.536 850,-790 866.492,-798.434 868.267,-805.646 886,-811 985.214,-840.957 1107.81,-839.399 1176,-835.349"/>
<polygon fill="midnightblue" stroke="midnightblue" points="375.574,-116.551 365.169,-114.556 372.059,-122.604 375.574,-116.551"/>
</g>
<!-- Node41&#45;&gt;Node5 -->
<g id="edge60" class="edge"><title>Node41&#45;&gt;Node5</title>
<path fill="none" stroke="midnightblue" d="M384.697,-117.434C441.854,-134.205 550.922,-162 646,-162 646,-162 646,-162 1084,-162 1336.98,-162 1335.14,-642.167 1333.31,-717.193"/>
<polygon fill="midnightblue" stroke="midnightblue" points="385.561,-114.039 374.978,-114.541 383.564,-120.748 385.561,-114.039"/>
</g>
<!-- Node42 -->
<g id="node42" class="node"><title>Node42</title>
<g id="a_node42"><a xlink:href="classtime__step.html#a2c022f11247af72e607b1493289aa974" target="_top" xlink:title=" Step forward one IO time step. ">
<polygon fill="white" stroke="black" points="896,-496.5 896,-515.5 980,-515.5 980,-496.5 896,-496.5"/>
<text text-anchor="middle" x="938" y="-503.5" font-family="Helvetica,sans-Serif" font-size="10.00">time_step::step</text>
</a>
</g>
</g>
<!-- Node41&#45;&gt;Node42 -->
<g id="edge61" class="edge"><title>Node41&#45;&gt;Node42</title>
<path fill="none" stroke="midnightblue" d="M369.475,-120.136C379.771,-126.802 391.721,-134.94 402,-143 419.08,-156.393 420.895,-162.639 438,-176 617.664,-316.339 856.083,-458.625 920.418,-496.346"/>
<polygon fill="midnightblue" stroke="midnightblue" points="371.251,-117.117 360.936,-114.696 367.489,-123.021 371.251,-117.117"/>
</g>
<!-- Node42&#45;&gt;Node5 -->
<g id="edge62" class="edge"><title>Node42&#45;&gt;Node5</title>
<path fill="none" stroke="midnightblue" d="M965.084,-520.631C1040.72,-563.054 1258.5,-685.214 1317.89,-718.524"/>
<polygon fill="midnightblue" stroke="midnightblue" points="966.617,-517.478 956.183,-515.638 963.192,-523.583 966.617,-517.478"/>
</g>
<!-- Node43&#45;&gt;Node41 -->
<g id="edge64" class="edge"><title>Node43&#45;&gt;Node41</title>
<path fill="none" stroke="midnightblue" d="M228.853,-23.5558C236.03,-26.6641 243.377,-30.1884 250,-34 282.219,-52.5414 315.898,-80.8555 332.486,-95.4957"/>
<polygon fill="midnightblue" stroke="midnightblue" points="229.834,-20.1741 219.255,-19.587 227.159,-26.6428 229.834,-20.1741"/>
</g>
</g>
</svg>
