<?xml version="1.0" encoding="UTF-8" standalone="no"?>
<!DOCTYPE svg PUBLIC "-//W3C//DTD SVG 1.1//EN"
 "http://www.w3.org/Graphics/SVG/1.1/DTD/svg11.dtd">
<!-- Generated by graphviz version 2.38.0 (20140413.2041)
 -->
<!-- Title: time::calendar_date Pages: 1 -->
<svg width="1316pt" height="161pt"
 viewBox="0.00 0.00 1316.00 161.00" xmlns="http://www.w3.org/2000/svg" xmlns:xlink="http://www.w3.org/1999/xlink">
<g id="graph0" class="graph" transform="scale(1 1) rotate(0) translate(4 157)">
<title>time::calendar_date</title>
<polygon fill="white" stroke="none" points="-4,4 -4,-157 1312,-157 1312,4 -4,4"/>
<!-- Node1 -->
<g id="node1" class="node"><title>Node1</title>
<polygon fill="#bfbfbf" stroke="black" points="0,-81.5 0,-100.5 102,-100.5 102,-81.5 0,-81.5"/>
<text text-anchor="middle" x="51" y="-88.5" font-family="Helvetica,sans-Serif" font-size="10.00">time::calendar_date</text>
</g>
<!-- Node2 -->
<g id="node2" class="node"><title>Node2</title>
<g id="a_node2"><a xlink:href="classoutput.html#a96fb2c72004c645360fa3e6f2b551b50" target="_top" xlink:title=" Simple routine to write all domain data from this current time step to the output file...">
<polygon fill="white" stroke="black" points="991,-78.5 991,-97.5 1098,-97.5 1098,-78.5 991,-78.5"/>
<text text-anchor="middle" x="1044.5" y="-85.5" font-family="Helvetica,sans-Serif" font-size="10.00">output::write_domain</text>
</a>
</g>
</g>
<!-- Node1&#45;&gt;Node2 -->
<g id="edge1" class="edge"><title>Node1&#45;&gt;Node2</title>
<path fill="none" stroke="midnightblue" d="M112.276,-91C172.567,-91 267.954,-91 350.5,-91 350.5,-91 350.5,-91 758,-91 839.293,-91 933.598,-89.7688 990.882,-88.8839"/>
<polygon fill="midnightblue" stroke="midnightblue" points="112.174,-87.5001 102.174,-91 112.174,-94.5001 112.174,-87.5001"/>
</g>
<!-- Node4 -->
<g id="node4" class="node"><title>Node4</title>
<g id="a_node4"><a xlink:href="driver_8f90.html#ab1e5a5816a57fc6e95d9563c2bb53590" target="_top" xlink:title=" Main Program ">
<polygon fill="white" stroke="black" points="1276,-83.5 1276,-102.5 1308,-102.5 1308,-83.5 1276,-83.5"/>
<text text-anchor="middle" x="1292" y="-90.5" font-family="Helvetica,sans-Serif" font-size="10.00">icar</text>
</a>
</g>
</g>
<!-- Node1&#45;&gt;Node4 -->
<g id="edge7" class="edge"><title>Node1&#45;&gt;Node4</title>
<path fill="none" stroke="midnightblue" d="M88.9768,-103.78C144.881,-121.931 254.582,-153 350.5,-153 350.5,-153 350.5,-153 1045.5,-153 1135.01,-153 1237.76,-114.899 1275.81,-99.4211"/>
<polygon fill="midnightblue" stroke="midnightblue" points="89.7728,-100.357 79.1797,-100.552 87.5819,-107.006 89.7728,-100.357"/>
</g>
<!-- Node6 -->
<g id="node6" class="node"><title>Node6</title>
<g id="a_node6"><a xlink:href="classtime.html#adfcbe10943e169e25a9ee15ddb3ce70b" target="_top" xlink:title="time::calc_day_of_year">
<polygon fill="white" stroke="black" points="138,-40.5 138,-59.5 256,-59.5 256,-40.5 138,-40.5"/>
<text text-anchor="middle" x="197" y="-47.5" font-family="Helvetica,sans-Serif" font-size="10.00">time::calc_day_of_year</text>
</a>
</g>
</g>
<!-- Node1&#45;&gt;Node6 -->
<g id="edge8" class="edge"><title>Node1&#45;&gt;Node6</title>
<path fill="none" stroke="midnightblue" d="M95.2923,-78.6737C116.848,-72.5363 142.51,-65.2299 162.534,-59.5286"/>
<polygon fill="midnightblue" stroke="midnightblue" points="94.0577,-75.386 85.3984,-81.4907 95.9747,-82.1185 94.0577,-75.386"/>
</g>
<!-- Node3 -->
<g id="node3" class="node"><title>Node3</title>
<g id="a_node3"><a xlink:href="classboundary__conditions.html#a07a42f467f470ada98e0a35fd5a75f66" target="_top" xlink:title=" Initialize the boundary conditions (read inital conditions, etc.) ">
<polygon fill="white" stroke="black" points="1134,-56 1134,-86 1240,-86 1240,-56 1134,-56"/>
<text text-anchor="start" x="1142" y="-74" font-family="Helvetica,sans-Serif" font-size="10.00">boundary_conditions</text>
<text text-anchor="middle" x="1187" y="-63" font-family="Helvetica,sans-Serif" font-size="10.00">::bc_init</text>
</a>
</g>
</g>
<!-- Node2&#45;&gt;Node3 -->
<g id="edge2" class="edge"><title>Node2&#45;&gt;Node3</title>
<path fill="none" stroke="midnightblue" d="M1108.2,-80.413C1116.8,-79.3731 1125.55,-78.3148 1133.92,-77.3013"/>
<polygon fill="midnightblue" stroke="midnightblue" points="1107.72,-76.9455 1098.22,-81.6215 1108.56,-83.8948 1107.72,-76.9455"/>
</g>
<!-- Node2&#45;&gt;Node4 -->
<g id="edge4" class="edge"><title>Node2&#45;&gt;Node4</title>
<path fill="none" stroke="midnightblue" d="M1108.36,-93.5867C1116.97,-94.1721 1125.7,-94.6722 1134,-95 1181.07,-96.8588 1192.9,-95.9232 1240,-95 1252.05,-94.7638 1265.69,-94.2142 1275.83,-93.7507"/>
<polygon fill="midnightblue" stroke="midnightblue" points="1108.57,-90.0926 1098.34,-92.8656 1108.06,-97.0746 1108.57,-90.0926"/>
</g>
<!-- Node5 -->
<g id="node5" class="node"><title>Node5</title>
<g id="a_node5"><a xlink:href="classtime__step.html#a2c022f11247af72e607b1493289aa974" target="_top" xlink:title=" Step forward one IO time step. ">
<polygon fill="white" stroke="black" points="1145,-17.5 1145,-36.5 1229,-36.5 1229,-17.5 1145,-17.5"/>
<text text-anchor="middle" x="1187" y="-24.5" font-family="Helvetica,sans-Serif" font-size="10.00">time_step::step</text>
</a>
</g>
</g>
<!-- Node2&#45;&gt;Node5 -->
<g id="edge5" class="edge"><title>Node2&#45;&gt;Node5</title>
<path fill="none" stroke="midnightblue" d="M1073.25,-74.0167C1090.54,-65.5076 1113.35,-54.6494 1134,-46 1141.8,-42.7319 1150.38,-39.4655 1158.29,-36.5858"/>
<polygon fill="midnightblue" stroke="midnightblue" points="1071.67,-70.8958 1064.26,-78.4733 1074.77,-77.1675 1071.67,-70.8958"/>
</g>
<!-- Node3&#45;&gt;Node4 -->
<g id="edge3" class="edge"><title>Node3&#45;&gt;Node4</title>
<path fill="none" stroke="midnightblue" d="M1250.07,-84.2579C1259.52,-86.2756 1268.47,-88.1874 1275.58,-89.7056"/>
<polygon fill="midnightblue" stroke="midnightblue" points="1250.61,-80.795 1240.1,-82.1289 1249.15,-87.6406 1250.61,-80.795"/>
</g>
<!-- Node5&#45;&gt;Node4 -->
<g id="edge6" class="edge"><title>Node5&#45;&gt;Node4</title>
<path fill="none" stroke="midnightblue" d="M1229.76,-40.5661C1233.31,-42.2224 1236.77,-44.0332 1240,-46 1256.86,-56.2785 1273.05,-72.6765 1282.51,-83.1351"/>
<polygon fill="midnightblue" stroke="midnightblue" points="1230.84,-37.2217 1220.27,-36.5414 1228.11,-43.6666 1230.84,-37.2217"/>
</g>
<!-- Node7 -->
<g id="node7" class="node"><title>Node7</title>
<g id="a_node7"><a xlink:href="classmodule__ra__simple.html#a4529da23ec7082aeafd82ffcad0e6e43" target="_top" xlink:title="module_ra_simple::calc\l_solar_elevation">
<polygon fill="white" stroke="black" points="292,-32 292,-62 411,-62 411,-32 292,-32"/>
<text text-anchor="start" x="300" y="-50" font-family="Helvetica,sans-Serif" font-size="10.00">module_ra_simple::calc</text>
<text text-anchor="middle" x="351.5" y="-39" font-family="Helvetica,sans-Serif" font-size="10.00">_solar_elevation</text>
</a>
</g>
</g>
<!-- Node6&#45;&gt;Node7 -->
<g id="edge9" class="edge"><title>Node6&#45;&gt;Node7</title>
<path fill="none" stroke="midnightblue" d="M266.358,-48.6553C274.854,-48.4881 283.482,-48.3184 291.815,-48.1545"/>
<polygon fill="midnightblue" stroke="midnightblue" points="266.018,-45.1612 256.089,-48.8573 266.156,-52.1598 266.018,-45.1612"/>
</g>
<!-- Node8 -->
<g id="node8" class="node"><title>Node8</title>
<g id="a_node8"><a xlink:href="classmodule__ra__simple.html#ad1c74605b2817f833d31e806f791e246" target="_top" xlink:title="module_ra_simple::ra\l_simple">
<polygon fill="white" stroke="black" points="447,-32 447,-62 557,-62 557,-32 447,-32"/>
<text text-anchor="start" x="455" y="-50" font-family="Helvetica,sans-Serif" font-size="10.00">module_ra_simple::ra</text>
<text text-anchor="middle" x="502" y="-39" font-family="Helvetica,sans-Serif" font-size="10.00">_simple</text>
</a>
</g>
</g>
<!-- Node7&#45;&gt;Node8 -->
<g id="edge10" class="edge"><title>Node7&#45;&gt;Node8</title>
<path fill="none" stroke="midnightblue" d="M421.42,-47C429.868,-47 438.408,-47 446.6,-47"/>
<polygon fill="midnightblue" stroke="midnightblue" points="421.191,-43.5001 411.191,-47 421.191,-50.5001 421.191,-43.5001"/>
</g>
<!-- Node9 -->
<g id="node9" class="node"><title>Node9</title>
<g id="a_node9"><a xlink:href="classradiation.html#aba1a06d27af96fe11d576458c8ccfe77" target="_top" xlink:title="radiation::rad">
<polygon fill="white" stroke="black" points="593,-37.5 593,-56.5 666,-56.5 666,-37.5 593,-37.5"/>
<text text-anchor="middle" x="629.5" y="-44.5" font-family="Helvetica,sans-Serif" font-size="10.00">radiation::rad</text>
</a>
</g>
</g>
<!-- Node8&#45;&gt;Node9 -->
<g id="edge11" class="edge"><title>Node8&#45;&gt;Node9</title>
<path fill="none" stroke="midnightblue" d="M567.549,-47C576.282,-47 584.969,-47 592.931,-47"/>
<polygon fill="midnightblue" stroke="midnightblue" points="567.316,-43.5001 557.316,-47 567.316,-50.5001 567.316,-43.5001"/>
</g>
<!-- Node9&#45;&gt;Node5 -->
<g id="edge12" class="edge"><title>Node9&#45;&gt;Node5</title>
<path fill="none" stroke="midnightblue" d="M676.149,-45.3565C782.088,-41.5423 1043.32,-32.137 1144.78,-28.4842"/>
<polygon fill="midnightblue" stroke="midnightblue" points="675.962,-41.8609 666.094,-45.7185 676.214,-48.8563 675.962,-41.8609"/>
</g>
<!-- Node10 -->
<g id="node10" class="node"><title>Node10</title>
<g id="a_node10"><a xlink:href="classmodule__cu__kf.html#afbc0670c02010c630409b1796e89a3fb" target="_top" xlink:title="module_cu_kf::kfpara">
<polygon fill="white" stroke="black" points="702,-0.5 702,-19.5 812,-19.5 812,-0.5 702,-0.5"/>
<text text-anchor="middle" x="757" y="-7.5" font-family="Helvetica,sans-Serif" font-size="10.00">module_cu_kf::kfpara</text>
</a>
</g>
</g>
<!-- Node9&#45;&gt;Node10 -->
<g id="edge13" class="edge"><title>Node9&#45;&gt;Node10</title>
<path fill="none" stroke="midnightblue" d="M672.775,-34.5363C689.282,-29.6698 707.912,-24.1774 723.354,-19.6247"/>
<polygon fill="midnightblue" stroke="midnightblue" points="671.421,-31.2865 662.819,-37.4716 673.401,-38.0008 671.421,-31.2865"/>
</g>
<!-- Node11 -->
<g id="node11" class="node"><title>Node11</title>
<g id="a_node11"><a xlink:href="classmodule__cu__kf.html#a273d9ce9bce064bfc092d6940bea4e27" target="_top" xlink:title="module_cu_kf::kfcps">
<polygon fill="white" stroke="black" points="848,-0.5 848,-19.5 955,-19.5 955,-0.5 848,-0.5"/>
<text text-anchor="middle" x="901.5" y="-7.5" font-family="Helvetica,sans-Serif" font-size="10.00">module_cu_kf::kfcps</text>
</a>
</g>
</g>
<!-- Node10&#45;&gt;Node11 -->
<g id="edge14" class="edge"><title>Node10&#45;&gt;Node11</title>
<path fill="none" stroke="midnightblue" d="M822.503,-10C830.962,-10 839.55,-10 847.783,-10"/>
<polygon fill="midnightblue" stroke="midnightblue" points="822.28,-6.5001 812.28,-10 822.28,-13.5001 822.28,-6.5001"/>
</g>
<!-- Node12 -->
<g id="node12" class="node"><title>Node12</title>
<g id="a_node12"><a xlink:href="classconvection.html#a06b811540eb747b3734e7fb35de41782" target="_top" xlink:title="convection::convect">
<polygon fill="white" stroke="black" points="992.5,-0.5 992.5,-19.5 1096.5,-19.5 1096.5,-0.5 992.5,-0.5"/>
<text text-anchor="middle" x="1044.5" y="-7.5" font-family="Helvetica,sans-Serif" font-size="10.00">convection::convect</text>
</a>
</g>
</g>
<!-- Node11&#45;&gt;Node12 -->
<g id="edge15" class="edge"><title>Node11&#45;&gt;Node12</title>
<path fill="none" stroke="midnightblue" d="M965.163,-10C974.258,-10 983.528,-10 992.359,-10"/>
<polygon fill="midnightblue" stroke="midnightblue" points="965.003,-6.5001 955.003,-10 965.003,-13.5001 965.003,-6.5001"/>
</g>
<!-- Node12&#45;&gt;Node5 -->
<g id="edge16" class="edge"><title>Node12&#45;&gt;Node5</title>
<path fill="none" stroke="midnightblue" d="M1106.8,-17.4177C1119.65,-18.9723 1132.91,-20.576 1144.81,-22.0163"/>
<polygon fill="midnightblue" stroke="midnightblue" points="1106.97,-13.9121 1096.62,-16.1855 1106.13,-20.8614 1106.97,-13.9121"/>
</g>
</g>
</svg>
