<?xml version="1.0" encoding="UTF-8" standalone="no"?>
<!DOCTYPE svg PUBLIC "-//W3C//DTD SVG 1.1//EN"
 "http://www.w3.org/Graphics/SVG/1.1/DTD/svg11.dtd">
<!-- Generated by graphviz version 2.32.0 (20130809.1645)
 -->
<!-- Title: init::copy_z Pages: 1 -->
<svg width="482pt" height="66pt"
 viewBox="0.00 0.00 482.00 66.00" xmlns="http://www.w3.org/2000/svg" xmlns:xlink="http://www.w3.org/1999/xlink">
<g id="graph0" class="graph" transform="scale(1 1) rotate(0) translate(4 62)">
<title>init::copy_z</title>
<polygon fill="white" stroke="white" points="-4,5 -4,-62 479,-62 479,5 -4,5"/>
<!-- Node1 -->
<g id="node1" class="node"><title>Node1</title>
<polygon fill="#bfbfbf" stroke="black" points="0.5,-19.5 0.5,-38.5 67.5,-38.5 67.5,-19.5 0.5,-19.5"/>
<text text-anchor="middle" x="34" y="-26.5" font-family="Helvetica,sans-Serif" font-size="10.00">init::copy_z</text>
</g>
<!-- Node2 -->
<g id="node2" class="node"><title>Node2</title>
<g id="a_node2"><a xlink:href="classinit.html#a2c0d47bd2656d1121f0522d0f77a0e07" target="_top" xlink:title="init::init_domain">
<polygon fill="white" stroke="black" points="104.5,-38.5 104.5,-57.5 189.5,-57.5 189.5,-38.5 104.5,-38.5"/>
<text text-anchor="middle" x="147" y="-45.5" font-family="Helvetica,sans-Serif" font-size="10.00">init::init_domain</text>
</a>
</g>
</g>
<!-- Node1&#45;&gt;Node2 -->
<g id="edge1" class="edge"><title>Node1&#45;&gt;Node2</title>
<path fill="none" stroke="midnightblue" d="M77.735,-36.315C86.5045,-37.8161 95.7236,-39.3941 104.451,-40.8879"/>
<polygon fill="midnightblue" stroke="midnightblue" points="78.1505,-32.8353 67.7033,-34.5979 76.9694,-39.7349 78.1505,-32.8353"/>
</g>
<!-- Node5 -->
<g id="node5" class="node"><title>Node5</title>
<g id="a_node5"><a xlink:href="classinit.html#a1c6cab46bb16bea719da3b193c43ccb3" target="_top" xlink:title="init::init_bc">
<polygon fill="white" stroke="black" points="226,-0.5 226,-19.5 290,-19.5 290,-0.5 226,-0.5"/>
<text text-anchor="middle" x="258" y="-7.5" font-family="Helvetica,sans-Serif" font-size="10.00">init::init_bc</text>
</a>
</g>
</g>
<!-- Node1&#45;&gt;Node5 -->
<g id="edge6" class="edge"><title>Node1&#45;&gt;Node5</title>
<path fill="none" stroke="midnightblue" d="M77.7271,-25.3432C121.114,-21.6299 187.255,-15.9692 225.902,-12.6616"/>
<polygon fill="midnightblue" stroke="midnightblue" points="77.4219,-21.8564 67.7569,-26.1965 78.0189,-28.8309 77.4219,-21.8564"/>
</g>
<!-- Node3 -->
<g id="node3" class="node"><title>Node3</title>
<g id="a_node3"><a xlink:href="classinit.html#a1dd1e2b38eef39cba464f65c9ce82568" target="_top" xlink:title="init::init_model">
<polygon fill="white" stroke="black" points="326,-19.5 326,-38.5 406,-38.5 406,-19.5 326,-19.5"/>
<text text-anchor="middle" x="366" y="-26.5" font-family="Helvetica,sans-Serif" font-size="10.00">init::init_model</text>
</a>
</g>
</g>
<!-- Node2&#45;&gt;Node3 -->
<g id="edge2" class="edge"><title>Node2&#45;&gt;Node3</title>
<path fill="none" stroke="midnightblue" d="M199.61,-43.4812C238.293,-40.0941 290.431,-35.5291 325.75,-32.4367"/>
<polygon fill="midnightblue" stroke="midnightblue" points="199.24,-40.0001 189.583,-44.3591 199.85,-46.9734 199.24,-40.0001"/>
</g>
<!-- Node2&#45;&gt;Node5 -->
<g id="edge4" class="edge"><title>Node2&#45;&gt;Node5</title>
<path fill="none" stroke="midnightblue" d="M185.209,-35.0282C199.73,-29.9656 216.079,-24.2659 229.503,-19.5859"/>
<polygon fill="midnightblue" stroke="midnightblue" points="183.796,-31.8141 175.505,-38.411 186.1,-38.4239 183.796,-31.8141"/>
</g>
<!-- Node4 -->
<g id="node4" class="node"><title>Node4</title>
<g id="a_node4"><a xlink:href="driver_8f90.html#ab1e5a5816a57fc6e95d9563c2bb53590" target="_top" xlink:title=" Main Program ">
<polygon fill="white" stroke="black" points="442,-19.5 442,-38.5 474,-38.5 474,-19.5 442,-19.5"/>
<text text-anchor="middle" x="458" y="-26.5" font-family="Helvetica,sans-Serif" font-size="10.00">icar</text>
</a>
</g>
</g>
<!-- Node3&#45;&gt;Node4 -->
<g id="edge3" class="edge"><title>Node3&#45;&gt;Node4</title>
<path fill="none" stroke="midnightblue" d="M416.233,-29C425.449,-29 434.425,-29 441.599,-29"/>
<polygon fill="midnightblue" stroke="midnightblue" points="416.214,-25.5001 406.213,-29 416.213,-32.5001 416.214,-25.5001"/>
</g>
<!-- Node5&#45;&gt;Node3 -->
<g id="edge5" class="edge"><title>Node5&#45;&gt;Node3</title>
<path fill="none" stroke="midnightblue" d="M300.196,-17.3841C308.584,-18.8877 317.388,-20.4658 325.708,-21.9572"/>
<polygon fill="midnightblue" stroke="midnightblue" points="300.691,-13.9172 290.23,-15.5979 299.456,-20.8074 300.691,-13.9172"/>
</g>
</g>
</svg>
