<?xml version="1.0" encoding="UTF-8" standalone="no"?>
<!DOCTYPE svg PUBLIC "-//W3C//DTD SVG 1.1//EN"
 "http://www.w3.org/Graphics/SVG/1.1/DTD/svg11.dtd">
<!-- Generated by graphviz version 2.32.0 (20130809.1645)
 -->
<!-- Title: boundary_conditions::mean_winds Pages: 1 -->
<svg width="252pt" height="38pt"
 viewBox="0.00 0.00 252.00 38.00" xmlns="http://www.w3.org/2000/svg" xmlns:xlink="http://www.w3.org/1999/xlink">
<g id="graph0" class="graph" transform="scale(1 1) rotate(0) translate(4 34)">
<title>boundary_conditions::mean_winds</title>
<polygon fill="white" stroke="white" points="-4,5 -4,-34 249,-34 249,5 -4,5"/>
<!-- Node1 -->
<g id="node1" class="node"><title>Node1</title>
<polygon fill="#bfbfbf" stroke="black" points="0,-0 0,-30 106,-30 106,-0 0,-0"/>
<text text-anchor="start" x="8" y="-18" font-family="Helvetica,sans-Serif" font-size="10.00">boundary_conditions</text>
<text text-anchor="middle" x="53" y="-7" font-family="Helvetica,sans-Serif" font-size="10.00">::mean_winds</text>
</g>
<!-- Node2 -->
<g id="node2" class="node"><title>Node2</title>
<g id="a_node2"><a xlink:href="interfaceio__routines_1_1io__read.html#a9b6dacfccbb234dd949e7136e5b67f8c" target="_top" xlink:title=" Same as io_read6d but for 3&#45;dimensional data ">
<polygon fill="white" stroke="black" points="142.5,-0 142.5,-30 243.5,-30 243.5,-0 142.5,-0"/>
<text text-anchor="start" x="150.5" y="-18" font-family="Helvetica,sans-Serif" font-size="10.00">io_routines::io_read</text>
<text text-anchor="middle" x="193" y="-7" font-family="Helvetica,sans-Serif" font-size="10.00">::io_read3d</text>
</a>
</g>
</g>
<!-- Node1&#45;&gt;Node2 -->
<g id="edge1" class="edge"><title>Node1&#45;&gt;Node2</title>
<path fill="none" stroke="midnightblue" d="M106.172,-15C114.73,-15 123.656,-15 132.378,-15"/>
<polygon fill="midnightblue" stroke="midnightblue" points="132.49,-18.5001 142.489,-15 132.489,-11.5001 132.49,-18.5001"/>
</g>
</g>
</svg>
