<?xml version="1.0" encoding="UTF-8" standalone="no"?>
<!DOCTYPE svg PUBLIC "-//W3C//DTD SVG 1.1//EN"
 "http://www.w3.org/Graphics/SVG/1.1/DTD/svg11.dtd">
<!-- Generated by graphviz version 2.32.0 (20130809.1645)
 -->
<!-- Title: io_routines::io_newunit Pages: 1 -->
<svg width="768pt" height="530pt"
 viewBox="0.00 0.00 768.00 530.00" xmlns="http://www.w3.org/2000/svg" xmlns:xlink="http://www.w3.org/1999/xlink">
<g id="graph0" class="graph" transform="scale(1 1) rotate(0) translate(4 526)">
<title>io_routines::io_newunit</title>
<polygon fill="white" stroke="white" points="-4,5 -4,-526 765,-526 765,5 -4,5"/>
<!-- Node1 -->
<g id="node1" class="node"><title>Node1</title>
<polygon fill="#bfbfbf" stroke="black" points="0,-262.5 0,-281.5 116,-281.5 116,-262.5 0,-262.5"/>
<text text-anchor="middle" x="58" y="-269.5" font-family="Helvetica,sans-Serif" font-size="10.00">io_routines::io_newunit</text>
</g>
<!-- Node2 -->
<g id="node2" class="node"><title>Node2</title>
<g id="a_node2"><a xlink:href="classinitialize__options.html#a7161e810e27d3c830e135c3811ae290b" target="_top" xlink:title="initialize_options\l::version_check">
<polygon fill="white" stroke="black" points="171.5,-399 171.5,-429 260.5,-429 260.5,-399 171.5,-399"/>
<text text-anchor="start" x="179.5" y="-417" font-family="Helvetica,sans-Serif" font-size="10.00">initialize_options</text>
<text text-anchor="middle" x="216" y="-406" font-family="Helvetica,sans-Serif" font-size="10.00">::version_check</text>
</a>
</g>
</g>
<!-- Node1&#45;&gt;Node2 -->
<g id="edge1" class="edge"><title>Node1&#45;&gt;Node2</title>
<path fill="none" stroke="midnightblue" d="M70.3702,-290.106C86.2113,-314.148 116.954,-356.738 152,-384 159.363,-389.727 167.996,-394.723 176.469,-398.91"/>
<polygon fill="midnightblue" stroke="midnightblue" points="73.2381,-288.096 64.8743,-281.592 67.3569,-291.892 73.2381,-288.096"/>
</g>
<!-- Node6 -->
<g id="node6" class="node"><title>Node6</title>
<g id="a_node6"><a xlink:href="classinitialize__options.html#acc4c031c2e7521b9eb81f779a67acb3b" target="_top" xlink:title="initialize_options\l::mp_parameters_namelist">
<polygon fill="white" stroke="black" points="317,-492 317,-522 449,-522 449,-492 317,-492"/>
<text text-anchor="start" x="325" y="-510" font-family="Helvetica,sans-Serif" font-size="10.00">initialize_options</text>
<text text-anchor="middle" x="383" y="-499" font-family="Helvetica,sans-Serif" font-size="10.00">::mp_parameters_namelist</text>
</a>
</g>
</g>
<!-- Node1&#45;&gt;Node6 -->
<g id="edge21" class="edge"><title>Node1&#45;&gt;Node6</title>
<path fill="none" stroke="midnightblue" d="M62.2672,-291.729C70.0064,-331.772 93.4005,-422.546 152,-467 199.063,-502.702 267.089,-510.717 316.954,-510.999"/>
<polygon fill="midnightblue" stroke="midnightblue" points="65.6692,-290.872 60.4485,-281.653 58.7805,-292.115 65.6692,-290.872"/>
</g>
<!-- Node7 -->
<g id="node7" class="node"><title>Node7</title>
<g id="a_node7"><a xlink:href="classinitialize__options.html#acf012270ed53d51ad745344175d1d8ae" target="_top" xlink:title="initialize_options\l::lt_parameters_namelist">
<polygon fill="white" stroke="black" points="321,-443 321,-473 445,-473 445,-443 321,-443"/>
<text text-anchor="start" x="329" y="-461" font-family="Helvetica,sans-Serif" font-size="10.00">initialize_options</text>
<text text-anchor="middle" x="383" y="-450" font-family="Helvetica,sans-Serif" font-size="10.00">::lt_parameters_namelist</text>
</a>
</g>
</g>
<!-- Node1&#45;&gt;Node7 -->
<g id="edge22" class="edge"><title>Node1&#45;&gt;Node7</title>
<path fill="none" stroke="midnightblue" d="M63.5227,-291.416C73.014,-327.321 98.6852,-403.568 152,-438 202,-470.291 271.385,-471.849 320.841,-467.464"/>
<polygon fill="midnightblue" stroke="midnightblue" points="66.9044,-290.511 61.0838,-281.659 60.1134,-292.209 66.9044,-290.511"/>
</g>
<!-- Node8 -->
<g id="node8" class="node"><title>Node8</title>
<g id="a_node8"><a xlink:href="classinitialize__options.html#a502d4a0df0fedb55f73b9afb2e130107" target="_top" xlink:title="initialize_options\l::adv_parameters_namelist">
<polygon fill="white" stroke="black" points="316,-355 316,-385 450,-385 450,-355 316,-355"/>
<text text-anchor="start" x="324" y="-373" font-family="Helvetica,sans-Serif" font-size="10.00">initialize_options</text>
<text text-anchor="middle" x="383" y="-362" font-family="Helvetica,sans-Serif" font-size="10.00">::adv_parameters_namelist</text>
</a>
</g>
</g>
<!-- Node1&#45;&gt;Node8 -->
<g id="edge23" class="edge"><title>Node1&#45;&gt;Node8</title>
<path fill="none" stroke="midnightblue" d="M87.6139,-286.15C105.75,-294.732 129.88,-305.446 152,-313 206.211,-331.513 269.498,-346.751 315.948,-356.799"/>
<polygon fill="midnightblue" stroke="midnightblue" points="88.7355,-282.806 78.2055,-281.636 85.7072,-289.117 88.7355,-282.806"/>
</g>
<!-- Node9 -->
<g id="node9" class="node"><title>Node9</title>
<g id="a_node9"><a xlink:href="classinitialize__options.html#a71b56485a92a10478bb1179e3294c013" target="_top" xlink:title="initialize_options\l::lsm_parameters_namelist">
<polygon fill="white" stroke="black" points="316,-306 316,-336 450,-336 450,-306 316,-306"/>
<text text-anchor="start" x="324" y="-324" font-family="Helvetica,sans-Serif" font-size="10.00">initialize_options</text>
<text text-anchor="middle" x="383" y="-313" font-family="Helvetica,sans-Serif" font-size="10.00">::lsm_parameters_namelist</text>
</a>
</g>
</g>
<!-- Node1&#45;&gt;Node9 -->
<g id="edge24" class="edge"><title>Node1&#45;&gt;Node9</title>
<path fill="none" stroke="midnightblue" d="M119.047,-283.363C129.997,-285.325 141.33,-287.283 152,-289 207.128,-297.869 269.926,-306.508 315.959,-312.57"/>
<polygon fill="midnightblue" stroke="midnightblue" points="119.592,-279.905 109.129,-281.567 118.345,-286.793 119.592,-279.905"/>
</g>
<!-- Node10 -->
<g id="node10" class="node"><title>Node10</title>
<g id="a_node10"><a xlink:href="classinitialize__options.html#aa5c0f26f48774390be64bb2fc8243db6" target="_top" xlink:title="initialize_options\l::init_restart_options">
<polygon fill="white" stroke="black" points="330.5,-257 330.5,-287 435.5,-287 435.5,-257 330.5,-257"/>
<text text-anchor="start" x="338.5" y="-275" font-family="Helvetica,sans-Serif" font-size="10.00">initialize_options</text>
<text text-anchor="middle" x="383" y="-264" font-family="Helvetica,sans-Serif" font-size="10.00">::init_restart_options</text>
</a>
</g>
</g>
<!-- Node1&#45;&gt;Node10 -->
<g id="edge13" class="edge"><title>Node1&#45;&gt;Node10</title>
<path fill="none" stroke="midnightblue" d="M126.176,-273.616C134.864,-273.775 143.643,-273.91 152,-274 208.886,-274.612 223.114,-274.558 280,-274 296.383,-273.839 314.243,-273.534 330.375,-273.209"/>
<polygon fill="midnightblue" stroke="midnightblue" points="126.115,-270.115 116.049,-273.421 125.98,-277.113 126.115,-270.115"/>
</g>
<!-- Node11 -->
<g id="node11" class="node"><title>Node11</title>
<g id="a_node11"><a xlink:href="classinitialize__options.html#ad6b38b82a6d2ce60e8a7985fa0af9f5c" target="_top" xlink:title="initialize_options\l::physics_namelist">
<polygon fill="white" stroke="black" points="167,-235 167,-265 265,-265 265,-235 167,-235"/>
<text text-anchor="start" x="175" y="-253" font-family="Helvetica,sans-Serif" font-size="10.00">initialize_options</text>
<text text-anchor="middle" x="216" y="-242" font-family="Helvetica,sans-Serif" font-size="10.00">::physics_namelist</text>
</a>
</g>
</g>
<!-- Node1&#45;&gt;Node11 -->
<g id="edge15" class="edge"><title>Node1&#45;&gt;Node11</title>
<path fill="none" stroke="midnightblue" d="M126.464,-262.486C140.029,-260.573 154.028,-258.599 166.777,-256.801"/>
<polygon fill="midnightblue" stroke="midnightblue" points="125.616,-259.071 116.203,-263.933 126.594,-266.002 125.616,-259.071"/>
</g>
<!-- Node12 -->
<g id="node12" class="node"><title>Node12</title>
<g id="a_node12"><a xlink:href="classinitialize__options.html#a141165ac65b43c1947dbaa1a5acb70ae" target="_top" xlink:title="initialize_options\l::var_namelist">
<polygon fill="white" stroke="black" points="171.5,-186 171.5,-216 260.5,-216 260.5,-186 171.5,-186"/>
<text text-anchor="start" x="179.5" y="-204" font-family="Helvetica,sans-Serif" font-size="10.00">initialize_options</text>
<text text-anchor="middle" x="216" y="-193" font-family="Helvetica,sans-Serif" font-size="10.00">::var_namelist</text>
</a>
</g>
</g>
<!-- Node1&#45;&gt;Node12 -->
<g id="edge17" class="edge"><title>Node1&#45;&gt;Node12</title>
<path fill="none" stroke="midnightblue" d="M85.5251,-257.668C103.94,-247.948 129.172,-235.084 152,-225 158.959,-221.926 166.446,-218.866 173.743,-216.01"/>
<polygon fill="midnightblue" stroke="midnightblue" points="83.751,-254.647 76.5652,-262.433 87.0378,-260.828 83.751,-254.647"/>
</g>
<!-- Node13 -->
<g id="node13" class="node"><title>Node13</title>
<g id="a_node13"><a xlink:href="classinitialize__options.html#ab0058e1f8dbc07d787cc0705c5d9366a" target="_top" xlink:title="initialize_options\l::parameters_namelist">
<polygon fill="white" stroke="black" points="159.5,-137 159.5,-167 272.5,-167 272.5,-137 159.5,-137"/>
<text text-anchor="start" x="167.5" y="-155" font-family="Helvetica,sans-Serif" font-size="10.00">initialize_options</text>
<text text-anchor="middle" x="216" y="-144" font-family="Helvetica,sans-Serif" font-size="10.00">::parameters_namelist</text>
</a>
</g>
</g>
<!-- Node1&#45;&gt;Node13 -->
<g id="edge19" class="edge"><title>Node1&#45;&gt;Node13</title>
<path fill="none" stroke="midnightblue" d="M72.1001,-254.359C88.6352,-233.176 118.939,-197.785 152,-176 157.082,-172.651 162.699,-169.673 168.424,-167.052"/>
<polygon fill="midnightblue" stroke="midnightblue" points="69.1801,-252.416 65.8887,-262.486 74.7419,-256.666 69.1801,-252.416"/>
</g>
<!-- Node14 -->
<g id="node14" class="node"><title>Node14</title>
<g id="a_node14"><a xlink:href="classinitialize__options.html#a14f98c882d07ead49841d25d7de75d4c" target="_top" xlink:title="initialize_options\l::model_levels_namelist">
<polygon fill="white" stroke="black" points="155,-88 155,-118 277,-118 277,-88 155,-88"/>
<text text-anchor="start" x="163" y="-106" font-family="Helvetica,sans-Serif" font-size="10.00">initialize_options</text>
<text text-anchor="middle" x="216" y="-95" font-family="Helvetica,sans-Serif" font-size="10.00">::model_levels_namelist</text>
</a>
</g>
</g>
<!-- Node1&#45;&gt;Node14 -->
<g id="edge25" class="edge"><title>Node1&#45;&gt;Node14</title>
<path fill="none" stroke="midnightblue" d="M66.5477,-252.86C79.5592,-222.184 109.018,-161.917 152,-127 156.179,-123.605 160.89,-120.656 165.807,-118.101"/>
<polygon fill="midnightblue" stroke="midnightblue" points="63.1967,-251.807 62.6362,-262.387 69.6722,-254.466 63.1967,-251.807"/>
</g>
<!-- Node15 -->
<g id="node15" class="node"><title>Node15</title>
<g id="a_node15"><a xlink:href="classinitialize__options.html#aa31ad836b4bdcd1a555c9e8fa4b2975a" target="_top" xlink:title=" Read in the name of the boundary condition files from a text file ">
<polygon fill="white" stroke="black" points="152,-0 152,-30 280,-30 280,-0 152,-0"/>
<text text-anchor="start" x="160" y="-18" font-family="Helvetica,sans-Serif" font-size="10.00">initialize_options</text>
<text text-anchor="middle" x="216" y="-7" font-family="Helvetica,sans-Serif" font-size="10.00">::read_forcing_file_names</text>
</a>
</g>
</g>
<!-- Node1&#45;&gt;Node15 -->
<g id="edge27" class="edge"><title>Node1&#45;&gt;Node15</title>
<path fill="none" stroke="midnightblue" d="M62.0934,-252.536C69.8207,-209.792 93.7016,-106.633 152,-45 157.661,-39.0154 164.759,-34.0935 172.133,-30.0919"/>
<polygon fill="midnightblue" stroke="midnightblue" points="58.6295,-252.028 60.3958,-262.475 65.5296,-253.207 58.6295,-252.028"/>
</g>
<!-- Node16 -->
<g id="node16" class="node"><title>Node16</title>
<g id="a_node16"><a xlink:href="classinitialize__options.html#af329549f76b4aa24da83a0f292e32088" target="_top" xlink:title="initialize_options\l::filename_namelist">
<polygon fill="white" stroke="black" points="332.5,-44 332.5,-74 433.5,-74 433.5,-44 332.5,-44"/>
<text text-anchor="start" x="340.5" y="-62" font-family="Helvetica,sans-Serif" font-size="10.00">initialize_options</text>
<text text-anchor="middle" x="383" y="-51" font-family="Helvetica,sans-Serif" font-size="10.00">::filename_namelist</text>
</a>
</g>
</g>
<!-- Node1&#45;&gt;Node16 -->
<g id="edge30" class="edge"><title>Node1&#45;&gt;Node16</title>
<path fill="none" stroke="midnightblue" d="M61.9378,-252.193C69.1034,-211.673 91.5469,-119.634 152,-78 205.127,-41.4116 282.4,-43.3296 332.436,-49.7917"/>
<polygon fill="midnightblue" stroke="midnightblue" points="58.4661,-251.736 60.303,-262.171 65.374,-252.868 58.4661,-251.736"/>
</g>
<!-- Node3 -->
<g id="node3" class="node"><title>Node3</title>
<g id="a_node3"><a xlink:href="classinitialize__options.html#a571709045f201082c9735408ef2f28e3" target="_top" xlink:title="initialize_options\l::init_options">
<polygon fill="white" stroke="black" points="486.5,-257 486.5,-287 575.5,-287 575.5,-257 486.5,-257"/>
<text text-anchor="start" x="494.5" y="-275" font-family="Helvetica,sans-Serif" font-size="10.00">initialize_options</text>
<text text-anchor="middle" x="531" y="-264" font-family="Helvetica,sans-Serif" font-size="10.00">::init_options</text>
</a>
</g>
</g>
<!-- Node2&#45;&gt;Node3 -->
<g id="edge2" class="edge"><title>Node2&#45;&gt;Node3</title>
<path fill="none" stroke="midnightblue" d="M270.759,-422.064C320.761,-426.783 395.529,-426.505 450,-394 491.325,-369.34 515.376,-314.082 525.03,-287.229"/>
<polygon fill="midnightblue" stroke="midnightblue" points="271.101,-418.581 260.792,-421.027 270.376,-425.544 271.101,-418.581"/>
</g>
<!-- Node2&#45;&gt;Node6 -->
<g id="edge5" class="edge"><title>Node2&#45;&gt;Node6</title>
<path fill="none" stroke="midnightblue" d="M244.249,-435.364C263.531,-449.807 290.41,-468.613 316,-482 322.84,-485.578 330.31,-488.909 337.687,-491.898"/>
<polygon fill="midnightblue" stroke="midnightblue" points="246.299,-432.526 236.216,-429.271 242.068,-438.103 246.299,-432.526"/>
</g>
<!-- Node2&#45;&gt;Node7 -->
<g id="edge7" class="edge"><title>Node2&#45;&gt;Node7</title>
<path fill="none" stroke="midnightblue" d="M270.842,-428.358C288.359,-433.029 307.845,-438.225 325.548,-442.946"/>
<polygon fill="midnightblue" stroke="midnightblue" points="271.348,-424.871 260.784,-425.676 269.544,-431.634 271.348,-424.871"/>
</g>
<!-- Node2&#45;&gt;Node8 -->
<g id="edge9" class="edge"><title>Node2&#45;&gt;Node8</title>
<path fill="none" stroke="midnightblue" d="M270.842,-399.642C288.359,-394.971 307.845,-389.775 325.548,-385.054"/>
<polygon fill="midnightblue" stroke="midnightblue" points="269.544,-396.366 260.784,-402.324 271.348,-403.129 269.544,-396.366"/>
</g>
<!-- Node2&#45;&gt;Node9 -->
<g id="edge11" class="edge"><title>Node2&#45;&gt;Node9</title>
<path fill="none" stroke="midnightblue" d="M243.422,-392.738C262.704,-377.948 289.921,-358.535 316,-345 322.277,-341.742 329.097,-338.729 335.892,-336.016"/>
<polygon fill="midnightblue" stroke="midnightblue" points="241.159,-390.064 235.413,-398.965 245.456,-395.59 241.159,-390.064"/>
</g>
<!-- Node4 -->
<g id="node4" class="node"><title>Node4</title>
<g id="a_node4"><a xlink:href="classinit.html#a1dd1e2b38eef39cba464f65c9ce82568" target="_top" xlink:title="init::init_model">
<polygon fill="white" stroke="black" points="612,-262.5 612,-281.5 692,-281.5 692,-262.5 612,-262.5"/>
<text text-anchor="middle" x="652" y="-269.5" font-family="Helvetica,sans-Serif" font-size="10.00">init::init_model</text>
</a>
</g>
</g>
<!-- Node3&#45;&gt;Node4 -->
<g id="edge3" class="edge"><title>Node3&#45;&gt;Node4</title>
<path fill="none" stroke="midnightblue" d="M585.766,-272C594.499,-272 603.399,-272 611.703,-272"/>
<polygon fill="midnightblue" stroke="midnightblue" points="585.636,-268.5 575.635,-272 585.635,-275.5 585.636,-268.5"/>
</g>
<!-- Node5 -->
<g id="node5" class="node"><title>Node5</title>
<g id="a_node5"><a xlink:href="driver_8f90.html#ab1e5a5816a57fc6e95d9563c2bb53590" target="_top" xlink:title=" Main Program ">
<polygon fill="white" stroke="black" points="728,-262.5 728,-281.5 760,-281.5 760,-262.5 728,-262.5"/>
<text text-anchor="middle" x="744" y="-269.5" font-family="Helvetica,sans-Serif" font-size="10.00">icar</text>
</a>
</g>
</g>
<!-- Node4&#45;&gt;Node5 -->
<g id="edge4" class="edge"><title>Node4&#45;&gt;Node5</title>
<path fill="none" stroke="midnightblue" d="M702.233,-272C711.449,-272 720.425,-272 727.599,-272"/>
<polygon fill="midnightblue" stroke="midnightblue" points="702.214,-268.5 692.213,-272 702.213,-275.5 702.214,-268.5"/>
</g>
<!-- Node6&#45;&gt;Node3 -->
<g id="edge6" class="edge"><title>Node6&#45;&gt;Node3</title>
<path fill="none" stroke="midnightblue" d="M445.347,-486.135C446.979,-484.837 448.537,-483.461 450,-482 506.469,-425.637 523.77,-325.316 528.446,-287.234"/>
<polygon fill="midnightblue" stroke="midnightblue" points="442.992,-483.501 436.646,-491.984 446.897,-489.31 442.992,-483.501"/>
</g>
<!-- Node7&#45;&gt;Node3 -->
<g id="edge8" class="edge"><title>Node7&#45;&gt;Node3</title>
<path fill="none" stroke="midnightblue" d="M436.865,-438.039C441.595,-435.082 446.072,-431.746 450,-428 492.947,-387.034 516.884,-317.964 525.853,-287.373"/>
<polygon fill="midnightblue" stroke="midnightblue" points="435.132,-434.998 428.141,-442.959 438.571,-441.095 435.132,-434.998"/>
</g>
<!-- Node8&#45;&gt;Node3 -->
<g id="edge10" class="edge"><title>Node8&#45;&gt;Node3</title>
<path fill="none" stroke="midnightblue" d="M439.586,-350.741C443.184,-348.948 446.689,-347.034 450,-345 476.274,-328.859 501.716,-303.44 516.61,-287.254"/>
<polygon fill="midnightblue" stroke="midnightblue" points="438.11,-347.567 430.505,-354.944 441.05,-353.92 438.11,-347.567"/>
</g>
<!-- Node9&#45;&gt;Node3 -->
<g id="edge12" class="edge"><title>Node9&#45;&gt;Node3</title>
<path fill="none" stroke="midnightblue" d="M438.63,-302.665C454.402,-297.372 471.398,-291.668 486.404,-286.632"/>
<polygon fill="midnightblue" stroke="midnightblue" points="437.363,-299.399 428.996,-305.899 439.59,-306.035 437.363,-299.399"/>
</g>
<!-- Node10&#45;&gt;Node3 -->
<g id="edge14" class="edge"><title>Node10&#45;&gt;Node3</title>
<path fill="none" stroke="midnightblue" d="M446.138,-272C459.719,-272 473.813,-272 486.482,-272"/>
<polygon fill="midnightblue" stroke="midnightblue" points="445.885,-268.5 435.885,-272 445.885,-275.5 445.885,-268.5"/>
</g>
<!-- Node11&#45;&gt;Node3 -->
<g id="edge16" class="edge"><title>Node11&#45;&gt;Node3</title>
<path fill="none" stroke="midnightblue" d="M275.137,-244.001C322.496,-240.37 390.946,-237.988 450,-247 463.378,-249.042 477.594,-252.899 490.273,-256.984"/>
<polygon fill="midnightblue" stroke="midnightblue" points="274.75,-240.521 265.065,-244.816 275.315,-247.498 274.75,-240.521"/>
</g>
<!-- Node12&#45;&gt;Node3 -->
<g id="edge18" class="edge"><title>Node12&#45;&gt;Node3</title>
<path fill="none" stroke="midnightblue" d="M270.796,-205.325C318.58,-210.102 389.946,-219.546 450,-237 467.323,-242.035 485.828,-249.952 500.672,-256.983"/>
<polygon fill="midnightblue" stroke="midnightblue" points="270.962,-201.825 260.672,-204.348 270.29,-208.793 270.962,-201.825"/>
</g>
<!-- Node13&#45;&gt;Node3 -->
<g id="edge20" class="edge"><title>Node13&#45;&gt;Node3</title>
<path fill="none" stroke="midnightblue" d="M282.576,-159.453C330.796,-166.806 396.899,-180.885 450,-207 475.694,-219.636 500.52,-241.868 515.527,-256.764"/>
<polygon fill="midnightblue" stroke="midnightblue" points="282.972,-155.974 272.569,-157.984 281.955,-162.9 282.972,-155.974"/>
</g>
<!-- Node14&#45;&gt;Node3 -->
<g id="edge26" class="edge"><title>Node14&#45;&gt;Node3</title>
<path fill="none" stroke="midnightblue" d="M287.29,-108.602C336.386,-115.349 401.552,-130.22 450,-163 485.773,-187.203 511.45,-232.924 523.064,-256.727"/>
<polygon fill="midnightblue" stroke="midnightblue" points="287.435,-105.092 277.069,-107.282 286.538,-112.034 287.435,-105.092"/>
</g>
<!-- Node15&#45;&gt;Node16 -->
<g id="edge28" class="edge"><title>Node15&#45;&gt;Node16</title>
<path fill="none" stroke="midnightblue" d="M283.352,-32.6939C299.682,-37.0485 316.89,-41.6373 332.28,-45.7414"/>
<polygon fill="midnightblue" stroke="midnightblue" points="283.886,-29.2141 273.322,-30.0192 282.083,-35.9778 283.886,-29.2141"/>
</g>
<!-- Node16&#45;&gt;Node3 -->
<g id="edge29" class="edge"><title>Node16&#45;&gt;Node3</title>
<path fill="none" stroke="midnightblue" d="M431.308,-79.0474C438.127,-83.3042 444.638,-88.2766 450,-94 496.095,-143.203 518.868,-223.47 526.724,-256.774"/>
<polygon fill="midnightblue" stroke="midnightblue" points="432.987,-75.9751 422.571,-74.0354 429.504,-82.0471 432.987,-75.9751"/>
</g>
</g>
</svg>
