<?xml version="1.0" encoding="UTF-8" standalone="no"?>
<!DOCTYPE svg PUBLIC "-//W3C//DTD SVG 1.1//EN"
 "http://www.w3.org/Graphics/SVG/1.1/DTD/svg11.dtd">
<!-- Generated by graphviz version 2.32.0 (20130809.1645)
 -->
<!-- Title: module_ra_simple::relative_humidity Pages: 1 -->
<svg width="1016pt" height="52pt"
 viewBox="0.00 0.00 1016.00 52.00" xmlns="http://www.w3.org/2000/svg" xmlns:xlink="http://www.w3.org/1999/xlink">
<g id="graph0" class="graph" transform="scale(1 1) rotate(0) translate(4 48)">
<title>module_ra_simple::relative_humidity</title>
<polygon fill="white" stroke="white" points="-4,5 -4,-48 1013,-48 1013,5 -4,5"/>
<!-- Node1 -->
<g id="node1" class="node"><title>Node1</title>
<polygon fill="#bfbfbf" stroke="black" points="0.5,-14 0.5,-44 133.5,-44 133.5,-14 0.5,-14"/>
<text text-anchor="start" x="8.5" y="-32" font-family="Helvetica,sans-Serif" font-size="10.00">module_ra_simple::relative</text>
<text text-anchor="middle" x="67" y="-21" font-family="Helvetica,sans-Serif" font-size="10.00">_humidity</text>
</g>
<!-- Node2 -->
<g id="node2" class="node"><title>Node2</title>
<g id="a_node2"><a xlink:href="classmodule__ra__simple.html#ad1c74605b2817f833d31e806f791e246" target="_top" xlink:title="module_ra_simple::ra\l_simple">
<polygon fill="white" stroke="black" points="170,-14 170,-44 280,-44 280,-14 170,-14"/>
<text text-anchor="start" x="178" y="-32" font-family="Helvetica,sans-Serif" font-size="10.00">module_ra_simple::ra</text>
<text text-anchor="middle" x="225" y="-21" font-family="Helvetica,sans-Serif" font-size="10.00">_simple</text>
</a>
</g>
</g>
<!-- Node1&#45;&gt;Node2 -->
<g id="edge1" class="edge"><title>Node1&#45;&gt;Node2</title>
<path fill="none" stroke="midnightblue" d="M143.891,-29C152.604,-29 161.351,-29 169.699,-29"/>
<polygon fill="midnightblue" stroke="midnightblue" points="143.706,-25.5001 133.706,-29 143.706,-32.5001 143.706,-25.5001"/>
</g>
<!-- Node3 -->
<g id="node3" class="node"><title>Node3</title>
<g id="a_node3"><a xlink:href="classradiation.html#aba1a06d27af96fe11d576458c8ccfe77" target="_top" xlink:title="radiation::rad">
<polygon fill="white" stroke="black" points="316.5,-19.5 316.5,-38.5 389.5,-38.5 389.5,-19.5 316.5,-19.5"/>
<text text-anchor="middle" x="353" y="-26.5" font-family="Helvetica,sans-Serif" font-size="10.00">radiation::rad</text>
</a>
</g>
</g>
<!-- Node2&#45;&gt;Node3 -->
<g id="edge2" class="edge"><title>Node2&#45;&gt;Node3</title>
<path fill="none" stroke="midnightblue" d="M290.297,-29C299.292,-29 308.251,-29 316.441,-29"/>
<polygon fill="midnightblue" stroke="midnightblue" points="290.167,-25.5001 280.167,-29 290.167,-32.5001 290.167,-25.5001"/>
</g>
<!-- Node4 -->
<g id="node4" class="node"><title>Node4</title>
<g id="a_node4"><a xlink:href="classtime__step.html#a2c022f11247af72e607b1493289aa974" target="_top" xlink:title=" Step forward one IO time step. ">
<polygon fill="white" stroke="black" points="856,-19.5 856,-38.5 940,-38.5 940,-19.5 856,-19.5"/>
<text text-anchor="middle" x="898" y="-26.5" font-family="Helvetica,sans-Serif" font-size="10.00">time_step::step</text>
</a>
</g>
</g>
<!-- Node3&#45;&gt;Node4 -->
<g id="edge3" class="edge"><title>Node3&#45;&gt;Node4</title>
<path fill="none" stroke="midnightblue" d="M399.802,-29C503.772,-29 756.289,-29 855.755,-29"/>
<polygon fill="midnightblue" stroke="midnightblue" points="399.628,-25.5001 389.628,-29 399.628,-32.5001 399.628,-25.5001"/>
</g>
<!-- Node6 -->
<g id="node6" class="node"><title>Node6</title>
<g id="a_node6"><a xlink:href="classmodule__cu__kf.html#afbc0670c02010c630409b1796e89a3fb" target="_top" xlink:title="module_cu_kf::kfpara">
<polygon fill="white" stroke="black" points="426,-0.5 426,-19.5 536,-19.5 536,-0.5 426,-0.5"/>
<text text-anchor="middle" x="481" y="-7.5" font-family="Helvetica,sans-Serif" font-size="10.00">module_cu_kf::kfpara</text>
</a>
</g>
</g>
<!-- Node3&#45;&gt;Node6 -->
<g id="edge5" class="edge"><title>Node3&#45;&gt;Node6</title>
<path fill="none" stroke="midnightblue" d="M399.797,-22.094C408.237,-20.8214 417.122,-19.4816 425.782,-18.1757"/>
<polygon fill="midnightblue" stroke="midnightblue" points="399.136,-18.6541 389.77,-23.6062 400.18,-25.5759 399.136,-18.6541"/>
</g>
<!-- Node5 -->
<g id="node5" class="node"><title>Node5</title>
<g id="a_node5"><a xlink:href="driver_8f90.html#ab1e5a5816a57fc6e95d9563c2bb53590" target="_top" xlink:title=" Main Program ">
<polygon fill="white" stroke="black" points="976,-19.5 976,-38.5 1008,-38.5 1008,-19.5 976,-19.5"/>
<text text-anchor="middle" x="992" y="-26.5" font-family="Helvetica,sans-Serif" font-size="10.00">icar</text>
</a>
</g>
</g>
<!-- Node4&#45;&gt;Node5 -->
<g id="edge4" class="edge"><title>Node4&#45;&gt;Node5</title>
<path fill="none" stroke="midnightblue" d="M950.253,-29C959.521,-29 968.5,-29 975.66,-29"/>
<polygon fill="midnightblue" stroke="midnightblue" points="950.156,-25.5001 940.156,-29 950.156,-32.5001 950.156,-25.5001"/>
</g>
<!-- Node7 -->
<g id="node7" class="node"><title>Node7</title>
<g id="a_node7"><a xlink:href="classmodule__cu__kf.html#a273d9ce9bce064bfc092d6940bea4e27" target="_top" xlink:title="module_cu_kf::kfcps">
<polygon fill="white" stroke="black" points="572.5,-0.5 572.5,-19.5 679.5,-19.5 679.5,-0.5 572.5,-0.5"/>
<text text-anchor="middle" x="626" y="-7.5" font-family="Helvetica,sans-Serif" font-size="10.00">module_cu_kf::kfcps</text>
</a>
</g>
</g>
<!-- Node6&#45;&gt;Node7 -->
<g id="edge6" class="edge"><title>Node6&#45;&gt;Node7</title>
<path fill="none" stroke="midnightblue" d="M546.203,-10C554.925,-10 563.794,-10 572.282,-10"/>
<polygon fill="midnightblue" stroke="midnightblue" points="546.062,-6.5001 536.062,-10 546.062,-13.5001 546.062,-6.5001"/>
</g>
<!-- Node8 -->
<g id="node8" class="node"><title>Node8</title>
<g id="a_node8"><a xlink:href="classconvection.html#a06b811540eb747b3734e7fb35de41782" target="_top" xlink:title="convection::convect">
<polygon fill="white" stroke="black" points="716,-0.5 716,-19.5 820,-19.5 820,-0.5 716,-0.5"/>
<text text-anchor="middle" x="768" y="-7.5" font-family="Helvetica,sans-Serif" font-size="10.00">convection::convect</text>
</a>
</g>
</g>
<!-- Node7&#45;&gt;Node8 -->
<g id="edge7" class="edge"><title>Node7&#45;&gt;Node8</title>
<path fill="none" stroke="midnightblue" d="M689.615,-10C698.295,-10 707.127,-10 715.571,-10"/>
<polygon fill="midnightblue" stroke="midnightblue" points="689.529,-6.5001 679.529,-10 689.529,-13.5001 689.529,-6.5001"/>
</g>
<!-- Node8&#45;&gt;Node4 -->
<g id="edge8" class="edge"><title>Node8&#45;&gt;Node4</title>
<path fill="none" stroke="midnightblue" d="M830.406,-19.115C839.051,-20.3982 847.759,-21.6907 855.897,-22.8988"/>
<polygon fill="midnightblue" stroke="midnightblue" points="830.731,-15.6249 820.325,-17.6185 829.703,-22.549 830.731,-15.6249"/>
</g>
</g>
</svg>
