<?xml version="1.0" encoding="UTF-8" standalone="no"?>
<!DOCTYPE svg PUBLIC "-//W3C//DTD SVG 1.1//EN"
 "http://www.w3.org/Graphics/SVG/1.1/DTD/svg11.dtd">
<!-- Generated by graphviz version 2.32.0 (20130809.1645)
 -->
<!-- Title: initialize_options::lsm_parameters_namelist Pages: 1 -->
<!--zoomable 175 -->
<svg id="main" version="1.1" xmlns="http://www.w3.org/2000/svg" xmlns:xlink="http://www.w3.org/1999/xlink" xml:space="preserve" onload="init(evt)">
<style type="text/css"><![CDATA[
.edge:hover path { stroke: red; }
.edge:hover polygon { stroke: red; fill: red; }
]]></style>
<script type="text/javascript"><![CDATA[
var edges = document.getElementsByTagName('g');
if (edges && edges.length) {
  for (var i=0;i<edges.length;i++) {
    if (edges[i].id.substr(0,4)=='edge') {
      edges[i].setAttribute('class','edge');
    }
  }
}
]]></script>
        <defs>
                <circle id="rim" cx="0" cy="0" r="7"/>
                <circle id="rim2" cx="0" cy="0" r="3.5"/>
                <g id="zoomPlus">
                        <use xlink:href="#rim" fill="#404040">
                                <set attributeName="fill" to="#808080" begin="zoomplus.mouseover" end="zoomplus.mouseout"/>
                        </use>
                        <path d="M-4,0h8M0,-4v8" fill="none" stroke="white" stroke-width="1.5" pointer-events="none"/>
                </g>
                <g id="zoomMin">
                        <use xlink:href="#rim" fill="#404040">
                                <set attributeName="fill" to="#808080" begin="zoomminus.mouseover" end="zoomminus.mouseout"/>
                        </use>
                        <path d="M-4,0h8" fill="none" stroke="white" stroke-width="1.5" pointer-events="none"/>
                </g>
                <g id="dirArrow">
                        <path fill="none" stroke="white" stroke-width="1.5" d="M0,-3.0v7 M-2.5,-0.5L0,-3.0L2.5,-0.5"/>
                </g>
               <g id="resetDef">
                       <use xlink:href="#rim2" fill="#404040">
                               <set attributeName="fill" to="#808080" begin="reset.mouseover" end="reset.mouseout"/>
                       </use>
               </g>
        </defs>

<script type="text/javascript">
var viewWidth = 602;
var viewHeight = 175;
var sectionId = 'dynsection-9';
</script>
<script xlink:href="svgpan.js"/>
<svg id="graph" class="graph">
<g id="viewport">
<title>initialize_options::lsm_parameters_namelist</title>
<polygon fill="white" stroke="white" points="-4,5 -4,-171 599,-171 599,5 -4,5"/>
<!-- Node1 -->
<g id="node1" class="node"><title>Node1</title>
<polygon fill="#bfbfbf" stroke="black" points="0,-71 0,-101 134,-101 134,-71 0,-71"/>
<text text-anchor="start" x="8" y="-89" font-family="Helvetica,sans-Serif" font-size="10.00">initialize_options</text>
<text text-anchor="middle" x="67" y="-78" font-family="Helvetica,sans-Serif" font-size="10.00">::lsm_parameters_namelist</text>
</g>
<!-- Node2 -->
<g id="node2" class="node"><title>Node2</title>
<g id="a_node2"><a xlink:href="classinitialize__options.html#a09a50b9cb8e065acef2d92f2a1b615fd" target="_top" xlink:title="initialize_options\l::get_options_file">
<polygon fill="white" stroke="black" points="191.5,-137 191.5,-167 282.5,-167 282.5,-137 191.5,-137"/>
<text text-anchor="start" x="199.5" y="-155" font-family="Helvetica,sans-Serif" font-size="10.00">initialize_options</text>
<text text-anchor="middle" x="237" y="-144" font-family="Helvetica,sans-Serif" font-size="10.00">::get_options_file</text>
</a>
</g>
</g>
<!-- Node1&#45;&gt;Node2 -->
<g id="edge1" class="edge"><title>Node1&#45;&gt;Node2</title>
<path fill="none" stroke="midnightblue" d="M106.543,-101.142C130.766,-110.658 162.207,-123.01 188.038,-133.158"/>
<polygon fill="midnightblue" stroke="midnightblue" points="187.049,-136.53 197.637,-136.929 189.609,-130.015 187.049,-136.53"/>
</g>
<!-- Node3 -->
<g id="node3" class="node"><title>Node3</title>
<g id="a_node3"><a xlink:href="classinitialize__options.html#a7161e810e27d3c830e135c3811ae290b" target="_top" xlink:title="initialize_options\l::version_check">
<polygon fill="white" stroke="black" points="192.5,-49 192.5,-79 281.5,-79 281.5,-49 192.5,-49"/>
<text text-anchor="start" x="200.5" y="-67" font-family="Helvetica,sans-Serif" font-size="10.00">initialize_options</text>
<text text-anchor="middle" x="237" y="-56" font-family="Helvetica,sans-Serif" font-size="10.00">::version_check</text>
</a>
</g>
</g>
<!-- Node1&#45;&gt;Node3 -->
<g id="edge2" class="edge"><title>Node1&#45;&gt;Node3</title>
<path fill="none" stroke="midnightblue" d="M134.398,-77.305C150.196,-75.2362 166.864,-73.0535 182.028,-71.0677"/>
<polygon fill="midnightblue" stroke="midnightblue" points="182.797,-74.4971 192.257,-69.7282 181.888,-67.5563 182.797,-74.4971"/>
</g>
<!-- Node4 -->
<g id="node4" class="node"><title>Node4</title>
<g id="a_node4"><a xlink:href="classio__routines.html#a754b76158aa8311e1ee112004ddae52b" target="_top" xlink:title=" Find an available file unit number. ">
<polygon fill="white" stroke="black" points="340,-98.5 340,-117.5 456,-117.5 456,-98.5 340,-98.5"/>
<text text-anchor="middle" x="398" y="-105.5" font-family="Helvetica,sans-Serif" font-size="10.00">io_routines::io_newunit</text>
</a>
</g>
</g>
<!-- Node1&#45;&gt;Node4 -->
<g id="edge6" class="edge"><title>Node1&#45;&gt;Node4</title>
<path fill="none" stroke="midnightblue" d="M134.182,-90.4256C191.093,-94.2311 272.801,-99.6949 329.959,-103.517"/>
<polygon fill="midnightblue" stroke="midnightblue" points="329.767,-107.012 339.978,-104.187 330.234,-100.028 329.767,-107.012"/>
</g>
<!-- Node7 -->
<g id="node7" class="node"><title>Node7</title>
<g id="a_node7"><a xlink:href="classinitialize__options.html#a953ba7fde6963a7279fa7b8e47998dae" target="_top" xlink:title="initialize_options\l::set_default_lu_categories">
<polygon fill="white" stroke="black" points="170,-0 170,-30 304,-30 304,-0 170,-0"/>
<text text-anchor="start" x="178" y="-18" font-family="Helvetica,sans-Serif" font-size="10.00">initialize_options</text>
<text text-anchor="middle" x="237" y="-7" font-family="Helvetica,sans-Serif" font-size="10.00">::set_default_lu_categories</text>
</a>
</g>
</g>
<!-- Node1&#45;&gt;Node7 -->
<g id="edge7" class="edge"><title>Node1&#45;&gt;Node7</title>
<path fill="none" stroke="midnightblue" d="M98.954,-70.9236C119.024,-61.3514 145.838,-48.94 170,-39 174.352,-37.2098 178.891,-35.4139 183.463,-33.6547"/>
<polygon fill="midnightblue" stroke="midnightblue" points="184.727,-36.9188 192.843,-30.1089 182.252,-30.371 184.727,-36.9188"/>
</g>
<!-- Node3&#45;&gt;Node4 -->
<g id="edge3" class="edge"><title>Node3&#45;&gt;Node4</title>
<path fill="none" stroke="midnightblue" d="M281.868,-76.1397C303.949,-82.2499 330.652,-89.6396 352.781,-95.7633"/>
<polygon fill="midnightblue" stroke="midnightblue" points="352.022,-99.1848 362.593,-98.4787 353.889,-92.4383 352.022,-99.1848"/>
</g>
<!-- Node5 -->
<g id="node5" class="node"><title>Node5</title>
<g id="a_node5"><a xlink:href="classmodel__tracking.html#a0c78b5716b846487efd52d7b78dae261" target="_top" xlink:title="model_tracking::print\l_model_diffs">
<polygon fill="white" stroke="black" points="344.5,-49 344.5,-79 451.5,-79 451.5,-49 344.5,-49"/>
<text text-anchor="start" x="352.5" y="-67" font-family="Helvetica,sans-Serif" font-size="10.00">model_tracking::print</text>
<text text-anchor="middle" x="398" y="-56" font-family="Helvetica,sans-Serif" font-size="10.00">_model_diffs</text>
</a>
</g>
</g>
<!-- Node3&#45;&gt;Node5 -->
<g id="edge4" class="edge"><title>Node3&#45;&gt;Node5</title>
<path fill="none" stroke="midnightblue" d="M281.868,-64C298.005,-64 316.61,-64 334.095,-64"/>
<polygon fill="midnightblue" stroke="midnightblue" points="334.233,-67.5001 344.233,-64 334.233,-60.5001 334.233,-67.5001"/>
</g>
<!-- Node6 -->
<g id="node6" class="node"><title>Node6</title>
<g id="a_node6"><a xlink:href="classmodel__tracking.html#a417ef049855367c1fb14cadf2203536f" target="_top" xlink:title="model_tracking::init\l_model_diffs">
<polygon fill="white" stroke="black" points="492.5,-49 492.5,-79 593.5,-79 593.5,-49 492.5,-49"/>
<text text-anchor="start" x="500.5" y="-67" font-family="Helvetica,sans-Serif" font-size="10.00">model_tracking::init</text>
<text text-anchor="middle" x="543" y="-56" font-family="Helvetica,sans-Serif" font-size="10.00">_model_diffs</text>
</a>
</g>
</g>
<!-- Node5&#45;&gt;Node6 -->
<g id="edge5" class="edge"><title>Node5&#45;&gt;Node6</title>
<path fill="none" stroke="midnightblue" d="M451.842,-64C461.644,-64 471.949,-64 481.948,-64"/>
<polygon fill="midnightblue" stroke="midnightblue" points="482.222,-67.5001 492.222,-64 482.222,-60.5001 482.222,-67.5001"/>
</g>
</g>
</svg>
        <g id="navigator" transform="translate(0 0)" fill="#404254">
                <rect fill="#f2f5e9" fill-opacity="0.5" stroke="#606060" stroke-width=".5" x="0" y="0" width="60" height="60"/>
                <use id="zoomplus" xlink:href="#zoomPlus" x="17" y="9" onmousedown="handleZoom(evt,'in')"/>
                <use id="zoomminus" xlink:href="#zoomMin" x="42" y="9" onmousedown="handleZoom(evt,'out')"/>
                <use id="reset" xlink:href="#resetDef" x="30" y="36" onmousedown="handleReset()"/>
                <g id="arrowUp" xlink:href="#dirArrow" transform="translate(30 24)" onmousedown="handlePan(0,-1)">
                  <use xlink:href="#rim" fill="#404040">
                        <set attributeName="fill" to="#808080" begin="arrowUp.mouseover" end="arrowUp.mouseout"/>
                  </use>
                  <path fill="none" stroke="white" stroke-width="1.5" d="M0,-3.0v7 M-2.5,-0.5L0,-3.0L2.5,-0.5"/>
                </g>
                <g id="arrowRight" xlink:href="#dirArrow" transform="rotate(90) translate(36 -43)" onmousedown="handlePan(1,0)">
                  <use xlink:href="#rim" fill="#404040">
                        <set attributeName="fill" to="#808080" begin="arrowRight.mouseover" end="arrowRight.mouseout"/>
                  </use>
                  <path fill="none" stroke="white" stroke-width="1.5" d="M0,-3.0v7 M-2.5,-0.5L0,-3.0L2.5,-0.5"/>
                </g>
                <g id="arrowDown" xlink:href="#dirArrow" transform="rotate(180) translate(-30 -48)" onmousedown="handlePan(0,1)">
                  <use xlink:href="#rim" fill="#404040">
                        <set attributeName="fill" to="#808080" begin="arrowDown.mouseover" end="arrowDown.mouseout"/>
                  </use>
                  <path fill="none" stroke="white" stroke-width="1.5" d="M0,-3.0v7 M-2.5,-0.5L0,-3.0L2.5,-0.5"/>
                </g>
                <g id="arrowLeft" xlink:href="#dirArrow" transform="rotate(270) translate(-36 17)" onmousedown="handlePan(-1,0)">
                  <use xlink:href="#rim" fill="#404040">
                        <set attributeName="fill" to="#808080" begin="arrowLeft.mouseover" end="arrowLeft.mouseout"/>
                  </use>
                  <path fill="none" stroke="white" stroke-width="1.5" d="M0,-3.0v7 M-2.5,-0.5L0,-3.0L2.5,-0.5"/>
                </g>
        </g>
        <svg viewBox="0 0 15 15" width="100%" height="30px" preserveAspectRatio="xMaxYMin meet">
         <g id="arrow_out" transform="scale(0.3 0.3)">
          <a xlink:href="classinitialize__options_a71b56485a92a10478bb1179e3294c013_cgraph_org.svg" target="_base">
           <rect id="button" ry="5" rx="5" y="6" x="6" height="38" width="38"
                fill="#f2f5e9" fill-opacity="0.5" stroke="#606060" stroke-width="1.0"/>
           <path id="arrow"
             d="M 11.500037,31.436501 C 11.940474,20.09759 22.043105,11.32322 32.158766,21.979434 L 37.068811,17.246167 C 37.068811,17.246167 37.088388,32 37.088388,32 L 22.160133,31.978069 C 22.160133,31.978069 26.997745,27.140456 26.997745,27.140456 C 18.528582,18.264221 13.291696,25.230495 11.500037,31.436501 z"
             style="fill:#404040;"/>
          </a>
         </g>
        </svg>
</svg>
