<?xml version="1.0" encoding="UTF-8" standalone="no"?>
<!DOCTYPE svg PUBLIC "-//W3C//DTD SVG 1.1//EN"
 "http://www.w3.org/Graphics/SVG/1.1/DTD/svg11.dtd">
<!-- Generated by graphviz version 2.32.0 (20130809.1645)
 -->
<!-- Title: pbl_simple::calc_virt_pot_temp_zgradient Pages: 1 -->
<svg width="594pt" height="38pt"
 viewBox="0.00 0.00 594.00 38.00" xmlns="http://www.w3.org/2000/svg" xmlns:xlink="http://www.w3.org/1999/xlink">
<g id="graph0" class="graph" transform="scale(1 1) rotate(0) translate(4 34)">
<title>pbl_simple::calc_virt_pot_temp_zgradient</title>
<polygon fill="white" stroke="white" points="-4,5 -4,-34 591,-34 591,5 -4,5"/>
<!-- Node1 -->
<g id="node1" class="node"><title>Node1</title>
<polygon fill="#bfbfbf" stroke="black" points="0.5,-0 0.5,-30 107.5,-30 107.5,-0 0.5,-0"/>
<text text-anchor="start" x="8.5" y="-18" font-family="Helvetica,sans-Serif" font-size="10.00">pbl_simple::calc_virt</text>
<text text-anchor="middle" x="54" y="-7" font-family="Helvetica,sans-Serif" font-size="10.00">_pot_temp_zgradient</text>
</g>
<!-- Node2 -->
<g id="node2" class="node"><title>Node2</title>
<g id="a_node2"><a xlink:href="classpbl__simple.html#a0c4a8ea58856a89e2ea7c5026ac60a08" target="_top" xlink:title="pbl_simple::simple_pbl">
<polygon fill="white" stroke="black" points="144,-5.5 144,-24.5 260,-24.5 260,-5.5 144,-5.5"/>
<text text-anchor="middle" x="202" y="-12.5" font-family="Helvetica,sans-Serif" font-size="10.00">pbl_simple::simple_pbl</text>
</a>
</g>
</g>
<!-- Node1&#45;&gt;Node2 -->
<g id="edge1" class="edge"><title>Node1&#45;&gt;Node2</title>
<path fill="none" stroke="midnightblue" d="M117.784,-15C126.469,-15 135.351,-15 143.925,-15"/>
<polygon fill="midnightblue" stroke="midnightblue" points="117.709,-11.5001 107.709,-15 117.709,-18.5001 117.709,-11.5001"/>
</g>
<!-- Node3 -->
<g id="node3" class="node"><title>Node3</title>
<g id="a_node3"><a xlink:href="classplanetary__boundary__layer.html#ac1da4433b1830b1d11a543b893a97c50" target="_top" xlink:title="planetary_boundary\l_layer::pbl">
<polygon fill="white" stroke="black" points="296.5,-0 296.5,-30 397.5,-30 397.5,-0 296.5,-0"/>
<text text-anchor="start" x="304.5" y="-18" font-family="Helvetica,sans-Serif" font-size="10.00">planetary_boundary</text>
<text text-anchor="middle" x="347" y="-7" font-family="Helvetica,sans-Serif" font-size="10.00">_layer::pbl</text>
</a>
</g>
</g>
<!-- Node2&#45;&gt;Node3 -->
<g id="edge2" class="edge"><title>Node2&#45;&gt;Node3</title>
<path fill="none" stroke="midnightblue" d="M270.535,-15C279.279,-15 288.101,-15 296.478,-15"/>
<polygon fill="midnightblue" stroke="midnightblue" points="270.34,-11.5001 260.34,-15 270.34,-18.5001 270.34,-11.5001"/>
</g>
<!-- Node4 -->
<g id="node4" class="node"><title>Node4</title>
<g id="a_node4"><a xlink:href="classtime__step.html#a2c022f11247af72e607b1493289aa974" target="_top" xlink:title=" Step forward one IO time step. ">
<polygon fill="white" stroke="black" points="434,-5.5 434,-24.5 518,-24.5 518,-5.5 434,-5.5"/>
<text text-anchor="middle" x="476" y="-12.5" font-family="Helvetica,sans-Serif" font-size="10.00">time_step::step</text>
</a>
</g>
</g>
<!-- Node3&#45;&gt;Node4 -->
<g id="edge3" class="edge"><title>Node3&#45;&gt;Node4</title>
<path fill="none" stroke="midnightblue" d="M408.035,-15C416.798,-15 425.648,-15 433.917,-15"/>
<polygon fill="midnightblue" stroke="midnightblue" points="407.829,-11.5001 397.829,-15 407.829,-18.5001 407.829,-11.5001"/>
</g>
<!-- Node5 -->
<g id="node5" class="node"><title>Node5</title>
<g id="a_node5"><a xlink:href="driver_8f90.html#ab1e5a5816a57fc6e95d9563c2bb53590" target="_top" xlink:title=" Main Program ">
<polygon fill="white" stroke="black" points="554,-5.5 554,-24.5 586,-24.5 586,-5.5 554,-5.5"/>
<text text-anchor="middle" x="570" y="-12.5" font-family="Helvetica,sans-Serif" font-size="10.00">icar</text>
</a>
</g>
</g>
<!-- Node4&#45;&gt;Node5 -->
<g id="edge4" class="edge"><title>Node4&#45;&gt;Node5</title>
<path fill="none" stroke="midnightblue" d="M528.253,-15C537.521,-15 546.5,-15 553.66,-15"/>
<polygon fill="midnightblue" stroke="midnightblue" points="528.156,-11.5001 518.156,-15 528.156,-18.5001 528.156,-11.5001"/>
</g>
</g>
</svg>
