<?xml version="1.0" encoding="UTF-8" standalone="no"?>
<!DOCTYPE svg PUBLIC "-//W3C//DTD SVG 1.1//EN"
 "http://www.w3.org/Graphics/SVG/1.1/DTD/svg11.dtd">
<!-- Generated by graphviz version 2.38.0 (20140413.2041)
 -->
<!-- Title: module_ra_simple::ra_simple Pages: 1 -->
<svg width="844pt" height="53pt"
 viewBox="0.00 0.00 844.00 52.50" xmlns="http://www.w3.org/2000/svg" xmlns:xlink="http://www.w3.org/1999/xlink">
<g id="graph0" class="graph" transform="scale(1 1) rotate(0) translate(4 48.5)">
<title>module_ra_simple::ra_simple</title>
<polygon fill="white" stroke="none" points="-4,4 -4,-48.5 840,-48.5 840,4 -4,4"/>
<!-- Node1 -->
<g id="node1" class="node"><title>Node1</title>
<polygon fill="#bfbfbf" stroke="black" points="0,-14 0,-44 110,-44 110,-14 0,-14"/>
<text text-anchor="start" x="8" y="-32" font-family="Helvetica,sans-Serif" font-size="10.00">module_ra_simple::ra</text>
<text text-anchor="middle" x="55" y="-21" font-family="Helvetica,sans-Serif" font-size="10.00">_simple</text>
</g>
<!-- Node2 -->
<g id="node2" class="node"><title>Node2</title>
<g id="a_node2"><a xlink:href="classradiation.html#aba1a06d27af96fe11d576458c8ccfe77" target="_top" xlink:title="radiation::rad">
<polygon fill="white" stroke="black" points="146,-19.5 146,-38.5 219,-38.5 219,-19.5 146,-19.5"/>
<text text-anchor="middle" x="182.5" y="-26.5" font-family="Helvetica,sans-Serif" font-size="10.00">radiation::rad</text>
</a>
</g>
</g>
<!-- Node1&#45;&gt;Node2 -->
<g id="edge1" class="edge"><title>Node1&#45;&gt;Node2</title>
<path fill="none" stroke="midnightblue" d="M120.549,-29C129.282,-29 137.969,-29 145.931,-29"/>
<polygon fill="midnightblue" stroke="midnightblue" points="120.316,-25.5001 110.316,-29 120.316,-32.5001 120.316,-25.5001"/>
</g>
<!-- Node3 -->
<g id="node3" class="node"><title>Node3</title>
<g id="a_node3"><a xlink:href="classtime__step.html#a2c022f11247af72e607b1493289aa974" target="_top" xlink:title=" Step forward one IO time step. ">
<polygon fill="white" stroke="black" points="684,-19.5 684,-38.5 768,-38.5 768,-19.5 684,-19.5"/>
<text text-anchor="middle" x="726" y="-26.5" font-family="Helvetica,sans-Serif" font-size="10.00">time_step::step</text>
</a>
</g>
</g>
<!-- Node2&#45;&gt;Node3 -->
<g id="edge2" class="edge"><title>Node2&#45;&gt;Node3</title>
<path fill="none" stroke="midnightblue" d="M229.175,-29C332.858,-29 584.677,-29 683.869,-29"/>
<polygon fill="midnightblue" stroke="midnightblue" points="229.029,-25.5001 219.029,-29 229.029,-32.5001 229.029,-25.5001"/>
</g>
<!-- Node5 -->
<g id="node5" class="node"><title>Node5</title>
<g id="a_node5"><a xlink:href="classmodule__cu__kf.html#afbc0670c02010c630409b1796e89a3fb" target="_top" xlink:title="module_cu_kf::kfpara">
<polygon fill="white" stroke="black" points="255,-0.5 255,-19.5 365,-19.5 365,-0.5 255,-0.5"/>
<text text-anchor="middle" x="310" y="-7.5" font-family="Helvetica,sans-Serif" font-size="10.00">module_cu_kf::kfpara</text>
</a>
</g>
</g>
<!-- Node2&#45;&gt;Node5 -->
<g id="edge4" class="edge"><title>Node2&#45;&gt;Node5</title>
<path fill="none" stroke="midnightblue" d="M229.116,-22.094C237.522,-20.8214 246.372,-19.4816 254.997,-18.1757"/>
<polygon fill="midnightblue" stroke="midnightblue" points="228.491,-18.6486 219.128,-23.6062 229.539,-25.5698 228.491,-18.6486"/>
</g>
<!-- Node4 -->
<g id="node4" class="node"><title>Node4</title>
<g id="a_node4"><a xlink:href="driver_8f90.html#ab1e5a5816a57fc6e95d9563c2bb53590" target="_top" xlink:title=" Main Program ">
<polygon fill="white" stroke="black" points="804,-19.5 804,-38.5 836,-38.5 836,-19.5 804,-19.5"/>
<text text-anchor="middle" x="820" y="-26.5" font-family="Helvetica,sans-Serif" font-size="10.00">icar</text>
</a>
</g>
</g>
<!-- Node3&#45;&gt;Node4 -->
<g id="edge3" class="edge"><title>Node3&#45;&gt;Node4</title>
<path fill="none" stroke="midnightblue" d="M778.253,-29C787.521,-29 796.5,-29 803.66,-29"/>
<polygon fill="midnightblue" stroke="midnightblue" points="778.156,-25.5001 768.156,-29 778.156,-32.5001 778.156,-25.5001"/>
</g>
<!-- Node6 -->
<g id="node6" class="node"><title>Node6</title>
<g id="a_node6"><a xlink:href="classmodule__cu__kf.html#a273d9ce9bce064bfc092d6940bea4e27" target="_top" xlink:title="module_cu_kf::kfcps">
<polygon fill="white" stroke="black" points="401,-0.5 401,-19.5 508,-19.5 508,-0.5 401,-0.5"/>
<text text-anchor="middle" x="454.5" y="-7.5" font-family="Helvetica,sans-Serif" font-size="10.00">module_cu_kf::kfcps</text>
</a>
</g>
</g>
<!-- Node5&#45;&gt;Node6 -->
<g id="edge5" class="edge"><title>Node5&#45;&gt;Node6</title>
<path fill="none" stroke="midnightblue" d="M375.503,-10C383.962,-10 392.55,-10 400.783,-10"/>
<polygon fill="midnightblue" stroke="midnightblue" points="375.28,-6.5001 365.28,-10 375.28,-13.5001 375.28,-6.5001"/>
</g>
<!-- Node7 -->
<g id="node7" class="node"><title>Node7</title>
<g id="a_node7"><a xlink:href="classconvection.html#a06b811540eb747b3734e7fb35de41782" target="_top" xlink:title="convection::convect">
<polygon fill="white" stroke="black" points="544,-0.5 544,-19.5 648,-19.5 648,-0.5 544,-0.5"/>
<text text-anchor="middle" x="596" y="-7.5" font-family="Helvetica,sans-Serif" font-size="10.00">convection::convect</text>
</a>
</g>
</g>
<!-- Node6&#45;&gt;Node7 -->
<g id="edge6" class="edge"><title>Node6&#45;&gt;Node7</title>
<path fill="none" stroke="midnightblue" d="M518.409,-10C526.828,-10 535.382,-10 543.572,-10"/>
<polygon fill="midnightblue" stroke="midnightblue" points="518.239,-6.5001 508.239,-10 518.239,-13.5001 518.239,-6.5001"/>
</g>
<!-- Node7&#45;&gt;Node3 -->
<g id="edge7" class="edge"><title>Node7&#45;&gt;Node3</title>
<path fill="none" stroke="midnightblue" d="M658.406,-19.115C667.051,-20.3982 675.759,-21.6907 683.897,-22.8988"/>
<polygon fill="midnightblue" stroke="midnightblue" points="658.731,-15.6249 648.325,-17.6185 657.703,-22.549 658.731,-15.6249"/>
</g>
</g>
</svg>
