<?xml version="1.0" encoding="UTF-8" standalone="no"?>
<!DOCTYPE svg PUBLIC "-//W3C//DTD SVG 1.1//EN"
 "http://www.w3.org/Graphics/SVG/1.1/DTD/svg11.dtd">
<!-- Generated by graphviz version 2.38.0 (20140413.2041)
 -->
<!-- Title: convection::init_convection Pages: 1 -->
<svg width="283pt" height="78pt"
 viewBox="0.00 0.00 283.00 77.50" xmlns="http://www.w3.org/2000/svg" xmlns:xlink="http://www.w3.org/1999/xlink">
<g id="graph0" class="graph" transform="scale(1 1) rotate(0) translate(4 73.5)">
<title>convection::init_convection</title>
<polygon fill="white" stroke="none" points="-4,4 -4,-73.5 279,-73.5 279,4 -4,4"/>
<!-- Node1 -->
<g id="node1" class="node"><title>Node1</title>
<polygon fill="#bfbfbf" stroke="black" points="0,-22.5 0,-41.5 135,-41.5 135,-22.5 0,-22.5"/>
<text text-anchor="middle" x="67.5" y="-29.5" font-family="Helvetica,sans-Serif" font-size="10.00">convection::init_convection</text>
</g>
<!-- Node2 -->
<g id="node2" class="node"><title>Node2</title>
<g id="a_node2"><a xlink:href="classmodule__cu__tiedtke.html#a60f0cad4dfe50584efbfe0fd3f2e4d33" target="_top" xlink:title="module_cu_tiedtke::\ltiedtkeinit">
<polygon fill="white" stroke="black" points="171,-39 171,-69 275,-69 275,-39 171,-39"/>
<text text-anchor="start" x="179" y="-57" font-family="Helvetica,sans-Serif" font-size="10.00">module_cu_tiedtke::</text>
<text text-anchor="middle" x="223" y="-46" font-family="Helvetica,sans-Serif" font-size="10.00">tiedtkeinit</text>
</a>
</g>
</g>
<!-- Node1&#45;&gt;Node2 -->
<g id="edge1" class="edge"><title>Node1&#45;&gt;Node2</title>
<path fill="none" stroke="midnightblue" d="M134.935,-41.5216C143.46,-42.7435 152.158,-43.9901 160.599,-45.1998"/>
<polygon fill="midnightblue" stroke="midnightblue" points="160.341,-48.6986 170.737,-46.6528 161.334,-41.7694 160.341,-48.6986"/>
</g>
<!-- Node3 -->
<g id="node3" class="node"><title>Node3</title>
<g id="a_node3"><a xlink:href="classmodule__cu__kf.html#a1220d4bd1b534a12c94b07e3f45ebec4" target="_top" xlink:title="module_cu_kf::kfinit">
<polygon fill="white" stroke="black" points="171,-0.5 171,-19.5 275,-19.5 275,-0.5 171,-0.5"/>
<text text-anchor="middle" x="223" y="-7.5" font-family="Helvetica,sans-Serif" font-size="10.00">module_cu_kf::kfinit</text>
</a>
</g>
</g>
<!-- Node1&#45;&gt;Node3 -->
<g id="edge2" class="edge"><title>Node1&#45;&gt;Node3</title>
<path fill="none" stroke="midnightblue" d="M134.935,-22.4784C143.46,-21.2565 152.158,-20.0099 160.599,-18.8002"/>
<polygon fill="midnightblue" stroke="midnightblue" points="161.334,-22.2306 170.737,-17.3472 160.341,-15.3014 161.334,-22.2306"/>
</g>
</g>
</svg>
