<?xml version="1.0" encoding="UTF-8" standalone="no"?>
<!DOCTYPE svg PUBLIC "-//W3C//DTD SVG 1.1//EN"
 "http://www.w3.org/Graphics/SVG/1.1/DTD/svg11.dtd">
<!-- Generated by graphviz version 2.38.0 (20140413.2041)
 -->
<!-- Title: microphysics::mp_init Pages: 1 -->
<svg width="894pt" height="310pt"
 viewBox="0.00 0.00 894.00 310.43" xmlns="http://www.w3.org/2000/svg" xmlns:xlink="http://www.w3.org/1999/xlink">
<g id="graph0" class="graph" transform="scale(1 1) rotate(0) translate(4 306.428)">
<title>microphysics::mp_init</title>
<polygon fill="white" stroke="none" points="-4,4 -4,-306.428 890,-306.428 890,4 -4,4"/>
<!-- Node1 -->
<g id="node1" class="node"><title>Node1</title>
<polygon fill="#bfbfbf" stroke="black" points="0,-153 0,-172 112,-172 112,-153 0,-153"/>
<text text-anchor="middle" x="56" y="-160" font-family="Helvetica,sans-Serif" font-size="10.00">microphysics::mp_init</text>
</g>
<!-- Node2 -->
<g id="node2" class="node"><title>Node2</title>
<g id="a_node2"><a xlink:href="classmodule__mp__thompson.html#ac48fd402382d0687fe2a123025ba6a13" target="_top" xlink:title="module_mp_thompson\l::thompson_init">
<polygon fill="white" stroke="black" points="148,-147.5 148,-177.5 263,-177.5 263,-147.5 148,-147.5"/>
<text text-anchor="start" x="156" y="-165.5" font-family="Helvetica,sans-Serif" font-size="10.00">module_mp_thompson</text>
<text text-anchor="middle" x="205.5" y="-154.5" font-family="Helvetica,sans-Serif" font-size="10.00">::thompson_init</text>
</a>
</g>
</g>
<!-- Node1&#45;&gt;Node2 -->
<g id="edge1" class="edge"><title>Node1&#45;&gt;Node2</title>
<path fill="none" stroke="midnightblue" d="M112.343,-162.5C120.596,-162.5 129.177,-162.5 137.636,-162.5"/>
<polygon fill="midnightblue" stroke="midnightblue" points="137.863,-166 147.863,-162.5 137.863,-159 137.863,-166"/>
</g>
<!-- Node3 -->
<g id="node3" class="node"><title>Node3</title>
<g id="a_node3"><a xlink:href="classmodule__mp__thompson.html#a8a455cb4e751f42fa53a31bb47649767" target="_top" xlink:title="module_mp_thompson\l::wgamma">
<polygon fill="white" stroke="black" points="450,-263.5 450,-293.5 565,-293.5 565,-263.5 450,-263.5"/>
<text text-anchor="start" x="458" y="-281.5" font-family="Helvetica,sans-Serif" font-size="10.00">module_mp_thompson</text>
<text text-anchor="middle" x="507.5" y="-270.5" font-family="Helvetica,sans-Serif" font-size="10.00">::wgamma</text>
</a>
</g>
</g>
<!-- Node2&#45;&gt;Node3 -->
<g id="edge2" class="edge"><title>Node2&#45;&gt;Node3</title>
<path fill="none" stroke="midnightblue" d="M212.531,-177.854C224.323,-205.457 253.34,-262.707 299,-285.5 343.785,-307.856 401.04,-303.898 444.058,-295.596"/>
<polygon fill="midnightblue" stroke="midnightblue" points="445.026,-298.97 454.116,-293.527 443.616,-292.114 445.026,-298.97"/>
</g>
<!-- Node5 -->
<g id="node5" class="node"><title>Node5</title>
<g id="a_node5"><a xlink:href="classmodule__mp__thompson.html#aafc69c30a2dad10d06a05f1b7239926c" target="_top" xlink:title="module_mp_thompson\l::table_efrw">
<polygon fill="white" stroke="black" points="299,-245.5 299,-275.5 414,-275.5 414,-245.5 299,-245.5"/>
<text text-anchor="start" x="307" y="-263.5" font-family="Helvetica,sans-Serif" font-size="10.00">module_mp_thompson</text>
<text text-anchor="middle" x="356.5" y="-252.5" font-family="Helvetica,sans-Serif" font-size="10.00">::table_efrw</text>
</a>
</g>
</g>
<!-- Node2&#45;&gt;Node5 -->
<g id="edge4" class="edge"><title>Node2&#45;&gt;Node5</title>
<path fill="none" stroke="midnightblue" d="M222.532,-177.604C240.223,-193.704 270.041,-219.211 299,-236.5 301.615,-238.061 304.35,-239.573 307.147,-241.027"/>
<polygon fill="midnightblue" stroke="midnightblue" points="305.691,-244.211 316.211,-245.463 308.767,-237.923 305.691,-244.211"/>
</g>
<!-- Node6 -->
<g id="node6" class="node"><title>Node6</title>
<g id="a_node6"><a xlink:href="classmodule__mp__thompson.html#ab74dffc6baa178d41426700bfd1a08c6" target="_top" xlink:title="module_mp_thompson\l::table_efsw">
<polygon fill="white" stroke="black" points="299,-196.5 299,-226.5 414,-226.5 414,-196.5 299,-196.5"/>
<text text-anchor="start" x="307" y="-214.5" font-family="Helvetica,sans-Serif" font-size="10.00">module_mp_thompson</text>
<text text-anchor="middle" x="356.5" y="-203.5" font-family="Helvetica,sans-Serif" font-size="10.00">::table_efsw</text>
</a>
</g>
</g>
<!-- Node2&#45;&gt;Node6 -->
<g id="edge5" class="edge"><title>Node2&#45;&gt;Node6</title>
<path fill="none" stroke="midnightblue" d="M252.421,-177.601C267.503,-182.562 284.428,-188.127 300.136,-193.293"/>
<polygon fill="midnightblue" stroke="midnightblue" points="299.138,-196.649 309.731,-196.448 301.325,-190 299.138,-196.649"/>
</g>
<!-- Node7 -->
<g id="node7" class="node"><title>Node7</title>
<g id="a_node7"><a xlink:href="classmodule__mp__thompson.html#ac898e25fc9f98509e6110b13be2a0f47" target="_top" xlink:title="module_mp_thompson\l::qr_acr_qg">
<polygon fill="white" stroke="black" points="299,-147.5 299,-177.5 414,-177.5 414,-147.5 299,-147.5"/>
<text text-anchor="start" x="307" y="-165.5" font-family="Helvetica,sans-Serif" font-size="10.00">module_mp_thompson</text>
<text text-anchor="middle" x="356.5" y="-154.5" font-family="Helvetica,sans-Serif" font-size="10.00">::qr_acr_qg</text>
</a>
</g>
</g>
<!-- Node2&#45;&gt;Node7 -->
<g id="edge6" class="edge"><title>Node2&#45;&gt;Node7</title>
<path fill="none" stroke="midnightblue" d="M263.256,-162.5C271.558,-162.5 280.173,-162.5 288.654,-162.5"/>
<polygon fill="midnightblue" stroke="midnightblue" points="288.902,-166 298.902,-162.5 288.902,-159 288.902,-166"/>
</g>
<!-- Node8 -->
<g id="node8" class="node"><title>Node8</title>
<g id="a_node8"><a xlink:href="classmodule__mp__thompson.html#abcd924082fb7889d94345fcd108bc7ae" target="_top" xlink:title="module_mp_thompson\l::qr_acr_qs">
<polygon fill="white" stroke="black" points="299,-98.5 299,-128.5 414,-128.5 414,-98.5 299,-98.5"/>
<text text-anchor="start" x="307" y="-116.5" font-family="Helvetica,sans-Serif" font-size="10.00">module_mp_thompson</text>
<text text-anchor="middle" x="356.5" y="-105.5" font-family="Helvetica,sans-Serif" font-size="10.00">::qr_acr_qs</text>
</a>
</g>
</g>
<!-- Node2&#45;&gt;Node8 -->
<g id="edge7" class="edge"><title>Node2&#45;&gt;Node8</title>
<path fill="none" stroke="midnightblue" d="M252.421,-147.399C267.503,-142.438 284.428,-136.873 300.136,-131.707"/>
<polygon fill="midnightblue" stroke="midnightblue" points="301.325,-135 309.731,-128.552 299.138,-128.351 301.325,-135"/>
</g>
<!-- Node9 -->
<g id="node9" class="node"><title>Node9</title>
<g id="a_node9"><a xlink:href="classmodule__mp__thompson.html#aef8e7a0baae69fe6c2719f923b818fe4" target="_top" xlink:title="module_mp_thompson\l::freezeh2o">
<polygon fill="white" stroke="black" points="299,-49.5 299,-79.5 414,-79.5 414,-49.5 299,-49.5"/>
<text text-anchor="start" x="307" y="-67.5" font-family="Helvetica,sans-Serif" font-size="10.00">module_mp_thompson</text>
<text text-anchor="middle" x="356.5" y="-56.5" font-family="Helvetica,sans-Serif" font-size="10.00">::freezeh2o</text>
</a>
</g>
</g>
<!-- Node2&#45;&gt;Node9 -->
<g id="edge8" class="edge"><title>Node2&#45;&gt;Node9</title>
<path fill="none" stroke="midnightblue" d="M222.945,-147.412C240.748,-131.6 270.439,-106.711 299,-89.5 302.124,-87.6176 305.414,-85.7943 308.772,-84.0475"/>
<polygon fill="midnightblue" stroke="midnightblue" points="310.333,-87.1801 317.75,-79.6144 307.234,-80.9035 310.333,-87.1801"/>
</g>
<!-- Node10 -->
<g id="node10" class="node"><title>Node10</title>
<g id="a_node10"><a xlink:href="classmodule__mp__thompson.html#a38c4bc57c8dd450c76cc65b1991cf23d" target="_top" xlink:title="module_mp_thompson\l::qi_aut_qs">
<polygon fill="white" stroke="black" points="299,-0.5 299,-30.5 414,-30.5 414,-0.5 299,-0.5"/>
<text text-anchor="start" x="307" y="-18.5" font-family="Helvetica,sans-Serif" font-size="10.00">module_mp_thompson</text>
<text text-anchor="middle" x="356.5" y="-7.5" font-family="Helvetica,sans-Serif" font-size="10.00">::qi_aut_qs</text>
</a>
</g>
</g>
<!-- Node2&#45;&gt;Node10 -->
<g id="edge9" class="edge"><title>Node2&#45;&gt;Node10</title>
<path fill="none" stroke="midnightblue" d="M214.46,-147.219C228.43,-121.726 259.647,-70.2852 299,-39.5 300.605,-38.2442 302.286,-37.042 304.022,-35.8926"/>
<polygon fill="midnightblue" stroke="midnightblue" points="306.219,-38.6617 313.069,-30.5795 302.674,-32.6256 306.219,-38.6617"/>
</g>
<!-- Node4 -->
<g id="node4" class="node"><title>Node4</title>
<g id="a_node4"><a xlink:href="classmodule__mp__thompson.html#a529ff675223a2d57e5e67a26707638cd" target="_top" xlink:title="module_mp_thompson\l::gammln">
<polygon fill="white" stroke="black" points="771,-144.5 771,-174.5 886,-174.5 886,-144.5 771,-144.5"/>
<text text-anchor="start" x="779" y="-162.5" font-family="Helvetica,sans-Serif" font-size="10.00">module_mp_thompson</text>
<text text-anchor="middle" x="828.5" y="-151.5" font-family="Helvetica,sans-Serif" font-size="10.00">::gammln</text>
</a>
</g>
</g>
<!-- Node3&#45;&gt;Node4 -->
<g id="edge3" class="edge"><title>Node3&#45;&gt;Node4</title>
<path fill="none" stroke="midnightblue" d="M548.902,-263.429C607.067,-241.73 714.327,-201.718 777.44,-178.175"/>
<polygon fill="midnightblue" stroke="midnightblue" points="779.029,-181.317 787.175,-174.543 776.583,-174.759 779.029,-181.317"/>
</g>
<!-- Node11 -->
<g id="node11" class="node"><title>Node11</title>
<g id="a_node11"><a xlink:href="classmodule__mp__thompson.html#a1f946ed505cb00dda905c9a8c773b9be" target="_top" xlink:title="module_mp_thompson\l::gammp">
<polygon fill="white" stroke="black" points="450,-100.5 450,-130.5 565,-130.5 565,-100.5 450,-100.5"/>
<text text-anchor="start" x="458" y="-118.5" font-family="Helvetica,sans-Serif" font-size="10.00">module_mp_thompson</text>
<text text-anchor="middle" x="507.5" y="-107.5" font-family="Helvetica,sans-Serif" font-size="10.00">::gammp</text>
</a>
</g>
</g>
<!-- Node10&#45;&gt;Node11 -->
<g id="edge10" class="edge"><title>Node10&#45;&gt;Node11</title>
<path fill="none" stroke="midnightblue" d="M397.126,-30.6141C402.922,-33.3133 408.713,-36.2969 414,-39.5 439.435,-54.9107 465.334,-76.837 483.233,-93.181"/>
<polygon fill="midnightblue" stroke="midnightblue" points="481.15,-96.0227 490.864,-100.254 485.909,-90.889 481.15,-96.0227"/>
</g>
<!-- Node12 -->
<g id="node12" class="node"><title>Node12</title>
<g id="a_node12"><a xlink:href="classmodule__mp__thompson.html#af4069d16cc3cbf9a1c493ae5314f4484" target="_top" xlink:title="module_mp_thompson\l::gser">
<polygon fill="white" stroke="black" points="610.5,-144.5 610.5,-174.5 725.5,-174.5 725.5,-144.5 610.5,-144.5"/>
<text text-anchor="start" x="618.5" y="-162.5" font-family="Helvetica,sans-Serif" font-size="10.00">module_mp_thompson</text>
<text text-anchor="middle" x="668" y="-151.5" font-family="Helvetica,sans-Serif" font-size="10.00">::gser</text>
</a>
</g>
</g>
<!-- Node11&#45;&gt;Node12 -->
<g id="edge11" class="edge"><title>Node11&#45;&gt;Node12</title>
<path fill="none" stroke="midnightblue" d="M562.603,-130.519C575.665,-134.145 589.744,-138.053 603.203,-141.79"/>
<polygon fill="midnightblue" stroke="midnightblue" points="602.3,-145.171 612.872,-144.474 604.172,-138.426 602.3,-145.171"/>
</g>
<!-- Node13 -->
<g id="node13" class="node"><title>Node13</title>
<g id="a_node13"><a xlink:href="classmodule__mp__thompson.html#ae708350e2b07c93cbab0a8f77752e063" target="_top" xlink:title="module_mp_thompson::gcf">
<polygon fill="white" stroke="black" points="601,-106 601,-125 735,-125 735,-106 601,-106"/>
<text text-anchor="middle" x="668" y="-113" font-family="Helvetica,sans-Serif" font-size="10.00">module_mp_thompson::gcf</text>
</a>
</g>
</g>
<!-- Node11&#45;&gt;Node13 -->
<g id="edge13" class="edge"><title>Node11&#45;&gt;Node13</title>
<path fill="none" stroke="midnightblue" d="M565.274,-115.5C573.574,-115.5 582.233,-115.5 590.842,-115.5"/>
<polygon fill="midnightblue" stroke="midnightblue" points="590.903,-119 600.903,-115.5 590.903,-112 590.903,-119"/>
</g>
<!-- Node12&#45;&gt;Node4 -->
<g id="edge12" class="edge"><title>Node12&#45;&gt;Node4</title>
<path fill="none" stroke="midnightblue" d="M725.774,-159.5C737.11,-159.5 749.115,-159.5 760.751,-159.5"/>
<polygon fill="midnightblue" stroke="midnightblue" points="760.856,-163 770.856,-159.5 760.856,-156 760.856,-163"/>
</g>
<!-- Node13&#45;&gt;Node4 -->
<g id="edge14" class="edge"><title>Node13&#45;&gt;Node4</title>
<path fill="none" stroke="midnightblue" d="M703.392,-125.047C720.998,-129.935 743.009,-136.045 763.585,-141.757"/>
<polygon fill="midnightblue" stroke="midnightblue" points="762.659,-145.132 773.23,-144.435 764.531,-138.387 762.659,-145.132"/>
</g>
</g>
</svg>
