<?xml version="1.0" encoding="UTF-8" standalone="no"?>
<!DOCTYPE svg PUBLIC "-//W3C//DTD SVG 1.1//EN"
 "http://www.w3.org/Graphics/SVG/1.1/DTD/svg11.dtd">
<!-- Generated by graphviz version 2.32.0 (20130809.1645)
 -->
<!-- Title: module_cu_tiedtke::ssum Pages: 1 -->
<svg width="1024pt" height="38pt"
 viewBox="0.00 0.00 1024.00 38.00" xmlns="http://www.w3.org/2000/svg" xmlns:xlink="http://www.w3.org/1999/xlink">
<g id="graph0" class="graph" transform="scale(1 1) rotate(0) translate(4 34)">
<title>module_cu_tiedtke::ssum</title>
<polygon fill="white" stroke="white" points="-4,5 -4,-34 1021,-34 1021,5 -4,5"/>
<!-- Node1 -->
<g id="node1" class="node"><title>Node1</title>
<polygon fill="#bfbfbf" stroke="black" points="0,-5.5 0,-24.5 128,-24.5 128,-5.5 0,-5.5"/>
<text text-anchor="middle" x="64" y="-12.5" font-family="Helvetica,sans-Serif" font-size="10.00">module_cu_tiedtke::ssum</text>
</g>
<!-- Node2 -->
<g id="node2" class="node"><title>Node2</title>
<g id="a_node2"><a xlink:href="classmodule__cu__tiedtke.html#a37c132c8ddca6fc509a2fe98724600f2" target="_top" xlink:title="module_cu_tiedtke::\lcududv">
<polygon fill="white" stroke="black" points="164,-0 164,-30 268,-30 268,-0 164,-0"/>
<text text-anchor="start" x="172" y="-18" font-family="Helvetica,sans-Serif" font-size="10.00">module_cu_tiedtke::</text>
<text text-anchor="middle" x="216" y="-7" font-family="Helvetica,sans-Serif" font-size="10.00">cududv</text>
</a>
</g>
</g>
<!-- Node1&#45;&gt;Node2 -->
<g id="edge1" class="edge"><title>Node1&#45;&gt;Node2</title>
<path fill="none" stroke="midnightblue" d="M138.246,-15C146.856,-15 155.498,-15 163.716,-15"/>
<polygon fill="midnightblue" stroke="midnightblue" points="138.179,-11.5001 128.179,-15 138.179,-18.5001 138.179,-11.5001"/>
</g>
<!-- Node3 -->
<g id="node3" class="node"><title>Node3</title>
<g id="a_node3"><a xlink:href="classmodule__cu__tiedtke.html#a8840397e245a13cbb7c61f8cea6e7894" target="_top" xlink:title="module_cu_tiedtke::\lcumastr_new">
<polygon fill="white" stroke="black" points="304,-0 304,-30 408,-30 408,-0 304,-0"/>
<text text-anchor="start" x="312" y="-18" font-family="Helvetica,sans-Serif" font-size="10.00">module_cu_tiedtke::</text>
<text text-anchor="middle" x="356" y="-7" font-family="Helvetica,sans-Serif" font-size="10.00">cumastr_new</text>
</a>
</g>
</g>
<!-- Node2&#45;&gt;Node3 -->
<g id="edge2" class="edge"><title>Node2&#45;&gt;Node3</title>
<path fill="none" stroke="midnightblue" d="M278.496,-15C286.872,-15 295.398,-15 303.571,-15"/>
<polygon fill="midnightblue" stroke="midnightblue" points="278.386,-11.5001 268.386,-15 278.386,-18.5001 278.386,-11.5001"/>
</g>
<!-- Node4 -->
<g id="node4" class="node"><title>Node4</title>
<g id="a_node4"><a xlink:href="classmodule__cu__tiedtke.html#ae9c234f80f55688e10c72091b6c673dc" target="_top" xlink:title="module_cu_tiedtke::\ltiecnv">
<polygon fill="white" stroke="black" points="444,-0 444,-30 548,-30 548,-0 444,-0"/>
<text text-anchor="start" x="452" y="-18" font-family="Helvetica,sans-Serif" font-size="10.00">module_cu_tiedtke::</text>
<text text-anchor="middle" x="496" y="-7" font-family="Helvetica,sans-Serif" font-size="10.00">tiecnv</text>
</a>
</g>
</g>
<!-- Node3&#45;&gt;Node4 -->
<g id="edge3" class="edge"><title>Node3&#45;&gt;Node4</title>
<path fill="none" stroke="midnightblue" d="M418.496,-15C426.872,-15 435.398,-15 443.571,-15"/>
<polygon fill="midnightblue" stroke="midnightblue" points="418.386,-11.5001 408.386,-15 418.386,-18.5001 418.386,-11.5001"/>
</g>
<!-- Node5 -->
<g id="node5" class="node"><title>Node5</title>
<g id="a_node5"><a xlink:href="classmodule__cu__tiedtke.html#ae3fdba4e560c50ab3f6b9f1e30f2f255" target="_top" xlink:title="module_cu_tiedtke::\lcu_tiedtke">
<polygon fill="white" stroke="black" points="584,-0 584,-30 688,-30 688,-0 584,-0"/>
<text text-anchor="start" x="592" y="-18" font-family="Helvetica,sans-Serif" font-size="10.00">module_cu_tiedtke::</text>
<text text-anchor="middle" x="636" y="-7" font-family="Helvetica,sans-Serif" font-size="10.00">cu_tiedtke</text>
</a>
</g>
</g>
<!-- Node4&#45;&gt;Node5 -->
<g id="edge4" class="edge"><title>Node4&#45;&gt;Node5</title>
<path fill="none" stroke="midnightblue" d="M558.496,-15C566.872,-15 575.398,-15 583.571,-15"/>
<polygon fill="midnightblue" stroke="midnightblue" points="558.386,-11.5001 548.386,-15 558.386,-18.5001 558.386,-11.5001"/>
</g>
<!-- Node6 -->
<g id="node6" class="node"><title>Node6</title>
<g id="a_node6"><a xlink:href="classconvection.html#a06b811540eb747b3734e7fb35de41782" target="_top" xlink:title="convection::convect">
<polygon fill="white" stroke="black" points="724,-5.5 724,-24.5 828,-24.5 828,-5.5 724,-5.5"/>
<text text-anchor="middle" x="776" y="-12.5" font-family="Helvetica,sans-Serif" font-size="10.00">convection::convect</text>
</a>
</g>
</g>
<!-- Node5&#45;&gt;Node6 -->
<g id="edge5" class="edge"><title>Node5&#45;&gt;Node6</title>
<path fill="none" stroke="midnightblue" d="M698.496,-15C706.872,-15 715.398,-15 723.571,-15"/>
<polygon fill="midnightblue" stroke="midnightblue" points="698.386,-11.5001 688.386,-15 698.386,-18.5001 698.386,-11.5001"/>
</g>
<!-- Node7 -->
<g id="node7" class="node"><title>Node7</title>
<g id="a_node7"><a xlink:href="classtime__step.html#a2c022f11247af72e607b1493289aa974" target="_top" xlink:title=" Step forward one IO time step. ">
<polygon fill="white" stroke="black" points="864,-5.5 864,-24.5 948,-24.5 948,-5.5 864,-5.5"/>
<text text-anchor="middle" x="906" y="-12.5" font-family="Helvetica,sans-Serif" font-size="10.00">time_step::step</text>
</a>
</g>
</g>
<!-- Node6&#45;&gt;Node7 -->
<g id="edge6" class="edge"><title>Node6&#45;&gt;Node7</title>
<path fill="none" stroke="midnightblue" d="M838.406,-15C847.051,-15 855.759,-15 863.897,-15"/>
<polygon fill="midnightblue" stroke="midnightblue" points="838.325,-11.5001 828.325,-15 838.325,-18.5001 838.325,-11.5001"/>
</g>
<!-- Node8 -->
<g id="node8" class="node"><title>Node8</title>
<g id="a_node8"><a xlink:href="driver_8f90.html#ab1e5a5816a57fc6e95d9563c2bb53590" target="_top" xlink:title=" Main Program ">
<polygon fill="white" stroke="black" points="984,-5.5 984,-24.5 1016,-24.5 1016,-5.5 984,-5.5"/>
<text text-anchor="middle" x="1000" y="-12.5" font-family="Helvetica,sans-Serif" font-size="10.00">icar</text>
</a>
</g>
</g>
<!-- Node7&#45;&gt;Node8 -->
<g id="edge7" class="edge"><title>Node7&#45;&gt;Node8</title>
<path fill="none" stroke="midnightblue" d="M958.253,-15C967.521,-15 976.5,-15 983.66,-15"/>
<polygon fill="midnightblue" stroke="midnightblue" points="958.156,-11.5001 948.156,-15 958.156,-18.5001 958.156,-11.5001"/>
</g>
</g>
</svg>
