<?xml version="1.0" encoding="UTF-8" standalone="no"?>
<!DOCTYPE svg PUBLIC "-//W3C//DTD SVG 1.1//EN"
 "http://www.w3.org/Graphics/SVG/1.1/DTD/svg11.dtd">
<!-- Generated by graphviz version 2.32.0 (20130809.1645)
 -->
<!-- Title: init::init_domain Pages: 1 -->
<svg width="392pt" height="310pt"
 viewBox="0.00 0.00 392.00 310.00" xmlns="http://www.w3.org/2000/svg" xmlns:xlink="http://www.w3.org/1999/xlink">
<g id="graph0" class="graph" transform="scale(1 1) rotate(0) translate(4 306)">
<title>init::init_domain</title>
<polygon fill="white" stroke="white" points="-4,5 -4,-306 389,-306 389,5 -4,5"/>
<!-- Node1 -->
<g id="node1" class="node"><title>Node1</title>
<polygon fill="#bfbfbf" stroke="black" points="0.5,-133.5 0.5,-152.5 85.5,-152.5 85.5,-133.5 0.5,-133.5"/>
<text text-anchor="middle" x="43" y="-140.5" font-family="Helvetica,sans-Serif" font-size="10.00">init::init_domain</text>
</g>
<!-- Node2 -->
<g id="node2" class="node"><title>Node2</title>
<g id="a_node2"><a xlink:href="interfaceio__routines_1_1io__read.html#a35290f3b01bd8f36bae0173749f6b870" target="_top" xlink:title=" Same as io_read3d but for 2&#45;dimensional data ">
<polygon fill="white" stroke="black" points="279.5,-272 279.5,-302 380.5,-302 380.5,-272 279.5,-272"/>
<text text-anchor="start" x="287.5" y="-290" font-family="Helvetica,sans-Serif" font-size="10.00">io_routines::io_read</text>
<text text-anchor="middle" x="330" y="-279" font-family="Helvetica,sans-Serif" font-size="10.00">::io_read2d</text>
</a>
</g>
</g>
<!-- Node1&#45;&gt;Node2 -->
<g id="edge1" class="edge"><title>Node1&#45;&gt;Node2</title>
<path fill="none" stroke="midnightblue" d="M47.46,-152.657C56.0921,-175.212 80.8892,-231.378 122,-257 165.937,-284.383 225.137,-290.571 268.973,-290.678"/>
<polygon fill="midnightblue" stroke="midnightblue" points="269.233,-294.176 279.204,-290.594 269.176,-287.176 269.233,-294.176"/>
</g>
<!-- Node3 -->
<g id="node3" class="node"><title>Node3</title>
<g id="a_node3"><a xlink:href="classinit.html#a12de2a1a2b6818e778283cc79e883f88" target="_top" xlink:title="init::convert_longitudes">
<polygon fill="white" stroke="black" points="122.5,-152.5 122.5,-171.5 239.5,-171.5 239.5,-152.5 122.5,-152.5"/>
<text text-anchor="middle" x="181" y="-159.5" font-family="Helvetica,sans-Serif" font-size="10.00">init::convert_longitudes</text>
</a>
</g>
</g>
<!-- Node1&#45;&gt;Node3 -->
<g id="edge2" class="edge"><title>Node1&#45;&gt;Node3</title>
<path fill="none" stroke="midnightblue" d="M85.5435,-148.804C93.9433,-149.977 102.981,-151.24 112.019,-152.503"/>
<polygon fill="midnightblue" stroke="midnightblue" points="111.8,-156.006 122.188,-153.923 112.769,-149.073 111.8,-156.006"/>
</g>
<!-- Node4 -->
<g id="node4" class="node"><title>Node4</title>
<g id="a_node4"><a xlink:href="classinit.html#ad8a43afe3ab7ba952332c174b2c9587c" target="_top" xlink:title="init::remove_edges">
<polygon fill="white" stroke="black" points="131.5,-114.5 131.5,-133.5 230.5,-133.5 230.5,-114.5 131.5,-114.5"/>
<text text-anchor="middle" x="181" y="-121.5" font-family="Helvetica,sans-Serif" font-size="10.00">init::remove_edges</text>
</a>
</g>
</g>
<!-- Node1&#45;&gt;Node4 -->
<g id="edge3" class="edge"><title>Node1&#45;&gt;Node4</title>
<path fill="none" stroke="midnightblue" d="M85.5435,-137.196C96.7726,-135.627 109.142,-133.899 121.126,-132.225"/>
<polygon fill="midnightblue" stroke="midnightblue" points="121.649,-135.686 131.069,-130.836 120.681,-128.753 121.649,-135.686"/>
</g>
<!-- Node5 -->
<g id="node5" class="node"><title>Node5</title>
<g id="a_node5"><a xlink:href="interfaceio__routines_1_1io__read.html#a9b6dacfccbb234dd949e7136e5b67f8c" target="_top" xlink:title=" Same as io_read6d but for 3&#45;dimensional data ">
<polygon fill="white" stroke="black" points="279.5,-174 279.5,-204 380.5,-204 380.5,-174 279.5,-174"/>
<text text-anchor="start" x="287.5" y="-192" font-family="Helvetica,sans-Serif" font-size="10.00">io_routines::io_read</text>
<text text-anchor="middle" x="330" y="-181" font-family="Helvetica,sans-Serif" font-size="10.00">::io_read3d</text>
</a>
</g>
</g>
<!-- Node1&#45;&gt;Node5 -->
<g id="edge4" class="edge"><title>Node1&#45;&gt;Node5</title>
<path fill="none" stroke="midnightblue" d="M58.8181,-152.548C73.9995,-161.755 98.6244,-175.131 122,-181 170.498,-193.176 227.375,-194.486 269.224,-193.141"/>
<polygon fill="midnightblue" stroke="midnightblue" points="269.397,-196.637 279.256,-192.759 269.13,-189.643 269.397,-196.637"/>
</g>
<!-- Node6 -->
<g id="node6" class="node"><title>Node6</title>
<g id="a_node6"><a xlink:href="classinit.html#a2e2a9637c6d081ac63404006b8a56c66" target="_top" xlink:title="init::copy_z">
<polygon fill="white" stroke="black" points="147.5,-76.5 147.5,-95.5 214.5,-95.5 214.5,-76.5 147.5,-76.5"/>
<text text-anchor="middle" x="181" y="-83.5" font-family="Helvetica,sans-Serif" font-size="10.00">init::copy_z</text>
</a>
</g>
</g>
<!-- Node1&#45;&gt;Node6 -->
<g id="edge5" class="edge"><title>Node1&#45;&gt;Node6</title>
<path fill="none" stroke="midnightblue" d="M61.9622,-133.377C77.5697,-125.227 100.919,-113.541 122,-105 127.217,-102.886 132.767,-100.831 138.286,-98.9023"/>
<polygon fill="midnightblue" stroke="midnightblue" points="139.758,-102.099 148.11,-95.5799 137.516,-95.4682 139.758,-102.099"/>
</g>
<!-- Node7 -->
<g id="node7" class="node"><title>Node7</title>
<g id="a_node7"><a xlink:href="classinit.html#ae736523becb73ff7a6b08d6552211833" target="_top" xlink:title="init::domain_allocation">
<polygon fill="white" stroke="black" points="124.5,-38.5 124.5,-57.5 237.5,-57.5 237.5,-38.5 124.5,-38.5"/>
<text text-anchor="middle" x="181" y="-45.5" font-family="Helvetica,sans-Serif" font-size="10.00">init::domain_allocation</text>
</a>
</g>
</g>
<!-- Node1&#45;&gt;Node7 -->
<g id="edge6" class="edge"><title>Node1&#45;&gt;Node7</title>
<path fill="none" stroke="midnightblue" d="M51.3536,-133.404C64.0775,-117.425 91.7569,-85.3137 122,-67 125.42,-64.9289 129.092,-63.0556 132.868,-61.3667"/>
<polygon fill="midnightblue" stroke="midnightblue" points="134.408,-64.5195 142.38,-57.541 131.796,-58.0251 134.408,-64.5195"/>
</g>
<!-- Node8 -->
<g id="node8" class="node"><title>Node8</title>
<g id="a_node8"><a xlink:href="classinit.html#a78428952f4f16f84b944bbea4900ef3d" target="_top" xlink:title="init::init_domain_land">
<polygon fill="white" stroke="black" points="127,-228.5 127,-247.5 235,-247.5 235,-228.5 127,-228.5"/>
<text text-anchor="middle" x="181" y="-235.5" font-family="Helvetica,sans-Serif" font-size="10.00">init::init_domain_land</text>
</a>
</g>
</g>
<!-- Node1&#45;&gt;Node8 -->
<g id="edge7" class="edge"><title>Node1&#45;&gt;Node8</title>
<path fill="none" stroke="midnightblue" d="M52.7304,-152.892C66.3075,-167.792 93.8593,-196.145 122,-214 128.2,-217.934 135.153,-221.459 142.035,-224.519"/>
<polygon fill="midnightblue" stroke="midnightblue" points="140.72,-227.763 151.296,-228.397 143.424,-221.306 140.72,-227.763"/>
</g>
<!-- Node10 -->
<g id="node10" class="node"><title>Node10</title>
<g id="a_node10"><a xlink:href="classwind.html#aa3e008f44175ff536a88fe141d295601" target="_top" xlink:title="wind::init_winds">
<polygon fill="white" stroke="black" points="138,-0.5 138,-19.5 224,-19.5 224,-0.5 138,-0.5"/>
<text text-anchor="middle" x="181" y="-7.5" font-family="Helvetica,sans-Serif" font-size="10.00">wind::init_winds</text>
</a>
</g>
</g>
<!-- Node1&#45;&gt;Node10 -->
<g id="edge11" class="edge"><title>Node1&#45;&gt;Node10</title>
<path fill="none" stroke="midnightblue" d="M47.9148,-133.481C57.3479,-111.707 83.4431,-57.9271 122,-29 124.504,-27.1211 127.203,-25.4229 130.018,-23.8886"/>
<polygon fill="midnightblue" stroke="midnightblue" points="131.745,-26.9444 139.31,-19.5259 128.77,-20.6081 131.745,-26.9444"/>
</g>
<!-- Node8&#45;&gt;Node2 -->
<g id="edge9" class="edge"><title>Node8&#45;&gt;Node2</title>
<path fill="none" stroke="midnightblue" d="M210.692,-247.564C228.734,-253.578 252.6,-261.533 274.17,-268.723"/>
<polygon fill="midnightblue" stroke="midnightblue" points="273.295,-272.121 283.889,-271.963 275.509,-265.48 273.295,-272.121"/>
</g>
<!-- Node8&#45;&gt;Node5 -->
<g id="edge8" class="edge"><title>Node8&#45;&gt;Node5</title>
<path fill="none" stroke="midnightblue" d="M210.692,-228.436C228.734,-222.422 252.6,-214.467 274.17,-207.277"/>
<polygon fill="midnightblue" stroke="midnightblue" points="275.509,-210.52 283.889,-204.037 273.295,-203.879 275.509,-210.52"/>
</g>
<!-- Node9 -->
<g id="node9" class="node"><title>Node9</title>
<g id="a_node9"><a xlink:href="interfaceio__routines_1_1io__read.html#a8b9f7abc143c8f5a7f3b727d2beea7c2" target="_top" xlink:title=" Same as io_read2d but for integer data ">
<polygon fill="white" stroke="black" points="279.5,-223 279.5,-253 380.5,-253 380.5,-223 279.5,-223"/>
<text text-anchor="start" x="287.5" y="-241" font-family="Helvetica,sans-Serif" font-size="10.00">io_routines::io_read</text>
<text text-anchor="middle" x="330" y="-230" font-family="Helvetica,sans-Serif" font-size="10.00">::io_read2di</text>
</a>
</g>
</g>
<!-- Node8&#45;&gt;Node9 -->
<g id="edge10" class="edge"><title>Node8&#45;&gt;Node9</title>
<path fill="none" stroke="midnightblue" d="M235.07,-238C246.152,-238 257.907,-238 269.213,-238"/>
<polygon fill="midnightblue" stroke="midnightblue" points="269.437,-241.5 279.437,-238 269.437,-234.5 269.437,-241.5"/>
</g>
<!-- Node11 -->
<g id="node11" class="node"><title>Node11</title>
<g id="a_node11"><a xlink:href="classwind.html#a0c5b970e225fdcde294562217da6c36e" target="_top" xlink:title="wind::allocate_winds">
<polygon fill="white" stroke="black" points="276.5,-0.5 276.5,-19.5 383.5,-19.5 383.5,-0.5 276.5,-0.5"/>
<text text-anchor="middle" x="330" y="-7.5" font-family="Helvetica,sans-Serif" font-size="10.00">wind::allocate_winds</text>
</a>
</g>
</g>
<!-- Node10&#45;&gt;Node11 -->
<g id="edge12" class="edge"><title>Node10&#45;&gt;Node11</title>
<path fill="none" stroke="midnightblue" d="M224.124,-10C237.232,-10 251.979,-10 266.182,-10"/>
<polygon fill="midnightblue" stroke="midnightblue" points="266.397,-13.5001 276.397,-10 266.397,-6.5001 266.397,-13.5001"/>
</g>
</g>
</svg>
