<?xml version="1.0" encoding="UTF-8" standalone="no"?>
<!DOCTYPE svg PUBLIC "-//W3C//DTD SVG 1.1//EN"
 "http://www.w3.org/Graphics/SVG/1.1/DTD/svg11.dtd">
<!-- Generated by graphviz version 2.32.0 (20130809.1645)
 -->
<!-- Title: module_lsm_basic::lsm_basic Pages: 1 -->
<svg width="296pt" height="87pt"
 viewBox="0.00 0.00 296.00 87.00" xmlns="http://www.w3.org/2000/svg" xmlns:xlink="http://www.w3.org/1999/xlink">
<g id="graph0" class="graph" transform="scale(1 1) rotate(0) translate(4 83)">
<title>module_lsm_basic::lsm_basic</title>
<polygon fill="white" stroke="white" points="-4,5 -4,-83 293,-83 293,5 -4,5"/>
<!-- Node1 -->
<g id="node1" class="node"><title>Node1</title>
<polygon fill="#bfbfbf" stroke="black" points="0.5,-24 0.5,-54 119.5,-54 119.5,-24 0.5,-24"/>
<text text-anchor="start" x="8.5" y="-42" font-family="Helvetica,sans-Serif" font-size="10.00">module_lsm_basic::lsm</text>
<text text-anchor="middle" x="60" y="-31" font-family="Helvetica,sans-Serif" font-size="10.00">_basic</text>
</g>
<!-- Node2 -->
<g id="node2" class="node"><title>Node2</title>
<g id="a_node2"><a xlink:href="classmodule__lsm__basic.html#a2d87c61425426021c5ee5492c753145d" target="_top" xlink:title="module_lsm_basic::calc\l_pbl_index">
<polygon fill="white" stroke="black" points="161,-49 161,-79 283,-79 283,-49 161,-49"/>
<text text-anchor="start" x="169" y="-67" font-family="Helvetica,sans-Serif" font-size="10.00">module_lsm_basic::calc</text>
<text text-anchor="middle" x="222" y="-56" font-family="Helvetica,sans-Serif" font-size="10.00">_pbl_index</text>
</a>
</g>
</g>
<!-- Node1&#45;&gt;Node2 -->
<g id="edge1" class="edge"><title>Node1&#45;&gt;Node2</title>
<path fill="none" stroke="midnightblue" d="M119.67,-48.1671C129.875,-49.7618 140.581,-51.4345 151.052,-53.0707"/>
<polygon fill="midnightblue" stroke="midnightblue" points="150.576,-56.5387 160.997,-54.6245 151.657,-49.6226 150.576,-56.5387"/>
</g>
<!-- Node3 -->
<g id="node3" class="node"><title>Node3</title>
<g id="a_node3"><a xlink:href="classmodule__lsm__basic.html#a428eb1223e5c289e6534c5b7e7fc1c00" target="_top" xlink:title="module_lsm_basic::simple\l_land_surface_fluxes">
<polygon fill="white" stroke="black" points="156,-0 156,-30 288,-30 288,-0 156,-0"/>
<text text-anchor="start" x="164" y="-18" font-family="Helvetica,sans-Serif" font-size="10.00">module_lsm_basic::simple</text>
<text text-anchor="middle" x="222" y="-7" font-family="Helvetica,sans-Serif" font-size="10.00">_land_surface_fluxes</text>
</a>
</g>
</g>
<!-- Node1&#45;&gt;Node3 -->
<g id="edge2" class="edge"><title>Node1&#45;&gt;Node3</title>
<path fill="none" stroke="midnightblue" d="M119.67,-30.1996C128.223,-28.9165 137.128,-27.5808 145.952,-26.2572"/>
<polygon fill="midnightblue" stroke="midnightblue" points="146.487,-29.7162 155.857,-24.7715 145.448,-22.7937 146.487,-29.7162"/>
</g>
</g>
</svg>
