<?xml version="1.0" encoding="UTF-8" standalone="no"?>
<!DOCTYPE svg PUBLIC "-//W3C//DTD SVG 1.1//EN"
 "http://www.w3.org/Graphics/SVG/1.1/DTD/svg11.dtd">
<!-- Generated by graphviz version 2.32.0 (20130809.1645)
 -->
<!-- Title: time_step::diagnostic_update Pages: 1 -->
<svg width="260pt" height="38pt"
 viewBox="0.00 0.00 260.00 38.00" xmlns="http://www.w3.org/2000/svg" xmlns:xlink="http://www.w3.org/1999/xlink">
<g id="graph0" class="graph" transform="scale(1 1) rotate(0) translate(4 34)">
<title>time_step::diagnostic_update</title>
<polygon fill="white" stroke="white" points="-4,5 -4,-34 257,-34 257,5 -4,5"/>
<!-- Node1 -->
<g id="node1" class="node"><title>Node1</title>
<polygon fill="#bfbfbf" stroke="black" points="0,-0 0,-30 110,-30 110,-0 0,-0"/>
<text text-anchor="start" x="8" y="-18" font-family="Helvetica,sans-Serif" font-size="10.00">time_step::diagnostic</text>
<text text-anchor="middle" x="55" y="-7" font-family="Helvetica,sans-Serif" font-size="10.00">_update</text>
</g>
<!-- Node2 -->
<g id="node2" class="node"><title>Node2</title>
<g id="a_node2"><a xlink:href="classboundary__conditions.html#a3f59398683169f1de9bf8f548f1d7b96" target="_top" xlink:title=" Adjust the pressure field for the vertical shift between the low and high&#45;res domains ...">
<polygon fill="white" stroke="black" points="146,-0 146,-30 252,-30 252,-0 146,-0"/>
<text text-anchor="start" x="154" y="-18" font-family="Helvetica,sans-Serif" font-size="10.00">boundary_conditions</text>
<text text-anchor="middle" x="199" y="-7" font-family="Helvetica,sans-Serif" font-size="10.00">::update_pressure</text>
</a>
</g>
</g>
<!-- Node1&#45;&gt;Node2 -->
<g id="edge1" class="edge"><title>Node1&#45;&gt;Node2</title>
<path fill="none" stroke="midnightblue" d="M110.089,-15C118.447,-15 127.138,-15 135.659,-15"/>
<polygon fill="midnightblue" stroke="midnightblue" points="135.936,-18.5001 145.935,-15 135.935,-11.5001 135.936,-18.5001"/>
</g>
</g>
</svg>
