<?xml version="1.0" encoding="UTF-8" standalone="no"?>
<!DOCTYPE svg PUBLIC "-//W3C//DTD SVG 1.1//EN"
 "http://www.w3.org/Graphics/SVG/1.1/DTD/svg11.dtd">
<!-- Generated by graphviz version 2.38.0 (20140413.2041)
 -->
<!-- Title: adv_mpdata::advect3d Pages: 1 -->
<svg width="416pt" height="127pt"
 viewBox="0.00 0.00 416.00 126.50" xmlns="http://www.w3.org/2000/svg" xmlns:xlink="http://www.w3.org/1999/xlink">
<g id="graph0" class="graph" transform="scale(1 1) rotate(0) translate(4 122.5)">
<title>adv_mpdata::advect3d</title>
<polygon fill="white" stroke="none" points="-4,4 -4,-122.5 412,-122.5 412,4 -4,4"/>
<!-- Node1 -->
<g id="node1" class="node"><title>Node1</title>
<polygon fill="#bfbfbf" stroke="black" points="0,-44.5 0,-63.5 116,-63.5 116,-44.5 0,-44.5"/>
<text text-anchor="middle" x="58" y="-51.5" font-family="Helvetica,sans-Serif" font-size="10.00">adv_mpdata::advect3d</text>
</g>
<!-- Node2 -->
<g id="node2" class="node"><title>Node2</title>
<g id="a_node2"><a xlink:href="classadv__mpdata.html#aaed7970de15d6b6a51067bc3351f48cb" target="_top" xlink:title="adv_mpdata::upwind\l_advection">
<polygon fill="white" stroke="black" points="160,-88 160,-118 267,-118 267,-88 160,-88"/>
<text text-anchor="start" x="168" y="-106" font-family="Helvetica,sans-Serif" font-size="10.00">adv_mpdata::upwind</text>
<text text-anchor="middle" x="213.5" y="-95" font-family="Helvetica,sans-Serif" font-size="10.00">_advection</text>
</a>
</g>
</g>
<!-- Node1&#45;&gt;Node2 -->
<g id="edge1" class="edge"><title>Node1&#45;&gt;Node2</title>
<path fill="none" stroke="midnightblue" d="M88.9607,-63.564C107.97,-69.6321 133.172,-77.677 155.853,-84.9174"/>
<polygon fill="midnightblue" stroke="midnightblue" points="154.804,-88.2562 165.394,-87.963 156.932,-81.5877 154.804,-88.2562"/>
</g>
<!-- Node3 -->
<g id="node3" class="node"><title>Node3</title>
<g id="a_node3"><a xlink:href="classadv__mpdata.html#a85e4c645ede02cc8f44ef1a7e01c3049" target="_top" xlink:title="adv_mpdata::mpdata\l_fluxes">
<polygon fill="white" stroke="black" points="159.5,-39 159.5,-69 267.5,-69 267.5,-39 159.5,-39"/>
<text text-anchor="start" x="167.5" y="-57" font-family="Helvetica,sans-Serif" font-size="10.00">adv_mpdata::mpdata</text>
<text text-anchor="middle" x="213.5" y="-46" font-family="Helvetica,sans-Serif" font-size="10.00">_fluxes</text>
</a>
</g>
</g>
<!-- Node1&#45;&gt;Node3 -->
<g id="edge2" class="edge"><title>Node1&#45;&gt;Node3</title>
<path fill="none" stroke="midnightblue" d="M116.158,-54C126.88,-54 138.15,-54 149.05,-54"/>
<polygon fill="midnightblue" stroke="midnightblue" points="149.358,-57.5001 159.358,-54 149.358,-50.5001 149.358,-57.5001"/>
</g>
<!-- Node4 -->
<g id="node4" class="node"><title>Node4</title>
<g id="a_node4"><a xlink:href="classadv__mpdata.html#a7ffe4b8c6d4a1bb51d0f4693043f3147" target="_top" xlink:title="adv_mpdata::flux_limiter">
<polygon fill="white" stroke="black" points="152,-0.5 152,-19.5 275,-19.5 275,-0.5 152,-0.5"/>
<text text-anchor="middle" x="213.5" y="-7.5" font-family="Helvetica,sans-Serif" font-size="10.00">adv_mpdata::flux_limiter</text>
</a>
</g>
</g>
<!-- Node1&#45;&gt;Node4 -->
<g id="edge3" class="edge"><title>Node1&#45;&gt;Node4</title>
<path fill="none" stroke="midnightblue" d="M92.3072,-44.4527C114.936,-37.9661 145.079,-29.326 169.516,-22.3211"/>
<polygon fill="midnightblue" stroke="midnightblue" points="170.609,-25.6488 179.258,-19.5287 168.68,-18.9198 170.609,-25.6488"/>
</g>
<!-- Node5 -->
<g id="node5" class="node"><title>Node5</title>
<g id="a_node5"><a xlink:href="classadv__mpdata.html#a42101c164bf5bf768e556d84234ae3a6" target="_top" xlink:title="adv_mpdata::flux1">
<polygon fill="white" stroke="black" points="311,-0.5 311,-19.5 408,-19.5 408,-0.5 311,-0.5"/>
<text text-anchor="middle" x="359.5" y="-7.5" font-family="Helvetica,sans-Serif" font-size="10.00">adv_mpdata::flux1</text>
</a>
</g>
</g>
<!-- Node4&#45;&gt;Node5 -->
<g id="edge4" class="edge"><title>Node4&#45;&gt;Node5</title>
<path fill="none" stroke="midnightblue" d="M275.152,-10C283.567,-10 292.195,-10 300.559,-10"/>
<polygon fill="midnightblue" stroke="midnightblue" points="300.599,-13.5001 310.599,-10 300.599,-6.5001 300.599,-13.5001"/>
</g>
</g>
</svg>
