<?xml version="1.0" encoding="UTF-8" standalone="no"?>
<!DOCTYPE svg PUBLIC "-//W3C//DTD SVG 1.1//EN"
 "http://www.w3.org/Graphics/SVG/1.1/DTD/svg11.dtd">
<!-- Generated by graphviz version 2.38.0 (20140413.2041)
 -->
<!-- Title: pbl_simple::diffuse_variable Pages: 1 -->
<svg width="743pt" height="39pt"
 viewBox="0.00 0.00 743.00 39.00" xmlns="http://www.w3.org/2000/svg" xmlns:xlink="http://www.w3.org/1999/xlink">
<g id="graph0" class="graph" transform="scale(1 1) rotate(0) translate(4 35)">
<title>pbl_simple::diffuse_variable</title>
<polygon fill="white" stroke="none" points="-4,4 -4,-35 739,-35 739,4 -4,4"/>
<!-- Node1 -->
<g id="node1" class="node"><title>Node1</title>
<polygon fill="#bfbfbf" stroke="black" points="0,-0.5 0,-30.5 98,-30.5 98,-0.5 0,-0.5"/>
<text text-anchor="start" x="8" y="-18.5" font-family="Helvetica,sans-Serif" font-size="10.00">pbl_simple::diffuse</text>
<text text-anchor="middle" x="49" y="-7.5" font-family="Helvetica,sans-Serif" font-size="10.00">_variable</text>
</g>
<!-- Node2 -->
<g id="node2" class="node"><title>Node2</title>
<g id="a_node2"><a xlink:href="classpbl__simple.html#ac0ae6a1dedd3692028d78ebdc400ba41" target="_top" xlink:title="pbl_simple::pbl_diffusion">
<polygon fill="white" stroke="black" points="134,-6 134,-25 258,-25 258,-6 134,-6"/>
<text text-anchor="middle" x="196" y="-13" font-family="Helvetica,sans-Serif" font-size="10.00">pbl_simple::pbl_diffusion</text>
</a>
</g>
</g>
<!-- Node1&#45;&gt;Node2 -->
<g id="edge1" class="edge"><title>Node1&#45;&gt;Node2</title>
<path fill="none" stroke="midnightblue" d="M108.335,-15.5C116.709,-15.5 125.345,-15.5 133.773,-15.5"/>
<polygon fill="midnightblue" stroke="midnightblue" points="108.283,-12.0001 98.2829,-15.5 108.283,-19.0001 108.283,-12.0001"/>
</g>
<!-- Node3 -->
<g id="node3" class="node"><title>Node3</title>
<g id="a_node3"><a xlink:href="classpbl__simple.html#a0c4a8ea58856a89e2ea7c5026ac60a08" target="_top" xlink:title="pbl_simple::simple_pbl">
<polygon fill="white" stroke="black" points="294,-6 294,-25 410,-25 410,-6 294,-6"/>
<text text-anchor="middle" x="352" y="-13" font-family="Helvetica,sans-Serif" font-size="10.00">pbl_simple::simple_pbl</text>
</a>
</g>
</g>
<!-- Node2&#45;&gt;Node3 -->
<g id="edge2" class="edge"><title>Node2&#45;&gt;Node3</title>
<path fill="none" stroke="midnightblue" d="M268.31,-15.5C276.891,-15.5 285.565,-15.5 293.906,-15.5"/>
<polygon fill="midnightblue" stroke="midnightblue" points="268.307,-12.0001 258.307,-15.5 268.307,-19.0001 268.307,-12.0001"/>
</g>
<!-- Node4 -->
<g id="node4" class="node"><title>Node4</title>
<g id="a_node4"><a xlink:href="classplanetary__boundary__layer.html#ac1da4433b1830b1d11a543b893a97c50" target="_top" xlink:title="planetary_boundary\l_layer::pbl">
<polygon fill="white" stroke="black" points="446,-0.5 446,-30.5 547,-30.5 547,-0.5 446,-0.5"/>
<text text-anchor="start" x="454" y="-18.5" font-family="Helvetica,sans-Serif" font-size="10.00">planetary_boundary</text>
<text text-anchor="middle" x="496.5" y="-7.5" font-family="Helvetica,sans-Serif" font-size="10.00">_layer::pbl</text>
</a>
</g>
</g>
<!-- Node3&#45;&gt;Node4 -->
<g id="edge3" class="edge"><title>Node3&#45;&gt;Node4</title>
<path fill="none" stroke="midnightblue" d="M420.166,-15.5C428.765,-15.5 437.443,-15.5 445.698,-15.5"/>
<polygon fill="midnightblue" stroke="midnightblue" points="420.139,-12.0001 410.139,-15.5 420.139,-19.0001 420.139,-12.0001"/>
</g>
<!-- Node5 -->
<g id="node5" class="node"><title>Node5</title>
<g id="a_node5"><a xlink:href="classtime__step.html#a2c022f11247af72e607b1493289aa974" target="_top" xlink:title=" Step forward one IO time step. ">
<polygon fill="white" stroke="black" points="583,-6 583,-25 667,-25 667,-6 583,-6"/>
<text text-anchor="middle" x="625" y="-13" font-family="Helvetica,sans-Serif" font-size="10.00">time_step::step</text>
</a>
</g>
</g>
<!-- Node4&#45;&gt;Node5 -->
<g id="edge4" class="edge"><title>Node4&#45;&gt;Node5</title>
<path fill="none" stroke="midnightblue" d="M557.18,-15.5C565.805,-15.5 574.52,-15.5 582.679,-15.5"/>
<polygon fill="midnightblue" stroke="midnightblue" points="557.133,-12.0001 547.133,-15.5 557.133,-19.0001 557.133,-12.0001"/>
</g>
<!-- Node6 -->
<g id="node6" class="node"><title>Node6</title>
<g id="a_node6"><a xlink:href="driver_8f90.html#ab1e5a5816a57fc6e95d9563c2bb53590" target="_top" xlink:title=" Main Program ">
<polygon fill="white" stroke="black" points="703,-6 703,-25 735,-25 735,-6 703,-6"/>
<text text-anchor="middle" x="719" y="-13" font-family="Helvetica,sans-Serif" font-size="10.00">icar</text>
</a>
</g>
</g>
<!-- Node5&#45;&gt;Node6 -->
<g id="edge5" class="edge"><title>Node5&#45;&gt;Node6</title>
<path fill="none" stroke="midnightblue" d="M677.253,-15.5C686.521,-15.5 695.5,-15.5 702.66,-15.5"/>
<polygon fill="midnightblue" stroke="midnightblue" points="677.156,-12.0001 667.156,-15.5 677.156,-19.0001 677.156,-12.0001"/>
</g>
</g>
</svg>
