<?xml version="1.0" encoding="UTF-8" standalone="no"?>
<!DOCTYPE svg PUBLIC "-//W3C//DTD SVG 1.1//EN"
 "http://www.w3.org/Graphics/SVG/1.1/DTD/svg11.dtd">
<!-- Generated by graphviz version 2.32.0 (20130809.1645)
 -->
<!-- Title: module_lsm_basic::calc_pbl_index Pages: 1 -->
<svg width="604pt" height="38pt"
 viewBox="0.00 0.00 604.00 38.00" xmlns="http://www.w3.org/2000/svg" xmlns:xlink="http://www.w3.org/1999/xlink">
<g id="graph0" class="graph" transform="scale(1 1) rotate(0) translate(4 34)">
<title>module_lsm_basic::calc_pbl_index</title>
<polygon fill="white" stroke="white" points="-4,5 -4,-34 601,-34 601,5 -4,5"/>
<!-- Node1 -->
<g id="node1" class="node"><title>Node1</title>
<polygon fill="#bfbfbf" stroke="black" points="0,-0 0,-30 122,-30 122,-0 0,-0"/>
<text text-anchor="start" x="8" y="-18" font-family="Helvetica,sans-Serif" font-size="10.00">module_lsm_basic::calc</text>
<text text-anchor="middle" x="61" y="-7" font-family="Helvetica,sans-Serif" font-size="10.00">_pbl_index</text>
</g>
<!-- Node2 -->
<g id="node2" class="node"><title>Node2</title>
<g id="a_node2"><a xlink:href="classmodule__lsm__basic.html#a1acb1c23aafdeaef72a00a123bed7ed2" target="_top" xlink:title="module_lsm_basic::lsm\l_basic">
<polygon fill="white" stroke="black" points="158.5,-0 158.5,-30 277.5,-30 277.5,-0 158.5,-0"/>
<text text-anchor="start" x="166.5" y="-18" font-family="Helvetica,sans-Serif" font-size="10.00">module_lsm_basic::lsm</text>
<text text-anchor="middle" x="218" y="-7" font-family="Helvetica,sans-Serif" font-size="10.00">_basic</text>
</a>
</g>
</g>
<!-- Node1&#45;&gt;Node2 -->
<g id="edge1" class="edge"><title>Node1&#45;&gt;Node2</title>
<path fill="none" stroke="midnightblue" d="M132.447,-15C141.098,-15 149.868,-15 158.32,-15"/>
<polygon fill="midnightblue" stroke="midnightblue" points="132.371,-11.5001 122.371,-15 132.371,-18.5001 132.371,-11.5001"/>
</g>
<!-- Node3 -->
<g id="node3" class="node"><title>Node3</title>
<g id="a_node3"><a xlink:href="classland__surface.html#a5eda887fb43d0e56a673bbec669be5ad" target="_top" xlink:title="land_surface::lsm">
<polygon fill="white" stroke="black" points="314,-5.5 314,-24.5 408,-24.5 408,-5.5 314,-5.5"/>
<text text-anchor="middle" x="361" y="-12.5" font-family="Helvetica,sans-Serif" font-size="10.00">land_surface::lsm</text>
</a>
</g>
</g>
<!-- Node2&#45;&gt;Node3 -->
<g id="edge2" class="edge"><title>Node2&#45;&gt;Node3</title>
<path fill="none" stroke="midnightblue" d="M287.581,-15C296.488,-15 305.436,-15 313.856,-15"/>
<polygon fill="midnightblue" stroke="midnightblue" points="287.572,-11.5001 277.572,-15 287.572,-18.5001 287.572,-11.5001"/>
</g>
<!-- Node4 -->
<g id="node4" class="node"><title>Node4</title>
<g id="a_node4"><a xlink:href="classtime__step.html#a2c022f11247af72e607b1493289aa974" target="_top" xlink:title=" Step forward one IO time step. ">
<polygon fill="white" stroke="black" points="444,-5.5 444,-24.5 528,-24.5 528,-5.5 444,-5.5"/>
<text text-anchor="middle" x="486" y="-12.5" font-family="Helvetica,sans-Serif" font-size="10.00">time_step::step</text>
</a>
</g>
</g>
<!-- Node3&#45;&gt;Node4 -->
<g id="edge3" class="edge"><title>Node3&#45;&gt;Node4</title>
<path fill="none" stroke="midnightblue" d="M418.191,-15C426.834,-15 435.618,-15 443.853,-15"/>
<polygon fill="midnightblue" stroke="midnightblue" points="418.151,-11.5001 408.151,-15 418.151,-18.5001 418.151,-11.5001"/>
</g>
<!-- Node5 -->
<g id="node5" class="node"><title>Node5</title>
<g id="a_node5"><a xlink:href="driver_8f90.html#ab1e5a5816a57fc6e95d9563c2bb53590" target="_top" xlink:title=" Main Program ">
<polygon fill="white" stroke="black" points="564,-5.5 564,-24.5 596,-24.5 596,-5.5 564,-5.5"/>
<text text-anchor="middle" x="580" y="-12.5" font-family="Helvetica,sans-Serif" font-size="10.00">icar</text>
</a>
</g>
</g>
<!-- Node4&#45;&gt;Node5 -->
<g id="edge4" class="edge"><title>Node4&#45;&gt;Node5</title>
<path fill="none" stroke="midnightblue" d="M538.253,-15C547.521,-15 556.5,-15 563.66,-15"/>
<polygon fill="midnightblue" stroke="midnightblue" points="538.156,-11.5001 528.156,-15 538.156,-18.5001 538.156,-11.5001"/>
</g>
</g>
</svg>
