<?xml version="1.0" encoding="UTF-8" standalone="no"?>
<!DOCTYPE svg PUBLIC "-//W3C//DTD SVG 1.1//EN"
 "http://www.w3.org/Graphics/SVG/1.1/DTD/svg11.dtd">
<!-- Generated by graphviz version 2.38.0 (20140413.2041)
 -->
<!-- Title: boundary_conditions::ext_winds_init Pages: 1 -->
<svg width="573pt" height="214pt"
 viewBox="0.00 0.00 573.00 214.00" xmlns="http://www.w3.org/2000/svg" xmlns:xlink="http://www.w3.org/1999/xlink">
<g id="graph0" class="graph" transform="scale(1 1) rotate(0) translate(4 210)">
<title>boundary_conditions::ext_winds_init</title>
<polygon fill="white" stroke="none" points="-4,4 -4,-210 569,-210 569,4 -4,4"/>
<!-- Node1 -->
<g id="node1" class="node"><title>Node1</title>
<polygon fill="#bfbfbf" stroke="black" points="0,-88 0,-118 106,-118 106,-88 0,-88"/>
<text text-anchor="start" x="8" y="-106" font-family="Helvetica,sans-Serif" font-size="10.00">boundary_conditions</text>
<text text-anchor="middle" x="53" y="-95" font-family="Helvetica,sans-Serif" font-size="10.00">::ext_winds_init</text>
</g>
<!-- Node2 -->
<g id="node2" class="node"><title>Node2</title>
<g id="a_node2"><a xlink:href="classio__routines.html#ae987ea578b7a3fe5c0d51363e0f154a7" target="_top" xlink:title=" Read the dimensions of a variable in a given netcdf file ">
<polygon fill="white" stroke="black" points="142,-161.5 142,-180.5 259,-180.5 259,-161.5 142,-161.5"/>
<text text-anchor="middle" x="200.5" y="-168.5" font-family="Helvetica,sans-Serif" font-size="10.00">io_routines::io_getdims</text>
</a>
</g>
</g>
<!-- Node1&#45;&gt;Node2 -->
<g id="edge1" class="edge"><title>Node1&#45;&gt;Node2</title>
<path fill="none" stroke="midnightblue" d="M86.2912,-118.091C111.273,-129.767 145.588,-145.804 169.872,-157.153"/>
<polygon fill="midnightblue" stroke="midnightblue" points="168.425,-160.341 178.967,-161.404 171.389,-153.999 168.425,-160.341"/>
</g>
<!-- Node4 -->
<g id="node4" class="node"><title>Node4</title>
<g id="a_node4"><a xlink:href="classboundary__conditions.html#a3d4ddfc81942b206888c807998f4bb3c" target="_top" xlink:title=" Generic routine to read a forcing variable (varname) from a netcdf file (filename) at a time step (c...">
<polygon fill="white" stroke="black" points="147.5,-88 147.5,-118 253.5,-118 253.5,-88 147.5,-88"/>
<text text-anchor="start" x="155.5" y="-106" font-family="Helvetica,sans-Serif" font-size="10.00">boundary_conditions</text>
<text text-anchor="middle" x="200.5" y="-95" font-family="Helvetica,sans-Serif" font-size="10.00">::read_var</text>
</a>
</g>
</g>
<!-- Node1&#45;&gt;Node4 -->
<g id="edge3" class="edge"><title>Node1&#45;&gt;Node4</title>
<path fill="none" stroke="midnightblue" d="M106.118,-103C116.148,-103 126.748,-103 137.065,-103"/>
<polygon fill="midnightblue" stroke="midnightblue" points="137.257,-106.5 147.257,-103 137.257,-99.5001 137.257,-106.5"/>
</g>
<!-- Node11 -->
<g id="node11" class="node"><title>Node11</title>
<g id="a_node11"><a xlink:href="classboundary__conditions.html#a1208205dcebb05812018d41b6b08e2ce" target="_top" xlink:title=" Rotate winds from real space back to terrain following grid (approximately) ">
<polygon fill="white" stroke="black" points="143,-39 143,-69 258,-69 258,-39 143,-39"/>
<text text-anchor="start" x="151" y="-57" font-family="Helvetica,sans-Serif" font-size="10.00">boundary_conditions</text>
<text text-anchor="middle" x="200.5" y="-46" font-family="Helvetica,sans-Serif" font-size="10.00">::rotate_ext_wind_field</text>
</a>
</g>
</g>
<!-- Node1&#45;&gt;Node11 -->
<g id="edge10" class="edge"><title>Node1&#45;&gt;Node11</title>
<path fill="none" stroke="midnightblue" d="M98.842,-87.8986C113.431,-82.9853 129.786,-77.4776 145.002,-72.3534"/>
<polygon fill="midnightblue" stroke="midnightblue" points="146.446,-75.5602 154.806,-69.0516 144.212,-68.9263 146.446,-75.5602"/>
</g>
<!-- Node3 -->
<g id="node3" class="node"><title>Node3</title>
<g id="a_node3"><a xlink:href="classio__routines.html#ac4835ed66f2e10d8e5bb40f6122f0ca1" target="_top" xlink:title=" Simple error handling for common netcdf file errors ">
<polygon fill="white" stroke="black" points="300,-186.5 300,-205.5 396,-205.5 396,-186.5 300,-186.5"/>
<text text-anchor="middle" x="348" y="-193.5" font-family="Helvetica,sans-Serif" font-size="10.00">io_routines::check</text>
</a>
</g>
</g>
<!-- Node2&#45;&gt;Node3 -->
<g id="edge2" class="edge"><title>Node2&#45;&gt;Node3</title>
<path fill="none" stroke="midnightblue" d="M256.922,-180.523C267.634,-182.363 278.877,-184.295 289.648,-186.146"/>
<polygon fill="midnightblue" stroke="midnightblue" points="289.35,-189.646 299.798,-187.89 290.535,-182.747 289.35,-189.646"/>
</g>
<!-- Node5 -->
<g id="node5" class="node"><title>Node5</title>
<g id="a_node5"><a xlink:href="interfaceio__routines_1_1io__read.html#a9b6dacfccbb234dd949e7136e5b67f8c" target="_top" xlink:title=" Same as io_read6d but for 3&#45;dimensional data ">
<polygon fill="white" stroke="black" points="297.5,-137 297.5,-167 398.5,-167 398.5,-137 297.5,-137"/>
<text text-anchor="start" x="305.5" y="-155" font-family="Helvetica,sans-Serif" font-size="10.00">io_routines::io_read</text>
<text text-anchor="middle" x="348" y="-144" font-family="Helvetica,sans-Serif" font-size="10.00">::io_read3d</text>
</a>
</g>
</g>
<!-- Node4&#45;&gt;Node5 -->
<g id="edge4" class="edge"><title>Node4&#45;&gt;Node5</title>
<path fill="none" stroke="midnightblue" d="M246.342,-118.101C260.931,-123.015 277.286,-128.522 292.502,-133.647"/>
<polygon fill="midnightblue" stroke="midnightblue" points="291.712,-137.074 302.306,-136.948 293.946,-130.44 291.712,-137.074"/>
</g>
<!-- Node6 -->
<g id="node6" class="node"><title>Node6</title>
<g id="a_node6"><a xlink:href="classboundary__conditions.html#a4ea743610f85b3c52d69af94085b5bfa" target="_top" xlink:title=" Smooth an array (written for wind but will work for anything) ">
<polygon fill="white" stroke="black" points="295,-88 295,-118 401,-118 401,-88 295,-88"/>
<text text-anchor="start" x="303" y="-106" font-family="Helvetica,sans-Serif" font-size="10.00">boundary_conditions</text>
<text text-anchor="middle" x="348" y="-95" font-family="Helvetica,sans-Serif" font-size="10.00">::smooth_wind</text>
</a>
</g>
</g>
<!-- Node4&#45;&gt;Node6 -->
<g id="edge5" class="edge"><title>Node4&#45;&gt;Node6</title>
<path fill="none" stroke="midnightblue" d="M253.618,-103C263.648,-103 274.248,-103 284.565,-103"/>
<polygon fill="midnightblue" stroke="midnightblue" points="284.757,-106.5 294.757,-103 284.757,-99.5001 284.757,-106.5"/>
</g>
<!-- Node7 -->
<g id="node7" class="node"><title>Node7</title>
<g id="a_node7"><a xlink:href="classvertical__interpolation.html#a2d3f85573f18ea2ab18d6dcdec6a025a" target="_top" xlink:title="vertical_interpolation\l::vinterp">
<polygon fill="white" stroke="black" points="295,-39 295,-69 401,-69 401,-39 295,-39"/>
<text text-anchor="start" x="303" y="-57" font-family="Helvetica,sans-Serif" font-size="10.00">vertical_interpolation</text>
<text text-anchor="middle" x="348" y="-46" font-family="Helvetica,sans-Serif" font-size="10.00">::vinterp</text>
</a>
</g>
</g>
<!-- Node4&#45;&gt;Node7 -->
<g id="edge6" class="edge"><title>Node4&#45;&gt;Node7</title>
<path fill="none" stroke="midnightblue" d="M246.342,-87.8986C260.931,-82.9853 277.286,-77.4776 292.502,-72.3534"/>
<polygon fill="midnightblue" stroke="midnightblue" points="293.946,-75.5602 302.306,-69.0516 291.712,-68.9263 293.946,-75.5602"/>
</g>
<!-- Node9 -->
<g id="node9" class="node"><title>Node9</title>
<g id="a_node9"><a xlink:href="classgeo.html#acb54dc322e31524d40cc746c37b28898" target="_top" xlink:title=" Interpolate fieldout to fieldin using geolut. if boundary_only is true, call boundary_interpolate in...">
<polygon fill="white" stroke="black" points="306.5,-0.5 306.5,-19.5 389.5,-19.5 389.5,-0.5 306.5,-0.5"/>
<text text-anchor="middle" x="348" y="-7.5" font-family="Helvetica,sans-Serif" font-size="10.00">geo::geo_interp</text>
</a>
</g>
</g>
<!-- Node4&#45;&gt;Node9 -->
<g id="edge8" class="edge"><title>Node4&#45;&gt;Node9</title>
<path fill="none" stroke="midnightblue" d="M243.525,-87.8734C248.998,-85.0189 254.321,-81.7349 259,-78 280.12,-61.1417 273.385,-45.2193 295,-29 297.458,-27.1558 300.113,-25.4759 302.877,-23.948"/>
<polygon fill="midnightblue" stroke="midnightblue" points="304.479,-27.0613 311.972,-19.5707 301.443,-20.7539 304.479,-27.0613"/>
</g>
<!-- Node8 -->
<g id="node8" class="node"><title>Node8</title>
<g id="a_node8"><a xlink:href="classvertical__interpolation.html#a2625ecb49efcd1aaccf31125071f03e4" target="_top" xlink:title="vertical_interpolation\l::vinterp_boundary">
<polygon fill="white" stroke="black" points="448,-39 448,-69 554,-69 554,-39 448,-39"/>
<text text-anchor="start" x="456" y="-57" font-family="Helvetica,sans-Serif" font-size="10.00">vertical_interpolation</text>
<text text-anchor="middle" x="501" y="-46" font-family="Helvetica,sans-Serif" font-size="10.00">::vinterp_boundary</text>
</a>
</g>
</g>
<!-- Node7&#45;&gt;Node8 -->
<g id="edge7" class="edge"><title>Node7&#45;&gt;Node8</title>
<path fill="none" stroke="midnightblue" d="M401.389,-54C413.168,-54 425.777,-54 437.909,-54"/>
<polygon fill="midnightblue" stroke="midnightblue" points="437.959,-57.5001 447.959,-54 437.959,-50.5001 437.959,-57.5001"/>
</g>
<!-- Node10 -->
<g id="node10" class="node"><title>Node10</title>
<g id="a_node10"><a xlink:href="classgeo.html#a61629d616a7b4ee1cd910362724f0f6d" target="_top" xlink:title=" Interpolate boundaries of fieldout to fieldin using geolut ">
<polygon fill="white" stroke="black" points="437,-0.5 437,-19.5 565,-19.5 565,-0.5 437,-0.5"/>
<text text-anchor="middle" x="501" y="-7.5" font-family="Helvetica,sans-Serif" font-size="10.00">geo::boundary_interpolate</text>
</a>
</g>
</g>
<!-- Node9&#45;&gt;Node10 -->
<g id="edge9" class="edge"><title>Node9&#45;&gt;Node10</title>
<path fill="none" stroke="midnightblue" d="M389.863,-10C401.303,-10 414.098,-10 426.806,-10"/>
<polygon fill="midnightblue" stroke="midnightblue" points="426.952,-13.5001 436.952,-10 426.952,-6.5001 426.952,-13.5001"/>
</g>
</g>
</svg>
