<?xml version="1.0" encoding="UTF-8" standalone="no"?>
<!DOCTYPE svg PUBLIC "-//W3C//DTD SVG 1.1//EN"
 "http://www.w3.org/Graphics/SVG/1.1/DTD/svg11.dtd">
<!-- Generated by graphviz version 2.38.0 (20140413.2041)
 -->
<!-- Title: module_mp_simple::mp_simple_driver Pages: 1 -->
<svg width="835pt" height="204pt"
 viewBox="0.00 0.00 835.00 203.50" xmlns="http://www.w3.org/2000/svg" xmlns:xlink="http://www.w3.org/1999/xlink">
<g id="graph0" class="graph" transform="scale(1 1) rotate(0) translate(4 199.5)">
<title>module_mp_simple::mp_simple_driver</title>
<polygon fill="white" stroke="none" points="-4,4 -4,-199.5 831,-199.5 831,4 -4,4"/>
<!-- Node1 -->
<g id="node1" class="node"><title>Node1</title>
<polygon fill="#bfbfbf" stroke="black" points="0,-52 0,-82 120,-82 120,-52 0,-52"/>
<text text-anchor="start" x="8" y="-70" font-family="Helvetica,sans-Serif" font-size="10.00">module_mp_simple::mp</text>
<text text-anchor="middle" x="60" y="-59" font-family="Helvetica,sans-Serif" font-size="10.00">_simple_driver</text>
</g>
<!-- Node2 -->
<g id="node2" class="node"><title>Node2</title>
<g id="a_node2"><a xlink:href="classmodule__mp__simple.html#ac6e0bb6089333d9b063ba5f4e6f8127f" target="_top" xlink:title=" Basic microphysics code for a column of air ">
<polygon fill="white" stroke="black" points="156,-52 156,-82 276,-82 276,-52 156,-52"/>
<text text-anchor="start" x="164" y="-70" font-family="Helvetica,sans-Serif" font-size="10.00">module_mp_simple::mp</text>
<text text-anchor="middle" x="216" y="-59" font-family="Helvetica,sans-Serif" font-size="10.00">_simple</text>
</a>
</g>
</g>
<!-- Node1&#45;&gt;Node2 -->
<g id="edge1" class="edge"><title>Node1&#45;&gt;Node2</title>
<path fill="none" stroke="midnightblue" d="M120.1,-67C128.422,-67 137.039,-67 145.533,-67"/>
<polygon fill="midnightblue" stroke="midnightblue" points="145.804,-70.5001 155.804,-67 145.804,-63.5001 145.804,-70.5001"/>
</g>
<!-- Node3 -->
<g id="node3" class="node"><title>Node3</title>
<g id="a_node3"><a xlink:href="classmodule__mp__simple.html#afa657f819d93fc905ac898e46b0551ce" target="_top" xlink:title=" Compute microphysical conversions ">
<polygon fill="white" stroke="black" points="325,-119 325,-149 445,-149 445,-119 325,-119"/>
<text text-anchor="start" x="333" y="-137" font-family="Helvetica,sans-Serif" font-size="10.00">module_mp_simple::mp</text>
<text text-anchor="middle" x="385" y="-126" font-family="Helvetica,sans-Serif" font-size="10.00">_conversions</text>
</a>
</g>
</g>
<!-- Node2&#45;&gt;Node3 -->
<g id="edge2" class="edge"><title>Node2&#45;&gt;Node3</title>
<path fill="none" stroke="midnightblue" d="M254.478,-82.0361C278.888,-91.8292 310.928,-104.684 337.034,-115.157"/>
<polygon fill="midnightblue" stroke="midnightblue" points="335.774,-118.423 346.358,-118.898 338.381,-111.926 335.774,-118.423"/>
</g>
<!-- Node5 -->
<g id="node5" class="node"><title>Node5</title>
<g id="a_node5"><a xlink:href="classland__surface.html#ab611d871ec5af4909055c4484c2695e9" target="_top" xlink:title="land_surface::sat_mr">
<polygon fill="white" stroke="black" points="719,-104.5 719,-123.5 827,-123.5 827,-104.5 719,-104.5"/>
<text text-anchor="middle" x="773" y="-111.5" font-family="Helvetica,sans-Serif" font-size="10.00">land_surface::sat_mr</text>
</a>
</g>
</g>
<!-- Node2&#45;&gt;Node5 -->
<g id="edge8" class="edge"><title>Node2&#45;&gt;Node5</title>
<path fill="none" stroke="midnightblue" d="M276.215,-58.0257C365.806,-46.4414 540.473,-31.6779 683,-67 707.614,-73.1 732.923,-87.3883 750.228,-98.6207"/>
<polygon fill="midnightblue" stroke="midnightblue" points="748.709,-101.815 758.964,-104.475 752.606,-96.0004 748.709,-101.815"/>
</g>
<!-- Node7 -->
<g id="node7" class="node"><title>Node7</title>
<g id="a_node7"><a xlink:href="classmodule__mp__simple.html#aaf815931c9bfa8e29cd64e1133e8ac4d" target="_top" xlink:title=" Change the &quot;phase&quot; of a hydrometeor (e.g. evaporate rain) ">
<polygon fill="white" stroke="black" points="522,-77 522,-107 655,-107 655,-77 522,-77"/>
<text text-anchor="start" x="530" y="-95" font-family="Helvetica,sans-Serif" font-size="10.00">module_mp_simple::phase</text>
<text text-anchor="middle" x="588.5" y="-84" font-family="Helvetica,sans-Serif" font-size="10.00">_change</text>
</a>
</g>
</g>
<!-- Node2&#45;&gt;Node7 -->
<g id="edge9" class="edge"><title>Node2&#45;&gt;Node7</title>
<path fill="none" stroke="midnightblue" d="M276.117,-70.989C339.986,-75.2987 441.951,-82.1789 511.677,-86.8837"/>
<polygon fill="midnightblue" stroke="midnightblue" points="511.509,-90.3803 521.722,-87.5616 511.981,-83.3962 511.509,-90.3803"/>
</g>
<!-- Node8 -->
<g id="node8" class="node"><title>Node8</title>
<g id="a_node8"><a xlink:href="classmodule__mp__simple.html#a555961f80b8e520a047abf3220b1e6df" target="_top" xlink:title=" Compute sedimentation in a column ">
<polygon fill="white" stroke="black" points="312,-0.5 312,-19.5 458,-19.5 458,-0.5 312,-0.5"/>
<text text-anchor="middle" x="385" y="-7.5" font-family="Helvetica,sans-Serif" font-size="10.00">module_mp_simple::sediment</text>
</a>
</g>
</g>
<!-- Node2&#45;&gt;Node8 -->
<g id="edge7" class="edge"><title>Node2&#45;&gt;Node8</title>
<path fill="none" stroke="midnightblue" d="M259.996,-51.9363C276.272,-46.2678 294.975,-39.7941 312,-34 322.792,-30.3272 334.512,-26.3958 345.302,-22.8001"/>
<polygon fill="midnightblue" stroke="midnightblue" points="346.511,-26.0865 354.895,-19.6093 344.301,-19.4443 346.511,-26.0865"/>
</g>
<!-- Node4 -->
<g id="node4" class="node"><title>Node4</title>
<g id="a_node4"><a xlink:href="classmodule__mp__simple.html#aa0106ae6c82c8b14c49b4afd1871e12b" target="_top" xlink:title=" Convert cloud water to vapor and back ">
<polygon fill="white" stroke="black" points="523.5,-165 523.5,-195 653.5,-195 653.5,-165 523.5,-165"/>
<text text-anchor="start" x="531.5" y="-183" font-family="Helvetica,sans-Serif" font-size="10.00">module_mp_simple::cloud</text>
<text text-anchor="middle" x="588.5" y="-172" font-family="Helvetica,sans-Serif" font-size="10.00">_conversion</text>
</a>
</g>
</g>
<!-- Node3&#45;&gt;Node4 -->
<g id="edge3" class="edge"><title>Node3&#45;&gt;Node4</title>
<path fill="none" stroke="midnightblue" d="M445.095,-147.491C466.54,-152.386 491.042,-157.98 513.605,-163.131"/>
<polygon fill="midnightblue" stroke="midnightblue" points="512.95,-166.571 523.478,-165.385 514.508,-159.747 512.95,-166.571"/>
</g>
<!-- Node6 -->
<g id="node6" class="node"><title>Node6</title>
<g id="a_node6"><a xlink:href="classmodule__mp__simple.html#a012afbddb9dca5c40bc5bfbe63b275c8" target="_top" xlink:title=" Convert cloud water or ice to rain or snow ">
<polygon fill="white" stroke="black" points="494,-126.5 494,-145.5 683,-145.5 683,-126.5 494,-126.5"/>
<text text-anchor="middle" x="588.5" y="-133.5" font-family="Helvetica,sans-Serif" font-size="10.00">module_mp_simple::cloud2hydrometeor</text>
</a>
</g>
</g>
<!-- Node3&#45;&gt;Node6 -->
<g id="edge5" class="edge"><title>Node3&#45;&gt;Node6</title>
<path fill="none" stroke="midnightblue" d="M445.095,-134.587C457.31,-134.708 470.517,-134.839 483.792,-134.971"/>
<polygon fill="midnightblue" stroke="midnightblue" points="483.907,-138.472 493.942,-135.071 483.977,-131.472 483.907,-138.472"/>
</g>
<!-- Node3&#45;&gt;Node7 -->
<g id="edge6" class="edge"><title>Node3&#45;&gt;Node7</title>
<path fill="none" stroke="midnightblue" d="M445.095,-121.682C465.941,-117.337 489.674,-112.391 511.708,-107.798"/>
<polygon fill="midnightblue" stroke="midnightblue" points="512.62,-111.183 521.695,-105.716 511.191,-104.33 512.62,-111.183"/>
</g>
<!-- Node4&#45;&gt;Node5 -->
<g id="edge4" class="edge"><title>Node4&#45;&gt;Node5</title>
<path fill="none" stroke="midnightblue" d="M651.572,-164.998C662.154,-161.987 672.964,-158.623 683,-155 704.197,-147.347 727.287,-136.636 744.636,-128.081"/>
<polygon fill="midnightblue" stroke="midnightblue" points="746.255,-131.185 753.635,-123.583 743.126,-124.923 746.255,-131.185"/>
</g>
</g>
</svg>
