<?xml version="1.0" encoding="UTF-8" standalone="no"?>
<!DOCTYPE svg PUBLIC "-//W3C//DTD SVG 1.1//EN"
 "http://www.w3.org/Graphics/SVG/1.1/DTD/svg11.dtd">
<!-- Generated by graphviz version 2.32.0 (20130809.1645)
 -->
<!-- Title: boundary_conditions::rotate_ext_wind_field Pages: 1 -->
<svg width="476pt" height="87pt"
 viewBox="0.00 0.00 476.00 87.00" xmlns="http://www.w3.org/2000/svg" xmlns:xlink="http://www.w3.org/1999/xlink">
<g id="graph0" class="graph" transform="scale(1 1) rotate(0) translate(4 83)">
<title>boundary_conditions::rotate_ext_wind_field</title>
<polygon fill="white" stroke="white" points="-4,5 -4,-83 473,-83 473,5 -4,5"/>
<!-- Node1 -->
<g id="node1" class="node"><title>Node1</title>
<polygon fill="#bfbfbf" stroke="black" points="0.5,-24 0.5,-54 115.5,-54 115.5,-24 0.5,-24"/>
<text text-anchor="start" x="8.5" y="-42" font-family="Helvetica,sans-Serif" font-size="10.00">boundary_conditions</text>
<text text-anchor="middle" x="58" y="-31" font-family="Helvetica,sans-Serif" font-size="10.00">::rotate_ext_wind_field</text>
</g>
<!-- Node2 -->
<g id="node2" class="node"><title>Node2</title>
<g id="a_node2"><a xlink:href="classboundary__conditions.html#afd8110e2b16915ce0cb12ce4958fe09c" target="_top" xlink:title=" Initialize the external winds information (filenames, nfiles, etc) and read the initial conditions ...">
<polygon fill="white" stroke="black" points="152,-49 152,-79 258,-79 258,-49 152,-49"/>
<text text-anchor="start" x="160" y="-67" font-family="Helvetica,sans-Serif" font-size="10.00">boundary_conditions</text>
<text text-anchor="middle" x="205" y="-56" font-family="Helvetica,sans-Serif" font-size="10.00">::ext_winds_init</text>
</a>
</g>
</g>
<!-- Node1&#45;&gt;Node2 -->
<g id="edge1" class="edge"><title>Node1&#45;&gt;Node2</title>
<path fill="none" stroke="midnightblue" d="M125.759,-50.5101C134.565,-52.0285 143.486,-53.5665 151.996,-55.0337"/>
<polygon fill="midnightblue" stroke="midnightblue" points="126.341,-47.0589 115.892,-48.8089 125.152,-53.9572 126.341,-47.0589"/>
</g>
<!-- Node5 -->
<g id="node5" class="node"><title>Node5</title>
<g id="a_node5"><a xlink:href="classboundary__conditions.html#a40ba01db58736c2bb018af7ebe72f55f" target="_top" xlink:title=" Update the external wind field ">
<polygon fill="white" stroke="black" points="152,-0 152,-30 258,-30 258,-0 152,-0"/>
<text text-anchor="start" x="160" y="-18" font-family="Helvetica,sans-Serif" font-size="10.00">boundary_conditions</text>
<text text-anchor="middle" x="205" y="-7" font-family="Helvetica,sans-Serif" font-size="10.00">::update_ext_winds</text>
</a>
</g>
</g>
<!-- Node1&#45;&gt;Node5 -->
<g id="edge4" class="edge"><title>Node1&#45;&gt;Node5</title>
<path fill="none" stroke="midnightblue" d="M125.759,-27.9503C134.565,-26.4926 143.486,-25.0162 151.996,-23.6076"/>
<polygon fill="midnightblue" stroke="midnightblue" points="125.186,-24.4974 115.892,-29.5834 126.329,-31.4034 125.186,-24.4974"/>
</g>
<!-- Node3 -->
<g id="node3" class="node"><title>Node3</title>
<g id="a_node3"><a xlink:href="classboundary__conditions.html#a07a42f467f470ada98e0a35fd5a75f66" target="_top" xlink:title=" Initialize the boundary conditions (read inital conditions, etc.) ">
<polygon fill="white" stroke="black" points="294,-49 294,-79 400,-79 400,-49 294,-49"/>
<text text-anchor="start" x="302" y="-67" font-family="Helvetica,sans-Serif" font-size="10.00">boundary_conditions</text>
<text text-anchor="middle" x="347" y="-56" font-family="Helvetica,sans-Serif" font-size="10.00">::bc_init</text>
</a>
</g>
</g>
<!-- Node2&#45;&gt;Node3 -->
<g id="edge2" class="edge"><title>Node2&#45;&gt;Node3</title>
<path fill="none" stroke="midnightblue" d="M268.387,-64C276.885,-64 285.534,-64 293.826,-64"/>
<polygon fill="midnightblue" stroke="midnightblue" points="268.131,-60.5001 258.131,-64 268.131,-67.5001 268.131,-60.5001"/>
</g>
<!-- Node4 -->
<g id="node4" class="node"><title>Node4</title>
<g id="a_node4"><a xlink:href="driver_8f90.html#ab1e5a5816a57fc6e95d9563c2bb53590" target="_top" xlink:title=" Main Program ">
<polygon fill="white" stroke="black" points="436,-29.5 436,-48.5 468,-48.5 468,-29.5 436,-29.5"/>
<text text-anchor="middle" x="452" y="-36.5" font-family="Helvetica,sans-Serif" font-size="10.00">icar</text>
</a>
</g>
</g>
<!-- Node3&#45;&gt;Node4 -->
<g id="edge3" class="edge"><title>Node3&#45;&gt;Node4</title>
<path fill="none" stroke="midnightblue" d="M410.071,-48.9343C419.517,-46.6414 428.468,-44.4689 435.576,-42.7436"/>
<polygon fill="midnightblue" stroke="midnightblue" points="408.996,-45.5935 400.104,-51.3535 410.647,-52.396 408.996,-45.5935"/>
</g>
<!-- Node6 -->
<g id="node6" class="node"><title>Node6</title>
<g id="a_node6"><a xlink:href="classboundary__conditions.html#a1e8385c37634f3d7f70ea7c749dcda11" target="_top" xlink:title=" Read in the next timestep of input data and apply to the dXdt grids as appropriate. ">
<polygon fill="white" stroke="black" points="294,-0 294,-30 400,-30 400,-0 294,-0"/>
<text text-anchor="start" x="302" y="-18" font-family="Helvetica,sans-Serif" font-size="10.00">boundary_conditions</text>
<text text-anchor="middle" x="347" y="-7" font-family="Helvetica,sans-Serif" font-size="10.00">::bc_update</text>
</a>
</g>
</g>
<!-- Node5&#45;&gt;Node6 -->
<g id="edge5" class="edge"><title>Node5&#45;&gt;Node6</title>
<path fill="none" stroke="midnightblue" d="M268.387,-15C276.885,-15 285.534,-15 293.826,-15"/>
<polygon fill="midnightblue" stroke="midnightblue" points="268.131,-11.5001 258.131,-15 268.131,-18.5001 268.131,-11.5001"/>
</g>
<!-- Node6&#45;&gt;Node4 -->
<g id="edge6" class="edge"><title>Node6&#45;&gt;Node4</title>
<path fill="none" stroke="midnightblue" d="M410.071,-29.4631C419.517,-31.6642 428.468,-33.7498 435.576,-35.4061"/>
<polygon fill="midnightblue" stroke="midnightblue" points="410.637,-26.0013 400.104,-27.1406 409.048,-32.8187 410.637,-26.0013"/>
</g>
</g>
</svg>
