<?xml version="1.0" encoding="UTF-8" standalone="no"?>
<!DOCTYPE svg PUBLIC "-//W3C//DTD SVG 1.1//EN"
 "http://www.w3.org/Graphics/SVG/1.1/DTD/svg11.dtd">
<!-- Generated by graphviz version 2.32.0 (20130809.1645)
 -->
<!-- Title: pbl_simple::diffuse_variable Pages: 1 -->
<svg width="744pt" height="38pt"
 viewBox="0.00 0.00 744.00 38.00" xmlns="http://www.w3.org/2000/svg" xmlns:xlink="http://www.w3.org/1999/xlink">
<g id="graph0" class="graph" transform="scale(1 1) rotate(0) translate(4 34)">
<title>pbl_simple::diffuse_variable</title>
<polygon fill="white" stroke="white" points="-4,5 -4,-34 741,-34 741,5 -4,5"/>
<!-- Node1 -->
<g id="node1" class="node"><title>Node1</title>
<polygon fill="#bfbfbf" stroke="black" points="0,-0 0,-30 98,-30 98,-0 0,-0"/>
<text text-anchor="start" x="8" y="-18" font-family="Helvetica,sans-Serif" font-size="10.00">pbl_simple::diffuse</text>
<text text-anchor="middle" x="49" y="-7" font-family="Helvetica,sans-Serif" font-size="10.00">_variable</text>
</g>
<!-- Node2 -->
<g id="node2" class="node"><title>Node2</title>
<g id="a_node2"><a xlink:href="classpbl__simple.html#ac0ae6a1dedd3692028d78ebdc400ba41" target="_top" xlink:title="pbl_simple::pbl_diffusion">
<polygon fill="white" stroke="black" points="134,-5.5 134,-24.5 258,-24.5 258,-5.5 134,-5.5"/>
<text text-anchor="middle" x="196" y="-12.5" font-family="Helvetica,sans-Serif" font-size="10.00">pbl_simple::pbl_diffusion</text>
</a>
</g>
</g>
<!-- Node1&#45;&gt;Node2 -->
<g id="edge1" class="edge"><title>Node1&#45;&gt;Node2</title>
<path fill="none" stroke="midnightblue" d="M108.335,-15C116.709,-15 125.345,-15 133.773,-15"/>
<polygon fill="midnightblue" stroke="midnightblue" points="108.283,-11.5001 98.2829,-15 108.283,-18.5001 108.283,-11.5001"/>
</g>
<!-- Node3 -->
<g id="node3" class="node"><title>Node3</title>
<g id="a_node3"><a xlink:href="classpbl__simple.html#a0c4a8ea58856a89e2ea7c5026ac60a08" target="_top" xlink:title="pbl_simple::simple_pbl">
<polygon fill="white" stroke="black" points="294,-5.5 294,-24.5 410,-24.5 410,-5.5 294,-5.5"/>
<text text-anchor="middle" x="352" y="-12.5" font-family="Helvetica,sans-Serif" font-size="10.00">pbl_simple::simple_pbl</text>
</a>
</g>
</g>
<!-- Node2&#45;&gt;Node3 -->
<g id="edge2" class="edge"><title>Node2&#45;&gt;Node3</title>
<path fill="none" stroke="midnightblue" d="M268.31,-15C276.891,-15 285.565,-15 293.906,-15"/>
<polygon fill="midnightblue" stroke="midnightblue" points="268.307,-11.5001 258.307,-15 268.307,-18.5001 268.307,-11.5001"/>
</g>
<!-- Node4 -->
<g id="node4" class="node"><title>Node4</title>
<g id="a_node4"><a xlink:href="classplanetary__boundary__layer.html#ac1da4433b1830b1d11a543b893a97c50" target="_top" xlink:title="planetary_boundary\l_layer::pbl">
<polygon fill="white" stroke="black" points="446.5,-0 446.5,-30 547.5,-30 547.5,-0 446.5,-0"/>
<text text-anchor="start" x="454.5" y="-18" font-family="Helvetica,sans-Serif" font-size="10.00">planetary_boundary</text>
<text text-anchor="middle" x="497" y="-7" font-family="Helvetica,sans-Serif" font-size="10.00">_layer::pbl</text>
</a>
</g>
</g>
<!-- Node3&#45;&gt;Node4 -->
<g id="edge3" class="edge"><title>Node3&#45;&gt;Node4</title>
<path fill="none" stroke="midnightblue" d="M420.535,-15C429.279,-15 438.101,-15 446.478,-15"/>
<polygon fill="midnightblue" stroke="midnightblue" points="420.34,-11.5001 410.34,-15 420.34,-18.5001 420.34,-11.5001"/>
</g>
<!-- Node5 -->
<g id="node5" class="node"><title>Node5</title>
<g id="a_node5"><a xlink:href="classtime__step.html#a2c022f11247af72e607b1493289aa974" target="_top" xlink:title=" Step forward one IO time step. ">
<polygon fill="white" stroke="black" points="584,-5.5 584,-24.5 668,-24.5 668,-5.5 584,-5.5"/>
<text text-anchor="middle" x="626" y="-12.5" font-family="Helvetica,sans-Serif" font-size="10.00">time_step::step</text>
</a>
</g>
</g>
<!-- Node4&#45;&gt;Node5 -->
<g id="edge4" class="edge"><title>Node4&#45;&gt;Node5</title>
<path fill="none" stroke="midnightblue" d="M558.035,-15C566.798,-15 575.648,-15 583.917,-15"/>
<polygon fill="midnightblue" stroke="midnightblue" points="557.829,-11.5001 547.829,-15 557.829,-18.5001 557.829,-11.5001"/>
</g>
<!-- Node6 -->
<g id="node6" class="node"><title>Node6</title>
<g id="a_node6"><a xlink:href="driver_8f90.html#ab1e5a5816a57fc6e95d9563c2bb53590" target="_top" xlink:title=" Main Program ">
<polygon fill="white" stroke="black" points="704,-5.5 704,-24.5 736,-24.5 736,-5.5 704,-5.5"/>
<text text-anchor="middle" x="720" y="-12.5" font-family="Helvetica,sans-Serif" font-size="10.00">icar</text>
</a>
</g>
</g>
<!-- Node5&#45;&gt;Node6 -->
<g id="edge5" class="edge"><title>Node5&#45;&gt;Node6</title>
<path fill="none" stroke="midnightblue" d="M678.253,-15C687.521,-15 696.5,-15 703.66,-15"/>
<polygon fill="midnightblue" stroke="midnightblue" points="678.156,-11.5001 668.156,-15 678.156,-18.5001 678.156,-11.5001"/>
</g>
</g>
</svg>
