<?xml version="1.0" encoding="UTF-8" standalone="no"?>
<!DOCTYPE svg PUBLIC "-//W3C//DTD SVG 1.1//EN"
 "http://www.w3.org/Graphics/SVG/1.1/DTD/svg11.dtd">
<!-- Generated by graphviz version 2.32.0 (20130809.1645)
 -->
<!-- Title: linear_theory_winds::set_module_options Pages: 1 -->
<svg width="758pt" height="87pt"
 viewBox="0.00 0.00 758.00 87.00" xmlns="http://www.w3.org/2000/svg" xmlns:xlink="http://www.w3.org/1999/xlink">
<g id="graph0" class="graph" transform="scale(1 1) rotate(0) translate(4 83)">
<title>linear_theory_winds::set_module_options</title>
<polygon fill="white" stroke="white" points="-4,5 -4,-83 755,-83 755,5 -4,5"/>
<!-- Node1 -->
<g id="node1" class="node"><title>Node1</title>
<polygon fill="#bfbfbf" stroke="black" points="0,-24 0,-54 110,-54 110,-24 0,-24"/>
<text text-anchor="start" x="8" y="-42" font-family="Helvetica,sans-Serif" font-size="10.00">linear_theory_winds</text>
<text text-anchor="middle" x="55" y="-31" font-family="Helvetica,sans-Serif" font-size="10.00">::set_module_options</text>
</g>
<!-- Node2 -->
<g id="node2" class="node"><title>Node2</title>
<g id="a_node2"><a xlink:href="classlinear__theory__winds.html#a5aed1fad471120ba77c203fa6158a5ba" target="_top" xlink:title="linear_theory_winds\l::setup_linwinds">
<polygon fill="white" stroke="black" points="146.5,-24 146.5,-54 249.5,-54 249.5,-24 146.5,-24"/>
<text text-anchor="start" x="154.5" y="-42" font-family="Helvetica,sans-Serif" font-size="10.00">linear_theory_winds</text>
<text text-anchor="middle" x="198" y="-31" font-family="Helvetica,sans-Serif" font-size="10.00">::setup_linwinds</text>
</a>
</g>
</g>
<!-- Node1&#45;&gt;Node2 -->
<g id="edge1" class="edge"><title>Node1&#45;&gt;Node2</title>
<path fill="none" stroke="midnightblue" d="M120.193,-39C128.859,-39 137.653,-39 146.046,-39"/>
<polygon fill="midnightblue" stroke="midnightblue" points="120.111,-35.5001 110.111,-39 120.111,-42.5001 120.111,-35.5001"/>
</g>
<!-- Node3 -->
<g id="node3" class="node"><title>Node3</title>
<g id="a_node3"><a xlink:href="classlinear__theory__winds.html#a248a832d459ec9cd399c372d2ae9cb0a" target="_top" xlink:title="linear_theory_winds\l::linear_perturb">
<polygon fill="white" stroke="black" points="286.5,-24 286.5,-54 389.5,-54 389.5,-24 286.5,-24"/>
<text text-anchor="start" x="294.5" y="-42" font-family="Helvetica,sans-Serif" font-size="10.00">linear_theory_winds</text>
<text text-anchor="middle" x="338" y="-31" font-family="Helvetica,sans-Serif" font-size="10.00">::linear_perturb</text>
</a>
</g>
</g>
<!-- Node2&#45;&gt;Node3 -->
<g id="edge2" class="edge"><title>Node2&#45;&gt;Node3</title>
<path fill="none" stroke="midnightblue" d="M259.882,-39C268.74,-39 277.779,-39 286.404,-39"/>
<polygon fill="midnightblue" stroke="midnightblue" points="259.603,-35.5001 249.603,-39 259.602,-42.5001 259.603,-35.5001"/>
</g>
<!-- Node4 -->
<g id="node4" class="node"><title>Node4</title>
<g id="a_node4"><a xlink:href="classboundary__conditions.html#ac4cfb5127bfecdc6e088ef949694ea4a" target="_top" xlink:title=" Remove linear theory topographic winds perturbations from the low resolution wind field...">
<polygon fill="white" stroke="black" points="426,-46 426,-76 540,-76 540,-46 426,-46"/>
<text text-anchor="start" x="434" y="-64" font-family="Helvetica,sans-Serif" font-size="10.00">boundary_conditions</text>
<text text-anchor="middle" x="483" y="-53" font-family="Helvetica,sans-Serif" font-size="10.00">::remove_linear_winds</text>
</a>
</g>
</g>
<!-- Node3&#45;&gt;Node4 -->
<g id="edge3" class="edge"><title>Node3&#45;&gt;Node4</title>
<path fill="none" stroke="midnightblue" d="M399.869,-48.3645C408.541,-49.6986 417.426,-51.0655 425.999,-52.3844"/>
<polygon fill="midnightblue" stroke="midnightblue" points="400.235,-44.8797 389.819,-46.8183 399.171,-51.7983 400.235,-44.8797"/>
</g>
<!-- Node8 -->
<g id="node8" class="node"><title>Node8</title>
<g id="a_node8"><a xlink:href="classwind.html#a582192f02996b37543b966df84af1e78" target="_top" xlink:title="wind::update_winds">
<polygon fill="white" stroke="black" points="431.5,-7.5 431.5,-26.5 534.5,-26.5 534.5,-7.5 431.5,-7.5"/>
<text text-anchor="middle" x="483" y="-14.5" font-family="Helvetica,sans-Serif" font-size="10.00">wind::update_winds</text>
</a>
</g>
</g>
<!-- Node3&#45;&gt;Node8 -->
<g id="edge8" class="edge"><title>Node3&#45;&gt;Node8</title>
<path fill="none" stroke="midnightblue" d="M399.776,-29.6498C410.295,-28.0315 421.131,-26.3645 431.345,-24.7931"/>
<polygon fill="midnightblue" stroke="midnightblue" points="399.171,-26.2017 389.819,-31.1817 400.235,-33.1203 399.171,-26.2017"/>
</g>
<!-- Node5 -->
<g id="node5" class="node"><title>Node5</title>
<g id="a_node5"><a xlink:href="classboundary__conditions.html#a07a42f467f470ada98e0a35fd5a75f66" target="_top" xlink:title=" Initialize the boundary conditions (read inital conditions, etc.) ">
<polygon fill="white" stroke="black" points="576,-49 576,-79 682,-79 682,-49 576,-49"/>
<text text-anchor="start" x="584" y="-67" font-family="Helvetica,sans-Serif" font-size="10.00">boundary_conditions</text>
<text text-anchor="middle" x="629" y="-56" font-family="Helvetica,sans-Serif" font-size="10.00">::bc_init</text>
</a>
</g>
</g>
<!-- Node4&#45;&gt;Node5 -->
<g id="edge4" class="edge"><title>Node4&#45;&gt;Node5</title>
<path fill="none" stroke="midnightblue" d="M550.338,-62.382C558.811,-62.5586 567.389,-62.7373 575.599,-62.9083"/>
<polygon fill="midnightblue" stroke="midnightblue" points="550.157,-58.8776 540.086,-62.1685 550.011,-65.8761 550.157,-58.8776"/>
</g>
<!-- Node7 -->
<g id="node7" class="node"><title>Node7</title>
<g id="a_node7"><a xlink:href="classboundary__conditions.html#a1e8385c37634f3d7f70ea7c749dcda11" target="_top" xlink:title=" Read in the next timestep of input data and apply to the dXdt grids as appropriate. ">
<polygon fill="white" stroke="black" points="576,-0 576,-30 682,-30 682,-0 576,-0"/>
<text text-anchor="start" x="584" y="-18" font-family="Helvetica,sans-Serif" font-size="10.00">boundary_conditions</text>
<text text-anchor="middle" x="629" y="-7" font-family="Helvetica,sans-Serif" font-size="10.00">::bc_update</text>
</a>
</g>
</g>
<!-- Node4&#45;&gt;Node7 -->
<g id="edge6" class="edge"><title>Node4&#45;&gt;Node7</title>
<path fill="none" stroke="midnightblue" d="M541.045,-42.7772C554.202,-38.5743 568.056,-34.1487 580.743,-30.096"/>
<polygon fill="midnightblue" stroke="midnightblue" points="539.612,-39.5608 531.151,-45.9379 541.742,-46.2289 539.612,-39.5608"/>
</g>
<!-- Node6 -->
<g id="node6" class="node"><title>Node6</title>
<g id="a_node6"><a xlink:href="driver_8f90.html#ab1e5a5816a57fc6e95d9563c2bb53590" target="_top" xlink:title=" Main Program ">
<polygon fill="white" stroke="black" points="718,-29.5 718,-48.5 750,-48.5 750,-29.5 718,-29.5"/>
<text text-anchor="middle" x="734" y="-36.5" font-family="Helvetica,sans-Serif" font-size="10.00">icar</text>
</a>
</g>
</g>
<!-- Node5&#45;&gt;Node6 -->
<g id="edge5" class="edge"><title>Node5&#45;&gt;Node6</title>
<path fill="none" stroke="midnightblue" d="M692.071,-48.9343C701.517,-46.6414 710.468,-44.4689 717.576,-42.7436"/>
<polygon fill="midnightblue" stroke="midnightblue" points="690.996,-45.5935 682.104,-51.3535 692.647,-52.396 690.996,-45.5935"/>
</g>
<!-- Node7&#45;&gt;Node6 -->
<g id="edge7" class="edge"><title>Node7&#45;&gt;Node6</title>
<path fill="none" stroke="midnightblue" d="M692.071,-29.4631C701.517,-31.6642 710.468,-33.7498 717.576,-35.4061"/>
<polygon fill="midnightblue" stroke="midnightblue" points="692.637,-26.0013 682.104,-27.1406 691.048,-32.8187 692.637,-26.0013"/>
</g>
<!-- Node8&#45;&gt;Node5 -->
<g id="edge9" class="edge"><title>Node8&#45;&gt;Node5</title>
<path fill="none" stroke="midnightblue" d="M522.84,-29.6768C541.041,-35.6175 562.859,-42.7388 581.893,-48.9512"/>
<polygon fill="midnightblue" stroke="midnightblue" points="523.733,-26.2868 513.141,-26.5112 521.561,-32.9413 523.733,-26.2868"/>
</g>
<!-- Node8&#45;&gt;Node7 -->
<g id="edge10" class="edge"><title>Node8&#45;&gt;Node7</title>
<path fill="none" stroke="midnightblue" d="M544.895,-16.1542C555.156,-16.0117 565.725,-15.8649 575.742,-15.7258"/>
<polygon fill="midnightblue" stroke="midnightblue" points="544.719,-12.6562 534.769,-16.2949 544.817,-19.6556 544.719,-12.6562"/>
</g>
</g>
</svg>
