<?xml version="1.0" encoding="UTF-8" standalone="no"?>
<!DOCTYPE svg PUBLIC "-//W3C//DTD SVG 1.1//EN"
 "http://www.w3.org/Graphics/SVG/1.1/DTD/svg11.dtd">
<!-- Generated by graphviz version 2.38.0 (20140413.2041)
 -->
<!-- Title: module_sf_noahlsm::smflx Pages: 1 -->
<svg width="421pt" height="130pt"
 viewBox="0.00 0.00 421.00 130.00" xmlns="http://www.w3.org/2000/svg" xmlns:xlink="http://www.w3.org/1999/xlink">
<g id="graph0" class="graph" transform="scale(1 1) rotate(0) translate(4 126)">
<title>module_sf_noahlsm::smflx</title>
<polygon fill="white" stroke="none" points="-4,4 -4,-126 417,-126 417,4 -4,4"/>
<!-- Node1 -->
<g id="node1" class="node"><title>Node1</title>
<polygon fill="#bfbfbf" stroke="black" points="0,-47.5 0,-77.5 110,-77.5 110,-47.5 0,-47.5"/>
<text text-anchor="start" x="8" y="-65.5" font-family="Helvetica,sans-Serif" font-size="10.00">module_sf_noahlsm::</text>
<text text-anchor="middle" x="55" y="-54.5" font-family="Helvetica,sans-Serif" font-size="10.00">smflx</text>
</g>
<!-- Node2 -->
<g id="node2" class="node"><title>Node2</title>
<g id="a_node2"><a xlink:href="classmodule__sf__noahlsm.html#ad15804ed9573673deb4f95b3f160eeb2" target="_top" xlink:title="module_sf_noahlsm::\lfac2mit">
<polygon fill="white" stroke="black" points="151.5,-91.5 151.5,-121.5 261.5,-121.5 261.5,-91.5 151.5,-91.5"/>
<text text-anchor="start" x="159.5" y="-109.5" font-family="Helvetica,sans-Serif" font-size="10.00">module_sf_noahlsm::</text>
<text text-anchor="middle" x="206.5" y="-98.5" font-family="Helvetica,sans-Serif" font-size="10.00">fac2mit</text>
</a>
</g>
</g>
<!-- Node1&#45;&gt;Node2 -->
<g id="edge1" class="edge"><title>Node1&#45;&gt;Node2</title>
<path fill="none" stroke="midnightblue" d="M107.031,-77.5192C119.112,-81.0748 132.115,-84.9018 144.586,-88.5721"/>
<polygon fill="midnightblue" stroke="midnightblue" points="143.864,-92.0079 154.445,-91.4738 145.84,-85.2927 143.864,-92.0079"/>
</g>
<!-- Node3 -->
<g id="node3" class="node"><title>Node3</title>
<g id="a_node3"><a xlink:href="classmodule__sf__noahlsm.html#a2e71343dc4bdf7438e0abf6d850d0c79" target="_top" xlink:title="module_sf_noahlsm::srt">
<polygon fill="white" stroke="black" points="146,-53 146,-72 267,-72 267,-53 146,-53"/>
<text text-anchor="middle" x="206.5" y="-60" font-family="Helvetica,sans-Serif" font-size="10.00">module_sf_noahlsm::srt</text>
</a>
</g>
</g>
<!-- Node1&#45;&gt;Node3 -->
<g id="edge2" class="edge"><title>Node1&#45;&gt;Node3</title>
<path fill="none" stroke="midnightblue" d="M110.396,-62.5C118.587,-62.5 127.131,-62.5 135.591,-62.5"/>
<polygon fill="midnightblue" stroke="midnightblue" points="135.841,-66.0001 145.841,-62.5 135.841,-59.0001 135.841,-66.0001"/>
</g>
<!-- Node5 -->
<g id="node5" class="node"><title>Node5</title>
<g id="a_node5"><a xlink:href="classmodule__sf__noahlsm.html#ada19fa401e97fc92326932b406bbc2c3" target="_top" xlink:title="module_sf_noahlsm::\lsstep">
<polygon fill="white" stroke="black" points="151.5,-2.5 151.5,-32.5 261.5,-32.5 261.5,-2.5 151.5,-2.5"/>
<text text-anchor="start" x="159.5" y="-20.5" font-family="Helvetica,sans-Serif" font-size="10.00">module_sf_noahlsm::</text>
<text text-anchor="middle" x="206.5" y="-9.5" font-family="Helvetica,sans-Serif" font-size="10.00">sstep</text>
</a>
</g>
</g>
<!-- Node1&#45;&gt;Node5 -->
<g id="edge4" class="edge"><title>Node1&#45;&gt;Node5</title>
<path fill="none" stroke="midnightblue" d="M106.197,-47.3905C118.838,-43.5856 132.532,-39.4636 145.596,-35.5313"/>
<polygon fill="midnightblue" stroke="midnightblue" points="146.868,-38.8035 155.435,-32.5697 144.851,-32.1005 146.868,-38.8035"/>
</g>
<!-- Node4 -->
<g id="node4" class="node"><title>Node4</title>
<g id="a_node4"><a xlink:href="classmodule__sf__noahlsm.html#a3b4a7f68699fbc22922e958770009b57" target="_top" xlink:title="module_sf_noahlsm::\lwdfcnd">
<polygon fill="white" stroke="black" points="303,-49.5 303,-79.5 413,-79.5 413,-49.5 303,-49.5"/>
<text text-anchor="start" x="311" y="-67.5" font-family="Helvetica,sans-Serif" font-size="10.00">module_sf_noahlsm::</text>
<text text-anchor="middle" x="358" y="-56.5" font-family="Helvetica,sans-Serif" font-size="10.00">wdfcnd</text>
</a>
</g>
</g>
<!-- Node3&#45;&gt;Node4 -->
<g id="edge3" class="edge"><title>Node3&#45;&gt;Node4</title>
<path fill="none" stroke="midnightblue" d="M267.016,-63.2962C275.352,-63.4077 283.952,-63.5228 292.377,-63.6355"/>
<polygon fill="midnightblue" stroke="midnightblue" points="292.492,-67.1372 302.538,-63.7714 292.586,-60.1379 292.492,-67.1372"/>
</g>
<!-- Node6 -->
<g id="node6" class="node"><title>Node6</title>
<g id="a_node6"><a xlink:href="classmodule__sf__noahlsm.html#ac6e3e7bb3f0322070546653306177216" target="_top" xlink:title="module_sf_noahlsm::\lrosr12">
<polygon fill="white" stroke="black" points="303,-0.5 303,-30.5 413,-30.5 413,-0.5 303,-0.5"/>
<text text-anchor="start" x="311" y="-18.5" font-family="Helvetica,sans-Serif" font-size="10.00">module_sf_noahlsm::</text>
<text text-anchor="middle" x="358" y="-7.5" font-family="Helvetica,sans-Serif" font-size="10.00">rosr12</text>
</a>
</g>
</g>
<!-- Node5&#45;&gt;Node6 -->
<g id="edge5" class="edge"><title>Node5&#45;&gt;Node6</title>
<path fill="none" stroke="midnightblue" d="M261.896,-16.7723C271.914,-16.6383 282.461,-16.4972 292.738,-16.3597"/>
<polygon fill="midnightblue" stroke="midnightblue" points="292.943,-19.8574 302.895,-16.2238 292.849,-12.858 292.943,-19.8574"/>
</g>
</g>
</svg>
