<?xml version="1.0" encoding="UTF-8" standalone="no"?>
<!DOCTYPE svg PUBLIC "-//W3C//DTD SVG 1.1//EN"
 "http://www.w3.org/Graphics/SVG/1.1/DTD/svg11.dtd">
<!-- Generated by graphviz version 2.32.0 (20130809.1645)
 -->
<!-- Title: land_surface::sat_mr Pages: 1 -->
<svg width="1076pt" height="239pt"
 viewBox="0.00 0.00 1076.00 238.51" xmlns="http://www.w3.org/2000/svg" xmlns:xlink="http://www.w3.org/1999/xlink">
<g id="graph0" class="graph" transform="scale(1 1) rotate(0) translate(4 234.515)">
<title>land_surface::sat_mr</title>
<polygon fill="white" stroke="white" points="-4,5 -4,-234.515 1073,-234.515 1073,5 -4,5"/>
<!-- Node1 -->
<g id="node1" class="node"><title>Node1</title>
<polygon fill="#bfbfbf" stroke="black" points="0,-120.5 0,-139.5 108,-139.5 108,-120.5 0,-120.5"/>
<text text-anchor="middle" x="54" y="-127.5" font-family="Helvetica,sans-Serif" font-size="10.00">land_surface::sat_mr</text>
</g>
<!-- Node2 -->
<g id="node2" class="node"><title>Node2</title>
<g id="a_node2"><a xlink:href="classland__surface.html#a5eda887fb43d0e56a673bbec669be5ad" target="_top" xlink:title="land_surface::lsm">
<polygon fill="white" stroke="black" points="331,-142.5 331,-161.5 425,-161.5 425,-142.5 331,-142.5"/>
<text text-anchor="middle" x="378" y="-149.5" font-family="Helvetica,sans-Serif" font-size="10.00">land_surface::lsm</text>
</a>
</g>
</g>
<!-- Node1&#45;&gt;Node2 -->
<g id="edge1" class="edge"><title>Node1&#45;&gt;Node2</title>
<path fill="none" stroke="midnightblue" d="M67.0056,-147.808C82.1459,-168.491 110.312,-201.497 144,-215 200.931,-237.819 223.277,-232.702 282,-215 316.864,-204.49 350.688,-176.542 366.956,-161.653"/>
<polygon fill="midnightblue" stroke="midnightblue" points="69.7925,-145.687 61.1642,-139.538 64.0751,-149.725 69.7925,-145.687"/>
</g>
<!-- Node5 -->
<g id="node5" class="node"><title>Node5</title>
<g id="a_node5"><a xlink:href="classmodule__mp__simple.html#aa47fc96f7112b5c4f9718b8f31c79c0c" target="_top" xlink:title=" Calculate the saturated mixing ratio for a given temperature and pressure ">
<polygon fill="white" stroke="black" points="144.5,-186.5 144.5,-205.5 281.5,-205.5 281.5,-186.5 144.5,-186.5"/>
<text text-anchor="middle" x="213" y="-193.5" font-family="Helvetica,sans-Serif" font-size="10.00">module_mp_simple::sat_mr</text>
</a>
</g>
</g>
<!-- Node1&#45;&gt;Node5 -->
<g id="edge4" class="edge"><title>Node1&#45;&gt;Node5</title>
<path fill="none" stroke="midnightblue" d="M80.2755,-144.713C97.7653,-154.48 121.799,-167.093 144,-176 153.822,-179.941 164.719,-183.491 174.86,-186.468"/>
<polygon fill="midnightblue" stroke="midnightblue" points="81.7117,-141.504 71.2854,-139.622 78.2621,-147.595 81.7117,-141.504"/>
</g>
<!-- Node6 -->
<g id="node6" class="node"><title>Node6</title>
<g id="a_node6"><a xlink:href="classmodule__mp__simple.html#aa0106ae6c82c8b14c49b4afd1871e12b" target="_top" xlink:title=" Convert cloud water to vapor and back ">
<polygon fill="white" stroke="black" points="148,-0 148,-30 278,-30 278,-0 148,-0"/>
<text text-anchor="start" x="156" y="-18" font-family="Helvetica,sans-Serif" font-size="10.00">module_mp_simple::cloud</text>
<text text-anchor="middle" x="213" y="-7" font-family="Helvetica,sans-Serif" font-size="10.00">_conversion</text>
</a>
</g>
</g>
<!-- Node1&#45;&gt;Node6 -->
<g id="edge5" class="edge"><title>Node1&#45;&gt;Node6</title>
<path fill="none" stroke="midnightblue" d="M68.1904,-112.256C84.1124,-91.9662 112.68,-58.9828 144,-39 149.277,-35.6332 155.087,-32.666 161.02,-30.0708"/>
<polygon fill="midnightblue" stroke="midnightblue" points="65.2937,-110.282 61.9846,-120.347 70.8479,-114.542 65.2937,-110.282"/>
</g>
<!-- Node8 -->
<g id="node8" class="node"><title>Node8</title>
<g id="a_node8"><a xlink:href="classmodule__mp__simple.html#ac6e0bb6089333d9b063ba5f4e6f8127f" target="_top" xlink:title=" Basic microphysics code for a column of air ">
<polygon fill="white" stroke="black" points="474,-93 474,-123 594,-123 594,-93 474,-93"/>
<text text-anchor="start" x="482" y="-111" font-family="Helvetica,sans-Serif" font-size="10.00">module_mp_simple::mp</text>
<text text-anchor="middle" x="534" y="-100" font-family="Helvetica,sans-Serif" font-size="10.00">_simple</text>
</a>
</g>
</g>
<!-- Node1&#45;&gt;Node8 -->
<g id="edge11" class="edge"><title>Node1&#45;&gt;Node8</title>
<path fill="none" stroke="midnightblue" d="M118.562,-127.075C211.587,-122.793 383.547,-114.879 473.944,-110.718"/>
<polygon fill="midnightblue" stroke="midnightblue" points="118.27,-123.584 108.441,-127.54 118.592,-130.577 118.27,-123.584"/>
</g>
<!-- Node11 -->
<g id="node11" class="node"><title>Node11</title>
<g id="a_node11"><a xlink:href="classmodule__water__simple.html#a6e60f9b618e6c17cd20cb2c9fc8304b5" target="_top" xlink:title="module_water_simple\l::sat_mr">
<polygon fill="white" stroke="black" points="157.5,-49 157.5,-79 268.5,-79 268.5,-49 157.5,-49"/>
<text text-anchor="start" x="165.5" y="-67" font-family="Helvetica,sans-Serif" font-size="10.00">module_water_simple</text>
<text text-anchor="middle" x="213" y="-56" font-family="Helvetica,sans-Serif" font-size="10.00">::sat_mr</text>
</a>
</g>
</g>
<!-- Node1&#45;&gt;Node11 -->
<g id="edge12" class="edge"><title>Node1&#45;&gt;Node11</title>
<path fill="none" stroke="midnightblue" d="M87.1799,-116.472C113.018,-105.61 149.279,-90.3669 176.063,-79.1071"/>
<polygon fill="midnightblue" stroke="midnightblue" points="85.6913,-113.301 77.8291,-120.403 88.4041,-119.754 85.6913,-113.301"/>
</g>
<!-- Node12 -->
<g id="node12" class="node"><title>Node12</title>
<g id="a_node12"><a xlink:href="classmodule__water__simple.html#ad47e405cb5cf58757fb5425337139251" target="_top" xlink:title="module_water_simple\l::water_simple">
<polygon fill="white" stroke="black" points="157.5,-137 157.5,-167 268.5,-167 268.5,-137 157.5,-137"/>
<text text-anchor="start" x="165.5" y="-155" font-family="Helvetica,sans-Serif" font-size="10.00">module_water_simple</text>
<text text-anchor="middle" x="213" y="-144" font-family="Helvetica,sans-Serif" font-size="10.00">::water_simple</text>
</a>
</g>
</g>
<!-- Node1&#45;&gt;Node12 -->
<g id="edge13" class="edge"><title>Node1&#45;&gt;Node12</title>
<path fill="none" stroke="midnightblue" d="M118.351,-138.877C131.254,-140.685 144.724,-142.573 157.296,-144.334"/>
<polygon fill="midnightblue" stroke="midnightblue" points="118.542,-135.37 108.153,-137.448 117.571,-142.302 118.542,-135.37"/>
</g>
<!-- Node3 -->
<g id="node3" class="node"><title>Node3</title>
<g id="a_node3"><a xlink:href="classtime__step.html#a2c022f11247af72e607b1493289aa974" target="_top" xlink:title=" Step forward one IO time step. ">
<polygon fill="white" stroke="black" points="916,-121.5 916,-140.5 1000,-140.5 1000,-121.5 916,-121.5"/>
<text text-anchor="middle" x="958" y="-128.5" font-family="Helvetica,sans-Serif" font-size="10.00">time_step::step</text>
</a>
</g>
</g>
<!-- Node2&#45;&gt;Node3 -->
<g id="edge2" class="edge"><title>Node2&#45;&gt;Node3</title>
<path fill="none" stroke="midnightblue" d="M435.418,-149.95C551.445,-145.735 814.429,-136.18 915.947,-132.492"/>
<polygon fill="midnightblue" stroke="midnightblue" points="435.189,-146.456 425.323,-150.317 435.444,-153.451 435.189,-146.456"/>
</g>
<!-- Node4 -->
<g id="node4" class="node"><title>Node4</title>
<g id="a_node4"><a xlink:href="driver_8f90.html#ab1e5a5816a57fc6e95d9563c2bb53590" target="_top" xlink:title=" Main Program ">
<polygon fill="white" stroke="black" points="1036,-121.5 1036,-140.5 1068,-140.5 1068,-121.5 1036,-121.5"/>
<text text-anchor="middle" x="1052" y="-128.5" font-family="Helvetica,sans-Serif" font-size="10.00">icar</text>
</a>
</g>
</g>
<!-- Node3&#45;&gt;Node4 -->
<g id="edge3" class="edge"><title>Node3&#45;&gt;Node4</title>
<path fill="none" stroke="midnightblue" d="M1010.25,-131C1019.52,-131 1028.5,-131 1035.66,-131"/>
<polygon fill="midnightblue" stroke="midnightblue" points="1010.16,-127.5 1000.16,-131 1010.16,-134.5 1010.16,-127.5"/>
</g>
<!-- Node7 -->
<g id="node7" class="node"><title>Node7</title>
<g id="a_node7"><a xlink:href="classmodule__mp__simple.html#afa657f819d93fc905ac898e46b0551ce" target="_top" xlink:title=" Compute microphysical conversions ">
<polygon fill="white" stroke="black" points="318,-25 318,-55 438,-55 438,-25 318,-25"/>
<text text-anchor="start" x="326" y="-43" font-family="Helvetica,sans-Serif" font-size="10.00">module_mp_simple::mp</text>
<text text-anchor="middle" x="378" y="-32" font-family="Helvetica,sans-Serif" font-size="10.00">_conversions</text>
</a>
</g>
</g>
<!-- Node6&#45;&gt;Node7 -->
<g id="edge6" class="edge"><title>Node6&#45;&gt;Node7</title>
<path fill="none" stroke="midnightblue" d="M288.567,-26.4367C298.373,-27.9406 308.313,-29.4652 317.815,-30.9225"/>
<polygon fill="midnightblue" stroke="midnightblue" points="288.837,-22.9372 278.422,-24.8807 287.776,-29.8563 288.837,-22.9372"/>
</g>
<!-- Node7&#45;&gt;Node8 -->
<g id="edge7" class="edge"><title>Node7&#45;&gt;Node8</title>
<path fill="none" stroke="midnightblue" d="M422.499,-59.2074C446.709,-69.8977 476.409,-83.0115 498.918,-92.9508"/>
<polygon fill="midnightblue" stroke="midnightblue" points="423.739,-55.929 413.178,-55.0914 420.912,-62.3326 423.739,-55.929"/>
</g>
<!-- Node9 -->
<g id="node9" class="node"><title>Node9</title>
<g id="a_node9"><a xlink:href="classmodule__mp__simple.html#a3b5b540d9d511651c42ec6b3ba842796" target="_top" xlink:title=" Driver code to control simple microphysics ">
<polygon fill="white" stroke="black" points="630,-93 630,-123 750,-123 750,-93 630,-93"/>
<text text-anchor="start" x="638" y="-111" font-family="Helvetica,sans-Serif" font-size="10.00">module_mp_simple::mp</text>
<text text-anchor="middle" x="690" y="-100" font-family="Helvetica,sans-Serif" font-size="10.00">_simple_driver</text>
</a>
</g>
</g>
<!-- Node8&#45;&gt;Node9 -->
<g id="edge8" class="edge"><title>Node8&#45;&gt;Node9</title>
<path fill="none" stroke="midnightblue" d="M604.369,-108C612.862,-108 621.48,-108 629.804,-108"/>
<polygon fill="midnightblue" stroke="midnightblue" points="604.1,-104.5 594.1,-108 604.1,-111.5 604.1,-104.5"/>
</g>
<!-- Node10 -->
<g id="node10" class="node"><title>Node10</title>
<g id="a_node10"><a xlink:href="classmicrophysics.html#a97ab38e6007bb1f3aa63135be25a6145" target="_top" xlink:title="microphysics::mp">
<polygon fill="white" stroke="black" points="786,-101.5 786,-120.5 880,-120.5 880,-101.5 786,-101.5"/>
<text text-anchor="middle" x="833" y="-108.5" font-family="Helvetica,sans-Serif" font-size="10.00">microphysics::mp</text>
</a>
</g>
</g>
<!-- Node9&#45;&gt;Node10 -->
<g id="edge9" class="edge"><title>Node9&#45;&gt;Node10</title>
<path fill="none" stroke="midnightblue" d="M760.493,-109.479C769.135,-109.662 777.798,-109.847 785.961,-110.02"/>
<polygon fill="midnightblue" stroke="midnightblue" points="760.46,-105.977 750.388,-109.264 760.311,-112.976 760.46,-105.977"/>
</g>
<!-- Node10&#45;&gt;Node3 -->
<g id="edge10" class="edge"><title>Node10&#45;&gt;Node3</title>
<path fill="none" stroke="midnightblue" d="M890.191,-120.137C898.834,-121.542 907.618,-122.97 915.853,-124.309"/>
<polygon fill="midnightblue" stroke="midnightblue" points="890.583,-116.655 880.151,-118.504 889.459,-123.564 890.583,-116.655"/>
</g>
<!-- Node12&#45;&gt;Node2 -->
<g id="edge14" class="edge"><title>Node12&#45;&gt;Node2</title>
<path fill="none" stroke="midnightblue" d="M278.827,-152C296.226,-152 314.685,-152 330.844,-152"/>
<polygon fill="midnightblue" stroke="midnightblue" points="278.73,-148.5 268.73,-152 278.73,-155.5 278.73,-148.5"/>
</g>
</g>
</svg>
