<?xml version="1.0" encoding="UTF-8" standalone="no"?>
<!DOCTYPE svg PUBLIC "-//W3C//DTD SVG 1.1//EN"
 "http://www.w3.org/Graphics/SVG/1.1/DTD/svg11.dtd">
<!-- Generated by graphviz version 2.32.0 (20130809.1645)
 -->
<!-- Title: land_surface::lsm Pages: 1 -->
<svg width="1200pt" height="845pt"
 viewBox="0.00 0.00 1200.00 845.00" xmlns="http://www.w3.org/2000/svg" xmlns:xlink="http://www.w3.org/1999/xlink">
<g id="graph0" class="graph" transform="scale(1 1) rotate(0) translate(4 841)">
<title>land_surface::lsm</title>
<polygon fill="white" stroke="white" points="-4,5 -4,-841 1197,-841 1197,5 -4,5"/>
<!-- Node1 -->
<g id="node1" class="node"><title>Node1</title>
<polygon fill="#bfbfbf" stroke="black" points="0,-514.5 0,-533.5 94,-533.5 94,-514.5 0,-514.5"/>
<text text-anchor="middle" x="47" y="-521.5" font-family="Helvetica,sans-Serif" font-size="10.00">land_surface::lsm</text>
</g>
<!-- Node2 -->
<g id="node2" class="node"><title>Node2</title>
<g id="a_node2"><a xlink:href="classland__surface.html#a91d5fd091cf016fb3312e53c3907d1c5" target="_top" xlink:title="land_surface::calc\l_exchange_coefficient">
<polygon fill="white" stroke="black" points="309,-719 309,-749 423,-749 423,-719 309,-719"/>
<text text-anchor="start" x="317" y="-737" font-family="Helvetica,sans-Serif" font-size="10.00">land_surface::calc</text>
<text text-anchor="middle" x="366" y="-726" font-family="Helvetica,sans-Serif" font-size="10.00">_exchange_coefficient</text>
</a>
</g>
</g>
<!-- Node1&#45;&gt;Node2 -->
<g id="edge1" class="edge"><title>Node1&#45;&gt;Node2</title>
<path fill="none" stroke="midnightblue" d="M52.3171,-533.594C62.6577,-555.57 90.921,-610.039 130,-641 179.815,-680.466 248.489,-705.044 298.734,-718.947"/>
<polygon fill="midnightblue" stroke="midnightblue" points="297.96,-722.364 308.527,-721.587 299.782,-715.605 297.96,-722.364"/>
</g>
<!-- Node3 -->
<g id="node3" class="node"><title>Node3</title>
<g id="a_node3"><a xlink:href="classland__surface.html#a3c2a62e40169606db7a71db57364baea" target="_top" xlink:title="land_surface::calc\l_mahrt_holtslag_exchange\l_coefficient">
<polygon fill="white" stroke="black" points="130.5,-503.5 130.5,-544.5 263.5,-544.5 263.5,-503.5 130.5,-503.5"/>
<text text-anchor="start" x="138.5" y="-532.5" font-family="Helvetica,sans-Serif" font-size="10.00">land_surface::calc</text>
<text text-anchor="start" x="138.5" y="-521.5" font-family="Helvetica,sans-Serif" font-size="10.00">_mahrt_holtslag_exchange</text>
<text text-anchor="middle" x="197" y="-510.5" font-family="Helvetica,sans-Serif" font-size="10.00">_coefficient</text>
</a>
</g>
</g>
<!-- Node1&#45;&gt;Node3 -->
<g id="edge2" class="edge"><title>Node1&#45;&gt;Node3</title>
<path fill="none" stroke="midnightblue" d="M94.0168,-524C102.402,-524 111.348,-524 120.328,-524"/>
<polygon fill="midnightblue" stroke="midnightblue" points="120.452,-527.5 130.452,-524 120.452,-520.5 120.452,-527.5"/>
</g>
<!-- Node5 -->
<g id="node5" class="node"><title>Node5</title>
<g id="a_node5"><a xlink:href="classland__surface.html#ab611d871ec5af4909055c4484c2695e9" target="_top" xlink:title="land_surface::sat_mr">
<polygon fill="white" stroke="black" points="312,-817.5 312,-836.5 420,-836.5 420,-817.5 312,-817.5"/>
<text text-anchor="middle" x="366" y="-824.5" font-family="Helvetica,sans-Serif" font-size="10.00">land_surface::sat_mr</text>
</a>
</g>
</g>
<!-- Node1&#45;&gt;Node5 -->
<g id="edge4" class="edge"><title>Node1&#45;&gt;Node5</title>
<path fill="none" stroke="midnightblue" d="M47.844,-533.752C47.8009,-571.925 53.0576,-712.472 130,-781 176.567,-822.475 249.244,-831.139 301.446,-831.204"/>
<polygon fill="midnightblue" stroke="midnightblue" points="301.633,-834.702 311.6,-831.109 301.568,-827.702 301.633,-834.702"/>
</g>
<!-- Node6 -->
<g id="node6" class="node"><title>Node6</title>
<g id="a_node6"><a xlink:href="classmodule__water__simple.html#ad47e405cb5cf58757fb5425337139251" target="_top" xlink:title="module_water_simple\l::water_simple">
<polygon fill="white" stroke="black" points="141.5,-742 141.5,-772 252.5,-772 252.5,-742 141.5,-742"/>
<text text-anchor="start" x="149.5" y="-760" font-family="Helvetica,sans-Serif" font-size="10.00">module_water_simple</text>
<text text-anchor="middle" x="197" y="-749" font-family="Helvetica,sans-Serif" font-size="10.00">::water_simple</text>
</a>
</g>
</g>
<!-- Node1&#45;&gt;Node6 -->
<g id="edge5" class="edge"><title>Node1&#45;&gt;Node6</title>
<path fill="none" stroke="midnightblue" d="M49.4421,-533.705C54.5955,-565.24 74.8271,-666.172 130,-725 134.13,-729.403 138.993,-733.273 144.177,-736.656"/>
<polygon fill="midnightblue" stroke="midnightblue" points="142.732,-739.866 153.131,-741.898 146.269,-733.825 142.732,-739.866"/>
</g>
<!-- Node8 -->
<g id="node8" class="node"><title>Node8</title>
<g id="a_node8"><a xlink:href="classmodule__lsm__basic.html#a1acb1c23aafdeaef72a00a123bed7ed2" target="_top" xlink:title="module_lsm_basic::lsm\l_basic">
<polygon fill="white" stroke="black" points="137.5,-455 137.5,-485 256.5,-485 256.5,-455 137.5,-455"/>
<text text-anchor="start" x="145.5" y="-473" font-family="Helvetica,sans-Serif" font-size="10.00">module_lsm_basic::lsm</text>
<text text-anchor="middle" x="197" y="-462" font-family="Helvetica,sans-Serif" font-size="10.00">_basic</text>
</a>
</g>
</g>
<!-- Node1&#45;&gt;Node8 -->
<g id="edge9" class="edge"><title>Node1&#45;&gt;Node8</title>
<path fill="none" stroke="midnightblue" d="M74.2151,-514.394C90.3091,-508.501 111.344,-500.805 130,-494 134.816,-492.243 139.831,-490.416 144.849,-488.589"/>
<polygon fill="midnightblue" stroke="midnightblue" points="146.251,-491.804 154.451,-485.095 143.857,-485.226 146.251,-491.804"/>
</g>
<!-- Node11 -->
<g id="node11" class="node"><title>Node11</title>
<g id="a_node11"><a xlink:href="classmodule__lsm__simple.html#ae5b0abd9812d2312b5c80f9b2f02d17e" target="_top" xlink:title="module_lsm_simple::\llsm_simple">
<polygon fill="white" stroke="black" points="142.5,-602 142.5,-632 251.5,-632 251.5,-602 142.5,-602"/>
<text text-anchor="start" x="150.5" y="-620" font-family="Helvetica,sans-Serif" font-size="10.00">module_lsm_simple::</text>
<text text-anchor="middle" x="197" y="-609" font-family="Helvetica,sans-Serif" font-size="10.00">lsm_simple</text>
</a>
</g>
</g>
<!-- Node1&#45;&gt;Node11 -->
<g id="edge12" class="edge"><title>Node1&#45;&gt;Node11</title>
<path fill="none" stroke="midnightblue" d="M63.2812,-533.602C86.7408,-548.344 132.175,-576.894 163.288,-596.444"/>
<polygon fill="midnightblue" stroke="midnightblue" points="161.718,-599.592 172.048,-601.949 165.443,-593.665 161.718,-599.592"/>
</g>
<!-- Node16 -->
<g id="node16" class="node"><title>Node16</title>
<g id="a_node16"><a xlink:href="classmodule__sf__noahdrv.html#a329dccdd0c1fc2797bc8ebcc9bcc0ff6" target="_top" xlink:title="module_sf_noahdrv::\llsm_noah">
<polygon fill="white" stroke="black" points="143.5,-406 143.5,-436 250.5,-436 250.5,-406 143.5,-406"/>
<text text-anchor="start" x="151.5" y="-424" font-family="Helvetica,sans-Serif" font-size="10.00">module_sf_noahdrv::</text>
<text text-anchor="middle" x="197" y="-413" font-family="Helvetica,sans-Serif" font-size="10.00">lsm_noah</text>
</a>
</g>
</g>
<!-- Node1&#45;&gt;Node16 -->
<g id="edge18" class="edge"><title>Node1&#45;&gt;Node16</title>
<path fill="none" stroke="midnightblue" d="M55.8808,-514.317C69.4784,-498.161 98.8947,-465.555 130,-446 133.141,-444.025 136.463,-442.168 139.878,-440.428"/>
<polygon fill="midnightblue" stroke="midnightblue" points="141.522,-443.522 149.077,-436.095 138.539,-437.189 141.522,-443.522"/>
</g>
<!-- Node46 -->
<g id="node46" class="node"><title>Node46</title>
<g id="a_node46"><a xlink:href="classland__surface.html#a90a1f4fe91cb7cab64c843a545ce7cb6" target="_top" xlink:title="land_surface::surface\l_diagnostics">
<polygon fill="white" stroke="black" points="142,-357 142,-387 252,-387 252,-357 142,-357"/>
<text text-anchor="start" x="150" y="-375" font-family="Helvetica,sans-Serif" font-size="10.00">land_surface::surface</text>
<text text-anchor="middle" x="197" y="-364" font-family="Helvetica,sans-Serif" font-size="10.00">_diagnostics</text>
</a>
</g>
</g>
<!-- Node1&#45;&gt;Node46 -->
<g id="edge54" class="edge"><title>Node1&#45;&gt;Node46</title>
<path fill="none" stroke="midnightblue" d="M51.7608,-514.23C61.2819,-490.725 88.5654,-430.491 130,-397 132.233,-395.195 134.611,-393.511 137.088,-391.94"/>
<polygon fill="midnightblue" stroke="midnightblue" points="138.822,-394.981 145.825,-387.03 135.393,-388.878 138.822,-394.981"/>
</g>
<!-- Node47 -->
<g id="node47" class="node"><title>Node47</title>
<g id="a_node47"><a xlink:href="classland__surface.html#a7e3ca7f3603728ff47008943c2bc5dd5" target="_top" xlink:title="land_surface::apply\l_fluxes">
<polygon fill="white" stroke="black" points="146.5,-308 146.5,-338 247.5,-338 247.5,-308 146.5,-308"/>
<text text-anchor="start" x="154.5" y="-326" font-family="Helvetica,sans-Serif" font-size="10.00">land_surface::apply</text>
<text text-anchor="middle" x="197" y="-315" font-family="Helvetica,sans-Serif" font-size="10.00">_fluxes</text>
</a>
</g>
</g>
<!-- Node1&#45;&gt;Node47 -->
<g id="edge55" class="edge"><title>Node1&#45;&gt;Node47</title>
<path fill="none" stroke="midnightblue" d="M49.7937,-514.499C55.7647,-485.416 77.635,-396.631 130,-348 132.305,-345.859 134.811,-343.897 137.455,-342.098"/>
<polygon fill="midnightblue" stroke="midnightblue" points="139.452,-344.984 146.292,-336.893 135.899,-338.953 139.452,-344.984"/>
</g>
<!-- Node4 -->
<g id="node4" class="node"><title>Node4</title>
<g id="a_node4"><a xlink:href="classland__surface.html#a57d90bf462c2ccb7b2c36730b4ed89df" target="_top" xlink:title="land_surface::f2_formula">
<polygon fill="white" stroke="black" points="304,-484.5 304,-503.5 428,-503.5 428,-484.5 304,-484.5"/>
<text text-anchor="middle" x="366" y="-491.5" font-family="Helvetica,sans-Serif" font-size="10.00">land_surface::f2_formula</text>
</a>
</g>
</g>
<!-- Node3&#45;&gt;Node4 -->
<g id="edge3" class="edge"><title>Node3&#45;&gt;Node4</title>
<path fill="none" stroke="midnightblue" d="M263.524,-512.229C276.214,-509.95 289.486,-507.565 302.09,-505.301"/>
<polygon fill="midnightblue" stroke="midnightblue" points="302.808,-508.728 312.031,-503.515 301.57,-501.839 302.808,-508.728"/>
</g>
<!-- Node6&#45;&gt;Node2 -->
<g id="edge8" class="edge"><title>Node6&#45;&gt;Node2</title>
<path fill="none" stroke="midnightblue" d="M252.682,-749.469C267.43,-747.438 283.545,-745.218 298.848,-743.111"/>
<polygon fill="midnightblue" stroke="midnightblue" points="299.334,-746.577 308.763,-741.745 298.379,-739.642 299.334,-746.577"/>
</g>
<!-- Node6&#45;&gt;Node5 -->
<g id="edge6" class="edge"><title>Node6&#45;&gt;Node5</title>
<path fill="none" stroke="midnightblue" d="M225.606,-772.005C245.83,-782.632 274.147,-796.76 300,-807 306.49,-809.571 313.45,-812.021 320.315,-814.269"/>
<polygon fill="midnightblue" stroke="midnightblue" points="319.652,-817.73 330.242,-817.409 321.763,-811.056 319.652,-817.73"/>
</g>
<!-- Node7 -->
<g id="node7" class="node"><title>Node7</title>
<g id="a_node7"><a xlink:href="classmodule__water__simple.html#a5b9a1a842f3dc930a7240399069f9810" target="_top" xlink:title="module_water_simple\l::ocean_roughness">
<polygon fill="white" stroke="black" points="310.5,-768 310.5,-798 421.5,-798 421.5,-768 310.5,-768"/>
<text text-anchor="start" x="318.5" y="-786" font-family="Helvetica,sans-Serif" font-size="10.00">module_water_simple</text>
<text text-anchor="middle" x="366" y="-775" font-family="Helvetica,sans-Serif" font-size="10.00">::ocean_roughness</text>
</a>
</g>
</g>
<!-- Node6&#45;&gt;Node7 -->
<g id="edge7" class="edge"><title>Node6&#45;&gt;Node7</title>
<path fill="none" stroke="midnightblue" d="M252.682,-765.513C267.898,-767.882 284.57,-770.478 300.302,-772.927"/>
<polygon fill="midnightblue" stroke="midnightblue" points="300.061,-776.432 310.48,-774.512 301.138,-769.515 300.061,-776.432"/>
</g>
<!-- Node9 -->
<g id="node9" class="node"><title>Node9</title>
<g id="a_node9"><a xlink:href="classmodule__lsm__basic.html#a2d87c61425426021c5ee5492c753145d" target="_top" xlink:title="module_lsm_basic::calc\l_pbl_index">
<polygon fill="white" stroke="black" points="305,-386 305,-416 427,-416 427,-386 305,-386"/>
<text text-anchor="start" x="313" y="-404" font-family="Helvetica,sans-Serif" font-size="10.00">module_lsm_basic::calc</text>
<text text-anchor="middle" x="366" y="-393" font-family="Helvetica,sans-Serif" font-size="10.00">_pbl_index</text>
</a>
</g>
</g>
<!-- Node8&#45;&gt;Node9 -->
<g id="edge10" class="edge"><title>Node8&#45;&gt;Node9</title>
<path fill="none" stroke="midnightblue" d="M240.216,-454.899C248.189,-451.797 256.405,-448.427 264,-445 280.491,-437.559 283.528,-433.483 300,-426 304.629,-423.897 309.49,-421.811 314.383,-419.792"/>
<polygon fill="midnightblue" stroke="midnightblue" points="315.812,-422.99 323.779,-416.007 313.196,-416.498 315.812,-422.99"/>
</g>
<!-- Node10 -->
<g id="node10" class="node"><title>Node10</title>
<g id="a_node10"><a xlink:href="classmodule__lsm__basic.html#a428eb1223e5c289e6534c5b7e7fc1c00" target="_top" xlink:title="module_lsm_basic::simple\l_land_surface_fluxes">
<polygon fill="white" stroke="black" points="300,-435 300,-465 432,-465 432,-435 300,-435"/>
<text text-anchor="start" x="308" y="-453" font-family="Helvetica,sans-Serif" font-size="10.00">module_lsm_basic::simple</text>
<text text-anchor="middle" x="366" y="-442" font-family="Helvetica,sans-Serif" font-size="10.00">_land_surface_fluxes</text>
</a>
</g>
</g>
<!-- Node8&#45;&gt;Node10 -->
<g id="edge11" class="edge"><title>Node8&#45;&gt;Node10</title>
<path fill="none" stroke="midnightblue" d="M256.878,-462.949C267.519,-461.674 278.745,-460.33 289.778,-459.009"/>
<polygon fill="midnightblue" stroke="midnightblue" points="290.319,-462.469 299.832,-457.805 289.487,-455.519 290.319,-462.469"/>
</g>
<!-- Node11&#45;&gt;Node2 -->
<g id="edge14" class="edge"><title>Node11&#45;&gt;Node2</title>
<path fill="none" stroke="midnightblue" d="M211.491,-632.246C229.828,-652.193 264.433,-687.168 300,-709 303.175,-710.949 306.527,-712.791 309.968,-714.523"/>
<polygon fill="midnightblue" stroke="midnightblue" points="308.682,-717.786 319.223,-718.852 311.648,-711.445 308.682,-717.786"/>
</g>
<!-- Node12 -->
<g id="node12" class="node"><title>Node12</title>
<g id="a_node12"><a xlink:href="classmodule__lsm__simple.html#a924f558b4123cab6e16c0b7c0f808f08" target="_top" xlink:title="module_lsm_simple::\lcalc_ground_heat">
<polygon fill="white" stroke="black" points="311.5,-621 311.5,-651 420.5,-651 420.5,-621 311.5,-621"/>
<text text-anchor="start" x="319.5" y="-639" font-family="Helvetica,sans-Serif" font-size="10.00">module_lsm_simple::</text>
<text text-anchor="middle" x="366" y="-628" font-family="Helvetica,sans-Serif" font-size="10.00">calc_ground_heat</text>
</a>
</g>
</g>
<!-- Node11&#45;&gt;Node12 -->
<g id="edge13" class="edge"><title>Node11&#45;&gt;Node12</title>
<path fill="none" stroke="midnightblue" d="M251.759,-623.116C267.552,-624.913 284.977,-626.896 301.325,-628.756"/>
<polygon fill="midnightblue" stroke="midnightblue" points="301.01,-632.242 311.342,-629.895 301.801,-625.287 301.01,-632.242"/>
</g>
<!-- Node13 -->
<g id="node13" class="node"><title>Node13</title>
<g id="a_node13"><a xlink:href="classmodule__lsm__simple.html#a6ac1af4d14a6952c271d60a04452011a" target="_top" xlink:title="module_lsm_simple::\lcalc_sensible_heat">
<polygon fill="white" stroke="black" points="311.5,-572 311.5,-602 420.5,-602 420.5,-572 311.5,-572"/>
<text text-anchor="start" x="319.5" y="-590" font-family="Helvetica,sans-Serif" font-size="10.00">module_lsm_simple::</text>
<text text-anchor="middle" x="366" y="-579" font-family="Helvetica,sans-Serif" font-size="10.00">calc_sensible_heat</text>
</a>
</g>
</g>
<!-- Node11&#45;&gt;Node13 -->
<g id="edge15" class="edge"><title>Node11&#45;&gt;Node13</title>
<path fill="none" stroke="midnightblue" d="M251.759,-607.343C267.552,-604.506 284.977,-601.375 301.325,-598.439"/>
<polygon fill="midnightblue" stroke="midnightblue" points="302.118,-601.852 311.342,-596.639 300.88,-594.963 302.118,-601.852"/>
</g>
<!-- Node14 -->
<g id="node14" class="node"><title>Node14</title>
<g id="a_node14"><a xlink:href="classmodule__lsm__simple.html#ae065f8a594a1ff0c54d6b1bd3bcf0698" target="_top" xlink:title="module_lsm_simple::\lcalc_latent_heat">
<polygon fill="white" stroke="black" points="311.5,-523 311.5,-553 420.5,-553 420.5,-523 311.5,-523"/>
<text text-anchor="start" x="319.5" y="-541" font-family="Helvetica,sans-Serif" font-size="10.00">module_lsm_simple::</text>
<text text-anchor="middle" x="366" y="-530" font-family="Helvetica,sans-Serif" font-size="10.00">calc_latent_heat</text>
</a>
</g>
</g>
<!-- Node11&#45;&gt;Node14 -->
<g id="edge16" class="edge"><title>Node11&#45;&gt;Node14</title>
<path fill="none" stroke="midnightblue" d="M224.407,-601.898C244.747,-590.542 273.738,-574.95 300,-563 304.443,-560.978 309.102,-558.972 313.797,-557.027"/>
<polygon fill="midnightblue" stroke="midnightblue" points="315.469,-560.127 323.43,-553.136 312.847,-553.637 315.469,-560.127"/>
</g>
<!-- Node15 -->
<g id="node15" class="node"><title>Node15</title>
<g id="a_node15"><a xlink:href="classmodule__lsm__simple.html#a7917430537d70da25563482bac20e39c" target="_top" xlink:title="module_lsm_simple::\ladd_rain">
<polygon fill="white" stroke="black" points="311.5,-670 311.5,-700 420.5,-700 420.5,-670 311.5,-670"/>
<text text-anchor="start" x="319.5" y="-688" font-family="Helvetica,sans-Serif" font-size="10.00">module_lsm_simple::</text>
<text text-anchor="middle" x="366" y="-677" font-family="Helvetica,sans-Serif" font-size="10.00">add_rain</text>
</a>
</g>
</g>
<!-- Node11&#45;&gt;Node15 -->
<g id="edge17" class="edge"><title>Node11&#45;&gt;Node15</title>
<path fill="none" stroke="midnightblue" d="M232.82,-632.002C252.481,-640.391 277.541,-650.95 300,-660 305.117,-662.062 310.474,-664.183 315.824,-666.276"/>
<polygon fill="midnightblue" stroke="midnightblue" points="314.803,-669.635 325.392,-669.996 317.34,-663.11 314.803,-669.635"/>
</g>
<!-- Node17 -->
<g id="node17" class="node"><title>Node17</title>
<g id="a_node17"><a xlink:href="classmodule__sf__noahlsm.html#a7cd9a2732205c21a5f59d679e0a1fddd" target="_top" xlink:title="module_sf_noahlsm::sflx">
<polygon fill="white" stroke="black" points="303.5,-347.5 303.5,-366.5 428.5,-366.5 428.5,-347.5 303.5,-347.5"/>
<text text-anchor="middle" x="366" y="-354.5" font-family="Helvetica,sans-Serif" font-size="10.00">module_sf_noahlsm::sflx</text>
</a>
</g>
</g>
<!-- Node16&#45;&gt;Node17 -->
<g id="edge19" class="edge"><title>Node16&#45;&gt;Node17</title>
<path fill="none" stroke="midnightblue" d="M240.216,-405.899C248.189,-402.797 256.405,-399.427 264,-396 280.491,-388.559 283.281,-383.913 300,-377 306.378,-374.363 313.232,-371.888 320.012,-369.637"/>
<polygon fill="midnightblue" stroke="midnightblue" points="321.364,-372.88 329.83,-366.509 319.239,-366.21 321.364,-372.88"/>
</g>
<!-- Node18 -->
<g id="node18" class="node"><title>Node18</title>
<g id="a_node18"><a xlink:href="classmodule__sf__noahlsm.html#a035da859804652a83bc5fd235e70b2e0" target="_top" xlink:title="module_sf_noahlsm::\lredprm">
<polygon fill="white" stroke="black" points="468,-582 468,-612 578,-612 578,-582 468,-582"/>
<text text-anchor="start" x="476" y="-600" font-family="Helvetica,sans-Serif" font-size="10.00">module_sf_noahlsm::</text>
<text text-anchor="middle" x="523" y="-589" font-family="Helvetica,sans-Serif" font-size="10.00">redprm</text>
</a>
</g>
</g>
<!-- Node17&#45;&gt;Node18 -->
<g id="edge20" class="edge"><title>Node17&#45;&gt;Node18</title>
<path fill="none" stroke="midnightblue" d="M418.222,-366.607C423.397,-369.279 428.153,-372.679 432,-377 490.603,-442.824 413.973,-502.371 468,-572 468.93,-573.199 469.931,-574.342 470.992,-575.433"/>
<polygon fill="midnightblue" stroke="midnightblue" points="468.82,-578.179 478.744,-581.889 473.3,-572.8 468.82,-578.179"/>
</g>
<!-- Node19 -->
<g id="node19" class="node"><title>Node19</title>
<g id="a_node19"><a xlink:href="classmodule__sf__noahlsm.html#abb6e84ee87a6fdb3281c33e8e8457a04" target="_top" xlink:title="module_sf_noahlsm::\lcsnow">
<polygon fill="white" stroke="black" points="468,-533 468,-563 578,-563 578,-533 468,-533"/>
<text text-anchor="start" x="476" y="-551" font-family="Helvetica,sans-Serif" font-size="10.00">module_sf_noahlsm::</text>
<text text-anchor="middle" x="523" y="-540" font-family="Helvetica,sans-Serif" font-size="10.00">csnow</text>
</a>
</g>
</g>
<!-- Node17&#45;&gt;Node19 -->
<g id="edge21" class="edge"><title>Node17&#45;&gt;Node19</title>
<path fill="none" stroke="midnightblue" d="M417.333,-366.515C422.797,-369.196 427.865,-372.623 432,-377 477.898,-425.579 425.485,-471.434 468,-523 468.986,-524.196 470.041,-525.337 471.155,-526.426"/>
<polygon fill="midnightblue" stroke="midnightblue" points="469.235,-529.372 479.231,-532.885 473.607,-523.906 469.235,-529.372"/>
</g>
<!-- Node20 -->
<g id="node20" class="node"><title>Node20</title>
<g id="a_node20"><a xlink:href="classmodule__sf__noahlsm.html#ab7e465439f409557715a28bea71551c1" target="_top" xlink:title="module_sf_noahlsm::\lsnow_new">
<polygon fill="white" stroke="black" points="468,-484 468,-514 578,-514 578,-484 468,-484"/>
<text text-anchor="start" x="476" y="-502" font-family="Helvetica,sans-Serif" font-size="10.00">module_sf_noahlsm::</text>
<text text-anchor="middle" x="523" y="-491" font-family="Helvetica,sans-Serif" font-size="10.00">snow_new</text>
</a>
</g>
</g>
<!-- Node17&#45;&gt;Node20 -->
<g id="edge22" class="edge"><title>Node17&#45;&gt;Node20</title>
<path fill="none" stroke="midnightblue" d="M415.887,-366.528C421.794,-369.201 427.365,-372.622 432,-377 465.427,-408.578 436.78,-440.238 468,-474 469.206,-475.304 470.493,-476.545 471.845,-477.726"/>
<polygon fill="midnightblue" stroke="midnightblue" points="470.057,-480.756 480.188,-483.856 474.201,-475.114 470.057,-480.756"/>
</g>
<!-- Node21 -->
<g id="node21" class="node"><title>Node21</title>
<g id="a_node21"><a xlink:href="classmodule__sf__noahlsm.html#ae7ad09a03325fa6a08429faa078bb8f2" target="_top" xlink:title="module_sf_noahlsm::\lsnfrac">
<polygon fill="white" stroke="black" points="468,-435 468,-465 578,-465 578,-435 468,-435"/>
<text text-anchor="start" x="476" y="-453" font-family="Helvetica,sans-Serif" font-size="10.00">module_sf_noahlsm::</text>
<text text-anchor="middle" x="523" y="-442" font-family="Helvetica,sans-Serif" font-size="10.00">snfrac</text>
</a>
</g>
</g>
<!-- Node17&#45;&gt;Node21 -->
<g id="edge23" class="edge"><title>Node17&#45;&gt;Node21</title>
<path fill="none" stroke="midnightblue" d="M411.413,-366.54C418.666,-369.23 425.819,-372.653 432,-377 453.813,-392.34 447.272,-408.223 468,-425 470.003,-426.621 472.127,-428.163 474.332,-429.627"/>
<polygon fill="midnightblue" stroke="midnightblue" points="472.756,-432.762 483.137,-434.882 476.344,-426.752 472.756,-432.762"/>
</g>
<!-- Node22 -->
<g id="node22" class="node"><title>Node22</title>
<g id="a_node22"><a xlink:href="classmodule__sf__noahlsm.html#a7a78bcce992262a6c96711208974f7f1" target="_top" xlink:title="module_sf_noahlsm::\lalcalc">
<polygon fill="white" stroke="black" points="468,-386 468,-416 578,-416 578,-386 468,-386"/>
<text text-anchor="start" x="476" y="-404" font-family="Helvetica,sans-Serif" font-size="10.00">module_sf_noahlsm::</text>
<text text-anchor="middle" x="523" y="-393" font-family="Helvetica,sans-Serif" font-size="10.00">alcalc</text>
</a>
</g>
</g>
<!-- Node17&#45;&gt;Node22 -->
<g id="edge24" class="edge"><title>Node17&#45;&gt;Node22</title>
<path fill="none" stroke="midnightblue" d="M400.633,-366.547C417.772,-371.413 439.18,-377.49 459.224,-383.18"/>
<polygon fill="midnightblue" stroke="midnightblue" points="458.353,-386.571 468.929,-385.935 460.265,-379.837 458.353,-386.571"/>
</g>
<!-- Node23 -->
<g id="node23" class="node"><title>Node23</title>
<g id="a_node23"><a xlink:href="classmodule__sf__noahlsm.html#aac4dfa006a09d48e949536f4dc217bbf" target="_top" xlink:title="module_sf_noahlsm::\ltdfcnd">
<polygon fill="white" stroke="black" points="927,-339 927,-369 1037,-369 1037,-339 927,-339"/>
<text text-anchor="start" x="935" y="-357" font-family="Helvetica,sans-Serif" font-size="10.00">module_sf_noahlsm::</text>
<text text-anchor="middle" x="982" y="-346" font-family="Helvetica,sans-Serif" font-size="10.00">tdfcnd</text>
</a>
</g>
</g>
<!-- Node17&#45;&gt;Node23 -->
<g id="edge25" class="edge"><title>Node17&#45;&gt;Node23</title>
<path fill="none" stroke="midnightblue" d="M428.684,-356.699C545.551,-356.128 798.143,-354.893 916.874,-354.313"/>
<polygon fill="midnightblue" stroke="midnightblue" points="916.925,-357.813 926.908,-354.264 916.891,-350.813 916.925,-357.813"/>
</g>
<!-- Node24 -->
<g id="node24" class="node"><title>Node24</title>
<g id="a_node24"><a xlink:href="classmodule__sf__noahlsm.html#ab3693cb1c40b1bd7b4db5e96337f6eef" target="_top" xlink:title="module_sf_noahlsm::\lsnowz0">
<polygon fill="white" stroke="black" points="468,-200 468,-230 578,-230 578,-200 468,-200"/>
<text text-anchor="start" x="476" y="-218" font-family="Helvetica,sans-Serif" font-size="10.00">module_sf_noahlsm::</text>
<text text-anchor="middle" x="523" y="-207" font-family="Helvetica,sans-Serif" font-size="10.00">snowz0</text>
</a>
</g>
</g>
<!-- Node17&#45;&gt;Node24 -->
<g id="edge26" class="edge"><title>Node17&#45;&gt;Node24</title>
<path fill="none" stroke="midnightblue" d="M372.965,-347.486C387.064,-325.662 424.543,-271.392 468,-239 469.804,-237.655 471.696,-236.364 473.647,-235.128"/>
<polygon fill="midnightblue" stroke="midnightblue" points="475.553,-238.07 482.491,-230.063 472.074,-231.996 475.553,-238.07"/>
</g>
<!-- Node25 -->
<g id="node25" class="node"><title>Node25</title>
<g id="a_node25"><a xlink:href="classmodule__sf__noahlsm.html#adebb599290dd898c8995442436263d52" target="_top" xlink:title="module_sf_noahlsm::\lpenman">
<polygon fill="white" stroke="black" points="468,-151 468,-181 578,-181 578,-151 468,-151"/>
<text text-anchor="start" x="476" y="-169" font-family="Helvetica,sans-Serif" font-size="10.00">module_sf_noahlsm::</text>
<text text-anchor="middle" x="523" y="-158" font-family="Helvetica,sans-Serif" font-size="10.00">penman</text>
</a>
</g>
</g>
<!-- Node17&#45;&gt;Node25 -->
<g id="edge27" class="edge"><title>Node17&#45;&gt;Node25</title>
<path fill="none" stroke="midnightblue" d="M370.441,-347.319C380.854,-319.286 414.625,-237.054 468,-190 469.323,-188.834 470.711,-187.716 472.151,-186.646"/>
<polygon fill="midnightblue" stroke="midnightblue" points="474.352,-189.39 480.85,-181.022 470.552,-183.512 474.352,-189.39"/>
</g>
<!-- Node26 -->
<g id="node26" class="node"><title>Node26</title>
<g id="a_node26"><a xlink:href="classmodule__sf__noahlsm.html#a433b2b986f9e11459dc99a8a99db6ba7" target="_top" xlink:title="module_sf_noahlsm::\lcanres">
<polygon fill="white" stroke="black" points="468,-102 468,-132 578,-132 578,-102 468,-102"/>
<text text-anchor="start" x="476" y="-120" font-family="Helvetica,sans-Serif" font-size="10.00">module_sf_noahlsm::</text>
<text text-anchor="middle" x="523" y="-109" font-family="Helvetica,sans-Serif" font-size="10.00">canres</text>
</a>
</g>
</g>
<!-- Node17&#45;&gt;Node26 -->
<g id="edge28" class="edge"><title>Node17&#45;&gt;Node26</title>
<path fill="none" stroke="midnightblue" d="M368.952,-347.414C376.15,-314.342 404.169,-203.619 468,-141 469.076,-139.945 470.206,-138.932 471.38,-137.959"/>
<polygon fill="midnightblue" stroke="midnightblue" points="473.514,-140.738 479.675,-132.118 469.483,-135.014 473.514,-140.738"/>
</g>
<!-- Node27 -->
<g id="node27" class="node"><title>Node27</title>
<g id="a_node27"><a xlink:href="classmodule__sf__noahlsm.html#a6a17443ddbf15acdb25690cfbb3749a3" target="_top" xlink:title="module_sf_noahlsm::\lnopac">
<polygon fill="white" stroke="black" points="468,-298 468,-328 578,-328 578,-298 468,-298"/>
<text text-anchor="start" x="476" y="-316" font-family="Helvetica,sans-Serif" font-size="10.00">module_sf_noahlsm::</text>
<text text-anchor="middle" x="523" y="-305" font-family="Helvetica,sans-Serif" font-size="10.00">nopac</text>
</a>
</g>
</g>
<!-- Node17&#45;&gt;Node27 -->
<g id="edge29" class="edge"><title>Node17&#45;&gt;Node27</title>
<path fill="none" stroke="midnightblue" d="M400.633,-347.453C417.772,-342.587 439.18,-336.51 459.224,-330.82"/>
<polygon fill="midnightblue" stroke="midnightblue" points="460.265,-334.163 468.929,-328.065 458.353,-327.429 460.265,-334.163"/>
</g>
<!-- Node44 -->
<g id="node44" class="node"><title>Node44</title>
<g id="a_node44"><a xlink:href="classmodule__sf__noahlsm.html#a9d1e26133ed89bc5465a230d45d0625d" target="_top" xlink:title="module_sf_noahlsm::\lsnopac">
<polygon fill="white" stroke="black" points="468,-249 468,-279 578,-279 578,-249 468,-249"/>
<text text-anchor="start" x="476" y="-267" font-family="Helvetica,sans-Serif" font-size="10.00">module_sf_noahlsm::</text>
<text text-anchor="middle" x="523" y="-256" font-family="Helvetica,sans-Serif" font-size="10.00">snopac</text>
</a>
</g>
</g>
<!-- Node17&#45;&gt;Node44 -->
<g id="edge49" class="edge"><title>Node17&#45;&gt;Node44</title>
<path fill="none" stroke="midnightblue" d="M379.593,-347.29C398.246,-333.168 434.617,-306.62 468,-288 470.691,-286.499 473.493,-285.02 476.344,-283.579"/>
<polygon fill="midnightblue" stroke="midnightblue" points="478.067,-286.633 485.538,-279.121 475.013,-280.334 478.067,-286.633"/>
</g>
<!-- Node27&#45;&gt;Node23 -->
<g id="edge39" class="edge"><title>Node27&#45;&gt;Node23</title>
<path fill="none" stroke="midnightblue" d="M578.219,-317.864C662.908,-325.462 826.238,-340.115 916.723,-348.233"/>
<polygon fill="midnightblue" stroke="midnightblue" points="916.579,-351.734 926.852,-349.142 917.205,-344.762 916.579,-351.734"/>
</g>
<!-- Node28 -->
<g id="node28" class="node"><title>Node28</title>
<g id="a_node28"><a xlink:href="classmodule__sf__noahlsm.html#a8def37e83c3ce04050b98a11d265caeb" target="_top" xlink:title="module_sf_noahlsm::\levapo">
<polygon fill="white" stroke="black" points="614,-205 614,-235 724,-235 724,-205 614,-205"/>
<text text-anchor="start" x="622" y="-223" font-family="Helvetica,sans-Serif" font-size="10.00">module_sf_noahlsm::</text>
<text text-anchor="middle" x="669" y="-212" font-family="Helvetica,sans-Serif" font-size="10.00">evapo</text>
</a>
</g>
</g>
<!-- Node27&#45;&gt;Node28 -->
<g id="edge30" class="edge"><title>Node27&#45;&gt;Node28</title>
<path fill="none" stroke="midnightblue" d="M561.312,-297.923C567.1,-294.969 572.858,-291.643 578,-288 596.722,-274.737 595.876,-265.069 614,-251 618.759,-247.305 624.006,-243.75 629.302,-240.449"/>
<polygon fill="midnightblue" stroke="midnightblue" points="631.387,-243.28 638.184,-235.153 627.802,-237.268 631.387,-243.28"/>
</g>
<!-- Node31 -->
<g id="node31" class="node"><title>Node31</title>
<g id="a_node31"><a xlink:href="classmodule__sf__noahlsm.html#a0d0b4c4b1c11cc7ff836dfdd13fb1b20" target="_top" xlink:title="module_sf_noahlsm::\lsmflx">
<polygon fill="white" stroke="black" points="614,-128 614,-158 724,-158 724,-128 614,-128"/>
<text text-anchor="start" x="622" y="-146" font-family="Helvetica,sans-Serif" font-size="10.00">module_sf_noahlsm::</text>
<text text-anchor="middle" x="669" y="-135" font-family="Helvetica,sans-Serif" font-size="10.00">smflx</text>
</a>
</g>
</g>
<!-- Node27&#45;&gt;Node31 -->
<g id="edge33" class="edge"><title>Node27&#45;&gt;Node31</title>
<path fill="none" stroke="midnightblue" d="M565.491,-297.975C570.085,-295.148 574.396,-291.843 578,-288 608.318,-255.669 589.459,-231.908 614,-195 621.319,-183.993 631.33,-173.535 640.745,-164.923"/>
<polygon fill="midnightblue" stroke="midnightblue" points="643.245,-167.385 648.441,-158.151 638.621,-162.129 643.245,-167.385"/>
</g>
<!-- Node37 -->
<g id="node37" class="node"><title>Node37</title>
<g id="a_node37"><a xlink:href="classmodule__sf__noahlsm.html#ac5c49267c44f18dfd5359b29fdfed38e" target="_top" xlink:title="module_sf_noahlsm::\lshflx">
<polygon fill="white" stroke="black" points="614,-261 614,-291 724,-291 724,-261 614,-261"/>
<text text-anchor="start" x="622" y="-279" font-family="Helvetica,sans-Serif" font-size="10.00">module_sf_noahlsm::</text>
<text text-anchor="middle" x="669" y="-268" font-family="Helvetica,sans-Serif" font-size="10.00">shflx</text>
</a>
</g>
</g>
<!-- Node27&#45;&gt;Node37 -->
<g id="edge40" class="edge"><title>Node27&#45;&gt;Node37</title>
<path fill="none" stroke="midnightblue" d="M578.03,-299.117C586.496,-296.942 595.315,-294.676 603.979,-292.45"/>
<polygon fill="midnightblue" stroke="midnightblue" points="604.853,-295.839 613.667,-289.961 603.111,-289.059 604.853,-295.839"/>
</g>
<!-- Node29 -->
<g id="node29" class="node"><title>Node29</title>
<g id="a_node29"><a xlink:href="classmodule__sf__noahlsm.html#a1f4bae7bb5581ef61d8c22e58df4c88f" target="_top" xlink:title="module_sf_noahlsm::\ldevap">
<polygon fill="white" stroke="black" points="766,-186 766,-216 876,-216 876,-186 766,-186"/>
<text text-anchor="start" x="774" y="-204" font-family="Helvetica,sans-Serif" font-size="10.00">module_sf_noahlsm::</text>
<text text-anchor="middle" x="821" y="-193" font-family="Helvetica,sans-Serif" font-size="10.00">devap</text>
</a>
</g>
</g>
<!-- Node28&#45;&gt;Node29 -->
<g id="edge31" class="edge"><title>Node28&#45;&gt;Node29</title>
<path fill="none" stroke="midnightblue" d="M724.153,-213.141C734.456,-211.836 745.328,-210.458 755.904,-209.119"/>
<polygon fill="midnightblue" stroke="midnightblue" points="756.445,-212.578 765.926,-207.849 755.565,-205.634 756.445,-212.578"/>
</g>
<!-- Node30 -->
<g id="node30" class="node"><title>Node30</title>
<g id="a_node30"><a xlink:href="classmodule__sf__noahlsm.html#aa418d6be3fc3de942821faf6fb68e3f8" target="_top" xlink:title="module_sf_noahlsm::\ltransp">
<polygon fill="white" stroke="black" points="766,-137 766,-167 876,-167 876,-137 766,-137"/>
<text text-anchor="start" x="774" y="-155" font-family="Helvetica,sans-Serif" font-size="10.00">module_sf_noahlsm::</text>
<text text-anchor="middle" x="821" y="-144" font-family="Helvetica,sans-Serif" font-size="10.00">transp</text>
</a>
</g>
</g>
<!-- Node28&#45;&gt;Node30 -->
<g id="edge32" class="edge"><title>Node28&#45;&gt;Node30</title>
<path fill="none" stroke="midnightblue" d="M699.331,-204.976C716.799,-196.201 739.492,-185.1 760,-176 763.807,-174.311 767.772,-172.607 771.768,-170.928"/>
<polygon fill="midnightblue" stroke="midnightblue" points="773.188,-174.128 781.092,-167.074 770.514,-167.659 773.188,-174.128"/>
</g>
<!-- Node32 -->
<g id="node32" class="node"><title>Node32</title>
<g id="a_node32"><a xlink:href="classmodule__sf__noahlsm.html#ad15804ed9573673deb4f95b3f160eeb2" target="_top" xlink:title="module_sf_noahlsm::\lfac2mit">
<polygon fill="white" stroke="black" points="766,-0 766,-30 876,-30 876,-0 766,-0"/>
<text text-anchor="start" x="774" y="-18" font-family="Helvetica,sans-Serif" font-size="10.00">module_sf_noahlsm::</text>
<text text-anchor="middle" x="821" y="-7" font-family="Helvetica,sans-Serif" font-size="10.00">fac2mit</text>
</a>
</g>
</g>
<!-- Node31&#45;&gt;Node32 -->
<g id="edge34" class="edge"><title>Node31&#45;&gt;Node32</title>
<path fill="none" stroke="midnightblue" d="M710.989,-127.916C715.721,-125.089 720.204,-121.801 724,-118 750.982,-90.9862 732.499,-66.4854 760,-40 761.618,-38.4417 763.347,-36.9746 765.16,-35.594"/>
<polygon fill="midnightblue" stroke="midnightblue" points="767.124,-38.4915 773.565,-30.0792 763.284,-32.6389 767.124,-38.4915"/>
</g>
<!-- Node33 -->
<g id="node33" class="node"><title>Node33</title>
<g id="a_node33"><a xlink:href="classmodule__sf__noahlsm.html#a2e71343dc4bdf7438e0abf6d850d0c79" target="_top" xlink:title="module_sf_noahlsm::srt">
<polygon fill="white" stroke="black" points="760.5,-49.5 760.5,-68.5 881.5,-68.5 881.5,-49.5 760.5,-49.5"/>
<text text-anchor="middle" x="821" y="-56.5" font-family="Helvetica,sans-Serif" font-size="10.00">module_sf_noahlsm::srt</text>
</a>
</g>
</g>
<!-- Node31&#45;&gt;Node33 -->
<g id="edge35" class="edge"><title>Node31&#45;&gt;Node33</title>
<path fill="none" stroke="midnightblue" d="M707.721,-127.949C713.397,-125.009 719.013,-121.681 724,-118 743.244,-103.798 739.894,-90.9535 760,-78 763.172,-75.9566 766.58,-74.1187 770.102,-72.4681"/>
<polygon fill="midnightblue" stroke="midnightblue" points="771.715,-75.5884 779.61,-68.5238 769.033,-69.1226 771.715,-75.5884"/>
</g>
<!-- Node35 -->
<g id="node35" class="node"><title>Node35</title>
<g id="a_node35"><a xlink:href="classmodule__sf__noahlsm.html#ada19fa401e97fc92326932b406bbc2c3" target="_top" xlink:title="module_sf_noahlsm::\lsstep">
<polygon fill="white" stroke="black" points="766,-88 766,-118 876,-118 876,-88 766,-88"/>
<text text-anchor="start" x="774" y="-106" font-family="Helvetica,sans-Serif" font-size="10.00">module_sf_noahlsm::</text>
<text text-anchor="middle" x="821" y="-95" font-family="Helvetica,sans-Serif" font-size="10.00">sstep</text>
</a>
</g>
</g>
<!-- Node31&#45;&gt;Node35 -->
<g id="edge37" class="edge"><title>Node31&#45;&gt;Node35</title>
<path fill="none" stroke="midnightblue" d="M724.153,-128.559C734.562,-125.784 745.552,-122.853 756.231,-120.005"/>
<polygon fill="midnightblue" stroke="midnightblue" points="757.166,-123.378 765.926,-117.42 755.362,-116.615 757.166,-123.378"/>
</g>
<!-- Node34 -->
<g id="node34" class="node"><title>Node34</title>
<g id="a_node34"><a xlink:href="classmodule__sf__noahlsm.html#a3b4a7f68699fbc22922e958770009b57" target="_top" xlink:title="module_sf_noahlsm::\lwdfcnd">
<polygon fill="white" stroke="black" points="927,-44 927,-74 1037,-74 1037,-44 927,-44"/>
<text text-anchor="start" x="935" y="-62" font-family="Helvetica,sans-Serif" font-size="10.00">module_sf_noahlsm::</text>
<text text-anchor="middle" x="982" y="-51" font-family="Helvetica,sans-Serif" font-size="10.00">wdfcnd</text>
</a>
</g>
</g>
<!-- Node33&#45;&gt;Node34 -->
<g id="edge36" class="edge"><title>Node33&#45;&gt;Node34</title>
<path fill="none" stroke="midnightblue" d="M881.658,-59C893.108,-59 905.145,-59 916.733,-59"/>
<polygon fill="midnightblue" stroke="midnightblue" points="916.775,-62.5001 926.775,-59 916.774,-55.5001 916.775,-62.5001"/>
</g>
<!-- Node36 -->
<g id="node36" class="node"><title>Node36</title>
<g id="a_node36"><a xlink:href="classmodule__sf__noahlsm.html#ac6e3e7bb3f0322070546653306177216" target="_top" xlink:title="module_sf_noahlsm::\lrosr12">
<polygon fill="white" stroke="black" points="927,-115 927,-145 1037,-145 1037,-115 927,-115"/>
<text text-anchor="start" x="935" y="-133" font-family="Helvetica,sans-Serif" font-size="10.00">module_sf_noahlsm::</text>
<text text-anchor="middle" x="982" y="-122" font-family="Helvetica,sans-Serif" font-size="10.00">rosr12</text>
</a>
</g>
</g>
<!-- Node35&#45;&gt;Node36 -->
<g id="edge38" class="edge"><title>Node35&#45;&gt;Node36</title>
<path fill="none" stroke="midnightblue" d="M876.274,-112.216C889.322,-114.432 903.38,-116.819 916.831,-119.103"/>
<polygon fill="midnightblue" stroke="midnightblue" points="916.526,-122.602 926.971,-120.825 917.698,-115.7 916.526,-122.602"/>
</g>
<!-- Node38 -->
<g id="node38" class="node"><title>Node38</title>
<g id="a_node38"><a xlink:href="classmodule__sf__noahlsm.html#a3d4ab86e98738d55bb24f5f2256bc036" target="_top" xlink:title="module_sf_noahlsm::hrt">
<polygon fill="white" stroke="black" points="760.5,-284.5 760.5,-303.5 881.5,-303.5 881.5,-284.5 760.5,-284.5"/>
<text text-anchor="middle" x="821" y="-291.5" font-family="Helvetica,sans-Serif" font-size="10.00">module_sf_noahlsm::hrt</text>
</a>
</g>
</g>
<!-- Node37&#45;&gt;Node38 -->
<g id="edge41" class="edge"><title>Node37&#45;&gt;Node38</title>
<path fill="none" stroke="midnightblue" d="M724.153,-282.498C732.598,-283.512 741.425,-284.571 750.158,-285.619"/>
<polygon fill="midnightblue" stroke="midnightblue" points="749.993,-289.124 760.339,-286.841 750.827,-282.174 749.993,-289.124"/>
</g>
<!-- Node43 -->
<g id="node43" class="node"><title>Node43</title>
<g id="a_node43"><a xlink:href="classmodule__sf__noahlsm.html#adacf01be4e33445ea186feffce24eb35" target="_top" xlink:title="module_sf_noahlsm::\lhstep">
<polygon fill="white" stroke="black" points="766,-235 766,-265 876,-265 876,-235 766,-235"/>
<text text-anchor="start" x="774" y="-253" font-family="Helvetica,sans-Serif" font-size="10.00">module_sf_noahlsm::</text>
<text text-anchor="middle" x="821" y="-242" font-family="Helvetica,sans-Serif" font-size="10.00">hstep</text>
</a>
</g>
</g>
<!-- Node37&#45;&gt;Node43 -->
<g id="edge47" class="edge"><title>Node37&#45;&gt;Node43</title>
<path fill="none" stroke="midnightblue" d="M724.153,-266.613C734.456,-264.828 745.328,-262.943 755.904,-261.11"/>
<polygon fill="midnightblue" stroke="midnightblue" points="756.671,-264.529 765.926,-259.373 755.475,-257.632 756.671,-264.529"/>
</g>
<!-- Node38&#45;&gt;Node23 -->
<g id="edge46" class="edge"><title>Node38&#45;&gt;Node23</title>
<path fill="none" stroke="midnightblue" d="M847.194,-303.507C869.753,-312.02 903.487,-324.75 931.439,-335.298"/>
<polygon fill="midnightblue" stroke="midnightblue" points="930.465,-338.671 941.057,-338.927 932.937,-332.122 930.465,-338.671"/>
</g>
<!-- Node39 -->
<g id="node39" class="node"><title>Node39</title>
<g id="a_node39"><a xlink:href="classmodule__sf__noahlsm.html#a578d0dc05848d5bc7fb823e379da5cdd" target="_top" xlink:title="module_sf_noahlsm::tbnd">
<polygon fill="white" stroke="black" points="918,-300.5 918,-319.5 1046,-319.5 1046,-300.5 918,-300.5"/>
<text text-anchor="middle" x="982" y="-307.5" font-family="Helvetica,sans-Serif" font-size="10.00">module_sf_noahlsm::tbnd</text>
</a>
</g>
</g>
<!-- Node38&#45;&gt;Node39 -->
<g id="edge42" class="edge"><title>Node38&#45;&gt;Node39</title>
<path fill="none" stroke="midnightblue" d="M881.658,-300.003C890.145,-300.857 898.954,-301.744 907.664,-302.62"/>
<polygon fill="midnightblue" stroke="midnightblue" points="907.518,-306.123 917.818,-303.642 908.219,-299.158 907.518,-306.123"/>
</g>
<!-- Node40 -->
<g id="node40" class="node"><title>Node40</title>
<g id="a_node40"><a xlink:href="classmodule__sf__noahlsm.html#ab786b4f52dbea2106470993f2ea20e69" target="_top" xlink:title="module_sf_noahlsm::\ltmpavg">
<polygon fill="white" stroke="black" points="927,-251 927,-281 1037,-281 1037,-251 927,-251"/>
<text text-anchor="start" x="935" y="-269" font-family="Helvetica,sans-Serif" font-size="10.00">module_sf_noahlsm::</text>
<text text-anchor="middle" x="982" y="-258" font-family="Helvetica,sans-Serif" font-size="10.00">tmpavg</text>
</a>
</g>
</g>
<!-- Node38&#45;&gt;Node40 -->
<g id="edge43" class="edge"><title>Node38&#45;&gt;Node40</title>
<path fill="none" stroke="midnightblue" d="M876.274,-284.442C889.322,-282.145 903.38,-279.669 916.831,-277.3"/>
<polygon fill="midnightblue" stroke="midnightblue" points="917.729,-280.696 926.971,-275.515 916.515,-273.802 917.729,-280.696"/>
</g>
<!-- Node41 -->
<g id="node41" class="node"><title>Node41</title>
<g id="a_node41"><a xlink:href="classmodule__sf__noahlsm.html#a5d089c57c48085d25b95857c682922da" target="_top" xlink:title="module_sf_noahlsm::\lsnksrc">
<polygon fill="white" stroke="black" points="927,-202 927,-232 1037,-232 1037,-202 927,-202"/>
<text text-anchor="start" x="935" y="-220" font-family="Helvetica,sans-Serif" font-size="10.00">module_sf_noahlsm::</text>
<text text-anchor="middle" x="982" y="-209" font-family="Helvetica,sans-Serif" font-size="10.00">snksrc</text>
</a>
</g>
</g>
<!-- Node38&#45;&gt;Node41 -->
<g id="edge44" class="edge"><title>Node38&#45;&gt;Node41</title>
<path fill="none" stroke="midnightblue" d="M858.924,-284.407C866.814,-281.622 874.902,-278.176 882,-274 900.707,-262.993 899.53,-252.4 918,-241 920.605,-239.392 923.336,-237.862 926.139,-236.411"/>
<polygon fill="midnightblue" stroke="midnightblue" points="927.759,-239.516 935.273,-232.047 924.741,-233.2 927.759,-239.516"/>
</g>
<!-- Node42 -->
<g id="node42" class="node"><title>Node42</title>
<g id="a_node42"><a xlink:href="classmodule__sf__noahlsm.html#a5beb42f74e1a357ccfc0e904f356b33a" target="_top" xlink:title="module_sf_noahlsm::\lfrh2o">
<polygon fill="white" stroke="black" points="1082,-202 1082,-232 1192,-232 1192,-202 1082,-202"/>
<text text-anchor="start" x="1090" y="-220" font-family="Helvetica,sans-Serif" font-size="10.00">module_sf_noahlsm::</text>
<text text-anchor="middle" x="1137" y="-209" font-family="Helvetica,sans-Serif" font-size="10.00">frh2o</text>
</a>
</g>
</g>
<!-- Node41&#45;&gt;Node42 -->
<g id="edge45" class="edge"><title>Node41&#45;&gt;Node42</title>
<path fill="none" stroke="midnightblue" d="M1037.37,-217C1048.42,-217 1060.14,-217 1071.5,-217"/>
<polygon fill="midnightblue" stroke="midnightblue" points="1071.8,-220.5 1081.8,-217 1071.8,-213.5 1071.8,-220.5"/>
</g>
<!-- Node43&#45;&gt;Node36 -->
<g id="edge48" class="edge"><title>Node43&#45;&gt;Node36</title>
<path fill="none" stroke="midnightblue" d="M863.696,-234.999C870.031,-232.053 876.336,-228.709 882,-225 886.326,-222.167 930.346,-179.456 958.211,-152.277"/>
<polygon fill="midnightblue" stroke="midnightblue" points="960.884,-154.559 965.596,-145.069 955.995,-149.549 960.884,-154.559"/>
</g>
<!-- Node44&#45;&gt;Node28 -->
<g id="edge50" class="edge"><title>Node44&#45;&gt;Node28</title>
<path fill="none" stroke="midnightblue" d="M573.154,-248.981C584.611,-245.48 596.93,-241.716 608.772,-238.097"/>
<polygon fill="midnightblue" stroke="midnightblue" points="610.038,-241.37 618.579,-235.101 607.992,-234.676 610.038,-241.37"/>
</g>
<!-- Node44&#45;&gt;Node31 -->
<g id="edge51" class="edge"><title>Node44&#45;&gt;Node31</title>
<path fill="none" stroke="midnightblue" d="M562.441,-248.856C567.902,-245.961 573.264,-242.671 578,-239 597.971,-223.522 596.87,-213.574 614,-195 623.237,-184.984 633.95,-174.464 643.387,-165.527"/>
<polygon fill="midnightblue" stroke="midnightblue" points="646.049,-167.83 650.953,-158.438 641.263,-162.721 646.049,-167.83"/>
</g>
<!-- Node44&#45;&gt;Node37 -->
<g id="edge52" class="edge"><title>Node44&#45;&gt;Node37</title>
<path fill="none" stroke="midnightblue" d="M578.03,-268.502C586.405,-269.2 595.126,-269.927 603.7,-270.642"/>
<polygon fill="midnightblue" stroke="midnightblue" points="603.411,-274.13 613.667,-271.472 603.992,-267.154 603.411,-274.13"/>
</g>
<!-- Node45 -->
<g id="node45" class="node"><title>Node45</title>
<g id="a_node45"><a xlink:href="classmodule__sf__noahlsm.html#ae6d35ff66196a3ab369a3e87149ddcdc" target="_top" xlink:title="module_sf_noahlsm::\lsnowpack">
<polygon fill="white" stroke="black" points="614,-79 614,-109 724,-109 724,-79 614,-79"/>
<text text-anchor="start" x="622" y="-97" font-family="Helvetica,sans-Serif" font-size="10.00">module_sf_noahlsm::</text>
<text text-anchor="middle" x="669" y="-86" font-family="Helvetica,sans-Serif" font-size="10.00">snowpack</text>
</a>
</g>
</g>
<!-- Node44&#45;&gt;Node45 -->
<g id="edge53" class="edge"><title>Node44&#45;&gt;Node45</title>
<path fill="none" stroke="midnightblue" d="M566.326,-248.906C570.666,-246.107 574.688,-242.828 578,-239 614.709,-196.567 576.967,-160.149 614,-118 614.745,-117.152 615.525,-116.333 616.337,-115.541"/>
<polygon fill="midnightblue" stroke="midnightblue" points="618.73,-118.11 624.367,-109.14 614.366,-112.637 618.73,-118.11"/>
</g>
</g>
</svg>
