<?xml version="1.0" encoding="UTF-8" standalone="no"?>
<!DOCTYPE svg PUBLIC "-//W3C//DTD SVG 1.1//EN"
 "http://www.w3.org/Graphics/SVG/1.1/DTD/svg11.dtd">
<!-- Generated by graphviz version 2.32.0 (20130809.1645)
 -->
<!-- Title: wind::allocate_winds Pages: 1 -->
<svg width="644pt" height="47pt"
 viewBox="0.00 0.00 644.00 47.00" xmlns="http://www.w3.org/2000/svg" xmlns:xlink="http://www.w3.org/1999/xlink">
<g id="graph0" class="graph" transform="scale(1 1) rotate(0) translate(4 43)">
<title>wind::allocate_winds</title>
<polygon fill="white" stroke="white" points="-4,5 -4,-43 641,-43 641,5 -4,5"/>
<!-- Node1 -->
<g id="node1" class="node"><title>Node1</title>
<polygon fill="#bfbfbf" stroke="black" points="0.5,-19.5 0.5,-38.5 107.5,-38.5 107.5,-19.5 0.5,-19.5"/>
<text text-anchor="middle" x="54" y="-26.5" font-family="Helvetica,sans-Serif" font-size="10.00">wind::allocate_winds</text>
</g>
<!-- Node2 -->
<g id="node2" class="node"><title>Node2</title>
<g id="a_node2"><a xlink:href="classwind.html#aa3e008f44175ff536a88fe141d295601" target="_top" xlink:title="wind::init_winds">
<polygon fill="white" stroke="black" points="144,-19.5 144,-38.5 230,-38.5 230,-19.5 144,-19.5"/>
<text text-anchor="middle" x="187" y="-26.5" font-family="Helvetica,sans-Serif" font-size="10.00">wind::init_winds</text>
</a>
</g>
</g>
<!-- Node1&#45;&gt;Node2 -->
<g id="edge1" class="edge"><title>Node1&#45;&gt;Node2</title>
<path fill="none" stroke="midnightblue" d="M117.557,-29C126.499,-29 135.514,-29 143.934,-29"/>
<polygon fill="midnightblue" stroke="midnightblue" points="117.528,-25.5001 107.528,-29 117.528,-32.5001 117.528,-25.5001"/>
</g>
<!-- Node3 -->
<g id="node3" class="node"><title>Node3</title>
<g id="a_node3"><a xlink:href="classinit.html#a2c0d47bd2656d1121f0522d0f77a0e07" target="_top" xlink:title="init::init_domain">
<polygon fill="white" stroke="black" points="266.5,-19.5 266.5,-38.5 351.5,-38.5 351.5,-19.5 266.5,-19.5"/>
<text text-anchor="middle" x="309" y="-26.5" font-family="Helvetica,sans-Serif" font-size="10.00">init::init_domain</text>
</a>
</g>
</g>
<!-- Node2&#45;&gt;Node3 -->
<g id="edge2" class="edge"><title>Node2&#45;&gt;Node3</title>
<path fill="none" stroke="midnightblue" d="M240.405,-29C249.129,-29 258.072,-29 266.478,-29"/>
<polygon fill="midnightblue" stroke="midnightblue" points="240.308,-25.5001 230.308,-29 240.307,-32.5001 240.308,-25.5001"/>
</g>
<!-- Node4 -->
<g id="node4" class="node"><title>Node4</title>
<g id="a_node4"><a xlink:href="classinit.html#a1dd1e2b38eef39cba464f65c9ce82568" target="_top" xlink:title="init::init_model">
<polygon fill="white" stroke="black" points="488,-19.5 488,-38.5 568,-38.5 568,-19.5 488,-19.5"/>
<text text-anchor="middle" x="528" y="-26.5" font-family="Helvetica,sans-Serif" font-size="10.00">init::init_model</text>
</a>
</g>
</g>
<!-- Node3&#45;&gt;Node4 -->
<g id="edge3" class="edge"><title>Node3&#45;&gt;Node4</title>
<path fill="none" stroke="midnightblue" d="M361.61,-29C400.293,-29 452.431,-29 487.75,-29"/>
<polygon fill="midnightblue" stroke="midnightblue" points="361.583,-25.5001 351.583,-29 361.583,-32.5001 361.583,-25.5001"/>
</g>
<!-- Node6 -->
<g id="node6" class="node"><title>Node6</title>
<g id="a_node6"><a xlink:href="classinit.html#a1c6cab46bb16bea719da3b193c43ccb3" target="_top" xlink:title="init::init_bc">
<polygon fill="white" stroke="black" points="388,-0.5 388,-19.5 452,-19.5 452,-0.5 388,-0.5"/>
<text text-anchor="middle" x="420" y="-7.5" font-family="Helvetica,sans-Serif" font-size="10.00">init::init_bc</text>
</a>
</g>
</g>
<!-- Node3&#45;&gt;Node6 -->
<g id="edge5" class="edge"><title>Node3&#45;&gt;Node6</title>
<path fill="none" stroke="midnightblue" d="M361.539,-20.0162C370.5,-18.4542 379.567,-16.8736 387.77,-15.4438"/>
<polygon fill="midnightblue" stroke="midnightblue" points="360.77,-16.5974 351.519,-21.7627 361.972,-23.4934 360.77,-16.5974"/>
</g>
<!-- Node5 -->
<g id="node5" class="node"><title>Node5</title>
<g id="a_node5"><a xlink:href="driver_8f90.html#ab1e5a5816a57fc6e95d9563c2bb53590" target="_top" xlink:title=" Main Program ">
<polygon fill="white" stroke="black" points="604,-19.5 604,-38.5 636,-38.5 636,-19.5 604,-19.5"/>
<text text-anchor="middle" x="620" y="-26.5" font-family="Helvetica,sans-Serif" font-size="10.00">icar</text>
</a>
</g>
</g>
<!-- Node4&#45;&gt;Node5 -->
<g id="edge4" class="edge"><title>Node4&#45;&gt;Node5</title>
<path fill="none" stroke="midnightblue" d="M578.233,-29C587.449,-29 596.425,-29 603.599,-29"/>
<polygon fill="midnightblue" stroke="midnightblue" points="578.214,-25.5001 568.213,-29 578.213,-32.5001 578.214,-25.5001"/>
</g>
<!-- Node6&#45;&gt;Node4 -->
<g id="edge6" class="edge"><title>Node6&#45;&gt;Node4</title>
<path fill="none" stroke="midnightblue" d="M462.196,-17.3841C470.584,-18.8877 479.388,-20.4658 487.708,-21.9572"/>
<polygon fill="midnightblue" stroke="midnightblue" points="462.691,-13.9172 452.23,-15.5979 461.456,-20.8074 462.691,-13.9172"/>
</g>
</g>
</svg>
