<?xml version="1.0" encoding="UTF-8" standalone="no"?>
<!DOCTYPE svg PUBLIC "-//W3C//DTD SVG 1.1//EN"
 "http://www.w3.org/Graphics/SVG/1.1/DTD/svg11.dtd">
<!-- Generated by graphviz version 2.38.0 (20140413.2041)
 -->
<!-- Title: time::parse_date Pages: 1 -->
<svg width="555pt" height="39pt"
 viewBox="0.00 0.00 555.00 39.00" xmlns="http://www.w3.org/2000/svg" xmlns:xlink="http://www.w3.org/1999/xlink">
<g id="graph0" class="graph" transform="scale(1 1) rotate(0) translate(4 35)">
<title>time::parse_date</title>
<polygon fill="white" stroke="none" points="-4,4 -4,-35 551,-35 551,4 -4,4"/>
<!-- Node1 -->
<g id="node1" class="node"><title>Node1</title>
<polygon fill="#bfbfbf" stroke="black" points="0,-6 0,-25 89,-25 89,-6 0,-6"/>
<text text-anchor="middle" x="44.5" y="-13" font-family="Helvetica,sans-Serif" font-size="10.00">time::parse_date</text>
</g>
<!-- Node2 -->
<g id="node2" class="node"><title>Node2</title>
<g id="a_node2"><a xlink:href="classinitialize__options.html#ab0058e1f8dbc07d787cc0705c5d9366a" target="_top" xlink:title="initialize_options\l::parameters_namelist">
<polygon fill="white" stroke="black" points="125,-0.5 125,-30.5 238,-30.5 238,-0.5 125,-0.5"/>
<text text-anchor="start" x="133" y="-18.5" font-family="Helvetica,sans-Serif" font-size="10.00">initialize_options</text>
<text text-anchor="middle" x="181.5" y="-7.5" font-family="Helvetica,sans-Serif" font-size="10.00">::parameters_namelist</text>
</a>
</g>
</g>
<!-- Node1&#45;&gt;Node2 -->
<g id="edge1" class="edge"><title>Node1&#45;&gt;Node2</title>
<path fill="none" stroke="midnightblue" d="M99.568,-15.5C107.798,-15.5 116.306,-15.5 124.575,-15.5"/>
<polygon fill="midnightblue" stroke="midnightblue" points="99.3307,-12.0001 89.3306,-15.5 99.3306,-19.0001 99.3307,-12.0001"/>
</g>
<!-- Node3 -->
<g id="node3" class="node"><title>Node3</title>
<g id="a_node3"><a xlink:href="classinitialize__options.html#a571709045f201082c9735408ef2f28e3" target="_top" xlink:title="initialize_options\l::init_options">
<polygon fill="white" stroke="black" points="274,-0.5 274,-30.5 363,-30.5 363,-0.5 274,-0.5"/>
<text text-anchor="start" x="282" y="-18.5" font-family="Helvetica,sans-Serif" font-size="10.00">initialize_options</text>
<text text-anchor="middle" x="318.5" y="-7.5" font-family="Helvetica,sans-Serif" font-size="10.00">::init_options</text>
</a>
</g>
</g>
<!-- Node2&#45;&gt;Node3 -->
<g id="edge2" class="edge"><title>Node2&#45;&gt;Node3</title>
<path fill="none" stroke="midnightblue" d="M248.325,-15.5C257.003,-15.5 265.719,-15.5 273.897,-15.5"/>
<polygon fill="midnightblue" stroke="midnightblue" points="248.189,-12.0001 238.189,-15.5 248.189,-19.0001 248.189,-12.0001"/>
</g>
<!-- Node4 -->
<g id="node4" class="node"><title>Node4</title>
<g id="a_node4"><a xlink:href="classinit.html#a1dd1e2b38eef39cba464f65c9ce82568" target="_top" xlink:title="init::init_model">
<polygon fill="white" stroke="black" points="399,-6 399,-25 479,-25 479,-6 399,-6"/>
<text text-anchor="middle" x="439" y="-13" font-family="Helvetica,sans-Serif" font-size="10.00">init::init_model</text>
</a>
</g>
</g>
<!-- Node3&#45;&gt;Node4 -->
<g id="edge3" class="edge"><title>Node3&#45;&gt;Node4</title>
<path fill="none" stroke="midnightblue" d="M373.517,-15.5C382,-15.5 390.627,-15.5 398.696,-15.5"/>
<polygon fill="midnightblue" stroke="midnightblue" points="373.288,-12.0001 363.288,-15.5 373.288,-19.0001 373.288,-12.0001"/>
</g>
<!-- Node5 -->
<g id="node5" class="node"><title>Node5</title>
<g id="a_node5"><a xlink:href="driver_8f90.html#ab1e5a5816a57fc6e95d9563c2bb53590" target="_top" xlink:title=" Main Program ">
<polygon fill="white" stroke="black" points="515,-6 515,-25 547,-25 547,-6 515,-6"/>
<text text-anchor="middle" x="531" y="-13" font-family="Helvetica,sans-Serif" font-size="10.00">icar</text>
</a>
</g>
</g>
<!-- Node4&#45;&gt;Node5 -->
<g id="edge4" class="edge"><title>Node4&#45;&gt;Node5</title>
<path fill="none" stroke="midnightblue" d="M489.233,-15.5C498.449,-15.5 507.425,-15.5 514.599,-15.5"/>
<polygon fill="midnightblue" stroke="midnightblue" points="489.214,-12.0001 479.213,-15.5 489.213,-19.0001 489.214,-12.0001"/>
</g>
</g>
</svg>
