<?xml version="1.0" encoding="UTF-8" standalone="no"?>
<!DOCTYPE svg PUBLIC "-//W3C//DTD SVG 1.1//EN"
 "http://www.w3.org/Graphics/SVG/1.1/DTD/svg11.dtd">
<!-- Generated by graphviz version 2.38.0 (20140413.2041)
 -->
<!-- Title: module_mp_thompson::gammln Pages: 1 -->
<svg width="1085pt" height="132pt"
 viewBox="0.00 0.00 1085.00 132.00" xmlns="http://www.w3.org/2000/svg" xmlns:xlink="http://www.w3.org/1999/xlink">
<g id="graph0" class="graph" transform="scale(1 1) rotate(0) translate(4 128)">
<title>module_mp_thompson::gammln</title>
<polygon fill="white" stroke="none" points="-4,4 -4,-128 1081,-128 1081,4 -4,4"/>
<!-- Node1 -->
<g id="node1" class="node"><title>Node1</title>
<polygon fill="#bfbfbf" stroke="black" points="0,-44.5 0,-74.5 115,-74.5 115,-44.5 0,-44.5"/>
<text text-anchor="start" x="8" y="-62.5" font-family="Helvetica,sans-Serif" font-size="10.00">module_mp_thompson</text>
<text text-anchor="middle" x="57.5" y="-51.5" font-family="Helvetica,sans-Serif" font-size="10.00">::gammln</text>
</g>
<!-- Node2 -->
<g id="node2" class="node"><title>Node2</title>
<g id="a_node2"><a xlink:href="classmodule__mp__thompson.html#ae708350e2b07c93cbab0a8f77752e063" target="_top" xlink:title="module_mp_thompson::gcf">
<polygon fill="white" stroke="black" points="151,-94 151,-113 285,-113 285,-94 151,-94"/>
<text text-anchor="middle" x="218" y="-101" font-family="Helvetica,sans-Serif" font-size="10.00">module_mp_thompson::gcf</text>
</a>
</g>
</g>
<!-- Node1&#45;&gt;Node2 -->
<g id="edge1" class="edge"><title>Node1&#45;&gt;Node2</title>
<path fill="none" stroke="midnightblue" d="M122.249,-77.1969C142.83,-82.9101 164.862,-89.0262 182.496,-93.9217"/>
<polygon fill="midnightblue" stroke="midnightblue" points="123.175,-73.8217 112.603,-74.5192 121.303,-80.5667 123.175,-73.8217"/>
</g>
<!-- Node10 -->
<g id="node10" class="node"><title>Node10</title>
<g id="a_node10"><a xlink:href="classmodule__mp__thompson.html#af4069d16cc3cbf9a1c493ae5314f4484" target="_top" xlink:title="module_mp_thompson\l::gser">
<polygon fill="white" stroke="black" points="160.5,-44.5 160.5,-74.5 275.5,-74.5 275.5,-44.5 160.5,-44.5"/>
<text text-anchor="start" x="168.5" y="-62.5" font-family="Helvetica,sans-Serif" font-size="10.00">module_mp_thompson</text>
<text text-anchor="middle" x="218" y="-51.5" font-family="Helvetica,sans-Serif" font-size="10.00">::gser</text>
</a>
</g>
</g>
<!-- Node1&#45;&gt;Node10 -->
<g id="edge9" class="edge"><title>Node1&#45;&gt;Node10</title>
<path fill="none" stroke="midnightblue" d="M125.382,-59.5C137.021,-59.5 149.025,-59.5 160.356,-59.5"/>
<polygon fill="midnightblue" stroke="midnightblue" points="125.274,-56.0001 115.274,-59.5 125.274,-63.0001 125.274,-56.0001"/>
</g>
<!-- Node11 -->
<g id="node11" class="node"><title>Node11</title>
<g id="a_node11"><a xlink:href="classmodule__mp__thompson.html#a8a455cb4e751f42fa53a31bb47649767" target="_top" xlink:title="module_mp_thompson\l::wgamma">
<polygon fill="white" stroke="black" points="321,-0.5 321,-30.5 436,-30.5 436,-0.5 321,-0.5"/>
<text text-anchor="start" x="329" y="-18.5" font-family="Helvetica,sans-Serif" font-size="10.00">module_mp_thompson</text>
<text text-anchor="middle" x="378.5" y="-7.5" font-family="Helvetica,sans-Serif" font-size="10.00">::wgamma</text>
</a>
</g>
</g>
<!-- Node1&#45;&gt;Node11 -->
<g id="edge11" class="edge"><title>Node1&#45;&gt;Node11</title>
<path fill="none" stroke="midnightblue" d="M117.552,-41.8434C128.59,-39.0281 140.086,-36.4164 151,-34.5 208.328,-24.4333 274.786,-19.6594 320.823,-17.421"/>
<polygon fill="midnightblue" stroke="midnightblue" points="116.353,-38.5398 107.575,-44.4721 118.137,-45.3088 116.353,-38.5398"/>
</g>
<!-- Node3 -->
<g id="node3" class="node"><title>Node3</title>
<g id="a_node3"><a xlink:href="classmodule__mp__thompson.html#a1f946ed505cb00dda905c9a8c773b9be" target="_top" xlink:title="module_mp_thompson\l::gammp">
<polygon fill="white" stroke="black" points="321,-68.5 321,-98.5 436,-98.5 436,-68.5 321,-68.5"/>
<text text-anchor="start" x="329" y="-86.5" font-family="Helvetica,sans-Serif" font-size="10.00">module_mp_thompson</text>
<text text-anchor="middle" x="378.5" y="-75.5" font-family="Helvetica,sans-Serif" font-size="10.00">::gammp</text>
</a>
</g>
</g>
<!-- Node2&#45;&gt;Node3 -->
<g id="edge2" class="edge"><title>Node2&#45;&gt;Node3</title>
<path fill="none" stroke="midnightblue" d="M295.246,-93.8791C303.756,-92.8052 312.313,-91.7255 320.523,-90.6896"/>
<polygon fill="midnightblue" stroke="midnightblue" points="294.783,-90.4096 285.3,-95.1341 295.659,-97.3546 294.783,-90.4096"/>
</g>
<!-- Node4 -->
<g id="node4" class="node"><title>Node4</title>
<g id="a_node4"><a xlink:href="classmodule__mp__thompson.html#a38c4bc57c8dd450c76cc65b1991cf23d" target="_top" xlink:title="module_mp_thompson\l::qi_aut_qs">
<polygon fill="white" stroke="black" points="472,-93.5 472,-123.5 587,-123.5 587,-93.5 472,-93.5"/>
<text text-anchor="start" x="480" y="-111.5" font-family="Helvetica,sans-Serif" font-size="10.00">module_mp_thompson</text>
<text text-anchor="middle" x="529.5" y="-100.5" font-family="Helvetica,sans-Serif" font-size="10.00">::qi_aut_qs</text>
</a>
</g>
</g>
<!-- Node3&#45;&gt;Node4 -->
<g id="edge3" class="edge"><title>Node3&#45;&gt;Node4</title>
<path fill="none" stroke="midnightblue" d="M446.228,-94.696C454.801,-96.1344 463.513,-97.5961 471.902,-99.0037"/>
<polygon fill="midnightblue" stroke="midnightblue" points="446.697,-91.2258 436.256,-93.0227 445.539,-98.1293 446.697,-91.2258"/>
</g>
<!-- Node9 -->
<g id="node9" class="node"><title>Node9</title>
<g id="a_node9"><a xlink:href="classmodule__mp__thompson.html#ac5a7433b5bd00387f9fd1e9aa9356dc4" target="_top" xlink:title="module_mp_thompson\l::table_dropevap">
<polygon fill="white" stroke="black" points="472,-44.5 472,-74.5 587,-74.5 587,-44.5 472,-44.5"/>
<text text-anchor="start" x="480" y="-62.5" font-family="Helvetica,sans-Serif" font-size="10.00">module_mp_thompson</text>
<text text-anchor="middle" x="529.5" y="-51.5" font-family="Helvetica,sans-Serif" font-size="10.00">::table_dropevap</text>
</a>
</g>
</g>
<!-- Node3&#45;&gt;Node9 -->
<g id="edge8" class="edge"><title>Node3&#45;&gt;Node9</title>
<path fill="none" stroke="midnightblue" d="M446.228,-72.7519C454.801,-71.371 463.513,-69.9678 471.902,-68.6164"/>
<polygon fill="midnightblue" stroke="midnightblue" points="445.572,-69.3124 436.256,-74.3582 446.685,-76.2233 445.572,-69.3124"/>
</g>
<!-- Node5 -->
<g id="node5" class="node"><title>Node5</title>
<g id="a_node5"><a xlink:href="classmodule__mp__thompson.html#ac48fd402382d0687fe2a123025ba6a13" target="_top" xlink:title="module_mp_thompson\l::thompson_init">
<polygon fill="white" stroke="black" points="623,-46.5 623,-76.5 738,-76.5 738,-46.5 623,-46.5"/>
<text text-anchor="start" x="631" y="-64.5" font-family="Helvetica,sans-Serif" font-size="10.00">module_mp_thompson</text>
<text text-anchor="middle" x="680.5" y="-53.5" font-family="Helvetica,sans-Serif" font-size="10.00">::thompson_init</text>
</a>
</g>
</g>
<!-- Node4&#45;&gt;Node5 -->
<g id="edge4" class="edge"><title>Node4&#45;&gt;Node5</title>
<path fill="none" stroke="midnightblue" d="M587.936,-90.3826C602.463,-85.8004 617.904,-80.9295 631.887,-76.519"/>
<polygon fill="midnightblue" stroke="midnightblue" points="586.538,-87.1535 578.054,-93.4997 588.644,-93.8292 586.538,-87.1535"/>
</g>
<!-- Node6 -->
<g id="node6" class="node"><title>Node6</title>
<g id="a_node6"><a xlink:href="classmicrophysics.html#afa6d0466868d2249a5e1827b39907554" target="_top" xlink:title=" Initialize microphysical routines ">
<polygon fill="white" stroke="black" points="774,-52 774,-71 886,-71 886,-52 774,-52"/>
<text text-anchor="middle" x="830" y="-59" font-family="Helvetica,sans-Serif" font-size="10.00">microphysics::mp_init</text>
</a>
</g>
</g>
<!-- Node5&#45;&gt;Node6 -->
<g id="edge5" class="edge"><title>Node5&#45;&gt;Node6</title>
<path fill="none" stroke="midnightblue" d="M748.373,-61.5C756.865,-61.5 765.48,-61.5 773.762,-61.5"/>
<polygon fill="midnightblue" stroke="midnightblue" points="748.106,-58.0001 738.106,-61.5 748.105,-65.0001 748.106,-58.0001"/>
</g>
<!-- Node7 -->
<g id="node7" class="node"><title>Node7</title>
<g id="a_node7"><a xlink:href="classinit.html#ad066397f42956c6e9d50884a2e84d4e4" target="_top" xlink:title="init::init_physics">
<polygon fill="white" stroke="black" points="922,-52 922,-71 1009,-71 1009,-52 922,-52"/>
<text text-anchor="middle" x="965.5" y="-59" font-family="Helvetica,sans-Serif" font-size="10.00">init::init_physics</text>
</a>
</g>
</g>
<!-- Node6&#45;&gt;Node7 -->
<g id="edge6" class="edge"><title>Node6&#45;&gt;Node7</title>
<path fill="none" stroke="midnightblue" d="M896.217,-61.5C904.904,-61.5 913.625,-61.5 921.792,-61.5"/>
<polygon fill="midnightblue" stroke="midnightblue" points="896.07,-58.0001 886.07,-61.5 896.07,-65.0001 896.07,-58.0001"/>
</g>
<!-- Node8 -->
<g id="node8" class="node"><title>Node8</title>
<g id="a_node8"><a xlink:href="driver_8f90.html#ab1e5a5816a57fc6e95d9563c2bb53590" target="_top" xlink:title=" Main Program ">
<polygon fill="white" stroke="black" points="1045,-52 1045,-71 1077,-71 1077,-52 1045,-52"/>
<text text-anchor="middle" x="1061" y="-59" font-family="Helvetica,sans-Serif" font-size="10.00">icar</text>
</a>
</g>
</g>
<!-- Node7&#45;&gt;Node8 -->
<g id="edge7" class="edge"><title>Node7&#45;&gt;Node8</title>
<path fill="none" stroke="midnightblue" d="M1019.29,-61.5C1028.59,-61.5 1037.57,-61.5 1044.71,-61.5"/>
<polygon fill="midnightblue" stroke="midnightblue" points="1019.15,-58.0001 1009.15,-61.5 1019.15,-65.0001 1019.15,-58.0001"/>
</g>
<!-- Node10&#45;&gt;Node3 -->
<g id="edge10" class="edge"><title>Node10&#45;&gt;Node3</title>
<path fill="none" stroke="midnightblue" d="M285.882,-69.6273C297.521,-71.3896 309.525,-73.2072 320.856,-74.9229"/>
<polygon fill="midnightblue" stroke="midnightblue" points="286.186,-66.1334 275.774,-68.0968 285.138,-73.0545 286.186,-66.1334"/>
</g>
<!-- Node11&#45;&gt;Node5 -->
<g id="edge12" class="edge"><title>Node11&#45;&gt;Node5</title>
<path fill="none" stroke="midnightblue" d="M446.391,-18.3481C487.275,-20.898 540.476,-25.6655 587,-34.5 602.614,-37.4649 619.377,-41.9475 634.287,-46.413"/>
<polygon fill="midnightblue" stroke="midnightblue" points="446.463,-14.8463 436.273,-17.7465 446.048,-21.834 446.463,-14.8463"/>
</g>
</g>
</svg>
