<?xml version="1.0" encoding="UTF-8" standalone="no"?>
<!DOCTYPE svg PUBLIC "-//W3C//DTD SVG 1.1//EN"
 "http://www.w3.org/Graphics/SVG/1.1/DTD/svg11.dtd">
<!-- Generated by graphviz version 2.38.0 (20140413.2041)
 -->
<!-- Title: radiation::rad Pages: 1 -->
<!--zoomable 203 -->
<svg id="main" version="1.1" xmlns="http://www.w3.org/2000/svg" xmlns:xlink="http://www.w3.org/1999/xlink" xml:space="preserve" onload="init(evt)">
<style type="text/css"><![CDATA[
.edge:hover path { stroke: red; }
.edge:hover polygon { stroke: red; fill: red; }
]]></style>
<script type="text/javascript"><![CDATA[
var edges = document.getElementsByTagName('g');
if (edges && edges.length) {
  for (var i=0;i<edges.length;i++) {
    if (edges[i].id.substr(0,4)=='edge') {
      edges[i].setAttribute('class','edge');
    }
  }
}
]]></script>
        <defs>
                <circle id="rim" cx="0" cy="0" r="7"/>
                <circle id="rim2" cx="0" cy="0" r="3.5"/>
                <g id="zoomPlus">
                        <use xlink:href="#rim" fill="#404040">
                                <set attributeName="fill" to="#808080" begin="zoomplus.mouseover" end="zoomplus.mouseout"/>
                        </use>
                        <path d="M-4,0h8M0,-4v8" fill="none" stroke="white" stroke-width="1.5" pointer-events="none"/>
                </g>
                <g id="zoomMin">
                        <use xlink:href="#rim" fill="#404040">
                                <set attributeName="fill" to="#808080" begin="zoomminus.mouseover" end="zoomminus.mouseout"/>
                        </use>
                        <path d="M-4,0h8" fill="none" stroke="white" stroke-width="1.5" pointer-events="none"/>
                </g>
                <g id="dirArrow">
                        <path fill="none" stroke="white" stroke-width="1.5" d="M0,-3.0v7 M-2.5,-0.5L0,-3.0L2.5,-0.5"/>
                </g>
               <g id="resetDef">
                       <use xlink:href="#rim2" fill="#404040">
                               <set attributeName="fill" to="#808080" begin="reset.mouseover" end="reset.mouseout"/>
                       </use>
               </g>
        </defs>

<script type="text/javascript">
var viewWidth = 701;
var viewHeight = 203;
var sectionId = 'dynsection-0';
</script>
<script xlink:href="svgpan.js"/>
<svg id="graph" class="graph">
<g id="viewport">
<title>radiation::rad</title>
<polygon fill="white" stroke="none" points="-4,4 -4,-198.5 697,-198.5 697,4 -4,4"/>
<!-- Node1 -->
<g id="node1" class="node"><title>Node1</title>
<polygon fill="#bfbfbf" stroke="black" points="0,-76.5 0,-95.5 73,-95.5 73,-76.5 0,-76.5"/>
<text text-anchor="middle" x="36.5" y="-83.5" font-family="Helvetica,sans-Serif" font-size="10.00">radiation::rad</text>
</g>
<!-- Node2 -->
<g id="node2" class="node"><title>Node2</title>
<g id="a_node2"><a xlink:href="classmodule__ra__simple.html#ad1c74605b2817f833d31e806f791e246" target="_top" xlink:title="module_ra_simple::ra\l_simple">
<polygon fill="white" stroke="black" points="109,-71 109,-101 219,-101 219,-71 109,-71"/>
<text text-anchor="start" x="117" y="-89" font-family="Helvetica,sans-Serif" font-size="10.00">module_ra_simple::ra</text>
<text text-anchor="middle" x="164" y="-78" font-family="Helvetica,sans-Serif" font-size="10.00">_simple</text>
</a>
</g>
</g>
<!-- Node1&#45;&gt;Node2 -->
<g id="edge1" class="edge"><title>Node1&#45;&gt;Node2</title>
<path fill="none" stroke="midnightblue" d="M73.1276,-86C81.236,-86 90.0926,-86 98.9831,-86"/>
<polygon fill="midnightblue" stroke="midnightblue" points="98.9971,-89.5001 108.997,-86 98.9971,-82.5001 98.9971,-89.5001"/>
</g>
<!-- Node3 -->
<g id="node3" class="node"><title>Node3</title>
<g id="a_node3"><a xlink:href="classmodule__ra__simple.html#a383e37e85086ad3fd8f2da8601d997d0" target="_top" xlink:title="module_ra_simple::relative\l_humidity">
<polygon fill="white" stroke="black" points="261.5,-164 261.5,-194 394.5,-194 394.5,-164 261.5,-164"/>
<text text-anchor="start" x="269.5" y="-182" font-family="Helvetica,sans-Serif" font-size="10.00">module_ra_simple::relative</text>
<text text-anchor="middle" x="328" y="-171" font-family="Helvetica,sans-Serif" font-size="10.00">_humidity</text>
</a>
</g>
</g>
<!-- Node2&#45;&gt;Node3 -->
<g id="edge2" class="edge"><title>Node2&#45;&gt;Node3</title>
<path fill="none" stroke="midnightblue" d="M181.096,-101.029C198.269,-116.388 226.826,-140.048 255,-155 258.437,-156.824 262.039,-158.547 265.723,-160.167"/>
<polygon fill="midnightblue" stroke="midnightblue" points="264.419,-163.415 274.999,-163.983 267.082,-156.942 264.419,-163.415"/>
</g>
<!-- Node4 -->
<g id="node4" class="node"><title>Node4</title>
<g id="a_node4"><a xlink:href="classmodule__ra__simple.html#a4529da23ec7082aeafd82ffcad0e6e43" target="_top" xlink:title="module_ra_simple::calc\l_solar_elevation">
<polygon fill="white" stroke="black" points="268.5,-115 268.5,-145 387.5,-145 387.5,-115 268.5,-115"/>
<text text-anchor="start" x="276.5" y="-133" font-family="Helvetica,sans-Serif" font-size="10.00">module_ra_simple::calc</text>
<text text-anchor="middle" x="328" y="-122" font-family="Helvetica,sans-Serif" font-size="10.00">_solar_elevation</text>
</a>
</g>
</g>
<!-- Node2&#45;&gt;Node4 -->
<g id="edge3" class="edge"><title>Node2&#45;&gt;Node4</title>
<path fill="none" stroke="midnightblue" d="M219.394,-100.774C233.062,-104.486 247.866,-108.507 261.994,-112.344"/>
<polygon fill="midnightblue" stroke="midnightblue" points="261.077,-115.722 271.644,-114.965 262.911,-108.966 261.077,-115.722"/>
</g>
<!-- Node8 -->
<g id="node8" class="node"><title>Node8</title>
<g id="a_node8"><a xlink:href="classmodule__ra__simple.html#af96b45b6aa6ee7f751648e8edb2eff97" target="_top" xlink:title="module_ra_simple::cloudfrac">
<polygon fill="white" stroke="black" points="257.5,-76.5 257.5,-95.5 398.5,-95.5 398.5,-76.5 257.5,-76.5"/>
<text text-anchor="middle" x="328" y="-83.5" font-family="Helvetica,sans-Serif" font-size="10.00">module_ra_simple::cloudfrac</text>
</a>
</g>
</g>
<!-- Node2&#45;&gt;Node8 -->
<g id="edge7" class="edge"><title>Node2&#45;&gt;Node8</title>
<path fill="none" stroke="midnightblue" d="M219.394,-86C228.305,-86 237.698,-86 247.073,-86"/>
<polygon fill="midnightblue" stroke="midnightblue" points="247.214,-89.5001 257.214,-86 247.214,-82.5001 247.214,-89.5001"/>
</g>
<!-- Node9 -->
<g id="node9" class="node"><title>Node9</title>
<g id="a_node9"><a xlink:href="classmodule__ra__simple.html#a9fdfe8ded9ed1a2131513bf2d17db5e6" target="_top" xlink:title="module_ra_simple::shortwave">
<polygon fill="white" stroke="black" points="255,-38.5 255,-57.5 401,-57.5 401,-38.5 255,-38.5"/>
<text text-anchor="middle" x="328" y="-45.5" font-family="Helvetica,sans-Serif" font-size="10.00">module_ra_simple::shortwave</text>
</a>
</g>
</g>
<!-- Node2&#45;&gt;Node9 -->
<g id="edge8" class="edge"><title>Node2&#45;&gt;Node9</title>
<path fill="none" stroke="midnightblue" d="M219.394,-73.2408C237.853,-68.9111 258.385,-64.0949 276.525,-59.8398"/>
<polygon fill="midnightblue" stroke="midnightblue" points="277.392,-63.2316 286.328,-57.5403 275.793,-56.4166 277.392,-63.2316"/>
</g>
<!-- Node10 -->
<g id="node10" class="node"><title>Node10</title>
<g id="a_node10"><a xlink:href="classmodule__ra__simple.html#ac17356062eed2cca6633da58b0899d09" target="_top" xlink:title="module_ra_simple::longwave">
<polygon fill="white" stroke="black" points="256.5,-0.5 256.5,-19.5 399.5,-19.5 399.5,-0.5 256.5,-0.5"/>
<text text-anchor="middle" x="328" y="-7.5" font-family="Helvetica,sans-Serif" font-size="10.00">module_ra_simple::longwave</text>
</a>
</g>
</g>
<!-- Node2&#45;&gt;Node10 -->
<g id="edge9" class="edge"><title>Node2&#45;&gt;Node10</title>
<path fill="none" stroke="midnightblue" d="M184.734,-70.9864C202.335,-58.2265 229.232,-40.2391 255,-29 260.466,-26.616 266.299,-24.4744 272.191,-22.565"/>
<polygon fill="midnightblue" stroke="midnightblue" points="273.545,-25.8122 282.105,-19.5693 271.52,-19.1114 273.545,-25.8122"/>
</g>
<!-- Node5 -->
<g id="node5" class="node"><title>Node5</title>
<g id="a_node5"><a xlink:href="classtime.html#adfcbe10943e169e25a9ee15ddb3ce70b" target="_top" xlink:title="time::calc_day_of_year">
<polygon fill="white" stroke="black" points="437,-120.5 437,-139.5 555,-139.5 555,-120.5 437,-120.5"/>
<text text-anchor="middle" x="496" y="-127.5" font-family="Helvetica,sans-Serif" font-size="10.00">time::calc_day_of_year</text>
</a>
</g>
</g>
<!-- Node4&#45;&gt;Node5 -->
<g id="edge4" class="edge"><title>Node4&#45;&gt;Node5</title>
<path fill="none" stroke="midnightblue" d="M387.525,-130C400.12,-130 413.541,-130 426.478,-130"/>
<polygon fill="midnightblue" stroke="midnightblue" points="426.724,-133.5 436.724,-130 426.723,-126.5 426.724,-133.5"/>
</g>
<!-- Node6 -->
<g id="node6" class="node"><title>Node6</title>
<g id="a_node6"><a xlink:href="classtime.html#a8736f37f83c6d8f62957c70df2239693" target="_top" xlink:title="time::calendar_date">
<polygon fill="white" stroke="black" points="591,-139.5 591,-158.5 693,-158.5 693,-139.5 591,-139.5"/>
<text text-anchor="middle" x="642" y="-146.5" font-family="Helvetica,sans-Serif" font-size="10.00">time::calendar_date</text>
</a>
</g>
</g>
<!-- Node5&#45;&gt;Node6 -->
<g id="edge5" class="edge"><title>Node5&#45;&gt;Node6</title>
<path fill="none" stroke="midnightblue" d="M555.155,-137.673C563.683,-138.798 572.48,-139.959 581.043,-141.089"/>
<polygon fill="midnightblue" stroke="midnightblue" points="580.586,-144.559 590.958,-142.397 581.502,-137.619 580.586,-144.559"/>
</g>
<!-- Node7 -->
<g id="node7" class="node"><title>Node7</title>
<g id="a_node7"><a xlink:href="classtime.html#a22e63418fe5d559327ca090619d097e0" target="_top" xlink:title="time::date_to_mjd">
<polygon fill="white" stroke="black" points="594.5,-101.5 594.5,-120.5 689.5,-120.5 689.5,-101.5 594.5,-101.5"/>
<text text-anchor="middle" x="642" y="-108.5" font-family="Helvetica,sans-Serif" font-size="10.00">time::date_to_mjd</text>
</a>
</g>
</g>
<!-- Node5&#45;&gt;Node7 -->
<g id="edge6" class="edge"><title>Node5&#45;&gt;Node7</title>
<path fill="none" stroke="midnightblue" d="M555.155,-122.327C564.671,-121.071 574.522,-119.771 584.009,-118.52"/>
<polygon fill="midnightblue" stroke="midnightblue" points="584.671,-121.963 594.128,-117.185 583.756,-115.023 584.671,-121.963"/>
</g>
</g>
</svg>
        <g id="navigator" transform="translate(0 0)" fill="#404254">
                <rect fill="#f2f5e9" fill-opacity="0.5" stroke="#606060" stroke-width=".5" x="0" y="0" width="60" height="60"/>
                <use id="zoomplus" xlink:href="#zoomPlus" x="17" y="9" onmousedown="handleZoom(evt,'in')"/>
                <use id="zoomminus" xlink:href="#zoomMin" x="42" y="9" onmousedown="handleZoom(evt,'out')"/>
                <use id="reset" xlink:href="#resetDef" x="30" y="36" onmousedown="handleReset()"/>
                <g id="arrowUp" xlink:href="#dirArrow" transform="translate(30 24)" onmousedown="handlePan(0,-1)">
                  <use xlink:href="#rim" fill="#404040">
                        <set attributeName="fill" to="#808080" begin="arrowUp.mouseover" end="arrowUp.mouseout"/>
                  </use>
                  <path fill="none" stroke="white" stroke-width="1.5" d="M0,-3.0v7 M-2.5,-0.5L0,-3.0L2.5,-0.5"/>
                </g>
                <g id="arrowRight" xlink:href="#dirArrow" transform="rotate(90) translate(36 -43)" onmousedown="handlePan(1,0)">
                  <use xlink:href="#rim" fill="#404040">
                        <set attributeName="fill" to="#808080" begin="arrowRight.mouseover" end="arrowRight.mouseout"/>
                  </use>
                  <path fill="none" stroke="white" stroke-width="1.5" d="M0,-3.0v7 M-2.5,-0.5L0,-3.0L2.5,-0.5"/>
                </g>
                <g id="arrowDown" xlink:href="#dirArrow" transform="rotate(180) translate(-30 -48)" onmousedown="handlePan(0,1)">
                  <use xlink:href="#rim" fill="#404040">
                        <set attributeName="fill" to="#808080" begin="arrowDown.mouseover" end="arrowDown.mouseout"/>
                  </use>
                  <path fill="none" stroke="white" stroke-width="1.5" d="M0,-3.0v7 M-2.5,-0.5L0,-3.0L2.5,-0.5"/>
                </g>
                <g id="arrowLeft" xlink:href="#dirArrow" transform="rotate(270) translate(-36 17)" onmousedown="handlePan(-1,0)">
                  <use xlink:href="#rim" fill="#404040">
                        <set attributeName="fill" to="#808080" begin="arrowLeft.mouseover" end="arrowLeft.mouseout"/>
                  </use>
                  <path fill="none" stroke="white" stroke-width="1.5" d="M0,-3.0v7 M-2.5,-0.5L0,-3.0L2.5,-0.5"/>
                </g>
        </g>
        <svg viewBox="0 0 15 15" width="100%" height="30px" preserveAspectRatio="xMaxYMin meet">
         <g id="arrow_out" transform="scale(0.3 0.3)">
          <a xlink:href="classradiation_aba1a06d27af96fe11d576458c8ccfe77_cgraph_org.svg" target="_base">
           <rect id="button" ry="5" rx="5" y="6" x="6" height="38" width="38"
                fill="#f2f5e9" fill-opacity="0.5" stroke="#606060" stroke-width="1.0"/>
           <path id="arrow"
             d="M 11.500037,31.436501 C 11.940474,20.09759 22.043105,11.32322 32.158766,21.979434 L 37.068811,17.246167 C 37.068811,17.246167 37.088388,32 37.088388,32 L 22.160133,31.978069 C 22.160133,31.978069 26.997745,27.140456 26.997745,27.140456 C 18.528582,18.264221 13.291696,25.230495 11.500037,31.436501 z"
             style="fill:#404040;"/>
          </a>
         </g>
        </svg>
</svg>
