<?xml version="1.0" encoding="UTF-8" standalone="no"?>
<!DOCTYPE svg PUBLIC "-//W3C//DTD SVG 1.1//EN"
 "http://www.w3.org/Graphics/SVG/1.1/DTD/svg11.dtd">
<!-- Generated by graphviz version 2.32.0 (20130809.1645)
 -->
<!-- Title: io_routines::io_nearest_time_step Pages: 1 -->
<!--zoomable 38 -->
<svg id="main" version="1.1" xmlns="http://www.w3.org/2000/svg" xmlns:xlink="http://www.w3.org/1999/xlink" xml:space="preserve" onload="init(evt)">
<style type="text/css"><![CDATA[
.edge:hover path { stroke: red; }
.edge:hover polygon { stroke: red; fill: red; }
]]></style>
<script type="text/javascript"><![CDATA[
var edges = document.getElementsByTagName('g');
if (edges && edges.length) {
  for (var i=0;i<edges.length;i++) {
    if (edges[i].id.substr(0,4)=='edge') {
      edges[i].setAttribute('class','edge');
    }
  }
}
]]></script>
        <defs>
                <circle id="rim" cx="0" cy="0" r="7"/>
                <circle id="rim2" cx="0" cy="0" r="3.5"/>
                <g id="zoomPlus">
                        <use xlink:href="#rim" fill="#404040">
                                <set attributeName="fill" to="#808080" begin="zoomplus.mouseover" end="zoomplus.mouseout"/>
                        </use>
                        <path d="M-4,0h8M0,-4v8" fill="none" stroke="white" stroke-width="1.5" pointer-events="none"/>
                </g>
                <g id="zoomMin">
                        <use xlink:href="#rim" fill="#404040">
                                <set attributeName="fill" to="#808080" begin="zoomminus.mouseover" end="zoomminus.mouseout"/>
                        </use>
                        <path d="M-4,0h8" fill="none" stroke="white" stroke-width="1.5" pointer-events="none"/>
                </g>
                <g id="dirArrow">
                        <path fill="none" stroke="white" stroke-width="1.5" d="M0,-3.0v7 M-2.5,-0.5L0,-3.0L2.5,-0.5"/>
                </g>
               <g id="resetDef">
                       <use xlink:href="#rim2" fill="#404040">
                               <set attributeName="fill" to="#808080" begin="reset.mouseover" end="reset.mouseout"/>
                       </use>
               </g>
        </defs>

<script type="text/javascript">
var viewWidth = 576;
var viewHeight = 38;
var sectionId = 'dynsection-8';
</script>
<script xlink:href="svgpan.js"/>
<svg id="graph" class="graph">
<g id="viewport">
<title>io_routines::io_nearest_time_step</title>
<polygon fill="white" stroke="white" points="-4,5 -4,-34 573,-34 573,5 -4,5"/>
<!-- Node1 -->
<g id="node1" class="node"><title>Node1</title>
<polygon fill="#bfbfbf" stroke="black" points="0.5,-0 0.5,-30 115.5,-30 115.5,-0 0.5,-0"/>
<text text-anchor="start" x="8.5" y="-18" font-family="Helvetica,sans-Serif" font-size="10.00">io_routines::io_nearest</text>
<text text-anchor="middle" x="58" y="-7" font-family="Helvetica,sans-Serif" font-size="10.00">_time_step</text>
</g>
<!-- Node2 -->
<g id="node2" class="node"><title>Node2</title>
<g id="a_node2"><a xlink:href="classinitialize__options.html#aa5c0f26f48774390be64bb2fc8243db6" target="_top" xlink:title="initialize_options\l::init_restart_options">
<polygon fill="white" stroke="black" points="152.5,-0 152.5,-30 257.5,-30 257.5,-0 152.5,-0"/>
<text text-anchor="start" x="160.5" y="-18" font-family="Helvetica,sans-Serif" font-size="10.00">initialize_options</text>
<text text-anchor="middle" x="205" y="-7" font-family="Helvetica,sans-Serif" font-size="10.00">::init_restart_options</text>
</a>
</g>
</g>
<!-- Node1&#45;&gt;Node2 -->
<g id="edge1" class="edge"><title>Node1&#45;&gt;Node2</title>
<path fill="none" stroke="midnightblue" d="M126.179,-15C135.011,-15 143.948,-15 152.464,-15"/>
<polygon fill="midnightblue" stroke="midnightblue" points="125.892,-11.5001 115.892,-15 125.892,-18.5001 125.892,-11.5001"/>
</g>
<!-- Node3 -->
<g id="node3" class="node"><title>Node3</title>
<g id="a_node3"><a xlink:href="classinitialize__options.html#a571709045f201082c9735408ef2f28e3" target="_top" xlink:title="initialize_options\l::init_options">
<polygon fill="white" stroke="black" points="294.5,-0 294.5,-30 383.5,-30 383.5,-0 294.5,-0"/>
<text text-anchor="start" x="302.5" y="-18" font-family="Helvetica,sans-Serif" font-size="10.00">initialize_options</text>
<text text-anchor="middle" x="339" y="-7" font-family="Helvetica,sans-Serif" font-size="10.00">::init_options</text>
</a>
</g>
</g>
<!-- Node2&#45;&gt;Node3 -->
<g id="edge2" class="edge"><title>Node2&#45;&gt;Node3</title>
<path fill="none" stroke="midnightblue" d="M267.86,-15C276.849,-15 285.94,-15 294.464,-15"/>
<polygon fill="midnightblue" stroke="midnightblue" points="267.791,-11.5001 257.791,-15 267.791,-18.5001 267.791,-11.5001"/>
</g>
<!-- Node4 -->
<g id="node4" class="node"><title>Node4</title>
<g id="a_node4"><a xlink:href="classinit.html#a1dd1e2b38eef39cba464f65c9ce82568" target="_top" xlink:title="init::init_model">
<polygon fill="white" stroke="black" points="420,-5.5 420,-24.5 500,-24.5 500,-5.5 420,-5.5"/>
<text text-anchor="middle" x="460" y="-12.5" font-family="Helvetica,sans-Serif" font-size="10.00">init::init_model</text>
</a>
</g>
</g>
<!-- Node3&#45;&gt;Node4 -->
<g id="edge3" class="edge"><title>Node3&#45;&gt;Node4</title>
<path fill="none" stroke="midnightblue" d="M393.766,-15C402.499,-15 411.399,-15 419.703,-15"/>
<polygon fill="midnightblue" stroke="midnightblue" points="393.636,-11.5001 383.635,-15 393.635,-18.5001 393.636,-11.5001"/>
</g>
<!-- Node5 -->
<g id="node5" class="node"><title>Node5</title>
<g id="a_node5"><a xlink:href="driver_8f90.html#ab1e5a5816a57fc6e95d9563c2bb53590" target="_top" xlink:title=" Main Program ">
<polygon fill="white" stroke="black" points="536,-5.5 536,-24.5 568,-24.5 568,-5.5 536,-5.5"/>
<text text-anchor="middle" x="552" y="-12.5" font-family="Helvetica,sans-Serif" font-size="10.00">icar</text>
</a>
</g>
</g>
<!-- Node4&#45;&gt;Node5 -->
<g id="edge4" class="edge"><title>Node4&#45;&gt;Node5</title>
<path fill="none" stroke="midnightblue" d="M510.233,-15C519.449,-15 528.425,-15 535.599,-15"/>
<polygon fill="midnightblue" stroke="midnightblue" points="510.214,-11.5001 500.213,-15 510.213,-18.5001 510.214,-11.5001"/>
</g>
</g>
</svg>
        <g id="navigator" transform="translate(0 0)" fill="#404254">
                <rect fill="#f2f5e9" fill-opacity="0.5" stroke="#606060" stroke-width=".5" x="0" y="0" width="60" height="60"/>
                <use id="zoomplus" xlink:href="#zoomPlus" x="17" y="9" onmousedown="handleZoom(evt,'in')"/>
                <use id="zoomminus" xlink:href="#zoomMin" x="42" y="9" onmousedown="handleZoom(evt,'out')"/>
                <use id="reset" xlink:href="#resetDef" x="30" y="36" onmousedown="handleReset()"/>
                <g id="arrowUp" xlink:href="#dirArrow" transform="translate(30 24)" onmousedown="handlePan(0,-1)">
                  <use xlink:href="#rim" fill="#404040">
                        <set attributeName="fill" to="#808080" begin="arrowUp.mouseover" end="arrowUp.mouseout"/>
                  </use>
                  <path fill="none" stroke="white" stroke-width="1.5" d="M0,-3.0v7 M-2.5,-0.5L0,-3.0L2.5,-0.5"/>
                </g>
                <g id="arrowRight" xlink:href="#dirArrow" transform="rotate(90) translate(36 -43)" onmousedown="handlePan(1,0)">
                  <use xlink:href="#rim" fill="#404040">
                        <set attributeName="fill" to="#808080" begin="arrowRight.mouseover" end="arrowRight.mouseout"/>
                  </use>
                  <path fill="none" stroke="white" stroke-width="1.5" d="M0,-3.0v7 M-2.5,-0.5L0,-3.0L2.5,-0.5"/>
                </g>
                <g id="arrowDown" xlink:href="#dirArrow" transform="rotate(180) translate(-30 -48)" onmousedown="handlePan(0,1)">
                  <use xlink:href="#rim" fill="#404040">
                        <set attributeName="fill" to="#808080" begin="arrowDown.mouseover" end="arrowDown.mouseout"/>
                  </use>
                  <path fill="none" stroke="white" stroke-width="1.5" d="M0,-3.0v7 M-2.5,-0.5L0,-3.0L2.5,-0.5"/>
                </g>
                <g id="arrowLeft" xlink:href="#dirArrow" transform="rotate(270) translate(-36 17)" onmousedown="handlePan(-1,0)">
                  <use xlink:href="#rim" fill="#404040">
                        <set attributeName="fill" to="#808080" begin="arrowLeft.mouseover" end="arrowLeft.mouseout"/>
                  </use>
                  <path fill="none" stroke="white" stroke-width="1.5" d="M0,-3.0v7 M-2.5,-0.5L0,-3.0L2.5,-0.5"/>
                </g>
        </g>
        <svg viewBox="0 0 15 15" width="100%" height="30px" preserveAspectRatio="xMaxYMin meet">
         <g id="arrow_out" transform="scale(0.3 0.3)">
          <a xlink:href="classio__routines_af199c5971982f00c29c4ad34bdf15be0_icgraph_org.svg" target="_base">
           <rect id="button" ry="5" rx="5" y="6" x="6" height="38" width="38"
                fill="#f2f5e9" fill-opacity="0.5" stroke="#606060" stroke-width="1.0"/>
           <path id="arrow"
             d="M 11.500037,31.436501 C 11.940474,20.09759 22.043105,11.32322 32.158766,21.979434 L 37.068811,17.246167 C 37.068811,17.246167 37.088388,32 37.088388,32 L 22.160133,31.978069 C 22.160133,31.978069 26.997745,27.140456 26.997745,27.140456 C 18.528582,18.264221 13.291696,25.230495 11.500037,31.436501 z"
             style="fill:#404040;"/>
          </a>
         </g>
        </svg>
</svg>
