<?xml version="1.0" encoding="UTF-8" standalone="no"?>
<!DOCTYPE svg PUBLIC "-//W3C//DTD SVG 1.1//EN"
 "http://www.w3.org/Graphics/SVG/1.1/DTD/svg11.dtd">
<!-- Generated by graphviz version 2.32.0 (20130809.1645)
 -->
<!-- Title: pbl_simple::simple_pbl Pages: 1 -->
<svg width="432pt" height="219pt"
 viewBox="0.00 0.00 432.00 219.00" xmlns="http://www.w3.org/2000/svg" xmlns:xlink="http://www.w3.org/1999/xlink">
<g id="graph0" class="graph" transform="scale(1 1) rotate(0) translate(4 215)">
<title>pbl_simple::simple_pbl</title>
<polygon fill="white" stroke="white" points="-4,5 -4,-215 429,-215 429,5 -4,5"/>
<!-- Node1 -->
<g id="node1" class="node"><title>Node1</title>
<polygon fill="#bfbfbf" stroke="black" points="0,-98.5 0,-117.5 116,-117.5 116,-98.5 0,-98.5"/>
<text text-anchor="middle" x="58" y="-105.5" font-family="Helvetica,sans-Serif" font-size="10.00">pbl_simple::simple_pbl</text>
</g>
<!-- Node2 -->
<g id="node2" class="node"><title>Node2</title>
<g id="a_node2"><a xlink:href="classpbl__simple.html#a6b1fe03ca9231f332047fd4ba5f35eee" target="_top" xlink:title="pbl_simple::calc_shear">
<polygon fill="white" stroke="black" points="163,-191.5 163,-210.5 279,-210.5 279,-191.5 163,-191.5"/>
<text text-anchor="middle" x="221" y="-198.5" font-family="Helvetica,sans-Serif" font-size="10.00">pbl_simple::calc_shear</text>
</a>
</g>
</g>
<!-- Node1&#45;&gt;Node2 -->
<g id="edge1" class="edge"><title>Node1&#45;&gt;Node2</title>
<path fill="none" stroke="midnightblue" d="M68.7032,-117.717C84.7087,-133.23 118.245,-163.608 152,-181 157.256,-183.708 162.934,-186.104 168.691,-188.21"/>
<polygon fill="midnightblue" stroke="midnightblue" points="167.799,-191.603 178.393,-191.483 170.037,-184.97 167.799,-191.603"/>
</g>
<!-- Node3 -->
<g id="node3" class="node"><title>Node3</title>
<g id="a_node3"><a xlink:href="classpbl__simple.html#ae135b8a6c073b2ccfe5e09b08186d119" target="_top" xlink:title="pbl_simple::calc_virt\l_pot_temp_zgradient">
<polygon fill="white" stroke="black" points="167.5,-142 167.5,-172 274.5,-172 274.5,-142 167.5,-142"/>
<text text-anchor="start" x="175.5" y="-160" font-family="Helvetica,sans-Serif" font-size="10.00">pbl_simple::calc_virt</text>
<text text-anchor="middle" x="221" y="-149" font-family="Helvetica,sans-Serif" font-size="10.00">_pot_temp_zgradient</text>
</a>
</g>
</g>
<!-- Node1&#45;&gt;Node3 -->
<g id="edge2" class="edge"><title>Node1&#45;&gt;Node3</title>
<path fill="none" stroke="midnightblue" d="M90.4246,-117.564C110.452,-123.659 137.032,-131.749 160.904,-139.014"/>
<polygon fill="midnightblue" stroke="midnightblue" points="160.007,-142.4 170.593,-141.963 162.045,-135.703 160.007,-142.4"/>
</g>
<!-- Node4 -->
<g id="node4" class="node"><title>Node4</title>
<g id="a_node4"><a xlink:href="classpbl__simple.html#a85584b50fb36fe526cb983be6285d043" target="_top" xlink:title="pbl_simple::calc_richardson\l_gradient">
<polygon fill="white" stroke="black" points="152.5,-93 152.5,-123 289.5,-123 289.5,-93 152.5,-93"/>
<text text-anchor="start" x="160.5" y="-111" font-family="Helvetica,sans-Serif" font-size="10.00">pbl_simple::calc_richardson</text>
<text text-anchor="middle" x="221" y="-100" font-family="Helvetica,sans-Serif" font-size="10.00">_gradient</text>
</a>
</g>
</g>
<!-- Node1&#45;&gt;Node4 -->
<g id="edge3" class="edge"><title>Node1&#45;&gt;Node4</title>
<path fill="none" stroke="midnightblue" d="M116.216,-108C124.596,-108 133.345,-108 142.053,-108"/>
<polygon fill="midnightblue" stroke="midnightblue" points="142.234,-111.5 152.234,-108 142.234,-104.5 142.234,-111.5"/>
</g>
<!-- Node5 -->
<g id="node5" class="node"><title>Node5</title>
<g id="a_node5"><a xlink:href="classpbl__simple.html#a8e7ecce7552960f3cf065d3f9df3185e" target="_top" xlink:title="pbl_simple::calc_pbl\l_stability_function">
<polygon fill="white" stroke="black" points="168.5,-44 168.5,-74 273.5,-74 273.5,-44 168.5,-44"/>
<text text-anchor="start" x="176.5" y="-62" font-family="Helvetica,sans-Serif" font-size="10.00">pbl_simple::calc_pbl</text>
<text text-anchor="middle" x="221" y="-51" font-family="Helvetica,sans-Serif" font-size="10.00">_stability_function</text>
</a>
</g>
</g>
<!-- Node1&#45;&gt;Node5 -->
<g id="edge4" class="edge"><title>Node1&#45;&gt;Node5</title>
<path fill="none" stroke="midnightblue" d="M90.4246,-98.436C110.452,-92.3408 137.032,-84.2512 160.904,-76.9857"/>
<polygon fill="midnightblue" stroke="midnightblue" points="162.045,-80.297 170.593,-74.037 160.007,-73.6003 162.045,-80.297"/>
</g>
<!-- Node6 -->
<g id="node6" class="node"><title>Node6</title>
<g id="a_node6"><a xlink:href="classpbl__simple.html#ac0ae6a1dedd3692028d78ebdc400ba41" target="_top" xlink:title="pbl_simple::pbl_diffusion">
<polygon fill="white" stroke="black" points="159,-5.5 159,-24.5 283,-24.5 283,-5.5 159,-5.5"/>
<text text-anchor="middle" x="221" y="-12.5" font-family="Helvetica,sans-Serif" font-size="10.00">pbl_simple::pbl_diffusion</text>
</a>
</g>
</g>
<!-- Node1&#45;&gt;Node6 -->
<g id="edge5" class="edge"><title>Node1&#45;&gt;Node6</title>
<path fill="none" stroke="midnightblue" d="M68.7032,-98.2827C84.7087,-82.7703 118.245,-52.3925 152,-35 157.256,-32.2919 162.934,-29.8959 168.691,-27.7902"/>
<polygon fill="midnightblue" stroke="midnightblue" points="170.037,-31.0299 178.393,-24.5165 167.799,-24.3973 170.037,-31.0299"/>
</g>
<!-- Node7 -->
<g id="node7" class="node"><title>Node7</title>
<g id="a_node7"><a xlink:href="classpbl__simple.html#a71af4ee570111d01415ca516d2b23c62" target="_top" xlink:title="pbl_simple::diffuse\l_variable">
<polygon fill="white" stroke="black" points="326,-0 326,-30 424,-30 424,-0 326,-0"/>
<text text-anchor="start" x="334" y="-18" font-family="Helvetica,sans-Serif" font-size="10.00">pbl_simple::diffuse</text>
<text text-anchor="middle" x="375" y="-7" font-family="Helvetica,sans-Serif" font-size="10.00">_variable</text>
</a>
</g>
</g>
<!-- Node6&#45;&gt;Node7 -->
<g id="edge6" class="edge"><title>Node6&#45;&gt;Node7</title>
<path fill="none" stroke="midnightblue" d="M283.386,-15C294.126,-15 305.27,-15 315.916,-15"/>
<polygon fill="midnightblue" stroke="midnightblue" points="315.942,-18.5001 325.942,-15 315.942,-11.5001 315.942,-18.5001"/>
</g>
</g>
</svg>
