<?xml version="1.0" encoding="UTF-8" standalone="no"?>
<!DOCTYPE svg PUBLIC "-//W3C//DTD SVG 1.1//EN"
 "http://www.w3.org/Graphics/SVG/1.1/DTD/svg11.dtd">
<!-- Generated by graphviz version 2.38.0 (20140413.2041)
 -->
<!-- Title: module_sf_noahlsm::snksrc Pages: 1 -->
<svg width="1189pt" height="88pt"
 viewBox="0.00 0.00 1189.00 88.00" xmlns="http://www.w3.org/2000/svg" xmlns:xlink="http://www.w3.org/1999/xlink">
<g id="graph0" class="graph" transform="scale(1 1) rotate(0) translate(4 84)">
<title>module_sf_noahlsm::snksrc</title>
<polygon fill="white" stroke="none" points="-4,4 -4,-84 1185,-84 1185,4 -4,4"/>
<!-- Node1 -->
<g id="node1" class="node"><title>Node1</title>
<polygon fill="#bfbfbf" stroke="black" points="0,-24.5 0,-54.5 110,-54.5 110,-24.5 0,-24.5"/>
<text text-anchor="start" x="8" y="-42.5" font-family="Helvetica,sans-Serif" font-size="10.00">module_sf_noahlsm::</text>
<text text-anchor="middle" x="55" y="-31.5" font-family="Helvetica,sans-Serif" font-size="10.00">snksrc</text>
</g>
<!-- Node2 -->
<g id="node2" class="node"><title>Node2</title>
<g id="a_node2"><a xlink:href="classmodule__sf__noahlsm.html#a3d4ab86e98738d55bb24f5f2256bc036" target="_top" xlink:title="module_sf_noahlsm::hrt">
<polygon fill="white" stroke="black" points="146,-30 146,-49 267,-49 267,-30 146,-30"/>
<text text-anchor="middle" x="206.5" y="-37" font-family="Helvetica,sans-Serif" font-size="10.00">module_sf_noahlsm::hrt</text>
</a>
</g>
</g>
<!-- Node1&#45;&gt;Node2 -->
<g id="edge1" class="edge"><title>Node1&#45;&gt;Node2</title>
<path fill="none" stroke="midnightblue" d="M120.533,-39.5C128.939,-39.5 137.52,-39.5 145.841,-39.5"/>
<polygon fill="midnightblue" stroke="midnightblue" points="120.396,-36.0001 110.396,-39.5 120.396,-43.0001 120.396,-36.0001"/>
</g>
<!-- Node3 -->
<g id="node3" class="node"><title>Node3</title>
<g id="a_node3"><a xlink:href="classmodule__sf__noahlsm.html#ac5c49267c44f18dfd5359b29fdfed38e" target="_top" xlink:title="module_sf_noahlsm::\lshflx">
<polygon fill="white" stroke="black" points="303,-24.5 303,-54.5 413,-54.5 413,-24.5 303,-24.5"/>
<text text-anchor="start" x="311" y="-42.5" font-family="Helvetica,sans-Serif" font-size="10.00">module_sf_noahlsm::</text>
<text text-anchor="middle" x="358" y="-31.5" font-family="Helvetica,sans-Serif" font-size="10.00">shflx</text>
</a>
</g>
</g>
<!-- Node2&#45;&gt;Node3 -->
<g id="edge2" class="edge"><title>Node2&#45;&gt;Node3</title>
<path fill="none" stroke="midnightblue" d="M277.286,-39.5C285.764,-39.5 294.328,-39.5 302.538,-39.5"/>
<polygon fill="midnightblue" stroke="midnightblue" points="277.016,-36.0001 267.016,-39.5 277.016,-43.0001 277.016,-36.0001"/>
</g>
<!-- Node4 -->
<g id="node4" class="node"><title>Node4</title>
<g id="a_node4"><a xlink:href="classmodule__sf__noahlsm.html#a6a17443ddbf15acdb25690cfbb3749a3" target="_top" xlink:title="module_sf_noahlsm::\lnopac">
<polygon fill="white" stroke="black" points="449,-49.5 449,-79.5 559,-79.5 559,-49.5 449,-49.5"/>
<text text-anchor="start" x="457" y="-67.5" font-family="Helvetica,sans-Serif" font-size="10.00">module_sf_noahlsm::</text>
<text text-anchor="middle" x="504" y="-56.5" font-family="Helvetica,sans-Serif" font-size="10.00">nopac</text>
</a>
</g>
</g>
<!-- Node3&#45;&gt;Node4 -->
<g id="edge3" class="edge"><title>Node3&#45;&gt;Node4</title>
<path fill="none" stroke="midnightblue" d="M422.991,-50.6095C431.561,-52.0974 440.284,-53.6119 448.667,-55.0672"/>
<polygon fill="midnightblue" stroke="midnightblue" points="423.481,-47.1424 413.03,-48.8802 422.284,-54.0392 423.481,-47.1424"/>
</g>
<!-- Node10 -->
<g id="node10" class="node"><title>Node10</title>
<g id="a_node10"><a xlink:href="classmodule__sf__noahlsm.html#a9d1e26133ed89bc5465a230d45d0625d" target="_top" xlink:title="module_sf_noahlsm::\lsnopac">
<polygon fill="white" stroke="black" points="449,-0.5 449,-30.5 559,-30.5 559,-0.5 449,-0.5"/>
<text text-anchor="start" x="457" y="-18.5" font-family="Helvetica,sans-Serif" font-size="10.00">module_sf_noahlsm::</text>
<text text-anchor="middle" x="504" y="-7.5" font-family="Helvetica,sans-Serif" font-size="10.00">snopac</text>
</a>
</g>
</g>
<!-- Node3&#45;&gt;Node10 -->
<g id="edge9" class="edge"><title>Node3&#45;&gt;Node10</title>
<path fill="none" stroke="midnightblue" d="M422.991,-28.8349C431.561,-27.4065 440.284,-25.9526 448.667,-24.5555"/>
<polygon fill="midnightblue" stroke="midnightblue" points="422.318,-25.3986 413.03,-30.495 423.469,-32.3033 422.318,-25.3986"/>
</g>
<!-- Node5 -->
<g id="node5" class="node"><title>Node5</title>
<g id="a_node5"><a xlink:href="classmodule__sf__noahlsm.html#a7cd9a2732205c21a5f59d679e0a1fddd" target="_top" xlink:title="module_sf_noahlsm::sflx">
<polygon fill="white" stroke="black" points="595,-30 595,-49 720,-49 720,-30 595,-30"/>
<text text-anchor="middle" x="657.5" y="-37" font-family="Helvetica,sans-Serif" font-size="10.00">module_sf_noahlsm::sflx</text>
</a>
</g>
</g>
<!-- Node4&#45;&gt;Node5 -->
<g id="edge4" class="edge"><title>Node4&#45;&gt;Node5</title>
<path fill="none" stroke="midnightblue" d="M569.333,-53.8839C579.11,-52.2706 589.147,-50.6144 598.771,-49.0262"/>
<polygon fill="midnightblue" stroke="midnightblue" points="568.564,-50.4635 559.267,-55.545 569.704,-57.3701 568.564,-50.4635"/>
</g>
<!-- Node6 -->
<g id="node6" class="node"><title>Node6</title>
<g id="a_node6"><a xlink:href="classmodule__sf__noahdrv.html#a329dccdd0c1fc2797bc8ebcc9bcc0ff6" target="_top" xlink:title="module_sf_noahdrv::\llsm_noah">
<polygon fill="white" stroke="black" points="756,-24.5 756,-54.5 863,-54.5 863,-24.5 756,-24.5"/>
<text text-anchor="start" x="764" y="-42.5" font-family="Helvetica,sans-Serif" font-size="10.00">module_sf_noahdrv::</text>
<text text-anchor="middle" x="809.5" y="-31.5" font-family="Helvetica,sans-Serif" font-size="10.00">lsm_noah</text>
</a>
</g>
</g>
<!-- Node5&#45;&gt;Node6 -->
<g id="edge5" class="edge"><title>Node5&#45;&gt;Node6</title>
<path fill="none" stroke="midnightblue" d="M730.397,-39.5C738.977,-39.5 747.611,-39.5 755.85,-39.5"/>
<polygon fill="midnightblue" stroke="midnightblue" points="730.377,-36.0001 720.377,-39.5 730.377,-43.0001 730.377,-36.0001"/>
</g>
<!-- Node7 -->
<g id="node7" class="node"><title>Node7</title>
<g id="a_node7"><a xlink:href="classland__surface.html#a5eda887fb43d0e56a673bbec669be5ad" target="_top" xlink:title="land_surface::lsm">
<polygon fill="white" stroke="black" points="899,-30 899,-49 993,-49 993,-30 899,-30"/>
<text text-anchor="middle" x="946" y="-37" font-family="Helvetica,sans-Serif" font-size="10.00">land_surface::lsm</text>
</a>
</g>
</g>
<!-- Node6&#45;&gt;Node7 -->
<g id="edge6" class="edge"><title>Node6&#45;&gt;Node7</title>
<path fill="none" stroke="midnightblue" d="M873.321,-39.5C881.948,-39.5 890.673,-39.5 898.924,-39.5"/>
<polygon fill="midnightblue" stroke="midnightblue" points="873.272,-36.0001 863.272,-39.5 873.272,-43.0001 873.272,-36.0001"/>
</g>
<!-- Node8 -->
<g id="node8" class="node"><title>Node8</title>
<g id="a_node8"><a xlink:href="classtime__step.html#a2c022f11247af72e607b1493289aa974" target="_top" xlink:title=" Step forward one IO time step. ">
<polygon fill="white" stroke="black" points="1029,-30 1029,-49 1113,-49 1113,-30 1029,-30"/>
<text text-anchor="middle" x="1071" y="-37" font-family="Helvetica,sans-Serif" font-size="10.00">time_step::step</text>
</a>
</g>
</g>
<!-- Node7&#45;&gt;Node8 -->
<g id="edge7" class="edge"><title>Node7&#45;&gt;Node8</title>
<path fill="none" stroke="midnightblue" d="M1003.19,-39.5C1011.83,-39.5 1020.62,-39.5 1028.85,-39.5"/>
<polygon fill="midnightblue" stroke="midnightblue" points="1003.15,-36.0001 993.151,-39.5 1003.15,-43.0001 1003.15,-36.0001"/>
</g>
<!-- Node9 -->
<g id="node9" class="node"><title>Node9</title>
<g id="a_node9"><a xlink:href="driver_8f90.html#ab1e5a5816a57fc6e95d9563c2bb53590" target="_top" xlink:title=" Main Program ">
<polygon fill="white" stroke="black" points="1149,-30 1149,-49 1181,-49 1181,-30 1149,-30"/>
<text text-anchor="middle" x="1165" y="-37" font-family="Helvetica,sans-Serif" font-size="10.00">icar</text>
</a>
</g>
</g>
<!-- Node8&#45;&gt;Node9 -->
<g id="edge8" class="edge"><title>Node8&#45;&gt;Node9</title>
<path fill="none" stroke="midnightblue" d="M1123.25,-39.5C1132.52,-39.5 1141.5,-39.5 1148.66,-39.5"/>
<polygon fill="midnightblue" stroke="midnightblue" points="1123.16,-36.0001 1113.16,-39.5 1123.16,-43.0001 1123.16,-36.0001"/>
</g>
<!-- Node10&#45;&gt;Node5 -->
<g id="edge10" class="edge"><title>Node10&#45;&gt;Node5</title>
<path fill="none" stroke="midnightblue" d="M569.307,-25.6872C578.307,-27.113 587.528,-28.5737 596.445,-29.9863"/>
<polygon fill="midnightblue" stroke="midnightblue" points="569.692,-22.2046 559.267,-24.0968 568.596,-29.1184 569.692,-22.2046"/>
</g>
</g>
</svg>
