<?xml version="1.0" encoding="UTF-8" standalone="no"?>
<!DOCTYPE svg PUBLIC "-//W3C//DTD SVG 1.1//EN"
 "http://www.w3.org/Graphics/SVG/1.1/DTD/svg11.dtd">
<!-- Generated by graphviz version 2.32.0 (20130809.1645)
 -->
<!-- Title: module_cu_kf::kfcps Pages: 1 -->
<svg width="1040pt" height="354pt"
 viewBox="0.00 0.00 1040.00 354.00" xmlns="http://www.w3.org/2000/svg" xmlns:xlink="http://www.w3.org/1999/xlink">
<g id="graph0" class="graph" transform="scale(1 1) rotate(0) translate(4 350)">
<title>module_cu_kf::kfcps</title>
<polygon fill="white" stroke="white" points="-4,5 -4,-350 1037,-350 1037,5 -4,5"/>
<!-- Node1 -->
<g id="node1" class="node"><title>Node1</title>
<polygon fill="#bfbfbf" stroke="black" points="0.5,-114.5 0.5,-133.5 107.5,-133.5 107.5,-114.5 0.5,-114.5"/>
<text text-anchor="middle" x="54" y="-121.5" font-family="Helvetica,sans-Serif" font-size="10.00">module_cu_kf::kfcps</text>
</g>
<!-- Node2 -->
<g id="node2" class="node"><title>Node2</title>
<g id="a_node2"><a xlink:href="classmodule__cu__kf.html#afbc0670c02010c630409b1796e89a3fb" target="_top" xlink:title="module_cu_kf::kfpara">
<polygon fill="white" stroke="black" points="144,-114.5 144,-133.5 254,-133.5 254,-114.5 144,-114.5"/>
<text text-anchor="middle" x="199" y="-121.5" font-family="Helvetica,sans-Serif" font-size="10.00">module_cu_kf::kfpara</text>
</a>
</g>
</g>
<!-- Node1&#45;&gt;Node2 -->
<g id="edge1" class="edge"><title>Node1&#45;&gt;Node2</title>
<path fill="none" stroke="midnightblue" d="M107.842,-124C116.305,-124 125.143,-124 133.835,-124"/>
<polygon fill="midnightblue" stroke="midnightblue" points="133.941,-127.5 143.941,-124 133.941,-120.5 133.941,-127.5"/>
</g>
<!-- Node3 -->
<g id="node3" class="node"><title>Node3</title>
<g id="a_node3"><a xlink:href="classradiation.html#aba1a06d27af96fe11d576458c8ccfe77" target="_top" xlink:title="radiation::rad">
<polygon fill="white" stroke="black" points="314.5,-228.5 314.5,-247.5 387.5,-247.5 387.5,-228.5 314.5,-228.5"/>
<text text-anchor="middle" x="351" y="-235.5" font-family="Helvetica,sans-Serif" font-size="10.00">radiation::rad</text>
</a>
</g>
</g>
<!-- Node2&#45;&gt;Node3 -->
<g id="edge2" class="edge"><title>Node2&#45;&gt;Node3</title>
<path fill="none" stroke="midnightblue" d="M206.499,-133.606C219.888,-152.673 252.454,-195.484 290,-219 294.63,-221.9 299.74,-224.392 304.967,-226.525"/>
<polygon fill="midnightblue" stroke="midnightblue" points="303.827,-229.834 314.42,-229.986 306.233,-223.261 303.827,-229.834"/>
</g>
<!-- Node13 -->
<g id="node13" class="node"><title>Node13</title>
<g id="a_node13"><a xlink:href="classmodule__cu__kf.html#a14ba09c3fd0b8b15dda4ad48569cdf66" target="_top" xlink:title="module_cu_kf::tpmix">
<polygon fill="white" stroke="black" points="297.5,-190.5 297.5,-209.5 404.5,-209.5 404.5,-190.5 297.5,-190.5"/>
<text text-anchor="middle" x="351" y="-197.5" font-family="Helvetica,sans-Serif" font-size="10.00">module_cu_kf::tpmix</text>
</a>
</g>
</g>
<!-- Node2&#45;&gt;Node13 -->
<g id="edge12" class="edge"><title>Node2&#45;&gt;Node13</title>
<path fill="none" stroke="midnightblue" d="M212.806,-133.618C229.731,-145.968 260.824,-167.42 290,-181 294.708,-183.192 299.737,-185.224 304.804,-187.082"/>
<polygon fill="midnightblue" stroke="midnightblue" points="303.928,-190.482 314.523,-190.433 306.21,-183.864 303.928,-190.482"/>
</g>
<!-- Node14 -->
<g id="node14" class="node"><title>Node14</title>
<g id="a_node14"><a xlink:href="classmodule__cu__kf.html#af2327f26de87db52430520eba8535bbb" target="_top" xlink:title="module_cu_kf::condload">
<polygon fill="white" stroke="black" points="290,-152.5 290,-171.5 412,-171.5 412,-152.5 290,-152.5"/>
<text text-anchor="middle" x="351" y="-159.5" font-family="Helvetica,sans-Serif" font-size="10.00">module_cu_kf::condload</text>
</a>
</g>
</g>
<!-- Node2&#45;&gt;Node14 -->
<g id="edge13" class="edge"><title>Node2&#45;&gt;Node14</title>
<path fill="none" stroke="midnightblue" d="M237.851,-133.589C257.467,-138.558 281.619,-144.677 302.479,-149.961"/>
<polygon fill="midnightblue" stroke="midnightblue" points="301.868,-153.417 312.421,-152.48 303.587,-146.631 301.868,-153.417"/>
</g>
<!-- Node15 -->
<g id="node15" class="node"><title>Node15</title>
<g id="a_node15"><a xlink:href="classmodule__cu__kf.html#ab12ebce72807d1f9ae2e754c0119e881" target="_top" xlink:title="module_cu_kf::dtfrznew">
<polygon fill="white" stroke="black" points="290.5,-114.5 290.5,-133.5 411.5,-133.5 411.5,-114.5 290.5,-114.5"/>
<text text-anchor="middle" x="351" y="-121.5" font-family="Helvetica,sans-Serif" font-size="10.00">module_cu_kf::dtfrznew</text>
</a>
</g>
</g>
<!-- Node2&#45;&gt;Node15 -->
<g id="edge14" class="edge"><title>Node2&#45;&gt;Node15</title>
<path fill="none" stroke="midnightblue" d="M254.153,-124C262.598,-124 271.425,-124 280.158,-124"/>
<polygon fill="midnightblue" stroke="midnightblue" points="280.339,-127.5 290.339,-124 280.339,-120.5 280.339,-127.5"/>
</g>
<!-- Node16 -->
<g id="node16" class="node"><title>Node16</title>
<g id="a_node16"><a xlink:href="classmodule__cu__kf.html#a4d1c66ccc19c619ff0c10b45a4ce2f68" target="_top" xlink:title="module_cu_kf::envirtht">
<polygon fill="white" stroke="black" points="293,-76.5 293,-95.5 409,-95.5 409,-76.5 293,-76.5"/>
<text text-anchor="middle" x="351" y="-83.5" font-family="Helvetica,sans-Serif" font-size="10.00">module_cu_kf::envirtht</text>
</a>
</g>
</g>
<!-- Node2&#45;&gt;Node16 -->
<g id="edge15" class="edge"><title>Node2&#45;&gt;Node16</title>
<path fill="none" stroke="midnightblue" d="M237.851,-114.411C257.467,-109.442 281.619,-103.323 302.479,-98.0387"/>
<polygon fill="midnightblue" stroke="midnightblue" points="303.587,-101.369 312.421,-95.5201 301.868,-94.5831 303.587,-101.369"/>
</g>
<!-- Node17 -->
<g id="node17" class="node"><title>Node17</title>
<g id="a_node17"><a xlink:href="classmodule__cu__kf.html#a64f684eda86f23948eb433686ce76baa" target="_top" xlink:title="module_cu_kf::prof5">
<polygon fill="white" stroke="black" points="298.5,-38.5 298.5,-57.5 403.5,-57.5 403.5,-38.5 298.5,-38.5"/>
<text text-anchor="middle" x="351" y="-45.5" font-family="Helvetica,sans-Serif" font-size="10.00">module_cu_kf::prof5</text>
</a>
</g>
</g>
<!-- Node2&#45;&gt;Node17 -->
<g id="edge16" class="edge"><title>Node2&#45;&gt;Node17</title>
<path fill="none" stroke="midnightblue" d="M212.806,-114.382C229.731,-102.032 260.824,-80.5798 290,-67 294.708,-64.8085 299.737,-62.7758 304.804,-60.9184"/>
<polygon fill="midnightblue" stroke="midnightblue" points="306.21,-64.136 314.523,-57.5672 303.928,-57.5184 306.21,-64.136"/>
</g>
<!-- Node18 -->
<g id="node18" class="node"><title>Node18</title>
<g id="a_node18"><a xlink:href="classmodule__cu__kf.html#a140e3e31016a2be359bc0f8ac9c800d3" target="_top" xlink:title="module_cu_kf::tpdd">
<polygon fill="white" stroke="black" points="300,-0.5 300,-19.5 402,-19.5 402,-0.5 300,-0.5"/>
<text text-anchor="middle" x="351" y="-7.5" font-family="Helvetica,sans-Serif" font-size="10.00">module_cu_kf::tpdd</text>
</a>
</g>
</g>
<!-- Node2&#45;&gt;Node18 -->
<g id="edge17" class="edge"><title>Node2&#45;&gt;Node18</title>
<path fill="none" stroke="midnightblue" d="M206.499,-114.394C219.888,-95.3272 252.454,-52.5158 290,-29 293.342,-26.9066 296.935,-25.0259 300.641,-23.3394"/>
<polygon fill="midnightblue" stroke="midnightblue" points="302.058,-26.5413 310.008,-19.5369 299.425,-20.0554 302.058,-26.5413"/>
</g>
<!-- Node4 -->
<g id="node4" class="node"><title>Node4</title>
<g id="a_node4"><a xlink:href="classmodule__ra__simple.html#ad1c74605b2817f833d31e806f791e246" target="_top" xlink:title="module_ra_simple::ra\l_simple">
<polygon fill="white" stroke="black" points="448,-223 448,-253 558,-253 558,-223 448,-223"/>
<text text-anchor="start" x="456" y="-241" font-family="Helvetica,sans-Serif" font-size="10.00">module_ra_simple::ra</text>
<text text-anchor="middle" x="503" y="-230" font-family="Helvetica,sans-Serif" font-size="10.00">_simple</text>
</a>
</g>
</g>
<!-- Node3&#45;&gt;Node4 -->
<g id="edge3" class="edge"><title>Node3&#45;&gt;Node4</title>
<path fill="none" stroke="midnightblue" d="M387.548,-238C402.612,-238 420.643,-238 437.89,-238"/>
<polygon fill="midnightblue" stroke="midnightblue" points="437.926,-241.5 447.926,-238 437.926,-234.5 437.926,-241.5"/>
</g>
<!-- Node5 -->
<g id="node5" class="node"><title>Node5</title>
<g id="a_node5"><a xlink:href="classmodule__ra__simple.html#a383e37e85086ad3fd8f2da8601d997d0" target="_top" xlink:title="module_ra_simple::relative\l_humidity">
<polygon fill="white" stroke="black" points="600.5,-316 600.5,-346 733.5,-346 733.5,-316 600.5,-316"/>
<text text-anchor="start" x="608.5" y="-334" font-family="Helvetica,sans-Serif" font-size="10.00">module_ra_simple::relative</text>
<text text-anchor="middle" x="667" y="-323" font-family="Helvetica,sans-Serif" font-size="10.00">_humidity</text>
</a>
</g>
</g>
<!-- Node4&#45;&gt;Node5 -->
<g id="edge4" class="edge"><title>Node4&#45;&gt;Node5</title>
<path fill="none" stroke="midnightblue" d="M520.494,-253.005C537.763,-268.079 566.19,-291.144 594,-306 597.981,-308.127 602.179,-310.13 606.466,-312.006"/>
<polygon fill="midnightblue" stroke="midnightblue" points="605.364,-315.337 615.943,-315.906 608.028,-308.864 605.364,-315.337"/>
</g>
<!-- Node6 -->
<g id="node6" class="node"><title>Node6</title>
<g id="a_node6"><a xlink:href="classmodule__ra__simple.html#a4529da23ec7082aeafd82ffcad0e6e43" target="_top" xlink:title="module_ra_simple::calc\l_solar_elevation">
<polygon fill="white" stroke="black" points="607.5,-267 607.5,-297 726.5,-297 726.5,-267 607.5,-267"/>
<text text-anchor="start" x="615.5" y="-285" font-family="Helvetica,sans-Serif" font-size="10.00">module_ra_simple::calc</text>
<text text-anchor="middle" x="667" y="-274" font-family="Helvetica,sans-Serif" font-size="10.00">_solar_elevation</text>
</a>
</g>
</g>
<!-- Node4&#45;&gt;Node6 -->
<g id="edge5" class="edge"><title>Node4&#45;&gt;Node6</title>
<path fill="none" stroke="midnightblue" d="M558.394,-252.774C572.062,-256.486 586.866,-260.507 600.994,-264.344"/>
<polygon fill="midnightblue" stroke="midnightblue" points="600.077,-267.722 610.644,-266.965 601.911,-260.966 600.077,-267.722"/>
</g>
<!-- Node10 -->
<g id="node10" class="node"><title>Node10</title>
<g id="a_node10"><a xlink:href="classmodule__ra__simple.html#af96b45b6aa6ee7f751648e8edb2eff97" target="_top" xlink:title="module_ra_simple::cloudfrac">
<polygon fill="white" stroke="black" points="596.5,-228.5 596.5,-247.5 737.5,-247.5 737.5,-228.5 596.5,-228.5"/>
<text text-anchor="middle" x="667" y="-235.5" font-family="Helvetica,sans-Serif" font-size="10.00">module_ra_simple::cloudfrac</text>
</a>
</g>
</g>
<!-- Node4&#45;&gt;Node10 -->
<g id="edge9" class="edge"><title>Node4&#45;&gt;Node10</title>
<path fill="none" stroke="midnightblue" d="M558.394,-238C567.305,-238 576.698,-238 586.073,-238"/>
<polygon fill="midnightblue" stroke="midnightblue" points="586.214,-241.5 596.214,-238 586.214,-234.5 586.214,-241.5"/>
</g>
<!-- Node11 -->
<g id="node11" class="node"><title>Node11</title>
<g id="a_node11"><a xlink:href="classmodule__ra__simple.html#a9fdfe8ded9ed1a2131513bf2d17db5e6" target="_top" xlink:title="module_ra_simple::shortwave">
<polygon fill="white" stroke="black" points="594,-190.5 594,-209.5 740,-209.5 740,-190.5 594,-190.5"/>
<text text-anchor="middle" x="667" y="-197.5" font-family="Helvetica,sans-Serif" font-size="10.00">module_ra_simple::shortwave</text>
</a>
</g>
</g>
<!-- Node4&#45;&gt;Node11 -->
<g id="edge10" class="edge"><title>Node4&#45;&gt;Node11</title>
<path fill="none" stroke="midnightblue" d="M558.394,-225.241C576.853,-220.911 597.385,-216.095 615.525,-211.84"/>
<polygon fill="midnightblue" stroke="midnightblue" points="616.392,-215.232 625.328,-209.54 614.793,-208.417 616.392,-215.232"/>
</g>
<!-- Node12 -->
<g id="node12" class="node"><title>Node12</title>
<g id="a_node12"><a xlink:href="classmodule__ra__simple.html#ac17356062eed2cca6633da58b0899d09" target="_top" xlink:title="module_ra_simple::longwave">
<polygon fill="white" stroke="black" points="595.5,-152.5 595.5,-171.5 738.5,-171.5 738.5,-152.5 595.5,-152.5"/>
<text text-anchor="middle" x="667" y="-159.5" font-family="Helvetica,sans-Serif" font-size="10.00">module_ra_simple::longwave</text>
</a>
</g>
</g>
<!-- Node4&#45;&gt;Node12 -->
<g id="edge11" class="edge"><title>Node4&#45;&gt;Node12</title>
<path fill="none" stroke="midnightblue" d="M523.734,-222.986C541.335,-210.227 568.232,-192.239 594,-181 599.466,-178.616 605.299,-176.474 611.191,-174.565"/>
<polygon fill="midnightblue" stroke="midnightblue" points="612.545,-177.812 621.105,-171.569 610.52,-171.111 612.545,-177.812"/>
</g>
<!-- Node7 -->
<g id="node7" class="node"><title>Node7</title>
<g id="a_node7"><a xlink:href="classtime.html#adfcbe10943e169e25a9ee15ddb3ce70b" target="_top" xlink:title="time::calc_day_of_year">
<polygon fill="white" stroke="black" points="776,-272.5 776,-291.5 894,-291.5 894,-272.5 776,-272.5"/>
<text text-anchor="middle" x="835" y="-279.5" font-family="Helvetica,sans-Serif" font-size="10.00">time::calc_day_of_year</text>
</a>
</g>
</g>
<!-- Node6&#45;&gt;Node7 -->
<g id="edge6" class="edge"><title>Node6&#45;&gt;Node7</title>
<path fill="none" stroke="midnightblue" d="M726.525,-282C739.12,-282 752.541,-282 765.478,-282"/>
<polygon fill="midnightblue" stroke="midnightblue" points="765.724,-285.5 775.724,-282 765.723,-278.5 765.724,-285.5"/>
</g>
<!-- Node8 -->
<g id="node8" class="node"><title>Node8</title>
<g id="a_node8"><a xlink:href="classtime.html#a8736f37f83c6d8f62957c70df2239693" target="_top" xlink:title="time::calendar_date">
<polygon fill="white" stroke="black" points="930,-291.5 930,-310.5 1032,-310.5 1032,-291.5 930,-291.5"/>
<text text-anchor="middle" x="981" y="-298.5" font-family="Helvetica,sans-Serif" font-size="10.00">time::calendar_date</text>
</a>
</g>
</g>
<!-- Node7&#45;&gt;Node8 -->
<g id="edge7" class="edge"><title>Node7&#45;&gt;Node8</title>
<path fill="none" stroke="midnightblue" d="M894.155,-289.673C902.683,-290.798 911.48,-291.959 920.043,-293.089"/>
<polygon fill="midnightblue" stroke="midnightblue" points="919.586,-296.559 929.958,-294.397 920.502,-289.619 919.586,-296.559"/>
</g>
<!-- Node9 -->
<g id="node9" class="node"><title>Node9</title>
<g id="a_node9"><a xlink:href="classtime.html#a22e63418fe5d559327ca090619d097e0" target="_top" xlink:title="time::date_to_mjd">
<polygon fill="white" stroke="black" points="933.5,-253.5 933.5,-272.5 1028.5,-272.5 1028.5,-253.5 933.5,-253.5"/>
<text text-anchor="middle" x="981" y="-260.5" font-family="Helvetica,sans-Serif" font-size="10.00">time::date_to_mjd</text>
</a>
</g>
</g>
<!-- Node7&#45;&gt;Node9 -->
<g id="edge8" class="edge"><title>Node7&#45;&gt;Node9</title>
<path fill="none" stroke="midnightblue" d="M894.155,-274.327C903.671,-273.071 913.522,-271.771 923.009,-270.52"/>
<polygon fill="midnightblue" stroke="midnightblue" points="923.671,-273.963 933.128,-269.185 922.756,-267.023 923.671,-273.963"/>
</g>
</g>
</svg>
