<?xml version="1.0" encoding="UTF-8" standalone="no"?>
<!DOCTYPE svg PUBLIC "-//W3C//DTD SVG 1.1//EN"
 "http://www.w3.org/Graphics/SVG/1.1/DTD/svg11.dtd">
<!-- Generated by graphviz version 2.38.0 (20140413.2041)
 -->
<!-- Title: output::tip_precip_to_buckets Pages: 1 -->
<svg width="453pt" height="116pt"
 viewBox="0.00 0.00 453.00 115.50" xmlns="http://www.w3.org/2000/svg" xmlns:xlink="http://www.w3.org/1999/xlink">
<g id="graph0" class="graph" transform="scale(1 1) rotate(0) translate(4 111.5)">
<title>output::tip_precip_to_buckets</title>
<polygon fill="white" stroke="none" points="-4,4 -4,-111.5 449,-111.5 449,4 -4,4"/>
<!-- Node1 -->
<g id="node1" class="node"><title>Node1</title>
<polygon fill="#bfbfbf" stroke="black" points="0,-33 0,-63 92,-63 92,-33 0,-33"/>
<text text-anchor="start" x="8" y="-51" font-family="Helvetica,sans-Serif" font-size="10.00">output::tip_precip</text>
<text text-anchor="middle" x="46" y="-40" font-family="Helvetica,sans-Serif" font-size="10.00">_to_buckets</text>
</g>
<!-- Node2 -->
<g id="node2" class="node"><title>Node2</title>
<g id="a_node2"><a xlink:href="classoutput.html#a96fb2c72004c645360fa3e6f2b551b50" target="_top" xlink:title=" Simple routine to write all domain data from this current time step to the output file...">
<polygon fill="white" stroke="black" points="128,-38.5 128,-57.5 235,-57.5 235,-38.5 128,-38.5"/>
<text text-anchor="middle" x="181.5" y="-45.5" font-family="Helvetica,sans-Serif" font-size="10.00">output::write_domain</text>
</a>
</g>
</g>
<!-- Node1&#45;&gt;Node2 -->
<g id="edge1" class="edge"><title>Node1&#45;&gt;Node2</title>
<path fill="none" stroke="midnightblue" d="M102.369,-48C110.842,-48 119.567,-48 127.977,-48"/>
<polygon fill="midnightblue" stroke="midnightblue" points="102.197,-44.5001 92.197,-48 102.197,-51.5001 102.197,-44.5001"/>
</g>
<!-- Node3 -->
<g id="node3" class="node"><title>Node3</title>
<g id="a_node3"><a xlink:href="classboundary__conditions.html#a07a42f467f470ada98e0a35fd5a75f66" target="_top" xlink:title=" Initialize the boundary conditions (read inital conditions, etc.) ">
<polygon fill="white" stroke="black" points="271,-77 271,-107 377,-107 377,-77 271,-77"/>
<text text-anchor="start" x="279" y="-95" font-family="Helvetica,sans-Serif" font-size="10.00">boundary_conditions</text>
<text text-anchor="middle" x="324" y="-84" font-family="Helvetica,sans-Serif" font-size="10.00">::bc_init</text>
</a>
</g>
</g>
<!-- Node2&#45;&gt;Node3 -->
<g id="edge2" class="edge"><title>Node2&#45;&gt;Node3</title>
<path fill="none" stroke="midnightblue" d="M222.732,-60.5992C238.997,-65.6931 257.907,-71.6151 274.894,-76.9346"/>
<polygon fill="midnightblue" stroke="midnightblue" points="223.575,-57.1959 212.986,-57.5473 221.483,-63.876 223.575,-57.1959"/>
</g>
<!-- Node4 -->
<g id="node4" class="node"><title>Node4</title>
<g id="a_node4"><a xlink:href="driver_8f90.html#ab1e5a5816a57fc6e95d9563c2bb53590" target="_top" xlink:title=" Main Program ">
<polygon fill="white" stroke="black" points="413,-38.5 413,-57.5 445,-57.5 445,-38.5 413,-38.5"/>
<text text-anchor="middle" x="429" y="-45.5" font-family="Helvetica,sans-Serif" font-size="10.00">icar</text>
</a>
</g>
</g>
<!-- Node2&#45;&gt;Node4 -->
<g id="edge4" class="edge"><title>Node2&#45;&gt;Node4</title>
<path fill="none" stroke="midnightblue" d="M245.414,-48C301.771,-48 380.406,-48 412.965,-48"/>
<polygon fill="midnightblue" stroke="midnightblue" points="245.166,-44.5001 235.166,-48 245.166,-51.5001 245.166,-44.5001"/>
</g>
<!-- Node5 -->
<g id="node5" class="node"><title>Node5</title>
<g id="a_node5"><a xlink:href="classtime__step.html#a2c022f11247af72e607b1493289aa974" target="_top" xlink:title=" Step forward one IO time step. ">
<polygon fill="white" stroke="black" points="282,-0.5 282,-19.5 366,-19.5 366,-0.5 282,-0.5"/>
<text text-anchor="middle" x="324" y="-7.5" font-family="Helvetica,sans-Serif" font-size="10.00">time_step::step</text>
</a>
</g>
</g>
<!-- Node2&#45;&gt;Node5 -->
<g id="edge5" class="edge"><title>Node2&#45;&gt;Node5</title>
<path fill="none" stroke="midnightblue" d="M227.779,-35.7538C247.145,-30.516 269.422,-24.4909 287.557,-19.5859"/>
<polygon fill="midnightblue" stroke="midnightblue" points="226.693,-32.4215 217.954,-38.411 228.521,-39.1787 226.693,-32.4215"/>
</g>
<!-- Node3&#45;&gt;Node4 -->
<g id="edge3" class="edge"><title>Node3&#45;&gt;Node4</title>
<path fill="none" stroke="midnightblue" d="M369.625,-72.937C385.084,-66.3328 401.386,-59.3692 412.821,-54.4842"/>
<polygon fill="midnightblue" stroke="midnightblue" points="367.98,-69.8337 360.159,-76.9808 370.73,-76.2709 367.98,-69.8337"/>
</g>
<!-- Node5&#45;&gt;Node4 -->
<g id="edge6" class="edge"><title>Node5&#45;&gt;Node4</title>
<path fill="none" stroke="midnightblue" d="M360.572,-23.1236C378.456,-29.7216 399.183,-37.3684 412.885,-42.4236"/>
<polygon fill="midnightblue" stroke="midnightblue" points="361.585,-19.7667 350.991,-19.589 359.162,-26.334 361.585,-19.7667"/>
</g>
</g>
</svg>
