<?xml version="1.0" encoding="UTF-8" standalone="no"?>
<!DOCTYPE svg PUBLIC "-//W3C//DTD SVG 1.1//EN"
 "http://www.w3.org/Graphics/SVG/1.1/DTD/svg11.dtd">
<!-- Generated by graphviz version 2.32.0 (20130809.1645)
 -->
<!-- Title: module_sf_noahdrv::lsm_noah Pages: 1 -->
<!--zoomable 620 -->
<svg id="main" version="1.1" xmlns="http://www.w3.org/2000/svg" xmlns:xlink="http://www.w3.org/1999/xlink" xml:space="preserve" onload="init(evt)">
<style type="text/css"><![CDATA[
.edge:hover path { stroke: red; }
.edge:hover polygon { stroke: red; fill: red; }
]]></style>
<script type="text/javascript"><![CDATA[
var edges = document.getElementsByTagName('g');
if (edges && edges.length) {
  for (var i=0;i<edges.length;i++) {
    if (edges[i].id.substr(0,4)=='edge') {
      edges[i].setAttribute('class','edge');
    }
  }
}
]]></script>
        <defs>
                <circle id="rim" cx="0" cy="0" r="7"/>
                <circle id="rim2" cx="0" cy="0" r="3.5"/>
                <g id="zoomPlus">
                        <use xlink:href="#rim" fill="#404040">
                                <set attributeName="fill" to="#808080" begin="zoomplus.mouseover" end="zoomplus.mouseout"/>
                        </use>
                        <path d="M-4,0h8M0,-4v8" fill="none" stroke="white" stroke-width="1.5" pointer-events="none"/>
                </g>
                <g id="zoomMin">
                        <use xlink:href="#rim" fill="#404040">
                                <set attributeName="fill" to="#808080" begin="zoomminus.mouseover" end="zoomminus.mouseout"/>
                        </use>
                        <path d="M-4,0h8" fill="none" stroke="white" stroke-width="1.5" pointer-events="none"/>
                </g>
                <g id="dirArrow">
                        <path fill="none" stroke="white" stroke-width="1.5" d="M0,-3.0v7 M-2.5,-0.5L0,-3.0L2.5,-0.5"/>
                </g>
               <g id="resetDef">
                       <use xlink:href="#rim2" fill="#404040">
                               <set attributeName="fill" to="#808080" begin="reset.mouseover" end="reset.mouseout"/>
                       </use>
               </g>
        </defs>

<script type="text/javascript">
var viewWidth = 1038;
var viewHeight = 620;
var sectionId = 'dynsection-0';
</script>
<script xlink:href="svgpan.js"/>
<svg id="graph" class="graph">
<g id="viewport">
<title>module_sf_noahdrv::lsm_noah</title>
<polygon fill="white" stroke="white" points="-4,5 -4,-616 1035,-616 1035,5 -4,5"/>
<!-- Node1 -->
<g id="node1" class="node"><title>Node1</title>
<polygon fill="#bfbfbf" stroke="black" points="0.5,-342 0.5,-372 107.5,-372 107.5,-342 0.5,-342"/>
<text text-anchor="start" x="8.5" y="-360" font-family="Helvetica,sans-Serif" font-size="10.00">module_sf_noahdrv::</text>
<text text-anchor="middle" x="54" y="-349" font-family="Helvetica,sans-Serif" font-size="10.00">lsm_noah</text>
</g>
<!-- Node2 -->
<g id="node2" class="node"><title>Node2</title>
<g id="a_node2"><a xlink:href="classmodule__sf__noahlsm.html#a7cd9a2732205c21a5f59d679e0a1fddd" target="_top" xlink:title="module_sf_noahlsm::sflx">
<polygon fill="white" stroke="black" points="144.5,-347.5 144.5,-366.5 269.5,-366.5 269.5,-347.5 144.5,-347.5"/>
<text text-anchor="middle" x="207" y="-354.5" font-family="Helvetica,sans-Serif" font-size="10.00">module_sf_noahlsm::sflx</text>
</a>
</g>
</g>
<!-- Node1&#45;&gt;Node2 -->
<g id="edge1" class="edge"><title>Node1&#45;&gt;Node2</title>
<path fill="none" stroke="midnightblue" d="M107.812,-357C116.402,-357 125.422,-357 134.371,-357"/>
<polygon fill="midnightblue" stroke="midnightblue" points="134.416,-360.5 144.416,-357 134.416,-353.5 134.416,-360.5"/>
</g>
<!-- Node3 -->
<g id="node3" class="node"><title>Node3</title>
<g id="a_node3"><a xlink:href="classmodule__sf__noahlsm.html#a035da859804652a83bc5fd235e70b2e0" target="_top" xlink:title="module_sf_noahlsm::\lredprm">
<polygon fill="white" stroke="black" points="306,-582 306,-612 416,-612 416,-582 306,-582"/>
<text text-anchor="start" x="314" y="-600" font-family="Helvetica,sans-Serif" font-size="10.00">module_sf_noahlsm::</text>
<text text-anchor="middle" x="361" y="-589" font-family="Helvetica,sans-Serif" font-size="10.00">redprm</text>
</a>
</g>
</g>
<!-- Node2&#45;&gt;Node3 -->
<g id="edge2" class="edge"><title>Node2&#45;&gt;Node3</title>
<path fill="none" stroke="midnightblue" d="M209.855,-366.504C216.711,-399.302 243.532,-509.162 306,-572 307.42,-573.429 308.938,-574.785 310.529,-576.071"/>
<polygon fill="midnightblue" stroke="midnightblue" points="308.78,-579.118 318.994,-581.933 312.765,-573.363 308.78,-579.118"/>
</g>
<!-- Node4 -->
<g id="node4" class="node"><title>Node4</title>
<g id="a_node4"><a xlink:href="classmodule__sf__noahlsm.html#abb6e84ee87a6fdb3281c33e8e8457a04" target="_top" xlink:title="module_sf_noahlsm::\lcsnow">
<polygon fill="white" stroke="black" points="306,-533 306,-563 416,-563 416,-533 306,-533"/>
<text text-anchor="start" x="314" y="-551" font-family="Helvetica,sans-Serif" font-size="10.00">module_sf_noahlsm::</text>
<text text-anchor="middle" x="361" y="-540" font-family="Helvetica,sans-Serif" font-size="10.00">csnow</text>
</a>
</g>
</g>
<!-- Node2&#45;&gt;Node4 -->
<g id="edge3" class="edge"><title>Node2&#45;&gt;Node4</title>
<path fill="none" stroke="midnightblue" d="M211.308,-366.585C221.327,-394.349 253.889,-475.843 306,-523 307.68,-524.521 309.469,-525.964 311.336,-527.333"/>
<polygon fill="midnightblue" stroke="midnightblue" points="309.618,-530.389 319.921,-532.86 313.407,-524.504 309.618,-530.389"/>
</g>
<!-- Node5 -->
<g id="node5" class="node"><title>Node5</title>
<g id="a_node5"><a xlink:href="classmodule__sf__noahlsm.html#ab7e465439f409557715a28bea71551c1" target="_top" xlink:title="module_sf_noahlsm::\lsnow_new">
<polygon fill="white" stroke="black" points="306,-484 306,-514 416,-514 416,-484 306,-484"/>
<text text-anchor="start" x="314" y="-502" font-family="Helvetica,sans-Serif" font-size="10.00">module_sf_noahlsm::</text>
<text text-anchor="middle" x="361" y="-491" font-family="Helvetica,sans-Serif" font-size="10.00">snow_new</text>
</a>
</g>
</g>
<!-- Node2&#45;&gt;Node5 -->
<g id="edge4" class="edge"><title>Node2&#45;&gt;Node5</title>
<path fill="none" stroke="midnightblue" d="M213.977,-366.721C227.779,-388.492 263.927,-441.779 306,-474 308.268,-475.737 310.677,-477.391 313.169,-478.959"/>
<polygon fill="midnightblue" stroke="midnightblue" points="311.464,-482.016 321.88,-483.956 314.947,-475.944 311.464,-482.016"/>
</g>
<!-- Node6 -->
<g id="node6" class="node"><title>Node6</title>
<g id="a_node6"><a xlink:href="classmodule__sf__noahlsm.html#ae7ad09a03325fa6a08429faa078bb8f2" target="_top" xlink:title="module_sf_noahlsm::\lsnfrac">
<polygon fill="white" stroke="black" points="306,-435 306,-465 416,-465 416,-435 306,-435"/>
<text text-anchor="start" x="314" y="-453" font-family="Helvetica,sans-Serif" font-size="10.00">module_sf_noahlsm::</text>
<text text-anchor="middle" x="361" y="-442" font-family="Helvetica,sans-Serif" font-size="10.00">snfrac</text>
</a>
</g>
</g>
<!-- Node2&#45;&gt;Node6 -->
<g id="edge5" class="edge"><title>Node2&#45;&gt;Node6</title>
<path fill="none" stroke="midnightblue" d="M220.231,-366.523C238.345,-380.383 273.653,-406.476 306,-425 309.191,-426.827 312.538,-428.63 315.937,-430.379"/>
<polygon fill="midnightblue" stroke="midnightblue" points="314.468,-433.557 324.982,-434.866 317.579,-427.286 314.468,-433.557"/>
</g>
<!-- Node7 -->
<g id="node7" class="node"><title>Node7</title>
<g id="a_node7"><a xlink:href="classmodule__sf__noahlsm.html#a7a78bcce992262a6c96711208974f7f1" target="_top" xlink:title="module_sf_noahlsm::\lalcalc">
<polygon fill="white" stroke="black" points="306,-386 306,-416 416,-416 416,-386 306,-386"/>
<text text-anchor="start" x="314" y="-404" font-family="Helvetica,sans-Serif" font-size="10.00">module_sf_noahlsm::</text>
<text text-anchor="middle" x="361" y="-393" font-family="Helvetica,sans-Serif" font-size="10.00">alcalc</text>
</a>
</g>
</g>
<!-- Node2&#45;&gt;Node7 -->
<g id="edge6" class="edge"><title>Node2&#45;&gt;Node7</title>
<path fill="none" stroke="midnightblue" d="M240.982,-366.547C257.713,-371.391 278.592,-377.435 298.17,-383.102"/>
<polygon fill="midnightblue" stroke="midnightblue" points="297.377,-386.516 307.956,-385.935 299.324,-379.792 297.377,-386.516"/>
</g>
<!-- Node8 -->
<g id="node8" class="node"><title>Node8</title>
<g id="a_node8"><a xlink:href="classmodule__sf__noahlsm.html#aac4dfa006a09d48e949536f4dc217bbf" target="_top" xlink:title="module_sf_noahlsm::\ltdfcnd">
<polygon fill="white" stroke="black" points="765,-339 765,-369 875,-369 875,-339 765,-339"/>
<text text-anchor="start" x="773" y="-357" font-family="Helvetica,sans-Serif" font-size="10.00">module_sf_noahlsm::</text>
<text text-anchor="middle" x="820" y="-346" font-family="Helvetica,sans-Serif" font-size="10.00">tdfcnd</text>
</a>
</g>
</g>
<!-- Node2&#45;&gt;Node8 -->
<g id="edge7" class="edge"><title>Node2&#45;&gt;Node8</title>
<path fill="none" stroke="midnightblue" d="M269.665,-356.697C385.845,-356.127 636.095,-354.898 754.454,-354.317"/>
<polygon fill="midnightblue" stroke="midnightblue" points="754.82,-357.815 764.802,-354.266 754.785,-350.815 754.82,-357.815"/>
</g>
<!-- Node9 -->
<g id="node9" class="node"><title>Node9</title>
<g id="a_node9"><a xlink:href="classmodule__sf__noahlsm.html#ab3693cb1c40b1bd7b4db5e96337f6eef" target="_top" xlink:title="module_sf_noahlsm::\lsnowz0">
<polygon fill="white" stroke="black" points="306,-200 306,-230 416,-230 416,-200 306,-200"/>
<text text-anchor="start" x="314" y="-218" font-family="Helvetica,sans-Serif" font-size="10.00">module_sf_noahlsm::</text>
<text text-anchor="middle" x="361" y="-207" font-family="Helvetica,sans-Serif" font-size="10.00">snowz0</text>
</a>
</g>
</g>
<!-- Node2&#45;&gt;Node9 -->
<g id="edge8" class="edge"><title>Node2&#45;&gt;Node9</title>
<path fill="none" stroke="midnightblue" d="M213.977,-347.279C227.779,-325.508 263.927,-272.221 306,-240 308.268,-238.263 310.677,-236.609 313.169,-235.041"/>
<polygon fill="midnightblue" stroke="midnightblue" points="314.947,-238.056 321.88,-230.044 311.464,-231.984 314.947,-238.056"/>
</g>
<!-- Node10 -->
<g id="node10" class="node"><title>Node10</title>
<g id="a_node10"><a xlink:href="classmodule__sf__noahlsm.html#adebb599290dd898c8995442436263d52" target="_top" xlink:title="module_sf_noahlsm::\lpenman">
<polygon fill="white" stroke="black" points="306,-151 306,-181 416,-181 416,-151 306,-151"/>
<text text-anchor="start" x="314" y="-169" font-family="Helvetica,sans-Serif" font-size="10.00">module_sf_noahlsm::</text>
<text text-anchor="middle" x="361" y="-158" font-family="Helvetica,sans-Serif" font-size="10.00">penman</text>
</a>
</g>
</g>
<!-- Node2&#45;&gt;Node10 -->
<g id="edge9" class="edge"><title>Node2&#45;&gt;Node10</title>
<path fill="none" stroke="midnightblue" d="M211.308,-347.415C221.327,-319.651 253.889,-238.157 306,-191 307.68,-189.479 309.469,-188.036 311.336,-186.667"/>
<polygon fill="midnightblue" stroke="midnightblue" points="313.407,-189.496 319.921,-181.14 309.618,-183.611 313.407,-189.496"/>
</g>
<!-- Node11 -->
<g id="node11" class="node"><title>Node11</title>
<g id="a_node11"><a xlink:href="classmodule__sf__noahlsm.html#a433b2b986f9e11459dc99a8a99db6ba7" target="_top" xlink:title="module_sf_noahlsm::\lcanres">
<polygon fill="white" stroke="black" points="306,-102 306,-132 416,-132 416,-102 306,-102"/>
<text text-anchor="start" x="314" y="-120" font-family="Helvetica,sans-Serif" font-size="10.00">module_sf_noahlsm::</text>
<text text-anchor="middle" x="361" y="-109" font-family="Helvetica,sans-Serif" font-size="10.00">canres</text>
</a>
</g>
</g>
<!-- Node2&#45;&gt;Node11 -->
<g id="edge10" class="edge"><title>Node2&#45;&gt;Node11</title>
<path fill="none" stroke="midnightblue" d="M209.806,-347.416C216.502,-314.352 242.863,-203.652 306,-141 307.07,-139.939 308.194,-138.92 309.364,-137.943"/>
<polygon fill="midnightblue" stroke="midnightblue" points="311.502,-140.717 317.636,-132.079 307.454,-135.007 311.502,-140.717"/>
</g>
<!-- Node12 -->
<g id="node12" class="node"><title>Node12</title>
<g id="a_node12"><a xlink:href="classmodule__sf__noahlsm.html#a6a17443ddbf15acdb25690cfbb3749a3" target="_top" xlink:title="module_sf_noahlsm::\lnopac">
<polygon fill="white" stroke="black" points="306,-298 306,-328 416,-328 416,-298 306,-298"/>
<text text-anchor="start" x="314" y="-316" font-family="Helvetica,sans-Serif" font-size="10.00">module_sf_noahlsm::</text>
<text text-anchor="middle" x="361" y="-305" font-family="Helvetica,sans-Serif" font-size="10.00">nopac</text>
</a>
</g>
</g>
<!-- Node2&#45;&gt;Node12 -->
<g id="edge11" class="edge"><title>Node2&#45;&gt;Node12</title>
<path fill="none" stroke="midnightblue" d="M240.982,-347.453C257.713,-342.609 278.592,-336.565 298.17,-330.898"/>
<polygon fill="midnightblue" stroke="midnightblue" points="299.324,-334.208 307.956,-328.065 297.377,-327.484 299.324,-334.208"/>
</g>
<!-- Node29 -->
<g id="node29" class="node"><title>Node29</title>
<g id="a_node29"><a xlink:href="classmodule__sf__noahlsm.html#a9d1e26133ed89bc5465a230d45d0625d" target="_top" xlink:title="module_sf_noahlsm::\lsnopac">
<polygon fill="white" stroke="black" points="306,-249 306,-279 416,-279 416,-249 306,-249"/>
<text text-anchor="start" x="314" y="-267" font-family="Helvetica,sans-Serif" font-size="10.00">module_sf_noahlsm::</text>
<text text-anchor="middle" x="361" y="-256" font-family="Helvetica,sans-Serif" font-size="10.00">snopac</text>
</a>
</g>
</g>
<!-- Node2&#45;&gt;Node29 -->
<g id="edge31" class="edge"><title>Node2&#45;&gt;Node29</title>
<path fill="none" stroke="midnightblue" d="M220.231,-347.477C238.345,-333.617 273.653,-307.524 306,-289 309.191,-287.173 312.538,-285.37 315.937,-283.621"/>
<polygon fill="midnightblue" stroke="midnightblue" points="317.579,-286.714 324.982,-279.134 314.468,-280.443 317.579,-286.714"/>
</g>
<!-- Node12&#45;&gt;Node8 -->
<g id="edge21" class="edge"><title>Node12&#45;&gt;Node8</title>
<path fill="none" stroke="midnightblue" d="M416.219,-317.864C500.908,-325.462 664.238,-340.115 754.723,-348.233"/>
<polygon fill="midnightblue" stroke="midnightblue" points="754.579,-351.734 764.852,-349.142 755.205,-344.762 754.579,-351.734"/>
</g>
<!-- Node13 -->
<g id="node13" class="node"><title>Node13</title>
<g id="a_node13"><a xlink:href="classmodule__sf__noahlsm.html#a8def37e83c3ce04050b98a11d265caeb" target="_top" xlink:title="module_sf_noahlsm::\levapo">
<polygon fill="white" stroke="black" points="452,-205 452,-235 562,-235 562,-205 452,-205"/>
<text text-anchor="start" x="460" y="-223" font-family="Helvetica,sans-Serif" font-size="10.00">module_sf_noahlsm::</text>
<text text-anchor="middle" x="507" y="-212" font-family="Helvetica,sans-Serif" font-size="10.00">evapo</text>
</a>
</g>
</g>
<!-- Node12&#45;&gt;Node13 -->
<g id="edge12" class="edge"><title>Node12&#45;&gt;Node13</title>
<path fill="none" stroke="midnightblue" d="M399.269,-297.861C405.062,-294.915 410.833,-291.608 416,-288 434.553,-275.047 434.127,-265.876 452,-252 457.197,-247.965 462.946,-244.054 468.698,-240.432"/>
<polygon fill="midnightblue" stroke="midnightblue" points="470.921,-243.177 477.66,-235.002 467.293,-237.19 470.921,-243.177"/>
</g>
<!-- Node16 -->
<g id="node16" class="node"><title>Node16</title>
<g id="a_node16"><a xlink:href="classmodule__sf__noahlsm.html#a0d0b4c4b1c11cc7ff836dfdd13fb1b20" target="_top" xlink:title="module_sf_noahlsm::\lsmflx">
<polygon fill="white" stroke="black" points="452,-128 452,-158 562,-158 562,-128 452,-128"/>
<text text-anchor="start" x="460" y="-146" font-family="Helvetica,sans-Serif" font-size="10.00">module_sf_noahlsm::</text>
<text text-anchor="middle" x="507" y="-135" font-family="Helvetica,sans-Serif" font-size="10.00">smflx</text>
</a>
</g>
</g>
<!-- Node12&#45;&gt;Node16 -->
<g id="edge15" class="edge"><title>Node12&#45;&gt;Node16</title>
<path fill="none" stroke="midnightblue" d="M403.478,-297.962C408.074,-295.137 412.389,-291.837 416,-288 446.093,-256.026 427.796,-232.634 452,-196 459.542,-184.585 469.886,-173.685 479.503,-164.771"/>
<polygon fill="midnightblue" stroke="midnightblue" points="481.87,-167.349 486.993,-158.075 477.205,-162.131 481.87,-167.349"/>
</g>
<!-- Node22 -->
<g id="node22" class="node"><title>Node22</title>
<g id="a_node22"><a xlink:href="classmodule__sf__noahlsm.html#ac5c49267c44f18dfd5359b29fdfed38e" target="_top" xlink:title="module_sf_noahlsm::\lshflx">
<polygon fill="white" stroke="black" points="452,-261 452,-291 562,-291 562,-261 452,-261"/>
<text text-anchor="start" x="460" y="-279" font-family="Helvetica,sans-Serif" font-size="10.00">module_sf_noahlsm::</text>
<text text-anchor="middle" x="507" y="-268" font-family="Helvetica,sans-Serif" font-size="10.00">shflx</text>
</a>
</g>
</g>
<!-- Node12&#45;&gt;Node22 -->
<g id="edge22" class="edge"><title>Node12&#45;&gt;Node22</title>
<path fill="none" stroke="midnightblue" d="M416.03,-299.117C424.496,-296.942 433.315,-294.676 441.979,-292.45"/>
<polygon fill="midnightblue" stroke="midnightblue" points="442.853,-295.839 451.667,-289.961 441.111,-289.059 442.853,-295.839"/>
</g>
<!-- Node14 -->
<g id="node14" class="node"><title>Node14</title>
<g id="a_node14"><a xlink:href="classmodule__sf__noahlsm.html#a1f4bae7bb5581ef61d8c22e58df4c88f" target="_top" xlink:title="module_sf_noahlsm::\ldevap">
<polygon fill="white" stroke="black" points="604,-186 604,-216 714,-216 714,-186 604,-186"/>
<text text-anchor="start" x="612" y="-204" font-family="Helvetica,sans-Serif" font-size="10.00">module_sf_noahlsm::</text>
<text text-anchor="middle" x="659" y="-193" font-family="Helvetica,sans-Serif" font-size="10.00">devap</text>
</a>
</g>
</g>
<!-- Node13&#45;&gt;Node14 -->
<g id="edge13" class="edge"><title>Node13&#45;&gt;Node14</title>
<path fill="none" stroke="midnightblue" d="M562.153,-213.141C572.456,-211.836 583.328,-210.458 593.904,-209.119"/>
<polygon fill="midnightblue" stroke="midnightblue" points="594.445,-212.578 603.926,-207.849 593.565,-205.634 594.445,-212.578"/>
</g>
<!-- Node15 -->
<g id="node15" class="node"><title>Node15</title>
<g id="a_node15"><a xlink:href="classmodule__sf__noahlsm.html#aa418d6be3fc3de942821faf6fb68e3f8" target="_top" xlink:title="module_sf_noahlsm::\ltransp">
<polygon fill="white" stroke="black" points="604,-137 604,-167 714,-167 714,-137 604,-137"/>
<text text-anchor="start" x="612" y="-155" font-family="Helvetica,sans-Serif" font-size="10.00">module_sf_noahlsm::</text>
<text text-anchor="middle" x="659" y="-144" font-family="Helvetica,sans-Serif" font-size="10.00">transp</text>
</a>
</g>
</g>
<!-- Node13&#45;&gt;Node15 -->
<g id="edge14" class="edge"><title>Node13&#45;&gt;Node15</title>
<path fill="none" stroke="midnightblue" d="M537.331,-204.976C554.799,-196.201 577.492,-185.1 598,-176 601.807,-174.311 605.772,-172.607 609.768,-170.928"/>
<polygon fill="midnightblue" stroke="midnightblue" points="611.188,-174.128 619.092,-167.074 608.514,-167.659 611.188,-174.128"/>
</g>
<!-- Node17 -->
<g id="node17" class="node"><title>Node17</title>
<g id="a_node17"><a xlink:href="classmodule__sf__noahlsm.html#ad15804ed9573673deb4f95b3f160eeb2" target="_top" xlink:title="module_sf_noahlsm::\lfac2mit">
<polygon fill="white" stroke="black" points="604,-0 604,-30 714,-30 714,-0 604,-0"/>
<text text-anchor="start" x="612" y="-18" font-family="Helvetica,sans-Serif" font-size="10.00">module_sf_noahlsm::</text>
<text text-anchor="middle" x="659" y="-7" font-family="Helvetica,sans-Serif" font-size="10.00">fac2mit</text>
</a>
</g>
</g>
<!-- Node16&#45;&gt;Node17 -->
<g id="edge16" class="edge"><title>Node16&#45;&gt;Node17</title>
<path fill="none" stroke="midnightblue" d="M548.989,-127.916C553.721,-125.089 558.204,-121.801 562,-118 588.982,-90.9862 570.499,-66.4854 598,-40 599.618,-38.4417 601.347,-36.9746 603.16,-35.594"/>
<polygon fill="midnightblue" stroke="midnightblue" points="605.124,-38.4915 611.565,-30.0792 601.284,-32.6389 605.124,-38.4915"/>
</g>
<!-- Node18 -->
<g id="node18" class="node"><title>Node18</title>
<g id="a_node18"><a xlink:href="classmodule__sf__noahlsm.html#a2e71343dc4bdf7438e0abf6d850d0c79" target="_top" xlink:title="module_sf_noahlsm::srt">
<polygon fill="white" stroke="black" points="598.5,-49.5 598.5,-68.5 719.5,-68.5 719.5,-49.5 598.5,-49.5"/>
<text text-anchor="middle" x="659" y="-56.5" font-family="Helvetica,sans-Serif" font-size="10.00">module_sf_noahlsm::srt</text>
</a>
</g>
</g>
<!-- Node16&#45;&gt;Node18 -->
<g id="edge17" class="edge"><title>Node16&#45;&gt;Node18</title>
<path fill="none" stroke="midnightblue" d="M545.721,-127.949C551.397,-125.009 557.013,-121.681 562,-118 581.244,-103.798 577.894,-90.9535 598,-78 601.172,-75.9566 604.58,-74.1187 608.102,-72.4681"/>
<polygon fill="midnightblue" stroke="midnightblue" points="609.715,-75.5884 617.61,-68.5238 607.033,-69.1226 609.715,-75.5884"/>
</g>
<!-- Node20 -->
<g id="node20" class="node"><title>Node20</title>
<g id="a_node20"><a xlink:href="classmodule__sf__noahlsm.html#ada19fa401e97fc92326932b406bbc2c3" target="_top" xlink:title="module_sf_noahlsm::\lsstep">
<polygon fill="white" stroke="black" points="604,-88 604,-118 714,-118 714,-88 604,-88"/>
<text text-anchor="start" x="612" y="-106" font-family="Helvetica,sans-Serif" font-size="10.00">module_sf_noahlsm::</text>
<text text-anchor="middle" x="659" y="-95" font-family="Helvetica,sans-Serif" font-size="10.00">sstep</text>
</a>
</g>
</g>
<!-- Node16&#45;&gt;Node20 -->
<g id="edge19" class="edge"><title>Node16&#45;&gt;Node20</title>
<path fill="none" stroke="midnightblue" d="M562.153,-128.559C572.562,-125.784 583.552,-122.853 594.231,-120.005"/>
<polygon fill="midnightblue" stroke="midnightblue" points="595.166,-123.378 603.926,-117.42 593.362,-116.615 595.166,-123.378"/>
</g>
<!-- Node19 -->
<g id="node19" class="node"><title>Node19</title>
<g id="a_node19"><a xlink:href="classmodule__sf__noahlsm.html#a3b4a7f68699fbc22922e958770009b57" target="_top" xlink:title="module_sf_noahlsm::\lwdfcnd">
<polygon fill="white" stroke="black" points="765,-44 765,-74 875,-74 875,-44 765,-44"/>
<text text-anchor="start" x="773" y="-62" font-family="Helvetica,sans-Serif" font-size="10.00">module_sf_noahlsm::</text>
<text text-anchor="middle" x="820" y="-51" font-family="Helvetica,sans-Serif" font-size="10.00">wdfcnd</text>
</a>
</g>
</g>
<!-- Node18&#45;&gt;Node19 -->
<g id="edge18" class="edge"><title>Node18&#45;&gt;Node19</title>
<path fill="none" stroke="midnightblue" d="M719.658,-59C731.108,-59 743.145,-59 754.733,-59"/>
<polygon fill="midnightblue" stroke="midnightblue" points="754.775,-62.5001 764.775,-59 754.774,-55.5001 754.775,-62.5001"/>
</g>
<!-- Node21 -->
<g id="node21" class="node"><title>Node21</title>
<g id="a_node21"><a xlink:href="classmodule__sf__noahlsm.html#ac6e3e7bb3f0322070546653306177216" target="_top" xlink:title="module_sf_noahlsm::\lrosr12">
<polygon fill="white" stroke="black" points="765,-115 765,-145 875,-145 875,-115 765,-115"/>
<text text-anchor="start" x="773" y="-133" font-family="Helvetica,sans-Serif" font-size="10.00">module_sf_noahlsm::</text>
<text text-anchor="middle" x="820" y="-122" font-family="Helvetica,sans-Serif" font-size="10.00">rosr12</text>
</a>
</g>
</g>
<!-- Node20&#45;&gt;Node21 -->
<g id="edge20" class="edge"><title>Node20&#45;&gt;Node21</title>
<path fill="none" stroke="midnightblue" d="M714.274,-112.216C727.322,-114.432 741.38,-116.819 754.831,-119.103"/>
<polygon fill="midnightblue" stroke="midnightblue" points="754.526,-122.602 764.971,-120.825 755.698,-115.7 754.526,-122.602"/>
</g>
<!-- Node23 -->
<g id="node23" class="node"><title>Node23</title>
<g id="a_node23"><a xlink:href="classmodule__sf__noahlsm.html#a3d4ab86e98738d55bb24f5f2256bc036" target="_top" xlink:title="module_sf_noahlsm::hrt">
<polygon fill="white" stroke="black" points="598.5,-284.5 598.5,-303.5 719.5,-303.5 719.5,-284.5 598.5,-284.5"/>
<text text-anchor="middle" x="659" y="-291.5" font-family="Helvetica,sans-Serif" font-size="10.00">module_sf_noahlsm::hrt</text>
</a>
</g>
</g>
<!-- Node22&#45;&gt;Node23 -->
<g id="edge23" class="edge"><title>Node22&#45;&gt;Node23</title>
<path fill="none" stroke="midnightblue" d="M562.153,-282.498C570.598,-283.512 579.425,-284.571 588.158,-285.619"/>
<polygon fill="midnightblue" stroke="midnightblue" points="587.993,-289.124 598.339,-286.841 588.827,-282.174 587.993,-289.124"/>
</g>
<!-- Node28 -->
<g id="node28" class="node"><title>Node28</title>
<g id="a_node28"><a xlink:href="classmodule__sf__noahlsm.html#adacf01be4e33445ea186feffce24eb35" target="_top" xlink:title="module_sf_noahlsm::\lhstep">
<polygon fill="white" stroke="black" points="604,-235 604,-265 714,-265 714,-235 604,-235"/>
<text text-anchor="start" x="612" y="-253" font-family="Helvetica,sans-Serif" font-size="10.00">module_sf_noahlsm::</text>
<text text-anchor="middle" x="659" y="-242" font-family="Helvetica,sans-Serif" font-size="10.00">hstep</text>
</a>
</g>
</g>
<!-- Node22&#45;&gt;Node28 -->
<g id="edge29" class="edge"><title>Node22&#45;&gt;Node28</title>
<path fill="none" stroke="midnightblue" d="M562.153,-266.613C572.456,-264.828 583.328,-262.943 593.904,-261.11"/>
<polygon fill="midnightblue" stroke="midnightblue" points="594.671,-264.529 603.926,-259.373 593.475,-257.632 594.671,-264.529"/>
</g>
<!-- Node23&#45;&gt;Node8 -->
<g id="edge28" class="edge"><title>Node23&#45;&gt;Node8</title>
<path fill="none" stroke="midnightblue" d="M685.194,-303.507C707.753,-312.02 741.487,-324.75 769.439,-335.298"/>
<polygon fill="midnightblue" stroke="midnightblue" points="768.465,-338.671 779.057,-338.927 770.937,-332.122 768.465,-338.671"/>
</g>
<!-- Node24 -->
<g id="node24" class="node"><title>Node24</title>
<g id="a_node24"><a xlink:href="classmodule__sf__noahlsm.html#a578d0dc05848d5bc7fb823e379da5cdd" target="_top" xlink:title="module_sf_noahlsm::tbnd">
<polygon fill="white" stroke="black" points="756,-300.5 756,-319.5 884,-319.5 884,-300.5 756,-300.5"/>
<text text-anchor="middle" x="820" y="-307.5" font-family="Helvetica,sans-Serif" font-size="10.00">module_sf_noahlsm::tbnd</text>
</a>
</g>
</g>
<!-- Node23&#45;&gt;Node24 -->
<g id="edge24" class="edge"><title>Node23&#45;&gt;Node24</title>
<path fill="none" stroke="midnightblue" d="M719.658,-300.003C728.145,-300.857 736.954,-301.744 745.664,-302.62"/>
<polygon fill="midnightblue" stroke="midnightblue" points="745.518,-306.123 755.818,-303.642 746.219,-299.158 745.518,-306.123"/>
</g>
<!-- Node25 -->
<g id="node25" class="node"><title>Node25</title>
<g id="a_node25"><a xlink:href="classmodule__sf__noahlsm.html#ab786b4f52dbea2106470993f2ea20e69" target="_top" xlink:title="module_sf_noahlsm::\ltmpavg">
<polygon fill="white" stroke="black" points="765,-251 765,-281 875,-281 875,-251 765,-251"/>
<text text-anchor="start" x="773" y="-269" font-family="Helvetica,sans-Serif" font-size="10.00">module_sf_noahlsm::</text>
<text text-anchor="middle" x="820" y="-258" font-family="Helvetica,sans-Serif" font-size="10.00">tmpavg</text>
</a>
</g>
</g>
<!-- Node23&#45;&gt;Node25 -->
<g id="edge25" class="edge"><title>Node23&#45;&gt;Node25</title>
<path fill="none" stroke="midnightblue" d="M714.274,-284.442C727.322,-282.145 741.38,-279.669 754.831,-277.3"/>
<polygon fill="midnightblue" stroke="midnightblue" points="755.729,-280.696 764.971,-275.515 754.515,-273.802 755.729,-280.696"/>
</g>
<!-- Node26 -->
<g id="node26" class="node"><title>Node26</title>
<g id="a_node26"><a xlink:href="classmodule__sf__noahlsm.html#a5d089c57c48085d25b95857c682922da" target="_top" xlink:title="module_sf_noahlsm::\lsnksrc">
<polygon fill="white" stroke="black" points="765,-202 765,-232 875,-232 875,-202 765,-202"/>
<text text-anchor="start" x="773" y="-220" font-family="Helvetica,sans-Serif" font-size="10.00">module_sf_noahlsm::</text>
<text text-anchor="middle" x="820" y="-209" font-family="Helvetica,sans-Serif" font-size="10.00">snksrc</text>
</a>
</g>
</g>
<!-- Node23&#45;&gt;Node26 -->
<g id="edge26" class="edge"><title>Node23&#45;&gt;Node26</title>
<path fill="none" stroke="midnightblue" d="M696.561,-284.436C704.553,-281.636 712.776,-278.177 720,-274 738.533,-263.285 737.774,-253.23 756,-242 759.193,-240.032 762.568,-238.167 766.03,-236.41"/>
<polygon fill="midnightblue" stroke="midnightblue" points="767.787,-239.45 775.33,-232.011 764.794,-233.122 767.787,-239.45"/>
</g>
<!-- Node27 -->
<g id="node27" class="node"><title>Node27</title>
<g id="a_node27"><a xlink:href="classmodule__sf__noahlsm.html#a5beb42f74e1a357ccfc0e904f356b33a" target="_top" xlink:title="module_sf_noahlsm::\lfrh2o">
<polygon fill="white" stroke="black" points="920,-202 920,-232 1030,-232 1030,-202 920,-202"/>
<text text-anchor="start" x="928" y="-220" font-family="Helvetica,sans-Serif" font-size="10.00">module_sf_noahlsm::</text>
<text text-anchor="middle" x="975" y="-209" font-family="Helvetica,sans-Serif" font-size="10.00">frh2o</text>
</a>
</g>
</g>
<!-- Node26&#45;&gt;Node27 -->
<g id="edge27" class="edge"><title>Node26&#45;&gt;Node27</title>
<path fill="none" stroke="midnightblue" d="M875.373,-217C886.421,-217 898.142,-217 909.502,-217"/>
<polygon fill="midnightblue" stroke="midnightblue" points="909.802,-220.5 919.802,-217 909.802,-213.5 909.802,-220.5"/>
</g>
<!-- Node28&#45;&gt;Node21 -->
<g id="edge30" class="edge"><title>Node28&#45;&gt;Node21</title>
<path fill="none" stroke="midnightblue" d="M701.696,-234.999C708.031,-232.053 714.336,-228.709 720,-225 728.525,-219.418 769.882,-178.856 796.373,-152.569"/>
<polygon fill="midnightblue" stroke="midnightblue" points="799.113,-154.781 803.738,-145.249 794.178,-149.817 799.113,-154.781"/>
</g>
<!-- Node29&#45;&gt;Node13 -->
<g id="edge32" class="edge"><title>Node29&#45;&gt;Node13</title>
<path fill="none" stroke="midnightblue" d="M411.154,-248.981C422.611,-245.48 434.93,-241.716 446.772,-238.097"/>
<polygon fill="midnightblue" stroke="midnightblue" points="448.038,-241.37 456.579,-235.101 445.992,-234.676 448.038,-241.37"/>
</g>
<!-- Node29&#45;&gt;Node16 -->
<g id="edge33" class="edge"><title>Node29&#45;&gt;Node16</title>
<path fill="none" stroke="midnightblue" d="M400.121,-248.957C405.685,-246.033 411.161,-242.707 416,-239 435.786,-223.843 435.086,-214.307 452,-196 461.566,-185.646 472.601,-174.66 482.193,-165.39"/>
<polygon fill="midnightblue" stroke="midnightblue" points="484.721,-167.815 489.52,-158.369 479.878,-162.761 484.721,-167.815"/>
</g>
<!-- Node29&#45;&gt;Node22 -->
<g id="edge34" class="edge"><title>Node29&#45;&gt;Node22</title>
<path fill="none" stroke="midnightblue" d="M416.03,-268.502C424.405,-269.2 433.126,-269.927 441.7,-270.642"/>
<polygon fill="midnightblue" stroke="midnightblue" points="441.411,-274.13 451.667,-271.472 441.992,-267.154 441.411,-274.13"/>
</g>
<!-- Node30 -->
<g id="node30" class="node"><title>Node30</title>
<g id="a_node30"><a xlink:href="classmodule__sf__noahlsm.html#ae6d35ff66196a3ab369a3e87149ddcdc" target="_top" xlink:title="module_sf_noahlsm::\lsnowpack">
<polygon fill="white" stroke="black" points="452,-79 452,-109 562,-109 562,-79 452,-79"/>
<text text-anchor="start" x="460" y="-97" font-family="Helvetica,sans-Serif" font-size="10.00">module_sf_noahlsm::</text>
<text text-anchor="middle" x="507" y="-86" font-family="Helvetica,sans-Serif" font-size="10.00">snowpack</text>
</a>
</g>
</g>
<!-- Node29&#45;&gt;Node30 -->
<g id="edge35" class="edge"><title>Node29&#45;&gt;Node30</title>
<path fill="none" stroke="midnightblue" d="M404.326,-248.906C408.666,-246.107 412.688,-242.828 416,-239 452.709,-196.567 414.967,-160.149 452,-118 452.745,-117.152 453.525,-116.333 454.337,-115.541"/>
<polygon fill="midnightblue" stroke="midnightblue" points="456.73,-118.11 462.367,-109.14 452.366,-112.637 456.73,-118.11"/>
</g>
</g>
</svg>
        <g id="navigator" transform="translate(0 0)" fill="#404254">
                <rect fill="#f2f5e9" fill-opacity="0.5" stroke="#606060" stroke-width=".5" x="0" y="0" width="60" height="60"/>
                <use id="zoomplus" xlink:href="#zoomPlus" x="17" y="9" onmousedown="handleZoom(evt,'in')"/>
                <use id="zoomminus" xlink:href="#zoomMin" x="42" y="9" onmousedown="handleZoom(evt,'out')"/>
                <use id="reset" xlink:href="#resetDef" x="30" y="36" onmousedown="handleReset()"/>
                <g id="arrowUp" xlink:href="#dirArrow" transform="translate(30 24)" onmousedown="handlePan(0,-1)">
                  <use xlink:href="#rim" fill="#404040">
                        <set attributeName="fill" to="#808080" begin="arrowUp.mouseover" end="arrowUp.mouseout"/>
                  </use>
                  <path fill="none" stroke="white" stroke-width="1.5" d="M0,-3.0v7 M-2.5,-0.5L0,-3.0L2.5,-0.5"/>
                </g>
                <g id="arrowRight" xlink:href="#dirArrow" transform="rotate(90) translate(36 -43)" onmousedown="handlePan(1,0)">
                  <use xlink:href="#rim" fill="#404040">
                        <set attributeName="fill" to="#808080" begin="arrowRight.mouseover" end="arrowRight.mouseout"/>
                  </use>
                  <path fill="none" stroke="white" stroke-width="1.5" d="M0,-3.0v7 M-2.5,-0.5L0,-3.0L2.5,-0.5"/>
                </g>
                <g id="arrowDown" xlink:href="#dirArrow" transform="rotate(180) translate(-30 -48)" onmousedown="handlePan(0,1)">
                  <use xlink:href="#rim" fill="#404040">
                        <set attributeName="fill" to="#808080" begin="arrowDown.mouseover" end="arrowDown.mouseout"/>
                  </use>
                  <path fill="none" stroke="white" stroke-width="1.5" d="M0,-3.0v7 M-2.5,-0.5L0,-3.0L2.5,-0.5"/>
                </g>
                <g id="arrowLeft" xlink:href="#dirArrow" transform="rotate(270) translate(-36 17)" onmousedown="handlePan(-1,0)">
                  <use xlink:href="#rim" fill="#404040">
                        <set attributeName="fill" to="#808080" begin="arrowLeft.mouseover" end="arrowLeft.mouseout"/>
                  </use>
                  <path fill="none" stroke="white" stroke-width="1.5" d="M0,-3.0v7 M-2.5,-0.5L0,-3.0L2.5,-0.5"/>
                </g>
        </g>
        <svg viewBox="0 0 15 15" width="100%" height="30px" preserveAspectRatio="xMaxYMin meet">
         <g id="arrow_out" transform="scale(0.3 0.3)">
          <a xlink:href="classmodule__sf__noahdrv_a329dccdd0c1fc2797bc8ebcc9bcc0ff6_cgraph_org.svg" target="_base">
           <rect id="button" ry="5" rx="5" y="6" x="6" height="38" width="38"
                fill="#f2f5e9" fill-opacity="0.5" stroke="#606060" stroke-width="1.0"/>
           <path id="arrow"
             d="M 11.500037,31.436501 C 11.940474,20.09759 22.043105,11.32322 32.158766,21.979434 L 37.068811,17.246167 C 37.068811,17.246167 37.088388,32 37.088388,32 L 22.160133,31.978069 C 22.160133,31.978069 26.997745,27.140456 26.997745,27.140456 C 18.528582,18.264221 13.291696,25.230495 11.500037,31.436501 z"
             style="fill:#404040;"/>
          </a>
         </g>
        </svg>
</svg>
