<?xml version="1.0" encoding="UTF-8" standalone="no"?>
<!DOCTYPE svg PUBLIC "-//W3C//DTD SVG 1.1//EN"
 "http://www.w3.org/Graphics/SVG/1.1/DTD/svg11.dtd">
<!-- Generated by graphviz version 2.38.0 (20140413.2041)
 -->
<!-- Title: linear_theory_winds::setup_linwinds Pages: 1 -->
<svg width="851pt" height="284pt"
 viewBox="0.00 0.00 851.00 284.00" xmlns="http://www.w3.org/2000/svg" xmlns:xlink="http://www.w3.org/1999/xlink">
<g id="graph0" class="graph" transform="scale(1 1) rotate(0) translate(4 280)">
<title>linear_theory_winds::setup_linwinds</title>
<polygon fill="white" stroke="none" points="-4,4 -4,-280 847,-280 847,4 -4,4"/>
<!-- Node1 -->
<g id="node1" class="node"><title>Node1</title>
<polygon fill="#bfbfbf" stroke="black" points="0,-171.5 0,-201.5 103,-201.5 103,-171.5 0,-171.5"/>
<text text-anchor="start" x="8" y="-189.5" font-family="Helvetica,sans-Serif" font-size="10.00">linear_theory_winds</text>
<text text-anchor="middle" x="51.5" y="-178.5" font-family="Helvetica,sans-Serif" font-size="10.00">::setup_linwinds</text>
</g>
<!-- Node2 -->
<g id="node2" class="node"><title>Node2</title>
<g id="a_node2"><a xlink:href="classlinear__theory__winds.html#abd669b485ef98ac64dad6b8590974da3" target="_top" xlink:title="linear_theory_winds\l::set_module_options">
<polygon fill="white" stroke="black" points="145,-245.5 145,-275.5 255,-275.5 255,-245.5 145,-245.5"/>
<text text-anchor="start" x="153" y="-263.5" font-family="Helvetica,sans-Serif" font-size="10.00">linear_theory_winds</text>
<text text-anchor="middle" x="200" y="-252.5" font-family="Helvetica,sans-Serif" font-size="10.00">::set_module_options</text>
</a>
</g>
</g>
<!-- Node1&#45;&gt;Node2 -->
<g id="edge1" class="edge"><title>Node1&#45;&gt;Node2</title>
<path fill="none" stroke="midnightblue" d="M77.4282,-201.683C94.4816,-211.804 117.761,-225.107 139,-235.5 143.043,-237.479 147.283,-239.448 151.561,-241.362"/>
<polygon fill="midnightblue" stroke="midnightblue" points="150.357,-244.656 160.922,-245.448 153.157,-238.24 150.357,-244.656"/>
</g>
<!-- Node3 -->
<g id="node3" class="node"><title>Node3</title>
<g id="a_node3"><a xlink:href="classlinear__theory__winds.html#a9a4361691c200925fcb5da146c4f0691" target="_top" xlink:title="linear_theory_winds\l::add_buffer_topo">
<polygon fill="white" stroke="black" points="148.5,-196.5 148.5,-226.5 251.5,-226.5 251.5,-196.5 148.5,-196.5"/>
<text text-anchor="start" x="156.5" y="-214.5" font-family="Helvetica,sans-Serif" font-size="10.00">linear_theory_winds</text>
<text text-anchor="middle" x="200" y="-203.5" font-family="Helvetica,sans-Serif" font-size="10.00">::add_buffer_topo</text>
</a>
</g>
</g>
<!-- Node1&#45;&gt;Node3 -->
<g id="edge2" class="edge"><title>Node1&#45;&gt;Node3</title>
<path fill="none" stroke="midnightblue" d="M103.327,-195.174C114.577,-197.093 126.608,-199.146 138.209,-201.126"/>
<polygon fill="midnightblue" stroke="midnightblue" points="137.816,-204.61 148.262,-202.842 138.994,-197.709 137.816,-204.61"/>
</g>
<!-- Node4 -->
<g id="node4" class="node"><title>Node4</title>
<g id="a_node4"><a xlink:href="interfaceio__routines_1_1io__read.html#a35290f3b01bd8f36bae0173749f6b870" target="_top" xlink:title=" Same as io_read3d but for 2&#45;dimensional data ">
<polygon fill="white" stroke="black" points="149.5,-147.5 149.5,-177.5 250.5,-177.5 250.5,-147.5 149.5,-147.5"/>
<text text-anchor="start" x="157.5" y="-165.5" font-family="Helvetica,sans-Serif" font-size="10.00">io_routines::io_read</text>
<text text-anchor="middle" x="200" y="-154.5" font-family="Helvetica,sans-Serif" font-size="10.00">::io_read2d</text>
</a>
</g>
</g>
<!-- Node1&#45;&gt;Node4 -->
<g id="edge3" class="edge"><title>Node1&#45;&gt;Node4</title>
<path fill="none" stroke="midnightblue" d="M103.327,-178.173C114.949,-176.269 127.404,-174.229 139.358,-172.271"/>
<polygon fill="midnightblue" stroke="midnightblue" points="139.949,-175.721 149.252,-170.65 138.817,-168.813 139.949,-175.721"/>
</g>
<!-- Node5 -->
<g id="node5" class="node"><title>Node5</title>
<g id="a_node5"><a xlink:href="classlinear__theory__winds.html#a1c7117dad74a51614a026a50aec8b988" target="_top" xlink:title="linear_theory_winds\l::initialize_spatial_winds">
<polygon fill="white" stroke="black" points="139,-98.5 139,-128.5 261,-128.5 261,-98.5 139,-98.5"/>
<text text-anchor="start" x="147" y="-116.5" font-family="Helvetica,sans-Serif" font-size="10.00">linear_theory_winds</text>
<text text-anchor="middle" x="200" y="-105.5" font-family="Helvetica,sans-Serif" font-size="10.00">::initialize_spatial_winds</text>
</a>
</g>
</g>
<!-- Node1&#45;&gt;Node5 -->
<g id="edge4" class="edge"><title>Node1&#45;&gt;Node5</title>
<path fill="none" stroke="midnightblue" d="M77.0084,-171.441C94.0732,-161.249 117.532,-147.816 139,-137.5 142.539,-135.799 146.232,-134.115 149.971,-132.474"/>
<polygon fill="midnightblue" stroke="midnightblue" points="151.468,-135.641 159.296,-128.502 148.724,-129.201 151.468,-135.641"/>
</g>
<!-- Node6 -->
<g id="node6" class="node"><title>Node6</title>
<g id="a_node6"><a xlink:href="classlinear__theory__lut__disk__io.html#a7b4e839b4cee03c05190479e277bc34a" target="_top" xlink:title=" Write linear wind look up tables to disk along with the parameters for that table ...">
<polygon fill="white" stroke="black" points="297,-196.5 297,-226.5 408,-226.5 408,-196.5 297,-196.5"/>
<text text-anchor="start" x="305" y="-214.5" font-family="Helvetica,sans-Serif" font-size="10.00">linear_theory_lut_disk</text>
<text text-anchor="middle" x="352.5" y="-203.5" font-family="Helvetica,sans-Serif" font-size="10.00">_io::read_lut</text>
</a>
</g>
</g>
<!-- Node5&#45;&gt;Node6 -->
<g id="edge5" class="edge"><title>Node5&#45;&gt;Node6</title>
<path fill="none" stroke="midnightblue" d="M246.721,-128.598C251.772,-131.178 256.653,-134.135 261,-137.5 282.368,-154.044 276.049,-169.432 297,-186.5 299.013,-188.14 301.15,-189.697 303.37,-191.173"/>
<polygon fill="midnightblue" stroke="midnightblue" points="301.86,-194.347 312.242,-196.46 305.443,-188.334 301.86,-194.347"/>
</g>
<!-- Node12 -->
<g id="node12" class="node"><title>Node12</title>
<g id="a_node12"><a xlink:href="classlinear__theory__winds.html#a813750f1f575af521dd81654aff2ee54" target="_top" xlink:title="linear_theory_winds\l::calc_u">
<polygon fill="white" stroke="black" points="301,-147.5 301,-177.5 404,-177.5 404,-147.5 301,-147.5"/>
<text text-anchor="start" x="309" y="-165.5" font-family="Helvetica,sans-Serif" font-size="10.00">linear_theory_winds</text>
<text text-anchor="middle" x="352.5" y="-154.5" font-family="Helvetica,sans-Serif" font-size="10.00">::calc_u</text>
</a>
</g>
</g>
<!-- Node5&#45;&gt;Node12 -->
<g id="edge11" class="edge"><title>Node5&#45;&gt;Node12</title>
<path fill="none" stroke="midnightblue" d="M247.383,-128.601C262.618,-133.562 279.713,-139.127 295.578,-144.293"/>
<polygon fill="midnightblue" stroke="midnightblue" points="294.678,-147.681 305.27,-147.448 296.845,-141.024 294.678,-147.681"/>
</g>
<!-- Node13 -->
<g id="node13" class="node"><title>Node13</title>
<g id="a_node13"><a xlink:href="classlinear__theory__winds.html#adbd589b5f5daf777414839f415fe8dbb" target="_top" xlink:title="linear_theory_winds\l::calc_v">
<polygon fill="white" stroke="black" points="301,-98.5 301,-128.5 404,-128.5 404,-98.5 301,-98.5"/>
<text text-anchor="start" x="309" y="-116.5" font-family="Helvetica,sans-Serif" font-size="10.00">linear_theory_winds</text>
<text text-anchor="middle" x="352.5" y="-105.5" font-family="Helvetica,sans-Serif" font-size="10.00">::calc_v</text>
</a>
</g>
</g>
<!-- Node5&#45;&gt;Node13 -->
<g id="edge12" class="edge"><title>Node5&#45;&gt;Node13</title>
<path fill="none" stroke="midnightblue" d="M261.347,-113.5C270.956,-113.5 280.902,-113.5 290.526,-113.5"/>
<polygon fill="midnightblue" stroke="midnightblue" points="290.81,-117 300.81,-113.5 290.81,-110 290.81,-117"/>
</g>
<!-- Node14 -->
<g id="node14" class="node"><title>Node14</title>
<g id="a_node14"><a xlink:href="classlinear__theory__winds.html#a352c9ebbb4416a470bc197c2c3b4c91a" target="_top" xlink:title="linear_theory_winds\l::linear_winds">
<polygon fill="white" stroke="black" points="301,-49.5 301,-79.5 404,-79.5 404,-49.5 301,-49.5"/>
<text text-anchor="start" x="309" y="-67.5" font-family="Helvetica,sans-Serif" font-size="10.00">linear_theory_winds</text>
<text text-anchor="middle" x="352.5" y="-56.5" font-family="Helvetica,sans-Serif" font-size="10.00">::linear_winds</text>
</a>
</g>
</g>
<!-- Node5&#45;&gt;Node14 -->
<g id="edge13" class="edge"><title>Node5&#45;&gt;Node14</title>
<path fill="none" stroke="midnightblue" d="M247.383,-98.3986C262.618,-93.4385 279.713,-87.8726 295.578,-82.7071"/>
<polygon fill="midnightblue" stroke="midnightblue" points="296.845,-85.9756 305.27,-79.5516 294.678,-79.3195 296.845,-85.9756"/>
</g>
<!-- Node15 -->
<g id="node15" class="node"><title>Node15</title>
<g id="a_node15"><a xlink:href="classlinear__theory__lut__disk__io.html#a839923739fe9f10f439952d059c3261d" target="_top" xlink:title=" Write linear wind look up tables to disk along with the parameters for that table ...">
<polygon fill="white" stroke="black" points="297,-0.5 297,-30.5 408,-30.5 408,-0.5 297,-0.5"/>
<text text-anchor="start" x="305" y="-18.5" font-family="Helvetica,sans-Serif" font-size="10.00">linear_theory_lut_disk</text>
<text text-anchor="middle" x="352.5" y="-7.5" font-family="Helvetica,sans-Serif" font-size="10.00">_io::write_lut</text>
</a>
</g>
</g>
<!-- Node5&#45;&gt;Node15 -->
<g id="edge14" class="edge"><title>Node5&#45;&gt;Node15</title>
<path fill="none" stroke="midnightblue" d="M218.126,-98.2303C236.651,-82.2228 267.505,-57.0104 297,-39.5 299.5,-38.0156 302.109,-36.5677 304.772,-35.1662"/>
<polygon fill="midnightblue" stroke="midnightblue" points="306.565,-38.1834 313.958,-30.5942 303.446,-31.9167 306.565,-38.1834"/>
</g>
<!-- Node7 -->
<g id="node7" class="node"><title>Node7</title>
<g id="a_node7"><a xlink:href="classio__routines.html#a2f5490f632bd50662c7da9fd964e88e3" target="_top" xlink:title=" Tests to see if a file exists ">
<polygon fill="white" stroke="black" points="444,-57 444,-76 558,-76 558,-57 444,-57"/>
<text text-anchor="middle" x="501" y="-64" font-family="Helvetica,sans-Serif" font-size="10.00">io_routines::file_exists</text>
</a>
</g>
</g>
<!-- Node6&#45;&gt;Node7 -->
<g id="edge6" class="edge"><title>Node6&#45;&gt;Node7</title>
<path fill="none" stroke="midnightblue" d="M392.689,-196.374C398.087,-193.492 403.362,-190.2 408,-186.5 444.575,-157.321 474.815,-110.606 489.813,-84.9161"/>
<polygon fill="midnightblue" stroke="midnightblue" points="492.882,-86.6005 494.797,-76.1801 486.802,-83.1321 492.882,-86.6005"/>
</g>
<!-- Node8 -->
<g id="node8" class="node"><title>Node8</title>
<g id="a_node8"><a xlink:href="classlinear__theory__lut__disk__io.html#a941618f7357edb1ceb9ecfa66f9c8151" target="_top" xlink:title=" Check that the dimensions of a LUT file and current expected LUT match ">
<polygon fill="white" stroke="black" points="445.5,-220.5 445.5,-250.5 556.5,-250.5 556.5,-220.5 445.5,-220.5"/>
<text text-anchor="start" x="453.5" y="-238.5" font-family="Helvetica,sans-Serif" font-size="10.00">linear_theory_lut_disk</text>
<text text-anchor="middle" x="501" y="-227.5" font-family="Helvetica,sans-Serif" font-size="10.00">_io::dims_match</text>
</a>
</g>
</g>
<!-- Node6&#45;&gt;Node8 -->
<g id="edge7" class="edge"><title>Node6&#45;&gt;Node8</title>
<path fill="none" stroke="midnightblue" d="M408.051,-220.437C416.917,-221.889 426.175,-223.406 435.256,-224.893"/>
<polygon fill="midnightblue" stroke="midnightblue" points="434.969,-228.393 445.403,-226.556 436.101,-221.485 434.969,-228.393"/>
</g>
<!-- Node11 -->
<g id="node11" class="node"><title>Node11</title>
<g id="a_node11"><a xlink:href="classlinear__theory__lut__disk__io.html#acd8076f02eabf99278d4b3f142688be2" target="_top" xlink:title=" Check that the dz level thicknesses of a LUT file and current domain match ">
<polygon fill="white" stroke="black" points="445.5,-171.5 445.5,-201.5 556.5,-201.5 556.5,-171.5 445.5,-171.5"/>
<text text-anchor="start" x="453.5" y="-189.5" font-family="Helvetica,sans-Serif" font-size="10.00">linear_theory_lut_disk</text>
<text text-anchor="middle" x="501" y="-178.5" font-family="Helvetica,sans-Serif" font-size="10.00">_io::check_dz</text>
</a>
</g>
</g>
<!-- Node6&#45;&gt;Node11 -->
<g id="edge10" class="edge"><title>Node6&#45;&gt;Node11</title>
<path fill="none" stroke="midnightblue" d="M408.051,-202.191C416.917,-200.678 426.175,-199.098 435.256,-197.548"/>
<polygon fill="midnightblue" stroke="midnightblue" points="436.135,-200.949 445.403,-195.817 434.957,-194.049 436.135,-200.949"/>
</g>
<!-- Node9 -->
<g id="node9" class="node"><title>Node9</title>
<g id="a_node9"><a xlink:href="classio__routines.html#ae987ea578b7a3fe5c0d51363e0f154a7" target="_top" xlink:title=" Read the dimensions of a variable in a given netcdf file ">
<polygon fill="white" stroke="black" points="594,-226 594,-245 711,-245 711,-226 594,-226"/>
<text text-anchor="middle" x="652.5" y="-233" font-family="Helvetica,sans-Serif" font-size="10.00">io_routines::io_getdims</text>
</a>
</g>
</g>
<!-- Node8&#45;&gt;Node9 -->
<g id="edge8" class="edge"><title>Node8&#45;&gt;Node9</title>
<path fill="none" stroke="midnightblue" d="M556.819,-235.5C565.599,-235.5 574.774,-235.5 583.81,-235.5"/>
<polygon fill="midnightblue" stroke="midnightblue" points="583.925,-239 593.925,-235.5 583.925,-232 583.925,-239"/>
</g>
<!-- Node10 -->
<g id="node10" class="node"><title>Node10</title>
<g id="a_node10"><a xlink:href="classio__routines.html#ac4835ed66f2e10d8e5bb40f6122f0ca1" target="_top" xlink:title=" Simple error handling for common netcdf file errors ">
<polygon fill="white" stroke="black" points="747,-226 747,-245 843,-245 843,-226 747,-226"/>
<text text-anchor="middle" x="795" y="-233" font-family="Helvetica,sans-Serif" font-size="10.00">io_routines::check</text>
</a>
</g>
</g>
<!-- Node9&#45;&gt;Node10 -->
<g id="edge9" class="edge"><title>Node9&#45;&gt;Node10</title>
<path fill="none" stroke="midnightblue" d="M711.052,-235.5C719.457,-235.5 728.113,-235.5 736.516,-235.5"/>
<polygon fill="midnightblue" stroke="midnightblue" points="736.608,-239 746.608,-235.5 736.608,-232 736.608,-239"/>
</g>
<!-- Node15&#45;&gt;Node7 -->
<g id="edge15" class="edge"><title>Node15&#45;&gt;Node7</title>
<path fill="none" stroke="midnightblue" d="M396.662,-30.5258C417.697,-37.8485 442.738,-46.5658 462.902,-53.5852"/>
<polygon fill="midnightblue" stroke="midnightblue" points="461.774,-56.8987 472.369,-56.8811 464.076,-50.2879 461.774,-56.8987"/>
</g>
</g>
</svg>
