<?xml version="1.0" encoding="UTF-8" standalone="no"?>
<!DOCTYPE svg PUBLIC "-//W3C//DTD SVG 1.1//EN"
 "http://www.w3.org/Graphics/SVG/1.1/DTD/svg11.dtd">
<!-- Generated by graphviz version 2.32.0 (20130809.1645)
 -->
<!-- Title: boundary_conditions::bc_find_step Pages: 1 -->
<svg width="324pt" height="61pt"
 viewBox="0.00 0.00 324.00 61.00" xmlns="http://www.w3.org/2000/svg" xmlns:xlink="http://www.w3.org/1999/xlink">
<g id="graph0" class="graph" transform="scale(1 1) rotate(0) translate(4 57)">
<title>boundary_conditions::bc_find_step</title>
<polygon fill="white" stroke="white" points="-4,5 -4,-57 321,-57 321,5 -4,5"/>
<!-- Node1 -->
<g id="node1" class="node"><title>Node1</title>
<polygon fill="#bfbfbf" stroke="black" points="0,-1 0,-31 106,-31 106,-1 0,-1"/>
<text text-anchor="start" x="8" y="-19" font-family="Helvetica,sans-Serif" font-size="10.00">boundary_conditions</text>
<text text-anchor="middle" x="53" y="-8" font-family="Helvetica,sans-Serif" font-size="10.00">::bc_find_step</text>
</g>
<!-- Node2 -->
<g id="node2" class="node"><title>Node2</title>
<g id="a_node2"><a xlink:href="classboundary__conditions.html#a07a42f467f470ada98e0a35fd5a75f66" target="_top" xlink:title=" Initialize the boundary conditions (read inital conditions, etc.) ">
<polygon fill="white" stroke="black" points="142,-23 142,-53 248,-53 248,-23 142,-23"/>
<text text-anchor="start" x="150" y="-41" font-family="Helvetica,sans-Serif" font-size="10.00">boundary_conditions</text>
<text text-anchor="middle" x="195" y="-30" font-family="Helvetica,sans-Serif" font-size="10.00">::bc_init</text>
</a>
</g>
</g>
<!-- Node1&#45;&gt;Node2 -->
<g id="edge1" class="edge"><title>Node1&#45;&gt;Node2</title>
<path fill="none" stroke="midnightblue" d="M116.107,-25.7596C124.695,-27.1091 133.443,-28.4839 141.826,-29.8012"/>
<polygon fill="midnightblue" stroke="midnightblue" points="116.553,-22.2869 106.131,-24.192 115.466,-29.202 116.553,-22.2869"/>
</g>
<!-- Node3 -->
<g id="node3" class="node"><title>Node3</title>
<g id="a_node3"><a xlink:href="driver_8f90.html#ab1e5a5816a57fc6e95d9563c2bb53590" target="_top" xlink:title=" Main Program ">
<polygon fill="white" stroke="black" points="284,-6.5 284,-25.5 316,-25.5 316,-6.5 284,-6.5"/>
<text text-anchor="middle" x="300" y="-13.5" font-family="Helvetica,sans-Serif" font-size="10.00">icar</text>
</a>
</g>
</g>
<!-- Node1&#45;&gt;Node3 -->
<g id="edge3" class="edge"><title>Node1&#45;&gt;Node3</title>
<path fill="none" stroke="midnightblue" d="M116.688,-14.4041C154.685,-13.6732 204.136,-13.1402 248,-14 260.049,-14.2362 273.689,-14.7858 283.83,-15.2493"/>
<polygon fill="midnightblue" stroke="midnightblue" points="116.216,-10.9128 106.289,-14.6145 116.358,-17.9114 116.216,-10.9128"/>
</g>
<!-- Node2&#45;&gt;Node3 -->
<g id="edge2" class="edge"><title>Node2&#45;&gt;Node3</title>
<path fill="none" stroke="midnightblue" d="M258.071,-24.7421C267.517,-22.7244 276.468,-20.8126 283.576,-19.2944"/>
<polygon fill="midnightblue" stroke="midnightblue" points="257.152,-21.3594 248.104,-26.8711 258.614,-28.205 257.152,-21.3594"/>
</g>
</g>
</svg>
