<?xml version="1.0" encoding="UTF-8" standalone="no"?>
<!DOCTYPE svg PUBLIC "-//W3C//DTD SVG 1.1//EN"
 "http://www.w3.org/Graphics/SVG/1.1/DTD/svg11.dtd">
<!-- Generated by graphviz version 2.32.0 (20130809.1645)
 -->
<!-- Title: module_bl_ysu::tridin Pages: 1 -->
<svg width="408pt" height="28pt"
 viewBox="0.00 0.00 408.00 28.00" xmlns="http://www.w3.org/2000/svg" xmlns:xlink="http://www.w3.org/1999/xlink">
<g id="graph0" class="graph" transform="scale(1 1) rotate(0) translate(4 24)">
<title>module_bl_ysu::tridin</title>
<polygon fill="white" stroke="white" points="-4,5 -4,-24 405,-24 405,5 -4,5"/>
<!-- Node1 -->
<g id="node1" class="node"><title>Node1</title>
<polygon fill="#bfbfbf" stroke="black" points="0.5,-0.5 0.5,-19.5 109.5,-19.5 109.5,-0.5 0.5,-0.5"/>
<text text-anchor="middle" x="55" y="-7.5" font-family="Helvetica,sans-Serif" font-size="10.00">module_bl_ysu::tridin</text>
</g>
<!-- Node2 -->
<g id="node2" class="node"><title>Node2</title>
<g id="a_node2"><a xlink:href="classmodule__bl__ysu.html#afb152e741c8b1d0fc4c164cb95e39872" target="_top" xlink:title="module_bl_ysu::ysu2d">
<polygon fill="white" stroke="black" points="146,-0.5 146,-19.5 260,-19.5 260,-0.5 146,-0.5"/>
<text text-anchor="middle" x="203" y="-7.5" font-family="Helvetica,sans-Serif" font-size="10.00">module_bl_ysu::ysu2d</text>
</a>
</g>
</g>
<!-- Node1&#45;&gt;Node2 -->
<g id="edge1" class="edge"><title>Node1&#45;&gt;Node2</title>
<path fill="none" stroke="midnightblue" d="M119.566,-10C128.205,-10 137.024,-10 145.526,-10"/>
<polygon fill="midnightblue" stroke="midnightblue" points="119.536,-6.5001 109.536,-10 119.536,-13.5001 119.536,-6.5001"/>
</g>
<!-- Node3 -->
<g id="node3" class="node"><title>Node3</title>
<g id="a_node3"><a xlink:href="classmodule__bl__ysu.html#a3b97629a41ff90adec716d60fa477ebf" target="_top" xlink:title="module_bl_ysu::ysu">
<polygon fill="white" stroke="black" points="296,-0.5 296,-19.5 400,-19.5 400,-0.5 296,-0.5"/>
<text text-anchor="middle" x="348" y="-7.5" font-family="Helvetica,sans-Serif" font-size="10.00">module_bl_ysu::ysu</text>
</a>
</g>
</g>
<!-- Node2&#45;&gt;Node3 -->
<g id="edge2" class="edge"><title>Node2&#45;&gt;Node3</title>
<path fill="none" stroke="midnightblue" d="M270.118,-10C278.712,-10 287.411,-10 295.713,-10"/>
<polygon fill="midnightblue" stroke="midnightblue" points="270.107,-6.5001 260.107,-10 270.107,-13.5001 270.107,-6.5001"/>
</g>
</g>
</svg>
