<?xml version="1.0" encoding="UTF-8" standalone="no"?>
<!DOCTYPE svg PUBLIC "-//W3C//DTD SVG 1.1//EN"
 "http://www.w3.org/Graphics/SVG/1.1/DTD/svg11.dtd">
<!-- Generated by graphviz version 2.32.0 (20130809.1645)
 -->
<!-- Title: output::write_domain Pages: 1 -->
<svg width="398pt" height="229pt"
 viewBox="0.00 0.00 398.00 229.00" xmlns="http://www.w3.org/2000/svg" xmlns:xlink="http://www.w3.org/1999/xlink">
<g id="graph0" class="graph" transform="scale(1 1) rotate(0) translate(4 225)">
<title>output::write_domain</title>
<polygon fill="white" stroke="white" points="-4,5 -4,-225 395,-225 395,5 -4,5"/>
<!-- Node1 -->
<g id="node1" class="node"><title>Node1</title>
<polygon fill="#bfbfbf" stroke="black" points="0.5,-106.5 0.5,-125.5 107.5,-125.5 107.5,-106.5 0.5,-106.5"/>
<text text-anchor="middle" x="54" y="-113.5" font-family="Helvetica,sans-Serif" font-size="10.00">output::write_domain</text>
</g>
<!-- Node2 -->
<g id="node2" class="node"><title>Node2</title>
<g id="a_node2"><a xlink:href="classtime.html#a8736f37f83c6d8f62957c70df2239693" target="_top" xlink:title="time::calendar_date">
<polygon fill="white" stroke="black" points="150,-201.5 150,-220.5 252,-220.5 252,-201.5 150,-201.5"/>
<text text-anchor="middle" x="201" y="-208.5" font-family="Helvetica,sans-Serif" font-size="10.00">time::calendar_date</text>
</a>
</g>
</g>
<!-- Node1&#45;&gt;Node2 -->
<g id="edge1" class="edge"><title>Node1&#45;&gt;Node2</title>
<path fill="none" stroke="midnightblue" d="M63.9546,-125.75C79.0503,-141.666 111.146,-173.322 144,-192 147.665,-194.083 151.595,-195.987 155.611,-197.716"/>
<polygon fill="midnightblue" stroke="midnightblue" points="154.465,-201.026 165.052,-201.432 157.029,-194.513 154.465,-201.026"/>
</g>
<!-- Node3 -->
<g id="node3" class="node"><title>Node3</title>
<g id="a_node3"><a xlink:href="classio__routines.html#a2f5490f632bd50662c7da9fd964e88e3" target="_top" xlink:title=" Tests to see if a file exists ">
<polygon fill="white" stroke="black" points="144,-163.5 144,-182.5 258,-182.5 258,-163.5 144,-163.5"/>
<text text-anchor="middle" x="201" y="-170.5" font-family="Helvetica,sans-Serif" font-size="10.00">io_routines::file_exists</text>
</a>
</g>
</g>
<!-- Node1&#45;&gt;Node3 -->
<g id="edge2" class="edge"><title>Node1&#45;&gt;Node3</title>
<path fill="none" stroke="midnightblue" d="M79.2697,-125.541C103.108,-134.912 139.679,-149.288 166.325,-159.762"/>
<polygon fill="midnightblue" stroke="midnightblue" points="165.064,-163.027 175.651,-163.428 167.625,-156.512 165.064,-163.027"/>
</g>
<!-- Node4 -->
<g id="node4" class="node"><title>Node4</title>
<g id="a_node4"><a xlink:href="classio__routines.html#ac4835ed66f2e10d8e5bb40f6122f0ca1" target="_top" xlink:title=" Simple error handling for common netcdf file errors ">
<polygon fill="white" stroke="black" points="294,-87.5 294,-106.5 390,-106.5 390,-87.5 294,-87.5"/>
<text text-anchor="middle" x="342" y="-94.5" font-family="Helvetica,sans-Serif" font-size="10.00">io_routines::check</text>
</a>
</g>
</g>
<!-- Node1&#45;&gt;Node4 -->
<g id="edge3" class="edge"><title>Node1&#45;&gt;Node4</title>
<path fill="none" stroke="midnightblue" d="M107.758,-119.236C148.839,-120.976 207.221,-121.738 258,-116 270.981,-114.533 284.891,-111.815 297.542,-108.884"/>
<polygon fill="midnightblue" stroke="midnightblue" points="298.477,-112.258 307.375,-106.507 296.833,-105.454 298.477,-112.258"/>
</g>
<!-- Node5 -->
<g id="node5" class="node"><title>Node5</title>
<g id="a_node5"><a xlink:href="classoutput.html#a92fd667efbd13e99735e947dc0344b30" target="_top" xlink:title=" Set up the varids for an existing NetCDF file by searching for the variable name ...">
<polygon fill="white" stroke="black" points="148.5,-87.5 148.5,-106.5 253.5,-106.5 253.5,-87.5 148.5,-87.5"/>
<text text-anchor="middle" x="201" y="-94.5" font-family="Helvetica,sans-Serif" font-size="10.00">output::setup_varids</text>
</a>
</g>
</g>
<!-- Node1&#45;&gt;Node5 -->
<g id="edge4" class="edge"><title>Node1&#45;&gt;Node5</title>
<path fill="none" stroke="midnightblue" d="M107.759,-109.087C117.718,-107.782 128.216,-106.406 138.419,-105.069"/>
<polygon fill="midnightblue" stroke="midnightblue" points="139.032,-108.519 148.492,-103.749 138.122,-101.578 139.032,-108.519"/>
</g>
<!-- Node6 -->
<g id="node6" class="node"><title>Node6</title>
<g id="a_node6"><a xlink:href="classoutput.html#abf88076008ba1520740fd573165ee72d" target="_top" xlink:title=" Creates a new NetCDF output file ">
<polygon fill="white" stroke="black" points="153.5,-49.5 153.5,-68.5 248.5,-68.5 248.5,-49.5 153.5,-49.5"/>
<text text-anchor="middle" x="201" y="-56.5" font-family="Helvetica,sans-Serif" font-size="10.00">output::create_file</text>
</a>
</g>
</g>
<!-- Node1&#45;&gt;Node6 -->
<g id="edge6" class="edge"><title>Node1&#45;&gt;Node6</title>
<path fill="none" stroke="midnightblue" d="M76.0336,-106.481C93.9516,-98.5019 120.462,-87.003 144,-78 149.467,-75.9088 155.277,-73.8067 161.005,-71.8022"/>
<polygon fill="midnightblue" stroke="midnightblue" points="162.176,-75.1011 170.494,-68.5401 159.9,-68.4813 162.176,-75.1011"/>
</g>
<!-- Node7 -->
<g id="node7" class="node"><title>Node7</title>
<g id="a_node7"><a xlink:href="classoutput.html#abbaeecac70df7edca0eba97e75fa9c7a" target="_top" xlink:title=" Keeps accumulated precip variables in reasonable bounds with a &quot;bucket&quot; ">
<polygon fill="white" stroke="black" points="155,-0 155,-30 247,-30 247,-0 155,-0"/>
<text text-anchor="start" x="163" y="-18" font-family="Helvetica,sans-Serif" font-size="10.00">output::tip_precip</text>
<text text-anchor="middle" x="201" y="-7" font-family="Helvetica,sans-Serif" font-size="10.00">_to_buckets</text>
</a>
</g>
</g>
<!-- Node1&#45;&gt;Node7 -->
<g id="edge8" class="edge"><title>Node1&#45;&gt;Node7</title>
<path fill="none" stroke="midnightblue" d="M64.6591,-106.084C80.2423,-90.4915 112.391,-59.9641 144,-40 146.924,-38.1531 150.008,-36.3724 153.164,-34.6707"/>
<polygon fill="midnightblue" stroke="midnightblue" points="154.843,-37.7434 162.175,-30.0955 151.674,-31.5018 154.843,-37.7434"/>
</g>
<!-- Node5&#45;&gt;Node4 -->
<g id="edge5" class="edge"><title>Node5&#45;&gt;Node4</title>
<path fill="none" stroke="midnightblue" d="M253.758,-97C263.497,-97 273.734,-97 283.632,-97"/>
<polygon fill="midnightblue" stroke="midnightblue" points="283.789,-100.5 293.789,-97 283.789,-93.5001 283.789,-100.5"/>
</g>
<!-- Node6&#45;&gt;Node4 -->
<g id="edge7" class="edge"><title>Node6&#45;&gt;Node4</title>
<path fill="none" stroke="midnightblue" d="M237.076,-68.589C255.019,-73.4944 277.058,-79.5196 296.217,-84.7571"/>
<polygon fill="midnightblue" stroke="midnightblue" points="295.367,-88.1531 305.936,-87.4141 297.213,-81.4008 295.367,-88.1531"/>
</g>
</g>
</svg>
