<?xml version="1.0" encoding="UTF-8" standalone="no"?>
<!DOCTYPE svg PUBLIC "-//W3C//DTD SVG 1.1//EN"
 "http://www.w3.org/Graphics/SVG/1.1/DTD/svg11.dtd">
<!-- Generated by graphviz version 2.38.0 (20140413.2041)
 -->
<!-- Title: time::time_init Pages: 1 -->
<svg width="544pt" height="39pt"
 viewBox="0.00 0.00 544.00 39.00" xmlns="http://www.w3.org/2000/svg" xmlns:xlink="http://www.w3.org/1999/xlink">
<g id="graph0" class="graph" transform="scale(1 1) rotate(0) translate(4 35)">
<title>time::time_init</title>
<polygon fill="white" stroke="none" points="-4,4 -4,-35 540,-35 540,4 -4,4"/>
<!-- Node1 -->
<g id="node1" class="node"><title>Node1</title>
<polygon fill="#bfbfbf" stroke="black" points="0,-6 0,-25 78,-25 78,-6 0,-6"/>
<text text-anchor="middle" x="39" y="-13" font-family="Helvetica,sans-Serif" font-size="10.00">time::time_init</text>
</g>
<!-- Node2 -->
<g id="node2" class="node"><title>Node2</title>
<g id="a_node2"><a xlink:href="classinitialize__options.html#ab0058e1f8dbc07d787cc0705c5d9366a" target="_top" xlink:title="initialize_options\l::parameters_namelist">
<polygon fill="white" stroke="black" points="114,-0.5 114,-30.5 227,-30.5 227,-0.5 114,-0.5"/>
<text text-anchor="start" x="122" y="-18.5" font-family="Helvetica,sans-Serif" font-size="10.00">initialize_options</text>
<text text-anchor="middle" x="170.5" y="-7.5" font-family="Helvetica,sans-Serif" font-size="10.00">::parameters_namelist</text>
</a>
</g>
</g>
<!-- Node1&#45;&gt;Node2 -->
<g id="edge1" class="edge"><title>Node1&#45;&gt;Node2</title>
<path fill="none" stroke="midnightblue" d="M88.4154,-15.5C96.7137,-15.5 105.395,-15.5 113.864,-15.5"/>
<polygon fill="midnightblue" stroke="midnightblue" points="88.1539,-12.0001 78.1539,-15.5 88.1538,-19.0001 88.1539,-12.0001"/>
</g>
<!-- Node3 -->
<g id="node3" class="node"><title>Node3</title>
<g id="a_node3"><a xlink:href="classinitialize__options.html#a571709045f201082c9735408ef2f28e3" target="_top" xlink:title="initialize_options\l::init_options">
<polygon fill="white" stroke="black" points="263,-0.5 263,-30.5 352,-30.5 352,-0.5 263,-0.5"/>
<text text-anchor="start" x="271" y="-18.5" font-family="Helvetica,sans-Serif" font-size="10.00">initialize_options</text>
<text text-anchor="middle" x="307.5" y="-7.5" font-family="Helvetica,sans-Serif" font-size="10.00">::init_options</text>
</a>
</g>
</g>
<!-- Node2&#45;&gt;Node3 -->
<g id="edge2" class="edge"><title>Node2&#45;&gt;Node3</title>
<path fill="none" stroke="midnightblue" d="M237.325,-15.5C246.003,-15.5 254.719,-15.5 262.897,-15.5"/>
<polygon fill="midnightblue" stroke="midnightblue" points="237.189,-12.0001 227.189,-15.5 237.189,-19.0001 237.189,-12.0001"/>
</g>
<!-- Node4 -->
<g id="node4" class="node"><title>Node4</title>
<g id="a_node4"><a xlink:href="classinit.html#a1dd1e2b38eef39cba464f65c9ce82568" target="_top" xlink:title="init::init_model">
<polygon fill="white" stroke="black" points="388,-6 388,-25 468,-25 468,-6 388,-6"/>
<text text-anchor="middle" x="428" y="-13" font-family="Helvetica,sans-Serif" font-size="10.00">init::init_model</text>
</a>
</g>
</g>
<!-- Node3&#45;&gt;Node4 -->
<g id="edge3" class="edge"><title>Node3&#45;&gt;Node4</title>
<path fill="none" stroke="midnightblue" d="M362.517,-15.5C371,-15.5 379.627,-15.5 387.696,-15.5"/>
<polygon fill="midnightblue" stroke="midnightblue" points="362.288,-12.0001 352.288,-15.5 362.288,-19.0001 362.288,-12.0001"/>
</g>
<!-- Node5 -->
<g id="node5" class="node"><title>Node5</title>
<g id="a_node5"><a xlink:href="driver_8f90.html#ab1e5a5816a57fc6e95d9563c2bb53590" target="_top" xlink:title=" Main Program ">
<polygon fill="white" stroke="black" points="504,-6 504,-25 536,-25 536,-6 504,-6"/>
<text text-anchor="middle" x="520" y="-13" font-family="Helvetica,sans-Serif" font-size="10.00">icar</text>
</a>
</g>
</g>
<!-- Node4&#45;&gt;Node5 -->
<g id="edge4" class="edge"><title>Node4&#45;&gt;Node5</title>
<path fill="none" stroke="midnightblue" d="M478.233,-15.5C487.449,-15.5 496.425,-15.5 503.599,-15.5"/>
<polygon fill="midnightblue" stroke="midnightblue" points="478.214,-12.0001 468.213,-15.5 478.213,-19.0001 478.214,-12.0001"/>
</g>
</g>
</svg>
