<?xml version="1.0" encoding="UTF-8" standalone="no"?>
<!DOCTYPE svg PUBLIC "-//W3C//DTD SVG 1.1//EN"
 "http://www.w3.org/Graphics/SVG/1.1/DTD/svg11.dtd">
<!-- Generated by graphviz version 2.38.0 (20140413.2041)
 -->
<!-- Title: convection::convect Pages: 1 -->
<!--zoomable 744 -->
<svg id="main" version="1.1" xmlns="http://www.w3.org/2000/svg" xmlns:xlink="http://www.w3.org/1999/xlink" xml:space="preserve" onload="init(evt)">
<style type="text/css"><![CDATA[
.edge:hover path { stroke: red; }
.edge:hover polygon { stroke: red; fill: red; }
]]></style>
<script type="text/javascript"><![CDATA[
var edges = document.getElementsByTagName('g');
if (edges && edges.length) {
  for (var i=0;i<edges.length;i++) {
    if (edges[i].id.substr(0,4)=='edge') {
      edges[i].setAttribute('class','edge');
    }
  }
}
]]></script>
        <defs>
                <circle id="rim" cx="0" cy="0" r="7"/>
                <circle id="rim2" cx="0" cy="0" r="3.5"/>
                <g id="zoomPlus">
                        <use xlink:href="#rim" fill="#404040">
                                <set attributeName="fill" to="#808080" begin="zoomplus.mouseover" end="zoomplus.mouseout"/>
                        </use>
                        <path d="M-4,0h8M0,-4v8" fill="none" stroke="white" stroke-width="1.5" pointer-events="none"/>
                </g>
                <g id="zoomMin">
                        <use xlink:href="#rim" fill="#404040">
                                <set attributeName="fill" to="#808080" begin="zoomminus.mouseover" end="zoomminus.mouseout"/>
                        </use>
                        <path d="M-4,0h8" fill="none" stroke="white" stroke-width="1.5" pointer-events="none"/>
                </g>
                <g id="dirArrow">
                        <path fill="none" stroke="white" stroke-width="1.5" d="M0,-3.0v7 M-2.5,-0.5L0,-3.0L2.5,-0.5"/>
                </g>
               <g id="resetDef">
                       <use xlink:href="#rim2" fill="#404040">
                               <set attributeName="fill" to="#808080" begin="reset.mouseover" end="reset.mouseout"/>
                       </use>
               </g>
        </defs>

<script type="text/javascript">
var viewWidth = 1179;
var viewHeight = 744;
var sectionId = 'dynsection-0';
</script>
<script xlink:href="svgpan.js"/>
<svg id="graph" class="graph">
<g id="viewport">
<title>convection::convect</title>
<polygon fill="white" stroke="none" points="-4,4 -4,-739.5 1175,-739.5 1175,4 -4,4"/>
<!-- Node1 -->
<g id="node1" class="node"><title>Node1</title>
<polygon fill="#bfbfbf" stroke="black" points="0,-208.5 0,-227.5 104,-227.5 104,-208.5 0,-208.5"/>
<text text-anchor="middle" x="52" y="-215.5" font-family="Helvetica,sans-Serif" font-size="10.00">convection::convect</text>
</g>
<!-- Node2 -->
<g id="node2" class="node"><title>Node2</title>
<g id="a_node2"><a xlink:href="classmodule__cu__tiedtke.html#ae3fdba4e560c50ab3f6b9f1e30f2f255" target="_top" xlink:title="module_cu_tiedtke::\lcu_tiedtke">
<polygon fill="white" stroke="black" points="141.5,-254 141.5,-284 245.5,-284 245.5,-254 141.5,-254"/>
<text text-anchor="start" x="149.5" y="-272" font-family="Helvetica,sans-Serif" font-size="10.00">module_cu_tiedtke::</text>
<text text-anchor="middle" x="193.5" y="-261" font-family="Helvetica,sans-Serif" font-size="10.00">cu_tiedtke</text>
</a>
</g>
</g>
<!-- Node1&#45;&gt;Node2 -->
<g id="edge1" class="edge"><title>Node1&#45;&gt;Node2</title>
<path fill="none" stroke="midnightblue" d="M79.2389,-227.593C96.8287,-234.023 120.565,-242.701 141.765,-250.452"/>
<polygon fill="midnightblue" stroke="midnightblue" points="140.702,-253.789 151.295,-253.936 143.105,-247.215 140.702,-253.789"/>
</g>
<!-- Node21 -->
<g id="node21" class="node"><title>Node21</title>
<g id="a_node21"><a xlink:href="classmodule__cu__kf.html#a273d9ce9bce064bfc092d6940bea4e27" target="_top" xlink:title="module_cu_kf::kfcps">
<polygon fill="white" stroke="black" points="140,-157.5 140,-176.5 247,-176.5 247,-157.5 140,-157.5"/>
<text text-anchor="middle" x="193.5" y="-164.5" font-family="Helvetica,sans-Serif" font-size="10.00">module_cu_kf::kfcps</text>
</a>
</g>
</g>
<!-- Node1&#45;&gt;Node21 -->
<g id="edge28" class="edge"><title>Node1&#45;&gt;Node21</title>
<path fill="none" stroke="midnightblue" d="M79.2389,-208.407C101.159,-200.393 132.625,-188.89 156.831,-180.04"/>
<polygon fill="midnightblue" stroke="midnightblue" points="158.189,-183.271 166.379,-176.55 155.785,-176.696 158.189,-183.271"/>
</g>
<!-- Node3 -->
<g id="node3" class="node"><title>Node3</title>
<g id="a_node3"><a xlink:href="classmodule__cu__tiedtke.html#ae9c234f80f55688e10c72091b6c673dc" target="_top" xlink:title="module_cu_tiedtke::\ltiecnv">
<polygon fill="white" stroke="black" points="286,-269 286,-299 390,-299 390,-269 286,-269"/>
<text text-anchor="start" x="294" y="-287" font-family="Helvetica,sans-Serif" font-size="10.00">module_cu_tiedtke::</text>
<text text-anchor="middle" x="338" y="-276" font-family="Helvetica,sans-Serif" font-size="10.00">tiecnv</text>
</a>
</g>
</g>
<!-- Node2&#45;&gt;Node3 -->
<g id="edge2" class="edge"><title>Node2&#45;&gt;Node3</title>
<path fill="none" stroke="midnightblue" d="M245.543,-274.373C255.366,-275.407 265.748,-276.5 275.853,-277.563"/>
<polygon fill="midnightblue" stroke="midnightblue" points="275.523,-281.048 285.834,-278.614 276.256,-274.086 275.523,-281.048"/>
</g>
<!-- Node4 -->
<g id="node4" class="node"><title>Node4</title>
<g id="a_node4"><a xlink:href="classmodule__cu__tiedtke.html#af662362ac33920875481aff9ea3c31d6" target="_top" xlink:title="module_cu_tiedtke::\ltlucua">
<polygon fill="white" stroke="black" points="922,-374 922,-404 1026,-404 1026,-374 922,-374"/>
<text text-anchor="start" x="930" y="-392" font-family="Helvetica,sans-Serif" font-size="10.00">module_cu_tiedtke::</text>
<text text-anchor="middle" x="974" y="-381" font-family="Helvetica,sans-Serif" font-size="10.00">tlucua</text>
</a>
</g>
</g>
<!-- Node3&#45;&gt;Node4 -->
<g id="edge3" class="edge"><title>Node3&#45;&gt;Node4</title>
<path fill="none" stroke="midnightblue" d="M390.017,-275.775C488.571,-262.131 710.283,-242.455 879,-309 909.351,-320.971 936.849,-346.999 954.152,-366.13"/>
<polygon fill="midnightblue" stroke="midnightblue" points="951.695,-368.637 960.922,-373.845 956.957,-364.02 951.695,-368.637"/>
</g>
<!-- Node5 -->
<g id="node5" class="node"><title>Node5</title>
<g id="a_node5"><a xlink:href="classmodule__cu__tiedtke.html#a8840397e245a13cbb7c61f8cea6e7894" target="_top" xlink:title="module_cu_tiedtke::\lcumastr_new">
<polygon fill="white" stroke="black" points="438,-485 438,-515 542,-515 542,-485 438,-485"/>
<text text-anchor="start" x="446" y="-503" font-family="Helvetica,sans-Serif" font-size="10.00">module_cu_tiedtke::</text>
<text text-anchor="middle" x="490" y="-492" font-family="Helvetica,sans-Serif" font-size="10.00">cumastr_new</text>
</a>
</g>
</g>
<!-- Node3&#45;&gt;Node5 -->
<g id="edge4" class="edge"><title>Node3&#45;&gt;Node5</title>
<path fill="none" stroke="midnightblue" d="M349.548,-299.189C375.314,-336.292 441.609,-431.757 472.589,-476.368"/>
<polygon fill="midnightblue" stroke="midnightblue" points="469.885,-478.611 478.464,-484.828 475.635,-474.618 469.885,-478.611"/>
</g>
<!-- Node6 -->
<g id="node6" class="node"><title>Node6</title>
<g id="a_node6"><a xlink:href="classmodule__cu__tiedtke.html#ad58bc964dc1ba2f7c52ec660f3ac783a" target="_top" xlink:title="module_cu_tiedtke::\lcuini">
<polygon fill="white" stroke="black" points="590,-607 590,-637 694,-637 694,-607 590,-607"/>
<text text-anchor="start" x="598" y="-625" font-family="Helvetica,sans-Serif" font-size="10.00">module_cu_tiedtke::</text>
<text text-anchor="middle" x="642" y="-614" font-family="Helvetica,sans-Serif" font-size="10.00">cuini</text>
</a>
</g>
</g>
<!-- Node5&#45;&gt;Node6 -->
<g id="edge5" class="edge"><title>Node5&#45;&gt;Node6</title>
<path fill="none" stroke="midnightblue" d="M502.607,-515.015C519.368,-535.886 552.178,-573.819 587,-598 589.065,-599.434 591.229,-600.813 593.454,-602.134"/>
<polygon fill="midnightblue" stroke="midnightblue" points="591.808,-605.223 602.262,-606.943 595.162,-599.079 591.808,-605.223"/>
</g>
<!-- Node10 -->
<g id="node10" class="node"><title>Node10</title>
<g id="a_node10"><a xlink:href="classmodule__cu__tiedtke.html#a252e2ab4e675cefd721c0e6b4c7d0796" target="_top" xlink:title="module_cu_tiedtke::\lcubase">
<polygon fill="white" stroke="black" points="590,-558 590,-588 694,-588 694,-558 590,-558"/>
<text text-anchor="start" x="598" y="-576" font-family="Helvetica,sans-Serif" font-size="10.00">module_cu_tiedtke::</text>
<text text-anchor="middle" x="642" y="-565" font-family="Helvetica,sans-Serif" font-size="10.00">cubase</text>
</a>
</g>
</g>
<!-- Node5&#45;&gt;Node10 -->
<g id="edge10" class="edge"><title>Node5&#45;&gt;Node10</title>
<path fill="none" stroke="midnightblue" d="M519.785,-515.203C538.75,-525.092 564.2,-538.124 587,-549 590.296,-550.572 593.719,-552.171 597.171,-553.759"/>
<polygon fill="midnightblue" stroke="midnightblue" points="595.753,-556.959 606.305,-557.91 598.649,-550.586 595.753,-556.959"/>
</g>
<!-- Node11 -->
<g id="node11" class="node"><title>Node11</title>
<g id="a_node11"><a xlink:href="classmodule__cu__tiedtke.html#a75265ba406fbb983606db3742939bc18" target="_top" xlink:title="module_cu_tiedtke::\lcutype">
<polygon fill="white" stroke="black" points="590,-509 590,-539 694,-539 694,-509 590,-509"/>
<text text-anchor="start" x="598" y="-527" font-family="Helvetica,sans-Serif" font-size="10.00">module_cu_tiedtke::</text>
<text text-anchor="middle" x="642" y="-516" font-family="Helvetica,sans-Serif" font-size="10.00">cutype</text>
</a>
</g>
</g>
<!-- Node5&#45;&gt;Node11 -->
<g id="edge12" class="edge"><title>Node5&#45;&gt;Node11</title>
<path fill="none" stroke="midnightblue" d="M542.202,-508.192C554.323,-510.132 567.37,-512.219 579.882,-514.221"/>
<polygon fill="midnightblue" stroke="midnightblue" points="579.347,-517.68 589.774,-515.804 580.453,-510.768 579.347,-517.68"/>
</g>
<!-- Node12 -->
<g id="node12" class="node"><title>Node12</title>
<g id="a_node12"><a xlink:href="classmodule__cu__tiedtke.html#ac9ae922d9f0655dae4887093c89d2909" target="_top" xlink:title="module_cu_tiedtke::\lcuasc_new">
<polygon fill="white" stroke="black" points="590,-362 590,-392 694,-392 694,-362 590,-362"/>
<text text-anchor="start" x="598" y="-380" font-family="Helvetica,sans-Serif" font-size="10.00">module_cu_tiedtke::</text>
<text text-anchor="middle" x="642" y="-369" font-family="Helvetica,sans-Serif" font-size="10.00">cuasc_new</text>
</a>
</g>
</g>
<!-- Node5&#45;&gt;Node12 -->
<g id="edge14" class="edge"><title>Node5&#45;&gt;Node12</title>
<path fill="none" stroke="midnightblue" d="M502.945,-484.707C519.852,-463.852 552.559,-426.31 587,-402 589.494,-400.24 592.131,-398.553 594.846,-396.946"/>
<polygon fill="midnightblue" stroke="midnightblue" points="596.612,-399.969 603.699,-392.092 593.247,-393.831 596.612,-399.969"/>
</g>
<!-- Node15 -->
<g id="node15" class="node"><title>Node15</title>
<g id="a_node15"><a xlink:href="classmodule__cu__tiedtke.html#ac30d7f0b03de20b3c35ae750e7b0b6d4" target="_top" xlink:title="module_cu_tiedtke::\lcudlfs">
<polygon fill="white" stroke="black" points="590,-460 590,-490 694,-490 694,-460 590,-460"/>
<text text-anchor="start" x="598" y="-478" font-family="Helvetica,sans-Serif" font-size="10.00">module_cu_tiedtke::</text>
<text text-anchor="middle" x="642" y="-467" font-family="Helvetica,sans-Serif" font-size="10.00">cudlfs</text>
</a>
</g>
</g>
<!-- Node5&#45;&gt;Node15 -->
<g id="edge20" class="edge"><title>Node5&#45;&gt;Node15</title>
<path fill="none" stroke="midnightblue" d="M542.202,-491.466C554.323,-489.446 567.37,-487.272 579.882,-485.186"/>
<polygon fill="midnightblue" stroke="midnightblue" points="580.486,-488.634 589.774,-483.538 579.335,-481.729 580.486,-488.634"/>
</g>
<!-- Node16 -->
<g id="node16" class="node"><title>Node16</title>
<g id="a_node16"><a xlink:href="classmodule__cu__tiedtke.html#a38ab6318e5e3bdd086bd5969c9728dc4" target="_top" xlink:title="module_cu_tiedtke::\lcuddraf">
<polygon fill="white" stroke="black" points="590,-411 590,-441 694,-441 694,-411 590,-411"/>
<text text-anchor="start" x="598" y="-429" font-family="Helvetica,sans-Serif" font-size="10.00">module_cu_tiedtke::</text>
<text text-anchor="middle" x="642" y="-418" font-family="Helvetica,sans-Serif" font-size="10.00">cuddraf</text>
</a>
</g>
</g>
<!-- Node5&#45;&gt;Node16 -->
<g id="edge22" class="edge"><title>Node5&#45;&gt;Node16</title>
<path fill="none" stroke="midnightblue" d="M519.842,-484.914C538.829,-475.073 564.284,-462.051 587,-451 590.815,-449.144 594.795,-447.241 598.79,-445.352"/>
<polygon fill="midnightblue" stroke="midnightblue" points="600.497,-448.418 608.065,-441.003 597.525,-442.08 600.497,-448.418"/>
</g>
<!-- Node17 -->
<g id="node17" class="node"><title>Node17</title>
<g id="a_node17"><a xlink:href="classmodule__cu__tiedtke.html#ae9117dff28b6b1fd04855f6e71e74b3a" target="_top" xlink:title="module_cu_tiedtke::\lcuflx">
<polygon fill="white" stroke="black" points="590,-313 590,-343 694,-343 694,-313 590,-313"/>
<text text-anchor="start" x="598" y="-331" font-family="Helvetica,sans-Serif" font-size="10.00">module_cu_tiedtke::</text>
<text text-anchor="middle" x="642" y="-320" font-family="Helvetica,sans-Serif" font-size="10.00">cuflx</text>
</a>
</g>
</g>
<!-- Node5&#45;&gt;Node17 -->
<g id="edge24" class="edge"><title>Node5&#45;&gt;Node17</title>
<path fill="none" stroke="midnightblue" d="M497.495,-484.665C510.533,-455.489 542.499,-391.477 587,-353 588.915,-351.345 590.957,-349.777 593.086,-348.296"/>
<polygon fill="midnightblue" stroke="midnightblue" points="594.973,-351.244 601.635,-343.006 591.289,-345.292 594.973,-351.244"/>
</g>
<!-- Node18 -->
<g id="node18" class="node"><title>Node18</title>
<g id="a_node18"><a xlink:href="classmodule__cu__tiedtke.html#a50e3681eeee419abf7eb4c94c7e09527" target="_top" xlink:title="module_cu_tiedtke::\lcudtdq">
<polygon fill="white" stroke="black" points="590,-705 590,-735 694,-735 694,-705 590,-705"/>
<text text-anchor="start" x="598" y="-723" font-family="Helvetica,sans-Serif" font-size="10.00">module_cu_tiedtke::</text>
<text text-anchor="middle" x="642" y="-712" font-family="Helvetica,sans-Serif" font-size="10.00">cudtdq</text>
</a>
</g>
</g>
<!-- Node5&#45;&gt;Node18 -->
<g id="edge25" class="edge"><title>Node5&#45;&gt;Node18</title>
<path fill="none" stroke="midnightblue" d="M494.586,-515.128C503.837,-551.111 531.745,-642.765 587,-696 588.108,-697.068 589.272,-698.093 590.481,-699.076"/>
<polygon fill="midnightblue" stroke="midnightblue" points="588.793,-702.165 599.007,-704.981 592.779,-696.41 588.793,-702.165"/>
</g>
<!-- Node19 -->
<g id="node19" class="node"><title>Node19</title>
<g id="a_node19"><a xlink:href="classmodule__cu__tiedtke.html#a37c132c8ddca6fc509a2fe98724600f2" target="_top" xlink:title="module_cu_tiedtke::\lcududv">
<polygon fill="white" stroke="black" points="590,-656 590,-686 694,-686 694,-656 590,-656"/>
<text text-anchor="start" x="598" y="-674" font-family="Helvetica,sans-Serif" font-size="10.00">module_cu_tiedtke::</text>
<text text-anchor="middle" x="642" y="-663" font-family="Helvetica,sans-Serif" font-size="10.00">cududv</text>
</a>
</g>
</g>
<!-- Node5&#45;&gt;Node19 -->
<g id="edge26" class="edge"><title>Node5&#45;&gt;Node19</title>
<path fill="none" stroke="midnightblue" d="M497.442,-515.398C510.389,-544.68 542.205,-608.866 587,-647 588.343,-648.143 589.748,-649.241 591.203,-650.294"/>
<polygon fill="midnightblue" stroke="midnightblue" points="589.643,-653.449 599.963,-655.848 593.391,-647.537 589.643,-653.449"/>
</g>
<!-- Node7 -->
<g id="node7" class="node"><title>Node7</title>
<g id="a_node7"><a xlink:href="classmodule__cu__tiedtke.html#ac8165a71eb9a866902d5f7a0ad177f14" target="_top" xlink:title="module_cu_tiedtke::\lcuadjtq">
<polygon fill="white" stroke="black" points="754,-460 754,-490 858,-490 858,-460 754,-460"/>
<text text-anchor="start" x="762" y="-478" font-family="Helvetica,sans-Serif" font-size="10.00">module_cu_tiedtke::</text>
<text text-anchor="middle" x="806" y="-467" font-family="Helvetica,sans-Serif" font-size="10.00">cuadjtq</text>
</a>
</g>
</g>
<!-- Node6&#45;&gt;Node7 -->
<g id="edge6" class="edge"><title>Node6&#45;&gt;Node7</title>
<path fill="none" stroke="midnightblue" d="M682.47,-606.885C687.555,-604.248 692.537,-601.283 697,-598 735.459,-569.709 769.954,-525.575 789.124,-498.578"/>
<polygon fill="midnightblue" stroke="midnightblue" points="792.169,-500.331 795.021,-490.127 786.428,-496.325 792.169,-500.331"/>
</g>
<!-- Node7&#45;&gt;Node4 -->
<g id="edge7" class="edge"><title>Node7&#45;&gt;Node4</title>
<path fill="none" stroke="midnightblue" d="M847.875,-459.874C858.18,-455.698 869.118,-450.945 879,-446 891.054,-439.968 918.423,-423.239 940.537,-409.454"/>
<polygon fill="midnightblue" stroke="midnightblue" points="942.394,-412.421 949.018,-404.152 938.683,-406.486 942.394,-412.421"/>
</g>
<!-- Node8 -->
<g id="node8" class="node"><title>Node8</title>
<g id="a_node8"><a xlink:href="classmodule__cu__tiedtke.html#a0c084c1df13311e129af689ee7723b26" target="_top" xlink:title="module_cu_tiedtke::\ltlucub">
<polygon fill="white" stroke="black" points="922,-484 922,-514 1026,-514 1026,-484 922,-484"/>
<text text-anchor="start" x="930" y="-502" font-family="Helvetica,sans-Serif" font-size="10.00">module_cu_tiedtke::</text>
<text text-anchor="middle" x="974" y="-491" font-family="Helvetica,sans-Serif" font-size="10.00">tlucub</text>
</a>
</g>
</g>
<!-- Node7&#45;&gt;Node8 -->
<g id="edge8" class="edge"><title>Node7&#45;&gt;Node8</title>
<path fill="none" stroke="midnightblue" d="M858.16,-482.397C875.042,-484.837 893.996,-487.578 911.565,-490.118"/>
<polygon fill="midnightblue" stroke="midnightblue" points="911.325,-493.619 921.723,-491.586 912.327,-486.692 911.325,-493.619"/>
</g>
<!-- Node9 -->
<g id="node9" class="node"><title>Node9</title>
<g id="a_node9"><a xlink:href="classmodule__cu__tiedtke.html#afec35de95e006b1899bc1564186e8702" target="_top" xlink:title="module_cu_tiedtke::\ltlucuc">
<polygon fill="white" stroke="black" points="922,-435 922,-465 1026,-465 1026,-435 922,-435"/>
<text text-anchor="start" x="930" y="-453" font-family="Helvetica,sans-Serif" font-size="10.00">module_cu_tiedtke::</text>
<text text-anchor="middle" x="974" y="-442" font-family="Helvetica,sans-Serif" font-size="10.00">tlucuc</text>
</a>
</g>
</g>
<!-- Node7&#45;&gt;Node9 -->
<g id="edge9" class="edge"><title>Node7&#45;&gt;Node9</title>
<path fill="none" stroke="midnightblue" d="M858.16,-467.295C875.042,-464.753 893.996,-461.898 911.565,-459.252"/>
<polygon fill="midnightblue" stroke="midnightblue" points="912.356,-462.673 921.723,-457.722 911.313,-455.751 912.356,-462.673"/>
</g>
<!-- Node10&#45;&gt;Node7 -->
<g id="edge11" class="edge"><title>Node10&#45;&gt;Node7</title>
<path fill="none" stroke="midnightblue" d="M679.465,-557.886C685.416,-555.11 691.447,-552.102 697,-549 725.427,-533.119 755.86,-511.838 777.151,-496.174"/>
<polygon fill="midnightblue" stroke="midnightblue" points="779.459,-498.82 785.402,-490.049 775.286,-493.2 779.459,-498.82"/>
</g>
<!-- Node11&#45;&gt;Node7 -->
<g id="edge13" class="edge"><title>Node11&#45;&gt;Node7</title>
<path fill="none" stroke="midnightblue" d="M692.927,-508.899C709.481,-503.892 728.075,-498.268 745.288,-493.061"/>
<polygon fill="midnightblue" stroke="midnightblue" points="746.679,-496.297 755.238,-490.052 744.653,-489.597 746.679,-496.297"/>
</g>
<!-- Node12&#45;&gt;Node4 -->
<g id="edge15" class="edge"><title>Node12&#45;&gt;Node4</title>
<path fill="none" stroke="midnightblue" d="M694.2,-378.862C752.936,-380.998 849.182,-384.498 911.815,-386.775"/>
<polygon fill="midnightblue" stroke="midnightblue" points="911.83,-390.278 921.951,-387.144 912.085,-383.282 911.83,-390.278"/>
</g>
<!-- Node12&#45;&gt;Node7 -->
<g id="edge19" class="edge"><title>Node12&#45;&gt;Node7</title>
<path fill="none" stroke="midnightblue" d="M681.441,-392.144C686.902,-395.039 692.264,-398.329 697,-402 716.971,-417.478 712.643,-431.033 733,-446 737.73,-449.477 742.935,-452.611 748.316,-455.417"/>
<polygon fill="midnightblue" stroke="midnightblue" points="746.958,-458.648 757.486,-459.834 749.995,-452.341 746.958,-458.648"/>
</g>
<!-- Node13 -->
<g id="node13" class="node"><title>Node13</title>
<g id="a_node13"><a xlink:href="classmodule__cu__tiedtke.html#a9a6e5559b2c162bbbdc6122e41309835" target="_top" xlink:title="module_cu_tiedtke::\lcubasmc">
<polygon fill="white" stroke="black" points="754,-318 754,-348 858,-348 858,-318 754,-318"/>
<text text-anchor="start" x="762" y="-336" font-family="Helvetica,sans-Serif" font-size="10.00">module_cu_tiedtke::</text>
<text text-anchor="middle" x="806" y="-325" font-family="Helvetica,sans-Serif" font-size="10.00">cubasmc</text>
</a>
</g>
</g>
<!-- Node12&#45;&gt;Node13 -->
<g id="edge16" class="edge"><title>Node12&#45;&gt;Node13</title>
<path fill="none" stroke="midnightblue" d="M694.258,-363.078C709.995,-358.804 727.471,-354.057 743.803,-349.622"/>
<polygon fill="midnightblue" stroke="midnightblue" points="745.065,-352.906 753.798,-346.907 743.23,-346.15 745.065,-352.906"/>
</g>
<!-- Node14 -->
<g id="node14" class="node"><title>Node14</title>
<g id="a_node14"><a xlink:href="classmodule__cu__tiedtke.html#ae56a73c0cf1c178147db2261edaef943" target="_top" xlink:title="module_cu_tiedtke::\lcuentr_new">
<polygon fill="white" stroke="black" points="754,-406 754,-436 858,-436 858,-406 754,-406"/>
<text text-anchor="start" x="762" y="-424" font-family="Helvetica,sans-Serif" font-size="10.00">module_cu_tiedtke::</text>
<text text-anchor="middle" x="806" y="-413" font-family="Helvetica,sans-Serif" font-size="10.00">cuentr_new</text>
</a>
</g>
</g>
<!-- Node12&#45;&gt;Node14 -->
<g id="edge17" class="edge"><title>Node12&#45;&gt;Node14</title>
<path fill="none" stroke="midnightblue" d="M694.258,-390.922C709.995,-395.196 727.471,-399.943 743.803,-404.378"/>
<polygon fill="midnightblue" stroke="midnightblue" points="743.23,-407.85 753.798,-407.093 745.065,-401.094 743.23,-407.85"/>
</g>
<!-- Node14&#45;&gt;Node4 -->
<g id="edge18" class="edge"><title>Node14&#45;&gt;Node4</title>
<path fill="none" stroke="midnightblue" d="M858.16,-411.138C875.042,-407.883 893.996,-404.23 911.565,-400.843"/>
<polygon fill="midnightblue" stroke="midnightblue" points="912.567,-404.214 921.723,-398.885 911.241,-397.341 912.567,-404.214"/>
</g>
<!-- Node15&#45;&gt;Node7 -->
<g id="edge21" class="edge"><title>Node15&#45;&gt;Node7</title>
<path fill="none" stroke="midnightblue" d="M694.258,-475C709.846,-475 727.141,-475 743.34,-475"/>
<polygon fill="midnightblue" stroke="midnightblue" points="743.798,-478.5 753.798,-475 743.798,-471.5 743.798,-478.5"/>
</g>
<!-- Node16&#45;&gt;Node7 -->
<g id="edge23" class="edge"><title>Node16&#45;&gt;Node7</title>
<path fill="none" stroke="midnightblue" d="M692.927,-441.101C709.481,-446.108 728.075,-451.732 745.288,-456.939"/>
<polygon fill="midnightblue" stroke="midnightblue" points="744.653,-460.403 755.238,-459.948 746.679,-453.703 744.653,-460.403"/>
</g>
<!-- Node20 -->
<g id="node20" class="node"><title>Node20</title>
<g id="a_node20"><a xlink:href="classmodule__cu__tiedtke.html#aec8136392210f639383b24a04c1a9178" target="_top" xlink:title="module_cu_tiedtke::ssum">
<polygon fill="white" stroke="black" points="742,-661.5 742,-680.5 870,-680.5 870,-661.5 742,-661.5"/>
<text text-anchor="middle" x="806" y="-668.5" font-family="Helvetica,sans-Serif" font-size="10.00">module_cu_tiedtke::ssum</text>
</a>
</g>
</g>
<!-- Node19&#45;&gt;Node20 -->
<g id="edge27" class="edge"><title>Node19&#45;&gt;Node20</title>
<path fill="none" stroke="midnightblue" d="M694.258,-671C706.18,-671 719.101,-671 731.766,-671"/>
<polygon fill="midnightblue" stroke="midnightblue" points="731.845,-674.5 741.845,-671 731.845,-667.5 731.845,-674.5"/>
</g>
<!-- Node22 -->
<g id="node22" class="node"><title>Node22</title>
<g id="a_node22"><a xlink:href="classmodule__cu__kf.html#afbc0670c02010c630409b1796e89a3fb" target="_top" xlink:title="module_cu_kf::kfpara">
<polygon fill="white" stroke="black" points="283,-128.5 283,-147.5 393,-147.5 393,-128.5 283,-128.5"/>
<text text-anchor="middle" x="338" y="-135.5" font-family="Helvetica,sans-Serif" font-size="10.00">module_cu_kf::kfpara</text>
</a>
</g>
</g>
<!-- Node21&#45;&gt;Node22 -->
<g id="edge29" class="edge"><title>Node21&#45;&gt;Node22</title>
<path fill="none" stroke="midnightblue" d="M241.555,-157.424C253.837,-154.924 267.207,-152.204 279.946,-149.611"/>
<polygon fill="midnightblue" stroke="midnightblue" points="280.894,-152.99 289.995,-147.566 279.498,-146.131 280.894,-152.99"/>
</g>
<!-- Node23 -->
<g id="node23" class="node"><title>Node23</title>
<g id="a_node23"><a xlink:href="classradiation.html#aba1a06d27af96fe11d576458c8ccfe77" target="_top" xlink:title="radiation::rad">
<polygon fill="white" stroke="black" points="453.5,-152.5 453.5,-171.5 526.5,-171.5 526.5,-152.5 453.5,-152.5"/>
<text text-anchor="middle" x="490" y="-159.5" font-family="Helvetica,sans-Serif" font-size="10.00">radiation::rad</text>
</a>
</g>
</g>
<!-- Node22&#45;&gt;Node23 -->
<g id="edge30" class="edge"><title>Node22&#45;&gt;Node23</title>
<path fill="none" stroke="midnightblue" d="M393.153,-146.665C409.537,-149.286 427.362,-152.138 443.147,-154.664"/>
<polygon fill="midnightblue" stroke="midnightblue" points="442.763,-158.147 453.19,-156.27 443.869,-151.234 442.763,-158.147"/>
</g>
<!-- Node33 -->
<g id="node33" class="node"><title>Node33</title>
<g id="a_node33"><a xlink:href="classmodule__cu__kf.html#a14ba09c3fd0b8b15dda4ad48569cdf66" target="_top" xlink:title="module_cu_kf::tpmix">
<polygon fill="white" stroke="black" points="436.5,-114.5 436.5,-133.5 543.5,-133.5 543.5,-114.5 436.5,-114.5"/>
<text text-anchor="middle" x="490" y="-121.5" font-family="Helvetica,sans-Serif" font-size="10.00">module_cu_kf::tpmix</text>
</a>
</g>
</g>
<!-- Node22&#45;&gt;Node33 -->
<g id="edge40" class="edge"><title>Node22&#45;&gt;Node33</title>
<path fill="none" stroke="midnightblue" d="M393.153,-132.946C403.947,-131.938 415.367,-130.872 426.417,-129.841"/>
<polygon fill="midnightblue" stroke="midnightblue" points="426.8,-133.321 436.432,-128.906 426.15,-126.351 426.8,-133.321"/>
</g>
<!-- Node34 -->
<g id="node34" class="node"><title>Node34</title>
<g id="a_node34"><a xlink:href="classmodule__cu__kf.html#af2327f26de87db52430520eba8535bbb" target="_top" xlink:title="module_cu_kf::condload">
<polygon fill="white" stroke="black" points="429,-76.5 429,-95.5 551,-95.5 551,-76.5 429,-76.5"/>
<text text-anchor="middle" x="490" y="-83.5" font-family="Helvetica,sans-Serif" font-size="10.00">module_cu_kf::condload</text>
</a>
</g>
</g>
<!-- Node22&#45;&gt;Node34 -->
<g id="edge41" class="edge"><title>Node22&#45;&gt;Node34</title>
<path fill="none" stroke="midnightblue" d="M364.109,-128.451C382.102,-121.693 406.951,-112.529 429,-105 435.107,-102.915 441.59,-100.78 447.95,-98.7301"/>
<polygon fill="midnightblue" stroke="midnightblue" points="449.308,-101.971 457.772,-95.5976 447.181,-95.3017 449.308,-101.971"/>
</g>
<!-- Node35 -->
<g id="node35" class="node"><title>Node35</title>
<g id="a_node35"><a xlink:href="classmodule__cu__kf.html#ab12ebce72807d1f9ae2e754c0119e881" target="_top" xlink:title="module_cu_kf::dtfrznew">
<polygon fill="white" stroke="black" points="429.5,-38.5 429.5,-57.5 550.5,-57.5 550.5,-38.5 429.5,-38.5"/>
<text text-anchor="middle" x="490" y="-45.5" font-family="Helvetica,sans-Serif" font-size="10.00">module_cu_kf::dtfrznew</text>
</a>
</g>
</g>
<!-- Node22&#45;&gt;Node35 -->
<g id="edge42" class="edge"><title>Node22&#45;&gt;Node35</title>
<path fill="none" stroke="midnightblue" d="M348.674,-128.379C364.305,-113.324 396.643,-84.1468 429,-67 433.185,-64.7824 437.672,-62.7711 442.24,-60.9598"/>
<polygon fill="midnightblue" stroke="midnightblue" points="443.466,-64.2384 451.658,-57.5206 441.065,-57.6631 443.466,-64.2384"/>
</g>
<!-- Node36 -->
<g id="node36" class="node"><title>Node36</title>
<g id="a_node36"><a xlink:href="classmodule__cu__kf.html#a4d1c66ccc19c619ff0c10b45a4ce2f68" target="_top" xlink:title="module_cu_kf::envirtht">
<polygon fill="white" stroke="black" points="432,-0.5 432,-19.5 548,-19.5 548,-0.5 432,-0.5"/>
<text text-anchor="middle" x="490" y="-7.5" font-family="Helvetica,sans-Serif" font-size="10.00">module_cu_kf::envirtht</text>
</a>
</g>
</g>
<!-- Node22&#45;&gt;Node36 -->
<g id="edge43" class="edge"><title>Node22&#45;&gt;Node36</title>
<path fill="none" stroke="midnightblue" d="M344.378,-128.258C356.59,-107.03 388.519,-56.3176 429,-29 431.942,-27.0146 435.104,-25.2271 438.382,-23.6192"/>
<polygon fill="midnightblue" stroke="midnightblue" points="440.04,-26.7161 447.842,-19.5486 437.273,-20.2861 440.04,-26.7161"/>
</g>
<!-- Node37 -->
<g id="node37" class="node"><title>Node37</title>
<g id="a_node37"><a xlink:href="classmodule__cu__kf.html#a64f684eda86f23948eb433686ce76baa" target="_top" xlink:title="module_cu_kf::prof5">
<polygon fill="white" stroke="black" points="437.5,-228.5 437.5,-247.5 542.5,-247.5 542.5,-228.5 437.5,-228.5"/>
<text text-anchor="middle" x="490" y="-235.5" font-family="Helvetica,sans-Serif" font-size="10.00">module_cu_kf::prof5</text>
</a>
</g>
</g>
<!-- Node22&#45;&gt;Node37 -->
<g id="edge44" class="edge"><title>Node22&#45;&gt;Node37</title>
<path fill="none" stroke="midnightblue" d="M347.181,-147.686C361.895,-164.522 394.516,-199.268 429,-219 432.681,-221.106 436.625,-223.011 440.667,-224.726"/>
<polygon fill="midnightblue" stroke="midnightblue" points="439.612,-228.07 450.202,-228.391 442.123,-221.536 439.612,-228.07"/>
</g>
<!-- Node38 -->
<g id="node38" class="node"><title>Node38</title>
<g id="a_node38"><a xlink:href="classmodule__cu__kf.html#a140e3e31016a2be359bc0f8ac9c800d3" target="_top" xlink:title="module_cu_kf::tpdd">
<polygon fill="white" stroke="black" points="439,-190.5 439,-209.5 541,-209.5 541,-190.5 439,-190.5"/>
<text text-anchor="middle" x="490" y="-197.5" font-family="Helvetica,sans-Serif" font-size="10.00">module_cu_kf::tpdd</text>
</a>
</g>
</g>
<!-- Node22&#45;&gt;Node38 -->
<g id="edge45" class="edge"><title>Node22&#45;&gt;Node38</title>
<path fill="none" stroke="midnightblue" d="M357.282,-147.661C375.234,-156.925 403.553,-170.948 429,-181 434.534,-183.186 440.428,-185.301 446.279,-187.278"/>
<polygon fill="midnightblue" stroke="midnightblue" points="445.421,-190.68 456.014,-190.46 447.596,-184.026 445.421,-190.68"/>
</g>
<!-- Node24 -->
<g id="node24" class="node"><title>Node24</title>
<g id="a_node24"><a xlink:href="classmodule__ra__simple.html#ad1c74605b2817f833d31e806f791e246" target="_top" xlink:title="module_ra_simple::ra\l_simple">
<polygon fill="white" stroke="black" points="587,-142 587,-172 697,-172 697,-142 587,-142"/>
<text text-anchor="start" x="595" y="-160" font-family="Helvetica,sans-Serif" font-size="10.00">module_ra_simple::ra</text>
<text text-anchor="middle" x="642" y="-149" font-family="Helvetica,sans-Serif" font-size="10.00">_simple</text>
</a>
</g>
</g>
<!-- Node23&#45;&gt;Node24 -->
<g id="edge31" class="edge"><title>Node23&#45;&gt;Node24</title>
<path fill="none" stroke="midnightblue" d="M526.548,-160.815C541.612,-160.313 559.643,-159.712 576.89,-159.137"/>
<polygon fill="midnightblue" stroke="midnightblue" points="577.048,-162.634 586.926,-158.802 576.815,-155.638 577.048,-162.634"/>
</g>
<!-- Node25 -->
<g id="node25" class="node"><title>Node25</title>
<g id="a_node25"><a xlink:href="classmodule__ra__simple.html#a383e37e85086ad3fd8f2da8601d997d0" target="_top" xlink:title="module_ra_simple::relative\l_humidity">
<polygon fill="white" stroke="black" points="739.5,-187 739.5,-217 872.5,-217 872.5,-187 739.5,-187"/>
<text text-anchor="start" x="747.5" y="-205" font-family="Helvetica,sans-Serif" font-size="10.00">module_ra_simple::relative</text>
<text text-anchor="middle" x="806" y="-194" font-family="Helvetica,sans-Serif" font-size="10.00">_humidity</text>
</a>
</g>
</g>
<!-- Node24&#45;&gt;Node25 -->
<g id="edge32" class="edge"><title>Node24&#45;&gt;Node25</title>
<path fill="none" stroke="midnightblue" d="M697.394,-172.11C711.36,-175.989 726.513,-180.198 740.919,-184.2"/>
<polygon fill="midnightblue" stroke="midnightblue" points="740.177,-187.626 750.749,-186.93 742.051,-180.882 740.177,-187.626"/>
</g>
<!-- Node26 -->
<g id="node26" class="node"><title>Node26</title>
<g id="a_node26"><a xlink:href="classmodule__ra__simple.html#a4529da23ec7082aeafd82ffcad0e6e43" target="_top" xlink:title="module_ra_simple::calc\l_solar_elevation">
<polygon fill="white" stroke="black" points="746.5,-138 746.5,-168 865.5,-168 865.5,-138 746.5,-138"/>
<text text-anchor="start" x="754.5" y="-156" font-family="Helvetica,sans-Serif" font-size="10.00">module_ra_simple::calc</text>
<text text-anchor="middle" x="806" y="-145" font-family="Helvetica,sans-Serif" font-size="10.00">_solar_elevation</text>
</a>
</g>
</g>
<!-- Node24&#45;&gt;Node26 -->
<g id="edge33" class="edge"><title>Node24&#45;&gt;Node26</title>
<path fill="none" stroke="midnightblue" d="M697.394,-155.657C709.797,-155.351 723.136,-155.021 736.056,-154.702"/>
<polygon fill="midnightblue" stroke="midnightblue" points="736.392,-158.195 746.302,-154.449 736.219,-151.197 736.392,-158.195"/>
</g>
<!-- Node30 -->
<g id="node30" class="node"><title>Node30</title>
<g id="a_node30"><a xlink:href="classmodule__ra__simple.html#af96b45b6aa6ee7f751648e8edb2eff97" target="_top" xlink:title="module_ra_simple::cloudfrac">
<polygon fill="white" stroke="black" points="735.5,-99.5 735.5,-118.5 876.5,-118.5 876.5,-99.5 735.5,-99.5"/>
<text text-anchor="middle" x="806" y="-106.5" font-family="Helvetica,sans-Serif" font-size="10.00">module_ra_simple::cloudfrac</text>
</a>
</g>
</g>
<!-- Node24&#45;&gt;Node30 -->
<g id="edge37" class="edge"><title>Node24&#45;&gt;Node30</title>
<path fill="none" stroke="midnightblue" d="M688.177,-141.919C702.464,-137.291 718.348,-132.29 733,-128 740.85,-125.701 749.218,-123.378 757.369,-121.183"/>
<polygon fill="midnightblue" stroke="midnightblue" points="758.389,-124.533 767.153,-118.579 756.589,-117.769 758.389,-124.533"/>
</g>
<!-- Node31 -->
<g id="node31" class="node"><title>Node31</title>
<g id="a_node31"><a xlink:href="classmodule__ra__simple.html#a9fdfe8ded9ed1a2131513bf2d17db5e6" target="_top" xlink:title="module_ra_simple::shortwave">
<polygon fill="white" stroke="black" points="733,-61.5 733,-80.5 879,-80.5 879,-61.5 733,-61.5"/>
<text text-anchor="middle" x="806" y="-68.5" font-family="Helvetica,sans-Serif" font-size="10.00">module_ra_simple::shortwave</text>
</a>
</g>
</g>
<!-- Node24&#45;&gt;Node31 -->
<g id="edge38" class="edge"><title>Node24&#45;&gt;Node31</title>
<path fill="none" stroke="midnightblue" d="M659.311,-141.792C676.434,-126.603 704.746,-103.612 733,-90 737.95,-87.6152 743.241,-85.4986 748.623,-83.6269"/>
<polygon fill="midnightblue" stroke="midnightblue" points="749.895,-86.8948 758.355,-80.5171 747.764,-80.2269 749.895,-86.8948"/>
</g>
<!-- Node32 -->
<g id="node32" class="node"><title>Node32</title>
<g id="a_node32"><a xlink:href="classmodule__ra__simple.html#ac17356062eed2cca6633da58b0899d09" target="_top" xlink:title="module_ra_simple::longwave">
<polygon fill="white" stroke="black" points="734.5,-236.5 734.5,-255.5 877.5,-255.5 877.5,-236.5 734.5,-236.5"/>
<text text-anchor="middle" x="806" y="-243.5" font-family="Helvetica,sans-Serif" font-size="10.00">module_ra_simple::longwave</text>
</a>
</g>
</g>
<!-- Node24&#45;&gt;Node32 -->
<g id="edge39" class="edge"><title>Node24&#45;&gt;Node32</title>
<path fill="none" stroke="midnightblue" d="M658.632,-172.033C675.646,-187.623 704.279,-211.68 733,-226 738.562,-228.773 744.564,-231.209 750.646,-233.336"/>
<polygon fill="midnightblue" stroke="midnightblue" points="749.626,-236.685 760.218,-236.429 751.779,-230.024 749.626,-236.685"/>
</g>
<!-- Node27 -->
<g id="node27" class="node"><title>Node27</title>
<g id="a_node27"><a xlink:href="classtime.html#adfcbe10943e169e25a9ee15ddb3ce70b" target="_top" xlink:title="time::calc_day_of_year">
<polygon fill="white" stroke="black" points="915,-143.5 915,-162.5 1033,-162.5 1033,-143.5 915,-143.5"/>
<text text-anchor="middle" x="974" y="-150.5" font-family="Helvetica,sans-Serif" font-size="10.00">time::calc_day_of_year</text>
</a>
</g>
</g>
<!-- Node26&#45;&gt;Node27 -->
<g id="edge34" class="edge"><title>Node26&#45;&gt;Node27</title>
<path fill="none" stroke="midnightblue" d="M865.525,-153C878.12,-153 891.541,-153 904.478,-153"/>
<polygon fill="midnightblue" stroke="midnightblue" points="904.724,-156.5 914.724,-153 904.723,-149.5 904.724,-156.5"/>
</g>
<!-- Node28 -->
<g id="node28" class="node"><title>Node28</title>
<g id="a_node28"><a xlink:href="classtime.html#a8736f37f83c6d8f62957c70df2239693" target="_top" xlink:title="time::calendar_date">
<polygon fill="white" stroke="black" points="1069,-162.5 1069,-181.5 1171,-181.5 1171,-162.5 1069,-162.5"/>
<text text-anchor="middle" x="1120" y="-169.5" font-family="Helvetica,sans-Serif" font-size="10.00">time::calendar_date</text>
</a>
</g>
</g>
<!-- Node27&#45;&gt;Node28 -->
<g id="edge35" class="edge"><title>Node27&#45;&gt;Node28</title>
<path fill="none" stroke="midnightblue" d="M1033.16,-160.673C1041.68,-161.798 1050.48,-162.959 1059.04,-164.089"/>
<polygon fill="midnightblue" stroke="midnightblue" points="1058.59,-167.559 1068.96,-165.397 1059.5,-160.619 1058.59,-167.559"/>
</g>
<!-- Node29 -->
<g id="node29" class="node"><title>Node29</title>
<g id="a_node29"><a xlink:href="classtime.html#a22e63418fe5d559327ca090619d097e0" target="_top" xlink:title="time::date_to_mjd">
<polygon fill="white" stroke="black" points="1072.5,-124.5 1072.5,-143.5 1167.5,-143.5 1167.5,-124.5 1072.5,-124.5"/>
<text text-anchor="middle" x="1120" y="-131.5" font-family="Helvetica,sans-Serif" font-size="10.00">time::date_to_mjd</text>
</a>
</g>
</g>
<!-- Node27&#45;&gt;Node29 -->
<g id="edge36" class="edge"><title>Node27&#45;&gt;Node29</title>
<path fill="none" stroke="midnightblue" d="M1033.16,-145.327C1042.67,-144.071 1052.52,-142.771 1062.01,-141.52"/>
<polygon fill="midnightblue" stroke="midnightblue" points="1062.67,-144.963 1072.13,-140.185 1061.76,-138.023 1062.67,-144.963"/>
</g>
</g>
</svg>
        <g id="navigator" transform="translate(0 0)" fill="#404254">
                <rect fill="#f2f5e9" fill-opacity="0.5" stroke="#606060" stroke-width=".5" x="0" y="0" width="60" height="60"/>
                <use id="zoomplus" xlink:href="#zoomPlus" x="17" y="9" onmousedown="handleZoom(evt,'in')"/>
                <use id="zoomminus" xlink:href="#zoomMin" x="42" y="9" onmousedown="handleZoom(evt,'out')"/>
                <use id="reset" xlink:href="#resetDef" x="30" y="36" onmousedown="handleReset()"/>
                <g id="arrowUp" xlink:href="#dirArrow" transform="translate(30 24)" onmousedown="handlePan(0,-1)">
                  <use xlink:href="#rim" fill="#404040">
                        <set attributeName="fill" to="#808080" begin="arrowUp.mouseover" end="arrowUp.mouseout"/>
                  </use>
                  <path fill="none" stroke="white" stroke-width="1.5" d="M0,-3.0v7 M-2.5,-0.5L0,-3.0L2.5,-0.5"/>
                </g>
                <g id="arrowRight" xlink:href="#dirArrow" transform="rotate(90) translate(36 -43)" onmousedown="handlePan(1,0)">
                  <use xlink:href="#rim" fill="#404040">
                        <set attributeName="fill" to="#808080" begin="arrowRight.mouseover" end="arrowRight.mouseout"/>
                  </use>
                  <path fill="none" stroke="white" stroke-width="1.5" d="M0,-3.0v7 M-2.5,-0.5L0,-3.0L2.5,-0.5"/>
                </g>
                <g id="arrowDown" xlink:href="#dirArrow" transform="rotate(180) translate(-30 -48)" onmousedown="handlePan(0,1)">
                  <use xlink:href="#rim" fill="#404040">
                        <set attributeName="fill" to="#808080" begin="arrowDown.mouseover" end="arrowDown.mouseout"/>
                  </use>
                  <path fill="none" stroke="white" stroke-width="1.5" d="M0,-3.0v7 M-2.5,-0.5L0,-3.0L2.5,-0.5"/>
                </g>
                <g id="arrowLeft" xlink:href="#dirArrow" transform="rotate(270) translate(-36 17)" onmousedown="handlePan(-1,0)">
                  <use xlink:href="#rim" fill="#404040">
                        <set attributeName="fill" to="#808080" begin="arrowLeft.mouseover" end="arrowLeft.mouseout"/>
                  </use>
                  <path fill="none" stroke="white" stroke-width="1.5" d="M0,-3.0v7 M-2.5,-0.5L0,-3.0L2.5,-0.5"/>
                </g>
        </g>
        <svg viewBox="0 0 15 15" width="100%" height="30px" preserveAspectRatio="xMaxYMin meet">
         <g id="arrow_out" transform="scale(0.3 0.3)">
          <a xlink:href="classconvection_a06b811540eb747b3734e7fb35de41782_cgraph_org.svg" target="_base">
           <rect id="button" ry="5" rx="5" y="6" x="6" height="38" width="38"
                fill="#f2f5e9" fill-opacity="0.5" stroke="#606060" stroke-width="1.0"/>
           <path id="arrow"
             d="M 11.500037,31.436501 C 11.940474,20.09759 22.043105,11.32322 32.158766,21.979434 L 37.068811,17.246167 C 37.068811,17.246167 37.088388,32 37.088388,32 L 22.160133,31.978069 C 22.160133,31.978069 26.997745,27.140456 26.997745,27.140456 C 18.528582,18.264221 13.291696,25.230495 11.500037,31.436501 z"
             style="fill:#404040;"/>
          </a>
         </g>
        </svg>
</svg>
