<?xml version="1.0" encoding="UTF-8" standalone="no"?>
<!DOCTYPE svg PUBLIC "-//W3C//DTD SVG 1.1//EN"
 "http://www.w3.org/Graphics/SVG/1.1/DTD/svg11.dtd">
<!-- Generated by graphviz version 2.38.0 (20140413.2041)
 -->
<!-- Title: convection::init_convection Pages: 1 -->
<svg width="334pt" height="28pt"
 viewBox="0.00 0.00 334.00 28.00" xmlns="http://www.w3.org/2000/svg" xmlns:xlink="http://www.w3.org/1999/xlink">
<g id="graph0" class="graph" transform="scale(1 1) rotate(0) translate(4 24)">
<title>convection::init_convection</title>
<polygon fill="white" stroke="none" points="-4,4 -4,-24 330,-24 330,4 -4,4"/>
<!-- Node1 -->
<g id="node1" class="node"><title>Node1</title>
<polygon fill="#bfbfbf" stroke="black" points="0,-0.5 0,-19.5 135,-19.5 135,-0.5 0,-0.5"/>
<text text-anchor="middle" x="67.5" y="-7.5" font-family="Helvetica,sans-Serif" font-size="10.00">convection::init_convection</text>
</g>
<!-- Node2 -->
<g id="node2" class="node"><title>Node2</title>
<g id="a_node2"><a xlink:href="classinit.html#ad066397f42956c6e9d50884a2e84d4e4" target="_top" xlink:title="init::init_physics">
<polygon fill="white" stroke="black" points="171,-0.5 171,-19.5 258,-19.5 258,-0.5 171,-0.5"/>
<text text-anchor="middle" x="214.5" y="-7.5" font-family="Helvetica,sans-Serif" font-size="10.00">init::init_physics</text>
</a>
</g>
</g>
<!-- Node1&#45;&gt;Node2 -->
<g id="edge1" class="edge"><title>Node1&#45;&gt;Node2</title>
<path fill="none" stroke="midnightblue" d="M145.097,-10C153.982,-10 162.784,-10 170.969,-10"/>
<polygon fill="midnightblue" stroke="midnightblue" points="145.059,-6.5001 135.059,-10 145.059,-13.5001 145.059,-6.5001"/>
</g>
<!-- Node3 -->
<g id="node3" class="node"><title>Node3</title>
<g id="a_node3"><a xlink:href="driver_8f90.html#ab1e5a5816a57fc6e95d9563c2bb53590" target="_top" xlink:title=" Main Program ">
<polygon fill="white" stroke="black" points="294,-0.5 294,-19.5 326,-19.5 326,-0.5 294,-0.5"/>
<text text-anchor="middle" x="310" y="-7.5" font-family="Helvetica,sans-Serif" font-size="10.00">icar</text>
</a>
</g>
</g>
<!-- Node2&#45;&gt;Node3 -->
<g id="edge2" class="edge"><title>Node2&#45;&gt;Node3</title>
<path fill="none" stroke="midnightblue" d="M268.293,-10C277.593,-10 286.569,-10 293.714,-10"/>
<polygon fill="midnightblue" stroke="midnightblue" points="268.146,-6.5001 258.146,-10 268.146,-13.5001 268.146,-6.5001"/>
</g>
</g>
</svg>
