<?xml version="1.0" encoding="UTF-8" standalone="no"?>
<!DOCTYPE svg PUBLIC "-//W3C//DTD SVG 1.1//EN"
 "http://www.w3.org/Graphics/SVG/1.1/DTD/svg11.dtd">
<!-- Generated by graphviz version 2.32.0 (20130809.1645)
 -->
<!-- Title: module_cu_tiedtke::tlucua Pages: 1 -->
<svg width="1140pt" height="298pt"
 viewBox="0.00 0.00 1140.00 297.65" xmlns="http://www.w3.org/2000/svg" xmlns:xlink="http://www.w3.org/1999/xlink">
<g id="graph0" class="graph" transform="scale(1 1) rotate(0) translate(4 293.647)">
<title>module_cu_tiedtke::tlucua</title>
<polygon fill="white" stroke="white" points="-4,5 -4,-293.647 1137,-293.647 1137,5 -4,5"/>
<!-- Node1 -->
<g id="node1" class="node"><title>Node1</title>
<polygon fill="#bfbfbf" stroke="black" points="0,-226 0,-256 104,-256 104,-226 0,-226"/>
<text text-anchor="start" x="8" y="-244" font-family="Helvetica,sans-Serif" font-size="10.00">module_cu_tiedtke::</text>
<text text-anchor="middle" x="52" y="-233" font-family="Helvetica,sans-Serif" font-size="10.00">tlucua</text>
</g>
<!-- Node2 -->
<g id="node2" class="node"><title>Node2</title>
<g id="a_node2"><a xlink:href="classmodule__cu__tiedtke.html#ae9c234f80f55688e10c72091b6c673dc" target="_top" xlink:title="module_cu_tiedtke::\ltiecnv">
<polygon fill="white" stroke="black" points="560,-218 560,-248 664,-248 664,-218 560,-218"/>
<text text-anchor="start" x="568" y="-236" font-family="Helvetica,sans-Serif" font-size="10.00">module_cu_tiedtke::</text>
<text text-anchor="middle" x="612" y="-225" font-family="Helvetica,sans-Serif" font-size="10.00">tiecnv</text>
</a>
</g>
</g>
<!-- Node1&#45;&gt;Node2 -->
<g id="edge1" class="edge"><title>Node1&#45;&gt;Node2</title>
<path fill="none" stroke="midnightblue" d="M113.276,-258.752C122.19,-261.049 131.301,-263.218 140,-265 246.56,-286.826 275.891,-295.995 384,-284 445.222,-277.207 514.058,-260.409 559.71,-247.937"/>
<polygon fill="midnightblue" stroke="midnightblue" points="113.89,-255.294 103.327,-256.117 112.098,-262.06 113.89,-255.294"/>
</g>
<!-- Node7 -->
<g id="node7" class="node"><title>Node7</title>
<g id="a_node7"><a xlink:href="classmodule__cu__tiedtke.html#ac9ae922d9f0655dae4887093c89d2909" target="_top" xlink:title="module_cu_tiedtke::\lcuasc_new">
<polygon fill="white" stroke="black" points="280,-245 280,-275 384,-275 384,-245 280,-245"/>
<text text-anchor="start" x="288" y="-263" font-family="Helvetica,sans-Serif" font-size="10.00">module_cu_tiedtke::</text>
<text text-anchor="middle" x="332" y="-252" font-family="Helvetica,sans-Serif" font-size="10.00">cuasc_new</text>
</a>
</g>
</g>
<!-- Node1&#45;&gt;Node7 -->
<g id="edge6" class="edge"><title>Node1&#45;&gt;Node7</title>
<path fill="none" stroke="midnightblue" d="M114.296,-245.189C164.009,-248.587 233.26,-253.32 279.986,-256.513"/>
<polygon fill="midnightblue" stroke="midnightblue" points="114.529,-241.697 104.313,-244.507 114.052,-248.681 114.529,-241.697"/>
</g>
<!-- Node9 -->
<g id="node9" class="node"><title>Node9</title>
<g id="a_node9"><a xlink:href="classmodule__cu__tiedtke.html#ac8165a71eb9a866902d5f7a0ad177f14" target="_top" xlink:title="module_cu_tiedtke::\lcuadjtq">
<polygon fill="white" stroke="black" points="140,-147 140,-177 244,-177 244,-147 140,-147"/>
<text text-anchor="start" x="148" y="-165" font-family="Helvetica,sans-Serif" font-size="10.00">module_cu_tiedtke::</text>
<text text-anchor="middle" x="192" y="-154" font-family="Helvetica,sans-Serif" font-size="10.00">cuadjtq</text>
</a>
</g>
</g>
<!-- Node1&#45;&gt;Node9 -->
<g id="edge9" class="edge"><title>Node1&#45;&gt;Node9</title>
<path fill="none" stroke="midnightblue" d="M87.9918,-220.968C111.721,-207.384 142.606,-189.704 164.346,-177.258"/>
<polygon fill="midnightblue" stroke="midnightblue" points="86.2213,-217.949 79.2816,-225.955 89.699,-224.024 86.2213,-217.949"/>
</g>
<!-- Node15 -->
<g id="node15" class="node"><title>Node15</title>
<g id="a_node15"><a xlink:href="classmodule__cu__tiedtke.html#ae56a73c0cf1c178147db2261edaef943" target="_top" xlink:title="module_cu_tiedtke::\lcuentr_new">
<polygon fill="white" stroke="black" points="140,-204 140,-234 244,-234 244,-204 140,-204"/>
<text text-anchor="start" x="148" y="-222" font-family="Helvetica,sans-Serif" font-size="10.00">module_cu_tiedtke::</text>
<text text-anchor="middle" x="192" y="-211" font-family="Helvetica,sans-Serif" font-size="10.00">cuentr_new</text>
</a>
</g>
</g>
<!-- Node1&#45;&gt;Node15 -->
<g id="edge21" class="edge"><title>Node1&#45;&gt;Node15</title>
<path fill="none" stroke="midnightblue" d="M114.496,-231.196C122.872,-229.861 131.398,-228.502 139.571,-227.199"/>
<polygon fill="midnightblue" stroke="midnightblue" points="113.71,-227.777 104.386,-232.808 114.812,-234.69 113.71,-227.777"/>
</g>
<!-- Node3 -->
<g id="node3" class="node"><title>Node3</title>
<g id="a_node3"><a xlink:href="classmodule__cu__tiedtke.html#ae3fdba4e560c50ab3f6b9f1e30f2f255" target="_top" xlink:title="module_cu_tiedtke::\lcu_tiedtke">
<polygon fill="white" stroke="black" points="700,-218 700,-248 804,-248 804,-218 700,-218"/>
<text text-anchor="start" x="708" y="-236" font-family="Helvetica,sans-Serif" font-size="10.00">module_cu_tiedtke::</text>
<text text-anchor="middle" x="752" y="-225" font-family="Helvetica,sans-Serif" font-size="10.00">cu_tiedtke</text>
</a>
</g>
</g>
<!-- Node2&#45;&gt;Node3 -->
<g id="edge2" class="edge"><title>Node2&#45;&gt;Node3</title>
<path fill="none" stroke="midnightblue" d="M674.496,-233C682.872,-233 691.398,-233 699.571,-233"/>
<polygon fill="midnightblue" stroke="midnightblue" points="674.386,-229.5 664.386,-233 674.386,-236.5 674.386,-229.5"/>
</g>
<!-- Node4 -->
<g id="node4" class="node"><title>Node4</title>
<g id="a_node4"><a xlink:href="classconvection.html#a06b811540eb747b3734e7fb35de41782" target="_top" xlink:title="convection::convect">
<polygon fill="white" stroke="black" points="840,-223.5 840,-242.5 944,-242.5 944,-223.5 840,-223.5"/>
<text text-anchor="middle" x="892" y="-230.5" font-family="Helvetica,sans-Serif" font-size="10.00">convection::convect</text>
</a>
</g>
</g>
<!-- Node3&#45;&gt;Node4 -->
<g id="edge3" class="edge"><title>Node3&#45;&gt;Node4</title>
<path fill="none" stroke="midnightblue" d="M814.496,-233C822.872,-233 831.398,-233 839.571,-233"/>
<polygon fill="midnightblue" stroke="midnightblue" points="814.386,-229.5 804.386,-233 814.386,-236.5 814.386,-229.5"/>
</g>
<!-- Node5 -->
<g id="node5" class="node"><title>Node5</title>
<g id="a_node5"><a xlink:href="classtime__step.html#a2c022f11247af72e607b1493289aa974" target="_top" xlink:title=" Step forward one IO time step. ">
<polygon fill="white" stroke="black" points="980,-223.5 980,-242.5 1064,-242.5 1064,-223.5 980,-223.5"/>
<text text-anchor="middle" x="1022" y="-230.5" font-family="Helvetica,sans-Serif" font-size="10.00">time_step::step</text>
</a>
</g>
</g>
<!-- Node4&#45;&gt;Node5 -->
<g id="edge4" class="edge"><title>Node4&#45;&gt;Node5</title>
<path fill="none" stroke="midnightblue" d="M954.406,-233C963.051,-233 971.759,-233 979.897,-233"/>
<polygon fill="midnightblue" stroke="midnightblue" points="954.325,-229.5 944.325,-233 954.325,-236.5 954.325,-229.5"/>
</g>
<!-- Node6 -->
<g id="node6" class="node"><title>Node6</title>
<g id="a_node6"><a xlink:href="driver_8f90.html#ab1e5a5816a57fc6e95d9563c2bb53590" target="_top" xlink:title=" Main Program ">
<polygon fill="white" stroke="black" points="1100,-223.5 1100,-242.5 1132,-242.5 1132,-223.5 1100,-223.5"/>
<text text-anchor="middle" x="1116" y="-230.5" font-family="Helvetica,sans-Serif" font-size="10.00">icar</text>
</a>
</g>
</g>
<!-- Node5&#45;&gt;Node6 -->
<g id="edge5" class="edge"><title>Node5&#45;&gt;Node6</title>
<path fill="none" stroke="midnightblue" d="M1074.25,-233C1083.52,-233 1092.5,-233 1099.66,-233"/>
<polygon fill="midnightblue" stroke="midnightblue" points="1074.16,-229.5 1064.16,-233 1074.16,-236.5 1074.16,-229.5"/>
</g>
<!-- Node8 -->
<g id="node8" class="node"><title>Node8</title>
<g id="a_node8"><a xlink:href="classmodule__cu__tiedtke.html#a8840397e245a13cbb7c61f8cea6e7894" target="_top" xlink:title="module_cu_tiedtke::\lcumastr_new">
<polygon fill="white" stroke="black" points="420,-147 420,-177 524,-177 524,-147 420,-147"/>
<text text-anchor="start" x="428" y="-165" font-family="Helvetica,sans-Serif" font-size="10.00">module_cu_tiedtke::</text>
<text text-anchor="middle" x="472" y="-154" font-family="Helvetica,sans-Serif" font-size="10.00">cumastr_new</text>
</a>
</g>
</g>
<!-- Node7&#45;&gt;Node8 -->
<g id="edge7" class="edge"><title>Node7&#45;&gt;Node8</title>
<path fill="none" stroke="midnightblue" d="M375.468,-240.18C378.401,-238.508 381.273,-236.775 384,-235 410.771,-217.577 438.499,-192.972 455.253,-177.252"/>
<polygon fill="midnightblue" stroke="midnightblue" points="373.696,-237.159 366.564,-244.995 377.026,-243.316 373.696,-237.159"/>
</g>
<!-- Node8&#45;&gt;Node2 -->
<g id="edge8" class="edge"><title>Node8&#45;&gt;Node2</title>
<path fill="none" stroke="midnightblue" d="M511.446,-181.78C533.711,-193.235 561.294,-207.427 581.776,-217.964"/>
<polygon fill="midnightblue" stroke="midnightblue" points="512.76,-178.52 502.266,-177.057 509.557,-184.745 512.76,-178.52"/>
</g>
<!-- Node9&#45;&gt;Node7 -->
<g id="edge16" class="edge"><title>Node9&#45;&gt;Node7</title>
<path fill="none" stroke="midnightblue" d="M228.969,-182.709C234.189,-186.239 239.36,-190.05 244,-194 262.464,-209.72 260.739,-220.266 280,-235 284.778,-238.655 290.174,-241.987 295.623,-244.943"/>
<polygon fill="midnightblue" stroke="midnightblue" points="230.521,-179.546 220.222,-177.059 226.723,-185.426 230.521,-179.546"/>
</g>
<!-- Node10 -->
<g id="node10" class="node"><title>Node10</title>
<g id="a_node10"><a xlink:href="classmodule__cu__tiedtke.html#ad58bc964dc1ba2f7c52ec660f3ac783a" target="_top" xlink:title="module_cu_tiedtke::\lcuini">
<polygon fill="white" stroke="black" points="280,-196 280,-226 384,-226 384,-196 280,-196"/>
<text text-anchor="start" x="288" y="-214" font-family="Helvetica,sans-Serif" font-size="10.00">module_cu_tiedtke::</text>
<text text-anchor="middle" x="332" y="-203" font-family="Helvetica,sans-Serif" font-size="10.00">cuini</text>
</a>
</g>
</g>
<!-- Node9&#45;&gt;Node10 -->
<g id="edge10" class="edge"><title>Node9&#45;&gt;Node10</title>
<path fill="none" stroke="midnightblue" d="M245.202,-180.536C259.454,-185.596 274.723,-191.018 288.372,-195.864"/>
<polygon fill="midnightblue" stroke="midnightblue" points="246.125,-177.149 235.531,-177.101 243.783,-183.746 246.125,-177.149"/>
</g>
<!-- Node11 -->
<g id="node11" class="node"><title>Node11</title>
<g id="a_node11"><a xlink:href="classmodule__cu__tiedtke.html#a252e2ab4e675cefd721c0e6b4c7d0796" target="_top" xlink:title="module_cu_tiedtke::\lcubase">
<polygon fill="white" stroke="black" points="280,-147 280,-177 384,-177 384,-147 280,-147"/>
<text text-anchor="start" x="288" y="-165" font-family="Helvetica,sans-Serif" font-size="10.00">module_cu_tiedtke::</text>
<text text-anchor="middle" x="332" y="-154" font-family="Helvetica,sans-Serif" font-size="10.00">cubase</text>
</a>
</g>
</g>
<!-- Node9&#45;&gt;Node11 -->
<g id="edge12" class="edge"><title>Node9&#45;&gt;Node11</title>
<path fill="none" stroke="midnightblue" d="M254.496,-162C262.872,-162 271.398,-162 279.571,-162"/>
<polygon fill="midnightblue" stroke="midnightblue" points="254.386,-158.5 244.386,-162 254.386,-165.5 254.386,-158.5"/>
</g>
<!-- Node12 -->
<g id="node12" class="node"><title>Node12</title>
<g id="a_node12"><a xlink:href="classmodule__cu__tiedtke.html#a75265ba406fbb983606db3742939bc18" target="_top" xlink:title="module_cu_tiedtke::\lcutype">
<polygon fill="white" stroke="black" points="280,-98 280,-128 384,-128 384,-98 280,-98"/>
<text text-anchor="start" x="288" y="-116" font-family="Helvetica,sans-Serif" font-size="10.00">module_cu_tiedtke::</text>
<text text-anchor="middle" x="332" y="-105" font-family="Helvetica,sans-Serif" font-size="10.00">cutype</text>
</a>
</g>
</g>
<!-- Node9&#45;&gt;Node12 -->
<g id="edge14" class="edge"><title>Node9&#45;&gt;Node12</title>
<path fill="none" stroke="midnightblue" d="M245.202,-143.464C259.454,-138.404 274.723,-132.982 288.372,-128.136"/>
<polygon fill="midnightblue" stroke="midnightblue" points="243.783,-140.254 235.531,-146.899 246.125,-146.851 243.783,-140.254"/>
</g>
<!-- Node13 -->
<g id="node13" class="node"><title>Node13</title>
<g id="a_node13"><a xlink:href="classmodule__cu__tiedtke.html#ac30d7f0b03de20b3c35ae750e7b0b6d4" target="_top" xlink:title="module_cu_tiedtke::\lcudlfs">
<polygon fill="white" stroke="black" points="280,-49 280,-79 384,-79 384,-49 280,-49"/>
<text text-anchor="start" x="288" y="-67" font-family="Helvetica,sans-Serif" font-size="10.00">module_cu_tiedtke::</text>
<text text-anchor="middle" x="332" y="-56" font-family="Helvetica,sans-Serif" font-size="10.00">cudlfs</text>
</a>
</g>
</g>
<!-- Node9&#45;&gt;Node13 -->
<g id="edge17" class="edge"><title>Node9&#45;&gt;Node13</title>
<path fill="none" stroke="midnightblue" d="M215.998,-139.475C232.805,-123.78 256.65,-103.043 280,-88 284.936,-84.8201 290.359,-81.8124 295.771,-79.0709"/>
<polygon fill="midnightblue" stroke="midnightblue" points="213.196,-137.309 208.346,-146.728 218.011,-142.389 213.196,-137.309"/>
</g>
<!-- Node14 -->
<g id="node14" class="node"><title>Node14</title>
<g id="a_node14"><a xlink:href="classmodule__cu__tiedtke.html#a38ab6318e5e3bdd086bd5969c9728dc4" target="_top" xlink:title="module_cu_tiedtke::\lcuddraf">
<polygon fill="white" stroke="black" points="280,-0 280,-30 384,-30 384,-0 280,-0"/>
<text text-anchor="start" x="288" y="-18" font-family="Helvetica,sans-Serif" font-size="10.00">module_cu_tiedtke::</text>
<text text-anchor="middle" x="332" y="-7" font-family="Helvetica,sans-Serif" font-size="10.00">cuddraf</text>
</a>
</g>
</g>
<!-- Node9&#45;&gt;Node14 -->
<g id="edge19" class="edge"><title>Node9&#45;&gt;Node14</title>
<path fill="none" stroke="midnightblue" d="M205.214,-137.69C219.844,-110.613 246.612,-66.9803 280,-39 283.975,-35.6687 288.49,-32.6882 293.151,-30.0558"/>
<polygon fill="midnightblue" stroke="midnightblue" points="201.949,-136.378 200.384,-146.857 208.142,-139.642 201.949,-136.378"/>
</g>
<!-- Node10&#45;&gt;Node8 -->
<g id="edge11" class="edge"><title>Node10&#45;&gt;Node8</title>
<path fill="none" stroke="midnightblue" d="M385.202,-192.464C399.454,-187.404 414.723,-181.982 428.372,-177.136"/>
<polygon fill="midnightblue" stroke="midnightblue" points="383.783,-189.254 375.531,-195.899 386.125,-195.851 383.783,-189.254"/>
</g>
<!-- Node11&#45;&gt;Node8 -->
<g id="edge13" class="edge"><title>Node11&#45;&gt;Node8</title>
<path fill="none" stroke="midnightblue" d="M394.496,-162C402.872,-162 411.398,-162 419.571,-162"/>
<polygon fill="midnightblue" stroke="midnightblue" points="394.386,-158.5 384.386,-162 394.386,-165.5 394.386,-158.5"/>
</g>
<!-- Node12&#45;&gt;Node8 -->
<g id="edge15" class="edge"><title>Node12&#45;&gt;Node8</title>
<path fill="none" stroke="midnightblue" d="M385.202,-131.536C399.454,-136.596 414.723,-142.018 428.372,-146.864"/>
<polygon fill="midnightblue" stroke="midnightblue" points="386.125,-128.149 375.531,-128.101 383.783,-134.746 386.125,-128.149"/>
</g>
<!-- Node13&#45;&gt;Node8 -->
<g id="edge18" class="edge"><title>Node13&#45;&gt;Node8</title>
<path fill="none" stroke="midnightblue" d="M377.284,-83.9331C379.588,-85.2506 381.841,-86.6088 384,-88 411.17,-105.505 439.012,-130.719 455.654,-146.728"/>
<polygon fill="midnightblue" stroke="midnightblue" points="378.695,-80.7184 368.229,-79.0709 375.383,-86.8855 378.695,-80.7184"/>
</g>
<!-- Node14&#45;&gt;Node8 -->
<g id="edge20" class="edge"><title>Node14&#45;&gt;Node8</title>
<path fill="none" stroke="midnightblue" d="M379.321,-35.4002C380.943,-36.5509 382.509,-37.7508 384,-39 421.488,-70.4165 450.63,-121.566 463.616,-146.857"/>
<polygon fill="midnightblue" stroke="midnightblue" points="381.174,-32.4308 370.849,-30.0558 377.439,-38.3513 381.174,-32.4308"/>
</g>
<!-- Node15&#45;&gt;Node7 -->
<g id="edge22" class="edge"><title>Node15&#45;&gt;Node7</title>
<path fill="none" stroke="midnightblue" d="M253.305,-236.917C262.347,-239.603 271.591,-242.35 280.404,-244.968"/>
<polygon fill="midnightblue" stroke="midnightblue" points="254.185,-233.527 243.603,-234.034 252.192,-240.237 254.185,-233.527"/>
</g>
</g>
</svg>
