<?xml version="1.0" encoding="UTF-8" standalone="no"?>
<!DOCTYPE svg PUBLIC "-//W3C//DTD SVG 1.1//EN"
 "http://www.w3.org/Graphics/SVG/1.1/DTD/svg11.dtd">
<!-- Generated by graphviz version 2.38.0 (20140413.2041)
 -->
<!-- Title: pbl_simple::init_simple_pbl Pages: 1 -->
<svg width="470pt" height="39pt"
 viewBox="0.00 0.00 470.00 39.00" xmlns="http://www.w3.org/2000/svg" xmlns:xlink="http://www.w3.org/1999/xlink">
<g id="graph0" class="graph" transform="scale(1 1) rotate(0) translate(4 35)">
<title>pbl_simple::init_simple_pbl</title>
<polygon fill="white" stroke="none" points="-4,4 -4,-35 466,-35 466,4 -4,4"/>
<!-- Node1 -->
<g id="node1" class="node"><title>Node1</title>
<polygon fill="#bfbfbf" stroke="black" points="0,-6 0,-25 134,-25 134,-6 0,-6"/>
<text text-anchor="middle" x="67" y="-13" font-family="Helvetica,sans-Serif" font-size="10.00">pbl_simple::init_simple_pbl</text>
</g>
<!-- Node2 -->
<g id="node2" class="node"><title>Node2</title>
<g id="a_node2"><a xlink:href="classplanetary__boundary__layer.html#a3aa43010ef750e900073bf0ce5cca626" target="_top" xlink:title="planetary_boundary\l_layer::pbl_init">
<polygon fill="white" stroke="black" points="170,-0.5 170,-30.5 271,-30.5 271,-0.5 170,-0.5"/>
<text text-anchor="start" x="178" y="-18.5" font-family="Helvetica,sans-Serif" font-size="10.00">planetary_boundary</text>
<text text-anchor="middle" x="220.5" y="-7.5" font-family="Helvetica,sans-Serif" font-size="10.00">_layer::pbl_init</text>
</a>
</g>
</g>
<!-- Node1&#45;&gt;Node2 -->
<g id="edge1" class="edge"><title>Node1&#45;&gt;Node2</title>
<path fill="none" stroke="midnightblue" d="M144.152,-15.5C152.813,-15.5 161.467,-15.5 169.66,-15.5"/>
<polygon fill="midnightblue" stroke="midnightblue" points="144.009,-12.0001 134.009,-15.5 144.009,-19.0001 144.009,-12.0001"/>
</g>
<!-- Node3 -->
<g id="node3" class="node"><title>Node3</title>
<g id="a_node3"><a xlink:href="classinit.html#ad066397f42956c6e9d50884a2e84d4e4" target="_top" xlink:title="init::init_physics">
<polygon fill="white" stroke="black" points="307,-6 307,-25 394,-25 394,-6 307,-6"/>
<text text-anchor="middle" x="350.5" y="-13" font-family="Helvetica,sans-Serif" font-size="10.00">init::init_physics</text>
</a>
</g>
</g>
<!-- Node2&#45;&gt;Node3 -->
<g id="edge2" class="edge"><title>Node2&#45;&gt;Node3</title>
<path fill="none" stroke="midnightblue" d="M281.585,-15.5C290.041,-15.5 298.59,-15.5 306.636,-15.5"/>
<polygon fill="midnightblue" stroke="midnightblue" points="281.355,-12.0001 271.355,-15.5 281.355,-19.0001 281.355,-12.0001"/>
</g>
<!-- Node4 -->
<g id="node4" class="node"><title>Node4</title>
<g id="a_node4"><a xlink:href="driver_8f90.html#ab1e5a5816a57fc6e95d9563c2bb53590" target="_top" xlink:title=" Main Program ">
<polygon fill="white" stroke="black" points="430,-6 430,-25 462,-25 462,-6 430,-6"/>
<text text-anchor="middle" x="446" y="-13" font-family="Helvetica,sans-Serif" font-size="10.00">icar</text>
</a>
</g>
</g>
<!-- Node3&#45;&gt;Node4 -->
<g id="edge3" class="edge"><title>Node3&#45;&gt;Node4</title>
<path fill="none" stroke="midnightblue" d="M404.293,-15.5C413.593,-15.5 422.569,-15.5 429.714,-15.5"/>
<polygon fill="midnightblue" stroke="midnightblue" points="404.146,-12.0001 394.146,-15.5 404.146,-19.0001 404.146,-12.0001"/>
</g>
</g>
</svg>
