<?xml version="1.0" encoding="UTF-8" standalone="no"?>
<!DOCTYPE svg PUBLIC "-//W3C//DTD SVG 1.1//EN"
 "http://www.w3.org/Graphics/SVG/1.1/DTD/svg11.dtd">
<!-- Generated by graphviz version 2.32.0 (20130809.1645)
 -->
<!-- Title: initialize_options::adv_parameters_namelist Pages: 1 -->
<svg width="560pt" height="126pt"
 viewBox="0.00 0.00 560.00 126.00" xmlns="http://www.w3.org/2000/svg" xmlns:xlink="http://www.w3.org/1999/xlink">
<g id="graph0" class="graph" transform="scale(1 1) rotate(0) translate(4 122)">
<title>initialize_options::adv_parameters_namelist</title>
<polygon fill="white" stroke="white" points="-4,5 -4,-122 557,-122 557,5 -4,5"/>
<!-- Node1 -->
<g id="node1" class="node"><title>Node1</title>
<polygon fill="#bfbfbf" stroke="black" points="0,-44 0,-74 134,-74 134,-44 0,-44"/>
<text text-anchor="start" x="8" y="-62" font-family="Helvetica,sans-Serif" font-size="10.00">initialize_options</text>
<text text-anchor="middle" x="67" y="-51" font-family="Helvetica,sans-Serif" font-size="10.00">::adv_parameters_namelist</text>
</g>
<!-- Node2 -->
<g id="node2" class="node"><title>Node2</title>
<g id="a_node2"><a xlink:href="classinitialize__options.html#a09a50b9cb8e065acef2d92f2a1b615fd" target="_top" xlink:title="initialize_options\l::get_options_file">
<polygon fill="white" stroke="black" points="170.5,-88 170.5,-118 261.5,-118 261.5,-88 170.5,-88"/>
<text text-anchor="start" x="178.5" y="-106" font-family="Helvetica,sans-Serif" font-size="10.00">initialize_options</text>
<text text-anchor="middle" x="216" y="-95" font-family="Helvetica,sans-Serif" font-size="10.00">::get_options_file</text>
</a>
</g>
</g>
<!-- Node1&#45;&gt;Node2 -->
<g id="edge1" class="edge"><title>Node1&#45;&gt;Node2</title>
<path fill="none" stroke="midnightblue" d="M118.178,-74.0192C131.831,-78.106 146.683,-82.5513 160.56,-86.7051"/>
<polygon fill="midnightblue" stroke="midnightblue" points="159.878,-90.1543 170.462,-89.6689 161.885,-83.4483 159.878,-90.1543"/>
</g>
<!-- Node3 -->
<g id="node3" class="node"><title>Node3</title>
<g id="a_node3"><a xlink:href="classinitialize__options.html#a7161e810e27d3c830e135c3811ae290b" target="_top" xlink:title="initialize_options\l::version_check">
<polygon fill="white" stroke="black" points="171.5,-0 171.5,-30 260.5,-30 260.5,-0 171.5,-0"/>
<text text-anchor="start" x="179.5" y="-18" font-family="Helvetica,sans-Serif" font-size="10.00">initialize_options</text>
<text text-anchor="middle" x="216" y="-7" font-family="Helvetica,sans-Serif" font-size="10.00">::version_check</text>
</a>
</g>
</g>
<!-- Node1&#45;&gt;Node3 -->
<g id="edge2" class="edge"><title>Node1&#45;&gt;Node3</title>
<path fill="none" stroke="midnightblue" d="M118.178,-43.9808C132.234,-39.7734 147.56,-35.1861 161.786,-30.928"/>
<polygon fill="midnightblue" stroke="midnightblue" points="162.853,-34.262 171.43,-28.0414 160.846,-27.556 162.853,-34.262"/>
</g>
<!-- Node4 -->
<g id="node4" class="node"><title>Node4</title>
<g id="a_node4"><a xlink:href="classio__routines.html#a754b76158aa8311e1ee112004ddae52b" target="_top" xlink:title=" Find an available file unit number. ">
<polygon fill="white" stroke="black" points="298,-49.5 298,-68.5 414,-68.5 414,-49.5 298,-49.5"/>
<text text-anchor="middle" x="356" y="-56.5" font-family="Helvetica,sans-Serif" font-size="10.00">io_routines::io_newunit</text>
</a>
</g>
</g>
<!-- Node1&#45;&gt;Node4 -->
<g id="edge6" class="edge"><title>Node1&#45;&gt;Node4</title>
<path fill="none" stroke="midnightblue" d="M134.204,-59C180.221,-59 241.354,-59 287.624,-59"/>
<polygon fill="midnightblue" stroke="midnightblue" points="287.855,-62.5001 297.855,-59 287.855,-55.5001 287.855,-62.5001"/>
</g>
<!-- Node3&#45;&gt;Node4 -->
<g id="edge3" class="edge"><title>Node3&#45;&gt;Node4</title>
<path fill="none" stroke="midnightblue" d="M260.664,-28.9219C278.223,-34.5202 298.323,-40.929 315.445,-46.3884"/>
<polygon fill="midnightblue" stroke="midnightblue" points="314.55,-49.7766 325.141,-49.4798 316.677,-43.1073 314.55,-49.7766"/>
</g>
<!-- Node5 -->
<g id="node5" class="node"><title>Node5</title>
<g id="a_node5"><a xlink:href="classmodel__tracking.html#a0c78b5716b846487efd52d7b78dae261" target="_top" xlink:title="model_tracking::print\l_model_diffs">
<polygon fill="white" stroke="black" points="302.5,-0 302.5,-30 409.5,-30 409.5,-0 302.5,-0"/>
<text text-anchor="start" x="310.5" y="-18" font-family="Helvetica,sans-Serif" font-size="10.00">model_tracking::print</text>
<text text-anchor="middle" x="356" y="-7" font-family="Helvetica,sans-Serif" font-size="10.00">_model_diffs</text>
</a>
</g>
</g>
<!-- Node3&#45;&gt;Node5 -->
<g id="edge4" class="edge"><title>Node3&#45;&gt;Node5</title>
<path fill="none" stroke="midnightblue" d="M260.664,-15C270.717,-15 281.604,-15 292.287,-15"/>
<polygon fill="midnightblue" stroke="midnightblue" points="292.434,-18.5001 302.434,-15 292.434,-11.5001 292.434,-18.5001"/>
</g>
<!-- Node6 -->
<g id="node6" class="node"><title>Node6</title>
<g id="a_node6"><a xlink:href="classmodel__tracking.html#a417ef049855367c1fb14cadf2203536f" target="_top" xlink:title="model_tracking::init\l_model_diffs">
<polygon fill="white" stroke="black" points="450.5,-0 450.5,-30 551.5,-30 551.5,-0 450.5,-0"/>
<text text-anchor="start" x="458.5" y="-18" font-family="Helvetica,sans-Serif" font-size="10.00">model_tracking::init</text>
<text text-anchor="middle" x="501" y="-7" font-family="Helvetica,sans-Serif" font-size="10.00">_model_diffs</text>
</a>
</g>
</g>
<!-- Node5&#45;&gt;Node6 -->
<g id="edge5" class="edge"><title>Node5&#45;&gt;Node6</title>
<path fill="none" stroke="midnightblue" d="M409.842,-15C419.644,-15 429.949,-15 439.948,-15"/>
<polygon fill="midnightblue" stroke="midnightblue" points="440.222,-18.5001 450.222,-15 440.222,-11.5001 440.222,-18.5001"/>
</g>
</g>
</svg>
