<?xml version="1.0" encoding="UTF-8" standalone="no"?>
<!DOCTYPE svg PUBLIC "-//W3C//DTD SVG 1.1//EN"
 "http://www.w3.org/Graphics/SVG/1.1/DTD/svg11.dtd">
<!-- Generated by graphviz version 2.32.0 (20130809.1645)
 -->
<!-- Title: output::setup_varids Pages: 1 -->
<svg width="468pt" height="115pt"
 viewBox="0.00 0.00 468.00 115.00" xmlns="http://www.w3.org/2000/svg" xmlns:xlink="http://www.w3.org/1999/xlink">
<g id="graph0" class="graph" transform="scale(1 1) rotate(0) translate(4 111)">
<title>output::setup_varids</title>
<polygon fill="white" stroke="white" points="-4,5 -4,-111 465,-111 465,5 -4,5"/>
<!-- Node1 -->
<g id="node1" class="node"><title>Node1</title>
<polygon fill="#bfbfbf" stroke="black" points="0.5,-38.5 0.5,-57.5 105.5,-57.5 105.5,-38.5 0.5,-38.5"/>
<text text-anchor="middle" x="53" y="-45.5" font-family="Helvetica,sans-Serif" font-size="10.00">output::setup_varids</text>
</g>
<!-- Node2 -->
<g id="node2" class="node"><title>Node2</title>
<g id="a_node2"><a xlink:href="classoutput.html#a96fb2c72004c645360fa3e6f2b551b50" target="_top" xlink:title=" Simple routine to write all domain data from this current time step to the output file...">
<polygon fill="white" stroke="black" points="142.5,-38.5 142.5,-57.5 249.5,-57.5 249.5,-38.5 142.5,-38.5"/>
<text text-anchor="middle" x="196" y="-45.5" font-family="Helvetica,sans-Serif" font-size="10.00">output::write_domain</text>
</a>
</g>
</g>
<!-- Node1&#45;&gt;Node2 -->
<g id="edge1" class="edge"><title>Node1&#45;&gt;Node2</title>
<path fill="none" stroke="midnightblue" d="M115.933,-48C124.748,-48 133.744,-48 142.359,-48"/>
<polygon fill="midnightblue" stroke="midnightblue" points="115.703,-44.5001 105.703,-48 115.703,-51.5001 115.703,-44.5001"/>
</g>
<!-- Node3 -->
<g id="node3" class="node"><title>Node3</title>
<g id="a_node3"><a xlink:href="classboundary__conditions.html#a07a42f467f470ada98e0a35fd5a75f66" target="_top" xlink:title=" Initialize the boundary conditions (read inital conditions, etc.) ">
<polygon fill="white" stroke="black" points="286,-77 286,-107 392,-107 392,-77 286,-77"/>
<text text-anchor="start" x="294" y="-95" font-family="Helvetica,sans-Serif" font-size="10.00">boundary_conditions</text>
<text text-anchor="middle" x="339" y="-84" font-family="Helvetica,sans-Serif" font-size="10.00">::bc_init</text>
</a>
</g>
</g>
<!-- Node2&#45;&gt;Node3 -->
<g id="edge2" class="edge"><title>Node2&#45;&gt;Node3</title>
<path fill="none" stroke="midnightblue" d="M237.375,-60.5992C253.698,-65.6931 272.676,-71.6151 289.722,-76.9346"/>
<polygon fill="midnightblue" stroke="midnightblue" points="238.184,-57.1852 227.595,-57.5473 236.098,-63.8674 238.184,-57.1852"/>
</g>
<!-- Node4 -->
<g id="node4" class="node"><title>Node4</title>
<g id="a_node4"><a xlink:href="driver_8f90.html#ab1e5a5816a57fc6e95d9563c2bb53590" target="_top" xlink:title=" Main Program ">
<polygon fill="white" stroke="black" points="428,-38.5 428,-57.5 460,-57.5 460,-38.5 428,-38.5"/>
<text text-anchor="middle" x="444" y="-45.5" font-family="Helvetica,sans-Serif" font-size="10.00">icar</text>
</a>
</g>
</g>
<!-- Node2&#45;&gt;Node4 -->
<g id="edge4" class="edge"><title>Node2&#45;&gt;Node4</title>
<path fill="none" stroke="midnightblue" d="M260.042,-48C316.514,-48 395.309,-48 427.934,-48"/>
<polygon fill="midnightblue" stroke="midnightblue" points="259.773,-44.5001 249.773,-48 259.773,-51.5001 259.773,-44.5001"/>
</g>
<!-- Node5 -->
<g id="node5" class="node"><title>Node5</title>
<g id="a_node5"><a xlink:href="classtime__step.html#a2c022f11247af72e607b1493289aa974" target="_top" xlink:title=" Step forward one IO time step. ">
<polygon fill="white" stroke="black" points="297,-0.5 297,-19.5 381,-19.5 381,-0.5 297,-0.5"/>
<text text-anchor="middle" x="339" y="-7.5" font-family="Helvetica,sans-Serif" font-size="10.00">time_step::step</text>
</a>
</g>
</g>
<!-- Node2&#45;&gt;Node5 -->
<g id="edge5" class="edge"><title>Node2&#45;&gt;Node5</title>
<path fill="none" stroke="midnightblue" d="M242.44,-35.7538C261.875,-30.516 284.231,-24.4909 302.431,-19.5859"/>
<polygon fill="midnightblue" stroke="midnightblue" points="241.325,-32.4293 232.58,-38.411 243.147,-39.1882 241.325,-32.4293"/>
</g>
<!-- Node3&#45;&gt;Node4 -->
<g id="edge3" class="edge"><title>Node3&#45;&gt;Node4</title>
<path fill="none" stroke="midnightblue" d="M384.625,-72.937C400.084,-66.3328 416.386,-59.3692 427.821,-54.4842"/>
<polygon fill="midnightblue" stroke="midnightblue" points="382.98,-69.8337 375.159,-76.9808 385.73,-76.2709 382.98,-69.8337"/>
</g>
<!-- Node5&#45;&gt;Node4 -->
<g id="edge6" class="edge"><title>Node5&#45;&gt;Node4</title>
<path fill="none" stroke="midnightblue" d="M375.572,-23.1236C393.456,-29.7216 414.183,-37.3684 427.885,-42.4236"/>
<polygon fill="midnightblue" stroke="midnightblue" points="376.585,-19.7667 365.991,-19.589 374.162,-26.334 376.585,-19.7667"/>
</g>
</g>
</svg>
