<?xml version="1.0" encoding="UTF-8" standalone="no"?>
<!DOCTYPE svg PUBLIC "-//W3C//DTD SVG 1.1//EN"
 "http://www.w3.org/Graphics/SVG/1.1/DTD/svg11.dtd">
<!-- Generated by graphviz version 2.32.0 (20130809.1645)
 -->
<!-- Title: time::calc_day_of_year Pages: 1 -->
<!--zoomable 52 -->
<svg id="main" version="1.1" xmlns="http://www.w3.org/2000/svg" xmlns:xlink="http://www.w3.org/1999/xlink" xml:space="preserve" onload="init(evt)">
<style type="text/css"><![CDATA[
.edge:hover path { stroke: red; }
.edge:hover polygon { stroke: red; fill: red; }
]]></style>
<script type="text/javascript"><![CDATA[
var edges = document.getElementsByTagName('g');
if (edges && edges.length) {
  for (var i=0;i<edges.length;i++) {
    if (edges[i].id.substr(0,4)=='edge') {
      edges[i].setAttribute('class','edge');
    }
  }
}
]]></script>
        <defs>
                <circle id="rim" cx="0" cy="0" r="7"/>
                <circle id="rim2" cx="0" cy="0" r="3.5"/>
                <g id="zoomPlus">
                        <use xlink:href="#rim" fill="#404040">
                                <set attributeName="fill" to="#808080" begin="zoomplus.mouseover" end="zoomplus.mouseout"/>
                        </use>
                        <path d="M-4,0h8M0,-4v8" fill="none" stroke="white" stroke-width="1.5" pointer-events="none"/>
                </g>
                <g id="zoomMin">
                        <use xlink:href="#rim" fill="#404040">
                                <set attributeName="fill" to="#808080" begin="zoomminus.mouseover" end="zoomminus.mouseout"/>
                        </use>
                        <path d="M-4,0h8" fill="none" stroke="white" stroke-width="1.5" pointer-events="none"/>
                </g>
                <g id="dirArrow">
                        <path fill="none" stroke="white" stroke-width="1.5" d="M0,-3.0v7 M-2.5,-0.5L0,-3.0L2.5,-0.5"/>
                </g>
               <g id="resetDef">
                       <use xlink:href="#rim2" fill="#404040">
                               <set attributeName="fill" to="#808080" begin="reset.mouseover" end="reset.mouseout"/>
                       </use>
               </g>
        </defs>

<script type="text/javascript">
var viewWidth = 1156;
var viewHeight = 52;
var sectionId = 'dynsection-1';
</script>
<script xlink:href="svgpan.js"/>
<svg id="graph" class="graph">
<g id="viewport">
<title>time::calc_day_of_year</title>
<polygon fill="white" stroke="white" points="-4,5 -4,-48 1153,-48 1153,5 -4,5"/>
<!-- Node1 -->
<g id="node1" class="node"><title>Node1</title>
<polygon fill="#bfbfbf" stroke="black" points="0,-19.5 0,-38.5 118,-38.5 118,-19.5 0,-19.5"/>
<text text-anchor="middle" x="59" y="-26.5" font-family="Helvetica,sans-Serif" font-size="10.00">time::calc_day_of_year</text>
</g>
<!-- Node2 -->
<g id="node2" class="node"><title>Node2</title>
<g id="a_node2"><a xlink:href="classmodule__ra__simple.html#a4529da23ec7082aeafd82ffcad0e6e43" target="_top" xlink:title="module_ra_simple::calc\l_solar_elevation">
<polygon fill="white" stroke="black" points="154.5,-14 154.5,-44 273.5,-44 273.5,-14 154.5,-14"/>
<text text-anchor="start" x="162.5" y="-32" font-family="Helvetica,sans-Serif" font-size="10.00">module_ra_simple::calc</text>
<text text-anchor="middle" x="214" y="-21" font-family="Helvetica,sans-Serif" font-size="10.00">_solar_elevation</text>
</a>
</g>
</g>
<!-- Node1&#45;&gt;Node2 -->
<g id="edge1" class="edge"><title>Node1&#45;&gt;Node2</title>
<path fill="none" stroke="midnightblue" d="M128.374,-29C137.051,-29 145.87,-29 154.376,-29"/>
<polygon fill="midnightblue" stroke="midnightblue" points="128.279,-25.5001 118.279,-29 128.279,-32.5001 128.279,-25.5001"/>
</g>
<!-- Node3 -->
<g id="node3" class="node"><title>Node3</title>
<g id="a_node3"><a xlink:href="classmodule__ra__simple.html#ad1c74605b2817f833d31e806f791e246" target="_top" xlink:title="module_ra_simple::ra\l_simple">
<polygon fill="white" stroke="black" points="310,-14 310,-44 420,-44 420,-14 310,-14"/>
<text text-anchor="start" x="318" y="-32" font-family="Helvetica,sans-Serif" font-size="10.00">module_ra_simple::ra</text>
<text text-anchor="middle" x="365" y="-21" font-family="Helvetica,sans-Serif" font-size="10.00">_simple</text>
</a>
</g>
</g>
<!-- Node2&#45;&gt;Node3 -->
<g id="edge2" class="edge"><title>Node2&#45;&gt;Node3</title>
<path fill="none" stroke="midnightblue" d="M284.012,-29C292.699,-29 301.487,-29 309.898,-29"/>
<polygon fill="midnightblue" stroke="midnightblue" points="283.889,-25.5001 273.889,-29 283.889,-32.5001 283.889,-25.5001"/>
</g>
<!-- Node4 -->
<g id="node4" class="node"><title>Node4</title>
<g id="a_node4"><a xlink:href="classradiation.html#aba1a06d27af96fe11d576458c8ccfe77" target="_top" xlink:title="radiation::rad">
<polygon fill="white" stroke="black" points="456.5,-19.5 456.5,-38.5 529.5,-38.5 529.5,-19.5 456.5,-19.5"/>
<text text-anchor="middle" x="493" y="-26.5" font-family="Helvetica,sans-Serif" font-size="10.00">radiation::rad</text>
</a>
</g>
</g>
<!-- Node3&#45;&gt;Node4 -->
<g id="edge3" class="edge"><title>Node3&#45;&gt;Node4</title>
<path fill="none" stroke="midnightblue" d="M430.297,-29C439.292,-29 448.251,-29 456.441,-29"/>
<polygon fill="midnightblue" stroke="midnightblue" points="430.167,-25.5001 420.167,-29 430.167,-32.5001 430.167,-25.5001"/>
</g>
<!-- Node5 -->
<g id="node5" class="node"><title>Node5</title>
<g id="a_node5"><a xlink:href="classtime__step.html#a2c022f11247af72e607b1493289aa974" target="_top" xlink:title=" Step forward one IO time step. ">
<polygon fill="white" stroke="black" points="996,-19.5 996,-38.5 1080,-38.5 1080,-19.5 996,-19.5"/>
<text text-anchor="middle" x="1038" y="-26.5" font-family="Helvetica,sans-Serif" font-size="10.00">time_step::step</text>
</a>
</g>
</g>
<!-- Node4&#45;&gt;Node5 -->
<g id="edge4" class="edge"><title>Node4&#45;&gt;Node5</title>
<path fill="none" stroke="midnightblue" d="M539.802,-29C643.772,-29 896.289,-29 995.755,-29"/>
<polygon fill="midnightblue" stroke="midnightblue" points="539.628,-25.5001 529.628,-29 539.628,-32.5001 539.628,-25.5001"/>
</g>
<!-- Node7 -->
<g id="node7" class="node"><title>Node7</title>
<g id="a_node7"><a xlink:href="classmodule__cu__kf.html#afbc0670c02010c630409b1796e89a3fb" target="_top" xlink:title="module_cu_kf::kfpara">
<polygon fill="white" stroke="black" points="566,-0.5 566,-19.5 676,-19.5 676,-0.5 566,-0.5"/>
<text text-anchor="middle" x="621" y="-7.5" font-family="Helvetica,sans-Serif" font-size="10.00">module_cu_kf::kfpara</text>
</a>
</g>
</g>
<!-- Node4&#45;&gt;Node7 -->
<g id="edge6" class="edge"><title>Node4&#45;&gt;Node7</title>
<path fill="none" stroke="midnightblue" d="M539.797,-22.094C548.237,-20.8214 557.122,-19.4816 565.782,-18.1757"/>
<polygon fill="midnightblue" stroke="midnightblue" points="539.136,-18.6541 529.77,-23.6062 540.18,-25.5759 539.136,-18.6541"/>
</g>
<!-- Node6 -->
<g id="node6" class="node"><title>Node6</title>
<g id="a_node6"><a xlink:href="driver_8f90.html#ab1e5a5816a57fc6e95d9563c2bb53590" target="_top" xlink:title=" Main Program ">
<polygon fill="white" stroke="black" points="1116,-19.5 1116,-38.5 1148,-38.5 1148,-19.5 1116,-19.5"/>
<text text-anchor="middle" x="1132" y="-26.5" font-family="Helvetica,sans-Serif" font-size="10.00">icar</text>
</a>
</g>
</g>
<!-- Node5&#45;&gt;Node6 -->
<g id="edge5" class="edge"><title>Node5&#45;&gt;Node6</title>
<path fill="none" stroke="midnightblue" d="M1090.25,-29C1099.52,-29 1108.5,-29 1115.66,-29"/>
<polygon fill="midnightblue" stroke="midnightblue" points="1090.16,-25.5001 1080.16,-29 1090.16,-32.5001 1090.16,-25.5001"/>
</g>
<!-- Node8 -->
<g id="node8" class="node"><title>Node8</title>
<g id="a_node8"><a xlink:href="classmodule__cu__kf.html#a273d9ce9bce064bfc092d6940bea4e27" target="_top" xlink:title="module_cu_kf::kfcps">
<polygon fill="white" stroke="black" points="712.5,-0.5 712.5,-19.5 819.5,-19.5 819.5,-0.5 712.5,-0.5"/>
<text text-anchor="middle" x="766" y="-7.5" font-family="Helvetica,sans-Serif" font-size="10.00">module_cu_kf::kfcps</text>
</a>
</g>
</g>
<!-- Node7&#45;&gt;Node8 -->
<g id="edge7" class="edge"><title>Node7&#45;&gt;Node8</title>
<path fill="none" stroke="midnightblue" d="M686.203,-10C694.925,-10 703.794,-10 712.282,-10"/>
<polygon fill="midnightblue" stroke="midnightblue" points="686.062,-6.5001 676.062,-10 686.062,-13.5001 686.062,-6.5001"/>
</g>
<!-- Node9 -->
<g id="node9" class="node"><title>Node9</title>
<g id="a_node9"><a xlink:href="classconvection.html#a06b811540eb747b3734e7fb35de41782" target="_top" xlink:title="convection::convect">
<polygon fill="white" stroke="black" points="856,-0.5 856,-19.5 960,-19.5 960,-0.5 856,-0.5"/>
<text text-anchor="middle" x="908" y="-7.5" font-family="Helvetica,sans-Serif" font-size="10.00">convection::convect</text>
</a>
</g>
</g>
<!-- Node8&#45;&gt;Node9 -->
<g id="edge8" class="edge"><title>Node8&#45;&gt;Node9</title>
<path fill="none" stroke="midnightblue" d="M829.615,-10C838.295,-10 847.127,-10 855.571,-10"/>
<polygon fill="midnightblue" stroke="midnightblue" points="829.529,-6.5001 819.529,-10 829.529,-13.5001 829.529,-6.5001"/>
</g>
<!-- Node9&#45;&gt;Node5 -->
<g id="edge9" class="edge"><title>Node9&#45;&gt;Node5</title>
<path fill="none" stroke="midnightblue" d="M970.406,-19.115C979.051,-20.3982 987.759,-21.6907 995.897,-22.8988"/>
<polygon fill="midnightblue" stroke="midnightblue" points="970.731,-15.6249 960.325,-17.6185 969.703,-22.549 970.731,-15.6249"/>
</g>
</g>
</svg>
        <g id="navigator" transform="translate(0 0)" fill="#404254">
                <rect fill="#f2f5e9" fill-opacity="0.5" stroke="#606060" stroke-width=".5" x="0" y="0" width="60" height="60"/>
                <use id="zoomplus" xlink:href="#zoomPlus" x="17" y="9" onmousedown="handleZoom(evt,'in')"/>
                <use id="zoomminus" xlink:href="#zoomMin" x="42" y="9" onmousedown="handleZoom(evt,'out')"/>
                <use id="reset" xlink:href="#resetDef" x="30" y="36" onmousedown="handleReset()"/>
                <g id="arrowUp" xlink:href="#dirArrow" transform="translate(30 24)" onmousedown="handlePan(0,-1)">
                  <use xlink:href="#rim" fill="#404040">
                        <set attributeName="fill" to="#808080" begin="arrowUp.mouseover" end="arrowUp.mouseout"/>
                  </use>
                  <path fill="none" stroke="white" stroke-width="1.5" d="M0,-3.0v7 M-2.5,-0.5L0,-3.0L2.5,-0.5"/>
                </g>
                <g id="arrowRight" xlink:href="#dirArrow" transform="rotate(90) translate(36 -43)" onmousedown="handlePan(1,0)">
                  <use xlink:href="#rim" fill="#404040">
                        <set attributeName="fill" to="#808080" begin="arrowRight.mouseover" end="arrowRight.mouseout"/>
                  </use>
                  <path fill="none" stroke="white" stroke-width="1.5" d="M0,-3.0v7 M-2.5,-0.5L0,-3.0L2.5,-0.5"/>
                </g>
                <g id="arrowDown" xlink:href="#dirArrow" transform="rotate(180) translate(-30 -48)" onmousedown="handlePan(0,1)">
                  <use xlink:href="#rim" fill="#404040">
                        <set attributeName="fill" to="#808080" begin="arrowDown.mouseover" end="arrowDown.mouseout"/>
                  </use>
                  <path fill="none" stroke="white" stroke-width="1.5" d="M0,-3.0v7 M-2.5,-0.5L0,-3.0L2.5,-0.5"/>
                </g>
                <g id="arrowLeft" xlink:href="#dirArrow" transform="rotate(270) translate(-36 17)" onmousedown="handlePan(-1,0)">
                  <use xlink:href="#rim" fill="#404040">
                        <set attributeName="fill" to="#808080" begin="arrowLeft.mouseover" end="arrowLeft.mouseout"/>
                  </use>
                  <path fill="none" stroke="white" stroke-width="1.5" d="M0,-3.0v7 M-2.5,-0.5L0,-3.0L2.5,-0.5"/>
                </g>
        </g>
        <svg viewBox="0 0 15 15" width="100%" height="30px" preserveAspectRatio="xMaxYMin meet">
         <g id="arrow_out" transform="scale(0.3 0.3)">
          <a xlink:href="classtime_adfcbe10943e169e25a9ee15ddb3ce70b_icgraph_org.svg" target="_base">
           <rect id="button" ry="5" rx="5" y="6" x="6" height="38" width="38"
                fill="#f2f5e9" fill-opacity="0.5" stroke="#606060" stroke-width="1.0"/>
           <path id="arrow"
             d="M 11.500037,31.436501 C 11.940474,20.09759 22.043105,11.32322 32.158766,21.979434 L 37.068811,17.246167 C 37.068811,17.246167 37.088388,32 37.088388,32 L 22.160133,31.978069 C 22.160133,31.978069 26.997745,27.140456 26.997745,27.140456 C 18.528582,18.264221 13.291696,25.230495 11.500037,31.436501 z"
             style="fill:#404040;"/>
          </a>
         </g>
        </svg>
</svg>
