<?xml version="1.0" encoding="UTF-8" standalone="no"?>
<!DOCTYPE svg PUBLIC "-//W3C//DTD SVG 1.1//EN"
 "http://www.w3.org/Graphics/SVG/1.1/DTD/svg11.dtd">
<!-- Generated by graphviz version 2.32.0 (20130809.1645)
 -->
<!-- Title: module_sf_noahlsm::sflx Pages: 1 -->
<svg width="894pt" height="620pt"
 viewBox="0.00 0.00 894.00 620.00" xmlns="http://www.w3.org/2000/svg" xmlns:xlink="http://www.w3.org/1999/xlink">
<g id="graph0" class="graph" transform="scale(1 1) rotate(0) translate(4 616)">
<title>module_sf_noahlsm::sflx</title>
<polygon fill="white" stroke="white" points="-4,5 -4,-616 891,-616 891,5 -4,5"/>
<!-- Node1 -->
<g id="node1" class="node"><title>Node1</title>
<polygon fill="#bfbfbf" stroke="black" points="0.5,-347.5 0.5,-366.5 125.5,-366.5 125.5,-347.5 0.5,-347.5"/>
<text text-anchor="middle" x="63" y="-354.5" font-family="Helvetica,sans-Serif" font-size="10.00">module_sf_noahlsm::sflx</text>
</g>
<!-- Node2 -->
<g id="node2" class="node"><title>Node2</title>
<g id="a_node2"><a xlink:href="classmodule__sf__noahlsm.html#a035da859804652a83bc5fd235e70b2e0" target="_top" xlink:title="module_sf_noahlsm::\lredprm">
<polygon fill="white" stroke="black" points="162,-582 162,-612 272,-612 272,-582 162,-582"/>
<text text-anchor="start" x="170" y="-600" font-family="Helvetica,sans-Serif" font-size="10.00">module_sf_noahlsm::</text>
<text text-anchor="middle" x="217" y="-589" font-family="Helvetica,sans-Serif" font-size="10.00">redprm</text>
</a>
</g>
</g>
<!-- Node1&#45;&gt;Node2 -->
<g id="edge1" class="edge"><title>Node1&#45;&gt;Node2</title>
<path fill="none" stroke="midnightblue" d="M65.8547,-366.504C72.711,-399.302 99.5316,-509.162 162,-572 163.42,-573.429 164.938,-574.785 166.529,-576.071"/>
<polygon fill="midnightblue" stroke="midnightblue" points="164.78,-579.118 174.994,-581.933 168.765,-573.363 164.78,-579.118"/>
</g>
<!-- Node3 -->
<g id="node3" class="node"><title>Node3</title>
<g id="a_node3"><a xlink:href="classmodule__sf__noahlsm.html#abb6e84ee87a6fdb3281c33e8e8457a04" target="_top" xlink:title="module_sf_noahlsm::\lcsnow">
<polygon fill="white" stroke="black" points="162,-533 162,-563 272,-563 272,-533 162,-533"/>
<text text-anchor="start" x="170" y="-551" font-family="Helvetica,sans-Serif" font-size="10.00">module_sf_noahlsm::</text>
<text text-anchor="middle" x="217" y="-540" font-family="Helvetica,sans-Serif" font-size="10.00">csnow</text>
</a>
</g>
</g>
<!-- Node1&#45;&gt;Node3 -->
<g id="edge2" class="edge"><title>Node1&#45;&gt;Node3</title>
<path fill="none" stroke="midnightblue" d="M67.3078,-366.585C77.3272,-394.349 109.889,-475.843 162,-523 163.68,-524.521 165.469,-525.964 167.336,-527.333"/>
<polygon fill="midnightblue" stroke="midnightblue" points="165.618,-530.389 175.921,-532.86 169.407,-524.504 165.618,-530.389"/>
</g>
<!-- Node4 -->
<g id="node4" class="node"><title>Node4</title>
<g id="a_node4"><a xlink:href="classmodule__sf__noahlsm.html#ab7e465439f409557715a28bea71551c1" target="_top" xlink:title="module_sf_noahlsm::\lsnow_new">
<polygon fill="white" stroke="black" points="162,-484 162,-514 272,-514 272,-484 162,-484"/>
<text text-anchor="start" x="170" y="-502" font-family="Helvetica,sans-Serif" font-size="10.00">module_sf_noahlsm::</text>
<text text-anchor="middle" x="217" y="-491" font-family="Helvetica,sans-Serif" font-size="10.00">snow_new</text>
</a>
</g>
</g>
<!-- Node1&#45;&gt;Node4 -->
<g id="edge3" class="edge"><title>Node1&#45;&gt;Node4</title>
<path fill="none" stroke="midnightblue" d="M69.977,-366.721C83.7788,-388.492 119.927,-441.779 162,-474 164.268,-475.737 166.677,-477.391 169.169,-478.959"/>
<polygon fill="midnightblue" stroke="midnightblue" points="167.464,-482.016 177.88,-483.956 170.947,-475.944 167.464,-482.016"/>
</g>
<!-- Node5 -->
<g id="node5" class="node"><title>Node5</title>
<g id="a_node5"><a xlink:href="classmodule__sf__noahlsm.html#ae7ad09a03325fa6a08429faa078bb8f2" target="_top" xlink:title="module_sf_noahlsm::\lsnfrac">
<polygon fill="white" stroke="black" points="162,-435 162,-465 272,-465 272,-435 162,-435"/>
<text text-anchor="start" x="170" y="-453" font-family="Helvetica,sans-Serif" font-size="10.00">module_sf_noahlsm::</text>
<text text-anchor="middle" x="217" y="-442" font-family="Helvetica,sans-Serif" font-size="10.00">snfrac</text>
</a>
</g>
</g>
<!-- Node1&#45;&gt;Node5 -->
<g id="edge4" class="edge"><title>Node1&#45;&gt;Node5</title>
<path fill="none" stroke="midnightblue" d="M76.2307,-366.523C94.3445,-380.383 129.653,-406.476 162,-425 165.191,-426.827 168.538,-428.63 171.937,-430.379"/>
<polygon fill="midnightblue" stroke="midnightblue" points="170.468,-433.557 180.982,-434.866 173.579,-427.286 170.468,-433.557"/>
</g>
<!-- Node6 -->
<g id="node6" class="node"><title>Node6</title>
<g id="a_node6"><a xlink:href="classmodule__sf__noahlsm.html#a7a78bcce992262a6c96711208974f7f1" target="_top" xlink:title="module_sf_noahlsm::\lalcalc">
<polygon fill="white" stroke="black" points="162,-386 162,-416 272,-416 272,-386 162,-386"/>
<text text-anchor="start" x="170" y="-404" font-family="Helvetica,sans-Serif" font-size="10.00">module_sf_noahlsm::</text>
<text text-anchor="middle" x="217" y="-393" font-family="Helvetica,sans-Serif" font-size="10.00">alcalc</text>
</a>
</g>
</g>
<!-- Node1&#45;&gt;Node6 -->
<g id="edge5" class="edge"><title>Node1&#45;&gt;Node6</title>
<path fill="none" stroke="midnightblue" d="M96.9817,-366.547C113.713,-371.391 134.592,-377.435 154.17,-383.102"/>
<polygon fill="midnightblue" stroke="midnightblue" points="153.377,-386.516 163.956,-385.935 155.324,-379.792 153.377,-386.516"/>
</g>
<!-- Node7 -->
<g id="node7" class="node"><title>Node7</title>
<g id="a_node7"><a xlink:href="classmodule__sf__noahlsm.html#aac4dfa006a09d48e949536f4dc217bbf" target="_top" xlink:title="module_sf_noahlsm::\ltdfcnd">
<polygon fill="white" stroke="black" points="621,-339 621,-369 731,-369 731,-339 621,-339"/>
<text text-anchor="start" x="629" y="-357" font-family="Helvetica,sans-Serif" font-size="10.00">module_sf_noahlsm::</text>
<text text-anchor="middle" x="676" y="-346" font-family="Helvetica,sans-Serif" font-size="10.00">tdfcnd</text>
</a>
</g>
</g>
<!-- Node1&#45;&gt;Node7 -->
<g id="edge6" class="edge"><title>Node1&#45;&gt;Node7</title>
<path fill="none" stroke="midnightblue" d="M125.665,-356.697C241.845,-356.127 492.095,-354.898 610.454,-354.317"/>
<polygon fill="midnightblue" stroke="midnightblue" points="610.82,-357.815 620.802,-354.266 610.785,-350.815 610.82,-357.815"/>
</g>
<!-- Node8 -->
<g id="node8" class="node"><title>Node8</title>
<g id="a_node8"><a xlink:href="classmodule__sf__noahlsm.html#ab3693cb1c40b1bd7b4db5e96337f6eef" target="_top" xlink:title="module_sf_noahlsm::\lsnowz0">
<polygon fill="white" stroke="black" points="162,-200 162,-230 272,-230 272,-200 162,-200"/>
<text text-anchor="start" x="170" y="-218" font-family="Helvetica,sans-Serif" font-size="10.00">module_sf_noahlsm::</text>
<text text-anchor="middle" x="217" y="-207" font-family="Helvetica,sans-Serif" font-size="10.00">snowz0</text>
</a>
</g>
</g>
<!-- Node1&#45;&gt;Node8 -->
<g id="edge7" class="edge"><title>Node1&#45;&gt;Node8</title>
<path fill="none" stroke="midnightblue" d="M69.977,-347.279C83.7788,-325.508 119.927,-272.221 162,-240 164.268,-238.263 166.677,-236.609 169.169,-235.041"/>
<polygon fill="midnightblue" stroke="midnightblue" points="170.947,-238.056 177.88,-230.044 167.464,-231.984 170.947,-238.056"/>
</g>
<!-- Node9 -->
<g id="node9" class="node"><title>Node9</title>
<g id="a_node9"><a xlink:href="classmodule__sf__noahlsm.html#adebb599290dd898c8995442436263d52" target="_top" xlink:title="module_sf_noahlsm::\lpenman">
<polygon fill="white" stroke="black" points="162,-151 162,-181 272,-181 272,-151 162,-151"/>
<text text-anchor="start" x="170" y="-169" font-family="Helvetica,sans-Serif" font-size="10.00">module_sf_noahlsm::</text>
<text text-anchor="middle" x="217" y="-158" font-family="Helvetica,sans-Serif" font-size="10.00">penman</text>
</a>
</g>
</g>
<!-- Node1&#45;&gt;Node9 -->
<g id="edge8" class="edge"><title>Node1&#45;&gt;Node9</title>
<path fill="none" stroke="midnightblue" d="M67.3078,-347.415C77.3272,-319.651 109.889,-238.157 162,-191 163.68,-189.479 165.469,-188.036 167.336,-186.667"/>
<polygon fill="midnightblue" stroke="midnightblue" points="169.407,-189.496 175.921,-181.14 165.618,-183.611 169.407,-189.496"/>
</g>
<!-- Node10 -->
<g id="node10" class="node"><title>Node10</title>
<g id="a_node10"><a xlink:href="classmodule__sf__noahlsm.html#a433b2b986f9e11459dc99a8a99db6ba7" target="_top" xlink:title="module_sf_noahlsm::\lcanres">
<polygon fill="white" stroke="black" points="162,-102 162,-132 272,-132 272,-102 162,-102"/>
<text text-anchor="start" x="170" y="-120" font-family="Helvetica,sans-Serif" font-size="10.00">module_sf_noahlsm::</text>
<text text-anchor="middle" x="217" y="-109" font-family="Helvetica,sans-Serif" font-size="10.00">canres</text>
</a>
</g>
</g>
<!-- Node1&#45;&gt;Node10 -->
<g id="edge9" class="edge"><title>Node1&#45;&gt;Node10</title>
<path fill="none" stroke="midnightblue" d="M65.8058,-347.416C72.5022,-314.352 98.8632,-203.652 162,-141 163.07,-139.939 164.194,-138.92 165.364,-137.943"/>
<polygon fill="midnightblue" stroke="midnightblue" points="167.502,-140.717 173.636,-132.079 163.454,-135.007 167.502,-140.717"/>
</g>
<!-- Node11 -->
<g id="node11" class="node"><title>Node11</title>
<g id="a_node11"><a xlink:href="classmodule__sf__noahlsm.html#a6a17443ddbf15acdb25690cfbb3749a3" target="_top" xlink:title="module_sf_noahlsm::\lnopac">
<polygon fill="white" stroke="black" points="162,-298 162,-328 272,-328 272,-298 162,-298"/>
<text text-anchor="start" x="170" y="-316" font-family="Helvetica,sans-Serif" font-size="10.00">module_sf_noahlsm::</text>
<text text-anchor="middle" x="217" y="-305" font-family="Helvetica,sans-Serif" font-size="10.00">nopac</text>
</a>
</g>
</g>
<!-- Node1&#45;&gt;Node11 -->
<g id="edge10" class="edge"><title>Node1&#45;&gt;Node11</title>
<path fill="none" stroke="midnightblue" d="M96.9817,-347.453C113.713,-342.609 134.592,-336.565 154.17,-330.898"/>
<polygon fill="midnightblue" stroke="midnightblue" points="155.324,-334.208 163.956,-328.065 153.377,-327.484 155.324,-334.208"/>
</g>
<!-- Node28 -->
<g id="node28" class="node"><title>Node28</title>
<g id="a_node28"><a xlink:href="classmodule__sf__noahlsm.html#a9d1e26133ed89bc5465a230d45d0625d" target="_top" xlink:title="module_sf_noahlsm::\lsnopac">
<polygon fill="white" stroke="black" points="162,-249 162,-279 272,-279 272,-249 162,-249"/>
<text text-anchor="start" x="170" y="-267" font-family="Helvetica,sans-Serif" font-size="10.00">module_sf_noahlsm::</text>
<text text-anchor="middle" x="217" y="-256" font-family="Helvetica,sans-Serif" font-size="10.00">snopac</text>
</a>
</g>
</g>
<!-- Node1&#45;&gt;Node28 -->
<g id="edge30" class="edge"><title>Node1&#45;&gt;Node28</title>
<path fill="none" stroke="midnightblue" d="M76.2307,-347.477C94.3445,-333.617 129.653,-307.524 162,-289 165.191,-287.173 168.538,-285.37 171.937,-283.621"/>
<polygon fill="midnightblue" stroke="midnightblue" points="173.579,-286.714 180.982,-279.134 170.468,-280.443 173.579,-286.714"/>
</g>
<!-- Node11&#45;&gt;Node7 -->
<g id="edge20" class="edge"><title>Node11&#45;&gt;Node7</title>
<path fill="none" stroke="midnightblue" d="M272.219,-317.864C356.908,-325.462 520.238,-340.115 610.723,-348.233"/>
<polygon fill="midnightblue" stroke="midnightblue" points="610.579,-351.734 620.852,-349.142 611.205,-344.762 610.579,-351.734"/>
</g>
<!-- Node12 -->
<g id="node12" class="node"><title>Node12</title>
<g id="a_node12"><a xlink:href="classmodule__sf__noahlsm.html#a8def37e83c3ce04050b98a11d265caeb" target="_top" xlink:title="module_sf_noahlsm::\levapo">
<polygon fill="white" stroke="black" points="308,-205 308,-235 418,-235 418,-205 308,-205"/>
<text text-anchor="start" x="316" y="-223" font-family="Helvetica,sans-Serif" font-size="10.00">module_sf_noahlsm::</text>
<text text-anchor="middle" x="363" y="-212" font-family="Helvetica,sans-Serif" font-size="10.00">evapo</text>
</a>
</g>
</g>
<!-- Node11&#45;&gt;Node12 -->
<g id="edge11" class="edge"><title>Node11&#45;&gt;Node12</title>
<path fill="none" stroke="midnightblue" d="M255.269,-297.861C261.062,-294.915 266.833,-291.608 272,-288 290.553,-275.047 290.127,-265.876 308,-252 313.197,-247.965 318.946,-244.054 324.698,-240.432"/>
<polygon fill="midnightblue" stroke="midnightblue" points="326.921,-243.177 333.66,-235.002 323.293,-237.19 326.921,-243.177"/>
</g>
<!-- Node15 -->
<g id="node15" class="node"><title>Node15</title>
<g id="a_node15"><a xlink:href="classmodule__sf__noahlsm.html#a0d0b4c4b1c11cc7ff836dfdd13fb1b20" target="_top" xlink:title="module_sf_noahlsm::\lsmflx">
<polygon fill="white" stroke="black" points="308,-128 308,-158 418,-158 418,-128 308,-128"/>
<text text-anchor="start" x="316" y="-146" font-family="Helvetica,sans-Serif" font-size="10.00">module_sf_noahlsm::</text>
<text text-anchor="middle" x="363" y="-135" font-family="Helvetica,sans-Serif" font-size="10.00">smflx</text>
</a>
</g>
</g>
<!-- Node11&#45;&gt;Node15 -->
<g id="edge14" class="edge"><title>Node11&#45;&gt;Node15</title>
<path fill="none" stroke="midnightblue" d="M259.478,-297.962C264.074,-295.137 268.389,-291.837 272,-288 302.093,-256.026 283.796,-232.634 308,-196 315.542,-184.585 325.886,-173.685 335.503,-164.771"/>
<polygon fill="midnightblue" stroke="midnightblue" points="337.87,-167.349 342.993,-158.075 333.205,-162.131 337.87,-167.349"/>
</g>
<!-- Node21 -->
<g id="node21" class="node"><title>Node21</title>
<g id="a_node21"><a xlink:href="classmodule__sf__noahlsm.html#ac5c49267c44f18dfd5359b29fdfed38e" target="_top" xlink:title="module_sf_noahlsm::\lshflx">
<polygon fill="white" stroke="black" points="308,-261 308,-291 418,-291 418,-261 308,-261"/>
<text text-anchor="start" x="316" y="-279" font-family="Helvetica,sans-Serif" font-size="10.00">module_sf_noahlsm::</text>
<text text-anchor="middle" x="363" y="-268" font-family="Helvetica,sans-Serif" font-size="10.00">shflx</text>
</a>
</g>
</g>
<!-- Node11&#45;&gt;Node21 -->
<g id="edge21" class="edge"><title>Node11&#45;&gt;Node21</title>
<path fill="none" stroke="midnightblue" d="M272.03,-299.117C280.496,-296.942 289.315,-294.676 297.979,-292.45"/>
<polygon fill="midnightblue" stroke="midnightblue" points="298.853,-295.839 307.667,-289.961 297.111,-289.059 298.853,-295.839"/>
</g>
<!-- Node13 -->
<g id="node13" class="node"><title>Node13</title>
<g id="a_node13"><a xlink:href="classmodule__sf__noahlsm.html#a1f4bae7bb5581ef61d8c22e58df4c88f" target="_top" xlink:title="module_sf_noahlsm::\ldevap">
<polygon fill="white" stroke="black" points="460,-186 460,-216 570,-216 570,-186 460,-186"/>
<text text-anchor="start" x="468" y="-204" font-family="Helvetica,sans-Serif" font-size="10.00">module_sf_noahlsm::</text>
<text text-anchor="middle" x="515" y="-193" font-family="Helvetica,sans-Serif" font-size="10.00">devap</text>
</a>
</g>
</g>
<!-- Node12&#45;&gt;Node13 -->
<g id="edge12" class="edge"><title>Node12&#45;&gt;Node13</title>
<path fill="none" stroke="midnightblue" d="M418.153,-213.141C428.456,-211.836 439.328,-210.458 449.904,-209.119"/>
<polygon fill="midnightblue" stroke="midnightblue" points="450.445,-212.578 459.926,-207.849 449.565,-205.634 450.445,-212.578"/>
</g>
<!-- Node14 -->
<g id="node14" class="node"><title>Node14</title>
<g id="a_node14"><a xlink:href="classmodule__sf__noahlsm.html#aa418d6be3fc3de942821faf6fb68e3f8" target="_top" xlink:title="module_sf_noahlsm::\ltransp">
<polygon fill="white" stroke="black" points="460,-137 460,-167 570,-167 570,-137 460,-137"/>
<text text-anchor="start" x="468" y="-155" font-family="Helvetica,sans-Serif" font-size="10.00">module_sf_noahlsm::</text>
<text text-anchor="middle" x="515" y="-144" font-family="Helvetica,sans-Serif" font-size="10.00">transp</text>
</a>
</g>
</g>
<!-- Node12&#45;&gt;Node14 -->
<g id="edge13" class="edge"><title>Node12&#45;&gt;Node14</title>
<path fill="none" stroke="midnightblue" d="M393.331,-204.976C410.799,-196.201 433.492,-185.1 454,-176 457.807,-174.311 461.772,-172.607 465.768,-170.928"/>
<polygon fill="midnightblue" stroke="midnightblue" points="467.188,-174.128 475.092,-167.074 464.514,-167.659 467.188,-174.128"/>
</g>
<!-- Node16 -->
<g id="node16" class="node"><title>Node16</title>
<g id="a_node16"><a xlink:href="classmodule__sf__noahlsm.html#ad15804ed9573673deb4f95b3f160eeb2" target="_top" xlink:title="module_sf_noahlsm::\lfac2mit">
<polygon fill="white" stroke="black" points="460,-0 460,-30 570,-30 570,-0 460,-0"/>
<text text-anchor="start" x="468" y="-18" font-family="Helvetica,sans-Serif" font-size="10.00">module_sf_noahlsm::</text>
<text text-anchor="middle" x="515" y="-7" font-family="Helvetica,sans-Serif" font-size="10.00">fac2mit</text>
</a>
</g>
</g>
<!-- Node15&#45;&gt;Node16 -->
<g id="edge15" class="edge"><title>Node15&#45;&gt;Node16</title>
<path fill="none" stroke="midnightblue" d="M404.989,-127.916C409.721,-125.089 414.204,-121.801 418,-118 444.982,-90.9862 426.499,-66.4854 454,-40 455.618,-38.4417 457.347,-36.9746 459.16,-35.594"/>
<polygon fill="midnightblue" stroke="midnightblue" points="461.124,-38.4915 467.565,-30.0792 457.284,-32.6389 461.124,-38.4915"/>
</g>
<!-- Node17 -->
<g id="node17" class="node"><title>Node17</title>
<g id="a_node17"><a xlink:href="classmodule__sf__noahlsm.html#a2e71343dc4bdf7438e0abf6d850d0c79" target="_top" xlink:title="module_sf_noahlsm::srt">
<polygon fill="white" stroke="black" points="454.5,-49.5 454.5,-68.5 575.5,-68.5 575.5,-49.5 454.5,-49.5"/>
<text text-anchor="middle" x="515" y="-56.5" font-family="Helvetica,sans-Serif" font-size="10.00">module_sf_noahlsm::srt</text>
</a>
</g>
</g>
<!-- Node15&#45;&gt;Node17 -->
<g id="edge16" class="edge"><title>Node15&#45;&gt;Node17</title>
<path fill="none" stroke="midnightblue" d="M401.721,-127.949C407.397,-125.009 413.013,-121.681 418,-118 437.244,-103.798 433.894,-90.9535 454,-78 457.172,-75.9566 460.58,-74.1187 464.102,-72.4681"/>
<polygon fill="midnightblue" stroke="midnightblue" points="465.715,-75.5884 473.61,-68.5238 463.033,-69.1226 465.715,-75.5884"/>
</g>
<!-- Node19 -->
<g id="node19" class="node"><title>Node19</title>
<g id="a_node19"><a xlink:href="classmodule__sf__noahlsm.html#ada19fa401e97fc92326932b406bbc2c3" target="_top" xlink:title="module_sf_noahlsm::\lsstep">
<polygon fill="white" stroke="black" points="460,-88 460,-118 570,-118 570,-88 460,-88"/>
<text text-anchor="start" x="468" y="-106" font-family="Helvetica,sans-Serif" font-size="10.00">module_sf_noahlsm::</text>
<text text-anchor="middle" x="515" y="-95" font-family="Helvetica,sans-Serif" font-size="10.00">sstep</text>
</a>
</g>
</g>
<!-- Node15&#45;&gt;Node19 -->
<g id="edge18" class="edge"><title>Node15&#45;&gt;Node19</title>
<path fill="none" stroke="midnightblue" d="M418.153,-128.559C428.562,-125.784 439.552,-122.853 450.231,-120.005"/>
<polygon fill="midnightblue" stroke="midnightblue" points="451.166,-123.378 459.926,-117.42 449.362,-116.615 451.166,-123.378"/>
</g>
<!-- Node18 -->
<g id="node18" class="node"><title>Node18</title>
<g id="a_node18"><a xlink:href="classmodule__sf__noahlsm.html#a3b4a7f68699fbc22922e958770009b57" target="_top" xlink:title="module_sf_noahlsm::\lwdfcnd">
<polygon fill="white" stroke="black" points="621,-44 621,-74 731,-74 731,-44 621,-44"/>
<text text-anchor="start" x="629" y="-62" font-family="Helvetica,sans-Serif" font-size="10.00">module_sf_noahlsm::</text>
<text text-anchor="middle" x="676" y="-51" font-family="Helvetica,sans-Serif" font-size="10.00">wdfcnd</text>
</a>
</g>
</g>
<!-- Node17&#45;&gt;Node18 -->
<g id="edge17" class="edge"><title>Node17&#45;&gt;Node18</title>
<path fill="none" stroke="midnightblue" d="M575.658,-59C587.108,-59 599.145,-59 610.733,-59"/>
<polygon fill="midnightblue" stroke="midnightblue" points="610.775,-62.5001 620.775,-59 610.774,-55.5001 610.775,-62.5001"/>
</g>
<!-- Node20 -->
<g id="node20" class="node"><title>Node20</title>
<g id="a_node20"><a xlink:href="classmodule__sf__noahlsm.html#ac6e3e7bb3f0322070546653306177216" target="_top" xlink:title="module_sf_noahlsm::\lrosr12">
<polygon fill="white" stroke="black" points="621,-115 621,-145 731,-145 731,-115 621,-115"/>
<text text-anchor="start" x="629" y="-133" font-family="Helvetica,sans-Serif" font-size="10.00">module_sf_noahlsm::</text>
<text text-anchor="middle" x="676" y="-122" font-family="Helvetica,sans-Serif" font-size="10.00">rosr12</text>
</a>
</g>
</g>
<!-- Node19&#45;&gt;Node20 -->
<g id="edge19" class="edge"><title>Node19&#45;&gt;Node20</title>
<path fill="none" stroke="midnightblue" d="M570.274,-112.216C583.322,-114.432 597.38,-116.819 610.831,-119.103"/>
<polygon fill="midnightblue" stroke="midnightblue" points="610.526,-122.602 620.971,-120.825 611.698,-115.7 610.526,-122.602"/>
</g>
<!-- Node22 -->
<g id="node22" class="node"><title>Node22</title>
<g id="a_node22"><a xlink:href="classmodule__sf__noahlsm.html#a3d4ab86e98738d55bb24f5f2256bc036" target="_top" xlink:title="module_sf_noahlsm::hrt">
<polygon fill="white" stroke="black" points="454.5,-284.5 454.5,-303.5 575.5,-303.5 575.5,-284.5 454.5,-284.5"/>
<text text-anchor="middle" x="515" y="-291.5" font-family="Helvetica,sans-Serif" font-size="10.00">module_sf_noahlsm::hrt</text>
</a>
</g>
</g>
<!-- Node21&#45;&gt;Node22 -->
<g id="edge22" class="edge"><title>Node21&#45;&gt;Node22</title>
<path fill="none" stroke="midnightblue" d="M418.153,-282.498C426.598,-283.512 435.425,-284.571 444.158,-285.619"/>
<polygon fill="midnightblue" stroke="midnightblue" points="443.993,-289.124 454.339,-286.841 444.827,-282.174 443.993,-289.124"/>
</g>
<!-- Node27 -->
<g id="node27" class="node"><title>Node27</title>
<g id="a_node27"><a xlink:href="classmodule__sf__noahlsm.html#adacf01be4e33445ea186feffce24eb35" target="_top" xlink:title="module_sf_noahlsm::\lhstep">
<polygon fill="white" stroke="black" points="460,-235 460,-265 570,-265 570,-235 460,-235"/>
<text text-anchor="start" x="468" y="-253" font-family="Helvetica,sans-Serif" font-size="10.00">module_sf_noahlsm::</text>
<text text-anchor="middle" x="515" y="-242" font-family="Helvetica,sans-Serif" font-size="10.00">hstep</text>
</a>
</g>
</g>
<!-- Node21&#45;&gt;Node27 -->
<g id="edge28" class="edge"><title>Node21&#45;&gt;Node27</title>
<path fill="none" stroke="midnightblue" d="M418.153,-266.613C428.456,-264.828 439.328,-262.943 449.904,-261.11"/>
<polygon fill="midnightblue" stroke="midnightblue" points="450.671,-264.529 459.926,-259.373 449.475,-257.632 450.671,-264.529"/>
</g>
<!-- Node22&#45;&gt;Node7 -->
<g id="edge27" class="edge"><title>Node22&#45;&gt;Node7</title>
<path fill="none" stroke="midnightblue" d="M541.194,-303.507C563.753,-312.02 597.487,-324.75 625.439,-335.298"/>
<polygon fill="midnightblue" stroke="midnightblue" points="624.465,-338.671 635.057,-338.927 626.937,-332.122 624.465,-338.671"/>
</g>
<!-- Node23 -->
<g id="node23" class="node"><title>Node23</title>
<g id="a_node23"><a xlink:href="classmodule__sf__noahlsm.html#a578d0dc05848d5bc7fb823e379da5cdd" target="_top" xlink:title="module_sf_noahlsm::tbnd">
<polygon fill="white" stroke="black" points="612,-300.5 612,-319.5 740,-319.5 740,-300.5 612,-300.5"/>
<text text-anchor="middle" x="676" y="-307.5" font-family="Helvetica,sans-Serif" font-size="10.00">module_sf_noahlsm::tbnd</text>
</a>
</g>
</g>
<!-- Node22&#45;&gt;Node23 -->
<g id="edge23" class="edge"><title>Node22&#45;&gt;Node23</title>
<path fill="none" stroke="midnightblue" d="M575.658,-300.003C584.145,-300.857 592.954,-301.744 601.664,-302.62"/>
<polygon fill="midnightblue" stroke="midnightblue" points="601.518,-306.123 611.818,-303.642 602.219,-299.158 601.518,-306.123"/>
</g>
<!-- Node24 -->
<g id="node24" class="node"><title>Node24</title>
<g id="a_node24"><a xlink:href="classmodule__sf__noahlsm.html#ab786b4f52dbea2106470993f2ea20e69" target="_top" xlink:title="module_sf_noahlsm::\ltmpavg">
<polygon fill="white" stroke="black" points="621,-251 621,-281 731,-281 731,-251 621,-251"/>
<text text-anchor="start" x="629" y="-269" font-family="Helvetica,sans-Serif" font-size="10.00">module_sf_noahlsm::</text>
<text text-anchor="middle" x="676" y="-258" font-family="Helvetica,sans-Serif" font-size="10.00">tmpavg</text>
</a>
</g>
</g>
<!-- Node22&#45;&gt;Node24 -->
<g id="edge24" class="edge"><title>Node22&#45;&gt;Node24</title>
<path fill="none" stroke="midnightblue" d="M570.274,-284.442C583.322,-282.145 597.38,-279.669 610.831,-277.3"/>
<polygon fill="midnightblue" stroke="midnightblue" points="611.729,-280.696 620.971,-275.515 610.515,-273.802 611.729,-280.696"/>
</g>
<!-- Node25 -->
<g id="node25" class="node"><title>Node25</title>
<g id="a_node25"><a xlink:href="classmodule__sf__noahlsm.html#a5d089c57c48085d25b95857c682922da" target="_top" xlink:title="module_sf_noahlsm::\lsnksrc">
<polygon fill="white" stroke="black" points="621,-202 621,-232 731,-232 731,-202 621,-202"/>
<text text-anchor="start" x="629" y="-220" font-family="Helvetica,sans-Serif" font-size="10.00">module_sf_noahlsm::</text>
<text text-anchor="middle" x="676" y="-209" font-family="Helvetica,sans-Serif" font-size="10.00">snksrc</text>
</a>
</g>
</g>
<!-- Node22&#45;&gt;Node25 -->
<g id="edge25" class="edge"><title>Node22&#45;&gt;Node25</title>
<path fill="none" stroke="midnightblue" d="M552.561,-284.436C560.553,-281.636 568.776,-278.177 576,-274 594.533,-263.285 593.774,-253.23 612,-242 615.193,-240.032 618.568,-238.167 622.03,-236.41"/>
<polygon fill="midnightblue" stroke="midnightblue" points="623.787,-239.45 631.33,-232.011 620.794,-233.122 623.787,-239.45"/>
</g>
<!-- Node26 -->
<g id="node26" class="node"><title>Node26</title>
<g id="a_node26"><a xlink:href="classmodule__sf__noahlsm.html#a5beb42f74e1a357ccfc0e904f356b33a" target="_top" xlink:title="module_sf_noahlsm::\lfrh2o">
<polygon fill="white" stroke="black" points="776,-202 776,-232 886,-232 886,-202 776,-202"/>
<text text-anchor="start" x="784" y="-220" font-family="Helvetica,sans-Serif" font-size="10.00">module_sf_noahlsm::</text>
<text text-anchor="middle" x="831" y="-209" font-family="Helvetica,sans-Serif" font-size="10.00">frh2o</text>
</a>
</g>
</g>
<!-- Node25&#45;&gt;Node26 -->
<g id="edge26" class="edge"><title>Node25&#45;&gt;Node26</title>
<path fill="none" stroke="midnightblue" d="M731.373,-217C742.421,-217 754.142,-217 765.502,-217"/>
<polygon fill="midnightblue" stroke="midnightblue" points="765.802,-220.5 775.802,-217 765.802,-213.5 765.802,-220.5"/>
</g>
<!-- Node27&#45;&gt;Node20 -->
<g id="edge29" class="edge"><title>Node27&#45;&gt;Node20</title>
<path fill="none" stroke="midnightblue" d="M557.696,-234.999C564.031,-232.053 570.336,-228.709 576,-225 584.525,-219.418 625.882,-178.856 652.373,-152.569"/>
<polygon fill="midnightblue" stroke="midnightblue" points="655.113,-154.781 659.738,-145.249 650.178,-149.817 655.113,-154.781"/>
</g>
<!-- Node28&#45;&gt;Node12 -->
<g id="edge31" class="edge"><title>Node28&#45;&gt;Node12</title>
<path fill="none" stroke="midnightblue" d="M267.154,-248.981C278.611,-245.48 290.93,-241.716 302.772,-238.097"/>
<polygon fill="midnightblue" stroke="midnightblue" points="304.038,-241.37 312.579,-235.101 301.992,-234.676 304.038,-241.37"/>
</g>
<!-- Node28&#45;&gt;Node15 -->
<g id="edge32" class="edge"><title>Node28&#45;&gt;Node15</title>
<path fill="none" stroke="midnightblue" d="M256.121,-248.957C261.685,-246.033 267.161,-242.707 272,-239 291.786,-223.843 291.086,-214.307 308,-196 317.566,-185.646 328.601,-174.66 338.193,-165.39"/>
<polygon fill="midnightblue" stroke="midnightblue" points="340.721,-167.815 345.52,-158.369 335.878,-162.761 340.721,-167.815"/>
</g>
<!-- Node28&#45;&gt;Node21 -->
<g id="edge33" class="edge"><title>Node28&#45;&gt;Node21</title>
<path fill="none" stroke="midnightblue" d="M272.03,-268.502C280.405,-269.2 289.126,-269.927 297.7,-270.642"/>
<polygon fill="midnightblue" stroke="midnightblue" points="297.411,-274.13 307.667,-271.472 297.992,-267.154 297.411,-274.13"/>
</g>
<!-- Node29 -->
<g id="node29" class="node"><title>Node29</title>
<g id="a_node29"><a xlink:href="classmodule__sf__noahlsm.html#ae6d35ff66196a3ab369a3e87149ddcdc" target="_top" xlink:title="module_sf_noahlsm::\lsnowpack">
<polygon fill="white" stroke="black" points="308,-79 308,-109 418,-109 418,-79 308,-79"/>
<text text-anchor="start" x="316" y="-97" font-family="Helvetica,sans-Serif" font-size="10.00">module_sf_noahlsm::</text>
<text text-anchor="middle" x="363" y="-86" font-family="Helvetica,sans-Serif" font-size="10.00">snowpack</text>
</a>
</g>
</g>
<!-- Node28&#45;&gt;Node29 -->
<g id="edge34" class="edge"><title>Node28&#45;&gt;Node29</title>
<path fill="none" stroke="midnightblue" d="M260.326,-248.906C264.666,-246.107 268.688,-242.828 272,-239 308.709,-196.567 270.967,-160.149 308,-118 308.745,-117.152 309.525,-116.333 310.337,-115.541"/>
<polygon fill="midnightblue" stroke="midnightblue" points="312.73,-118.11 318.367,-109.14 308.366,-112.637 312.73,-118.11"/>
</g>
</g>
</svg>
