<?xml version="1.0" encoding="UTF-8" standalone="no"?>
<!DOCTYPE svg PUBLIC "-//W3C//DTD SVG 1.1//EN"
 "http://www.w3.org/Graphics/SVG/1.1/DTD/svg11.dtd">
<!-- Generated by graphviz version 2.38.0 (20140413.2041)
 -->
<!-- Title: linear_theory_winds::linear_winds Pages: 1 -->
<svg width="907pt" height="88pt"
 viewBox="0.00 0.00 907.00 88.00" xmlns="http://www.w3.org/2000/svg" xmlns:xlink="http://www.w3.org/1999/xlink">
<g id="graph0" class="graph" transform="scale(1 1) rotate(0) translate(4 84)">
<title>linear_theory_winds::linear_winds</title>
<polygon fill="white" stroke="none" points="-4,4 -4,-84 903,-84 903,4 -4,4"/>
<!-- Node1 -->
<g id="node1" class="node"><title>Node1</title>
<polygon fill="#bfbfbf" stroke="black" points="0,-24.5 0,-54.5 103,-54.5 103,-24.5 0,-24.5"/>
<text text-anchor="start" x="8" y="-42.5" font-family="Helvetica,sans-Serif" font-size="10.00">linear_theory_winds</text>
<text text-anchor="middle" x="51.5" y="-31.5" font-family="Helvetica,sans-Serif" font-size="10.00">::linear_winds</text>
</g>
<!-- Node2 -->
<g id="node2" class="node"><title>Node2</title>
<g id="a_node2"><a xlink:href="classlinear__theory__winds.html#a1c7117dad74a51614a026a50aec8b988" target="_top" xlink:title="linear_theory_winds\l::initialize_spatial_winds">
<polygon fill="white" stroke="black" points="139,-2.5 139,-32.5 261,-32.5 261,-2.5 139,-2.5"/>
<text text-anchor="start" x="147" y="-20.5" font-family="Helvetica,sans-Serif" font-size="10.00">linear_theory_winds</text>
<text text-anchor="middle" x="200" y="-9.5" font-family="Helvetica,sans-Serif" font-size="10.00">::initialize_spatial_winds</text>
</a>
</g>
</g>
<!-- Node1&#45;&gt;Node2 -->
<g id="edge1" class="edge"><title>Node1&#45;&gt;Node2</title>
<path fill="none" stroke="midnightblue" d="M113.462,-30.3453C121.887,-29.0801 130.535,-27.7815 138.943,-26.5188"/>
<polygon fill="midnightblue" stroke="midnightblue" points="112.697,-26.9209 103.327,-31.8672 113.736,-33.8433 112.697,-26.9209"/>
</g>
<!-- Node4 -->
<g id="node4" class="node"><title>Node4</title>
<g id="a_node4"><a xlink:href="classlinear__theory__winds.html#a248a832d459ec9cd399c372d2ae9cb0a" target="_top" xlink:title="linear_theory_winds\l::linear_perturb">
<polygon fill="white" stroke="black" points="436,-24.5 436,-54.5 539,-54.5 539,-24.5 436,-24.5"/>
<text text-anchor="start" x="444" y="-42.5" font-family="Helvetica,sans-Serif" font-size="10.00">linear_theory_winds</text>
<text text-anchor="middle" x="487.5" y="-31.5" font-family="Helvetica,sans-Serif" font-size="10.00">::linear_perturb</text>
</a>
</g>
</g>
<!-- Node1&#45;&gt;Node4 -->
<g id="edge12" class="edge"><title>Node1&#45;&gt;Node4</title>
<path fill="none" stroke="midnightblue" d="M113.298,-41.0829C121.926,-41.2559 130.687,-41.4039 139,-41.5 254.992,-42.8408 284.008,-42.8408 400,-41.5 411.566,-41.3663 423.999,-41.1321 435.733,-40.8699"/>
<polygon fill="midnightblue" stroke="midnightblue" points="113.339,-37.5831 103.267,-40.8699 113.191,-44.5815 113.339,-37.5831"/>
</g>
<!-- Node3 -->
<g id="node3" class="node"><title>Node3</title>
<g id="a_node3"><a xlink:href="classlinear__theory__winds.html#a5aed1fad471120ba77c203fa6158a5ba" target="_top" xlink:title="linear_theory_winds\l::setup_linwinds">
<polygon fill="white" stroke="black" points="297,-2.5 297,-32.5 400,-32.5 400,-2.5 297,-2.5"/>
<text text-anchor="start" x="305" y="-20.5" font-family="Helvetica,sans-Serif" font-size="10.00">linear_theory_winds</text>
<text text-anchor="middle" x="348.5" y="-9.5" font-family="Helvetica,sans-Serif" font-size="10.00">::setup_linwinds</text>
</a>
</g>
</g>
<!-- Node2&#45;&gt;Node3 -->
<g id="edge2" class="edge"><title>Node2&#45;&gt;Node3</title>
<path fill="none" stroke="midnightblue" d="M271.095,-17.5C279.734,-17.5 288.432,-17.5 296.706,-17.5"/>
<polygon fill="midnightblue" stroke="midnightblue" points="271.01,-14.0001 261.01,-17.5 271.01,-21.0001 271.01,-14.0001"/>
</g>
<!-- Node3&#45;&gt;Node4 -->
<g id="edge3" class="edge"><title>Node3&#45;&gt;Node4</title>
<path fill="none" stroke="midnightblue" d="M410.042,-27.222C418.583,-28.5936 427.291,-29.992 435.626,-31.3305"/>
<polygon fill="midnightblue" stroke="midnightblue" points="410.553,-23.7594 400.125,-25.6295 409.443,-30.6708 410.553,-23.7594"/>
</g>
<!-- Node5 -->
<g id="node5" class="node"><title>Node5</title>
<g id="a_node5"><a xlink:href="classboundary__conditions.html#ac4cfb5127bfecdc6e088ef949694ea4a" target="_top" xlink:title=" Remove linear theory topographic winds perturbations from the low resolution wind field...">
<polygon fill="white" stroke="black" points="575,-46.5 575,-76.5 689,-76.5 689,-46.5 575,-46.5"/>
<text text-anchor="start" x="583" y="-64.5" font-family="Helvetica,sans-Serif" font-size="10.00">boundary_conditions</text>
<text text-anchor="middle" x="632" y="-53.5" font-family="Helvetica,sans-Serif" font-size="10.00">::remove_linear_winds</text>
</a>
</g>
</g>
<!-- Node4&#45;&gt;Node5 -->
<g id="edge4" class="edge"><title>Node4&#45;&gt;Node5</title>
<path fill="none" stroke="midnightblue" d="M549.295,-48.886C557.728,-50.1878 566.36,-51.5205 574.706,-52.809"/>
<polygon fill="midnightblue" stroke="midnightblue" points="549.558,-45.3852 539.141,-47.3183 548.49,-52.3032 549.558,-45.3852"/>
</g>
<!-- Node9 -->
<g id="node9" class="node"><title>Node9</title>
<g id="a_node9"><a xlink:href="classwind.html#a582192f02996b37543b966df84af1e78" target="_top" xlink:title="wind::update_winds">
<polygon fill="white" stroke="black" points="580.5,-8 580.5,-27 683.5,-27 683.5,-8 580.5,-8"/>
<text text-anchor="middle" x="632" y="-15" font-family="Helvetica,sans-Serif" font-size="10.00">wind::update_winds</text>
</a>
</g>
</g>
<!-- Node4&#45;&gt;Node9 -->
<g id="edge9" class="edge"><title>Node4&#45;&gt;Node9</title>
<path fill="none" stroke="midnightblue" d="M549.265,-30.1188C559.519,-28.5357 570.07,-26.9068 580.042,-25.3673"/>
<polygon fill="midnightblue" stroke="midnightblue" points="548.49,-26.6968 539.141,-31.6817 549.558,-33.6148 548.49,-26.6968"/>
</g>
<!-- Node6 -->
<g id="node6" class="node"><title>Node6</title>
<g id="a_node6"><a xlink:href="classboundary__conditions.html#a07a42f467f470ada98e0a35fd5a75f66" target="_top" xlink:title=" Initialize the boundary conditions (read inital conditions, etc.) ">
<polygon fill="white" stroke="black" points="725,-49.5 725,-79.5 831,-79.5 831,-49.5 725,-49.5"/>
<text text-anchor="start" x="733" y="-67.5" font-family="Helvetica,sans-Serif" font-size="10.00">boundary_conditions</text>
<text text-anchor="middle" x="778" y="-56.5" font-family="Helvetica,sans-Serif" font-size="10.00">::bc_init</text>
</a>
</g>
</g>
<!-- Node5&#45;&gt;Node6 -->
<g id="edge5" class="edge"><title>Node5&#45;&gt;Node6</title>
<path fill="none" stroke="midnightblue" d="M699.338,-62.882C707.811,-63.0586 716.389,-63.2373 724.599,-63.4083"/>
<polygon fill="midnightblue" stroke="midnightblue" points="699.157,-59.3776 689.086,-62.6685 699.011,-66.3761 699.157,-59.3776"/>
</g>
<!-- Node8 -->
<g id="node8" class="node"><title>Node8</title>
<g id="a_node8"><a xlink:href="classboundary__conditions.html#a1e8385c37634f3d7f70ea7c749dcda11" target="_top" xlink:title=" Read in the next timestep of input data and apply to the dXdt grids as appropriate. ">
<polygon fill="white" stroke="black" points="725,-0.5 725,-30.5 831,-30.5 831,-0.5 725,-0.5"/>
<text text-anchor="start" x="733" y="-18.5" font-family="Helvetica,sans-Serif" font-size="10.00">boundary_conditions</text>
<text text-anchor="middle" x="778" y="-7.5" font-family="Helvetica,sans-Serif" font-size="10.00">::bc_update</text>
</a>
</g>
</g>
<!-- Node5&#45;&gt;Node8 -->
<g id="edge7" class="edge"><title>Node5&#45;&gt;Node8</title>
<path fill="none" stroke="midnightblue" d="M690.045,-43.2772C703.202,-39.0743 717.056,-34.6487 729.743,-30.596"/>
<polygon fill="midnightblue" stroke="midnightblue" points="688.612,-40.0608 680.151,-46.4379 690.742,-46.7289 688.612,-40.0608"/>
</g>
<!-- Node7 -->
<g id="node7" class="node"><title>Node7</title>
<g id="a_node7"><a xlink:href="driver_8f90.html#ab1e5a5816a57fc6e95d9563c2bb53590" target="_top" xlink:title=" Main Program ">
<polygon fill="white" stroke="black" points="867,-30 867,-49 899,-49 899,-30 867,-30"/>
<text text-anchor="middle" x="883" y="-37" font-family="Helvetica,sans-Serif" font-size="10.00">icar</text>
</a>
</g>
</g>
<!-- Node6&#45;&gt;Node7 -->
<g id="edge6" class="edge"><title>Node6&#45;&gt;Node7</title>
<path fill="none" stroke="midnightblue" d="M841.071,-49.4343C850.517,-47.1414 859.468,-44.9689 866.576,-43.2436"/>
<polygon fill="midnightblue" stroke="midnightblue" points="839.996,-46.0935 831.104,-51.8535 841.647,-52.896 839.996,-46.0935"/>
</g>
<!-- Node8&#45;&gt;Node7 -->
<g id="edge8" class="edge"><title>Node8&#45;&gt;Node7</title>
<path fill="none" stroke="midnightblue" d="M841.071,-29.9631C850.517,-32.1642 859.468,-34.2498 866.576,-35.9061"/>
<polygon fill="midnightblue" stroke="midnightblue" points="841.637,-26.5013 831.104,-27.6406 840.048,-33.3187 841.637,-26.5013"/>
</g>
<!-- Node9&#45;&gt;Node6 -->
<g id="edge10" class="edge"><title>Node9&#45;&gt;Node6</title>
<path fill="none" stroke="midnightblue" d="M671.84,-30.1768C690.041,-36.1175 711.859,-43.2388 730.893,-49.4512"/>
<polygon fill="midnightblue" stroke="midnightblue" points="672.733,-26.7868 662.141,-27.0112 670.561,-33.4413 672.733,-26.7868"/>
</g>
<!-- Node9&#45;&gt;Node8 -->
<g id="edge11" class="edge"><title>Node9&#45;&gt;Node8</title>
<path fill="none" stroke="midnightblue" d="M693.895,-16.6542C704.156,-16.5117 714.725,-16.3649 724.742,-16.2258"/>
<polygon fill="midnightblue" stroke="midnightblue" points="693.719,-13.1562 683.769,-16.7949 693.817,-20.1556 693.719,-13.1562"/>
</g>
</g>
</svg>
