<?xml version="1.0" encoding="UTF-8" standalone="no"?>
<!DOCTYPE svg PUBLIC "-//W3C//DTD SVG 1.1//EN"
 "http://www.w3.org/Graphics/SVG/1.1/DTD/svg11.dtd">
<!-- Generated by graphviz version 2.38.0 (20140413.2041)
 -->
<!-- Title: linear_theory_winds::calc_sat_lapse_rate Pages: 1 -->
<svg width="1040pt" height="88pt"
 viewBox="0.00 0.00 1040.00 88.00" xmlns="http://www.w3.org/2000/svg" xmlns:xlink="http://www.w3.org/1999/xlink">
<g id="graph0" class="graph" transform="scale(1 1) rotate(0) translate(4 84)">
<title>linear_theory_winds::calc_sat_lapse_rate</title>
<polygon fill="white" stroke="none" points="-4,4 -4,-84 1036,-84 1036,4 -4,4"/>
<!-- Node1 -->
<g id="node1" class="node"><title>Node1</title>
<polygon fill="#bfbfbf" stroke="black" points="0,-24.5 0,-54.5 110,-54.5 110,-24.5 0,-24.5"/>
<text text-anchor="start" x="8" y="-42.5" font-family="Helvetica,sans-Serif" font-size="10.00">linear_theory_winds</text>
<text text-anchor="middle" x="55" y="-31.5" font-family="Helvetica,sans-Serif" font-size="10.00">::calc_sat_lapse_rate</text>
</g>
<!-- Node2 -->
<g id="node2" class="node"><title>Node2</title>
<g id="a_node2"><a xlink:href="classlinear__theory__winds.html#af214d362ee340566892db3d7f0470c63" target="_top" xlink:title="linear_theory_winds\l::calc_moist_stability">
<polygon fill="white" stroke="black" points="146,-24.5 146,-54.5 255,-54.5 255,-24.5 146,-24.5"/>
<text text-anchor="start" x="154" y="-42.5" font-family="Helvetica,sans-Serif" font-size="10.00">linear_theory_winds</text>
<text text-anchor="middle" x="200.5" y="-31.5" font-family="Helvetica,sans-Serif" font-size="10.00">::calc_moist_stability</text>
</a>
</g>
</g>
<!-- Node1&#45;&gt;Node2 -->
<g id="edge1" class="edge"><title>Node1&#45;&gt;Node2</title>
<path fill="none" stroke="midnightblue" d="M120.431,-39.5C128.858,-39.5 137.421,-39.5 145.648,-39.5"/>
<polygon fill="midnightblue" stroke="midnightblue" points="120.251,-36.0001 110.251,-39.5 120.251,-43.0001 120.251,-36.0001"/>
</g>
<!-- Node3 -->
<g id="node3" class="node"><title>Node3</title>
<g id="a_node3"><a xlink:href="classlinear__theory__winds.html#a027dc1b837380d8d4fbe2e9689e9ed46" target="_top" xlink:title="linear_theory_winds\l::calc_stability">
<polygon fill="white" stroke="black" points="291,-24.5 291,-54.5 394,-54.5 394,-24.5 291,-24.5"/>
<text text-anchor="start" x="299" y="-42.5" font-family="Helvetica,sans-Serif" font-size="10.00">linear_theory_winds</text>
<text text-anchor="middle" x="342.5" y="-31.5" font-family="Helvetica,sans-Serif" font-size="10.00">::calc_stability</text>
</a>
</g>
</g>
<!-- Node2&#45;&gt;Node3 -->
<g id="edge2" class="edge"><title>Node2&#45;&gt;Node3</title>
<path fill="none" stroke="midnightblue" d="M265.238,-39.5C273.843,-39.5 282.574,-39.5 290.907,-39.5"/>
<polygon fill="midnightblue" stroke="midnightblue" points="265.227,-36.0001 255.227,-39.5 265.227,-43.0001 265.227,-36.0001"/>
</g>
<!-- Node4 -->
<g id="node4" class="node"><title>Node4</title>
<g id="a_node4"><a xlink:href="classlinear__theory__winds.html#a2e662c05e82b0515704c9ab54f49373a" target="_top" xlink:title="linear_theory_winds\l::spatial_winds">
<polygon fill="white" stroke="black" points="430,-24.5 430,-54.5 533,-54.5 533,-24.5 430,-24.5"/>
<text text-anchor="start" x="438" y="-42.5" font-family="Helvetica,sans-Serif" font-size="10.00">linear_theory_winds</text>
<text text-anchor="middle" x="481.5" y="-31.5" font-family="Helvetica,sans-Serif" font-size="10.00">::spatial_winds</text>
</a>
</g>
</g>
<!-- Node3&#45;&gt;Node4 -->
<g id="edge3" class="edge"><title>Node3&#45;&gt;Node4</title>
<path fill="none" stroke="midnightblue" d="M404.32,-39.5C412.772,-39.5 421.382,-39.5 429.626,-39.5"/>
<polygon fill="midnightblue" stroke="midnightblue" points="404.125,-36.0001 394.125,-39.5 404.124,-43.0001 404.125,-36.0001"/>
</g>
<!-- Node5 -->
<g id="node5" class="node"><title>Node5</title>
<g id="a_node5"><a xlink:href="classlinear__theory__winds.html#a248a832d459ec9cd399c372d2ae9cb0a" target="_top" xlink:title="linear_theory_winds\l::linear_perturb">
<polygon fill="white" stroke="black" points="569,-24.5 569,-54.5 672,-54.5 672,-24.5 569,-24.5"/>
<text text-anchor="start" x="577" y="-42.5" font-family="Helvetica,sans-Serif" font-size="10.00">linear_theory_winds</text>
<text text-anchor="middle" x="620.5" y="-31.5" font-family="Helvetica,sans-Serif" font-size="10.00">::linear_perturb</text>
</a>
</g>
</g>
<!-- Node4&#45;&gt;Node5 -->
<g id="edge4" class="edge"><title>Node4&#45;&gt;Node5</title>
<path fill="none" stroke="midnightblue" d="M543.32,-39.5C551.772,-39.5 560.382,-39.5 568.626,-39.5"/>
<polygon fill="midnightblue" stroke="midnightblue" points="543.125,-36.0001 533.125,-39.5 543.124,-43.0001 543.125,-36.0001"/>
</g>
<!-- Node6 -->
<g id="node6" class="node"><title>Node6</title>
<g id="a_node6"><a xlink:href="classboundary__conditions.html#ac4cfb5127bfecdc6e088ef949694ea4a" target="_top" xlink:title=" Remove linear theory topographic winds perturbations from the low resolution wind field...">
<polygon fill="white" stroke="black" points="708,-46.5 708,-76.5 822,-76.5 822,-46.5 708,-46.5"/>
<text text-anchor="start" x="716" y="-64.5" font-family="Helvetica,sans-Serif" font-size="10.00">boundary_conditions</text>
<text text-anchor="middle" x="765" y="-53.5" font-family="Helvetica,sans-Serif" font-size="10.00">::remove_linear_winds</text>
</a>
</g>
</g>
<!-- Node5&#45;&gt;Node6 -->
<g id="edge5" class="edge"><title>Node5&#45;&gt;Node6</title>
<path fill="none" stroke="midnightblue" d="M682.295,-48.886C690.728,-50.1878 699.36,-51.5205 707.706,-52.809"/>
<polygon fill="midnightblue" stroke="midnightblue" points="682.558,-45.3852 672.141,-47.3183 681.49,-52.3032 682.558,-45.3852"/>
</g>
<!-- Node10 -->
<g id="node10" class="node"><title>Node10</title>
<g id="a_node10"><a xlink:href="classwind.html#a582192f02996b37543b966df84af1e78" target="_top" xlink:title="wind::update_winds">
<polygon fill="white" stroke="black" points="713.5,-8 713.5,-27 816.5,-27 816.5,-8 713.5,-8"/>
<text text-anchor="middle" x="765" y="-15" font-family="Helvetica,sans-Serif" font-size="10.00">wind::update_winds</text>
</a>
</g>
</g>
<!-- Node5&#45;&gt;Node10 -->
<g id="edge10" class="edge"><title>Node5&#45;&gt;Node10</title>
<path fill="none" stroke="midnightblue" d="M682.265,-30.1188C692.519,-28.5357 703.07,-26.9068 713.042,-25.3673"/>
<polygon fill="midnightblue" stroke="midnightblue" points="681.49,-26.6968 672.141,-31.6817 682.558,-33.6148 681.49,-26.6968"/>
</g>
<!-- Node7 -->
<g id="node7" class="node"><title>Node7</title>
<g id="a_node7"><a xlink:href="classboundary__conditions.html#a07a42f467f470ada98e0a35fd5a75f66" target="_top" xlink:title=" Initialize the boundary conditions (read inital conditions, etc.) ">
<polygon fill="white" stroke="black" points="858,-49.5 858,-79.5 964,-79.5 964,-49.5 858,-49.5"/>
<text text-anchor="start" x="866" y="-67.5" font-family="Helvetica,sans-Serif" font-size="10.00">boundary_conditions</text>
<text text-anchor="middle" x="911" y="-56.5" font-family="Helvetica,sans-Serif" font-size="10.00">::bc_init</text>
</a>
</g>
</g>
<!-- Node6&#45;&gt;Node7 -->
<g id="edge6" class="edge"><title>Node6&#45;&gt;Node7</title>
<path fill="none" stroke="midnightblue" d="M832.338,-62.882C840.811,-63.0586 849.389,-63.2373 857.599,-63.4083"/>
<polygon fill="midnightblue" stroke="midnightblue" points="832.157,-59.3776 822.086,-62.6685 832.011,-66.3761 832.157,-59.3776"/>
</g>
<!-- Node9 -->
<g id="node9" class="node"><title>Node9</title>
<g id="a_node9"><a xlink:href="classboundary__conditions.html#a1e8385c37634f3d7f70ea7c749dcda11" target="_top" xlink:title=" Read in the next timestep of input data and apply to the dXdt grids as appropriate. ">
<polygon fill="white" stroke="black" points="858,-0.5 858,-30.5 964,-30.5 964,-0.5 858,-0.5"/>
<text text-anchor="start" x="866" y="-18.5" font-family="Helvetica,sans-Serif" font-size="10.00">boundary_conditions</text>
<text text-anchor="middle" x="911" y="-7.5" font-family="Helvetica,sans-Serif" font-size="10.00">::bc_update</text>
</a>
</g>
</g>
<!-- Node6&#45;&gt;Node9 -->
<g id="edge8" class="edge"><title>Node6&#45;&gt;Node9</title>
<path fill="none" stroke="midnightblue" d="M823.045,-43.2772C836.202,-39.0743 850.056,-34.6487 862.743,-30.596"/>
<polygon fill="midnightblue" stroke="midnightblue" points="821.612,-40.0608 813.151,-46.4379 823.742,-46.7289 821.612,-40.0608"/>
</g>
<!-- Node8 -->
<g id="node8" class="node"><title>Node8</title>
<g id="a_node8"><a xlink:href="driver_8f90.html#ab1e5a5816a57fc6e95d9563c2bb53590" target="_top" xlink:title=" Main Program ">
<polygon fill="white" stroke="black" points="1000,-30 1000,-49 1032,-49 1032,-30 1000,-30"/>
<text text-anchor="middle" x="1016" y="-37" font-family="Helvetica,sans-Serif" font-size="10.00">icar</text>
</a>
</g>
</g>
<!-- Node7&#45;&gt;Node8 -->
<g id="edge7" class="edge"><title>Node7&#45;&gt;Node8</title>
<path fill="none" stroke="midnightblue" d="M974.071,-49.4343C983.517,-47.1414 992.468,-44.9689 999.576,-43.2436"/>
<polygon fill="midnightblue" stroke="midnightblue" points="972.996,-46.0935 964.104,-51.8535 974.647,-52.896 972.996,-46.0935"/>
</g>
<!-- Node9&#45;&gt;Node8 -->
<g id="edge9" class="edge"><title>Node9&#45;&gt;Node8</title>
<path fill="none" stroke="midnightblue" d="M974.071,-29.9631C983.517,-32.1642 992.468,-34.2498 999.576,-35.9061"/>
<polygon fill="midnightblue" stroke="midnightblue" points="974.637,-26.5013 964.104,-27.6406 973.048,-33.3187 974.637,-26.5013"/>
</g>
<!-- Node10&#45;&gt;Node7 -->
<g id="edge11" class="edge"><title>Node10&#45;&gt;Node7</title>
<path fill="none" stroke="midnightblue" d="M804.84,-30.1768C823.041,-36.1175 844.859,-43.2388 863.893,-49.4512"/>
<polygon fill="midnightblue" stroke="midnightblue" points="805.733,-26.7868 795.141,-27.0112 803.561,-33.4413 805.733,-26.7868"/>
</g>
<!-- Node10&#45;&gt;Node9 -->
<g id="edge12" class="edge"><title>Node10&#45;&gt;Node9</title>
<path fill="none" stroke="midnightblue" d="M826.895,-16.6542C837.156,-16.5117 847.725,-16.3649 857.742,-16.2258"/>
<polygon fill="midnightblue" stroke="midnightblue" points="826.719,-13.1562 816.769,-16.7949 826.817,-20.1556 826.719,-13.1562"/>
</g>
</g>
</svg>
