<?xml version="1.0" encoding="UTF-8" standalone="no"?>
<!DOCTYPE svg PUBLIC "-//W3C//DTD SVG 1.1//EN"
 "http://www.w3.org/Graphics/SVG/1.1/DTD/svg11.dtd">
<!-- Generated by graphviz version 2.32.0 (20130809.1645)
 -->
<!-- Title: initialize_options::init_restart_options Pages: 1 -->
<svg width="398pt" height="115pt"
 viewBox="0.00 0.00 398.00 115.00" xmlns="http://www.w3.org/2000/svg" xmlns:xlink="http://www.w3.org/1999/xlink">
<g id="graph0" class="graph" transform="scale(1 1) rotate(0) translate(4 111)">
<title>initialize_options::init_restart_options</title>
<polygon fill="white" stroke="white" points="-4,5 -4,-111 395,-111 395,5 -4,5"/>
<!-- Node1 -->
<g id="node1" class="node"><title>Node1</title>
<polygon fill="#bfbfbf" stroke="black" points="0.5,-44 0.5,-74 105.5,-74 105.5,-44 0.5,-44"/>
<text text-anchor="start" x="8.5" y="-62" font-family="Helvetica,sans-Serif" font-size="10.00">initialize_options</text>
<text text-anchor="middle" x="53" y="-51" font-family="Helvetica,sans-Serif" font-size="10.00">::init_restart_options</text>
</g>
<!-- Node2 -->
<g id="node2" class="node"><title>Node2</title>
<g id="a_node2"><a xlink:href="classio__routines.html#a754b76158aa8311e1ee112004ddae52b" target="_top" xlink:title=" Find an available file unit number. ">
<polygon fill="white" stroke="black" points="142,-87.5 142,-106.5 258,-106.5 258,-87.5 142,-87.5"/>
<text text-anchor="middle" x="200" y="-94.5" font-family="Helvetica,sans-Serif" font-size="10.00">io_routines::io_newunit</text>
</a>
</g>
</g>
<!-- Node1&#45;&gt;Node2 -->
<g id="edge1" class="edge"><title>Node1&#45;&gt;Node2</title>
<path fill="none" stroke="midnightblue" d="M105.53,-72.5044C120.874,-76.5256 137.589,-80.9061 152.586,-84.8363"/>
<polygon fill="midnightblue" stroke="midnightblue" points="152.095,-88.3259 162.656,-87.4754 153.87,-81.5545 152.095,-88.3259"/>
</g>
<!-- Node3 -->
<g id="node3" class="node"><title>Node3</title>
<g id="a_node3"><a xlink:href="classtime.html#a22e63418fe5d559327ca090619d097e0" target="_top" xlink:title="time::date_to_mjd">
<polygon fill="white" stroke="black" points="152.5,-49.5 152.5,-68.5 247.5,-68.5 247.5,-49.5 152.5,-49.5"/>
<text text-anchor="middle" x="200" y="-56.5" font-family="Helvetica,sans-Serif" font-size="10.00">time::date_to_mjd</text>
</a>
</g>
</g>
<!-- Node1&#45;&gt;Node3 -->
<g id="edge2" class="edge"><title>Node1&#45;&gt;Node3</title>
<path fill="none" stroke="midnightblue" d="M105.53,-59C117.486,-59 130.274,-59 142.433,-59"/>
<polygon fill="midnightblue" stroke="midnightblue" points="142.467,-62.5001 152.467,-59 142.467,-55.5001 142.467,-62.5001"/>
</g>
<!-- Node4 -->
<g id="node4" class="node"><title>Node4</title>
<g id="a_node4"><a xlink:href="classio__routines.html#af199c5971982f00c29c4ad34bdf15be0" target="_top" xlink:title=" Finds the nearest time step in a file to a given MJD Uses the &quot;time&quot; variable from filename...">
<polygon fill="white" stroke="black" points="142.5,-0 142.5,-30 257.5,-30 257.5,-0 142.5,-0"/>
<text text-anchor="start" x="150.5" y="-18" font-family="Helvetica,sans-Serif" font-size="10.00">io_routines::io_nearest</text>
<text text-anchor="middle" x="200" y="-7" font-family="Helvetica,sans-Serif" font-size="10.00">_time_step</text>
</a>
</g>
</g>
<!-- Node1&#45;&gt;Node4 -->
<g id="edge3" class="edge"><title>Node1&#45;&gt;Node4</title>
<path fill="none" stroke="midnightblue" d="M103.495,-43.9808C115.032,-40.4798 127.437,-36.7158 139.361,-33.0973"/>
<polygon fill="midnightblue" stroke="midnightblue" points="140.683,-36.3539 149.236,-30.1009 138.65,-29.6555 140.683,-36.3539"/>
</g>
<!-- Node5 -->
<g id="node5" class="node"><title>Node5</title>
<g id="a_node5"><a xlink:href="classio__routines.html#ac4835ed66f2e10d8e5bb40f6122f0ca1" target="_top" xlink:title=" Simple error handling for common netcdf file errors ">
<polygon fill="white" stroke="black" points="294,-5.5 294,-24.5 390,-24.5 390,-5.5 294,-5.5"/>
<text text-anchor="middle" x="342" y="-12.5" font-family="Helvetica,sans-Serif" font-size="10.00">io_routines::check</text>
</a>
</g>
</g>
<!-- Node4&#45;&gt;Node5 -->
<g id="edge4" class="edge"><title>Node4&#45;&gt;Node5</title>
<path fill="none" stroke="midnightblue" d="M257.54,-15C266.064,-15 274.866,-15 283.412,-15"/>
<polygon fill="midnightblue" stroke="midnightblue" points="283.674,-18.5001 293.674,-15 283.674,-11.5001 283.674,-18.5001"/>
</g>
</g>
</svg>
