<?xml version="1.0" encoding="UTF-8" standalone="no"?>
<!DOCTYPE svg PUBLIC "-//W3C//DTD SVG 1.1//EN"
 "http://www.w3.org/Graphics/SVG/1.1/DTD/svg11.dtd">
<!-- Generated by graphviz version 2.32.0 (20130809.1645)
 -->
<!-- Title: module_cu_tiedtke::cuadjtq Pages: 1 -->
<svg width="1000pt" height="283pt"
 viewBox="0.00 0.00 1000.00 283.00" xmlns="http://www.w3.org/2000/svg" xmlns:xlink="http://www.w3.org/1999/xlink">
<g id="graph0" class="graph" transform="scale(1 1) rotate(0) translate(4 279)">
<title>module_cu_tiedtke::cuadjtq</title>
<polygon fill="white" stroke="white" points="-4,5 -4,-279 997,-279 997,5 -4,5"/>
<!-- Node1 -->
<g id="node1" class="node"><title>Node1</title>
<polygon fill="#bfbfbf" stroke="black" points="0,-122 0,-152 104,-152 104,-122 0,-122"/>
<text text-anchor="start" x="8" y="-140" font-family="Helvetica,sans-Serif" font-size="10.00">module_cu_tiedtke::</text>
<text text-anchor="middle" x="52" y="-129" font-family="Helvetica,sans-Serif" font-size="10.00">cuadjtq</text>
</g>
<!-- Node2 -->
<g id="node2" class="node"><title>Node2</title>
<g id="a_node2"><a xlink:href="classmodule__cu__tiedtke.html#ad58bc964dc1ba2f7c52ec660f3ac783a" target="_top" xlink:title="module_cu_tiedtke::\lcuini">
<polygon fill="white" stroke="black" points="140,-245 140,-275 244,-275 244,-245 140,-245"/>
<text text-anchor="start" x="148" y="-263" font-family="Helvetica,sans-Serif" font-size="10.00">module_cu_tiedtke::</text>
<text text-anchor="middle" x="192" y="-252" font-family="Helvetica,sans-Serif" font-size="10.00">cuini</text>
</a>
</g>
</g>
<!-- Node1&#45;&gt;Node2 -->
<g id="edge1" class="edge"><title>Node1&#45;&gt;Node2</title>
<path fill="none" stroke="midnightblue" d="M69.6577,-160.522C85.7699,-181.998 111.83,-213.573 140,-235 144.787,-238.642 150.189,-241.967 155.64,-244.921"/>
<polygon fill="midnightblue" stroke="midnightblue" points="72.3322,-158.251 63.585,-152.273 66.695,-162.401 72.3322,-158.251"/>
</g>
<!-- Node9 -->
<g id="node9" class="node"><title>Node9</title>
<g id="a_node9"><a xlink:href="classmodule__cu__tiedtke.html#a252e2ab4e675cefd721c0e6b4c7d0796" target="_top" xlink:title="module_cu_tiedtke::\lcubase">
<polygon fill="white" stroke="black" points="140,-196 140,-226 244,-226 244,-196 140,-196"/>
<text text-anchor="start" x="148" y="-214" font-family="Helvetica,sans-Serif" font-size="10.00">module_cu_tiedtke::</text>
<text text-anchor="middle" x="192" y="-203" font-family="Helvetica,sans-Serif" font-size="10.00">cubase</text>
</a>
</g>
</g>
<!-- Node1&#45;&gt;Node9 -->
<g id="edge8" class="edge"><title>Node1&#45;&gt;Node9</title>
<path fill="none" stroke="midnightblue" d="M87.9464,-157.284C103.732,-166.291 122.687,-176.891 140,-186 146.283,-189.306 153.066,-192.73 159.571,-195.944"/>
<polygon fill="midnightblue" stroke="midnightblue" points="89.4714,-154.124 79.0548,-152.189 85.9909,-160.198 89.4714,-154.124"/>
</g>
<!-- Node10 -->
<g id="node10" class="node"><title>Node10</title>
<g id="a_node10"><a xlink:href="classmodule__cu__tiedtke.html#a75265ba406fbb983606db3742939bc18" target="_top" xlink:title="module_cu_tiedtke::\lcutype">
<polygon fill="white" stroke="black" points="140,-147 140,-177 244,-177 244,-147 140,-147"/>
<text text-anchor="start" x="148" y="-165" font-family="Helvetica,sans-Serif" font-size="10.00">module_cu_tiedtke::</text>
<text text-anchor="middle" x="192" y="-154" font-family="Helvetica,sans-Serif" font-size="10.00">cutype</text>
</a>
</g>
</g>
<!-- Node1&#45;&gt;Node10 -->
<g id="edge10" class="edge"><title>Node1&#45;&gt;Node10</title>
<path fill="none" stroke="midnightblue" d="M114.496,-148.141C122.872,-149.658 131.398,-151.202 139.571,-152.683"/>
<polygon fill="midnightblue" stroke="midnightblue" points="114.85,-144.648 104.386,-146.309 113.602,-151.536 114.85,-144.648"/>
</g>
<!-- Node11 -->
<g id="node11" class="node"><title>Node11</title>
<g id="a_node11"><a xlink:href="classmodule__cu__tiedtke.html#ac9ae922d9f0655dae4887093c89d2909" target="_top" xlink:title="module_cu_tiedtke::\lcuasc_new">
<polygon fill="white" stroke="black" points="140,-98 140,-128 244,-128 244,-98 140,-98"/>
<text text-anchor="start" x="148" y="-116" font-family="Helvetica,sans-Serif" font-size="10.00">module_cu_tiedtke::</text>
<text text-anchor="middle" x="192" y="-105" font-family="Helvetica,sans-Serif" font-size="10.00">cuasc_new</text>
</a>
</g>
</g>
<!-- Node1&#45;&gt;Node11 -->
<g id="edge12" class="edge"><title>Node1&#45;&gt;Node11</title>
<path fill="none" stroke="midnightblue" d="M114.496,-126.305C122.872,-124.848 131.398,-123.366 139.571,-121.944"/>
<polygon fill="midnightblue" stroke="midnightblue" points="113.639,-122.902 104.386,-128.063 114.838,-129.798 113.639,-122.902"/>
</g>
<!-- Node12 -->
<g id="node12" class="node"><title>Node12</title>
<g id="a_node12"><a xlink:href="classmodule__cu__tiedtke.html#ac30d7f0b03de20b3c35ae750e7b0b6d4" target="_top" xlink:title="module_cu_tiedtke::\lcudlfs">
<polygon fill="white" stroke="black" points="140,-49 140,-79 244,-79 244,-49 140,-49"/>
<text text-anchor="start" x="148" y="-67" font-family="Helvetica,sans-Serif" font-size="10.00">module_cu_tiedtke::</text>
<text text-anchor="middle" x="192" y="-56" font-family="Helvetica,sans-Serif" font-size="10.00">cudlfs</text>
</a>
</g>
</g>
<!-- Node1&#45;&gt;Node12 -->
<g id="edge14" class="edge"><title>Node1&#45;&gt;Node12</title>
<path fill="none" stroke="midnightblue" d="M88.3399,-116.995C104.063,-108.227 122.86,-97.9226 140,-89 146.298,-85.7217 153.087,-82.3099 159.593,-79.099"/>
<polygon fill="midnightblue" stroke="midnightblue" points="86.4899,-114.02 79.4737,-121.959 89.9092,-120.128 86.4899,-114.02"/>
</g>
<!-- Node13 -->
<g id="node13" class="node"><title>Node13</title>
<g id="a_node13"><a xlink:href="classmodule__cu__tiedtke.html#a38ab6318e5e3bdd086bd5969c9728dc4" target="_top" xlink:title="module_cu_tiedtke::\lcuddraf">
<polygon fill="white" stroke="black" points="140,-0 140,-30 244,-30 244,-0 140,-0"/>
<text text-anchor="start" x="148" y="-18" font-family="Helvetica,sans-Serif" font-size="10.00">module_cu_tiedtke::</text>
<text text-anchor="middle" x="192" y="-7" font-family="Helvetica,sans-Serif" font-size="10.00">cuddraf</text>
</a>
</g>
</g>
<!-- Node1&#45;&gt;Node13 -->
<g id="edge16" class="edge"><title>Node1&#45;&gt;Node13</title>
<path fill="none" stroke="midnightblue" d="M69.7067,-113.73C85.8533,-92.4807 111.936,-61.2338 140,-40 144.797,-36.3706 150.203,-33.0514 155.656,-30.1007"/>
<polygon fill="midnightblue" stroke="midnightblue" points="66.7927,-111.783 63.6195,-121.891 72.4039,-115.968 66.7927,-111.783"/>
</g>
<!-- Node3 -->
<g id="node3" class="node"><title>Node3</title>
<g id="a_node3"><a xlink:href="classmodule__cu__tiedtke.html#a8840397e245a13cbb7c61f8cea6e7894" target="_top" xlink:title="module_cu_tiedtke::\lcumastr_new">
<polygon fill="white" stroke="black" points="280,-122 280,-152 384,-152 384,-122 280,-122"/>
<text text-anchor="start" x="288" y="-140" font-family="Helvetica,sans-Serif" font-size="10.00">module_cu_tiedtke::</text>
<text text-anchor="middle" x="332" y="-129" font-family="Helvetica,sans-Serif" font-size="10.00">cumastr_new</text>
</a>
</g>
</g>
<!-- Node2&#45;&gt;Node3 -->
<g id="edge2" class="edge"><title>Node2&#45;&gt;Node3</title>
<path fill="none" stroke="midnightblue" d="M237.411,-239.593C239.693,-238.126 241.905,-236.593 244,-235 276.051,-210.621 305.371,-173.105 320.415,-152.273"/>
<polygon fill="midnightblue" stroke="midnightblue" points="235.203,-236.832 228.36,-244.921 238.753,-242.865 235.203,-236.832"/>
</g>
<!-- Node4 -->
<g id="node4" class="node"><title>Node4</title>
<g id="a_node4"><a xlink:href="classmodule__cu__tiedtke.html#ae9c234f80f55688e10c72091b6c673dc" target="_top" xlink:title="module_cu_tiedtke::\ltiecnv">
<polygon fill="white" stroke="black" points="420,-122 420,-152 524,-152 524,-122 420,-122"/>
<text text-anchor="start" x="428" y="-140" font-family="Helvetica,sans-Serif" font-size="10.00">module_cu_tiedtke::</text>
<text text-anchor="middle" x="472" y="-129" font-family="Helvetica,sans-Serif" font-size="10.00">tiecnv</text>
</a>
</g>
</g>
<!-- Node3&#45;&gt;Node4 -->
<g id="edge3" class="edge"><title>Node3&#45;&gt;Node4</title>
<path fill="none" stroke="midnightblue" d="M394.496,-137C402.872,-137 411.398,-137 419.571,-137"/>
<polygon fill="midnightblue" stroke="midnightblue" points="394.386,-133.5 384.386,-137 394.386,-140.5 394.386,-133.5"/>
</g>
<!-- Node5 -->
<g id="node5" class="node"><title>Node5</title>
<g id="a_node5"><a xlink:href="classmodule__cu__tiedtke.html#ae3fdba4e560c50ab3f6b9f1e30f2f255" target="_top" xlink:title="module_cu_tiedtke::\lcu_tiedtke">
<polygon fill="white" stroke="black" points="560,-122 560,-152 664,-152 664,-122 560,-122"/>
<text text-anchor="start" x="568" y="-140" font-family="Helvetica,sans-Serif" font-size="10.00">module_cu_tiedtke::</text>
<text text-anchor="middle" x="612" y="-129" font-family="Helvetica,sans-Serif" font-size="10.00">cu_tiedtke</text>
</a>
</g>
</g>
<!-- Node4&#45;&gt;Node5 -->
<g id="edge4" class="edge"><title>Node4&#45;&gt;Node5</title>
<path fill="none" stroke="midnightblue" d="M534.496,-137C542.872,-137 551.398,-137 559.571,-137"/>
<polygon fill="midnightblue" stroke="midnightblue" points="534.386,-133.5 524.386,-137 534.386,-140.5 534.386,-133.5"/>
</g>
<!-- Node6 -->
<g id="node6" class="node"><title>Node6</title>
<g id="a_node6"><a xlink:href="classconvection.html#a06b811540eb747b3734e7fb35de41782" target="_top" xlink:title="convection::convect">
<polygon fill="white" stroke="black" points="700,-127.5 700,-146.5 804,-146.5 804,-127.5 700,-127.5"/>
<text text-anchor="middle" x="752" y="-134.5" font-family="Helvetica,sans-Serif" font-size="10.00">convection::convect</text>
</a>
</g>
</g>
<!-- Node5&#45;&gt;Node6 -->
<g id="edge5" class="edge"><title>Node5&#45;&gt;Node6</title>
<path fill="none" stroke="midnightblue" d="M674.496,-137C682.872,-137 691.398,-137 699.571,-137"/>
<polygon fill="midnightblue" stroke="midnightblue" points="674.386,-133.5 664.386,-137 674.386,-140.5 674.386,-133.5"/>
</g>
<!-- Node7 -->
<g id="node7" class="node"><title>Node7</title>
<g id="a_node7"><a xlink:href="classtime__step.html#a2c022f11247af72e607b1493289aa974" target="_top" xlink:title=" Step forward one IO time step. ">
<polygon fill="white" stroke="black" points="840,-127.5 840,-146.5 924,-146.5 924,-127.5 840,-127.5"/>
<text text-anchor="middle" x="882" y="-134.5" font-family="Helvetica,sans-Serif" font-size="10.00">time_step::step</text>
</a>
</g>
</g>
<!-- Node6&#45;&gt;Node7 -->
<g id="edge6" class="edge"><title>Node6&#45;&gt;Node7</title>
<path fill="none" stroke="midnightblue" d="M814.406,-137C823.051,-137 831.759,-137 839.897,-137"/>
<polygon fill="midnightblue" stroke="midnightblue" points="814.325,-133.5 804.325,-137 814.325,-140.5 814.325,-133.5"/>
</g>
<!-- Node8 -->
<g id="node8" class="node"><title>Node8</title>
<g id="a_node8"><a xlink:href="driver_8f90.html#ab1e5a5816a57fc6e95d9563c2bb53590" target="_top" xlink:title=" Main Program ">
<polygon fill="white" stroke="black" points="960,-127.5 960,-146.5 992,-146.5 992,-127.5 960,-127.5"/>
<text text-anchor="middle" x="976" y="-134.5" font-family="Helvetica,sans-Serif" font-size="10.00">icar</text>
</a>
</g>
</g>
<!-- Node7&#45;&gt;Node8 -->
<g id="edge7" class="edge"><title>Node7&#45;&gt;Node8</title>
<path fill="none" stroke="midnightblue" d="M934.253,-137C943.521,-137 952.5,-137 959.66,-137"/>
<polygon fill="midnightblue" stroke="midnightblue" points="934.156,-133.5 924.156,-137 934.156,-140.5 934.156,-133.5"/>
</g>
<!-- Node9&#45;&gt;Node3 -->
<g id="edge9" class="edge"><title>Node9&#45;&gt;Node3</title>
<path fill="none" stroke="midnightblue" d="M233.68,-191.32C237.183,-189.546 240.662,-187.756 244,-186 264.71,-175.103 287.772,-162.072 304.945,-152.189"/>
<polygon fill="midnightblue" stroke="midnightblue" points="231.809,-188.342 224.429,-195.944 234.939,-194.603 231.809,-188.342"/>
</g>
<!-- Node10&#45;&gt;Node3 -->
<g id="edge11" class="edge"><title>Node10&#45;&gt;Node3</title>
<path fill="none" stroke="midnightblue" d="M254.496,-150.859C262.872,-149.342 271.398,-147.798 279.571,-146.317"/>
<polygon fill="midnightblue" stroke="midnightblue" points="253.602,-147.464 244.386,-152.691 254.85,-154.352 253.602,-147.464"/>
</g>
<!-- Node11&#45;&gt;Node3 -->
<g id="edge13" class="edge"><title>Node11&#45;&gt;Node3</title>
<path fill="none" stroke="midnightblue" d="M254.496,-123.695C262.872,-125.152 271.398,-126.634 279.571,-128.056"/>
<polygon fill="midnightblue" stroke="midnightblue" points="254.838,-120.202 244.386,-121.937 253.639,-127.098 254.838,-120.202"/>
</g>
<!-- Node12&#45;&gt;Node3 -->
<g id="edge15" class="edge"><title>Node12&#45;&gt;Node3</title>
<path fill="none" stroke="midnightblue" d="M233.663,-83.7123C237.17,-85.4791 240.654,-87.2584 244,-89 264.504,-99.6737 287.38,-112.325 304.526,-121.959"/>
<polygon fill="midnightblue" stroke="midnightblue" points="234.918,-80.4272 224.407,-79.099 231.796,-86.6922 234.918,-80.4272"/>
</g>
<!-- Node13&#45;&gt;Node3 -->
<g id="edge17" class="edge"><title>Node13&#45;&gt;Node3</title>
<path fill="none" stroke="midnightblue" d="M237.401,-35.4194C239.686,-36.8837 241.901,-38.4122 244,-40 275.93,-64.1593 305.297,-101.281 320.38,-121.891"/>
<polygon fill="midnightblue" stroke="midnightblue" points="238.739,-32.1462 228.344,-30.1007 235.194,-38.1824 238.739,-32.1462"/>
</g>
</g>
</svg>
