<?xml version="1.0" encoding="UTF-8" standalone="no"?>
<!DOCTYPE svg PUBLIC "-//W3C//DTD SVG 1.1//EN"
 "http://www.w3.org/Graphics/SVG/1.1/DTD/svg11.dtd">
<!-- Generated by graphviz version 2.38.0 (20140413.2041)
 -->
<!-- Title: vertical_interpolation::vinterp_boundary Pages: 1 -->
<!--zoomable 228 -->
<svg id="main" version="1.1" xmlns="http://www.w3.org/2000/svg" xmlns:xlink="http://www.w3.org/1999/xlink" xml:space="preserve" onload="init(evt)">
<style type="text/css"><![CDATA[
.edge:hover path { stroke: red; }
.edge:hover polygon { stroke: red; fill: red; }
]]></style>
<script type="text/javascript"><![CDATA[
var edges = document.getElementsByTagName('g');
if (edges && edges.length) {
  for (var i=0;i<edges.length;i++) {
    if (edges[i].id.substr(0,4)=='edge') {
      edges[i].setAttribute('class','edge');
    }
  }
}
]]></script>
        <defs>
                <circle id="rim" cx="0" cy="0" r="7"/>
                <circle id="rim2" cx="0" cy="0" r="3.5"/>
                <g id="zoomPlus">
                        <use xlink:href="#rim" fill="#404040">
                                <set attributeName="fill" to="#808080" begin="zoomplus.mouseover" end="zoomplus.mouseout"/>
                        </use>
                        <path d="M-4,0h8M0,-4v8" fill="none" stroke="white" stroke-width="1.5" pointer-events="none"/>
                </g>
                <g id="zoomMin">
                        <use xlink:href="#rim" fill="#404040">
                                <set attributeName="fill" to="#808080" begin="zoomminus.mouseover" end="zoomminus.mouseout"/>
                        </use>
                        <path d="M-4,0h8" fill="none" stroke="white" stroke-width="1.5" pointer-events="none"/>
                </g>
                <g id="dirArrow">
                        <path fill="none" stroke="white" stroke-width="1.5" d="M0,-3.0v7 M-2.5,-0.5L0,-3.0L2.5,-0.5"/>
                </g>
               <g id="resetDef">
                       <use xlink:href="#rim2" fill="#404040">
                               <set attributeName="fill" to="#808080" begin="reset.mouseover" end="reset.mouseout"/>
                       </use>
               </g>
        </defs>

<script type="text/javascript">
var viewWidth = 758;
var viewHeight = 228;
var sectionId = 'dynsection-3';
</script>
<script xlink:href="svgpan.js"/>
<svg id="graph" class="graph">
<g id="viewport">
<title>vertical_interpolation::vinterp_boundary</title>
<polygon fill="white" stroke="none" points="-4,4 -4,-223.5 754,-223.5 754,4 -4,4"/>
<!-- Node1 -->
<g id="node1" class="node"><title>Node1</title>
<polygon fill="#bfbfbf" stroke="black" points="0,-63 0,-93 106,-93 106,-63 0,-63"/>
<text text-anchor="start" x="8" y="-81" font-family="Helvetica,sans-Serif" font-size="10.00">vertical_interpolation</text>
<text text-anchor="middle" x="53" y="-70" font-family="Helvetica,sans-Serif" font-size="10.00">::vinterp_boundary</text>
</g>
<!-- Node2 -->
<g id="node2" class="node"><title>Node2</title>
<g id="a_node2"><a xlink:href="classvertical__interpolation.html#a2d3f85573f18ea2ab18d6dcdec6a025a" target="_top" xlink:title="vertical_interpolation\l::vinterp">
<polygon fill="white" stroke="black" points="142,-63 142,-93 248,-93 248,-63 142,-63"/>
<text text-anchor="start" x="150" y="-81" font-family="Helvetica,sans-Serif" font-size="10.00">vertical_interpolation</text>
<text text-anchor="middle" x="195" y="-70" font-family="Helvetica,sans-Serif" font-size="10.00">::vinterp</text>
</a>
</g>
</g>
<!-- Node1&#45;&gt;Node2 -->
<g id="edge1" class="edge"><title>Node1&#45;&gt;Node2</title>
<path fill="none" stroke="midnightblue" d="M116.387,-78C124.885,-78 133.534,-78 141.826,-78"/>
<polygon fill="midnightblue" stroke="midnightblue" points="116.131,-74.5001 106.131,-78 116.131,-81.5001 116.131,-74.5001"/>
</g>
<!-- Node3 -->
<g id="node3" class="node"><title>Node3</title>
<g id="a_node3"><a xlink:href="classboundary__conditions.html#a3d4ddfc81942b206888c807998f4bb3c" target="_top" xlink:title=" Generic routine to read a forcing variable (varname) from a netcdf file (filename) at a time step (c...">
<polygon fill="white" stroke="black" points="284,-107 284,-137 390,-137 390,-107 284,-107"/>
<text text-anchor="start" x="292" y="-125" font-family="Helvetica,sans-Serif" font-size="10.00">boundary_conditions</text>
<text text-anchor="middle" x="337" y="-114" font-family="Helvetica,sans-Serif" font-size="10.00">::read_var</text>
</a>
</g>
</g>
<!-- Node2&#45;&gt;Node3 -->
<g id="edge2" class="edge"><title>Node2&#45;&gt;Node3</title>
<path fill="none" stroke="midnightblue" d="M253.659,-96.1215C265.06,-99.7044 276.911,-103.429 287.952,-106.899"/>
<polygon fill="midnightblue" stroke="midnightblue" points="254.378,-92.6786 243.788,-93.0192 252.279,-99.3566 254.378,-92.6786"/>
</g>
<!-- Node9 -->
<g id="node9" class="node"><title>Node9</title>
<g id="a_node9"><a xlink:href="classboundary__conditions.html#ac4cfb5127bfecdc6e088ef949694ea4a" target="_top" xlink:title=" Remove linear theory topographic winds perturbations from the low resolution wind field...">
<polygon fill="white" stroke="black" points="426,-63 426,-93 540,-93 540,-63 426,-63"/>
<text text-anchor="start" x="434" y="-81" font-family="Helvetica,sans-Serif" font-size="10.00">boundary_conditions</text>
<text text-anchor="middle" x="483" y="-70" font-family="Helvetica,sans-Serif" font-size="10.00">::remove_linear_winds</text>
</a>
</g>
</g>
<!-- Node2&#45;&gt;Node9 -->
<g id="edge11" class="edge"><title>Node2&#45;&gt;Node9</title>
<path fill="none" stroke="midnightblue" d="M258.15,-78C308.07,-78 377.569,-78 425.832,-78"/>
<polygon fill="midnightblue" stroke="midnightblue" points="258.124,-74.5001 248.124,-78 258.124,-81.5001 258.124,-74.5001"/>
</g>
<!-- Node10 -->
<g id="node10" class="node"><title>Node10</title>
<g id="a_node10"><a xlink:href="classinit.html#a1c6cab46bb16bea719da3b193c43ccb3" target="_top" xlink:title="init::init_bc">
<polygon fill="white" stroke="black" points="305,-3.5 305,-22.5 369,-22.5 369,-3.5 305,-3.5"/>
<text text-anchor="middle" x="337" y="-10.5" font-family="Helvetica,sans-Serif" font-size="10.00">init::init_bc</text>
</a>
</g>
</g>
<!-- Node2&#45;&gt;Node10 -->
<g id="edge14" class="edge"><title>Node2&#45;&gt;Node10</title>
<path fill="none" stroke="midnightblue" d="M237.612,-58.68C263.265,-46.7697 295.042,-32.0161 315.418,-22.556"/>
<polygon fill="midnightblue" stroke="midnightblue" points="236.067,-55.5386 228.471,-62.9243 239.015,-61.8877 236.067,-55.5386"/>
</g>
<!-- Node4 -->
<g id="node4" class="node"><title>Node4</title>
<g id="a_node4"><a xlink:href="classboundary__conditions.html#afd8110e2b16915ce0cb12ce4958fe09c" target="_top" xlink:title=" Initialize the external winds information (filenames, nfiles, etc) and read the initial conditions ...">
<polygon fill="white" stroke="black" points="430,-14 430,-44 536,-44 536,-14 430,-14"/>
<text text-anchor="start" x="438" y="-32" font-family="Helvetica,sans-Serif" font-size="10.00">boundary_conditions</text>
<text text-anchor="middle" x="483" y="-21" font-family="Helvetica,sans-Serif" font-size="10.00">::ext_winds_init</text>
</a>
</g>
</g>
<!-- Node3&#45;&gt;Node4 -->
<g id="edge3" class="edge"><title>Node3&#45;&gt;Node4</title>
<path fill="none" stroke="midnightblue" d="M362.348,-100.081C379.352,-85.5039 403.035,-66.6083 426,-53 431.369,-49.8186 437.238,-46.8289 443.09,-44.1114"/>
<polygon fill="midnightblue" stroke="midnightblue" points="359.817,-97.6442 354.57,-106.848 364.412,-102.925 359.817,-97.6442"/>
</g>
<!-- Node5 -->
<g id="node5" class="node"><title>Node5</title>
<g id="a_node5"><a xlink:href="classboundary__conditions.html#a07a42f467f470ada98e0a35fd5a75f66" target="_top" xlink:title=" Initialize the boundary conditions (read inital conditions, etc.) ">
<polygon fill="white" stroke="black" points="576,-63 576,-93 682,-93 682,-63 576,-63"/>
<text text-anchor="start" x="584" y="-81" font-family="Helvetica,sans-Serif" font-size="10.00">boundary_conditions</text>
<text text-anchor="middle" x="629" y="-70" font-family="Helvetica,sans-Serif" font-size="10.00">::bc_init</text>
</a>
</g>
</g>
<!-- Node3&#45;&gt;Node5 -->
<g id="edge6" class="edge"><title>Node3&#45;&gt;Node5</title>
<path fill="none" stroke="midnightblue" d="M400.399,-118.531C440.513,-115.636 493.614,-110.559 540,-102 552.614,-99.6724 566.056,-96.4151 578.538,-93.0493"/>
<polygon fill="midnightblue" stroke="midnightblue" points="399.965,-115.053 390.232,-119.239 400.451,-122.036 399.965,-115.053"/>
</g>
<!-- Node7 -->
<g id="node7" class="node"><title>Node7</title>
<g id="a_node7"><a xlink:href="classboundary__conditions.html#a40ba01db58736c2bb018af7ebe72f55f" target="_top" xlink:title=" Update the external wind field ">
<polygon fill="white" stroke="black" points="430,-189 430,-219 536,-219 536,-189 430,-189"/>
<text text-anchor="start" x="438" y="-207" font-family="Helvetica,sans-Serif" font-size="10.00">boundary_conditions</text>
<text text-anchor="middle" x="483" y="-196" font-family="Helvetica,sans-Serif" font-size="10.00">::update_ext_winds</text>
</a>
</g>
</g>
<!-- Node3&#45;&gt;Node7 -->
<g id="edge7" class="edge"><title>Node3&#45;&gt;Node7</title>
<path fill="none" stroke="midnightblue" d="M371.539,-142.264C387.876,-152.021 407.864,-163.79 426,-174 434.842,-178.978 444.561,-184.253 453.385,-188.968"/>
<polygon fill="midnightblue" stroke="midnightblue" points="373.25,-139.21 362.873,-137.074 369.653,-145.215 373.25,-139.21"/>
</g>
<!-- Node8 -->
<g id="node8" class="node"><title>Node8</title>
<g id="a_node8"><a xlink:href="classboundary__conditions.html#a1e8385c37634f3d7f70ea7c749dcda11" target="_top" xlink:title=" Read in the next timestep of input data and apply to the dXdt grids as appropriate. ">
<polygon fill="white" stroke="black" points="576,-128 576,-158 682,-158 682,-128 576,-128"/>
<text text-anchor="start" x="584" y="-146" font-family="Helvetica,sans-Serif" font-size="10.00">boundary_conditions</text>
<text text-anchor="middle" x="629" y="-135" font-family="Helvetica,sans-Serif" font-size="10.00">::bc_update</text>
</a>
</g>
</g>
<!-- Node3&#45;&gt;Node8 -->
<g id="edge10" class="edge"><title>Node3&#45;&gt;Node8</title>
<path fill="none" stroke="midnightblue" d="M400.419,-132.902C408.992,-134.115 417.699,-135.199 426,-136 476.821,-140.904 535.125,-142.495 575.99,-142.955"/>
<polygon fill="midnightblue" stroke="midnightblue" points="400.851,-129.428 390.447,-131.428 399.828,-136.352 400.851,-129.428"/>
</g>
<!-- Node4&#45;&gt;Node5 -->
<g id="edge4" class="edge"><title>Node4&#45;&gt;Node5</title>
<path fill="none" stroke="midnightblue" d="M538.043,-47.3896C553.036,-52.4916 569.14,-57.9711 583.519,-62.8641"/>
<polygon fill="midnightblue" stroke="midnightblue" points="538.974,-44.0095 528.38,-44.1014 536.719,-50.6363 538.974,-44.0095"/>
</g>
<!-- Node6 -->
<g id="node6" class="node"><title>Node6</title>
<g id="a_node6"><a xlink:href="driver_8f90.html#ab1e5a5816a57fc6e95d9563c2bb53590" target="_top" xlink:title=" Main Program ">
<polygon fill="white" stroke="black" points="718,-68.5 718,-87.5 750,-87.5 750,-68.5 718,-68.5"/>
<text text-anchor="middle" x="734" y="-75.5" font-family="Helvetica,sans-Serif" font-size="10.00">icar</text>
</a>
</g>
</g>
<!-- Node5&#45;&gt;Node6 -->
<g id="edge5" class="edge"><title>Node5&#45;&gt;Node6</title>
<path fill="none" stroke="midnightblue" d="M692.369,-78C701.706,-78 710.543,-78 717.576,-78"/>
<polygon fill="midnightblue" stroke="midnightblue" points="692.104,-74.5001 682.104,-78 692.103,-81.5001 692.104,-74.5001"/>
</g>
<!-- Node7&#45;&gt;Node8 -->
<g id="edge8" class="edge"><title>Node7&#45;&gt;Node8</title>
<path fill="none" stroke="midnightblue" d="M529,-184.937C549.397,-176.297 573.175,-166.224 592.315,-158.117"/>
<polygon fill="midnightblue" stroke="midnightblue" points="527.438,-181.798 519.596,-188.921 530.169,-188.243 527.438,-181.798"/>
</g>
<!-- Node8&#45;&gt;Node6 -->
<g id="edge9" class="edge"><title>Node8&#45;&gt;Node6</title>
<path fill="none" stroke="midnightblue" d="M662.365,-122.575C680.916,-110.869 703.327,-96.7257 717.857,-87.556"/>
<polygon fill="midnightblue" stroke="midnightblue" points="660.478,-119.628 653.889,-127.924 664.214,-125.547 660.478,-119.628"/>
</g>
<!-- Node9&#45;&gt;Node5 -->
<g id="edge12" class="edge"><title>Node9&#45;&gt;Node5</title>
<path fill="none" stroke="midnightblue" d="M550.338,-78C558.811,-78 567.389,-78 575.599,-78"/>
<polygon fill="midnightblue" stroke="midnightblue" points="550.087,-74.5001 540.086,-78 550.086,-81.5001 550.087,-74.5001"/>
</g>
<!-- Node9&#45;&gt;Node8 -->
<g id="edge13" class="edge"><title>Node9&#45;&gt;Node8</title>
<path fill="none" stroke="midnightblue" d="M526.708,-97.278C548.383,-107.062 574.328,-118.773 594.534,-127.894"/>
<polygon fill="midnightblue" stroke="midnightblue" points="527.953,-93.9998 517.398,-93.0757 525.073,-100.38 527.953,-93.9998"/>
</g>
<!-- Node11 -->
<g id="node11" class="node"><title>Node11</title>
<g id="a_node11"><a xlink:href="classinit.html#a1dd1e2b38eef39cba464f65c9ce82568" target="_top" xlink:title="init::init_model">
<polygon fill="white" stroke="black" points="589,-0.5 589,-19.5 669,-19.5 669,-0.5 589,-0.5"/>
<text text-anchor="middle" x="629" y="-7.5" font-family="Helvetica,sans-Serif" font-size="10.00">init::init_model</text>
</a>
</g>
</g>
<!-- Node10&#45;&gt;Node11 -->
<g id="edge15" class="edge"><title>Node10&#45;&gt;Node11</title>
<path fill="none" stroke="midnightblue" d="M379.575,-7.86959C394.223,-6.29514 410.819,-4.77426 426,-4 476.601,-1.41919 489.363,-2.27573 540,-4 555.917,-4.54198 573.424,-5.63384 588.604,-6.73935"/>
<polygon fill="midnightblue" stroke="midnightblue" points="378.851,-4.42849 369.301,-9.01558 379.627,-11.3853 378.851,-4.42849"/>
</g>
<!-- Node11&#45;&gt;Node6 -->
<g id="edge16" class="edge"><title>Node11&#45;&gt;Node6</title>
<path fill="none" stroke="midnightblue" d="M653.324,-25.3984C673.385,-38.6423 701.685,-57.3262 718.602,-68.4946"/>
<polygon fill="midnightblue" stroke="midnightblue" points="655.031,-22.3315 644.757,-19.7427 651.174,-28.1732 655.031,-22.3315"/>
</g>
</g>
</svg>
        <g id="navigator" transform="translate(0 0)" fill="#404254">
                <rect fill="#f2f5e9" fill-opacity="0.5" stroke="#606060" stroke-width=".5" x="0" y="0" width="60" height="60"/>
                <use id="zoomplus" xlink:href="#zoomPlus" x="17" y="9" onmousedown="handleZoom(evt,'in')"/>
                <use id="zoomminus" xlink:href="#zoomMin" x="42" y="9" onmousedown="handleZoom(evt,'out')"/>
                <use id="reset" xlink:href="#resetDef" x="30" y="36" onmousedown="handleReset()"/>
                <g id="arrowUp" xlink:href="#dirArrow" transform="translate(30 24)" onmousedown="handlePan(0,-1)">
                  <use xlink:href="#rim" fill="#404040">
                        <set attributeName="fill" to="#808080" begin="arrowUp.mouseover" end="arrowUp.mouseout"/>
                  </use>
                  <path fill="none" stroke="white" stroke-width="1.5" d="M0,-3.0v7 M-2.5,-0.5L0,-3.0L2.5,-0.5"/>
                </g>
                <g id="arrowRight" xlink:href="#dirArrow" transform="rotate(90) translate(36 -43)" onmousedown="handlePan(1,0)">
                  <use xlink:href="#rim" fill="#404040">
                        <set attributeName="fill" to="#808080" begin="arrowRight.mouseover" end="arrowRight.mouseout"/>
                  </use>
                  <path fill="none" stroke="white" stroke-width="1.5" d="M0,-3.0v7 M-2.5,-0.5L0,-3.0L2.5,-0.5"/>
                </g>
                <g id="arrowDown" xlink:href="#dirArrow" transform="rotate(180) translate(-30 -48)" onmousedown="handlePan(0,1)">
                  <use xlink:href="#rim" fill="#404040">
                        <set attributeName="fill" to="#808080" begin="arrowDown.mouseover" end="arrowDown.mouseout"/>
                  </use>
                  <path fill="none" stroke="white" stroke-width="1.5" d="M0,-3.0v7 M-2.5,-0.5L0,-3.0L2.5,-0.5"/>
                </g>
                <g id="arrowLeft" xlink:href="#dirArrow" transform="rotate(270) translate(-36 17)" onmousedown="handlePan(-1,0)">
                  <use xlink:href="#rim" fill="#404040">
                        <set attributeName="fill" to="#808080" begin="arrowLeft.mouseover" end="arrowLeft.mouseout"/>
                  </use>
                  <path fill="none" stroke="white" stroke-width="1.5" d="M0,-3.0v7 M-2.5,-0.5L0,-3.0L2.5,-0.5"/>
                </g>
        </g>
        <svg viewBox="0 0 15 15" width="100%" height="30px" preserveAspectRatio="xMaxYMin meet">
         <g id="arrow_out" transform="scale(0.3 0.3)">
          <a xlink:href="classvertical__interpolation_a2625ecb49efcd1aaccf31125071f03e4_icgraph_org.svg" target="_base">
           <rect id="button" ry="5" rx="5" y="6" x="6" height="38" width="38"
                fill="#f2f5e9" fill-opacity="0.5" stroke="#606060" stroke-width="1.0"/>
           <path id="arrow"
             d="M 11.500037,31.436501 C 11.940474,20.09759 22.043105,11.32322 32.158766,21.979434 L 37.068811,17.246167 C 37.068811,17.246167 37.088388,32 37.088388,32 L 22.160133,31.978069 C 22.160133,31.978069 26.997745,27.140456 26.997745,27.140456 C 18.528582,18.264221 13.291696,25.230495 11.500037,31.436501 z"
             style="fill:#404040;"/>
          </a>
         </g>
        </svg>
</svg>
