<?xml version="1.0" encoding="UTF-8" standalone="no"?>
<!DOCTYPE svg PUBLIC "-//W3C//DTD SVG 1.1//EN"
 "http://www.w3.org/Graphics/SVG/1.1/DTD/svg11.dtd">
<!-- Generated by graphviz version 2.32.0 (20130809.1645)
 -->
<!-- Title: module_sf_noahlsm::nopac Pages: 1 -->
<svg width="732pt" height="366pt"
 viewBox="0.00 0.00 732.00 366.00" xmlns="http://www.w3.org/2000/svg" xmlns:xlink="http://www.w3.org/1999/xlink">
<g id="graph0" class="graph" transform="scale(1 1) rotate(0) translate(4 362)">
<title>module_sf_noahlsm::nopac</title>
<polygon fill="white" stroke="white" points="-4,5 -4,-362 729,-362 729,5 -4,5"/>
<!-- Node1 -->
<g id="node1" class="node"><title>Node1</title>
<polygon fill="#bfbfbf" stroke="black" points="0,-130 0,-160 110,-160 110,-130 0,-130"/>
<text text-anchor="start" x="8" y="-148" font-family="Helvetica,sans-Serif" font-size="10.00">module_sf_noahlsm::</text>
<text text-anchor="middle" x="55" y="-137" font-family="Helvetica,sans-Serif" font-size="10.00">nopac</text>
</g>
<!-- Node2 -->
<g id="node2" class="node"><title>Node2</title>
<g id="a_node2"><a xlink:href="classmodule__sf__noahlsm.html#a8def37e83c3ce04050b98a11d265caeb" target="_top" xlink:title="module_sf_noahlsm::\levapo">
<polygon fill="white" stroke="black" points="146,-279 146,-309 256,-309 256,-279 146,-279"/>
<text text-anchor="start" x="154" y="-297" font-family="Helvetica,sans-Serif" font-size="10.00">module_sf_noahlsm::</text>
<text text-anchor="middle" x="201" y="-286" font-family="Helvetica,sans-Serif" font-size="10.00">evapo</text>
</a>
</g>
</g>
<!-- Node1&#45;&gt;Node2 -->
<g id="edge1" class="edge"><title>Node1&#45;&gt;Node2</title>
<path fill="none" stroke="midnightblue" d="M70.5999,-160.107C96.0435,-186.434 148.625,-240.841 178.332,-271.58"/>
<polygon fill="midnightblue" stroke="midnightblue" points="175.895,-274.095 185.361,-278.853 180.929,-269.23 175.895,-274.095"/>
</g>
<!-- Node5 -->
<g id="node5" class="node"><title>Node5</title>
<g id="a_node5"><a xlink:href="classmodule__sf__noahlsm.html#a0d0b4c4b1c11cc7ff836dfdd13fb1b20" target="_top" xlink:title="module_sf_noahlsm::\lsmflx">
<polygon fill="white" stroke="black" points="146,-167 146,-197 256,-197 256,-167 146,-167"/>
<text text-anchor="start" x="154" y="-185" font-family="Helvetica,sans-Serif" font-size="10.00">module_sf_noahlsm::</text>
<text text-anchor="middle" x="201" y="-174" font-family="Helvetica,sans-Serif" font-size="10.00">smflx</text>
</a>
</g>
</g>
<!-- Node1&#45;&gt;Node5 -->
<g id="edge4" class="edge"><title>Node1&#45;&gt;Node5</title>
<path fill="none" stroke="midnightblue" d="M110.03,-158.883C118.496,-161.058 127.315,-163.324 135.979,-165.55"/>
<polygon fill="midnightblue" stroke="midnightblue" points="135.111,-168.941 145.667,-168.039 136.853,-162.161 135.111,-168.941"/>
</g>
<!-- Node11 -->
<g id="node11" class="node"><title>Node11</title>
<g id="a_node11"><a xlink:href="classmodule__sf__noahlsm.html#aac4dfa006a09d48e949536f4dc217bbf" target="_top" xlink:title="module_sf_noahlsm::\ltdfcnd">
<polygon fill="white" stroke="black" points="459,-0 459,-30 569,-30 569,-0 459,-0"/>
<text text-anchor="start" x="467" y="-18" font-family="Helvetica,sans-Serif" font-size="10.00">module_sf_noahlsm::</text>
<text text-anchor="middle" x="514" y="-7" font-family="Helvetica,sans-Serif" font-size="10.00">tdfcnd</text>
</a>
</g>
</g>
<!-- Node1&#45;&gt;Node11 -->
<g id="edge10" class="edge"><title>Node1&#45;&gt;Node11</title>
<path fill="none" stroke="midnightblue" d="M73.8145,-129.913C91.1971,-115.901 118.91,-95.389 146,-83 245.339,-37.5702 372.982,-22.4851 448.581,-17.4801"/>
<polygon fill="midnightblue" stroke="midnightblue" points="449.132,-20.9528 458.895,-16.8387 448.697,-13.9663 449.132,-20.9528"/>
</g>
<!-- Node12 -->
<g id="node12" class="node"><title>Node12</title>
<g id="a_node12"><a xlink:href="classmodule__sf__noahlsm.html#ac5c49267c44f18dfd5359b29fdfed38e" target="_top" xlink:title="module_sf_noahlsm::\lshflx">
<polygon fill="white" stroke="black" points="146,-93 146,-123 256,-123 256,-93 146,-93"/>
<text text-anchor="start" x="154" y="-111" font-family="Helvetica,sans-Serif" font-size="10.00">module_sf_noahlsm::</text>
<text text-anchor="middle" x="201" y="-100" font-family="Helvetica,sans-Serif" font-size="10.00">shflx</text>
</a>
</g>
</g>
<!-- Node1&#45;&gt;Node12 -->
<g id="edge11" class="edge"><title>Node1&#45;&gt;Node12</title>
<path fill="none" stroke="midnightblue" d="M110.03,-131.117C118.496,-128.942 127.315,-126.676 135.979,-124.45"/>
<polygon fill="midnightblue" stroke="midnightblue" points="136.853,-127.839 145.667,-121.961 135.111,-121.059 136.853,-127.839"/>
</g>
<!-- Node3 -->
<g id="node3" class="node"><title>Node3</title>
<g id="a_node3"><a xlink:href="classmodule__sf__noahlsm.html#a1f4bae7bb5581ef61d8c22e58df4c88f" target="_top" xlink:title="module_sf_noahlsm::\ldevap">
<polygon fill="white" stroke="black" points="298,-328 298,-358 408,-358 408,-328 298,-328"/>
<text text-anchor="start" x="306" y="-346" font-family="Helvetica,sans-Serif" font-size="10.00">module_sf_noahlsm::</text>
<text text-anchor="middle" x="353" y="-335" font-family="Helvetica,sans-Serif" font-size="10.00">devap</text>
</a>
</g>
</g>
<!-- Node2&#45;&gt;Node3 -->
<g id="edge2" class="edge"><title>Node2&#45;&gt;Node3</title>
<path fill="none" stroke="midnightblue" d="M248.229,-309.101C263.413,-314.062 280.451,-319.627 296.264,-324.793"/>
<polygon fill="midnightblue" stroke="midnightblue" points="295.331,-328.17 305.924,-327.948 297.505,-321.516 295.331,-328.17"/>
</g>
<!-- Node4 -->
<g id="node4" class="node"><title>Node4</title>
<g id="a_node4"><a xlink:href="classmodule__sf__noahlsm.html#aa418d6be3fc3de942821faf6fb68e3f8" target="_top" xlink:title="module_sf_noahlsm::\ltransp">
<polygon fill="white" stroke="black" points="298,-279 298,-309 408,-309 408,-279 298,-279"/>
<text text-anchor="start" x="306" y="-297" font-family="Helvetica,sans-Serif" font-size="10.00">module_sf_noahlsm::</text>
<text text-anchor="middle" x="353" y="-286" font-family="Helvetica,sans-Serif" font-size="10.00">transp</text>
</a>
</g>
</g>
<!-- Node2&#45;&gt;Node4 -->
<g id="edge3" class="edge"><title>Node2&#45;&gt;Node4</title>
<path fill="none" stroke="midnightblue" d="M256.153,-294C266.456,-294 277.328,-294 287.904,-294"/>
<polygon fill="midnightblue" stroke="midnightblue" points="287.926,-297.5 297.926,-294 287.926,-290.5 287.926,-297.5"/>
</g>
<!-- Node6 -->
<g id="node6" class="node"><title>Node6</title>
<g id="a_node6"><a xlink:href="classmodule__sf__noahlsm.html#ad15804ed9573673deb4f95b3f160eeb2" target="_top" xlink:title="module_sf_noahlsm::\lfac2mit">
<polygon fill="white" stroke="black" points="298,-142 298,-172 408,-172 408,-142 298,-142"/>
<text text-anchor="start" x="306" y="-160" font-family="Helvetica,sans-Serif" font-size="10.00">module_sf_noahlsm::</text>
<text text-anchor="middle" x="353" y="-149" font-family="Helvetica,sans-Serif" font-size="10.00">fac2mit</text>
</a>
</g>
</g>
<!-- Node5&#45;&gt;Node6 -->
<g id="edge5" class="edge"><title>Node5&#45;&gt;Node6</title>
<path fill="none" stroke="midnightblue" d="M256.153,-172.974C266.456,-171.257 277.328,-169.445 287.904,-167.683"/>
<polygon fill="midnightblue" stroke="midnightblue" points="288.638,-171.109 297.926,-166.012 287.487,-164.204 288.638,-171.109"/>
</g>
<!-- Node7 -->
<g id="node7" class="node"><title>Node7</title>
<g id="a_node7"><a xlink:href="classmodule__sf__noahlsm.html#a2e71343dc4bdf7438e0abf6d850d0c79" target="_top" xlink:title="module_sf_noahlsm::srt">
<polygon fill="white" stroke="black" points="292.5,-240.5 292.5,-259.5 413.5,-259.5 413.5,-240.5 292.5,-240.5"/>
<text text-anchor="middle" x="353" y="-247.5" font-family="Helvetica,sans-Serif" font-size="10.00">module_sf_noahlsm::srt</text>
</a>
</g>
</g>
<!-- Node5&#45;&gt;Node7 -->
<g id="edge6" class="edge"><title>Node5&#45;&gt;Node7</title>
<path fill="none" stroke="midnightblue" d="M227.426,-197.044C245.149,-207.157 269.548,-220.352 292,-230 297.892,-232.532 304.219,-234.95 310.475,-237.173"/>
<polygon fill="midnightblue" stroke="midnightblue" points="309.581,-240.567 320.176,-240.497 311.85,-233.945 309.581,-240.567"/>
</g>
<!-- Node9 -->
<g id="node9" class="node"><title>Node9</title>
<g id="a_node9"><a xlink:href="classmodule__sf__noahlsm.html#ada19fa401e97fc92326932b406bbc2c3" target="_top" xlink:title="module_sf_noahlsm::\lsstep">
<polygon fill="white" stroke="black" points="298,-191 298,-221 408,-221 408,-191 298,-191"/>
<text text-anchor="start" x="306" y="-209" font-family="Helvetica,sans-Serif" font-size="10.00">module_sf_noahlsm::</text>
<text text-anchor="middle" x="353" y="-198" font-family="Helvetica,sans-Serif" font-size="10.00">sstep</text>
</a>
</g>
</g>
<!-- Node5&#45;&gt;Node9 -->
<g id="edge8" class="edge"><title>Node5&#45;&gt;Node9</title>
<path fill="none" stroke="midnightblue" d="M256.153,-190.665C266.456,-192.313 277.328,-194.052 287.904,-195.745"/>
<polygon fill="midnightblue" stroke="midnightblue" points="287.499,-199.224 297.926,-197.348 288.605,-192.312 287.499,-199.224"/>
</g>
<!-- Node8 -->
<g id="node8" class="node"><title>Node8</title>
<g id="a_node8"><a xlink:href="classmodule__sf__noahlsm.html#a3b4a7f68699fbc22922e958770009b57" target="_top" xlink:title="module_sf_noahlsm::\lwdfcnd">
<polygon fill="white" stroke="black" points="459,-235 459,-265 569,-265 569,-235 459,-235"/>
<text text-anchor="start" x="467" y="-253" font-family="Helvetica,sans-Serif" font-size="10.00">module_sf_noahlsm::</text>
<text text-anchor="middle" x="514" y="-242" font-family="Helvetica,sans-Serif" font-size="10.00">wdfcnd</text>
</a>
</g>
</g>
<!-- Node7&#45;&gt;Node8 -->
<g id="edge7" class="edge"><title>Node7&#45;&gt;Node8</title>
<path fill="none" stroke="midnightblue" d="M413.658,-250C425.108,-250 437.145,-250 448.733,-250"/>
<polygon fill="midnightblue" stroke="midnightblue" points="448.775,-253.5 458.775,-250 448.774,-246.5 448.775,-253.5"/>
</g>
<!-- Node10 -->
<g id="node10" class="node"><title>Node10</title>
<g id="a_node10"><a xlink:href="classmodule__sf__noahlsm.html#ac6e3e7bb3f0322070546653306177216" target="_top" xlink:title="module_sf_noahlsm::\lrosr12">
<polygon fill="white" stroke="black" points="459,-186 459,-216 569,-216 569,-186 459,-186"/>
<text text-anchor="start" x="467" y="-204" font-family="Helvetica,sans-Serif" font-size="10.00">module_sf_noahlsm::</text>
<text text-anchor="middle" x="514" y="-193" font-family="Helvetica,sans-Serif" font-size="10.00">rosr12</text>
</a>
</g>
</g>
<!-- Node9&#45;&gt;Node10 -->
<g id="edge9" class="edge"><title>Node9&#45;&gt;Node10</title>
<path fill="none" stroke="midnightblue" d="M408.274,-204.293C421.322,-203.883 435.38,-203.441 448.831,-203.018"/>
<polygon fill="midnightblue" stroke="midnightblue" points="449.086,-206.512 458.971,-202.699 448.865,-199.515 449.086,-206.512"/>
</g>
<!-- Node13 -->
<g id="node13" class="node"><title>Node13</title>
<g id="a_node13"><a xlink:href="classmodule__sf__noahlsm.html#a3d4ab86e98738d55bb24f5f2256bc036" target="_top" xlink:title="module_sf_noahlsm::hrt">
<polygon fill="white" stroke="black" points="292.5,-54.5 292.5,-73.5 413.5,-73.5 413.5,-54.5 292.5,-54.5"/>
<text text-anchor="middle" x="353" y="-61.5" font-family="Helvetica,sans-Serif" font-size="10.00">module_sf_noahlsm::hrt</text>
</a>
</g>
</g>
<!-- Node12&#45;&gt;Node13 -->
<g id="edge12" class="edge"><title>Node12&#45;&gt;Node13</title>
<path fill="none" stroke="midnightblue" d="M253.202,-92.9808C271.506,-87.6115 291.92,-81.6234 309.419,-76.4905"/>
<polygon fill="midnightblue" stroke="midnightblue" points="310.736,-79.7516 319.347,-73.5783 308.766,-73.0346 310.736,-79.7516"/>
</g>
<!-- Node18 -->
<g id="node18" class="node"><title>Node18</title>
<g id="a_node18"><a xlink:href="classmodule__sf__noahlsm.html#adacf01be4e33445ea186feffce24eb35" target="_top" xlink:title="module_sf_noahlsm::\lhstep">
<polygon fill="white" stroke="black" points="298,-93 298,-123 408,-123 408,-93 298,-93"/>
<text text-anchor="start" x="306" y="-111" font-family="Helvetica,sans-Serif" font-size="10.00">module_sf_noahlsm::</text>
<text text-anchor="middle" x="353" y="-100" font-family="Helvetica,sans-Serif" font-size="10.00">hstep</text>
</a>
</g>
</g>
<!-- Node12&#45;&gt;Node18 -->
<g id="edge18" class="edge"><title>Node12&#45;&gt;Node18</title>
<path fill="none" stroke="midnightblue" d="M256.153,-108C266.456,-108 277.328,-108 287.904,-108"/>
<polygon fill="midnightblue" stroke="midnightblue" points="287.926,-111.5 297.926,-108 287.926,-104.5 287.926,-111.5"/>
</g>
<!-- Node13&#45;&gt;Node11 -->
<g id="edge17" class="edge"><title>Node13&#45;&gt;Node11</title>
<path fill="none" stroke="midnightblue" d="M385.034,-54.436C404.813,-48.3408 431.063,-40.2512 454.638,-32.9857"/>
<polygon fill="midnightblue" stroke="midnightblue" points="455.681,-36.3269 464.207,-30.037 453.619,-29.6373 455.681,-36.3269"/>
</g>
<!-- Node14 -->
<g id="node14" class="node"><title>Node14</title>
<g id="a_node14"><a xlink:href="classmodule__sf__noahlsm.html#a578d0dc05848d5bc7fb823e379da5cdd" target="_top" xlink:title="module_sf_noahlsm::tbnd">
<polygon fill="white" stroke="black" points="450,-147.5 450,-166.5 578,-166.5 578,-147.5 450,-147.5"/>
<text text-anchor="middle" x="514" y="-154.5" font-family="Helvetica,sans-Serif" font-size="10.00">module_sf_noahlsm::tbnd</text>
</a>
</g>
</g>
<!-- Node13&#45;&gt;Node14 -->
<g id="edge13" class="edge"><title>Node13&#45;&gt;Node14</title>
<path fill="none" stroke="midnightblue" d="M396.755,-73.5547C402.883,-76.028 408.847,-79.1257 414,-83 437.054,-100.335 426.952,-119.657 450,-137 453.159,-139.377 456.609,-141.477 460.214,-143.33"/>
<polygon fill="midnightblue" stroke="midnightblue" points="458.861,-146.559 469.418,-147.45 461.72,-140.17 458.861,-146.559"/>
</g>
<!-- Node15 -->
<g id="node15" class="node"><title>Node15</title>
<g id="a_node15"><a xlink:href="classmodule__sf__noahlsm.html#ab786b4f52dbea2106470993f2ea20e69" target="_top" xlink:title="module_sf_noahlsm::\ltmpavg">
<polygon fill="white" stroke="black" points="459,-98 459,-128 569,-128 569,-98 459,-98"/>
<text text-anchor="start" x="467" y="-116" font-family="Helvetica,sans-Serif" font-size="10.00">module_sf_noahlsm::</text>
<text text-anchor="middle" x="514" y="-105" font-family="Helvetica,sans-Serif" font-size="10.00">tmpavg</text>
</a>
</g>
</g>
<!-- Node13&#45;&gt;Node15 -->
<g id="edge14" class="edge"><title>Node13&#45;&gt;Node15</title>
<path fill="none" stroke="midnightblue" d="M385.034,-73.564C404.813,-79.6592 431.063,-87.7488 454.638,-95.0143"/>
<polygon fill="midnightblue" stroke="midnightblue" points="453.619,-98.3627 464.207,-97.963 455.681,-91.6731 453.619,-98.3627"/>
</g>
<!-- Node16 -->
<g id="node16" class="node"><title>Node16</title>
<g id="a_node16"><a xlink:href="classmodule__sf__noahlsm.html#a5d089c57c48085d25b95857c682922da" target="_top" xlink:title="module_sf_noahlsm::\lsnksrc">
<polygon fill="white" stroke="black" points="459,-49 459,-79 569,-79 569,-49 459,-49"/>
<text text-anchor="start" x="467" y="-67" font-family="Helvetica,sans-Serif" font-size="10.00">module_sf_noahlsm::</text>
<text text-anchor="middle" x="514" y="-56" font-family="Helvetica,sans-Serif" font-size="10.00">snksrc</text>
</a>
</g>
</g>
<!-- Node13&#45;&gt;Node16 -->
<g id="edge15" class="edge"><title>Node13&#45;&gt;Node16</title>
<path fill="none" stroke="midnightblue" d="M413.658,-64C425.108,-64 437.145,-64 448.733,-64"/>
<polygon fill="midnightblue" stroke="midnightblue" points="448.775,-67.5001 458.775,-64 448.774,-60.5001 448.775,-67.5001"/>
</g>
<!-- Node17 -->
<g id="node17" class="node"><title>Node17</title>
<g id="a_node17"><a xlink:href="classmodule__sf__noahlsm.html#a5beb42f74e1a357ccfc0e904f356b33a" target="_top" xlink:title="module_sf_noahlsm::\lfrh2o">
<polygon fill="white" stroke="black" points="614,-49 614,-79 724,-79 724,-49 614,-49"/>
<text text-anchor="start" x="622" y="-67" font-family="Helvetica,sans-Serif" font-size="10.00">module_sf_noahlsm::</text>
<text text-anchor="middle" x="669" y="-56" font-family="Helvetica,sans-Serif" font-size="10.00">frh2o</text>
</a>
</g>
</g>
<!-- Node16&#45;&gt;Node17 -->
<g id="edge16" class="edge"><title>Node16&#45;&gt;Node17</title>
<path fill="none" stroke="midnightblue" d="M569.373,-64C580.421,-64 592.142,-64 603.502,-64"/>
<polygon fill="midnightblue" stroke="midnightblue" points="603.802,-67.5001 613.802,-64 603.802,-60.5001 603.802,-67.5001"/>
</g>
<!-- Node18&#45;&gt;Node10 -->
<g id="edge19" class="edge"><title>Node18&#45;&gt;Node10</title>
<path fill="none" stroke="midnightblue" d="M398.929,-123.012C404.229,-125.628 409.386,-128.616 414,-132 434.375,-146.943 429.605,-161.085 450,-176 452.484,-177.817 455.119,-179.523 457.847,-181.123"/>
<polygon fill="midnightblue" stroke="midnightblue" points="456.333,-184.282 466.807,-185.874 459.612,-178.097 456.333,-184.282"/>
</g>
</g>
</svg>
