<?xml version="1.0" encoding="UTF-8" standalone="no"?>
<!DOCTYPE svg PUBLIC "-//W3C//DTD SVG 1.1//EN"
 "http://www.w3.org/Graphics/SVG/1.1/DTD/svg11.dtd">
<!-- Generated by graphviz version 2.38.0 (20140413.2041)
 -->
<!-- Title: init::copy_z Pages: 1 -->
<svg width="480pt" height="66pt"
 viewBox="0.00 0.00 480.00 66.00" xmlns="http://www.w3.org/2000/svg" xmlns:xlink="http://www.w3.org/1999/xlink">
<g id="graph0" class="graph" transform="scale(1 1) rotate(0) translate(4 62)">
<title>init::copy_z</title>
<polygon fill="white" stroke="none" points="-4,4 -4,-62 476,-62 476,4 -4,4"/>
<!-- Node1 -->
<g id="node1" class="node"><title>Node1</title>
<polygon fill="#bfbfbf" stroke="black" points="0,-19.5 0,-38.5 67,-38.5 67,-19.5 0,-19.5"/>
<text text-anchor="middle" x="33.5" y="-26.5" font-family="Helvetica,sans-Serif" font-size="10.00">init::copy_z</text>
</g>
<!-- Node2 -->
<g id="node2" class="node"><title>Node2</title>
<g id="a_node2"><a xlink:href="classinit.html#a2c0d47bd2656d1121f0522d0f77a0e07" target="_top" xlink:title="init::init_domain">
<polygon fill="white" stroke="black" points="103,-38.5 103,-57.5 188,-57.5 188,-38.5 103,-38.5"/>
<text text-anchor="middle" x="145.5" y="-45.5" font-family="Helvetica,sans-Serif" font-size="10.00">init::init_domain</text>
</a>
</g>
</g>
<!-- Node1&#45;&gt;Node2 -->
<g id="edge1" class="edge"><title>Node1&#45;&gt;Node2</title>
<path fill="none" stroke="midnightblue" d="M77.1839,-36.3727C85.5742,-37.8219 94.3675,-39.3408 102.727,-40.7847"/>
<polygon fill="midnightblue" stroke="midnightblue" points="77.6556,-32.9024 67.2058,-34.6492 76.4641,-39.8003 77.6556,-32.9024"/>
</g>
<!-- Node5 -->
<g id="node5" class="node"><title>Node5</title>
<g id="a_node5"><a xlink:href="classinit.html#a1c6cab46bb16bea719da3b193c43ccb3" target="_top" xlink:title="init::init_bc">
<polygon fill="white" stroke="black" points="224,-0.5 224,-19.5 288,-19.5 288,-0.5 224,-0.5"/>
<text text-anchor="middle" x="256" y="-7.5" font-family="Helvetica,sans-Serif" font-size="10.00">init::init_bc</text>
</a>
</g>
</g>
<!-- Node1&#45;&gt;Node5 -->
<g id="edge6" class="edge"><title>Node1&#45;&gt;Node5</title>
<path fill="none" stroke="midnightblue" d="M77.1813,-25.3222C120.147,-21.62 185.396,-15.9976 223.759,-12.692"/>
<polygon fill="midnightblue" stroke="midnightblue" points="76.6981,-21.8508 67.0355,-26.1965 77.2991,-28.825 76.6981,-21.8508"/>
</g>
<!-- Node3 -->
<g id="node3" class="node"><title>Node3</title>
<g id="a_node3"><a xlink:href="classinit.html#a1dd1e2b38eef39cba464f65c9ce82568" target="_top" xlink:title="init::init_model">
<polygon fill="white" stroke="black" points="324,-19.5 324,-38.5 404,-38.5 404,-19.5 324,-19.5"/>
<text text-anchor="middle" x="364" y="-26.5" font-family="Helvetica,sans-Serif" font-size="10.00">init::init_model</text>
</a>
</g>
</g>
<!-- Node2&#45;&gt;Node3 -->
<g id="edge2" class="edge"><title>Node2&#45;&gt;Node3</title>
<path fill="none" stroke="midnightblue" d="M198.252,-43.4583C236.854,-40.0705 288.775,-35.514 323.935,-32.4284"/>
<polygon fill="midnightblue" stroke="midnightblue" points="197.899,-39.9757 188.243,-44.3366 198.511,-46.9489 197.899,-39.9757"/>
</g>
<!-- Node2&#45;&gt;Node5 -->
<g id="edge4" class="edge"><title>Node2&#45;&gt;Node5</title>
<path fill="none" stroke="midnightblue" d="M183.538,-35.0282C197.993,-29.9656 214.267,-24.2659 227.63,-19.5859"/>
<polygon fill="midnightblue" stroke="midnightblue" points="182.16,-31.8022 173.879,-38.411 184.474,-38.4088 182.16,-31.8022"/>
</g>
<!-- Node4 -->
<g id="node4" class="node"><title>Node4</title>
<g id="a_node4"><a xlink:href="driver_8f90.html#ab1e5a5816a57fc6e95d9563c2bb53590" target="_top" xlink:title=" Main Program ">
<polygon fill="white" stroke="black" points="440,-19.5 440,-38.5 472,-38.5 472,-19.5 440,-19.5"/>
<text text-anchor="middle" x="456" y="-26.5" font-family="Helvetica,sans-Serif" font-size="10.00">icar</text>
</a>
</g>
</g>
<!-- Node3&#45;&gt;Node4 -->
<g id="edge3" class="edge"><title>Node3&#45;&gt;Node4</title>
<path fill="none" stroke="midnightblue" d="M414.233,-29C423.449,-29 432.425,-29 439.599,-29"/>
<polygon fill="midnightblue" stroke="midnightblue" points="414.214,-25.5001 404.213,-29 414.213,-32.5001 414.214,-25.5001"/>
</g>
<!-- Node5&#45;&gt;Node3 -->
<g id="edge5" class="edge"><title>Node5&#45;&gt;Node3</title>
<path fill="none" stroke="midnightblue" d="M298.196,-17.3841C306.584,-18.8877 315.388,-20.4658 323.708,-21.9572"/>
<polygon fill="midnightblue" stroke="midnightblue" points="298.691,-13.9172 288.23,-15.5979 297.456,-20.8074 298.691,-13.9172"/>
</g>
</g>
</svg>
