<?xml version="1.0" encoding="UTF-8" standalone="no"?>
<!DOCTYPE svg PUBLIC "-//W3C//DTD SVG 1.1//EN"
 "http://www.w3.org/Graphics/SVG/1.1/DTD/svg11.dtd">
<!-- Generated by graphviz version 2.38.0 (20140413.2041)
 -->
<!-- Title: module_lsm_basic::lsm_basic Pages: 1 -->
<svg width="295pt" height="88pt"
 viewBox="0.00 0.00 295.00 88.00" xmlns="http://www.w3.org/2000/svg" xmlns:xlink="http://www.w3.org/1999/xlink">
<g id="graph0" class="graph" transform="scale(1 1) rotate(0) translate(4 84)">
<title>module_lsm_basic::lsm_basic</title>
<polygon fill="white" stroke="none" points="-4,4 -4,-84 291,-84 291,4 -4,4"/>
<!-- Node1 -->
<g id="node1" class="node"><title>Node1</title>
<polygon fill="#bfbfbf" stroke="black" points="0,-24.5 0,-54.5 119,-54.5 119,-24.5 0,-24.5"/>
<text text-anchor="start" x="8" y="-42.5" font-family="Helvetica,sans-Serif" font-size="10.00">module_lsm_basic::lsm</text>
<text text-anchor="middle" x="59.5" y="-31.5" font-family="Helvetica,sans-Serif" font-size="10.00">_basic</text>
</g>
<!-- Node2 -->
<g id="node2" class="node"><title>Node2</title>
<g id="a_node2"><a xlink:href="classmodule__lsm__basic.html#a2d87c61425426021c5ee5492c753145d" target="_top" xlink:title="module_lsm_basic::calc\l_pbl_index">
<polygon fill="white" stroke="black" points="160,-49.5 160,-79.5 282,-79.5 282,-49.5 160,-49.5"/>
<text text-anchor="start" x="168" y="-67.5" font-family="Helvetica,sans-Serif" font-size="10.00">module_lsm_basic::calc</text>
<text text-anchor="middle" x="221" y="-56.5" font-family="Helvetica,sans-Serif" font-size="10.00">_pbl_index</text>
</a>
</g>
</g>
<!-- Node1&#45;&gt;Node2 -->
<g id="edge1" class="edge"><title>Node1&#45;&gt;Node2</title>
<path fill="none" stroke="midnightblue" d="M119.439,-48.738C129.356,-50.2924 139.734,-51.9191 149.9,-53.5126"/>
<polygon fill="midnightblue" stroke="midnightblue" points="149.549,-57.0002 159.971,-55.091 150.633,-50.0847 149.549,-57.0002"/>
</g>
<!-- Node3 -->
<g id="node3" class="node"><title>Node3</title>
<g id="a_node3"><a xlink:href="classmodule__lsm__basic.html#a428eb1223e5c289e6534c5b7e7fc1c00" target="_top" xlink:title="module_lsm_basic::simple\l_land_surface_fluxes">
<polygon fill="white" stroke="black" points="155,-0.5 155,-30.5 287,-30.5 287,-0.5 155,-0.5"/>
<text text-anchor="start" x="163" y="-18.5" font-family="Helvetica,sans-Serif" font-size="10.00">module_lsm_basic::simple</text>
<text text-anchor="middle" x="221" y="-7.5" font-family="Helvetica,sans-Serif" font-size="10.00">_land_surface_fluxes</text>
</a>
</g>
</g>
<!-- Node1&#45;&gt;Node3 -->
<g id="edge2" class="edge"><title>Node1&#45;&gt;Node3</title>
<path fill="none" stroke="midnightblue" d="M119.439,-30.6315C127.731,-29.3838 136.345,-28.0876 144.888,-26.8021"/>
<polygon fill="midnightblue" stroke="midnightblue" points="145.493,-30.2505 154.861,-25.3015 144.452,-23.3285 145.493,-30.2505"/>
</g>
</g>
</svg>
