<?xml version="1.0" encoding="UTF-8" standalone="no"?>
<!DOCTYPE svg PUBLIC "-//W3C//DTD SVG 1.1//EN"
 "http://www.w3.org/Graphics/SVG/1.1/DTD/svg11.dtd">
<!-- Generated by graphviz version 2.38.0 (20140413.2041)
 -->
<!-- Title: module_sf_noahlsm::tbnd Pages: 1 -->
<svg width="1207pt" height="88pt"
 viewBox="0.00 0.00 1207.00 88.00" xmlns="http://www.w3.org/2000/svg" xmlns:xlink="http://www.w3.org/1999/xlink">
<g id="graph0" class="graph" transform="scale(1 1) rotate(0) translate(4 84)">
<title>module_sf_noahlsm::tbnd</title>
<polygon fill="white" stroke="none" points="-4,4 -4,-84 1203,-84 1203,4 -4,4"/>
<!-- Node1 -->
<g id="node1" class="node"><title>Node1</title>
<polygon fill="#bfbfbf" stroke="black" points="0,-30 0,-49 128,-49 128,-30 0,-30"/>
<text text-anchor="middle" x="64" y="-37" font-family="Helvetica,sans-Serif" font-size="10.00">module_sf_noahlsm::tbnd</text>
</g>
<!-- Node2 -->
<g id="node2" class="node"><title>Node2</title>
<g id="a_node2"><a xlink:href="classmodule__sf__noahlsm.html#a3d4ab86e98738d55bb24f5f2256bc036" target="_top" xlink:title="module_sf_noahlsm::hrt">
<polygon fill="white" stroke="black" points="164,-30 164,-49 285,-49 285,-30 164,-30"/>
<text text-anchor="middle" x="224.5" y="-37" font-family="Helvetica,sans-Serif" font-size="10.00">module_sf_noahlsm::hrt</text>
</a>
</g>
</g>
<!-- Node1&#45;&gt;Node2 -->
<g id="edge1" class="edge"><title>Node1&#45;&gt;Node2</title>
<path fill="none" stroke="midnightblue" d="M138.172,-39.5C146.812,-39.5 155.549,-39.5 163.969,-39.5"/>
<polygon fill="midnightblue" stroke="midnightblue" points="138.099,-36.0001 128.099,-39.5 138.099,-43.0001 138.099,-36.0001"/>
</g>
<!-- Node3 -->
<g id="node3" class="node"><title>Node3</title>
<g id="a_node3"><a xlink:href="classmodule__sf__noahlsm.html#ac5c49267c44f18dfd5359b29fdfed38e" target="_top" xlink:title="module_sf_noahlsm::\lshflx">
<polygon fill="white" stroke="black" points="321,-24.5 321,-54.5 431,-54.5 431,-24.5 321,-24.5"/>
<text text-anchor="start" x="329" y="-42.5" font-family="Helvetica,sans-Serif" font-size="10.00">module_sf_noahlsm::</text>
<text text-anchor="middle" x="376" y="-31.5" font-family="Helvetica,sans-Serif" font-size="10.00">shflx</text>
</a>
</g>
</g>
<!-- Node2&#45;&gt;Node3 -->
<g id="edge2" class="edge"><title>Node2&#45;&gt;Node3</title>
<path fill="none" stroke="midnightblue" d="M295.286,-39.5C303.764,-39.5 312.328,-39.5 320.538,-39.5"/>
<polygon fill="midnightblue" stroke="midnightblue" points="295.016,-36.0001 285.016,-39.5 295.016,-43.0001 295.016,-36.0001"/>
</g>
<!-- Node4 -->
<g id="node4" class="node"><title>Node4</title>
<g id="a_node4"><a xlink:href="classmodule__sf__noahlsm.html#a6a17443ddbf15acdb25690cfbb3749a3" target="_top" xlink:title="module_sf_noahlsm::\lnopac">
<polygon fill="white" stroke="black" points="467,-49.5 467,-79.5 577,-79.5 577,-49.5 467,-49.5"/>
<text text-anchor="start" x="475" y="-67.5" font-family="Helvetica,sans-Serif" font-size="10.00">module_sf_noahlsm::</text>
<text text-anchor="middle" x="522" y="-56.5" font-family="Helvetica,sans-Serif" font-size="10.00">nopac</text>
</a>
</g>
</g>
<!-- Node3&#45;&gt;Node4 -->
<g id="edge3" class="edge"><title>Node3&#45;&gt;Node4</title>
<path fill="none" stroke="midnightblue" d="M440.991,-50.6095C449.561,-52.0974 458.284,-53.6119 466.667,-55.0672"/>
<polygon fill="midnightblue" stroke="midnightblue" points="441.481,-47.1424 431.03,-48.8802 440.284,-54.0392 441.481,-47.1424"/>
</g>
<!-- Node10 -->
<g id="node10" class="node"><title>Node10</title>
<g id="a_node10"><a xlink:href="classmodule__sf__noahlsm.html#a9d1e26133ed89bc5465a230d45d0625d" target="_top" xlink:title="module_sf_noahlsm::\lsnopac">
<polygon fill="white" stroke="black" points="467,-0.5 467,-30.5 577,-30.5 577,-0.5 467,-0.5"/>
<text text-anchor="start" x="475" y="-18.5" font-family="Helvetica,sans-Serif" font-size="10.00">module_sf_noahlsm::</text>
<text text-anchor="middle" x="522" y="-7.5" font-family="Helvetica,sans-Serif" font-size="10.00">snopac</text>
</a>
</g>
</g>
<!-- Node3&#45;&gt;Node10 -->
<g id="edge9" class="edge"><title>Node3&#45;&gt;Node10</title>
<path fill="none" stroke="midnightblue" d="M440.991,-28.8349C449.561,-27.4065 458.284,-25.9526 466.667,-24.5555"/>
<polygon fill="midnightblue" stroke="midnightblue" points="440.318,-25.3986 431.03,-30.495 441.469,-32.3033 440.318,-25.3986"/>
</g>
<!-- Node5 -->
<g id="node5" class="node"><title>Node5</title>
<g id="a_node5"><a xlink:href="classmodule__sf__noahlsm.html#a7cd9a2732205c21a5f59d679e0a1fddd" target="_top" xlink:title="module_sf_noahlsm::sflx">
<polygon fill="white" stroke="black" points="613,-30 613,-49 738,-49 738,-30 613,-30"/>
<text text-anchor="middle" x="675.5" y="-37" font-family="Helvetica,sans-Serif" font-size="10.00">module_sf_noahlsm::sflx</text>
</a>
</g>
</g>
<!-- Node4&#45;&gt;Node5 -->
<g id="edge4" class="edge"><title>Node4&#45;&gt;Node5</title>
<path fill="none" stroke="midnightblue" d="M587.333,-53.8839C597.11,-52.2706 607.147,-50.6144 616.771,-49.0262"/>
<polygon fill="midnightblue" stroke="midnightblue" points="586.564,-50.4635 577.267,-55.545 587.704,-57.3701 586.564,-50.4635"/>
</g>
<!-- Node6 -->
<g id="node6" class="node"><title>Node6</title>
<g id="a_node6"><a xlink:href="classmodule__sf__noahdrv.html#a329dccdd0c1fc2797bc8ebcc9bcc0ff6" target="_top" xlink:title="module_sf_noahdrv::\llsm_noah">
<polygon fill="white" stroke="black" points="774,-24.5 774,-54.5 881,-54.5 881,-24.5 774,-24.5"/>
<text text-anchor="start" x="782" y="-42.5" font-family="Helvetica,sans-Serif" font-size="10.00">module_sf_noahdrv::</text>
<text text-anchor="middle" x="827.5" y="-31.5" font-family="Helvetica,sans-Serif" font-size="10.00">lsm_noah</text>
</a>
</g>
</g>
<!-- Node5&#45;&gt;Node6 -->
<g id="edge5" class="edge"><title>Node5&#45;&gt;Node6</title>
<path fill="none" stroke="midnightblue" d="M748.397,-39.5C756.977,-39.5 765.611,-39.5 773.85,-39.5"/>
<polygon fill="midnightblue" stroke="midnightblue" points="748.377,-36.0001 738.377,-39.5 748.377,-43.0001 748.377,-36.0001"/>
</g>
<!-- Node7 -->
<g id="node7" class="node"><title>Node7</title>
<g id="a_node7"><a xlink:href="classland__surface.html#a5eda887fb43d0e56a673bbec669be5ad" target="_top" xlink:title="land_surface::lsm">
<polygon fill="white" stroke="black" points="917,-30 917,-49 1011,-49 1011,-30 917,-30"/>
<text text-anchor="middle" x="964" y="-37" font-family="Helvetica,sans-Serif" font-size="10.00">land_surface::lsm</text>
</a>
</g>
</g>
<!-- Node6&#45;&gt;Node7 -->
<g id="edge6" class="edge"><title>Node6&#45;&gt;Node7</title>
<path fill="none" stroke="midnightblue" d="M891.321,-39.5C899.948,-39.5 908.673,-39.5 916.924,-39.5"/>
<polygon fill="midnightblue" stroke="midnightblue" points="891.272,-36.0001 881.272,-39.5 891.272,-43.0001 891.272,-36.0001"/>
</g>
<!-- Node8 -->
<g id="node8" class="node"><title>Node8</title>
<g id="a_node8"><a xlink:href="classtime__step.html#a2c022f11247af72e607b1493289aa974" target="_top" xlink:title=" Step forward one IO time step. ">
<polygon fill="white" stroke="black" points="1047,-30 1047,-49 1131,-49 1131,-30 1047,-30"/>
<text text-anchor="middle" x="1089" y="-37" font-family="Helvetica,sans-Serif" font-size="10.00">time_step::step</text>
</a>
</g>
</g>
<!-- Node7&#45;&gt;Node8 -->
<g id="edge7" class="edge"><title>Node7&#45;&gt;Node8</title>
<path fill="none" stroke="midnightblue" d="M1021.19,-39.5C1029.83,-39.5 1038.62,-39.5 1046.85,-39.5"/>
<polygon fill="midnightblue" stroke="midnightblue" points="1021.15,-36.0001 1011.15,-39.5 1021.15,-43.0001 1021.15,-36.0001"/>
</g>
<!-- Node9 -->
<g id="node9" class="node"><title>Node9</title>
<g id="a_node9"><a xlink:href="driver_8f90.html#ab1e5a5816a57fc6e95d9563c2bb53590" target="_top" xlink:title=" Main Program ">
<polygon fill="white" stroke="black" points="1167,-30 1167,-49 1199,-49 1199,-30 1167,-30"/>
<text text-anchor="middle" x="1183" y="-37" font-family="Helvetica,sans-Serif" font-size="10.00">icar</text>
</a>
</g>
</g>
<!-- Node8&#45;&gt;Node9 -->
<g id="edge8" class="edge"><title>Node8&#45;&gt;Node9</title>
<path fill="none" stroke="midnightblue" d="M1141.25,-39.5C1150.52,-39.5 1159.5,-39.5 1166.66,-39.5"/>
<polygon fill="midnightblue" stroke="midnightblue" points="1141.16,-36.0001 1131.16,-39.5 1141.16,-43.0001 1141.16,-36.0001"/>
</g>
<!-- Node10&#45;&gt;Node5 -->
<g id="edge10" class="edge"><title>Node10&#45;&gt;Node5</title>
<path fill="none" stroke="midnightblue" d="M587.307,-25.6872C596.307,-27.113 605.528,-28.5737 614.445,-29.9863"/>
<polygon fill="midnightblue" stroke="midnightblue" points="587.692,-22.2046 577.267,-24.0968 586.596,-29.1184 587.692,-22.2046"/>
</g>
</g>
</svg>
