<?xml version="1.0" encoding="UTF-8" standalone="no"?>
<!DOCTYPE svg PUBLIC "-//W3C//DTD SVG 1.1//EN"
 "http://www.w3.org/Graphics/SVG/1.1/DTD/svg11.dtd">
<!-- Generated by graphviz version 2.32.0 (20130809.1645)
 -->
<!-- Title: initialize_options::get_options_file Pages: 1 -->
<svg width="580pt" height="210pt"
 viewBox="0.00 0.00 580.00 210.09" xmlns="http://www.w3.org/2000/svg" xmlns:xlink="http://www.w3.org/1999/xlink">
<g id="graph0" class="graph" transform="scale(1 1) rotate(0) translate(4 206.092)">
<title>initialize_options::get_options_file</title>
<polygon fill="white" stroke="white" points="-4,5 -4,-206.092 577,-206.092 577,5 -4,5"/>
<!-- Node1 -->
<g id="node1" class="node"><title>Node1</title>
<polygon fill="#bfbfbf" stroke="black" points="0.5,-98 0.5,-128 91.5,-128 91.5,-98 0.5,-98"/>
<text text-anchor="start" x="8.5" y="-116" font-family="Helvetica,sans-Serif" font-size="10.00">initialize_options</text>
<text text-anchor="middle" x="46" y="-105" font-family="Helvetica,sans-Serif" font-size="10.00">::get_options_file</text>
</g>
<!-- Node2 -->
<g id="node2" class="node"><title>Node2</title>
<g id="a_node2"><a xlink:href="classinitialize__options.html#a571709045f201082c9735408ef2f28e3" target="_top" xlink:title="initialize_options\l::init_options">
<polygon fill="white" stroke="black" points="298.5,-98 298.5,-128 387.5,-128 387.5,-98 298.5,-98"/>
<text text-anchor="start" x="306.5" y="-116" font-family="Helvetica,sans-Serif" font-size="10.00">initialize_options</text>
<text text-anchor="middle" x="343" y="-105" font-family="Helvetica,sans-Serif" font-size="10.00">::init_options</text>
</a>
</g>
</g>
<!-- Node1&#45;&gt;Node2 -->
<g id="edge1" class="edge"><title>Node1&#45;&gt;Node2</title>
<path fill="none" stroke="midnightblue" d="M64.694,-136.329C79.4524,-153.71 102.183,-176.083 128,-186 183.595,-207.356 206.471,-207.527 262,-186 291.802,-174.446 317.302,-146.046 331.071,-128.268"/>
<polygon fill="midnightblue" stroke="midnightblue" points="67.1488,-133.801 58.1107,-128.273 61.7285,-138.231 67.1488,-133.801"/>
</g>
<!-- Node5 -->
<g id="node5" class="node"><title>Node5</title>
<g id="a_node5"><a xlink:href="classinitialize__options.html#acc4c031c2e7521b9eb81f779a67acb3b" target="_top" xlink:title="initialize_options\l::mp_parameters_namelist">
<polygon fill="white" stroke="black" points="129,-147 129,-177 261,-177 261,-147 129,-147"/>
<text text-anchor="start" x="137" y="-165" font-family="Helvetica,sans-Serif" font-size="10.00">initialize_options</text>
<text text-anchor="middle" x="195" y="-154" font-family="Helvetica,sans-Serif" font-size="10.00">::mp_parameters_namelist</text>
</a>
</g>
</g>
<!-- Node1&#45;&gt;Node5 -->
<g id="edge4" class="edge"><title>Node1&#45;&gt;Node5</title>
<path fill="none" stroke="midnightblue" d="M101.093,-131.031C116.804,-136.268 133.789,-141.93 148.886,-146.962"/>
<polygon fill="midnightblue" stroke="midnightblue" points="102.097,-127.677 91.5038,-127.835 99.8838,-134.317 102.097,-127.677"/>
</g>
<!-- Node6 -->
<g id="node6" class="node"><title>Node6</title>
<g id="a_node6"><a xlink:href="classinitialize__options.html#acf012270ed53d51ad745344175d1d8ae" target="_top" xlink:title="initialize_options\l::lt_parameters_namelist">
<polygon fill="white" stroke="black" points="133,-98 133,-128 257,-128 257,-98 133,-98"/>
<text text-anchor="start" x="141" y="-116" font-family="Helvetica,sans-Serif" font-size="10.00">initialize_options</text>
<text text-anchor="middle" x="195" y="-105" font-family="Helvetica,sans-Serif" font-size="10.00">::lt_parameters_namelist</text>
</a>
</g>
</g>
<!-- Node1&#45;&gt;Node6 -->
<g id="edge6" class="edge"><title>Node1&#45;&gt;Node6</title>
<path fill="none" stroke="midnightblue" d="M101.822,-113C111.932,-113 122.547,-113 132.831,-113"/>
<polygon fill="midnightblue" stroke="midnightblue" points="101.504,-109.5 91.5038,-113 101.504,-116.5 101.504,-109.5"/>
</g>
<!-- Node7 -->
<g id="node7" class="node"><title>Node7</title>
<g id="a_node7"><a xlink:href="classinitialize__options.html#a502d4a0df0fedb55f73b9afb2e130107" target="_top" xlink:title="initialize_options\l::adv_parameters_namelist">
<polygon fill="white" stroke="black" points="128,-49 128,-79 262,-79 262,-49 128,-49"/>
<text text-anchor="start" x="136" y="-67" font-family="Helvetica,sans-Serif" font-size="10.00">initialize_options</text>
<text text-anchor="middle" x="195" y="-56" font-family="Helvetica,sans-Serif" font-size="10.00">::adv_parameters_namelist</text>
</a>
</g>
</g>
<!-- Node1&#45;&gt;Node7 -->
<g id="edge8" class="edge"><title>Node1&#45;&gt;Node7</title>
<path fill="none" stroke="midnightblue" d="M101.093,-94.969C116.804,-89.7321 133.789,-84.0704 148.886,-79.038"/>
<polygon fill="midnightblue" stroke="midnightblue" points="99.8838,-91.6827 91.5038,-98.1654 102.097,-98.3235 99.8838,-91.6827"/>
</g>
<!-- Node8 -->
<g id="node8" class="node"><title>Node8</title>
<g id="a_node8"><a xlink:href="classinitialize__options.html#a71b56485a92a10478bb1179e3294c013" target="_top" xlink:title="initialize_options\l::lsm_parameters_namelist">
<polygon fill="white" stroke="black" points="128,-0 128,-30 262,-30 262,-0 128,-0"/>
<text text-anchor="start" x="136" y="-18" font-family="Helvetica,sans-Serif" font-size="10.00">initialize_options</text>
<text text-anchor="middle" x="195" y="-7" font-family="Helvetica,sans-Serif" font-size="10.00">::lsm_parameters_namelist</text>
</a>
</g>
</g>
<!-- Node1&#45;&gt;Node8 -->
<g id="edge10" class="edge"><title>Node1&#45;&gt;Node8</title>
<path fill="none" stroke="midnightblue" d="M67.5769,-90.4362C82.9752,-74.6165 105.223,-53.8953 128,-40 134.067,-36.2988 140.772,-32.9915 147.516,-30.0895"/>
<polygon fill="midnightblue" stroke="midnightblue" points="64.9639,-88.1047 60.5957,-97.7572 70.0298,-92.9356 64.9639,-88.1047"/>
</g>
<!-- Node3 -->
<g id="node3" class="node"><title>Node3</title>
<g id="a_node3"><a xlink:href="classinit.html#a1dd1e2b38eef39cba464f65c9ce82568" target="_top" xlink:title="init::init_model">
<polygon fill="white" stroke="black" points="424,-103.5 424,-122.5 504,-122.5 504,-103.5 424,-103.5"/>
<text text-anchor="middle" x="464" y="-110.5" font-family="Helvetica,sans-Serif" font-size="10.00">init::init_model</text>
</a>
</g>
</g>
<!-- Node2&#45;&gt;Node3 -->
<g id="edge2" class="edge"><title>Node2&#45;&gt;Node3</title>
<path fill="none" stroke="midnightblue" d="M397.766,-113C406.499,-113 415.399,-113 423.703,-113"/>
<polygon fill="midnightblue" stroke="midnightblue" points="397.636,-109.5 387.635,-113 397.635,-116.5 397.636,-109.5"/>
</g>
<!-- Node4 -->
<g id="node4" class="node"><title>Node4</title>
<g id="a_node4"><a xlink:href="driver_8f90.html#ab1e5a5816a57fc6e95d9563c2bb53590" target="_top" xlink:title=" Main Program ">
<polygon fill="white" stroke="black" points="540,-103.5 540,-122.5 572,-122.5 572,-103.5 540,-103.5"/>
<text text-anchor="middle" x="556" y="-110.5" font-family="Helvetica,sans-Serif" font-size="10.00">icar</text>
</a>
</g>
</g>
<!-- Node3&#45;&gt;Node4 -->
<g id="edge3" class="edge"><title>Node3&#45;&gt;Node4</title>
<path fill="none" stroke="midnightblue" d="M514.233,-113C523.449,-113 532.425,-113 539.599,-113"/>
<polygon fill="midnightblue" stroke="midnightblue" points="514.214,-109.5 504.213,-113 514.213,-116.5 514.214,-109.5"/>
</g>
<!-- Node5&#45;&gt;Node2 -->
<g id="edge5" class="edge"><title>Node5&#45;&gt;Node2</title>
<path fill="none" stroke="midnightblue" d="M250.63,-143.665C266.402,-138.372 283.398,-132.668 298.404,-127.632"/>
<polygon fill="midnightblue" stroke="midnightblue" points="249.363,-140.399 240.996,-146.899 251.59,-147.035 249.363,-140.399"/>
</g>
<!-- Node6&#45;&gt;Node2 -->
<g id="edge7" class="edge"><title>Node6&#45;&gt;Node2</title>
<path fill="none" stroke="midnightblue" d="M267.252,-113C277.917,-113 288.632,-113 298.486,-113"/>
<polygon fill="midnightblue" stroke="midnightblue" points="267.071,-109.5 257.071,-113 267.071,-116.5 267.071,-109.5"/>
</g>
<!-- Node7&#45;&gt;Node2 -->
<g id="edge9" class="edge"><title>Node7&#45;&gt;Node2</title>
<path fill="none" stroke="midnightblue" d="M250.63,-82.3346C266.402,-87.6281 283.398,-93.3322 298.404,-98.3684"/>
<polygon fill="midnightblue" stroke="midnightblue" points="251.59,-78.9651 240.996,-79.1014 249.363,-85.6014 251.59,-78.9651"/>
</g>
<!-- Node8&#45;&gt;Node2 -->
<g id="edge11" class="edge"><title>Node8&#45;&gt;Node2</title>
<path fill="none" stroke="midnightblue" d="M251.586,-34.2594C255.184,-36.0517 258.689,-37.9657 262,-40 288.274,-56.1406 313.716,-81.5603 328.61,-97.7461"/>
<polygon fill="midnightblue" stroke="midnightblue" points="253.05,-31.0802 242.505,-30.0559 250.11,-37.4327 253.05,-31.0802"/>
</g>
</g>
</svg>
