<?xml version="1.0" encoding="UTF-8" standalone="no"?>
<!DOCTYPE svg PUBLIC "-//W3C//DTD SVG 1.1//EN"
 "http://www.w3.org/Graphics/SVG/1.1/DTD/svg11.dtd">
<!-- Generated by graphviz version 2.38.0 (20140413.2041)
 -->
<!-- Title: output::create_file Pages: 1 -->
<svg width="456pt" height="116pt"
 viewBox="0.00 0.00 456.00 115.50" xmlns="http://www.w3.org/2000/svg" xmlns:xlink="http://www.w3.org/1999/xlink">
<g id="graph0" class="graph" transform="scale(1 1) rotate(0) translate(4 111.5)">
<title>output::create_file</title>
<polygon fill="white" stroke="none" points="-4,4 -4,-111.5 452,-111.5 452,4 -4,4"/>
<!-- Node1 -->
<g id="node1" class="node"><title>Node1</title>
<polygon fill="#bfbfbf" stroke="black" points="0,-38.5 0,-57.5 95,-57.5 95,-38.5 0,-38.5"/>
<text text-anchor="middle" x="47.5" y="-45.5" font-family="Helvetica,sans-Serif" font-size="10.00">output::create_file</text>
</g>
<!-- Node2 -->
<g id="node2" class="node"><title>Node2</title>
<g id="a_node2"><a xlink:href="classoutput.html#a96fb2c72004c645360fa3e6f2b551b50" target="_top" xlink:title=" Simple routine to write all domain data from this current time step to the output file...">
<polygon fill="white" stroke="black" points="131,-38.5 131,-57.5 238,-57.5 238,-38.5 131,-38.5"/>
<text text-anchor="middle" x="184.5" y="-45.5" font-family="Helvetica,sans-Serif" font-size="10.00">output::write_domain</text>
</a>
</g>
</g>
<!-- Node1&#45;&gt;Node2 -->
<g id="edge1" class="edge"><title>Node1&#45;&gt;Node2</title>
<path fill="none" stroke="midnightblue" d="M105.427,-48C113.818,-48 122.434,-48 130.736,-48"/>
<polygon fill="midnightblue" stroke="midnightblue" points="105.338,-44.5001 95.3376,-48 105.338,-51.5001 105.338,-44.5001"/>
</g>
<!-- Node3 -->
<g id="node3" class="node"><title>Node3</title>
<g id="a_node3"><a xlink:href="classboundary__conditions.html#a07a42f467f470ada98e0a35fd5a75f66" target="_top" xlink:title=" Initialize the boundary conditions (read inital conditions, etc.) ">
<polygon fill="white" stroke="black" points="274,-77 274,-107 380,-107 380,-77 274,-77"/>
<text text-anchor="start" x="282" y="-95" font-family="Helvetica,sans-Serif" font-size="10.00">boundary_conditions</text>
<text text-anchor="middle" x="327" y="-84" font-family="Helvetica,sans-Serif" font-size="10.00">::bc_init</text>
</a>
</g>
</g>
<!-- Node2&#45;&gt;Node3 -->
<g id="edge2" class="edge"><title>Node2&#45;&gt;Node3</title>
<path fill="none" stroke="midnightblue" d="M225.732,-60.5992C241.997,-65.6931 260.907,-71.6151 277.894,-76.9346"/>
<polygon fill="midnightblue" stroke="midnightblue" points="226.575,-57.1959 215.986,-57.5473 224.483,-63.876 226.575,-57.1959"/>
</g>
<!-- Node4 -->
<g id="node4" class="node"><title>Node4</title>
<g id="a_node4"><a xlink:href="driver_8f90.html#ab1e5a5816a57fc6e95d9563c2bb53590" target="_top" xlink:title=" Main Program ">
<polygon fill="white" stroke="black" points="416,-38.5 416,-57.5 448,-57.5 448,-38.5 416,-38.5"/>
<text text-anchor="middle" x="432" y="-45.5" font-family="Helvetica,sans-Serif" font-size="10.00">icar</text>
</a>
</g>
</g>
<!-- Node2&#45;&gt;Node4 -->
<g id="edge4" class="edge"><title>Node2&#45;&gt;Node4</title>
<path fill="none" stroke="midnightblue" d="M248.414,-48C304.771,-48 383.406,-48 415.965,-48"/>
<polygon fill="midnightblue" stroke="midnightblue" points="248.166,-44.5001 238.166,-48 248.166,-51.5001 248.166,-44.5001"/>
</g>
<!-- Node5 -->
<g id="node5" class="node"><title>Node5</title>
<g id="a_node5"><a xlink:href="classtime__step.html#a2c022f11247af72e607b1493289aa974" target="_top" xlink:title=" Step forward one IO time step. ">
<polygon fill="white" stroke="black" points="285,-0.5 285,-19.5 369,-19.5 369,-0.5 285,-0.5"/>
<text text-anchor="middle" x="327" y="-7.5" font-family="Helvetica,sans-Serif" font-size="10.00">time_step::step</text>
</a>
</g>
</g>
<!-- Node2&#45;&gt;Node5 -->
<g id="edge5" class="edge"><title>Node2&#45;&gt;Node5</title>
<path fill="none" stroke="midnightblue" d="M230.779,-35.7538C250.145,-30.516 272.422,-24.4909 290.557,-19.5859"/>
<polygon fill="midnightblue" stroke="midnightblue" points="229.693,-32.4215 220.954,-38.411 231.521,-39.1787 229.693,-32.4215"/>
</g>
<!-- Node3&#45;&gt;Node4 -->
<g id="edge3" class="edge"><title>Node3&#45;&gt;Node4</title>
<path fill="none" stroke="midnightblue" d="M372.625,-72.937C388.084,-66.3328 404.386,-59.3692 415.821,-54.4842"/>
<polygon fill="midnightblue" stroke="midnightblue" points="370.98,-69.8337 363.159,-76.9808 373.73,-76.2709 370.98,-69.8337"/>
</g>
<!-- Node5&#45;&gt;Node4 -->
<g id="edge6" class="edge"><title>Node5&#45;&gt;Node4</title>
<path fill="none" stroke="midnightblue" d="M363.572,-23.1236C381.456,-29.7216 402.183,-37.3684 415.885,-42.4236"/>
<polygon fill="midnightblue" stroke="midnightblue" points="364.585,-19.7667 353.991,-19.589 362.162,-26.334 364.585,-19.7667"/>
</g>
</g>
</svg>
