<?xml version="1.0" encoding="UTF-8" standalone="no"?>
<!DOCTYPE svg PUBLIC "-//W3C//DTD SVG 1.1//EN"
 "http://www.w3.org/Graphics/SVG/1.1/DTD/svg11.dtd">
<!-- Generated by graphviz version 2.32.0 (20130809.1645)
 -->
<!-- Title: module_sf_noahlsm::snksrc Pages: 1 -->
<svg width="264pt" height="38pt"
 viewBox="0.00 0.00 264.00 38.00" xmlns="http://www.w3.org/2000/svg" xmlns:xlink="http://www.w3.org/1999/xlink">
<g id="graph0" class="graph" transform="scale(1 1) rotate(0) translate(4 34)">
<title>module_sf_noahlsm::snksrc</title>
<polygon fill="white" stroke="white" points="-4,5 -4,-34 261,-34 261,5 -4,5"/>
<!-- Node1 -->
<g id="node1" class="node"><title>Node1</title>
<polygon fill="#bfbfbf" stroke="black" points="0,-0 0,-30 110,-30 110,-0 0,-0"/>
<text text-anchor="start" x="8" y="-18" font-family="Helvetica,sans-Serif" font-size="10.00">module_sf_noahlsm::</text>
<text text-anchor="middle" x="55" y="-7" font-family="Helvetica,sans-Serif" font-size="10.00">snksrc</text>
</g>
<!-- Node2 -->
<g id="node2" class="node"><title>Node2</title>
<g id="a_node2"><a xlink:href="classmodule__sf__noahlsm.html#a5beb42f74e1a357ccfc0e904f356b33a" target="_top" xlink:title="module_sf_noahlsm::\lfrh2o">
<polygon fill="white" stroke="black" points="146,-0 146,-30 256,-30 256,-0 146,-0"/>
<text text-anchor="start" x="154" y="-18" font-family="Helvetica,sans-Serif" font-size="10.00">module_sf_noahlsm::</text>
<text text-anchor="middle" x="201" y="-7" font-family="Helvetica,sans-Serif" font-size="10.00">frh2o</text>
</a>
</g>
</g>
<!-- Node1&#45;&gt;Node2 -->
<g id="edge1" class="edge"><title>Node1&#45;&gt;Node2</title>
<path fill="none" stroke="midnightblue" d="M110.03,-15C118.314,-15 126.936,-15 135.42,-15"/>
<polygon fill="midnightblue" stroke="midnightblue" points="135.667,-18.5001 145.667,-15 135.667,-11.5001 135.667,-18.5001"/>
</g>
</g>
</svg>
