<?xml version="1.0" encoding="UTF-8" standalone="no"?>
<!DOCTYPE svg PUBLIC "-//W3C//DTD SVG 1.1//EN"
 "http://www.w3.org/Graphics/SVG/1.1/DTD/svg11.dtd">
<!-- Generated by graphviz version 2.38.0 (20140413.2041)
 -->
<!-- Title: boundary_conditions::remove_linear_winds Pages: 1 -->
<!--zoomable 469 -->
<svg id="main" version="1.1" xmlns="http://www.w3.org/2000/svg" xmlns:xlink="http://www.w3.org/1999/xlink" xml:space="preserve" onload="init(evt)">
<style type="text/css"><![CDATA[
.edge:hover path { stroke: red; }
.edge:hover polygon { stroke: red; fill: red; }
]]></style>
<script type="text/javascript"><![CDATA[
var edges = document.getElementsByTagName('g');
if (edges && edges.length) {
  for (var i=0;i<edges.length;i++) {
    if (edges[i].id.substr(0,4)=='edge') {
      edges[i].setAttribute('class','edge');
    }
  }
}
]]></script>
        <defs>
                <circle id="rim" cx="0" cy="0" r="7"/>
                <circle id="rim2" cx="0" cy="0" r="3.5"/>
                <g id="zoomPlus">
                        <use xlink:href="#rim" fill="#404040">
                                <set attributeName="fill" to="#808080" begin="zoomplus.mouseover" end="zoomplus.mouseout"/>
                        </use>
                        <path d="M-4,0h8M0,-4v8" fill="none" stroke="white" stroke-width="1.5" pointer-events="none"/>
                </g>
                <g id="zoomMin">
                        <use xlink:href="#rim" fill="#404040">
                                <set attributeName="fill" to="#808080" begin="zoomminus.mouseover" end="zoomminus.mouseout"/>
                        </use>
                        <path d="M-4,0h8" fill="none" stroke="white" stroke-width="1.5" pointer-events="none"/>
                </g>
                <g id="dirArrow">
                        <path fill="none" stroke="white" stroke-width="1.5" d="M0,-3.0v7 M-2.5,-0.5L0,-3.0L2.5,-0.5"/>
                </g>
               <g id="resetDef">
                       <use xlink:href="#rim2" fill="#404040">
                               <set attributeName="fill" to="#808080" begin="reset.mouseover" end="reset.mouseout"/>
                       </use>
               </g>
        </defs>

<script type="text/javascript">
var viewWidth = 1168;
var viewHeight = 469;
var sectionId = 'dynsection-18';
</script>
<script xlink:href="svgpan.js"/>
<svg id="graph" class="graph">
<g id="viewport">
<title>boundary_conditions::remove_linear_winds</title>
<polygon fill="white" stroke="none" points="-4,4 -4,-465 1164,-465 1164,4 -4,4"/>
<!-- Node1 -->
<g id="node1" class="node"><title>Node1</title>
<polygon fill="#bfbfbf" stroke="black" points="0,-130.5 0,-160.5 114,-160.5 114,-130.5 0,-130.5"/>
<text text-anchor="start" x="8" y="-148.5" font-family="Helvetica,sans-Serif" font-size="10.00">boundary_conditions</text>
<text text-anchor="middle" x="57" y="-137.5" font-family="Helvetica,sans-Serif" font-size="10.00">::remove_linear_winds</text>
</g>
<!-- Node2 -->
<g id="node2" class="node"><title>Node2</title>
<g id="a_node2"><a xlink:href="interfaceio__routines_1_1io__read.html#a9b6dacfccbb234dd949e7136e5b67f8c" target="_top" xlink:title=" Same as io_read6d but for 3&#45;dimensional data ">
<polygon fill="white" stroke="black" points="152.5,-228.5 152.5,-258.5 253.5,-258.5 253.5,-228.5 152.5,-228.5"/>
<text text-anchor="start" x="160.5" y="-246.5" font-family="Helvetica,sans-Serif" font-size="10.00">io_routines::io_read</text>
<text text-anchor="middle" x="203" y="-235.5" font-family="Helvetica,sans-Serif" font-size="10.00">::io_read3d</text>
</a>
</g>
</g>
<!-- Node1&#45;&gt;Node2 -->
<g id="edge1" class="edge"><title>Node1&#45;&gt;Node2</title>
<path fill="none" stroke="midnightblue" d="M74.7794,-160.708C92.5993,-176.393 122.005,-200.97 150,-218.5 152.802,-220.254 155.745,-221.972 158.747,-223.633"/>
<polygon fill="midnightblue" stroke="midnightblue" points="157.368,-226.862 167.846,-228.426 160.63,-220.669 157.368,-226.862"/>
</g>
<!-- Node3 -->
<g id="node3" class="node"><title>Node3</title>
<g id="a_node3"><a xlink:href="classboundary__conditions.html#a4ea743610f85b3c52d69af94085b5bfa" target="_top" xlink:title=" Smooth an array (written for wind but will work for anything) ">
<polygon fill="white" stroke="black" points="150,-179.5 150,-209.5 256,-209.5 256,-179.5 150,-179.5"/>
<text text-anchor="start" x="158" y="-197.5" font-family="Helvetica,sans-Serif" font-size="10.00">boundary_conditions</text>
<text text-anchor="middle" x="203" y="-186.5" font-family="Helvetica,sans-Serif" font-size="10.00">::smooth_wind</text>
</a>
</g>
</g>
<!-- Node1&#45;&gt;Node3 -->
<g id="edge2" class="edge"><title>Node1&#45;&gt;Node3</title>
<path fill="none" stroke="midnightblue" d="M102.38,-160.601C116.751,-165.492 132.853,-170.971 147.851,-176.074"/>
<polygon fill="midnightblue" stroke="midnightblue" points="146.924,-179.456 157.519,-179.364 149.179,-172.829 146.924,-179.456"/>
</g>
<!-- Node4 -->
<g id="node4" class="node"><title>Node4</title>
<g id="a_node4"><a xlink:href="classlinear__theory__winds.html#a248a832d459ec9cd399c372d2ae9cb0a" target="_top" xlink:title="linear_theory_winds\l::linear_perturb">
<polygon fill="white" stroke="black" points="151.5,-130.5 151.5,-160.5 254.5,-160.5 254.5,-130.5 151.5,-130.5"/>
<text text-anchor="start" x="159.5" y="-148.5" font-family="Helvetica,sans-Serif" font-size="10.00">linear_theory_winds</text>
<text text-anchor="middle" x="203" y="-137.5" font-family="Helvetica,sans-Serif" font-size="10.00">::linear_perturb</text>
</a>
</g>
</g>
<!-- Node1&#45;&gt;Node4 -->
<g id="edge3" class="edge"><title>Node1&#45;&gt;Node4</title>
<path fill="none" stroke="midnightblue" d="M114.086,-145.5C123.037,-145.5 132.333,-145.5 141.383,-145.5"/>
<polygon fill="midnightblue" stroke="midnightblue" points="141.465,-149 151.465,-145.5 141.465,-142 141.465,-149"/>
</g>
<!-- Node29 -->
<g id="node29" class="node"><title>Node29</title>
<g id="a_node29"><a xlink:href="classgeo.html#acb54dc322e31524d40cc746c37b28898" target="_top" xlink:title=" Interpolate fieldout to fieldin using geolut. if boundary_only is true, call boundary_interpolate in...">
<polygon fill="white" stroke="black" points="161.5,-86 161.5,-105 244.5,-105 244.5,-86 161.5,-86"/>
<text text-anchor="middle" x="203" y="-93" font-family="Helvetica,sans-Serif" font-size="10.00">geo::geo_interp</text>
</a>
</g>
</g>
<!-- Node1&#45;&gt;Node29 -->
<g id="edge30" class="edge"><title>Node1&#45;&gt;Node29</title>
<path fill="none" stroke="midnightblue" d="M101.205,-130.498C121.381,-123.493 145.169,-115.233 164.568,-108.497"/>
<polygon fill="midnightblue" stroke="midnightblue" points="165.971,-111.715 174.27,-105.128 163.675,-105.102 165.971,-111.715"/>
</g>
<!-- Node31 -->
<g id="node31" class="node"><title>Node31</title>
<g id="a_node31"><a xlink:href="classvertical__interpolation.html#a2d3f85573f18ea2ab18d6dcdec6a025a" target="_top" xlink:title="vertical_interpolation\l::vinterp">
<polygon fill="white" stroke="black" points="150,-24.5 150,-54.5 256,-54.5 256,-24.5 150,-24.5"/>
<text text-anchor="start" x="158" y="-42.5" font-family="Helvetica,sans-Serif" font-size="10.00">vertical_interpolation</text>
<text text-anchor="middle" x="203" y="-31.5" font-family="Helvetica,sans-Serif" font-size="10.00">::vinterp</text>
</a>
</g>
</g>
<!-- Node1&#45;&gt;Node31 -->
<g id="edge32" class="edge"><title>Node1&#45;&gt;Node31</title>
<path fill="none" stroke="midnightblue" d="M77.9928,-130.279C96.5566,-116.2 125.012,-94.7559 150,-76.5 157.202,-71.2383 165.016,-65.6271 172.346,-60.4065"/>
<polygon fill="midnightblue" stroke="midnightblue" points="174.534,-63.1452 180.662,-54.5018 170.482,-57.4377 174.534,-63.1452"/>
</g>
<!-- Node5 -->
<g id="node5" class="node"><title>Node5</title>
<g id="a_node5"><a xlink:href="classlinear__theory__winds.html#a5aed1fad471120ba77c203fa6158a5ba" target="_top" xlink:title="linear_theory_winds\l::setup_linwinds">
<polygon fill="white" stroke="black" points="304.5,-332.5 304.5,-362.5 407.5,-362.5 407.5,-332.5 304.5,-332.5"/>
<text text-anchor="start" x="312.5" y="-350.5" font-family="Helvetica,sans-Serif" font-size="10.00">linear_theory_winds</text>
<text text-anchor="middle" x="356" y="-339.5" font-family="Helvetica,sans-Serif" font-size="10.00">::setup_linwinds</text>
</a>
</g>
</g>
<!-- Node4&#45;&gt;Node5 -->
<g id="edge4" class="edge"><title>Node4&#45;&gt;Node5</title>
<path fill="none" stroke="midnightblue" d="M244.075,-160.628C248.374,-163.203 252.462,-166.15 256,-169.5 280.83,-193.013 275.5,-207.548 292,-237.5 308.446,-267.354 328.051,-301.346 340.973,-323.543"/>
<polygon fill="midnightblue" stroke="midnightblue" points="338.012,-325.412 346.074,-332.287 344.059,-321.885 338.012,-325.412"/>
</g>
<!-- Node18 -->
<g id="node18" class="node"><title>Node18</title>
<g id="a_node18"><a xlink:href="classlinear__theory__winds.html#a352c9ebbb4416a470bc197c2c3b4c91a" target="_top" xlink:title="linear_theory_winds\l::linear_winds">
<polygon fill="white" stroke="black" points="618,-210.5 618,-240.5 721,-240.5 721,-210.5 618,-210.5"/>
<text text-anchor="start" x="626" y="-228.5" font-family="Helvetica,sans-Serif" font-size="10.00">linear_theory_winds</text>
<text text-anchor="middle" x="669.5" y="-217.5" font-family="Helvetica,sans-Serif" font-size="10.00">::linear_winds</text>
</a>
</g>
</g>
<!-- Node4&#45;&gt;Node18 -->
<g id="edge29" class="edge"><title>Node4&#45;&gt;Node18</title>
<path fill="none" stroke="midnightblue" d="M241.643,-160.508C257.054,-166.191 275.186,-172.296 292,-176.5 401.324,-203.832 532.54,-216.511 607.654,-221.919"/>
<polygon fill="midnightblue" stroke="midnightblue" points="607.652,-225.428 617.872,-222.635 608.141,-218.445 607.652,-225.428"/>
</g>
<!-- Node20 -->
<g id="node20" class="node"><title>Node20</title>
<g id="a_node20"><a xlink:href="classlinear__theory__winds.html#a2e662c05e82b0515704c9ab54f49373a" target="_top" xlink:title="linear_theory_winds\l::spatial_winds">
<polygon fill="white" stroke="black" points="304.5,-137.5 304.5,-167.5 407.5,-167.5 407.5,-137.5 304.5,-137.5"/>
<text text-anchor="start" x="312.5" y="-155.5" font-family="Helvetica,sans-Serif" font-size="10.00">linear_theory_winds</text>
<text text-anchor="middle" x="356" y="-144.5" font-family="Helvetica,sans-Serif" font-size="10.00">::spatial_winds</text>
</a>
</g>
</g>
<!-- Node4&#45;&gt;Node20 -->
<g id="edge20" class="edge"><title>Node4&#45;&gt;Node20</title>
<path fill="none" stroke="midnightblue" d="M254.701,-147.85C267.343,-148.436 281.029,-149.071 294.107,-149.677"/>
<polygon fill="midnightblue" stroke="midnightblue" points="294.282,-153.189 304.433,-150.156 294.606,-146.196 294.282,-153.189"/>
</g>
<!-- Node28 -->
<g id="node28" class="node"><title>Node28</title>
<g id="a_node28"><a xlink:href="classlinear__theory__winds.html#a00361916b4c433e510597f8af21db6ba" target="_top" xlink:title="linear_theory_winds\l::calc_domain_stability">
<polygon fill="white" stroke="black" points="298,-88.5 298,-118.5 414,-118.5 414,-88.5 298,-88.5"/>
<text text-anchor="start" x="306" y="-106.5" font-family="Helvetica,sans-Serif" font-size="10.00">linear_theory_winds</text>
<text text-anchor="middle" x="356" y="-95.5" font-family="Helvetica,sans-Serif" font-size="10.00">::calc_domain_stability</text>
</a>
</g>
</g>
<!-- Node4&#45;&gt;Node28 -->
<g id="edge28" class="edge"><title>Node4&#45;&gt;Node28</title>
<path fill="none" stroke="midnightblue" d="M254.701,-131.398C266.464,-128.126 279.131,-124.603 291.371,-121.198"/>
<polygon fill="midnightblue" stroke="midnightblue" points="292.374,-124.552 301.07,-118.5 290.498,-117.808 292.374,-124.552"/>
</g>
<!-- Node6 -->
<g id="node6" class="node"><title>Node6</title>
<g id="a_node6"><a xlink:href="classlinear__theory__winds.html#abd669b485ef98ac64dad6b8590974da3" target="_top" xlink:title="linear_theory_winds\l::set_module_options">
<polygon fill="white" stroke="black" points="462,-430.5 462,-460.5 572,-460.5 572,-430.5 462,-430.5"/>
<text text-anchor="start" x="470" y="-448.5" font-family="Helvetica,sans-Serif" font-size="10.00">linear_theory_winds</text>
<text text-anchor="middle" x="517" y="-437.5" font-family="Helvetica,sans-Serif" font-size="10.00">::set_module_options</text>
</a>
</g>
</g>
<!-- Node5&#45;&gt;Node6 -->
<g id="edge5" class="edge"><title>Node5&#45;&gt;Node6</title>
<path fill="none" stroke="midnightblue" d="M374.71,-362.614C393.855,-378.447 425.708,-403.353 456,-420.5 459.437,-422.446 463.056,-424.327 466.743,-426.124"/>
<polygon fill="midnightblue" stroke="midnightblue" points="465.437,-429.377 475.981,-430.41 468.383,-423.027 465.437,-429.377"/>
</g>
<!-- Node7 -->
<g id="node7" class="node"><title>Node7</title>
<g id="a_node7"><a xlink:href="classlinear__theory__winds.html#a9a4361691c200925fcb5da146c4f0691" target="_top" xlink:title="linear_theory_winds\l::add_buffer_topo">
<polygon fill="white" stroke="black" points="465.5,-381.5 465.5,-411.5 568.5,-411.5 568.5,-381.5 465.5,-381.5"/>
<text text-anchor="start" x="473.5" y="-399.5" font-family="Helvetica,sans-Serif" font-size="10.00">linear_theory_winds</text>
<text text-anchor="middle" x="517" y="-388.5" font-family="Helvetica,sans-Serif" font-size="10.00">::add_buffer_topo</text>
</a>
</g>
</g>
<!-- Node5&#45;&gt;Node7 -->
<g id="edge6" class="edge"><title>Node5&#45;&gt;Node7</title>
<path fill="none" stroke="midnightblue" d="M406.003,-362.601C422.249,-367.608 440.499,-373.232 457.394,-378.439"/>
<polygon fill="midnightblue" stroke="midnightblue" points="456.572,-381.848 467.159,-381.448 458.633,-375.159 456.572,-381.848"/>
</g>
<!-- Node8 -->
<g id="node8" class="node"><title>Node8</title>
<g id="a_node8"><a xlink:href="interfaceio__routines_1_1io__read.html#a35290f3b01bd8f36bae0173749f6b870" target="_top" xlink:title=" Same as io_read3d but for 2&#45;dimensional data ">
<polygon fill="white" stroke="black" points="466.5,-332.5 466.5,-362.5 567.5,-362.5 567.5,-332.5 466.5,-332.5"/>
<text text-anchor="start" x="474.5" y="-350.5" font-family="Helvetica,sans-Serif" font-size="10.00">io_routines::io_read</text>
<text text-anchor="middle" x="517" y="-339.5" font-family="Helvetica,sans-Serif" font-size="10.00">::io_read2d</text>
</a>
</g>
</g>
<!-- Node5&#45;&gt;Node8 -->
<g id="edge7" class="edge"><title>Node5&#45;&gt;Node8</title>
<path fill="none" stroke="midnightblue" d="M407.746,-347.5C423.104,-347.5 440.116,-347.5 456.018,-347.5"/>
<polygon fill="midnightblue" stroke="midnightblue" points="456.279,-351 466.279,-347.5 456.279,-344 456.279,-351"/>
</g>
<!-- Node9 -->
<g id="node9" class="node"><title>Node9</title>
<g id="a_node9"><a xlink:href="classlinear__theory__winds.html#a1c7117dad74a51614a026a50aec8b988" target="_top" xlink:title="linear_theory_winds\l::initialize_spatial_winds">
<polygon fill="white" stroke="black" points="456,-283.5 456,-313.5 578,-313.5 578,-283.5 456,-283.5"/>
<text text-anchor="start" x="464" y="-301.5" font-family="Helvetica,sans-Serif" font-size="10.00">linear_theory_winds</text>
<text text-anchor="middle" x="517" y="-290.5" font-family="Helvetica,sans-Serif" font-size="10.00">::initialize_spatial_winds</text>
</a>
</g>
</g>
<!-- Node5&#45;&gt;Node9 -->
<g id="edge8" class="edge"><title>Node5&#45;&gt;Node9</title>
<path fill="none" stroke="midnightblue" d="M406.003,-332.399C422.249,-327.392 440.499,-321.768 457.394,-316.561"/>
<polygon fill="midnightblue" stroke="midnightblue" points="458.633,-319.841 467.159,-313.552 456.572,-313.152 458.633,-319.841"/>
</g>
<!-- Node10 -->
<g id="node10" class="node"><title>Node10</title>
<g id="a_node10"><a xlink:href="classlinear__theory__lut__disk__io.html#a7b4e839b4cee03c05190479e277bc34a" target="_top" xlink:title=" Write linear wind look up tables to disk along with the parameters for that table ...">
<polygon fill="white" stroke="black" points="614,-406.5 614,-436.5 725,-436.5 725,-406.5 614,-406.5"/>
<text text-anchor="start" x="622" y="-424.5" font-family="Helvetica,sans-Serif" font-size="10.00">linear_theory_lut_disk</text>
<text text-anchor="middle" x="669.5" y="-413.5" font-family="Helvetica,sans-Serif" font-size="10.00">_io::read_lut</text>
</a>
</g>
</g>
<!-- Node9&#45;&gt;Node10 -->
<g id="edge9" class="edge"><title>Node9&#45;&gt;Node10</title>
<path fill="none" stroke="midnightblue" d="M565.556,-313.528C570.053,-316.09 574.303,-319.061 578,-322.5 604.779,-347.411 587.846,-370.933 614,-396.5 615.452,-397.919 616.998,-399.267 618.617,-400.546"/>
<polygon fill="midnightblue" stroke="midnightblue" points="616.968,-403.658 627.207,-406.384 620.903,-397.868 616.968,-403.658"/>
</g>
<!-- Node16 -->
<g id="node16" class="node"><title>Node16</title>
<g id="a_node16"><a xlink:href="classlinear__theory__winds.html#a813750f1f575af521dd81654aff2ee54" target="_top" xlink:title="linear_theory_winds\l::calc_u">
<polygon fill="white" stroke="black" points="618,-357.5 618,-387.5 721,-387.5 721,-357.5 618,-357.5"/>
<text text-anchor="start" x="626" y="-375.5" font-family="Helvetica,sans-Serif" font-size="10.00">linear_theory_winds</text>
<text text-anchor="middle" x="669.5" y="-364.5" font-family="Helvetica,sans-Serif" font-size="10.00">::calc_u</text>
</a>
</g>
</g>
<!-- Node9&#45;&gt;Node16 -->
<g id="edge15" class="edge"><title>Node9&#45;&gt;Node16</title>
<path fill="none" stroke="midnightblue" d="M559.234,-313.553C565.628,-316.297 572.073,-319.31 578,-322.5 595.153,-331.732 597.081,-337.846 614,-347.5 617.218,-349.336 620.595,-351.145 624.024,-352.899"/>
<polygon fill="midnightblue" stroke="midnightblue" points="622.633,-356.115 633.151,-357.393 625.726,-349.835 622.633,-356.115"/>
</g>
<!-- Node17 -->
<g id="node17" class="node"><title>Node17</title>
<g id="a_node17"><a xlink:href="classlinear__theory__winds.html#adbd589b5f5daf777414839f415fe8dbb" target="_top" xlink:title="linear_theory_winds\l::calc_v">
<polygon fill="white" stroke="black" points="618,-308.5 618,-338.5 721,-338.5 721,-308.5 618,-308.5"/>
<text text-anchor="start" x="626" y="-326.5" font-family="Helvetica,sans-Serif" font-size="10.00">linear_theory_winds</text>
<text text-anchor="middle" x="669.5" y="-315.5" font-family="Helvetica,sans-Serif" font-size="10.00">::calc_v</text>
</a>
</g>
</g>
<!-- Node9&#45;&gt;Node17 -->
<g id="edge16" class="edge"><title>Node9&#45;&gt;Node17</title>
<path fill="none" stroke="midnightblue" d="M578.347,-308.524C588.058,-310.138 598.114,-311.808 607.833,-313.422"/>
<polygon fill="midnightblue" stroke="midnightblue" points="607.371,-316.894 617.81,-315.08 608.519,-309.988 607.371,-316.894"/>
</g>
<!-- Node9&#45;&gt;Node18 -->
<g id="edge17" class="edge"><title>Node9&#45;&gt;Node18</title>
<path fill="none" stroke="midnightblue" d="M546.353,-283.49C565.355,-273.564 591.012,-260.417 614,-249.5 617.324,-247.921 620.777,-246.318 624.26,-244.727"/>
<polygon fill="midnightblue" stroke="midnightblue" points="625.8,-247.872 633.477,-240.57 622.922,-241.49 625.8,-247.872"/>
</g>
<!-- Node19 -->
<g id="node19" class="node"><title>Node19</title>
<g id="a_node19"><a xlink:href="classlinear__theory__lut__disk__io.html#a839923739fe9f10f439952d059c3261d" target="_top" xlink:title=" Write linear wind look up tables to disk along with the parameters for that table ...">
<polygon fill="white" stroke="black" points="614,-259.5 614,-289.5 725,-289.5 725,-259.5 614,-259.5"/>
<text text-anchor="start" x="622" y="-277.5" font-family="Helvetica,sans-Serif" font-size="10.00">linear_theory_lut_disk</text>
<text text-anchor="middle" x="669.5" y="-266.5" font-family="Helvetica,sans-Serif" font-size="10.00">_io::write_lut</text>
</a>
</g>
</g>
<!-- Node9&#45;&gt;Node19 -->
<g id="edge18" class="edge"><title>Node9&#45;&gt;Node19</title>
<path fill="none" stroke="midnightblue" d="M578.347,-288.877C586.811,-287.527 595.537,-286.135 604.073,-284.774"/>
<polygon fill="midnightblue" stroke="midnightblue" points="604.656,-288.225 613.98,-283.194 603.553,-281.313 604.656,-288.225"/>
</g>
<!-- Node11 -->
<g id="node11" class="node"><title>Node11</title>
<g id="a_node11"><a xlink:href="classio__routines.html#a2f5490f632bd50662c7da9fd964e88e3" target="_top" xlink:title=" Tests to see if a file exists ">
<polygon fill="white" stroke="black" points="761,-304 761,-323 875,-323 875,-304 761,-304"/>
<text text-anchor="middle" x="818" y="-311" font-family="Helvetica,sans-Serif" font-size="10.00">io_routines::file_exists</text>
</a>
</g>
</g>
<!-- Node10&#45;&gt;Node11 -->
<g id="edge10" class="edge"><title>Node10&#45;&gt;Node11</title>
<path fill="none" stroke="midnightblue" d="M707.381,-406.444C713.439,-403.45 719.522,-400.105 725,-396.5 754.296,-377.22 783.59,-348.835 801.004,-330.761"/>
<polygon fill="midnightblue" stroke="midnightblue" points="803.783,-332.916 808.126,-323.252 798.705,-328.099 803.783,-332.916"/>
</g>
<!-- Node12 -->
<g id="node12" class="node"><title>Node12</title>
<g id="a_node12"><a xlink:href="classlinear__theory__lut__disk__io.html#a941618f7357edb1ceb9ecfa66f9c8151" target="_top" xlink:title=" Check that the dimensions of a LUT file and current expected LUT match ">
<polygon fill="white" stroke="black" points="762.5,-430.5 762.5,-460.5 873.5,-460.5 873.5,-430.5 762.5,-430.5"/>
<text text-anchor="start" x="770.5" y="-448.5" font-family="Helvetica,sans-Serif" font-size="10.00">linear_theory_lut_disk</text>
<text text-anchor="middle" x="818" y="-437.5" font-family="Helvetica,sans-Serif" font-size="10.00">_io::dims_match</text>
</a>
</g>
</g>
<!-- Node10&#45;&gt;Node12 -->
<g id="edge11" class="edge"><title>Node10&#45;&gt;Node12</title>
<path fill="none" stroke="midnightblue" d="M725.051,-430.437C733.917,-431.889 743.175,-433.406 752.256,-434.893"/>
<polygon fill="midnightblue" stroke="midnightblue" points="751.969,-438.393 762.403,-436.556 753.101,-431.485 751.969,-438.393"/>
</g>
<!-- Node15 -->
<g id="node15" class="node"><title>Node15</title>
<g id="a_node15"><a xlink:href="classlinear__theory__lut__disk__io.html#acd8076f02eabf99278d4b3f142688be2" target="_top" xlink:title=" Check that the dz level thicknesses of a LUT file and current domain match ">
<polygon fill="white" stroke="black" points="762.5,-381.5 762.5,-411.5 873.5,-411.5 873.5,-381.5 762.5,-381.5"/>
<text text-anchor="start" x="770.5" y="-399.5" font-family="Helvetica,sans-Serif" font-size="10.00">linear_theory_lut_disk</text>
<text text-anchor="middle" x="818" y="-388.5" font-family="Helvetica,sans-Serif" font-size="10.00">_io::check_dz</text>
</a>
</g>
</g>
<!-- Node10&#45;&gt;Node15 -->
<g id="edge14" class="edge"><title>Node10&#45;&gt;Node15</title>
<path fill="none" stroke="midnightblue" d="M725.051,-412.191C733.917,-410.678 743.175,-409.098 752.256,-407.548"/>
<polygon fill="midnightblue" stroke="midnightblue" points="753.135,-410.949 762.403,-405.817 751.957,-404.049 753.135,-410.949"/>
</g>
<!-- Node13 -->
<g id="node13" class="node"><title>Node13</title>
<g id="a_node13"><a xlink:href="classio__routines.html#ae987ea578b7a3fe5c0d51363e0f154a7" target="_top" xlink:title=" Read the dimensions of a variable in a given netcdf file ">
<polygon fill="white" stroke="black" points="911,-436 911,-455 1028,-455 1028,-436 911,-436"/>
<text text-anchor="middle" x="969.5" y="-443" font-family="Helvetica,sans-Serif" font-size="10.00">io_routines::io_getdims</text>
</a>
</g>
</g>
<!-- Node12&#45;&gt;Node13 -->
<g id="edge12" class="edge"><title>Node12&#45;&gt;Node13</title>
<path fill="none" stroke="midnightblue" d="M873.819,-445.5C882.599,-445.5 891.774,-445.5 900.81,-445.5"/>
<polygon fill="midnightblue" stroke="midnightblue" points="900.925,-449 910.925,-445.5 900.925,-442 900.925,-449"/>
</g>
<!-- Node14 -->
<g id="node14" class="node"><title>Node14</title>
<g id="a_node14"><a xlink:href="classio__routines.html#ac4835ed66f2e10d8e5bb40f6122f0ca1" target="_top" xlink:title=" Simple error handling for common netcdf file errors ">
<polygon fill="white" stroke="black" points="1064,-436 1064,-455 1160,-455 1160,-436 1064,-436"/>
<text text-anchor="middle" x="1112" y="-443" font-family="Helvetica,sans-Serif" font-size="10.00">io_routines::check</text>
</a>
</g>
</g>
<!-- Node13&#45;&gt;Node14 -->
<g id="edge13" class="edge"><title>Node13&#45;&gt;Node14</title>
<path fill="none" stroke="midnightblue" d="M1028.05,-445.5C1036.46,-445.5 1045.11,-445.5 1053.52,-445.5"/>
<polygon fill="midnightblue" stroke="midnightblue" points="1053.61,-449 1063.61,-445.5 1053.61,-442 1053.61,-449"/>
</g>
<!-- Node19&#45;&gt;Node11 -->
<g id="edge19" class="edge"><title>Node19&#45;&gt;Node11</title>
<path fill="none" stroke="midnightblue" d="M725.051,-289.022C740.254,-293.069 756.608,-297.423 771.248,-301.32"/>
<polygon fill="midnightblue" stroke="midnightblue" points="770.51,-304.746 781.074,-303.936 772.311,-297.981 770.51,-304.746"/>
</g>
<!-- Node21 -->
<g id="node21" class="node"><title>Node21</title>
<g id="a_node21"><a xlink:href="classlinear__theory__winds.html#a027dc1b837380d8d4fbe2e9689e9ed46" target="_top" xlink:title="linear_theory_winds\l::calc_stability">
<polygon fill="white" stroke="black" points="465.5,-162.5 465.5,-192.5 568.5,-192.5 568.5,-162.5 465.5,-162.5"/>
<text text-anchor="start" x="473.5" y="-180.5" font-family="Helvetica,sans-Serif" font-size="10.00">linear_theory_winds</text>
<text text-anchor="middle" x="517" y="-169.5" font-family="Helvetica,sans-Serif" font-size="10.00">::calc_stability</text>
</a>
</g>
</g>
<!-- Node20&#45;&gt;Node21 -->
<g id="edge21" class="edge"><title>Node20&#45;&gt;Node21</title>
<path fill="none" stroke="midnightblue" d="M407.746,-160.479C422.88,-162.858 439.621,-165.491 455.323,-167.96"/>
<polygon fill="midnightblue" stroke="midnightblue" points="455.041,-171.458 465.464,-169.554 456.129,-164.543 455.041,-171.458"/>
</g>
<!-- Node25 -->
<g id="node25" class="node"><title>Node25</title>
<g id="a_node25"><a xlink:href="classlinear__theory__winds.html#a5d36c6dd3036dc8a25e356c875f057f1" target="_top" xlink:title="linear_theory_winds\l::calc_direction">
<polygon fill="white" stroke="black" points="465.5,-113.5 465.5,-143.5 568.5,-143.5 568.5,-113.5 465.5,-113.5"/>
<text text-anchor="start" x="473.5" y="-131.5" font-family="Helvetica,sans-Serif" font-size="10.00">linear_theory_winds</text>
<text text-anchor="middle" x="517" y="-120.5" font-family="Helvetica,sans-Serif" font-size="10.00">::calc_direction</text>
</a>
</g>
</g>
<!-- Node20&#45;&gt;Node25 -->
<g id="edge25" class="edge"><title>Node20&#45;&gt;Node25</title>
<path fill="none" stroke="midnightblue" d="M407.746,-144.84C422.88,-142.556 439.621,-140.029 455.323,-137.659"/>
<polygon fill="midnightblue" stroke="midnightblue" points="456.098,-141.082 465.464,-136.128 455.053,-134.16 456.098,-141.082"/>
</g>
<!-- Node26 -->
<g id="node26" class="node"><title>Node26</title>
<g id="a_node26"><a xlink:href="classlinear__theory__winds.html#aee928bfcffbea89852741b027a26b8c3" target="_top" xlink:title="linear_theory_winds\l::calc_speed">
<polygon fill="white" stroke="black" points="465.5,-64.5 465.5,-94.5 568.5,-94.5 568.5,-64.5 465.5,-64.5"/>
<text text-anchor="start" x="473.5" y="-82.5" font-family="Helvetica,sans-Serif" font-size="10.00">linear_theory_winds</text>
<text text-anchor="middle" x="517" y="-71.5" font-family="Helvetica,sans-Serif" font-size="10.00">::calc_speed</text>
</a>
</g>
</g>
<!-- Node20&#45;&gt;Node26 -->
<g id="edge26" class="edge"><title>Node20&#45;&gt;Node26</title>
<path fill="none" stroke="midnightblue" d="M398.565,-137.448C405.83,-134.411 413.226,-131.052 420,-127.5 437.031,-118.571 438.981,-112.452 456,-103.5 459.123,-101.857 462.384,-100.256 465.703,-98.7104"/>
<polygon fill="midnightblue" stroke="midnightblue" points="467.423,-101.776 475.139,-94.5156 464.58,-95.3795 467.423,-101.776"/>
</g>
<!-- Node27 -->
<g id="node27" class="node"><title>Node27</title>
<g id="a_node27"><a xlink:href="classlinear__theory__winds.html#a78baa74b650a59202683598d0b34fde2" target="_top" xlink:title="linear_theory_winds\l::calc_weight">
<polygon fill="white" stroke="black" points="465.5,-15.5 465.5,-45.5 568.5,-45.5 568.5,-15.5 465.5,-15.5"/>
<text text-anchor="start" x="473.5" y="-33.5" font-family="Helvetica,sans-Serif" font-size="10.00">linear_theory_winds</text>
<text text-anchor="middle" x="517" y="-22.5" font-family="Helvetica,sans-Serif" font-size="10.00">::calc_weight</text>
</a>
</g>
</g>
<!-- Node20&#45;&gt;Node27 -->
<g id="edge27" class="edge"><title>Node20&#45;&gt;Node27</title>
<path fill="none" stroke="midnightblue" d="M405.965,-137.393C411.039,-134.603 415.849,-131.33 420,-127.5 446.587,-102.969 429.447,-79.0676 456,-54.5 457.274,-53.3214 458.613,-52.1976 460.004,-51.1263"/>
<polygon fill="midnightblue" stroke="midnightblue" points="462.041,-53.9757 468.462,-45.5484 458.187,-48.132 462.041,-53.9757"/>
</g>
<!-- Node22 -->
<g id="node22" class="node"><title>Node22</title>
<g id="a_node22"><a xlink:href="classlinear__theory__winds.html#ad578ccb07e18c99e958d5ae7c43f3c19" target="_top" xlink:title="linear_theory_winds\l::calc_dry_stability">
<polygon fill="white" stroke="black" points="618,-161.5 618,-191.5 721,-191.5 721,-161.5 618,-161.5"/>
<text text-anchor="start" x="626" y="-179.5" font-family="Helvetica,sans-Serif" font-size="10.00">linear_theory_winds</text>
<text text-anchor="middle" x="669.5" y="-168.5" font-family="Helvetica,sans-Serif" font-size="10.00">::calc_dry_stability</text>
</a>
</g>
</g>
<!-- Node21&#45;&gt;Node22 -->
<g id="edge22" class="edge"><title>Node21&#45;&gt;Node22</title>
<path fill="none" stroke="midnightblue" d="M568.533,-177.164C581.066,-177.081 594.628,-176.991 607.599,-176.905"/>
<polygon fill="midnightblue" stroke="midnightblue" points="607.868,-180.403 617.844,-176.837 607.821,-173.403 607.868,-180.403"/>
</g>
<!-- Node23 -->
<g id="node23" class="node"><title>Node23</title>
<g id="a_node23"><a xlink:href="classlinear__theory__winds.html#af214d362ee340566892db3d7f0470c63" target="_top" xlink:title="linear_theory_winds\l::calc_moist_stability">
<polygon fill="white" stroke="black" points="615,-112.5 615,-142.5 724,-142.5 724,-112.5 615,-112.5"/>
<text text-anchor="start" x="623" y="-130.5" font-family="Helvetica,sans-Serif" font-size="10.00">linear_theory_winds</text>
<text text-anchor="middle" x="669.5" y="-119.5" font-family="Helvetica,sans-Serif" font-size="10.00">::calc_moist_stability</text>
</a>
</g>
</g>
<!-- Node21&#45;&gt;Node23 -->
<g id="edge23" class="edge"><title>Node21&#45;&gt;Node23</title>
<path fill="none" stroke="midnightblue" d="M563.155,-162.498C579.006,-157.232 596.99,-151.258 613.555,-145.754"/>
<polygon fill="midnightblue" stroke="midnightblue" points="614.731,-149.052 623.117,-142.577 612.524,-142.409 614.731,-149.052"/>
</g>
<!-- Node24 -->
<g id="node24" class="node"><title>Node24</title>
<g id="a_node24"><a xlink:href="classlinear__theory__winds.html#afe0e22332a64bd0a17cc533e6f1048fd" target="_top" xlink:title="linear_theory_winds\l::calc_sat_lapse_rate">
<polygon fill="white" stroke="black" points="763,-112.5 763,-142.5 873,-142.5 873,-112.5 763,-112.5"/>
<text text-anchor="start" x="771" y="-130.5" font-family="Helvetica,sans-Serif" font-size="10.00">linear_theory_winds</text>
<text text-anchor="middle" x="818" y="-119.5" font-family="Helvetica,sans-Serif" font-size="10.00">::calc_sat_lapse_rate</text>
</a>
</g>
</g>
<!-- Node23&#45;&gt;Node24 -->
<g id="edge24" class="edge"><title>Node23&#45;&gt;Node24</title>
<path fill="none" stroke="midnightblue" d="M724.219,-127.5C733.455,-127.5 743.137,-127.5 752.618,-127.5"/>
<polygon fill="midnightblue" stroke="midnightblue" points="752.797,-131 762.797,-127.5 752.797,-124 752.797,-131"/>
</g>
<!-- Node30 -->
<g id="node30" class="node"><title>Node30</title>
<g id="a_node30"><a xlink:href="classgeo.html#a61629d616a7b4ee1cd910362724f0f6d" target="_top" xlink:title=" Interpolate boundaries of fieldout to fieldin using geolut ">
<polygon fill="white" stroke="black" points="292,-50 292,-69 420,-69 420,-50 292,-50"/>
<text text-anchor="middle" x="356" y="-57" font-family="Helvetica,sans-Serif" font-size="10.00">geo::boundary_interpolate</text>
</a>
</g>
</g>
<!-- Node29&#45;&gt;Node30 -->
<g id="edge31" class="edge"><title>Node29&#45;&gt;Node30</title>
<path fill="none" stroke="midnightblue" d="M244.069,-85.9472C262.83,-81.4744 285.365,-76.1017 305.21,-71.3706"/>
<polygon fill="midnightblue" stroke="midnightblue" points="306.091,-74.7587 315.006,-69.0349 304.467,-67.9496 306.091,-74.7587"/>
</g>
<!-- Node32 -->
<g id="node32" class="node"><title>Node32</title>
<g id="a_node32"><a xlink:href="classvertical__interpolation.html#a2625ecb49efcd1aaccf31125071f03e4" target="_top" xlink:title="vertical_interpolation\l::vinterp_boundary">
<polygon fill="white" stroke="black" points="303,-0.5 303,-30.5 409,-30.5 409,-0.5 303,-0.5"/>
<text text-anchor="start" x="311" y="-18.5" font-family="Helvetica,sans-Serif" font-size="10.00">vertical_interpolation</text>
<text text-anchor="middle" x="356" y="-7.5" font-family="Helvetica,sans-Serif" font-size="10.00">::vinterp_boundary</text>
</a>
</g>
</g>
<!-- Node31&#45;&gt;Node32 -->
<g id="edge33" class="edge"><title>Node31&#45;&gt;Node32</title>
<path fill="none" stroke="midnightblue" d="M256.389,-31.1733C268.168,-29.3012 280.777,-27.297 292.909,-25.3687"/>
<polygon fill="midnightblue" stroke="midnightblue" points="293.633,-28.7978 302.959,-23.7714 292.534,-21.8846 293.633,-28.7978"/>
</g>
</g>
</svg>
        <g id="navigator" transform="translate(0 0)" fill="#404254">
                <rect fill="#f2f5e9" fill-opacity="0.5" stroke="#606060" stroke-width=".5" x="0" y="0" width="60" height="60"/>
                <use id="zoomplus" xlink:href="#zoomPlus" x="17" y="9" onmousedown="handleZoom(evt,'in')"/>
                <use id="zoomminus" xlink:href="#zoomMin" x="42" y="9" onmousedown="handleZoom(evt,'out')"/>
                <use id="reset" xlink:href="#resetDef" x="30" y="36" onmousedown="handleReset()"/>
                <g id="arrowUp" xlink:href="#dirArrow" transform="translate(30 24)" onmousedown="handlePan(0,-1)">
                  <use xlink:href="#rim" fill="#404040">
                        <set attributeName="fill" to="#808080" begin="arrowUp.mouseover" end="arrowUp.mouseout"/>
                  </use>
                  <path fill="none" stroke="white" stroke-width="1.5" d="M0,-3.0v7 M-2.5,-0.5L0,-3.0L2.5,-0.5"/>
                </g>
                <g id="arrowRight" xlink:href="#dirArrow" transform="rotate(90) translate(36 -43)" onmousedown="handlePan(1,0)">
                  <use xlink:href="#rim" fill="#404040">
                        <set attributeName="fill" to="#808080" begin="arrowRight.mouseover" end="arrowRight.mouseout"/>
                  </use>
                  <path fill="none" stroke="white" stroke-width="1.5" d="M0,-3.0v7 M-2.5,-0.5L0,-3.0L2.5,-0.5"/>
                </g>
                <g id="arrowDown" xlink:href="#dirArrow" transform="rotate(180) translate(-30 -48)" onmousedown="handlePan(0,1)">
                  <use xlink:href="#rim" fill="#404040">
                        <set attributeName="fill" to="#808080" begin="arrowDown.mouseover" end="arrowDown.mouseout"/>
                  </use>
                  <path fill="none" stroke="white" stroke-width="1.5" d="M0,-3.0v7 M-2.5,-0.5L0,-3.0L2.5,-0.5"/>
                </g>
                <g id="arrowLeft" xlink:href="#dirArrow" transform="rotate(270) translate(-36 17)" onmousedown="handlePan(-1,0)">
                  <use xlink:href="#rim" fill="#404040">
                        <set attributeName="fill" to="#808080" begin="arrowLeft.mouseover" end="arrowLeft.mouseout"/>
                  </use>
                  <path fill="none" stroke="white" stroke-width="1.5" d="M0,-3.0v7 M-2.5,-0.5L0,-3.0L2.5,-0.5"/>
                </g>
        </g>
        <svg viewBox="0 0 15 15" width="100%" height="30px" preserveAspectRatio="xMaxYMin meet">
         <g id="arrow_out" transform="scale(0.3 0.3)">
          <a xlink:href="classboundary__conditions_ac4cfb5127bfecdc6e088ef949694ea4a_cgraph_org.svg" target="_base">
           <rect id="button" ry="5" rx="5" y="6" x="6" height="38" width="38"
                fill="#f2f5e9" fill-opacity="0.5" stroke="#606060" stroke-width="1.0"/>
           <path id="arrow"
             d="M 11.500037,31.436501 C 11.940474,20.09759 22.043105,11.32322 32.158766,21.979434 L 37.068811,17.246167 C 37.068811,17.246167 37.088388,32 37.088388,32 L 22.160133,31.978069 C 22.160133,31.978069 26.997745,27.140456 26.997745,27.140456 C 18.528582,18.264221 13.291696,25.230495 11.500037,31.436501 z"
             style="fill:#404040;"/>
          </a>
         </g>
        </svg>
</svg>
