<?xml version="1.0" encoding="UTF-8" standalone="no"?>
<!DOCTYPE svg PUBLIC "-//W3C//DTD SVG 1.1//EN"
 "http://www.w3.org/Graphics/SVG/1.1/DTD/svg11.dtd">
<!-- Generated by graphviz version 2.32.0 (20130809.1645)
 -->
<!-- Title: module_mp_thompson::mp_thompson Pages: 1 -->
<svg width="276pt" height="87pt"
 viewBox="0.00 0.00 276.00 87.00" xmlns="http://www.w3.org/2000/svg" xmlns:xlink="http://www.w3.org/1999/xlink">
<g id="graph0" class="graph" transform="scale(1 1) rotate(0) translate(4 83)">
<title>module_mp_thompson::mp_thompson</title>
<polygon fill="white" stroke="white" points="-4,5 -4,-83 273,-83 273,5 -4,5"/>
<!-- Node1 -->
<g id="node1" class="node"><title>Node1</title>
<polygon fill="#bfbfbf" stroke="black" points="0.5,-24 0.5,-54 115.5,-54 115.5,-24 0.5,-24"/>
<text text-anchor="start" x="8.5" y="-42" font-family="Helvetica,sans-Serif" font-size="10.00">module_mp_thompson</text>
<text text-anchor="middle" x="58" y="-31" font-family="Helvetica,sans-Serif" font-size="10.00">::mp_thompson</text>
</g>
<!-- Node2 -->
<g id="node2" class="node"><title>Node2</title>
<g id="a_node2"><a xlink:href="classmodule__mp__thompson.html#a1dec755eb8c0e1e28e03af70d9817b96" target="_top" xlink:title="module_mp_thompson\l::rslf">
<polygon fill="white" stroke="black" points="152.5,-49 152.5,-79 267.5,-79 267.5,-49 152.5,-49"/>
<text text-anchor="start" x="160.5" y="-67" font-family="Helvetica,sans-Serif" font-size="10.00">module_mp_thompson</text>
<text text-anchor="middle" x="210" y="-56" font-family="Helvetica,sans-Serif" font-size="10.00">::rslf</text>
</a>
</g>
</g>
<!-- Node1&#45;&gt;Node2 -->
<g id="edge1" class="edge"><title>Node1&#45;&gt;Node2</title>
<path fill="none" stroke="midnightblue" d="M115.709,-48.4514C124.389,-49.8981 133.417,-51.4028 142.288,-52.8814"/>
<polygon fill="midnightblue" stroke="midnightblue" points="141.772,-56.3435 152.211,-54.5352 142.923,-49.4388 141.772,-56.3435"/>
</g>
<!-- Node3 -->
<g id="node3" class="node"><title>Node3</title>
<g id="a_node3"><a xlink:href="classmodule__mp__thompson.html#a67de3f9e0eff315e30c6567db69e3722" target="_top" xlink:title="module_mp_thompson\l::rsif">
<polygon fill="white" stroke="black" points="152.5,-0 152.5,-30 267.5,-30 267.5,-0 152.5,-0"/>
<text text-anchor="start" x="160.5" y="-18" font-family="Helvetica,sans-Serif" font-size="10.00">module_mp_thompson</text>
<text text-anchor="middle" x="210" y="-7" font-family="Helvetica,sans-Serif" font-size="10.00">::rsif</text>
</a>
</g>
</g>
<!-- Node1&#45;&gt;Node3 -->
<g id="edge2" class="edge"><title>Node1&#45;&gt;Node3</title>
<path fill="none" stroke="midnightblue" d="M115.709,-29.9266C124.389,-28.5378 133.417,-27.0933 142.288,-25.6739"/>
<polygon fill="midnightblue" stroke="midnightblue" points="142.89,-29.1222 152.211,-24.0862 141.784,-22.2101 142.89,-29.1222"/>
</g>
</g>
</svg>
