<?xml version="1.0" encoding="UTF-8" standalone="no"?>
<!DOCTYPE svg PUBLIC "-//W3C//DTD SVG 1.1//EN"
 "http://www.w3.org/Graphics/SVG/1.1/DTD/svg11.dtd">
<!-- Generated by graphviz version 2.38.0 (20140413.2041)
 -->
<!-- Title: output::output_init Pages: 1 -->
<svg width="313pt" height="56pt"
 viewBox="0.00 0.00 313.00 55.50" xmlns="http://www.w3.org/2000/svg" xmlns:xlink="http://www.w3.org/1999/xlink">
<g id="graph0" class="graph" transform="scale(1 1) rotate(0) translate(4 51.5)">
<title>output::output_init</title>
<polygon fill="white" stroke="none" points="-4,4 -4,-51.5 309,-51.5 309,4 -4,4"/>
<!-- Node1 -->
<g id="node1" class="node"><title>Node1</title>
<polygon fill="#bfbfbf" stroke="black" points="0,-0.5 0,-19.5 95,-19.5 95,-0.5 0,-0.5"/>
<text text-anchor="middle" x="47.5" y="-7.5" font-family="Helvetica,sans-Serif" font-size="10.00">output::output_init</text>
</g>
<!-- Node2 -->
<g id="node2" class="node"><title>Node2</title>
<g id="a_node2"><a xlink:href="classboundary__conditions.html#a07a42f467f470ada98e0a35fd5a75f66" target="_top" xlink:title=" Initialize the boundary conditions (read inital conditions, etc.) ">
<polygon fill="white" stroke="black" points="131,-17 131,-47 237,-47 237,-17 131,-17"/>
<text text-anchor="start" x="139" y="-35" font-family="Helvetica,sans-Serif" font-size="10.00">boundary_conditions</text>
<text text-anchor="middle" x="184" y="-24" font-family="Helvetica,sans-Serif" font-size="10.00">::bc_init</text>
</a>
</g>
</g>
<!-- Node1&#45;&gt;Node2 -->
<g id="edge1" class="edge"><title>Node1&#45;&gt;Node2</title>
<path fill="none" stroke="midnightblue" d="M105.072,-19.2535C113.635,-20.6541 122.435,-22.0934 130.897,-23.4775"/>
<polygon fill="midnightblue" stroke="midnightblue" points="105.598,-15.793 95.1641,-17.6328 104.468,-22.7012 105.598,-15.793"/>
</g>
<!-- Node3 -->
<g id="node3" class="node"><title>Node3</title>
<g id="a_node3"><a xlink:href="driver_8f90.html#ab1e5a5816a57fc6e95d9563c2bb53590" target="_top" xlink:title=" Main Program ">
<polygon fill="white" stroke="black" points="273,-0.5 273,-19.5 305,-19.5 305,-0.5 273,-0.5"/>
<text text-anchor="middle" x="289" y="-7.5" font-family="Helvetica,sans-Serif" font-size="10.00">icar</text>
</a>
</g>
</g>
<!-- Node1&#45;&gt;Node3 -->
<g id="edge3" class="edge"><title>Node1&#45;&gt;Node3</title>
<path fill="none" stroke="midnightblue" d="M105.205,-8.44427C113.846,-8.25962 122.66,-8.10108 131,-8 178.108,-7.42908 189.898,-7.07678 237,-8 249.049,-8.23616 262.689,-8.78585 272.83,-9.2493"/>
<polygon fill="midnightblue" stroke="midnightblue" points="105.099,-4.94568 95.1808,-8.67113 105.257,-11.9439 105.099,-4.94568"/>
</g>
<!-- Node2&#45;&gt;Node3 -->
<g id="edge2" class="edge"><title>Node2&#45;&gt;Node3</title>
<path fill="none" stroke="midnightblue" d="M247.071,-18.7421C256.517,-16.7244 265.468,-14.8126 272.576,-13.2944"/>
<polygon fill="midnightblue" stroke="midnightblue" points="246.152,-15.3594 237.104,-20.8711 247.614,-22.205 246.152,-15.3594"/>
</g>
</g>
</svg>
