<?xml version="1.0" encoding="UTF-8" standalone="no"?>
<!DOCTYPE svg PUBLIC "-//W3C//DTD SVG 1.1//EN"
 "http://www.w3.org/Graphics/SVG/1.1/DTD/svg11.dtd">
<!-- Generated by graphviz version 2.32.0 (20130809.1645)
 -->
<!-- Title: boundary_conditions::read_var Pages: 1 -->
<svg width="420pt" height="175pt"
 viewBox="0.00 0.00 420.00 175.00" xmlns="http://www.w3.org/2000/svg" xmlns:xlink="http://www.w3.org/1999/xlink">
<g id="graph0" class="graph" transform="scale(1 1) rotate(0) translate(4 171)">
<title>boundary_conditions::read_var</title>
<polygon fill="white" stroke="white" points="-4,5 -4,-171 417,-171 417,5 -4,5"/>
<!-- Node1 -->
<g id="node1" class="node"><title>Node1</title>
<polygon fill="#bfbfbf" stroke="black" points="0,-63 0,-93 106,-93 106,-63 0,-63"/>
<text text-anchor="start" x="8" y="-81" font-family="Helvetica,sans-Serif" font-size="10.00">boundary_conditions</text>
<text text-anchor="middle" x="53" y="-70" font-family="Helvetica,sans-Serif" font-size="10.00">::read_var</text>
</g>
<!-- Node2 -->
<g id="node2" class="node"><title>Node2</title>
<g id="a_node2"><a xlink:href="interfaceio__routines_1_1io__read.html#a9b6dacfccbb234dd949e7136e5b67f8c" target="_top" xlink:title=" Same as io_read6d but for 3&#45;dimensional data ">
<polygon fill="white" stroke="black" points="144.5,-137 144.5,-167 245.5,-167 245.5,-137 144.5,-137"/>
<text text-anchor="start" x="152.5" y="-155" font-family="Helvetica,sans-Serif" font-size="10.00">io_routines::io_read</text>
<text text-anchor="middle" x="195" y="-144" font-family="Helvetica,sans-Serif" font-size="10.00">::io_read3d</text>
</a>
</g>
</g>
<!-- Node1&#45;&gt;Node2 -->
<g id="edge1" class="edge"><title>Node1&#45;&gt;Node2</title>
<path fill="none" stroke="midnightblue" d="M80.3467,-93.2128C97.7144,-103.106 121.04,-116.139 142,-127 145.502,-128.815 149.157,-130.663 152.835,-132.491"/>
<polygon fill="midnightblue" stroke="midnightblue" points="151.431,-135.7 161.95,-136.963 154.514,-129.416 151.431,-135.7"/>
</g>
<!-- Node3 -->
<g id="node3" class="node"><title>Node3</title>
<g id="a_node3"><a xlink:href="classboundary__conditions.html#a4ea743610f85b3c52d69af94085b5bfa" target="_top" xlink:title=" Smooth an array (written for wind but will work for anything) ">
<polygon fill="white" stroke="black" points="142,-88 142,-118 248,-118 248,-88 142,-88"/>
<text text-anchor="start" x="150" y="-106" font-family="Helvetica,sans-Serif" font-size="10.00">boundary_conditions</text>
<text text-anchor="middle" x="195" y="-95" font-family="Helvetica,sans-Serif" font-size="10.00">::smooth_wind</text>
</a>
</g>
</g>
<!-- Node1&#45;&gt;Node3 -->
<g id="edge2" class="edge"><title>Node1&#45;&gt;Node3</title>
<path fill="none" stroke="midnightblue" d="M106.131,-87.3091C114.512,-88.8058 123.26,-90.3679 131.849,-91.9015"/>
<polygon fill="midnightblue" stroke="midnightblue" points="131.366,-95.3707 141.826,-93.6831 132.597,-88.4797 131.366,-95.3707"/>
</g>
<!-- Node4 -->
<g id="node4" class="node"><title>Node4</title>
<g id="a_node4"><a xlink:href="classvertical__interpolation.html#a2d3f85573f18ea2ab18d6dcdec6a025a" target="_top" xlink:title="vertical_interpolation\l::vinterp">
<polygon fill="white" stroke="black" points="142,-39 142,-69 248,-69 248,-39 142,-39"/>
<text text-anchor="start" x="150" y="-57" font-family="Helvetica,sans-Serif" font-size="10.00">vertical_interpolation</text>
<text text-anchor="middle" x="195" y="-46" font-family="Helvetica,sans-Serif" font-size="10.00">::vinterp</text>
</a>
</g>
</g>
<!-- Node1&#45;&gt;Node4 -->
<g id="edge3" class="edge"><title>Node1&#45;&gt;Node4</title>
<path fill="none" stroke="midnightblue" d="M106.131,-69.0633C114.512,-67.6264 123.26,-66.1268 131.849,-64.6545"/>
<polygon fill="midnightblue" stroke="midnightblue" points="132.561,-68.0836 141.826,-62.9442 131.378,-61.1842 132.561,-68.0836"/>
</g>
<!-- Node6 -->
<g id="node6" class="node"><title>Node6</title>
<g id="a_node6"><a xlink:href="classgeo.html#acb54dc322e31524d40cc746c37b28898" target="_top" xlink:title="geo::geo_interp">
<polygon fill="white" stroke="black" points="153.5,-0.5 153.5,-19.5 236.5,-19.5 236.5,-0.5 153.5,-0.5"/>
<text text-anchor="middle" x="195" y="-7.5" font-family="Helvetica,sans-Serif" font-size="10.00">geo::geo_interp</text>
</a>
</g>
</g>
<!-- Node1&#45;&gt;Node6 -->
<g id="edge5" class="edge"><title>Node1&#45;&gt;Node6</title>
<path fill="none" stroke="midnightblue" d="M78.4924,-62.9886C95.8539,-52.6914 119.898,-39.1146 142,-29 146.411,-26.9814 151.104,-25.0203 155.796,-23.1724"/>
<polygon fill="midnightblue" stroke="midnightblue" points="157.225,-26.3737 165.335,-19.5563 154.744,-19.8282 157.225,-26.3737"/>
</g>
<!-- Node5 -->
<g id="node5" class="node"><title>Node5</title>
<g id="a_node5"><a xlink:href="classvertical__interpolation.html#a2625ecb49efcd1aaccf31125071f03e4" target="_top" xlink:title="vertical_interpolation\l::vinterp_boundary">
<polygon fill="white" stroke="black" points="295,-39 295,-69 401,-69 401,-39 295,-39"/>
<text text-anchor="start" x="303" y="-57" font-family="Helvetica,sans-Serif" font-size="10.00">vertical_interpolation</text>
<text text-anchor="middle" x="348" y="-46" font-family="Helvetica,sans-Serif" font-size="10.00">::vinterp_boundary</text>
</a>
</g>
</g>
<!-- Node4&#45;&gt;Node5 -->
<g id="edge4" class="edge"><title>Node4&#45;&gt;Node5</title>
<path fill="none" stroke="midnightblue" d="M248.389,-54C260.168,-54 272.777,-54 284.909,-54"/>
<polygon fill="midnightblue" stroke="midnightblue" points="284.959,-57.5001 294.959,-54 284.959,-50.5001 284.959,-57.5001"/>
</g>
<!-- Node7 -->
<g id="node7" class="node"><title>Node7</title>
<g id="a_node7"><a xlink:href="classgeo.html#a61629d616a7b4ee1cd910362724f0f6d" target="_top" xlink:title="geo::boundary_interpolate">
<polygon fill="white" stroke="black" points="284,-0.5 284,-19.5 412,-19.5 412,-0.5 284,-0.5"/>
<text text-anchor="middle" x="348" y="-7.5" font-family="Helvetica,sans-Serif" font-size="10.00">geo::boundary_interpolate</text>
</a>
</g>
</g>
<!-- Node6&#45;&gt;Node7 -->
<g id="edge6" class="edge"><title>Node6&#45;&gt;Node7</title>
<path fill="none" stroke="midnightblue" d="M236.863,-10C248.303,-10 261.098,-10 273.806,-10"/>
<polygon fill="midnightblue" stroke="midnightblue" points="273.952,-13.5001 283.952,-10 273.952,-6.5001 273.952,-13.5001"/>
</g>
</g>
</svg>
