<?xml version="1.0" encoding="UTF-8" standalone="no"?>
<!DOCTYPE svg PUBLIC "-//W3C//DTD SVG 1.1//EN"
 "http://www.w3.org/Graphics/SVG/1.1/DTD/svg11.dtd">
<!-- Generated by graphviz version 2.32.0 (20130809.1645)
 -->
<!-- Title: initialize_options::init_options Pages: 1 -->
<!--zoomable 762 -->
<svg id="main" version="1.1" xmlns="http://www.w3.org/2000/svg" xmlns:xlink="http://www.w3.org/1999/xlink" xml:space="preserve" onload="init(evt)">
<style type="text/css"><![CDATA[
.edge:hover path { stroke: red; }
.edge:hover polygon { stroke: red; fill: red; }
]]></style>
<script type="text/javascript"><![CDATA[
var edges = document.getElementsByTagName('g');
if (edges && edges.length) {
  for (var i=0;i<edges.length;i++) {
    if (edges[i].id.substr(0,4)=='edge') {
      edges[i].setAttribute('class','edge');
    }
  }
}
]]></script>
        <defs>
                <circle id="rim" cx="0" cy="0" r="7"/>
                <circle id="rim2" cx="0" cy="0" r="3.5"/>
                <g id="zoomPlus">
                        <use xlink:href="#rim" fill="#404040">
                                <set attributeName="fill" to="#808080" begin="zoomplus.mouseover" end="zoomplus.mouseout"/>
                        </use>
                        <path d="M-4,0h8M0,-4v8" fill="none" stroke="white" stroke-width="1.5" pointer-events="none"/>
                </g>
                <g id="zoomMin">
                        <use xlink:href="#rim" fill="#404040">
                                <set attributeName="fill" to="#808080" begin="zoomminus.mouseover" end="zoomminus.mouseout"/>
                        </use>
                        <path d="M-4,0h8" fill="none" stroke="white" stroke-width="1.5" pointer-events="none"/>
                </g>
                <g id="dirArrow">
                        <path fill="none" stroke="white" stroke-width="1.5" d="M0,-3.0v7 M-2.5,-0.5L0,-3.0L2.5,-0.5"/>
                </g>
               <g id="resetDef">
                       <use xlink:href="#rim2" fill="#404040">
                               <set attributeName="fill" to="#808080" begin="reset.mouseover" end="reset.mouseout"/>
                       </use>
               </g>
        </defs>

<script type="text/javascript">
var viewWidth = 728;
var viewHeight = 762;
var sectionId = 'dynsection-5';
</script>
<script xlink:href="svgpan.js"/>
<svg id="graph" class="graph">
<g id="viewport">
<title>initialize_options::init_options</title>
<polygon fill="white" stroke="white" points="-4,5 -4,-758.054 725,-758.054 725,5 -4,5"/>
<!-- Node1 -->
<g id="node1" class="node"><title>Node1</title>
<polygon fill="#bfbfbf" stroke="black" points="0.5,-415 0.5,-445 89.5,-445 89.5,-415 0.5,-415"/>
<text text-anchor="start" x="8.5" y="-433" font-family="Helvetica,sans-Serif" font-size="10.00">initialize_options</text>
<text text-anchor="middle" x="45" y="-422" font-family="Helvetica,sans-Serif" font-size="10.00">::init_options</text>
</g>
<!-- Node2 -->
<g id="node2" class="node"><title>Node2</title>
<g id="a_node2"><a xlink:href="classinitialize__options.html#a09a50b9cb8e065acef2d92f2a1b615fd" target="_top" xlink:title="initialize_options\l::get_options_file">
<polygon fill="white" stroke="black" points="317.5,-591 317.5,-621 408.5,-621 408.5,-591 317.5,-591"/>
<text text-anchor="start" x="325.5" y="-609" font-family="Helvetica,sans-Serif" font-size="10.00">initialize_options</text>
<text text-anchor="middle" x="363" y="-598" font-family="Helvetica,sans-Serif" font-size="10.00">::get_options_file</text>
</a>
</g>
</g>
<!-- Node1&#45;&gt;Node2 -->
<g id="edge1" class="edge"><title>Node1&#45;&gt;Node2</title>
<path fill="none" stroke="midnightblue" d="M48.751,-445.225C55.4638,-477.47 75.9482,-552.434 126,-586 179.515,-621.889 255.943,-621.335 307.181,-615.506"/>
<polygon fill="midnightblue" stroke="midnightblue" points="307.904,-618.943 317.396,-614.236 307.041,-611.996 307.904,-618.943"/>
</g>
<!-- Node3 -->
<g id="node3" class="node"><title>Node3</title>
<g id="a_node3"><a xlink:href="classinitialize__options.html#a7161e810e27d3c830e135c3811ae290b" target="_top" xlink:title="initialize_options\l::version_check">
<polygon fill="white" stroke="black" points="318.5,-679 318.5,-709 407.5,-709 407.5,-679 318.5,-679"/>
<text text-anchor="start" x="326.5" y="-697" font-family="Helvetica,sans-Serif" font-size="10.00">initialize_options</text>
<text text-anchor="middle" x="363" y="-686" font-family="Helvetica,sans-Serif" font-size="10.00">::version_check</text>
</a>
</g>
</g>
<!-- Node1&#45;&gt;Node3 -->
<g id="edge2" class="edge"><title>Node1&#45;&gt;Node3</title>
<path fill="none" stroke="midnightblue" d="M45.7088,-445.177C45.7807,-488.937 52.5773,-615.919 126,-674 177.246,-714.538 255.804,-712.456 308.022,-705.045"/>
<polygon fill="midnightblue" stroke="midnightblue" points="308.743,-708.476 318.098,-703.503 307.684,-701.556 308.743,-708.476"/>
</g>
<!-- Node7 -->
<g id="node7" class="node"><title>Node7</title>
<g id="a_node7"><a xlink:href="classinitialize__options.html#ad6b38b82a6d2ce60e8a7985fa0af9f5c" target="_top" xlink:title="initialize_options\l::physics_namelist">
<polygon fill="white" stroke="black" points="314,-415 314,-445 412,-445 412,-415 314,-415"/>
<text text-anchor="start" x="322" y="-433" font-family="Helvetica,sans-Serif" font-size="10.00">initialize_options</text>
<text text-anchor="middle" x="363" y="-422" font-family="Helvetica,sans-Serif" font-size="10.00">::physics_namelist</text>
</a>
</g>
</g>
<!-- Node1&#45;&gt;Node7 -->
<g id="edge6" class="edge"><title>Node1&#45;&gt;Node7</title>
<path fill="none" stroke="midnightblue" d="M89.6067,-430C145.34,-430 242.001,-430 303.927,-430"/>
<polygon fill="midnightblue" stroke="midnightblue" points="303.934,-433.5 313.934,-430 303.934,-426.5 303.934,-433.5"/>
</g>
<!-- Node8 -->
<g id="node8" class="node"><title>Node8</title>
<g id="a_node8"><a xlink:href="classinitialize__options.html#a141165ac65b43c1947dbaa1a5acb70ae" target="_top" xlink:title="initialize_options\l::var_namelist">
<polygon fill="white" stroke="black" points="318.5,-366 318.5,-396 407.5,-396 407.5,-366 318.5,-366"/>
<text text-anchor="start" x="326.5" y="-384" font-family="Helvetica,sans-Serif" font-size="10.00">initialize_options</text>
<text text-anchor="middle" x="363" y="-373" font-family="Helvetica,sans-Serif" font-size="10.00">::var_namelist</text>
</a>
</g>
</g>
<!-- Node1&#45;&gt;Node8 -->
<g id="edge8" class="edge"><title>Node1&#45;&gt;Node8</title>
<path fill="none" stroke="midnightblue" d="M89.6067,-423.238C146.703,-414.385 246.755,-398.87 308.408,-389.31"/>
<polygon fill="midnightblue" stroke="midnightblue" points="308.988,-392.762 318.334,-387.771 307.916,-385.845 308.988,-392.762"/>
</g>
<!-- Node9 -->
<g id="node9" class="node"><title>Node9</title>
<g id="a_node9"><a xlink:href="classinitialize__options.html#ab0058e1f8dbc07d787cc0705c5d9366a" target="_top" xlink:title="initialize_options\l::parameters_namelist">
<polygon fill="white" stroke="black" points="136.5,-158 136.5,-188 249.5,-188 249.5,-158 136.5,-158"/>
<text text-anchor="start" x="144.5" y="-176" font-family="Helvetica,sans-Serif" font-size="10.00">initialize_options</text>
<text text-anchor="middle" x="193" y="-165" font-family="Helvetica,sans-Serif" font-size="10.00">::parameters_namelist</text>
</a>
</g>
</g>
<!-- Node1&#45;&gt;Node9 -->
<g id="edge10" class="edge"><title>Node1&#45;&gt;Node9</title>
<path fill="none" stroke="midnightblue" d="M53.2051,-414.658C66.637,-386.364 96.7953,-324.266 126,-274 141.858,-246.706 161.917,-216.547 175.735,-196.354"/>
<polygon fill="midnightblue" stroke="midnightblue" points="178.64,-198.307 181.426,-188.085 172.873,-194.338 178.64,-198.307"/>
</g>
<!-- Node13 -->
<g id="node13" class="node"><title>Node13</title>
<g id="a_node13"><a xlink:href="classinitialize__options.html#a14f98c882d07ead49841d25d7de75d4c" target="_top" xlink:title="initialize_options\l::model_levels_namelist">
<polygon fill="white" stroke="black" points="132,-333 132,-363 254,-363 254,-333 132,-333"/>
<text text-anchor="start" x="140" y="-351" font-family="Helvetica,sans-Serif" font-size="10.00">initialize_options</text>
<text text-anchor="middle" x="193" y="-340" font-family="Helvetica,sans-Serif" font-size="10.00">::model_levels_namelist</text>
</a>
</g>
</g>
<!-- Node1&#45;&gt;Node13 -->
<g id="edge15" class="edge"><title>Node1&#45;&gt;Node13</title>
<path fill="none" stroke="midnightblue" d="M67.1931,-414.976C83.0158,-404.071 105.374,-389.308 126,-378 132.601,-374.381 139.721,-370.815 146.756,-367.476"/>
<polygon fill="midnightblue" stroke="midnightblue" points="148.64,-370.46 156.24,-363.078 145.696,-364.109 148.64,-370.46"/>
</g>
<!-- Node14 -->
<g id="node14" class="node"><title>Node14</title>
<g id="a_node14"><a xlink:href="classinitialize__options.html#acf012270ed53d51ad745344175d1d8ae" target="_top" xlink:title="initialize_options\l::lt_parameters_namelist">
<polygon fill="white" stroke="black" points="131,-723 131,-753 255,-753 255,-723 131,-723"/>
<text text-anchor="start" x="139" y="-741" font-family="Helvetica,sans-Serif" font-size="10.00">initialize_options</text>
<text text-anchor="middle" x="193" y="-730" font-family="Helvetica,sans-Serif" font-size="10.00">::lt_parameters_namelist</text>
</a>
</g>
</g>
<!-- Node1&#45;&gt;Node14 -->
<g id="edge17" class="edge"><title>Node1&#45;&gt;Node14</title>
<path fill="none" stroke="midnightblue" d="M46.1275,-445.314C47.3074,-490.945 56.7501,-627.788 126,-708 129.043,-711.525 132.586,-714.658 136.419,-717.438"/>
<polygon fill="midnightblue" stroke="midnightblue" points="134.871,-720.6 145.196,-722.977 138.607,-714.68 134.871,-720.6"/>
</g>
<!-- Node15 -->
<g id="node15" class="node"><title>Node15</title>
<g id="a_node15"><a xlink:href="classinitialize__options.html#acc4c031c2e7521b9eb81f779a67acb3b" target="_top" xlink:title="initialize_options\l::mp_parameters_namelist">
<polygon fill="white" stroke="black" points="127,-635 127,-665 259,-665 259,-635 127,-635"/>
<text text-anchor="start" x="135" y="-653" font-family="Helvetica,sans-Serif" font-size="10.00">initialize_options</text>
<text text-anchor="middle" x="193" y="-642" font-family="Helvetica,sans-Serif" font-size="10.00">::mp_parameters_namelist</text>
</a>
</g>
</g>
<!-- Node1&#45;&gt;Node15 -->
<g id="edge21" class="edge"><title>Node1&#45;&gt;Node15</title>
<path fill="none" stroke="midnightblue" d="M48.498,-445.137C55.031,-480.271 75.7261,-568.293 126,-620 129.582,-623.684 133.701,-626.957 138.093,-629.855"/>
<polygon fill="midnightblue" stroke="midnightblue" points="136.414,-632.927 146.809,-634.976 139.96,-626.892 136.414,-632.927"/>
</g>
<!-- Node16 -->
<g id="node16" class="node"><title>Node16</title>
<g id="a_node16"><a xlink:href="classinitialize__options.html#a502d4a0df0fedb55f73b9afb2e130107" target="_top" xlink:title="initialize_options\l::adv_parameters_namelist">
<polygon fill="white" stroke="black" points="126,-547 126,-577 260,-577 260,-547 126,-547"/>
<text text-anchor="start" x="134" y="-565" font-family="Helvetica,sans-Serif" font-size="10.00">initialize_options</text>
<text text-anchor="middle" x="193" y="-554" font-family="Helvetica,sans-Serif" font-size="10.00">::adv_parameters_namelist</text>
</a>
</g>
</g>
<!-- Node1&#45;&gt;Node16 -->
<g id="edge25" class="edge"><title>Node1&#45;&gt;Node16</title>
<path fill="none" stroke="midnightblue" d="M53.7361,-445.288C66.0699,-468.238 92.278,-511.606 126,-537 128.465,-538.856 131.084,-540.59 133.803,-542.206"/>
<polygon fill="midnightblue" stroke="midnightblue" points="132.288,-545.364 142.759,-546.977 135.579,-539.186 132.288,-545.364"/>
</g>
<!-- Node17 -->
<g id="node17" class="node"><title>Node17</title>
<g id="a_node17"><a xlink:href="classinitialize__options.html#a71b56485a92a10478bb1179e3294c013" target="_top" xlink:title="initialize_options\l::lsm_parameters_namelist">
<polygon fill="white" stroke="black" points="126,-498 126,-528 260,-528 260,-498 126,-498"/>
<text text-anchor="start" x="134" y="-516" font-family="Helvetica,sans-Serif" font-size="10.00">initialize_options</text>
<text text-anchor="middle" x="193" y="-505" font-family="Helvetica,sans-Serif" font-size="10.00">::lsm_parameters_namelist</text>
</a>
</g>
</g>
<!-- Node1&#45;&gt;Node17 -->
<g id="edge29" class="edge"><title>Node1&#45;&gt;Node17</title>
<path fill="none" stroke="midnightblue" d="M72.4395,-445.031C95.9619,-458.403 130.554,-478.068 156.485,-492.81"/>
<polygon fill="midnightblue" stroke="midnightblue" points="154.841,-495.901 165.264,-497.801 158.3,-489.816 154.841,-495.901"/>
</g>
<!-- Node19 -->
<g id="node19" class="node"><title>Node19</title>
<g id="a_node19"><a xlink:href="classinitialize__options.html#aa5c0f26f48774390be64bb2fc8243db6" target="_top" xlink:title="initialize_options\l::init_restart_options">
<polygon fill="white" stroke="black" points="140.5,-82 140.5,-112 245.5,-112 245.5,-82 140.5,-82"/>
<text text-anchor="start" x="148.5" y="-100" font-family="Helvetica,sans-Serif" font-size="10.00">initialize_options</text>
<text text-anchor="middle" x="193" y="-89" font-family="Helvetica,sans-Serif" font-size="10.00">::init_restart_options</text>
</a>
</g>
</g>
<!-- Node1&#45;&gt;Node19 -->
<g id="edge34" class="edge"><title>Node1&#45;&gt;Node19</title>
<path fill="none" stroke="midnightblue" d="M46.9957,-414.851C50.5771,-370.208 65.9856,-236.735 126,-148 133.952,-136.243 145.489,-126.013 156.702,-117.864"/>
<polygon fill="midnightblue" stroke="midnightblue" points="158.897,-120.602 165.147,-112.047 154.926,-114.837 158.897,-120.602"/>
</g>
<!-- Node22 -->
<g id="node22" class="node"><title>Node22</title>
<g id="a_node22"><a xlink:href="classinitialize__options.html#af329549f76b4aa24da83a0f292e32088" target="_top" xlink:title="initialize_options\l::filename_namelist">
<polygon fill="white" stroke="black" points="142.5,-284 142.5,-314 243.5,-314 243.5,-284 142.5,-284"/>
<text text-anchor="start" x="150.5" y="-302" font-family="Helvetica,sans-Serif" font-size="10.00">initialize_options</text>
<text text-anchor="middle" x="193" y="-291" font-family="Helvetica,sans-Serif" font-size="10.00">::filename_namelist</text>
</a>
</g>
</g>
<!-- Node1&#45;&gt;Node22 -->
<g id="edge39" class="edge"><title>Node1&#45;&gt;Node22</title>
<path fill="none" stroke="midnightblue" d="M53.6939,-414.656C65.9726,-391.632 92.1097,-348.169 126,-323 128.34,-321.262 130.819,-319.64 133.389,-318.126"/>
<polygon fill="midnightblue" stroke="midnightblue" points="135.188,-321.135 142.418,-313.39 131.937,-314.936 135.188,-321.135"/>
</g>
<!-- Node24 -->
<g id="node24" class="node"><title>Node24</title>
<g id="a_node24"><a xlink:href="classinitialize__options.html#a1b4956e6e37b255118956f900511b45d" target="_top" xlink:title="initialize_options\l::options_check">
<polygon fill="white" stroke="black" points="148.5,-33 148.5,-63 237.5,-63 237.5,-33 148.5,-33"/>
<text text-anchor="start" x="156.5" y="-51" font-family="Helvetica,sans-Serif" font-size="10.00">initialize_options</text>
<text text-anchor="middle" x="193" y="-40" font-family="Helvetica,sans-Serif" font-size="10.00">::options_check</text>
</a>
</g>
</g>
<!-- Node1&#45;&gt;Node24 -->
<g id="edge43" class="edge"><title>Node1&#45;&gt;Node24</title>
<path fill="none" stroke="midnightblue" d="M47.4723,-414.719C53.6778,-353.256 79.5477,-124.863 126,-72 129.722,-67.7641 134.254,-64.2754 139.181,-61.4021"/>
<polygon fill="midnightblue" stroke="midnightblue" points="140.963,-64.4258 148.387,-56.8666 137.869,-58.1465 140.963,-64.4258"/>
</g>
<!-- Node4 -->
<g id="node4" class="node"><title>Node4</title>
<g id="a_node4"><a xlink:href="classio__routines.html#a754b76158aa8311e1ee112004ddae52b" target="_top" xlink:title=" Find an available file unit number. ">
<polygon fill="white" stroke="black" points="466,-395.5 466,-414.5 582,-414.5 582,-395.5 466,-395.5"/>
<text text-anchor="middle" x="524" y="-402.5" font-family="Helvetica,sans-Serif" font-size="10.00">io_routines::io_newunit</text>
</a>
</g>
</g>
<!-- Node3&#45;&gt;Node4 -->
<g id="edge3" class="edge"><title>Node3&#45;&gt;Node4</title>
<path fill="none" stroke="midnightblue" d="M407.758,-680.114C415.953,-675.954 423.86,-670.665 430,-664 495.643,-592.748 515.645,-471.868 521.124,-424.688"/>
<polygon fill="midnightblue" stroke="midnightblue" points="524.621,-424.905 522.201,-414.59 517.66,-424.163 524.621,-424.905"/>
</g>
<!-- Node5 -->
<g id="node5" class="node"><title>Node5</title>
<g id="a_node5"><a xlink:href="classmodel__tracking.html#a0c78b5716b846487efd52d7b78dae261" target="_top" xlink:title="model_tracking::print\l_model_diffs">
<polygon fill="white" stroke="black" points="470.5,-679 470.5,-709 577.5,-709 577.5,-679 470.5,-679"/>
<text text-anchor="start" x="478.5" y="-697" font-family="Helvetica,sans-Serif" font-size="10.00">model_tracking::print</text>
<text text-anchor="middle" x="524" y="-686" font-family="Helvetica,sans-Serif" font-size="10.00">_model_diffs</text>
</a>
</g>
</g>
<!-- Node3&#45;&gt;Node5 -->
<g id="edge4" class="edge"><title>Node3&#45;&gt;Node5</title>
<path fill="none" stroke="midnightblue" d="M407.868,-694C424.005,-694 442.61,-694 460.095,-694"/>
<polygon fill="midnightblue" stroke="midnightblue" points="460.233,-697.5 470.233,-694 460.233,-690.5 460.233,-697.5"/>
</g>
<!-- Node6 -->
<g id="node6" class="node"><title>Node6</title>
<g id="a_node6"><a xlink:href="classmodel__tracking.html#a417ef049855367c1fb14cadf2203536f" target="_top" xlink:title="model_tracking::init\l_model_diffs">
<polygon fill="white" stroke="black" points="618.5,-679 618.5,-709 719.5,-709 719.5,-679 618.5,-679"/>
<text text-anchor="start" x="626.5" y="-697" font-family="Helvetica,sans-Serif" font-size="10.00">model_tracking::init</text>
<text text-anchor="middle" x="669" y="-686" font-family="Helvetica,sans-Serif" font-size="10.00">_model_diffs</text>
</a>
</g>
</g>
<!-- Node5&#45;&gt;Node6 -->
<g id="edge5" class="edge"><title>Node5&#45;&gt;Node6</title>
<path fill="none" stroke="midnightblue" d="M577.842,-694C587.644,-694 597.949,-694 607.948,-694"/>
<polygon fill="midnightblue" stroke="midnightblue" points="608.222,-697.5 618.222,-694 608.222,-690.5 608.222,-697.5"/>
</g>
<!-- Node7&#45;&gt;Node4 -->
<g id="edge7" class="edge"><title>Node7&#45;&gt;Node4</title>
<path fill="none" stroke="midnightblue" d="M412.137,-422.431C425.876,-420.271 441.103,-417.877 455.76,-415.572"/>
<polygon fill="midnightblue" stroke="midnightblue" points="456.456,-419.006 465.791,-413.995 455.369,-412.091 456.456,-419.006"/>
</g>
<!-- Node8&#45;&gt;Node4 -->
<g id="edge9" class="edge"><title>Node8&#45;&gt;Node4</title>
<path fill="none" stroke="midnightblue" d="M407.868,-387.622C422.712,-389.862 439.645,-392.418 455.873,-394.868"/>
<polygon fill="midnightblue" stroke="midnightblue" points="455.451,-398.344 465.861,-396.375 456.496,-391.422 455.451,-398.344"/>
</g>
<!-- Node9&#45;&gt;Node4 -->
<g id="edge11" class="edge"><title>Node9&#45;&gt;Node4</title>
<path fill="none" stroke="midnightblue" d="M249.781,-183.969C314.951,-197.171 415.74,-218.941 430,-230 482.234,-270.51 508.447,-348.781 518.275,-385.318"/>
<polygon fill="midnightblue" stroke="midnightblue" points="514.942,-386.409 520.81,-395.23 521.723,-384.674 514.942,-386.409"/>
</g>
<!-- Node10 -->
<g id="node10" class="node"><title>Node10</title>
<g id="a_node10"><a xlink:href="classtime.html#ac7c0f37ed6d5c1c0bc9b1a75132c9edd" target="_top" xlink:title="time::parse_date">
<polygon fill="white" stroke="black" points="318.5,-163.5 318.5,-182.5 407.5,-182.5 407.5,-163.5 318.5,-163.5"/>
<text text-anchor="middle" x="363" y="-170.5" font-family="Helvetica,sans-Serif" font-size="10.00">time::parse_date</text>
</a>
</g>
</g>
<!-- Node9&#45;&gt;Node10 -->
<g id="edge12" class="edge"><title>Node9&#45;&gt;Node10</title>
<path fill="none" stroke="midnightblue" d="M249.942,-173C268.707,-173 289.583,-173 308.182,-173"/>
<polygon fill="midnightblue" stroke="midnightblue" points="308.252,-176.5 318.252,-173 308.252,-169.5 308.252,-176.5"/>
</g>
<!-- Node11 -->
<g id="node11" class="node"><title>Node11</title>
<g id="a_node11"><a xlink:href="classtime.html#aac5c3bacccd51257742cb682e405d080" target="_top" xlink:title="time::time_init">
<polygon fill="white" stroke="black" points="324,-125.5 324,-144.5 402,-144.5 402,-125.5 324,-125.5"/>
<text text-anchor="middle" x="363" y="-132.5" font-family="Helvetica,sans-Serif" font-size="10.00">time::time_init</text>
</a>
</g>
</g>
<!-- Node9&#45;&gt;Node11 -->
<g id="edge13" class="edge"><title>Node9&#45;&gt;Node11</title>
<path fill="none" stroke="midnightblue" d="M249.942,-160.347C270.682,-155.655 294.001,-150.381 313.975,-145.863"/>
<polygon fill="midnightblue" stroke="midnightblue" points="314.802,-149.264 323.783,-143.644 313.257,-142.437 314.802,-149.264"/>
</g>
<!-- Node12 -->
<g id="node12" class="node"><title>Node12</title>
<g id="a_node12"><a xlink:href="classtime.html#a22e63418fe5d559327ca090619d097e0" target="_top" xlink:title="time::date_to_mjd">
<polygon fill="white" stroke="black" points="315.5,-87.5 315.5,-106.5 410.5,-106.5 410.5,-87.5 315.5,-87.5"/>
<text text-anchor="middle" x="363" y="-94.5" font-family="Helvetica,sans-Serif" font-size="10.00">time::date_to_mjd</text>
</a>
</g>
</g>
<!-- Node9&#45;&gt;Node12 -->
<g id="edge14" class="edge"><title>Node9&#45;&gt;Node12</title>
<path fill="none" stroke="midnightblue" d="M217.535,-157.797C237.722,-145.265 267.914,-127.708 296,-116 301.499,-113.708 307.367,-111.586 313.248,-109.656"/>
<polygon fill="midnightblue" stroke="midnightblue" points="314.589,-112.905 323.098,-106.593 312.51,-106.221 314.589,-112.905"/>
</g>
<!-- Node13&#45;&gt;Node4 -->
<g id="edge16" class="edge"><title>Node13&#45;&gt;Node4</title>
<path fill="none" stroke="midnightblue" d="M254.218,-343.164C302.548,-340.972 371.711,-341.663 430,-357 455.737,-363.772 482.467,-378.508 500.628,-389.877"/>
<polygon fill="midnightblue" stroke="midnightblue" points="498.991,-392.986 509.294,-395.456 502.78,-387.1 498.991,-392.986"/>
</g>
<!-- Node14&#45;&gt;Node2 -->
<g id="edge18" class="edge"><title>Node14&#45;&gt;Node2</title>
<path fill="none" stroke="midnightblue" d="M213.272,-722.858C243.067,-699.447 300.432,-654.375 334.552,-627.566"/>
<polygon fill="midnightblue" stroke="midnightblue" points="336.994,-630.099 342.695,-621.168 332.669,-624.594 336.994,-630.099"/>
</g>
<!-- Node14&#45;&gt;Node3 -->
<g id="edge19" class="edge"><title>Node14&#45;&gt;Node3</title>
<path fill="none" stroke="midnightblue" d="M251.346,-722.981C269.873,-718.128 290.33,-712.771 308.562,-707.996"/>
<polygon fill="midnightblue" stroke="midnightblue" points="309.649,-711.329 318.436,-705.41 307.876,-704.557 309.649,-711.329"/>
</g>
<!-- Node14&#45;&gt;Node4 -->
<g id="edge20" class="edge"><title>Node14&#45;&gt;Node4</title>
<path fill="none" stroke="midnightblue" d="M255.203,-750.316C307.418,-757.111 381.529,-757.459 430,-718 476.974,-679.76 510.329,-487.255 520.069,-424.681"/>
<polygon fill="midnightblue" stroke="midnightblue" points="523.563,-424.99 521.611,-414.576 516.643,-423.934 523.563,-424.99"/>
</g>
<!-- Node15&#45;&gt;Node2 -->
<g id="edge22" class="edge"><title>Node15&#45;&gt;Node2</title>
<path fill="none" stroke="midnightblue" d="M251.346,-634.981C269.552,-630.213 289.622,-624.956 307.613,-620.244"/>
<polygon fill="midnightblue" stroke="midnightblue" points="308.582,-623.608 317.369,-617.689 306.809,-616.837 308.582,-623.608"/>
</g>
<!-- Node15&#45;&gt;Node3 -->
<g id="edge23" class="edge"><title>Node15&#45;&gt;Node3</title>
<path fill="none" stroke="midnightblue" d="M251.346,-665.019C269.873,-669.872 290.33,-675.229 308.562,-680.004"/>
<polygon fill="midnightblue" stroke="midnightblue" points="307.876,-683.443 318.436,-682.59 309.649,-676.671 307.876,-683.443"/>
</g>
<!-- Node15&#45;&gt;Node4 -->
<g id="edge24" class="edge"><title>Node15&#45;&gt;Node4</title>
<path fill="none" stroke="midnightblue" d="M259.128,-661.595C310.404,-666.994 381.136,-665.754 430,-630 498.553,-579.839 516.787,-469.771 521.459,-424.768"/>
<polygon fill="midnightblue" stroke="midnightblue" points="524.944,-425.083 522.376,-414.804 517.974,-424.441 524.944,-425.083"/>
</g>
<!-- Node16&#45;&gt;Node2 -->
<g id="edge26" class="edge"><title>Node16&#45;&gt;Node2</title>
<path fill="none" stroke="midnightblue" d="M251.346,-577.019C269.552,-581.787 289.622,-587.044 307.613,-591.756"/>
<polygon fill="midnightblue" stroke="midnightblue" points="306.809,-595.163 317.369,-594.311 308.582,-588.392 306.809,-595.163"/>
</g>
<!-- Node16&#45;&gt;Node3 -->
<g id="edge27" class="edge"><title>Node16&#45;&gt;Node3</title>
<path fill="none" stroke="midnightblue" d="M213.272,-577.142C243.067,-600.553 300.432,-645.625 334.552,-672.434"/>
<polygon fill="midnightblue" stroke="midnightblue" points="332.669,-675.406 342.695,-678.832 336.994,-669.901 332.669,-675.406"/>
</g>
<!-- Node16&#45;&gt;Node4 -->
<g id="edge28" class="edge"><title>Node16&#45;&gt;Node4</title>
<path fill="none" stroke="midnightblue" d="M260.126,-571.002C310.138,-574.514 378.719,-572.011 430,-542 475.942,-515.114 504.079,-455.446 516.132,-424.486"/>
<polygon fill="midnightblue" stroke="midnightblue" points="519.517,-425.425 519.728,-414.833 512.957,-422.982 519.517,-425.425"/>
</g>
<!-- Node17&#45;&gt;Node2 -->
<g id="edge30" class="edge"><title>Node17&#45;&gt;Node2</title>
<path fill="none" stroke="midnightblue" d="M237.92,-528.041C245.415,-531.057 253.027,-534.413 260,-538 286.213,-551.482 313.919,-570.281 333.829,-584.696"/>
<polygon fill="midnightblue" stroke="midnightblue" points="331.991,-587.688 342.126,-590.776 336.129,-582.042 331.991,-587.688"/>
</g>
<!-- Node17&#45;&gt;Node3 -->
<g id="edge31" class="edge"><title>Node17&#45;&gt;Node3</title>
<path fill="none" stroke="midnightblue" d="M246.61,-528.052C251.499,-530.836 256.08,-534.122 260,-538 291.216,-568.878 271.685,-593.439 296,-630 306.54,-645.849 321.582,-660.819 334.644,-672.291"/>
<polygon fill="midnightblue" stroke="midnightblue" points="332.583,-675.133 342.464,-678.958 337.125,-669.807 332.583,-675.133"/>
</g>
<!-- Node17&#45;&gt;Node4 -->
<g id="edge32" class="edge"><title>Node17&#45;&gt;Node4</title>
<path fill="none" stroke="midnightblue" d="M260.154,-500.898C308.196,-491.049 374.274,-475.291 430,-454 454.389,-444.682 480.563,-430.476 498.91,-419.755"/>
<polygon fill="midnightblue" stroke="midnightblue" points="500.93,-422.626 507.74,-414.51 497.355,-416.608 500.93,-422.626"/>
</g>
<!-- Node18 -->
<g id="node18" class="node"><title>Node18</title>
<g id="a_node18"><a xlink:href="classinitialize__options.html#a953ba7fde6963a7279fa7b8e47998dae" target="_top" xlink:title="initialize_options\l::set_default_lu_categories">
<polygon fill="white" stroke="black" points="296,-503 296,-533 430,-533 430,-503 296,-503"/>
<text text-anchor="start" x="304" y="-521" font-family="Helvetica,sans-Serif" font-size="10.00">initialize_options</text>
<text text-anchor="middle" x="363" y="-510" font-family="Helvetica,sans-Serif" font-size="10.00">::set_default_lu_categories</text>
</a>
</g>
</g>
<!-- Node17&#45;&gt;Node18 -->
<g id="edge33" class="edge"><title>Node17&#45;&gt;Node18</title>
<path fill="none" stroke="midnightblue" d="M260.398,-514.976C268.679,-515.223 277.199,-515.476 285.616,-515.727"/>
<polygon fill="midnightblue" stroke="midnightblue" points="285.709,-519.231 295.809,-516.03 285.918,-512.234 285.709,-519.231"/>
</g>
<!-- Node19&#45;&gt;Node4 -->
<g id="edge35" class="edge"><title>Node19&#45;&gt;Node4</title>
<path fill="none" stroke="midnightblue" d="M245.5,-85.1018C306.077,-72.412 401.955,-56.8191 430,-78 480.54,-116.171 511.702,-320.16 520.457,-385.118"/>
<polygon fill="midnightblue" stroke="midnightblue" points="517.015,-385.791 521.791,-395.248 523.955,-384.877 517.015,-385.791"/>
</g>
<!-- Node19&#45;&gt;Node12 -->
<g id="edge36" class="edge"><title>Node19&#45;&gt;Node12</title>
<path fill="none" stroke="midnightblue" d="M245.776,-97C264.573,-97 285.906,-97 305.12,-97"/>
<polygon fill="midnightblue" stroke="midnightblue" points="305.246,-100.5 315.246,-97 305.246,-93.5001 305.246,-100.5"/>
</g>
<!-- Node20 -->
<g id="node20" class="node"><title>Node20</title>
<g id="a_node20"><a xlink:href="classio__routines.html#af199c5971982f00c29c4ad34bdf15be0" target="_top" xlink:title=" Finds the nearest time step in a file to a given MJD Uses the &quot;time&quot; variable from filename...">
<polygon fill="white" stroke="black" points="305.5,-0 305.5,-30 420.5,-30 420.5,-0 305.5,-0"/>
<text text-anchor="start" x="313.5" y="-18" font-family="Helvetica,sans-Serif" font-size="10.00">io_routines::io_nearest</text>
<text text-anchor="middle" x="363" y="-7" font-family="Helvetica,sans-Serif" font-size="10.00">_time_step</text>
</a>
</g>
</g>
<!-- Node19&#45;&gt;Node20 -->
<g id="edge37" class="edge"><title>Node19&#45;&gt;Node20</title>
<path fill="none" stroke="midnightblue" d="M238.793,-81.9956C246.04,-79.0146 253.343,-75.6607 260,-72 277.525,-62.3625 278.795,-55.1979 296,-45 302.253,-41.2937 309.043,-37.7329 315.81,-34.4406"/>
<polygon fill="midnightblue" stroke="midnightblue" points="317.414,-37.5543 324.971,-30.129 314.433,-31.2207 317.414,-37.5543"/>
</g>
<!-- Node21 -->
<g id="node21" class="node"><title>Node21</title>
<g id="a_node21"><a xlink:href="classio__routines.html#ac4835ed66f2e10d8e5bb40f6122f0ca1" target="_top" xlink:title=" Simple error handling for common netcdf file errors ">
<polygon fill="white" stroke="black" points="476,-5.5 476,-24.5 572,-24.5 572,-5.5 476,-5.5"/>
<text text-anchor="middle" x="524" y="-12.5" font-family="Helvetica,sans-Serif" font-size="10.00">io_routines::check</text>
</a>
</g>
</g>
<!-- Node20&#45;&gt;Node21 -->
<g id="edge38" class="edge"><title>Node20&#45;&gt;Node21</title>
<path fill="none" stroke="midnightblue" d="M420.505,-15C435.227,-15 451.101,-15 465.856,-15"/>
<polygon fill="midnightblue" stroke="midnightblue" points="465.865,-18.5001 475.865,-15 465.865,-11.5001 465.865,-18.5001"/>
</g>
<!-- Node22&#45;&gt;Node4 -->
<g id="edge40" class="edge"><title>Node22&#45;&gt;Node4</title>
<path fill="none" stroke="midnightblue" d="M243.676,-300.99C292.697,-304.415 368.951,-313.724 430,-339 458.768,-350.911 487.288,-373.095 505.007,-388.436"/>
<polygon fill="midnightblue" stroke="midnightblue" points="502.989,-391.324 512.792,-395.342 507.634,-386.087 502.989,-391.324"/>
</g>
<!-- Node23 -->
<g id="node23" class="node"><title>Node23</title>
<g id="a_node23"><a xlink:href="classinitialize__options.html#aa31ad836b4bdcd1a555c9e8fa4b2975a" target="_top" xlink:title=" Read in the name of the boundary condition files from a text file ">
<polygon fill="white" stroke="black" points="299,-240 299,-270 427,-270 427,-240 299,-240"/>
<text text-anchor="start" x="307" y="-258" font-family="Helvetica,sans-Serif" font-size="10.00">initialize_options</text>
<text text-anchor="middle" x="363" y="-247" font-family="Helvetica,sans-Serif" font-size="10.00">::read_forcing_file_names</text>
</a>
</g>
</g>
<!-- Node22&#45;&gt;Node23 -->
<g id="edge41" class="edge"><title>Node22&#45;&gt;Node23</title>
<path fill="none" stroke="midnightblue" d="M243.951,-285.918C259.879,-281.746 277.773,-277.059 294.721,-272.621"/>
<polygon fill="midnightblue" stroke="midnightblue" points="295.782,-275.961 304.569,-270.042 294.008,-269.189 295.782,-275.961"/>
</g>
<!-- Node23&#45;&gt;Node4 -->
<g id="edge42" class="edge"><title>Node23&#45;&gt;Node4</title>
<path fill="none" stroke="midnightblue" d="M405.22,-270.003C413.864,-274.146 422.595,-279.145 430,-285 466.849,-314.137 497.467,-360.869 512.669,-386.572"/>
<polygon fill="midnightblue" stroke="midnightblue" points="509.686,-388.407 517.721,-395.313 515.747,-384.904 509.686,-388.407"/>
</g>
</g>
</svg>
        <g id="navigator" transform="translate(0 0)" fill="#404254">
                <rect fill="#f2f5e9" fill-opacity="0.5" stroke="#606060" stroke-width=".5" x="0" y="0" width="60" height="60"/>
                <use id="zoomplus" xlink:href="#zoomPlus" x="17" y="9" onmousedown="handleZoom(evt,'in')"/>
                <use id="zoomminus" xlink:href="#zoomMin" x="42" y="9" onmousedown="handleZoom(evt,'out')"/>
                <use id="reset" xlink:href="#resetDef" x="30" y="36" onmousedown="handleReset()"/>
                <g id="arrowUp" xlink:href="#dirArrow" transform="translate(30 24)" onmousedown="handlePan(0,-1)">
                  <use xlink:href="#rim" fill="#404040">
                        <set attributeName="fill" to="#808080" begin="arrowUp.mouseover" end="arrowUp.mouseout"/>
                  </use>
                  <path fill="none" stroke="white" stroke-width="1.5" d="M0,-3.0v7 M-2.5,-0.5L0,-3.0L2.5,-0.5"/>
                </g>
                <g id="arrowRight" xlink:href="#dirArrow" transform="rotate(90) translate(36 -43)" onmousedown="handlePan(1,0)">
                  <use xlink:href="#rim" fill="#404040">
                        <set attributeName="fill" to="#808080" begin="arrowRight.mouseover" end="arrowRight.mouseout"/>
                  </use>
                  <path fill="none" stroke="white" stroke-width="1.5" d="M0,-3.0v7 M-2.5,-0.5L0,-3.0L2.5,-0.5"/>
                </g>
                <g id="arrowDown" xlink:href="#dirArrow" transform="rotate(180) translate(-30 -48)" onmousedown="handlePan(0,1)">
                  <use xlink:href="#rim" fill="#404040">
                        <set attributeName="fill" to="#808080" begin="arrowDown.mouseover" end="arrowDown.mouseout"/>
                  </use>
                  <path fill="none" stroke="white" stroke-width="1.5" d="M0,-3.0v7 M-2.5,-0.5L0,-3.0L2.5,-0.5"/>
                </g>
                <g id="arrowLeft" xlink:href="#dirArrow" transform="rotate(270) translate(-36 17)" onmousedown="handlePan(-1,0)">
                  <use xlink:href="#rim" fill="#404040">
                        <set attributeName="fill" to="#808080" begin="arrowLeft.mouseover" end="arrowLeft.mouseout"/>
                  </use>
                  <path fill="none" stroke="white" stroke-width="1.5" d="M0,-3.0v7 M-2.5,-0.5L0,-3.0L2.5,-0.5"/>
                </g>
        </g>
        <svg viewBox="0 0 15 15" width="100%" height="30px" preserveAspectRatio="xMaxYMin meet">
         <g id="arrow_out" transform="scale(0.3 0.3)">
          <a xlink:href="classinitialize__options_a571709045f201082c9735408ef2f28e3_cgraph_org.svg" target="_base">
           <rect id="button" ry="5" rx="5" y="6" x="6" height="38" width="38"
                fill="#f2f5e9" fill-opacity="0.5" stroke="#606060" stroke-width="1.0"/>
           <path id="arrow"
             d="M 11.500037,31.436501 C 11.940474,20.09759 22.043105,11.32322 32.158766,21.979434 L 37.068811,17.246167 C 37.068811,17.246167 37.088388,32 37.088388,32 L 22.160133,31.978069 C 22.160133,31.978069 26.997745,27.140456 26.997745,27.140456 C 18.528582,18.264221 13.291696,25.230495 11.500037,31.436501 z"
             style="fill:#404040;"/>
          </a>
         </g>
        </svg>
</svg>
