<?xml version="1.0" encoding="UTF-8" standalone="no"?>
<!DOCTYPE svg PUBLIC "-//W3C//DTD SVG 1.1//EN"
 "http://www.w3.org/Graphics/SVG/1.1/DTD/svg11.dtd">
<!-- Generated by graphviz version 2.38.0 (20140413.2041)
 -->
<!-- Title: init::init_domain_land Pages: 1 -->
<svg width="521pt" height="47pt"
 viewBox="0.00 0.00 521.00 47.00" xmlns="http://www.w3.org/2000/svg" xmlns:xlink="http://www.w3.org/1999/xlink">
<g id="graph0" class="graph" transform="scale(1 1) rotate(0) translate(4 43)">
<title>init::init_domain_land</title>
<polygon fill="white" stroke="none" points="-4,4 -4,-43 517,-43 517,4 -4,4"/>
<!-- Node1 -->
<g id="node1" class="node"><title>Node1</title>
<polygon fill="#bfbfbf" stroke="black" points="0,-19.5 0,-38.5 108,-38.5 108,-19.5 0,-19.5"/>
<text text-anchor="middle" x="54" y="-26.5" font-family="Helvetica,sans-Serif" font-size="10.00">init::init_domain_land</text>
</g>
<!-- Node2 -->
<g id="node2" class="node"><title>Node2</title>
<g id="a_node2"><a xlink:href="classinit.html#a2c0d47bd2656d1121f0522d0f77a0e07" target="_top" xlink:title="init::init_domain">
<polygon fill="white" stroke="black" points="144,-19.5 144,-38.5 229,-38.5 229,-19.5 144,-19.5"/>
<text text-anchor="middle" x="186.5" y="-26.5" font-family="Helvetica,sans-Serif" font-size="10.00">init::init_domain</text>
</a>
</g>
</g>
<!-- Node1&#45;&gt;Node2 -->
<g id="edge1" class="edge"><title>Node1&#45;&gt;Node2</title>
<path fill="none" stroke="midnightblue" d="M118.177,-29C126.83,-29 135.53,-29 143.671,-29"/>
<polygon fill="midnightblue" stroke="midnightblue" points="118.079,-25.5001 108.079,-29 118.079,-32.5001 118.079,-25.5001"/>
</g>
<!-- Node3 -->
<g id="node3" class="node"><title>Node3</title>
<g id="a_node3"><a xlink:href="classinit.html#a1dd1e2b38eef39cba464f65c9ce82568" target="_top" xlink:title="init::init_model">
<polygon fill="white" stroke="black" points="365,-19.5 365,-38.5 445,-38.5 445,-19.5 365,-19.5"/>
<text text-anchor="middle" x="405" y="-26.5" font-family="Helvetica,sans-Serif" font-size="10.00">init::init_model</text>
</a>
</g>
</g>
<!-- Node2&#45;&gt;Node3 -->
<g id="edge2" class="edge"><title>Node2&#45;&gt;Node3</title>
<path fill="none" stroke="midnightblue" d="M239.252,-29C277.854,-29 329.775,-29 364.935,-29"/>
<polygon fill="midnightblue" stroke="midnightblue" points="239.243,-25.5001 229.243,-29 239.243,-32.5001 239.243,-25.5001"/>
</g>
<!-- Node5 -->
<g id="node5" class="node"><title>Node5</title>
<g id="a_node5"><a xlink:href="classinit.html#a1c6cab46bb16bea719da3b193c43ccb3" target="_top" xlink:title="init::init_bc">
<polygon fill="white" stroke="black" points="265,-0.5 265,-19.5 329,-19.5 329,-0.5 265,-0.5"/>
<text text-anchor="middle" x="297" y="-7.5" font-family="Helvetica,sans-Serif" font-size="10.00">init::init_bc</text>
</a>
</g>
</g>
<!-- Node2&#45;&gt;Node5 -->
<g id="edge4" class="edge"><title>Node2&#45;&gt;Node5</title>
<path fill="none" stroke="midnightblue" d="M239.27,-19.9344C247.979,-18.4092 256.774,-16.8691 264.754,-15.4717"/>
<polygon fill="midnightblue" stroke="midnightblue" points="238.385,-16.5359 229.139,-21.7084 239.592,-23.431 238.385,-16.5359"/>
</g>
<!-- Node4 -->
<g id="node4" class="node"><title>Node4</title>
<g id="a_node4"><a xlink:href="driver_8f90.html#ab1e5a5816a57fc6e95d9563c2bb53590" target="_top" xlink:title=" Main Program ">
<polygon fill="white" stroke="black" points="481,-19.5 481,-38.5 513,-38.5 513,-19.5 481,-19.5"/>
<text text-anchor="middle" x="497" y="-26.5" font-family="Helvetica,sans-Serif" font-size="10.00">icar</text>
</a>
</g>
</g>
<!-- Node3&#45;&gt;Node4 -->
<g id="edge3" class="edge"><title>Node3&#45;&gt;Node4</title>
<path fill="none" stroke="midnightblue" d="M455.233,-29C464.449,-29 473.425,-29 480.599,-29"/>
<polygon fill="midnightblue" stroke="midnightblue" points="455.214,-25.5001 445.213,-29 455.213,-32.5001 455.214,-25.5001"/>
</g>
<!-- Node5&#45;&gt;Node3 -->
<g id="edge5" class="edge"><title>Node5&#45;&gt;Node3</title>
<path fill="none" stroke="midnightblue" d="M339.196,-17.3841C347.584,-18.8877 356.388,-20.4658 364.708,-21.9572"/>
<polygon fill="midnightblue" stroke="midnightblue" points="339.691,-13.9172 329.23,-15.5979 338.456,-20.8074 339.691,-13.9172"/>
</g>
</g>
</svg>
