<?xml version="1.0" encoding="UTF-8" standalone="no"?>
<!DOCTYPE svg PUBLIC "-//W3C//DTD SVG 1.1//EN"
 "http://www.w3.org/Graphics/SVG/1.1/DTD/svg11.dtd">
<!-- Generated by graphviz version 2.32.0 (20130809.1645)
 -->
<!-- Title: boundary_conditions::ext_winds_init Pages: 1 -->
<svg width="574pt" height="214pt"
 viewBox="0.00 0.00 574.00 214.00" xmlns="http://www.w3.org/2000/svg" xmlns:xlink="http://www.w3.org/1999/xlink">
<g id="graph0" class="graph" transform="scale(1 1) rotate(0) translate(4 210)">
<title>boundary_conditions::ext_winds_init</title>
<polygon fill="white" stroke="white" points="-4,5 -4,-210 571,-210 571,5 -4,5"/>
<!-- Node1 -->
<g id="node1" class="node"><title>Node1</title>
<polygon fill="#bfbfbf" stroke="black" points="0,-88 0,-118 106,-118 106,-88 0,-88"/>
<text text-anchor="start" x="8" y="-106" font-family="Helvetica,sans-Serif" font-size="10.00">boundary_conditions</text>
<text text-anchor="middle" x="53" y="-95" font-family="Helvetica,sans-Serif" font-size="10.00">::ext_winds_init</text>
</g>
<!-- Node2 -->
<g id="node2" class="node"><title>Node2</title>
<g id="a_node2"><a xlink:href="classio__routines.html#ae987ea578b7a3fe5c0d51363e0f154a7" target="_top" xlink:title=" Read the dimensions of a variable in a given netcdf file ">
<polygon fill="white" stroke="black" points="142.5,-161.5 142.5,-180.5 259.5,-180.5 259.5,-161.5 142.5,-161.5"/>
<text text-anchor="middle" x="201" y="-168.5" font-family="Helvetica,sans-Serif" font-size="10.00">io_routines::io_getdims</text>
</a>
</g>
</g>
<!-- Node1&#45;&gt;Node2 -->
<g id="edge1" class="edge"><title>Node1&#45;&gt;Node2</title>
<path fill="none" stroke="midnightblue" d="M86.4021,-118.091C111.47,-129.767 145.902,-145.804 170.27,-157.153"/>
<polygon fill="midnightblue" stroke="midnightblue" points="168.853,-160.354 179.396,-161.404 171.809,-154.009 168.853,-160.354"/>
</g>
<!-- Node4 -->
<g id="node4" class="node"><title>Node4</title>
<g id="a_node4"><a xlink:href="classboundary__conditions.html#a3d4ddfc81942b206888c807998f4bb3c" target="_top" xlink:title=" Generic routine to read a forcing variable (varname) from a netcdf file (filename) at a time step (c...">
<polygon fill="white" stroke="black" points="148,-88 148,-118 254,-118 254,-88 148,-88"/>
<text text-anchor="start" x="156" y="-106" font-family="Helvetica,sans-Serif" font-size="10.00">boundary_conditions</text>
<text text-anchor="middle" x="201" y="-95" font-family="Helvetica,sans-Serif" font-size="10.00">::read_var</text>
</a>
</g>
</g>
<!-- Node1&#45;&gt;Node4 -->
<g id="edge3" class="edge"><title>Node1&#45;&gt;Node4</title>
<path fill="none" stroke="midnightblue" d="M106.297,-103C116.361,-103 126.998,-103 137.351,-103"/>
<polygon fill="midnightblue" stroke="midnightblue" points="137.577,-106.5 147.577,-103 137.577,-99.5001 137.577,-106.5"/>
</g>
<!-- Node11 -->
<g id="node11" class="node"><title>Node11</title>
<g id="a_node11"><a xlink:href="classboundary__conditions.html#a1208205dcebb05812018d41b6b08e2ce" target="_top" xlink:title=" Rotate winds from real space back to terrain following grid (approximately) ">
<polygon fill="white" stroke="black" points="143.5,-39 143.5,-69 258.5,-69 258.5,-39 143.5,-39"/>
<text text-anchor="start" x="151.5" y="-57" font-family="Helvetica,sans-Serif" font-size="10.00">boundary_conditions</text>
<text text-anchor="middle" x="201" y="-46" font-family="Helvetica,sans-Serif" font-size="10.00">::rotate_ext_wind_field</text>
</a>
</g>
</g>
<!-- Node1&#45;&gt;Node11 -->
<g id="edge10" class="edge"><title>Node1&#45;&gt;Node11</title>
<path fill="none" stroke="midnightblue" d="M98.9961,-87.8986C113.636,-82.9853 130.046,-77.4776 145.314,-72.3534"/>
<polygon fill="midnightblue" stroke="midnightblue" points="146.786,-75.5515 155.152,-69.0516 144.558,-68.9153 146.786,-75.5515"/>
</g>
<!-- Node3 -->
<g id="node3" class="node"><title>Node3</title>
<g id="a_node3"><a xlink:href="classio__routines.html#ac4835ed66f2e10d8e5bb40f6122f0ca1" target="_top" xlink:title=" Simple error handling for common netcdf file errors ">
<polygon fill="white" stroke="black" points="301,-186.5 301,-205.5 397,-205.5 397,-186.5 301,-186.5"/>
<text text-anchor="middle" x="349" y="-193.5" font-family="Helvetica,sans-Serif" font-size="10.00">io_routines::check</text>
</a>
</g>
</g>
<!-- Node2&#45;&gt;Node3 -->
<g id="edge2" class="edge"><title>Node2&#45;&gt;Node3</title>
<path fill="none" stroke="midnightblue" d="M257.613,-180.523C268.361,-182.363 279.643,-184.295 290.451,-186.146"/>
<polygon fill="midnightblue" stroke="midnightblue" points="290.189,-189.652 300.636,-187.89 291.37,-182.752 290.189,-189.652"/>
</g>
<!-- Node5 -->
<g id="node5" class="node"><title>Node5</title>
<g id="a_node5"><a xlink:href="interfaceio__routines_1_1io__read.html#a9b6dacfccbb234dd949e7136e5b67f8c" target="_top" xlink:title=" Same as io_read6d but for 3&#45;dimensional data ">
<polygon fill="white" stroke="black" points="298.5,-137 298.5,-167 399.5,-167 399.5,-137 298.5,-137"/>
<text text-anchor="start" x="306.5" y="-155" font-family="Helvetica,sans-Serif" font-size="10.00">io_routines::io_read</text>
<text text-anchor="middle" x="349" y="-144" font-family="Helvetica,sans-Serif" font-size="10.00">::io_read3d</text>
</a>
</g>
</g>
<!-- Node4&#45;&gt;Node5 -->
<g id="edge4" class="edge"><title>Node4&#45;&gt;Node5</title>
<path fill="none" stroke="midnightblue" d="M246.996,-118.101C261.636,-123.015 278.046,-128.522 293.314,-133.647"/>
<polygon fill="midnightblue" stroke="midnightblue" points="292.558,-137.085 303.152,-136.948 294.786,-130.448 292.558,-137.085"/>
</g>
<!-- Node6 -->
<g id="node6" class="node"><title>Node6</title>
<g id="a_node6"><a xlink:href="classboundary__conditions.html#a4ea743610f85b3c52d69af94085b5bfa" target="_top" xlink:title=" Smooth an array (written for wind but will work for anything) ">
<polygon fill="white" stroke="black" points="296,-88 296,-118 402,-118 402,-88 296,-88"/>
<text text-anchor="start" x="304" y="-106" font-family="Helvetica,sans-Serif" font-size="10.00">boundary_conditions</text>
<text text-anchor="middle" x="349" y="-95" font-family="Helvetica,sans-Serif" font-size="10.00">::smooth_wind</text>
</a>
</g>
</g>
<!-- Node4&#45;&gt;Node6 -->
<g id="edge5" class="edge"><title>Node4&#45;&gt;Node6</title>
<path fill="none" stroke="midnightblue" d="M254.297,-103C264.361,-103 274.998,-103 285.351,-103"/>
<polygon fill="midnightblue" stroke="midnightblue" points="285.577,-106.5 295.577,-103 285.577,-99.5001 285.577,-106.5"/>
</g>
<!-- Node7 -->
<g id="node7" class="node"><title>Node7</title>
<g id="a_node7"><a xlink:href="classvertical__interpolation.html#a2d3f85573f18ea2ab18d6dcdec6a025a" target="_top" xlink:title="vertical_interpolation\l::vinterp">
<polygon fill="white" stroke="black" points="296,-39 296,-69 402,-69 402,-39 296,-39"/>
<text text-anchor="start" x="304" y="-57" font-family="Helvetica,sans-Serif" font-size="10.00">vertical_interpolation</text>
<text text-anchor="middle" x="349" y="-46" font-family="Helvetica,sans-Serif" font-size="10.00">::vinterp</text>
</a>
</g>
</g>
<!-- Node4&#45;&gt;Node7 -->
<g id="edge6" class="edge"><title>Node4&#45;&gt;Node7</title>
<path fill="none" stroke="midnightblue" d="M246.996,-87.8986C261.636,-82.9853 278.046,-77.4776 293.314,-72.3534"/>
<polygon fill="midnightblue" stroke="midnightblue" points="294.786,-75.5515 303.152,-69.0516 292.558,-68.9153 294.786,-75.5515"/>
</g>
<!-- Node9 -->
<g id="node9" class="node"><title>Node9</title>
<g id="a_node9"><a xlink:href="classgeo.html#acb54dc322e31524d40cc746c37b28898" target="_top" xlink:title="geo::geo_interp">
<polygon fill="white" stroke="black" points="307.5,-0.5 307.5,-19.5 390.5,-19.5 390.5,-0.5 307.5,-0.5"/>
<text text-anchor="middle" x="349" y="-7.5" font-family="Helvetica,sans-Serif" font-size="10.00">geo::geo_interp</text>
</a>
</g>
</g>
<!-- Node4&#45;&gt;Node9 -->
<g id="edge8" class="edge"><title>Node4&#45;&gt;Node9</title>
<path fill="none" stroke="midnightblue" d="M244.391,-87.9101C249.912,-85.0501 255.281,-81.7548 260,-78 281.147,-61.175 274.385,-45.2193 296,-29 298.458,-27.1558 301.113,-25.4759 303.877,-23.948"/>
<polygon fill="midnightblue" stroke="midnightblue" points="305.479,-27.0613 312.972,-19.5707 302.443,-20.7539 305.479,-27.0613"/>
</g>
<!-- Node8 -->
<g id="node8" class="node"><title>Node8</title>
<g id="a_node8"><a xlink:href="classvertical__interpolation.html#a2625ecb49efcd1aaccf31125071f03e4" target="_top" xlink:title="vertical_interpolation\l::vinterp_boundary">
<polygon fill="white" stroke="black" points="449,-39 449,-69 555,-69 555,-39 449,-39"/>
<text text-anchor="start" x="457" y="-57" font-family="Helvetica,sans-Serif" font-size="10.00">vertical_interpolation</text>
<text text-anchor="middle" x="502" y="-46" font-family="Helvetica,sans-Serif" font-size="10.00">::vinterp_boundary</text>
</a>
</g>
</g>
<!-- Node7&#45;&gt;Node8 -->
<g id="edge7" class="edge"><title>Node7&#45;&gt;Node8</title>
<path fill="none" stroke="midnightblue" d="M402.389,-54C414.168,-54 426.777,-54 438.909,-54"/>
<polygon fill="midnightblue" stroke="midnightblue" points="438.959,-57.5001 448.959,-54 438.959,-50.5001 438.959,-57.5001"/>
</g>
<!-- Node10 -->
<g id="node10" class="node"><title>Node10</title>
<g id="a_node10"><a xlink:href="classgeo.html#a61629d616a7b4ee1cd910362724f0f6d" target="_top" xlink:title="geo::boundary_interpolate">
<polygon fill="white" stroke="black" points="438,-0.5 438,-19.5 566,-19.5 566,-0.5 438,-0.5"/>
<text text-anchor="middle" x="502" y="-7.5" font-family="Helvetica,sans-Serif" font-size="10.00">geo::boundary_interpolate</text>
</a>
</g>
</g>
<!-- Node9&#45;&gt;Node10 -->
<g id="edge9" class="edge"><title>Node9&#45;&gt;Node10</title>
<path fill="none" stroke="midnightblue" d="M390.863,-10C402.303,-10 415.098,-10 427.806,-10"/>
<polygon fill="midnightblue" stroke="midnightblue" points="427.952,-13.5001 437.952,-10 427.952,-6.5001 427.952,-13.5001"/>
</g>
</g>
</svg>
