<?xml version="1.0" encoding="UTF-8" standalone="no"?>
<!DOCTYPE svg PUBLIC "-//W3C//DTD SVG 1.1//EN"
 "http://www.w3.org/Graphics/SVG/1.1/DTD/svg11.dtd">
<!-- Generated by graphviz version 2.32.0 (20130809.1645)
 -->
<!-- Title: planetary_boundary_layer::pbl Pages: 1 -->
<svg width="298pt" height="38pt"
 viewBox="0.00 0.00 298.00 38.00" xmlns="http://www.w3.org/2000/svg" xmlns:xlink="http://www.w3.org/1999/xlink">
<g id="graph0" class="graph" transform="scale(1 1) rotate(0) translate(4 34)">
<title>planetary_boundary_layer::pbl</title>
<polygon fill="white" stroke="white" points="-4,5 -4,-34 295,-34 295,5 -4,5"/>
<!-- Node1 -->
<g id="node1" class="node"><title>Node1</title>
<polygon fill="#bfbfbf" stroke="black" points="0.5,-0 0.5,-30 101.5,-30 101.5,-0 0.5,-0"/>
<text text-anchor="start" x="8.5" y="-18" font-family="Helvetica,sans-Serif" font-size="10.00">planetary_boundary</text>
<text text-anchor="middle" x="51" y="-7" font-family="Helvetica,sans-Serif" font-size="10.00">_layer::pbl</text>
</g>
<!-- Node2 -->
<g id="node2" class="node"><title>Node2</title>
<g id="a_node2"><a xlink:href="classtime__step.html#a2c022f11247af72e607b1493289aa974" target="_top" xlink:title=" Step forward one IO time step. ">
<polygon fill="white" stroke="black" points="138,-5.5 138,-24.5 222,-24.5 222,-5.5 138,-5.5"/>
<text text-anchor="middle" x="180" y="-12.5" font-family="Helvetica,sans-Serif" font-size="10.00">time_step::step</text>
</a>
</g>
</g>
<!-- Node1&#45;&gt;Node2 -->
<g id="edge1" class="edge"><title>Node1&#45;&gt;Node2</title>
<path fill="none" stroke="midnightblue" d="M112.035,-15C120.798,-15 129.648,-15 137.917,-15"/>
<polygon fill="midnightblue" stroke="midnightblue" points="111.829,-11.5001 101.829,-15 111.829,-18.5001 111.829,-11.5001"/>
</g>
<!-- Node3 -->
<g id="node3" class="node"><title>Node3</title>
<g id="a_node3"><a xlink:href="driver_8f90.html#ab1e5a5816a57fc6e95d9563c2bb53590" target="_top" xlink:title=" Main Program ">
<polygon fill="white" stroke="black" points="258,-5.5 258,-24.5 290,-24.5 290,-5.5 258,-5.5"/>
<text text-anchor="middle" x="274" y="-12.5" font-family="Helvetica,sans-Serif" font-size="10.00">icar</text>
</a>
</g>
</g>
<!-- Node2&#45;&gt;Node3 -->
<g id="edge2" class="edge"><title>Node2&#45;&gt;Node3</title>
<path fill="none" stroke="midnightblue" d="M232.253,-15C241.521,-15 250.5,-15 257.66,-15"/>
<polygon fill="midnightblue" stroke="midnightblue" points="232.156,-11.5001 222.156,-15 232.156,-18.5001 232.156,-11.5001"/>
</g>
</g>
</svg>
