<?xml version="1.0" encoding="UTF-8" standalone="no"?>
<!DOCTYPE svg PUBLIC "-//W3C//DTD SVG 1.1//EN"
 "http://www.w3.org/Graphics/SVG/1.1/DTD/svg11.dtd">
<!-- Generated by graphviz version 2.32.0 (20130809.1645)
 -->
<!-- Title: geo::boundary_interpolate Pages: 1 -->
<svg width="758pt" height="291pt"
 viewBox="0.00 0.00 758.00 291.00" xmlns="http://www.w3.org/2000/svg" xmlns:xlink="http://www.w3.org/1999/xlink">
<g id="graph0" class="graph" transform="scale(1 1) rotate(0) translate(4 287)">
<title>geo::boundary_interpolate</title>
<polygon fill="white" stroke="white" points="-4,5 -4,-287 755,-287 755,5 -4,5"/>
<!-- Node1 -->
<g id="node1" class="node"><title>Node1</title>
<polygon fill="#bfbfbf" stroke="black" points="0,-82.5 0,-101.5 128,-101.5 128,-82.5 0,-82.5"/>
<text text-anchor="middle" x="64" y="-89.5" font-family="Helvetica,sans-Serif" font-size="10.00">geo::boundary_interpolate</text>
</g>
<!-- Node2 -->
<g id="node2" class="node"><title>Node2</title>
<g id="a_node2"><a xlink:href="classgeo.html#acb54dc322e31524d40cc746c37b28898" target="_top" xlink:title="geo::geo_interp">
<polygon fill="white" stroke="black" points="164.5,-82.5 164.5,-101.5 247.5,-101.5 247.5,-82.5 164.5,-82.5"/>
<text text-anchor="middle" x="206" y="-89.5" font-family="Helvetica,sans-Serif" font-size="10.00">geo::geo_interp</text>
</a>
</g>
</g>
<!-- Node1&#45;&gt;Node2 -->
<g id="edge1" class="edge"><title>Node1&#45;&gt;Node2</title>
<path fill="none" stroke="midnightblue" d="M138.192,-92C147.188,-92 156.114,-92 164.373,-92"/>
<polygon fill="midnightblue" stroke="midnightblue" points="138.038,-88.5001 128.038,-92 138.038,-95.5001 138.038,-88.5001"/>
</g>
<!-- Node3 -->
<g id="node3" class="node"><title>Node3</title>
<g id="a_node3"><a xlink:href="classboundary__conditions.html#a3d4ddfc81942b206888c807998f4bb3c" target="_top" xlink:title=" Generic routine to read a forcing variable (varname) from a netcdf file (filename) at a time step (c...">
<polygon fill="white" stroke="black" points="284,-121 284,-151 390,-151 390,-121 284,-121"/>
<text text-anchor="start" x="292" y="-139" font-family="Helvetica,sans-Serif" font-size="10.00">boundary_conditions</text>
<text text-anchor="middle" x="337" y="-128" font-family="Helvetica,sans-Serif" font-size="10.00">::read_var</text>
</a>
</g>
</g>
<!-- Node2&#45;&gt;Node3 -->
<g id="edge2" class="edge"><title>Node2&#45;&gt;Node3</title>
<path fill="none" stroke="midnightblue" d="M244.786,-104.888C259.527,-109.916 276.53,-115.715 291.831,-120.935"/>
<polygon fill="midnightblue" stroke="midnightblue" points="245.586,-101.463 234.991,-101.547 243.326,-108.088 245.586,-101.463"/>
</g>
<!-- Node8 -->
<g id="node8" class="node"><title>Node8</title>
<g id="a_node8"><a xlink:href="classboundary__conditions.html#a1e8385c37634f3d7f70ea7c749dcda11" target="_top" xlink:title=" Read in the next timestep of input data and apply to the dXdt grids as appropriate. ">
<polygon fill="white" stroke="black" points="576,-96 576,-126 682,-126 682,-96 576,-96"/>
<text text-anchor="start" x="584" y="-114" font-family="Helvetica,sans-Serif" font-size="10.00">boundary_conditions</text>
<text text-anchor="middle" x="629" y="-103" font-family="Helvetica,sans-Serif" font-size="10.00">::bc_update</text>
</a>
</g>
</g>
<!-- Node2&#45;&gt;Node8 -->
<g id="edge14" class="edge"><title>Node2&#45;&gt;Node8</title>
<path fill="none" stroke="midnightblue" d="M251.922,-80.0858C316.535,-64.8622 439.041,-43.1669 540,-67 563.606,-72.5727 588.1,-85.501 605.234,-95.9102"/>
<polygon fill="midnightblue" stroke="midnightblue" points="250.961,-76.7172 242.061,-82.4656 252.603,-83.5218 250.961,-76.7172"/>
</g>
<!-- Node9 -->
<g id="node9" class="node"><title>Node9</title>
<g id="a_node9"><a xlink:href="classboundary__conditions.html#ac4cfb5127bfecdc6e088ef949694ea4a" target="_top" xlink:title=" Remove linear theory topographic winds perturbations from the low resolution wind field...">
<polygon fill="white" stroke="black" points="426,-253 426,-283 540,-283 540,-253 426,-253"/>
<text text-anchor="start" x="434" y="-271" font-family="Helvetica,sans-Serif" font-size="10.00">boundary_conditions</text>
<text text-anchor="middle" x="483" y="-260" font-family="Helvetica,sans-Serif" font-size="10.00">::remove_linear_winds</text>
</a>
</g>
</g>
<!-- Node2&#45;&gt;Node9 -->
<g id="edge11" class="edge"><title>Node2&#45;&gt;Node9</title>
<path fill="none" stroke="midnightblue" d="M223.845,-108.881C238.856,-123.419 261.82,-144.452 284,-160 338.828,-198.433 408.753,-233.71 449.144,-252.898"/>
<polygon fill="midnightblue" stroke="midnightblue" points="225.966,-106.059 216.379,-101.549 221.061,-111.053 225.966,-106.059"/>
</g>
<!-- Node10 -->
<g id="node10" class="node"><title>Node10</title>
<g id="a_node10"><a xlink:href="classinit.html#a1c6cab46bb16bea719da3b193c43ccb3" target="_top" xlink:title="init::init_bc">
<polygon fill="white" stroke="black" points="305,-0.5 305,-19.5 369,-19.5 369,-0.5 305,-0.5"/>
<text text-anchor="middle" x="337" y="-7.5" font-family="Helvetica,sans-Serif" font-size="10.00">init::init_bc</text>
</a>
</g>
</g>
<!-- Node2&#45;&gt;Node10 -->
<g id="edge15" class="edge"><title>Node2&#45;&gt;Node10</title>
<path fill="none" stroke="midnightblue" d="M226.248,-75.6706C241.352,-63.3193 263.228,-46.4229 284,-34 292.96,-28.6414 303.318,-23.6411 312.42,-19.6066"/>
<polygon fill="midnightblue" stroke="midnightblue" points="223.659,-73.2708 218.198,-82.3494 228.129,-78.6583 223.659,-73.2708"/>
</g>
<!-- Node4 -->
<g id="node4" class="node"><title>Node4</title>
<g id="a_node4"><a xlink:href="classboundary__conditions.html#afd8110e2b16915ce0cb12ce4958fe09c" target="_top" xlink:title=" Initialize the external winds information (filenames, nfiles, etc) and read the initial conditions ...">
<polygon fill="white" stroke="black" points="430,-165 430,-195 536,-195 536,-165 430,-165"/>
<text text-anchor="start" x="438" y="-183" font-family="Helvetica,sans-Serif" font-size="10.00">boundary_conditions</text>
<text text-anchor="middle" x="483" y="-172" font-family="Helvetica,sans-Serif" font-size="10.00">::ext_winds_init</text>
</a>
</g>
</g>
<!-- Node3&#45;&gt;Node4 -->
<g id="edge3" class="edge"><title>Node3&#45;&gt;Node4</title>
<path fill="none" stroke="midnightblue" d="M396.951,-154.013C408.786,-157.629 421.108,-161.394 432.579,-164.899"/>
<polygon fill="midnightblue" stroke="midnightblue" points="397.74,-150.594 387.154,-151.019 395.695,-157.289 397.74,-150.594"/>
</g>
<!-- Node5 -->
<g id="node5" class="node"><title>Node5</title>
<g id="a_node5"><a xlink:href="classboundary__conditions.html#a07a42f467f470ada98e0a35fd5a75f66" target="_top" xlink:title=" Initialize the boundary conditions (read inital conditions, etc.) ">
<polygon fill="white" stroke="black" points="576,-187 576,-217 682,-217 682,-187 576,-187"/>
<text text-anchor="start" x="584" y="-205" font-family="Helvetica,sans-Serif" font-size="10.00">boundary_conditions</text>
<text text-anchor="middle" x="629" y="-194" font-family="Helvetica,sans-Serif" font-size="10.00">::bc_init</text>
</a>
</g>
</g>
<!-- Node3&#45;&gt;Node5 -->
<g id="edge6" class="edge"><title>Node3&#45;&gt;Node5</title>
<path fill="none" stroke="midnightblue" d="M358.85,-158.664C375.298,-174.763 399.776,-195.049 426,-204 474.79,-220.654 534.153,-217.523 575.859,-211.837"/>
<polygon fill="midnightblue" stroke="midnightblue" points="360.964,-155.823 351.448,-151.165 355.982,-160.741 360.964,-155.823"/>
</g>
<!-- Node7 -->
<g id="node7" class="node"><title>Node7</title>
<g id="a_node7"><a xlink:href="classboundary__conditions.html#a40ba01db58736c2bb018af7ebe72f55f" target="_top" xlink:title=" Update the external wind field ">
<polygon fill="white" stroke="black" points="430,-77 430,-107 536,-107 536,-77 430,-77"/>
<text text-anchor="start" x="438" y="-95" font-family="Helvetica,sans-Serif" font-size="10.00">boundary_conditions</text>
<text text-anchor="middle" x="483" y="-84" font-family="Helvetica,sans-Serif" font-size="10.00">::update_ext_winds</text>
</a>
</g>
</g>
<!-- Node3&#45;&gt;Node7 -->
<g id="edge7" class="edge"><title>Node3&#45;&gt;Node7</title>
<path fill="none" stroke="midnightblue" d="M396.951,-117.987C408.786,-114.371 421.108,-110.606 432.579,-107.101"/>
<polygon fill="midnightblue" stroke="midnightblue" points="395.695,-114.711 387.154,-120.981 397.74,-121.406 395.695,-114.711"/>
</g>
<!-- Node3&#45;&gt;Node8 -->
<g id="edge10" class="edge"><title>Node3&#45;&gt;Node8</title>
<path fill="none" stroke="midnightblue" d="M400.341,-130.626C452.647,-126.117 526.499,-119.75 575.749,-115.504"/>
<polygon fill="midnightblue" stroke="midnightblue" points="399.844,-127.156 390.181,-131.502 400.445,-134.13 399.844,-127.156"/>
</g>
<!-- Node4&#45;&gt;Node5 -->
<g id="edge4" class="edge"><title>Node4&#45;&gt;Node5</title>
<path fill="none" stroke="midnightblue" d="M546.495,-189.548C556.301,-191.046 566.346,-192.581 575.885,-194.038"/>
<polygon fill="midnightblue" stroke="midnightblue" points="546.809,-186.055 536.395,-188.005 545.751,-192.975 546.809,-186.055"/>
</g>
<!-- Node6 -->
<g id="node6" class="node"><title>Node6</title>
<g id="a_node6"><a xlink:href="driver_8f90.html#ab1e5a5816a57fc6e95d9563c2bb53590" target="_top" xlink:title=" Main Program ">
<polygon fill="white" stroke="black" points="718,-101.5 718,-120.5 750,-120.5 750,-101.5 718,-101.5"/>
<text text-anchor="middle" x="734" y="-108.5" font-family="Helvetica,sans-Serif" font-size="10.00">icar</text>
</a>
</g>
</g>
<!-- Node5&#45;&gt;Node6 -->
<g id="edge5" class="edge"><title>Node5&#45;&gt;Node6</title>
<path fill="none" stroke="midnightblue" d="M654.743,-180.139C676.138,-161.237 706.062,-134.799 721.996,-120.722"/>
<polygon fill="midnightblue" stroke="midnightblue" points="652.185,-177.729 647.008,-186.973 656.82,-182.975 652.185,-177.729"/>
</g>
<!-- Node7&#45;&gt;Node8 -->
<g id="edge8" class="edge"><title>Node7&#45;&gt;Node8</title>
<path fill="none" stroke="midnightblue" d="M546.495,-100.246C556.301,-101.54 566.346,-102.865 575.885,-104.124"/>
<polygon fill="midnightblue" stroke="midnightblue" points="546.767,-96.7514 536.395,-98.9132 545.851,-103.691 546.767,-96.7514"/>
</g>
<!-- Node8&#45;&gt;Node6 -->
<g id="edge9" class="edge"><title>Node8&#45;&gt;Node6</title>
<path fill="none" stroke="midnightblue" d="M692.369,-111C701.706,-111 710.543,-111 717.576,-111"/>
<polygon fill="midnightblue" stroke="midnightblue" points="692.104,-107.5 682.104,-111 692.103,-114.5 692.104,-107.5"/>
</g>
<!-- Node9&#45;&gt;Node5 -->
<g id="edge12" class="edge"><title>Node9&#45;&gt;Node5</title>
<path fill="none" stroke="midnightblue" d="M526.155,-248.679C548.15,-238.598 574.659,-226.448 595.117,-217.071"/>
<polygon fill="midnightblue" stroke="midnightblue" points="524.669,-245.51 517.037,-252.858 527.585,-251.873 524.669,-245.51"/>
</g>
<!-- Node9&#45;&gt;Node8 -->
<g id="edge13" class="edge"><title>Node9&#45;&gt;Node8</title>
<path fill="none" stroke="midnightblue" d="M504.827,-245.293C534.614,-212.817 588.586,-153.972 614.023,-126.239"/>
<polygon fill="midnightblue" stroke="midnightblue" points="501.987,-243.211 497.807,-252.946 507.146,-247.942 501.987,-243.211"/>
</g>
<!-- Node11 -->
<g id="node11" class="node"><title>Node11</title>
<g id="a_node11"><a xlink:href="classinit.html#a1dd1e2b38eef39cba464f65c9ce82568" target="_top" xlink:title="init::init_model">
<polygon fill="white" stroke="black" points="589,-38.5 589,-57.5 669,-57.5 669,-38.5 589,-38.5"/>
<text text-anchor="middle" x="629" y="-45.5" font-family="Helvetica,sans-Serif" font-size="10.00">init::init_model</text>
</a>
</g>
</g>
<!-- Node10&#45;&gt;Node11 -->
<g id="edge16" class="edge"><title>Node10&#45;&gt;Node11</title>
<path fill="none" stroke="midnightblue" d="M379.312,-14.4251C420.183,-18.9167 484.491,-26.29 540,-34 555.936,-36.2134 573.447,-38.939 588.624,-41.3953"/>
<polygon fill="midnightblue" stroke="midnightblue" points="379.514,-10.9264 369.193,-13.3193 378.754,-17.885 379.514,-10.9264"/>
</g>
<!-- Node11&#45;&gt;Node6 -->
<g id="edge17" class="edge"><title>Node11&#45;&gt;Node6</title>
<path fill="none" stroke="midnightblue" d="M654.375,-62.9093C674.077,-74.9598 701.19,-91.5433 717.882,-101.753"/>
<polygon fill="midnightblue" stroke="midnightblue" points="656.001,-59.8005 645.643,-57.5683 652.348,-65.772 656.001,-59.8005"/>
</g>
</g>
</svg>
