<?xml version="1.0" encoding="UTF-8" standalone="no"?>
<!DOCTYPE svg PUBLIC "-//W3C//DTD SVG 1.1//EN"
 "http://www.w3.org/Graphics/SVG/1.1/DTD/svg11.dtd">
<!-- Generated by graphviz version 2.38.0 (20140413.2041)
 -->
<!-- Title: microphysics::mp Pages: 1 -->
<svg width="965pt" height="255pt"
 viewBox="0.00 0.00 965.00 254.50" xmlns="http://www.w3.org/2000/svg" xmlns:xlink="http://www.w3.org/1999/xlink">
<g id="graph0" class="graph" transform="scale(1 1) rotate(0) translate(4 250.5)">
<title>microphysics::mp</title>
<polygon fill="white" stroke="none" points="-4,4 -4,-250.5 961,-250.5 961,4 -4,4"/>
<!-- Node1 -->
<g id="node1" class="node"><title>Node1</title>
<polygon fill="#bfbfbf" stroke="black" points="0,-90.5 0,-109.5 94,-109.5 94,-90.5 0,-90.5"/>
<text text-anchor="middle" x="47" y="-97.5" font-family="Helvetica,sans-Serif" font-size="10.00">microphysics::mp</text>
</g>
<!-- Node2 -->
<g id="node2" class="node"><title>Node2</title>
<g id="a_node2"><a xlink:href="classmodule__mp__thompson.html#a9d504d4387110026eb3c8d8fe49d1072" target="_top" xlink:title="module_mp_thompson\l::mp_gt_driver">
<polygon fill="white" stroke="black" points="132.5,-156 132.5,-186 247.5,-186 247.5,-156 132.5,-156"/>
<text text-anchor="start" x="140.5" y="-174" font-family="Helvetica,sans-Serif" font-size="10.00">module_mp_thompson</text>
<text text-anchor="middle" x="190" y="-163" font-family="Helvetica,sans-Serif" font-size="10.00">::mp_gt_driver</text>
</a>
</g>
</g>
<!-- Node1&#45;&gt;Node2 -->
<g id="edge1" class="edge"><title>Node1&#45;&gt;Node2</title>
<path fill="none" stroke="midnightblue" d="M67.0159,-109.575C88.1298,-120.207 122.79,-137.66 149.779,-151.25"/>
<polygon fill="midnightblue" stroke="midnightblue" points="148.465,-154.507 158.971,-155.879 151.613,-148.255 148.465,-154.507"/>
</g>
<!-- Node6 -->
<g id="node6" class="node"><title>Node6</title>
<g id="a_node6"><a xlink:href="classmodule__mp__simple.html#a3b5b540d9d511651c42ec6b3ba842796" target="_top" xlink:title=" Driver code to control simple microphysics ">
<polygon fill="white" stroke="black" points="130,-85 130,-115 250,-115 250,-85 130,-85"/>
<text text-anchor="start" x="138" y="-103" font-family="Helvetica,sans-Serif" font-size="10.00">module_mp_simple::mp</text>
<text text-anchor="middle" x="190" y="-92" font-family="Helvetica,sans-Serif" font-size="10.00">_simple_driver</text>
</a>
</g>
</g>
<!-- Node1&#45;&gt;Node6 -->
<g id="edge5" class="edge"><title>Node1&#45;&gt;Node6</title>
<path fill="none" stroke="midnightblue" d="M94.1687,-100C102.366,-100 111.063,-100 119.736,-100"/>
<polygon fill="midnightblue" stroke="midnightblue" points="119.874,-103.5 129.874,-100 119.874,-96.5001 119.874,-103.5"/>
</g>
<!-- Node14 -->
<g id="node14" class="node"><title>Node14</title>
<g id="a_node14"><a xlink:href="classmicrophysics.html#a675e77b21fd7c1041f6a6c87176bc4dc" target="_top" xlink:title=" Distribute the microphysics precipitation to neighboring grid cells ">
<polygon fill="white" stroke="black" points="130,-36 130,-66 250,-66 250,-36 130,-36"/>
<text text-anchor="start" x="138" y="-54" font-family="Helvetica,sans-Serif" font-size="10.00">microphysics::distribute</text>
<text text-anchor="middle" x="190" y="-43" font-family="Helvetica,sans-Serif" font-size="10.00">_precip</text>
</a>
</g>
</g>
<!-- Node1&#45;&gt;Node14 -->
<g id="edge15" class="edge"><title>Node1&#45;&gt;Node14</title>
<path fill="none" stroke="midnightblue" d="M75.5209,-90.436C92.7484,-84.4491 115.513,-76.5382 136.128,-69.374"/>
<polygon fill="midnightblue" stroke="midnightblue" points="137.433,-72.6257 145.73,-66.037 135.136,-66.0136 137.433,-72.6257"/>
</g>
<!-- Node3 -->
<g id="node3" class="node"><title>Node3</title>
<g id="a_node3"><a xlink:href="classmodule__mp__thompson.html#a9c09ed2f3aeb55e40a86a3ddc72d1ca8" target="_top" xlink:title="module_mp_thompson\l::mp_thompson">
<polygon fill="white" stroke="black" points="288.5,-167 288.5,-197 403.5,-197 403.5,-167 288.5,-167"/>
<text text-anchor="start" x="296.5" y="-185" font-family="Helvetica,sans-Serif" font-size="10.00">module_mp_thompson</text>
<text text-anchor="middle" x="346" y="-174" font-family="Helvetica,sans-Serif" font-size="10.00">::mp_thompson</text>
</a>
</g>
</g>
<!-- Node2&#45;&gt;Node3 -->
<g id="edge2" class="edge"><title>Node2&#45;&gt;Node3</title>
<path fill="none" stroke="midnightblue" d="M247.906,-175.065C257.803,-175.772 268.175,-176.512 278.305,-177.236"/>
<polygon fill="midnightblue" stroke="midnightblue" points="278.104,-180.731 288.328,-177.952 278.602,-173.748 278.104,-180.731"/>
</g>
<!-- Node4 -->
<g id="node4" class="node"><title>Node4</title>
<g id="a_node4"><a xlink:href="classmodule__mp__thompson.html#a1dec755eb8c0e1e28e03af70d9817b96" target="_top" xlink:title="module_mp_thompson\l::rslf">
<polygon fill="white" stroke="black" points="457.5,-216 457.5,-246 572.5,-246 572.5,-216 457.5,-216"/>
<text text-anchor="start" x="465.5" y="-234" font-family="Helvetica,sans-Serif" font-size="10.00">module_mp_thompson</text>
<text text-anchor="middle" x="515" y="-223" font-family="Helvetica,sans-Serif" font-size="10.00">::rslf</text>
</a>
</g>
</g>
<!-- Node3&#45;&gt;Node4 -->
<g id="edge3" class="edge"><title>Node3&#45;&gt;Node4</title>
<path fill="none" stroke="midnightblue" d="M398.468,-197.101C415.692,-202.155 435.059,-207.838 452.942,-213.085"/>
<polygon fill="midnightblue" stroke="midnightblue" points="452.121,-216.491 462.702,-215.948 454.092,-209.774 452.121,-216.491"/>
</g>
<!-- Node5 -->
<g id="node5" class="node"><title>Node5</title>
<g id="a_node5"><a xlink:href="classmodule__mp__thompson.html#a67de3f9e0eff315e30c6567db69e3722" target="_top" xlink:title="module_mp_thompson\l::rsif">
<polygon fill="white" stroke="black" points="457.5,-167 457.5,-197 572.5,-197 572.5,-167 457.5,-167"/>
<text text-anchor="start" x="465.5" y="-185" font-family="Helvetica,sans-Serif" font-size="10.00">module_mp_thompson</text>
<text text-anchor="middle" x="515" y="-174" font-family="Helvetica,sans-Serif" font-size="10.00">::rsif</text>
</a>
</g>
</g>
<!-- Node3&#45;&gt;Node5 -->
<g id="edge4" class="edge"><title>Node3&#45;&gt;Node5</title>
<path fill="none" stroke="midnightblue" d="M403.539,-182C417.473,-182 432.529,-182 446.91,-182"/>
<polygon fill="midnightblue" stroke="midnightblue" points="447.236,-185.5 457.236,-182 447.236,-178.5 447.236,-185.5"/>
</g>
<!-- Node7 -->
<g id="node7" class="node"><title>Node7</title>
<g id="a_node7"><a xlink:href="classmodule__mp__simple.html#ac6e0bb6089333d9b063ba5f4e6f8127f" target="_top" xlink:title=" Basic microphysics code for a column of air ">
<polygon fill="white" stroke="black" points="286,-74 286,-104 406,-104 406,-74 286,-74"/>
<text text-anchor="start" x="294" y="-92" font-family="Helvetica,sans-Serif" font-size="10.00">module_mp_simple::mp</text>
<text text-anchor="middle" x="346" y="-81" font-family="Helvetica,sans-Serif" font-size="10.00">_simple</text>
</a>
</g>
</g>
<!-- Node6&#45;&gt;Node7 -->
<g id="edge6" class="edge"><title>Node6&#45;&gt;Node7</title>
<path fill="none" stroke="midnightblue" d="M250.1,-95.7786C258.513,-95.1776 267.228,-94.5551 275.813,-93.942"/>
<polygon fill="midnightblue" stroke="midnightblue" points="276.079,-97.432 285.804,-93.2283 275.58,-90.4498 276.079,-97.432"/>
</g>
<!-- Node8 -->
<g id="node8" class="node"><title>Node8</title>
<g id="a_node8"><a xlink:href="classmodule__mp__simple.html#afa657f819d93fc905ac898e46b0551ce" target="_top" xlink:title=" Compute microphysical conversions ">
<polygon fill="white" stroke="black" points="455,-118 455,-148 575,-148 575,-118 455,-118"/>
<text text-anchor="start" x="463" y="-136" font-family="Helvetica,sans-Serif" font-size="10.00">module_mp_simple::mp</text>
<text text-anchor="middle" x="515" y="-125" font-family="Helvetica,sans-Serif" font-size="10.00">_conversions</text>
</a>
</g>
</g>
<!-- Node7&#45;&gt;Node8 -->
<g id="edge7" class="edge"><title>Node7&#45;&gt;Node8</title>
<path fill="none" stroke="midnightblue" d="M404.005,-104.019C417.901,-107.68 432.889,-111.629 447.195,-115.399"/>
<polygon fill="midnightblue" stroke="midnightblue" points="446.407,-118.81 456.969,-117.974 448.19,-112.041 446.407,-118.81"/>
</g>
<!-- Node10 -->
<g id="node10" class="node"><title>Node10</title>
<g id="a_node10"><a xlink:href="classland__surface.html#ab611d871ec5af4909055c4484c2695e9" target="_top" xlink:title="land_surface::sat_mr">
<polygon fill="white" stroke="black" points="849,-104.5 849,-123.5 957,-123.5 957,-104.5 849,-104.5"/>
<text text-anchor="middle" x="903" y="-111.5" font-family="Helvetica,sans-Serif" font-size="10.00">land_surface::sat_mr</text>
</a>
</g>
</g>
<!-- Node7&#45;&gt;Node10 -->
<g id="edge13" class="edge"><title>Node7&#45;&gt;Node10</title>
<path fill="none" stroke="midnightblue" d="M406.174,-75.5106C495.713,-57.477 670.314,-31.6386 813,-67 837.614,-73.1 862.923,-87.3883 880.228,-98.6207"/>
<polygon fill="midnightblue" stroke="midnightblue" points="878.709,-101.815 888.964,-104.475 882.606,-96.0004 878.709,-101.815"/>
</g>
<!-- Node12 -->
<g id="node12" class="node"><title>Node12</title>
<g id="a_node12"><a xlink:href="classmodule__mp__simple.html#aaf815931c9bfa8e29cd64e1133e8ac4d" target="_top" xlink:title=" Change the &quot;phase&quot; of a hydrometeor (e.g. evaporate rain) ">
<polygon fill="white" stroke="black" points="652,-77 652,-107 785,-107 785,-77 652,-77"/>
<text text-anchor="start" x="660" y="-95" font-family="Helvetica,sans-Serif" font-size="10.00">module_mp_simple::phase</text>
<text text-anchor="middle" x="718.5" y="-84" font-family="Helvetica,sans-Serif" font-size="10.00">_change</text>
</a>
</g>
</g>
<!-- Node7&#45;&gt;Node12 -->
<g id="edge14" class="edge"><title>Node7&#45;&gt;Node12</title>
<path fill="none" stroke="midnightblue" d="M406.117,-89.4787C469.986,-89.9958 571.951,-90.8215 641.677,-91.386"/>
<polygon fill="midnightblue" stroke="midnightblue" points="641.694,-94.8862 651.722,-91.4674 641.751,-87.8864 641.694,-94.8862"/>
</g>
<!-- Node13 -->
<g id="node13" class="node"><title>Node13</title>
<g id="a_node13"><a xlink:href="classmodule__mp__simple.html#a555961f80b8e520a047abf3220b1e6df" target="_top" xlink:title=" Compute sedimentation in a column ">
<polygon fill="white" stroke="black" points="442,-0.5 442,-19.5 588,-19.5 588,-0.5 442,-0.5"/>
<text text-anchor="middle" x="515" y="-7.5" font-family="Helvetica,sans-Serif" font-size="10.00">module_mp_simple::sediment</text>
</a>
</g>
</g>
<!-- Node7&#45;&gt;Node13 -->
<g id="edge12" class="edge"><title>Node7&#45;&gt;Node13</title>
<path fill="none" stroke="midnightblue" d="M370.11,-73.8364C388.925,-61.9339 416.457,-45.507 442,-34 451.094,-29.9029 461.106,-26.1302 470.698,-22.8483"/>
<polygon fill="midnightblue" stroke="midnightblue" points="472.089,-26.0749 480.485,-19.6129 469.892,-19.4286 472.089,-26.0749"/>
</g>
<!-- Node9 -->
<g id="node9" class="node"><title>Node9</title>
<g id="a_node9"><a xlink:href="classmodule__mp__simple.html#aa0106ae6c82c8b14c49b4afd1871e12b" target="_top" xlink:title=" Convert cloud water to vapor and back ">
<polygon fill="white" stroke="black" points="653.5,-165 653.5,-195 783.5,-195 783.5,-165 653.5,-165"/>
<text text-anchor="start" x="661.5" y="-183" font-family="Helvetica,sans-Serif" font-size="10.00">module_mp_simple::cloud</text>
<text text-anchor="middle" x="718.5" y="-172" font-family="Helvetica,sans-Serif" font-size="10.00">_conversion</text>
</a>
</g>
</g>
<!-- Node8&#45;&gt;Node9 -->
<g id="edge8" class="edge"><title>Node8&#45;&gt;Node9</title>
<path fill="none" stroke="midnightblue" d="M575.095,-146.784C596.54,-151.786 621.042,-157.501 643.605,-162.764"/>
<polygon fill="midnightblue" stroke="midnightblue" points="642.944,-166.204 653.478,-165.067 644.535,-159.387 642.944,-166.204"/>
</g>
<!-- Node11 -->
<g id="node11" class="node"><title>Node11</title>
<g id="a_node11"><a xlink:href="classmodule__mp__simple.html#a012afbddb9dca5c40bc5bfbe63b275c8" target="_top" xlink:title=" Convert cloud water or ice to rain or snow ">
<polygon fill="white" stroke="black" points="624,-126.5 624,-145.5 813,-145.5 813,-126.5 624,-126.5"/>
<text text-anchor="middle" x="718.5" y="-133.5" font-family="Helvetica,sans-Serif" font-size="10.00">module_mp_simple::cloud2hydrometeor</text>
</a>
</g>
</g>
<!-- Node8&#45;&gt;Node11 -->
<g id="edge10" class="edge"><title>Node8&#45;&gt;Node11</title>
<path fill="none" stroke="midnightblue" d="M575.095,-133.88C587.31,-134.062 600.517,-134.258 613.792,-134.456"/>
<polygon fill="midnightblue" stroke="midnightblue" points="613.891,-137.958 623.942,-134.607 613.995,-130.958 613.891,-137.958"/>
</g>
<!-- Node8&#45;&gt;Node12 -->
<g id="edge11" class="edge"><title>Node8&#45;&gt;Node12</title>
<path fill="none" stroke="midnightblue" d="M575.095,-120.976C595.941,-116.734 619.674,-111.905 641.708,-107.422"/>
<polygon fill="midnightblue" stroke="midnightblue" points="642.594,-110.813 651.695,-105.39 641.198,-103.954 642.594,-110.813"/>
</g>
<!-- Node9&#45;&gt;Node10 -->
<g id="edge9" class="edge"><title>Node9&#45;&gt;Node10</title>
<path fill="none" stroke="midnightblue" d="M781.572,-164.998C792.154,-161.987 802.964,-158.623 813,-155 834.197,-147.347 857.287,-136.636 874.636,-128.081"/>
<polygon fill="midnightblue" stroke="midnightblue" points="876.255,-131.185 883.635,-123.583 873.126,-124.923 876.255,-131.185"/>
</g>
</g>
</svg>
