<?xml version="1.0" encoding="UTF-8" standalone="no"?>
<!DOCTYPE svg PUBLIC "-//W3C//DTD SVG 1.1//EN"
 "http://www.w3.org/Graphics/SVG/1.1/DTD/svg11.dtd">
<!-- Generated by graphviz version 2.32.0 (20130809.1645)
 -->
<!-- Title: time::calendar_date Pages: 1 -->
<svg width="1320pt" height="161pt"
 viewBox="0.00 0.00 1320.00 161.00" xmlns="http://www.w3.org/2000/svg" xmlns:xlink="http://www.w3.org/1999/xlink">
<g id="graph0" class="graph" transform="scale(1 1) rotate(0) translate(4 157)">
<title>time::calendar_date</title>
<polygon fill="white" stroke="white" points="-4,5 -4,-157 1317,-157 1317,5 -4,5"/>
<!-- Node1 -->
<g id="node1" class="node"><title>Node1</title>
<polygon fill="#bfbfbf" stroke="black" points="0,-81.5 0,-100.5 102,-100.5 102,-81.5 0,-81.5"/>
<text text-anchor="middle" x="51" y="-88.5" font-family="Helvetica,sans-Serif" font-size="10.00">time::calendar_date</text>
</g>
<!-- Node2 -->
<g id="node2" class="node"><title>Node2</title>
<g id="a_node2"><a xlink:href="classoutput.html#a96fb2c72004c645360fa3e6f2b551b50" target="_top" xlink:title=" Simple routine to write all domain data from this current time step to the output file...">
<polygon fill="white" stroke="black" points="994.5,-78.5 994.5,-97.5 1101.5,-97.5 1101.5,-78.5 994.5,-78.5"/>
<text text-anchor="middle" x="1048" y="-85.5" font-family="Helvetica,sans-Serif" font-size="10.00">output::write_domain</text>
</a>
</g>
</g>
<!-- Node1&#45;&gt;Node2 -->
<g id="edge1" class="edge"><title>Node1&#45;&gt;Node2</title>
<path fill="none" stroke="midnightblue" d="M112.377,-91C172.769,-91 268.316,-91 351,-91 351,-91 351,-91 760,-91 841.844,-91 936.81,-89.765 994.368,-88.8798"/>
<polygon fill="midnightblue" stroke="midnightblue" points="112.258,-87.5001 102.258,-91 112.258,-94.5001 112.258,-87.5001"/>
</g>
<!-- Node4 -->
<g id="node4" class="node"><title>Node4</title>
<g id="a_node4"><a xlink:href="driver_8f90.html#ab1e5a5816a57fc6e95d9563c2bb53590" target="_top" xlink:title=" Main Program ">
<polygon fill="white" stroke="black" points="1280,-83.5 1280,-102.5 1312,-102.5 1312,-83.5 1280,-83.5"/>
<text text-anchor="middle" x="1296" y="-90.5" font-family="Helvetica,sans-Serif" font-size="10.00">icar</text>
</a>
</g>
</g>
<!-- Node1&#45;&gt;Node4 -->
<g id="edge7" class="edge"><title>Node1&#45;&gt;Node4</title>
<path fill="none" stroke="midnightblue" d="M89.0404,-103.78C145.041,-121.931 254.928,-153 351,-153 351,-153 351,-153 1049,-153 1138.68,-153 1241.64,-114.899 1279.77,-99.4211"/>
<polygon fill="midnightblue" stroke="midnightblue" points="89.8195,-100.352 79.2266,-100.552 87.632,-107.001 89.8195,-100.352"/>
</g>
<!-- Node6 -->
<g id="node6" class="node"><title>Node6</title>
<g id="a_node6"><a xlink:href="classtime.html#adfcbe10943e169e25a9ee15ddb3ce70b" target="_top" xlink:title="time::calc_day_of_year">
<polygon fill="white" stroke="black" points="138,-40.5 138,-59.5 256,-59.5 256,-40.5 138,-40.5"/>
<text text-anchor="middle" x="197" y="-47.5" font-family="Helvetica,sans-Serif" font-size="10.00">time::calc_day_of_year</text>
</a>
</g>
</g>
<!-- Node1&#45;&gt;Node6 -->
<g id="edge8" class="edge"><title>Node1&#45;&gt;Node6</title>
<path fill="none" stroke="midnightblue" d="M95.2923,-78.6737C116.848,-72.5363 142.51,-65.2299 162.534,-59.5286"/>
<polygon fill="midnightblue" stroke="midnightblue" points="94.0577,-75.386 85.3984,-81.4907 95.9747,-82.1185 94.0577,-75.386"/>
</g>
<!-- Node3 -->
<g id="node3" class="node"><title>Node3</title>
<g id="a_node3"><a xlink:href="classboundary__conditions.html#a07a42f467f470ada98e0a35fd5a75f66" target="_top" xlink:title=" Initialize the boundary conditions (read inital conditions, etc.) ">
<polygon fill="white" stroke="black" points="1138,-56 1138,-86 1244,-86 1244,-56 1138,-56"/>
<text text-anchor="start" x="1146" y="-74" font-family="Helvetica,sans-Serif" font-size="10.00">boundary_conditions</text>
<text text-anchor="middle" x="1191" y="-63" font-family="Helvetica,sans-Serif" font-size="10.00">::bc_init</text>
</a>
</g>
</g>
<!-- Node2&#45;&gt;Node3 -->
<g id="edge2" class="edge"><title>Node2&#45;&gt;Node3</title>
<path fill="none" stroke="midnightblue" d="M1111.69,-80.4421C1120.45,-79.3852 1129.38,-78.3087 1137.92,-77.2789"/>
<polygon fill="midnightblue" stroke="midnightblue" points="1111.01,-76.9979 1101.5,-81.6698 1111.85,-83.9476 1111.01,-76.9979"/>
</g>
<!-- Node2&#45;&gt;Node4 -->
<g id="edge4" class="edge"><title>Node2&#45;&gt;Node4</title>
<path fill="none" stroke="midnightblue" d="M1111.87,-93.5632C1120.64,-94.1587 1129.54,-94.6678 1138,-95 1185.07,-96.8484 1196.9,-95.9232 1244,-95 1256.05,-94.7638 1269.69,-94.2142 1279.83,-93.7507"/>
<polygon fill="midnightblue" stroke="midnightblue" points="1111.89,-90.0561 1101.67,-92.83 1111.39,-97.0381 1111.89,-90.0561"/>
</g>
<!-- Node5 -->
<g id="node5" class="node"><title>Node5</title>
<g id="a_node5"><a xlink:href="classtime__step.html#a2c022f11247af72e607b1493289aa974" target="_top" xlink:title=" Step forward one IO time step. ">
<polygon fill="white" stroke="black" points="1149,-17.5 1149,-36.5 1233,-36.5 1233,-17.5 1149,-17.5"/>
<text text-anchor="middle" x="1191" y="-24.5" font-family="Helvetica,sans-Serif" font-size="10.00">time_step::step</text>
</a>
</g>
</g>
<!-- Node2&#45;&gt;Node5 -->
<g id="edge5" class="edge"><title>Node2&#45;&gt;Node5</title>
<path fill="none" stroke="midnightblue" d="M1076.92,-74.0289C1094.31,-65.5244 1117.25,-54.6667 1138,-46 1145.8,-42.7404 1154.39,-39.4767 1162.29,-36.5968"/>
<polygon fill="midnightblue" stroke="midnightblue" points="1075.3,-70.9244 1067.87,-78.4827 1078.39,-77.204 1075.3,-70.9244"/>
</g>
<!-- Node3&#45;&gt;Node4 -->
<g id="edge3" class="edge"><title>Node3&#45;&gt;Node4</title>
<path fill="none" stroke="midnightblue" d="M1254.07,-84.2579C1263.52,-86.2756 1272.47,-88.1874 1279.58,-89.7056"/>
<polygon fill="midnightblue" stroke="midnightblue" points="1254.61,-80.795 1244.1,-82.1289 1253.15,-87.6406 1254.61,-80.795"/>
</g>
<!-- Node5&#45;&gt;Node4 -->
<g id="edge6" class="edge"><title>Node5&#45;&gt;Node4</title>
<path fill="none" stroke="midnightblue" d="M1233.76,-40.5661C1237.31,-42.2224 1240.77,-44.0332 1244,-46 1260.86,-56.2785 1277.05,-72.6765 1286.51,-83.1351"/>
<polygon fill="midnightblue" stroke="midnightblue" points="1234.84,-37.2217 1224.27,-36.5414 1232.11,-43.6666 1234.84,-37.2217"/>
</g>
<!-- Node7 -->
<g id="node7" class="node"><title>Node7</title>
<g id="a_node7"><a xlink:href="classmodule__ra__simple.html#a4529da23ec7082aeafd82ffcad0e6e43" target="_top" xlink:title="module_ra_simple::calc\l_solar_elevation">
<polygon fill="white" stroke="black" points="292.5,-32 292.5,-62 411.5,-62 411.5,-32 292.5,-32"/>
<text text-anchor="start" x="300.5" y="-50" font-family="Helvetica,sans-Serif" font-size="10.00">module_ra_simple::calc</text>
<text text-anchor="middle" x="352" y="-39" font-family="Helvetica,sans-Serif" font-size="10.00">_solar_elevation</text>
</a>
</g>
</g>
<!-- Node6&#45;&gt;Node7 -->
<g id="edge9" class="edge"><title>Node6&#45;&gt;Node7</title>
<path fill="none" stroke="midnightblue" d="M266.374,-48.6593C275.051,-48.4892 283.87,-48.3163 292.376,-48.1495"/>
<polygon fill="midnightblue" stroke="midnightblue" points="266.209,-45.1618 256.279,-48.8573 266.346,-52.1605 266.209,-45.1618"/>
</g>
<!-- Node8 -->
<g id="node8" class="node"><title>Node8</title>
<g id="a_node8"><a xlink:href="classmodule__ra__simple.html#ad1c74605b2817f833d31e806f791e246" target="_top" xlink:title="module_ra_simple::ra\l_simple">
<polygon fill="white" stroke="black" points="448,-32 448,-62 558,-62 558,-32 448,-32"/>
<text text-anchor="start" x="456" y="-50" font-family="Helvetica,sans-Serif" font-size="10.00">module_ra_simple::ra</text>
<text text-anchor="middle" x="503" y="-39" font-family="Helvetica,sans-Serif" font-size="10.00">_simple</text>
</a>
</g>
</g>
<!-- Node7&#45;&gt;Node8 -->
<g id="edge10" class="edge"><title>Node7&#45;&gt;Node8</title>
<path fill="none" stroke="midnightblue" d="M422.012,-47C430.699,-47 439.487,-47 447.898,-47"/>
<polygon fill="midnightblue" stroke="midnightblue" points="421.889,-43.5001 411.889,-47 421.889,-50.5001 421.889,-43.5001"/>
</g>
<!-- Node9 -->
<g id="node9" class="node"><title>Node9</title>
<g id="a_node9"><a xlink:href="classradiation.html#aba1a06d27af96fe11d576458c8ccfe77" target="_top" xlink:title="radiation::rad">
<polygon fill="white" stroke="black" points="594.5,-37.5 594.5,-56.5 667.5,-56.5 667.5,-37.5 594.5,-37.5"/>
<text text-anchor="middle" x="631" y="-44.5" font-family="Helvetica,sans-Serif" font-size="10.00">radiation::rad</text>
</a>
</g>
</g>
<!-- Node8&#45;&gt;Node9 -->
<g id="edge11" class="edge"><title>Node8&#45;&gt;Node9</title>
<path fill="none" stroke="midnightblue" d="M568.297,-47C577.292,-47 586.251,-47 594.441,-47"/>
<polygon fill="midnightblue" stroke="midnightblue" points="568.167,-43.5001 558.167,-47 568.167,-50.5001 568.167,-43.5001"/>
</g>
<!-- Node9&#45;&gt;Node5 -->
<g id="edge12" class="edge"><title>Node9&#45;&gt;Node5</title>
<path fill="none" stroke="midnightblue" d="M677.867,-45.356C784.425,-41.5367 1047.34,-32.1132 1148.98,-28.4704"/>
<polygon fill="midnightblue" stroke="midnightblue" points="677.622,-41.8624 667.754,-45.7185 677.873,-48.858 677.622,-41.8624"/>
</g>
<!-- Node10 -->
<g id="node10" class="node"><title>Node10</title>
<g id="a_node10"><a xlink:href="classmodule__cu__kf.html#afbc0670c02010c630409b1796e89a3fb" target="_top" xlink:title="module_cu_kf::kfpara">
<polygon fill="white" stroke="black" points="704,-0.5 704,-19.5 814,-19.5 814,-0.5 704,-0.5"/>
<text text-anchor="middle" x="759" y="-7.5" font-family="Helvetica,sans-Serif" font-size="10.00">module_cu_kf::kfpara</text>
</a>
</g>
</g>
<!-- Node9&#45;&gt;Node10 -->
<g id="edge13" class="edge"><title>Node9&#45;&gt;Node10</title>
<path fill="none" stroke="midnightblue" d="M674.444,-34.5363C691.016,-29.6698 709.72,-24.1774 725.224,-19.6247"/>
<polygon fill="midnightblue" stroke="midnightblue" points="673.057,-31.2958 664.448,-37.4716 675.029,-38.0122 673.057,-31.2958"/>
</g>
<!-- Node11 -->
<g id="node11" class="node"><title>Node11</title>
<g id="a_node11"><a xlink:href="classmodule__cu__kf.html#a273d9ce9bce064bfc092d6940bea4e27" target="_top" xlink:title="module_cu_kf::kfcps">
<polygon fill="white" stroke="black" points="850.5,-0.5 850.5,-19.5 957.5,-19.5 957.5,-0.5 850.5,-0.5"/>
<text text-anchor="middle" x="904" y="-7.5" font-family="Helvetica,sans-Serif" font-size="10.00">module_cu_kf::kfcps</text>
</a>
</g>
</g>
<!-- Node10&#45;&gt;Node11 -->
<g id="edge14" class="edge"><title>Node10&#45;&gt;Node11</title>
<path fill="none" stroke="midnightblue" d="M824.203,-10C832.925,-10 841.794,-10 850.282,-10"/>
<polygon fill="midnightblue" stroke="midnightblue" points="824.062,-6.5001 814.062,-10 824.062,-13.5001 824.062,-6.5001"/>
</g>
<!-- Node12 -->
<g id="node12" class="node"><title>Node12</title>
<g id="a_node12"><a xlink:href="classconvection.html#a06b811540eb747b3734e7fb35de41782" target="_top" xlink:title="convection::convect">
<polygon fill="white" stroke="black" points="996,-0.5 996,-19.5 1100,-19.5 1100,-0.5 996,-0.5"/>
<text text-anchor="middle" x="1048" y="-7.5" font-family="Helvetica,sans-Serif" font-size="10.00">convection::convect</text>
</a>
</g>
</g>
<!-- Node11&#45;&gt;Node12 -->
<g id="edge15" class="edge"><title>Node11&#45;&gt;Node12</title>
<path fill="none" stroke="midnightblue" d="M967.941,-10C977.315,-10 986.878,-10 995.967,-10"/>
<polygon fill="midnightblue" stroke="midnightblue" points="967.876,-6.5001 957.876,-10 967.876,-13.5001 967.876,-6.5001"/>
</g>
<!-- Node12&#45;&gt;Node5 -->
<g id="edge16" class="edge"><title>Node12&#45;&gt;Node5</title>
<path fill="none" stroke="midnightblue" d="M1110.52,-17.4177C1123.42,-18.9723 1136.72,-20.576 1148.66,-22.0163"/>
<polygon fill="midnightblue" stroke="midnightblue" points="1110.65,-13.9077 1100.3,-16.1855 1109.81,-20.8574 1110.65,-13.9077"/>
</g>
</g>
</svg>
