<?xml version="1.0" encoding="UTF-8" standalone="no"?>
<!DOCTYPE svg PUBLIC "-//W3C//DTD SVG 1.1//EN"
 "http://www.w3.org/Graphics/SVG/1.1/DTD/svg11.dtd">
<!-- Generated by graphviz version 2.38.0 (20140413.2041)
 -->
<!-- Title: linear_theory_lut_disk_io::read_lut Pages: 1 -->
<!--zoomable 88 -->
<svg id="main" version="1.1" xmlns="http://www.w3.org/2000/svg" xmlns:xlink="http://www.w3.org/1999/xlink" xml:space="preserve" onload="init(evt)">
<style type="text/css"><![CDATA[
.edge:hover path { stroke: red; }
.edge:hover polygon { stroke: red; fill: red; }
]]></style>
<script type="text/javascript"><![CDATA[
var edges = document.getElementsByTagName('g');
if (edges && edges.length) {
  for (var i=0;i<edges.length;i++) {
    if (edges[i].id.substr(0,4)=='edge') {
      edges[i].setAttribute('class','edge');
    }
  }
}
]]></script>
        <defs>
                <circle id="rim" cx="0" cy="0" r="7"/>
                <circle id="rim2" cx="0" cy="0" r="3.5"/>
                <g id="zoomPlus">
                        <use xlink:href="#rim" fill="#404040">
                                <set attributeName="fill" to="#808080" begin="zoomplus.mouseover" end="zoomplus.mouseout"/>
                        </use>
                        <path d="M-4,0h8M0,-4v8" fill="none" stroke="white" stroke-width="1.5" pointer-events="none"/>
                </g>
                <g id="zoomMin">
                        <use xlink:href="#rim" fill="#404040">
                                <set attributeName="fill" to="#808080" begin="zoomminus.mouseover" end="zoomminus.mouseout"/>
                        </use>
                        <path d="M-4,0h8" fill="none" stroke="white" stroke-width="1.5" pointer-events="none"/>
                </g>
                <g id="dirArrow">
                        <path fill="none" stroke="white" stroke-width="1.5" d="M0,-3.0v7 M-2.5,-0.5L0,-3.0L2.5,-0.5"/>
                </g>
               <g id="resetDef">
                       <use xlink:href="#rim2" fill="#404040">
                               <set attributeName="fill" to="#808080" begin="reset.mouseover" end="reset.mouseout"/>
                       </use>
               </g>
        </defs>

<script type="text/javascript">
var viewWidth = 915;
var viewHeight = 88;
var sectionId = 'dynsection-4';
</script>
<script xlink:href="svgpan.js"/>
<svg id="graph" class="graph">
<g id="viewport">
<title>linear_theory_lut_disk_io::read_lut</title>
<polygon fill="white" stroke="none" points="-4,4 -4,-84 911,-84 911,4 -4,4"/>
<!-- Node1 -->
<g id="node1" class="node"><title>Node1</title>
<polygon fill="#bfbfbf" stroke="black" points="0,-24.5 0,-54.5 111,-54.5 111,-24.5 0,-24.5"/>
<text text-anchor="start" x="8" y="-42.5" font-family="Helvetica,sans-Serif" font-size="10.00">linear_theory_lut_disk</text>
<text text-anchor="middle" x="55.5" y="-31.5" font-family="Helvetica,sans-Serif" font-size="10.00">_io::read_lut</text>
</g>
<!-- Node2 -->
<g id="node2" class="node"><title>Node2</title>
<g id="a_node2"><a xlink:href="classlinear__theory__winds.html#a1c7117dad74a51614a026a50aec8b988" target="_top" xlink:title="linear_theory_winds\l::initialize_spatial_winds">
<polygon fill="white" stroke="black" points="147,-24.5 147,-54.5 269,-54.5 269,-24.5 147,-24.5"/>
<text text-anchor="start" x="155" y="-42.5" font-family="Helvetica,sans-Serif" font-size="10.00">linear_theory_winds</text>
<text text-anchor="middle" x="208" y="-31.5" font-family="Helvetica,sans-Serif" font-size="10.00">::initialize_spatial_winds</text>
</a>
</g>
</g>
<!-- Node1&#45;&gt;Node2 -->
<g id="edge1" class="edge"><title>Node1&#45;&gt;Node2</title>
<path fill="none" stroke="midnightblue" d="M121.464,-39.5C129.926,-39.5 138.565,-39.5 146.942,-39.5"/>
<polygon fill="midnightblue" stroke="midnightblue" points="121.26,-36.0001 111.26,-39.5 121.26,-43.0001 121.26,-36.0001"/>
</g>
<!-- Node3 -->
<g id="node3" class="node"><title>Node3</title>
<g id="a_node3"><a xlink:href="classlinear__theory__winds.html#a5aed1fad471120ba77c203fa6158a5ba" target="_top" xlink:title="linear_theory_winds\l::setup_linwinds">
<polygon fill="white" stroke="black" points="305,-24.5 305,-54.5 408,-54.5 408,-24.5 305,-24.5"/>
<text text-anchor="start" x="313" y="-42.5" font-family="Helvetica,sans-Serif" font-size="10.00">linear_theory_winds</text>
<text text-anchor="middle" x="356.5" y="-31.5" font-family="Helvetica,sans-Serif" font-size="10.00">::setup_linwinds</text>
</a>
</g>
</g>
<!-- Node2&#45;&gt;Node3 -->
<g id="edge2" class="edge"><title>Node2&#45;&gt;Node3</title>
<path fill="none" stroke="midnightblue" d="M279.095,-39.5C287.734,-39.5 296.432,-39.5 304.706,-39.5"/>
<polygon fill="midnightblue" stroke="midnightblue" points="279.01,-36.0001 269.01,-39.5 279.01,-43.0001 279.01,-36.0001"/>
</g>
<!-- Node4 -->
<g id="node4" class="node"><title>Node4</title>
<g id="a_node4"><a xlink:href="classlinear__theory__winds.html#a248a832d459ec9cd399c372d2ae9cb0a" target="_top" xlink:title="linear_theory_winds\l::linear_perturb">
<polygon fill="white" stroke="black" points="444,-24.5 444,-54.5 547,-54.5 547,-24.5 444,-24.5"/>
<text text-anchor="start" x="452" y="-42.5" font-family="Helvetica,sans-Serif" font-size="10.00">linear_theory_winds</text>
<text text-anchor="middle" x="495.5" y="-31.5" font-family="Helvetica,sans-Serif" font-size="10.00">::linear_perturb</text>
</a>
</g>
</g>
<!-- Node3&#45;&gt;Node4 -->
<g id="edge3" class="edge"><title>Node3&#45;&gt;Node4</title>
<path fill="none" stroke="midnightblue" d="M418.32,-39.5C426.772,-39.5 435.382,-39.5 443.626,-39.5"/>
<polygon fill="midnightblue" stroke="midnightblue" points="418.125,-36.0001 408.125,-39.5 418.124,-43.0001 418.125,-36.0001"/>
</g>
<!-- Node5 -->
<g id="node5" class="node"><title>Node5</title>
<g id="a_node5"><a xlink:href="classboundary__conditions.html#ac4cfb5127bfecdc6e088ef949694ea4a" target="_top" xlink:title=" Remove linear theory topographic winds perturbations from the low resolution wind field...">
<polygon fill="white" stroke="black" points="583,-46.5 583,-76.5 697,-76.5 697,-46.5 583,-46.5"/>
<text text-anchor="start" x="591" y="-64.5" font-family="Helvetica,sans-Serif" font-size="10.00">boundary_conditions</text>
<text text-anchor="middle" x="640" y="-53.5" font-family="Helvetica,sans-Serif" font-size="10.00">::remove_linear_winds</text>
</a>
</g>
</g>
<!-- Node4&#45;&gt;Node5 -->
<g id="edge4" class="edge"><title>Node4&#45;&gt;Node5</title>
<path fill="none" stroke="midnightblue" d="M557.295,-48.886C565.728,-50.1878 574.36,-51.5205 582.706,-52.809"/>
<polygon fill="midnightblue" stroke="midnightblue" points="557.558,-45.3852 547.141,-47.3183 556.49,-52.3032 557.558,-45.3852"/>
</g>
<!-- Node9 -->
<g id="node9" class="node"><title>Node9</title>
<g id="a_node9"><a xlink:href="classwind.html#a582192f02996b37543b966df84af1e78" target="_top" xlink:title="wind::update_winds">
<polygon fill="white" stroke="black" points="588.5,-8 588.5,-27 691.5,-27 691.5,-8 588.5,-8"/>
<text text-anchor="middle" x="640" y="-15" font-family="Helvetica,sans-Serif" font-size="10.00">wind::update_winds</text>
</a>
</g>
</g>
<!-- Node4&#45;&gt;Node9 -->
<g id="edge9" class="edge"><title>Node4&#45;&gt;Node9</title>
<path fill="none" stroke="midnightblue" d="M557.265,-30.1188C567.519,-28.5357 578.07,-26.9068 588.042,-25.3673"/>
<polygon fill="midnightblue" stroke="midnightblue" points="556.49,-26.6968 547.141,-31.6817 557.558,-33.6148 556.49,-26.6968"/>
</g>
<!-- Node6 -->
<g id="node6" class="node"><title>Node6</title>
<g id="a_node6"><a xlink:href="classboundary__conditions.html#a07a42f467f470ada98e0a35fd5a75f66" target="_top" xlink:title=" Initialize the boundary conditions (read inital conditions, etc.) ">
<polygon fill="white" stroke="black" points="733,-49.5 733,-79.5 839,-79.5 839,-49.5 733,-49.5"/>
<text text-anchor="start" x="741" y="-67.5" font-family="Helvetica,sans-Serif" font-size="10.00">boundary_conditions</text>
<text text-anchor="middle" x="786" y="-56.5" font-family="Helvetica,sans-Serif" font-size="10.00">::bc_init</text>
</a>
</g>
</g>
<!-- Node5&#45;&gt;Node6 -->
<g id="edge5" class="edge"><title>Node5&#45;&gt;Node6</title>
<path fill="none" stroke="midnightblue" d="M707.338,-62.882C715.811,-63.0586 724.389,-63.2373 732.599,-63.4083"/>
<polygon fill="midnightblue" stroke="midnightblue" points="707.157,-59.3776 697.086,-62.6685 707.011,-66.3761 707.157,-59.3776"/>
</g>
<!-- Node8 -->
<g id="node8" class="node"><title>Node8</title>
<g id="a_node8"><a xlink:href="classboundary__conditions.html#a1e8385c37634f3d7f70ea7c749dcda11" target="_top" xlink:title=" Read in the next timestep of input data and apply to the dXdt grids as appropriate. ">
<polygon fill="white" stroke="black" points="733,-0.5 733,-30.5 839,-30.5 839,-0.5 733,-0.5"/>
<text text-anchor="start" x="741" y="-18.5" font-family="Helvetica,sans-Serif" font-size="10.00">boundary_conditions</text>
<text text-anchor="middle" x="786" y="-7.5" font-family="Helvetica,sans-Serif" font-size="10.00">::bc_update</text>
</a>
</g>
</g>
<!-- Node5&#45;&gt;Node8 -->
<g id="edge7" class="edge"><title>Node5&#45;&gt;Node8</title>
<path fill="none" stroke="midnightblue" d="M698.045,-43.2772C711.202,-39.0743 725.056,-34.6487 737.743,-30.596"/>
<polygon fill="midnightblue" stroke="midnightblue" points="696.612,-40.0608 688.151,-46.4379 698.742,-46.7289 696.612,-40.0608"/>
</g>
<!-- Node7 -->
<g id="node7" class="node"><title>Node7</title>
<g id="a_node7"><a xlink:href="driver_8f90.html#ab1e5a5816a57fc6e95d9563c2bb53590" target="_top" xlink:title=" Main Program ">
<polygon fill="white" stroke="black" points="875,-30 875,-49 907,-49 907,-30 875,-30"/>
<text text-anchor="middle" x="891" y="-37" font-family="Helvetica,sans-Serif" font-size="10.00">icar</text>
</a>
</g>
</g>
<!-- Node6&#45;&gt;Node7 -->
<g id="edge6" class="edge"><title>Node6&#45;&gt;Node7</title>
<path fill="none" stroke="midnightblue" d="M849.071,-49.4343C858.517,-47.1414 867.468,-44.9689 874.576,-43.2436"/>
<polygon fill="midnightblue" stroke="midnightblue" points="847.996,-46.0935 839.104,-51.8535 849.647,-52.896 847.996,-46.0935"/>
</g>
<!-- Node8&#45;&gt;Node7 -->
<g id="edge8" class="edge"><title>Node8&#45;&gt;Node7</title>
<path fill="none" stroke="midnightblue" d="M849.071,-29.9631C858.517,-32.1642 867.468,-34.2498 874.576,-35.9061"/>
<polygon fill="midnightblue" stroke="midnightblue" points="849.637,-26.5013 839.104,-27.6406 848.048,-33.3187 849.637,-26.5013"/>
</g>
<!-- Node9&#45;&gt;Node6 -->
<g id="edge10" class="edge"><title>Node9&#45;&gt;Node6</title>
<path fill="none" stroke="midnightblue" d="M679.84,-30.1768C698.041,-36.1175 719.859,-43.2388 738.893,-49.4512"/>
<polygon fill="midnightblue" stroke="midnightblue" points="680.733,-26.7868 670.141,-27.0112 678.561,-33.4413 680.733,-26.7868"/>
</g>
<!-- Node9&#45;&gt;Node8 -->
<g id="edge11" class="edge"><title>Node9&#45;&gt;Node8</title>
<path fill="none" stroke="midnightblue" d="M701.895,-16.6542C712.156,-16.5117 722.725,-16.3649 732.742,-16.2258"/>
<polygon fill="midnightblue" stroke="midnightblue" points="701.719,-13.1562 691.769,-16.7949 701.817,-20.1556 701.719,-13.1562"/>
</g>
</g>
</svg>
        <g id="navigator" transform="translate(0 0)" fill="#404254">
                <rect fill="#f2f5e9" fill-opacity="0.5" stroke="#606060" stroke-width=".5" x="0" y="0" width="60" height="60"/>
                <use id="zoomplus" xlink:href="#zoomPlus" x="17" y="9" onmousedown="handleZoom(evt,'in')"/>
                <use id="zoomminus" xlink:href="#zoomMin" x="42" y="9" onmousedown="handleZoom(evt,'out')"/>
                <use id="reset" xlink:href="#resetDef" x="30" y="36" onmousedown="handleReset()"/>
                <g id="arrowUp" xlink:href="#dirArrow" transform="translate(30 24)" onmousedown="handlePan(0,-1)">
                  <use xlink:href="#rim" fill="#404040">
                        <set attributeName="fill" to="#808080" begin="arrowUp.mouseover" end="arrowUp.mouseout"/>
                  </use>
                  <path fill="none" stroke="white" stroke-width="1.5" d="M0,-3.0v7 M-2.5,-0.5L0,-3.0L2.5,-0.5"/>
                </g>
                <g id="arrowRight" xlink:href="#dirArrow" transform="rotate(90) translate(36 -43)" onmousedown="handlePan(1,0)">
                  <use xlink:href="#rim" fill="#404040">
                        <set attributeName="fill" to="#808080" begin="arrowRight.mouseover" end="arrowRight.mouseout"/>
                  </use>
                  <path fill="none" stroke="white" stroke-width="1.5" d="M0,-3.0v7 M-2.5,-0.5L0,-3.0L2.5,-0.5"/>
                </g>
                <g id="arrowDown" xlink:href="#dirArrow" transform="rotate(180) translate(-30 -48)" onmousedown="handlePan(0,1)">
                  <use xlink:href="#rim" fill="#404040">
                        <set attributeName="fill" to="#808080" begin="arrowDown.mouseover" end="arrowDown.mouseout"/>
                  </use>
                  <path fill="none" stroke="white" stroke-width="1.5" d="M0,-3.0v7 M-2.5,-0.5L0,-3.0L2.5,-0.5"/>
                </g>
                <g id="arrowLeft" xlink:href="#dirArrow" transform="rotate(270) translate(-36 17)" onmousedown="handlePan(-1,0)">
                  <use xlink:href="#rim" fill="#404040">
                        <set attributeName="fill" to="#808080" begin="arrowLeft.mouseover" end="arrowLeft.mouseout"/>
                  </use>
                  <path fill="none" stroke="white" stroke-width="1.5" d="M0,-3.0v7 M-2.5,-0.5L0,-3.0L2.5,-0.5"/>
                </g>
        </g>
        <svg viewBox="0 0 15 15" width="100%" height="30px" preserveAspectRatio="xMaxYMin meet">
         <g id="arrow_out" transform="scale(0.3 0.3)">
          <a xlink:href="classlinear__theory__lut__disk__io_a7b4e839b4cee03c05190479e277bc34a_icgraph_org.svg" target="_base">
           <rect id="button" ry="5" rx="5" y="6" x="6" height="38" width="38"
                fill="#f2f5e9" fill-opacity="0.5" stroke="#606060" stroke-width="1.0"/>
           <path id="arrow"
             d="M 11.500037,31.436501 C 11.940474,20.09759 22.043105,11.32322 32.158766,21.979434 L 37.068811,17.246167 C 37.068811,17.246167 37.088388,32 37.088388,32 L 22.160133,31.978069 C 22.160133,31.978069 26.997745,27.140456 26.997745,27.140456 C 18.528582,18.264221 13.291696,25.230495 11.500037,31.436501 z"
             style="fill:#404040;"/>
          </a>
         </g>
        </svg>
</svg>
