<?xml version="1.0" encoding="UTF-8" standalone="no"?>
<!DOCTYPE svg PUBLIC "-//W3C//DTD SVG 1.1//EN"
 "http://www.w3.org/Graphics/SVG/1.1/DTD/svg11.dtd">
<!-- Generated by graphviz version 2.38.0 (20140413.2041)
 -->
<!-- Title: boundary_conditions::smooth_wind Pages: 1 -->
<svg width="616pt" height="232pt"
 viewBox="0.00 0.00 616.00 231.98" xmlns="http://www.w3.org/2000/svg" xmlns:xlink="http://www.w3.org/1999/xlink">
<g id="graph0" class="graph" transform="scale(1 1) rotate(0) translate(4 227.979)">
<title>boundary_conditions::smooth_wind</title>
<polygon fill="white" stroke="none" points="-4,4 -4,-227.979 612,-227.979 612,4 -4,4"/>
<!-- Node1 -->
<g id="node1" class="node"><title>Node1</title>
<polygon fill="#bfbfbf" stroke="black" points="0,-91.7025 0,-121.702 106,-121.702 106,-91.7025 0,-91.7025"/>
<text text-anchor="start" x="8" y="-109.702" font-family="Helvetica,sans-Serif" font-size="10.00">boundary_conditions</text>
<text text-anchor="middle" x="53" y="-98.7025" font-family="Helvetica,sans-Serif" font-size="10.00">::smooth_wind</text>
</g>
<!-- Node2 -->
<g id="node2" class="node"><title>Node2</title>
<g id="a_node2"><a xlink:href="classboundary__conditions.html#a3d4ddfc81942b206888c807998f4bb3c" target="_top" xlink:title=" Generic routine to read a forcing variable (varname) from a netcdf file (filename) at a time step (c...">
<polygon fill="white" stroke="black" points="142,-113.702 142,-143.702 248,-143.702 248,-113.702 142,-113.702"/>
<text text-anchor="start" x="150" y="-131.702" font-family="Helvetica,sans-Serif" font-size="10.00">boundary_conditions</text>
<text text-anchor="middle" x="195" y="-120.702" font-family="Helvetica,sans-Serif" font-size="10.00">::read_var</text>
</a>
</g>
</g>
<!-- Node1&#45;&gt;Node2 -->
<g id="edge1" class="edge"><title>Node1&#45;&gt;Node2</title>
<path fill="none" stroke="midnightblue" d="M116.107,-116.462C124.695,-117.812 133.443,-119.186 141.826,-120.504"/>
<polygon fill="midnightblue" stroke="midnightblue" points="116.553,-112.989 106.131,-114.894 115.466,-119.904 116.553,-112.989"/>
</g>
<!-- Node4 -->
<g id="node4" class="node"><title>Node4</title>
<g id="a_node4"><a xlink:href="classboundary__conditions.html#a07a42f467f470ada98e0a35fd5a75f66" target="_top" xlink:title=" Initialize the boundary conditions (read inital conditions, etc.) ">
<polygon fill="white" stroke="black" points="434,-157.702 434,-187.702 540,-187.702 540,-157.702 434,-157.702"/>
<text text-anchor="start" x="442" y="-175.702" font-family="Helvetica,sans-Serif" font-size="10.00">boundary_conditions</text>
<text text-anchor="middle" x="487" y="-164.702" font-family="Helvetica,sans-Serif" font-size="10.00">::bc_init</text>
</a>
</g>
</g>
<!-- Node1&#45;&gt;Node4 -->
<g id="edge13" class="edge"><title>Node1&#45;&gt;Node4</title>
<path fill="none" stroke="midnightblue" d="M85.068,-127.269C127.754,-154.117 207.926,-199.584 284,-215.702 333.566,-226.204 348.636,-227.118 398,-215.702 421.194,-210.339 445.338,-197.982 462.456,-187.884"/>
<polygon fill="midnightblue" stroke="midnightblue" points="86.858,-124.259 76.5432,-121.839 83.0977,-130.163 86.858,-124.259"/>
</g>
<!-- Node7 -->
<g id="node7" class="node"><title>Node7</title>
<g id="a_node7"><a xlink:href="classboundary__conditions.html#a1e8385c37634f3d7f70ea7c749dcda11" target="_top" xlink:title=" Read in the next timestep of input data and apply to the dXdt grids as appropriate. ">
<polygon fill="white" stroke="black" points="434,-69.7025 434,-99.7025 540,-99.7025 540,-69.7025 434,-69.7025"/>
<text text-anchor="start" x="442" y="-87.7025" font-family="Helvetica,sans-Serif" font-size="10.00">boundary_conditions</text>
<text text-anchor="middle" x="487" y="-76.7025" font-family="Helvetica,sans-Serif" font-size="10.00">::bc_update</text>
</a>
</g>
</g>
<!-- Node1&#45;&gt;Node7 -->
<g id="edge14" class="edge"><title>Node1&#45;&gt;Node7</title>
<path fill="none" stroke="midnightblue" d="M89.3538,-86.7236C133.34,-63.1192 211.516,-25.2226 284,-10.7025 333.68,-0.750574 350.398,6.65181 398,-10.7025 430.069,-22.394 458.56,-51.4839 473.944,-69.5124"/>
<polygon fill="midnightblue" stroke="midnightblue" points="87.6192,-83.6827 80.5009,-91.53 90.9592,-89.8345 87.6192,-83.6827"/>
</g>
<!-- Node8 -->
<g id="node8" class="node"><title>Node8</title>
<g id="a_node8"><a xlink:href="classboundary__conditions.html#ac4cfb5127bfecdc6e088ef949694ea4a" target="_top" xlink:title=" Remove linear theory topographic winds perturbations from the low resolution wind field...">
<polygon fill="white" stroke="black" points="284,-69.7025 284,-99.7025 398,-99.7025 398,-69.7025 284,-69.7025"/>
<text text-anchor="start" x="292" y="-87.7025" font-family="Helvetica,sans-Serif" font-size="10.00">boundary_conditions</text>
<text text-anchor="middle" x="341" y="-76.7025" font-family="Helvetica,sans-Serif" font-size="10.00">::remove_linear_winds</text>
</a>
</g>
</g>
<!-- Node1&#45;&gt;Node8 -->
<g id="edge10" class="edge"><title>Node1&#45;&gt;Node8</title>
<path fill="none" stroke="midnightblue" d="M116.15,-101.922C166.07,-98.0817 235.569,-92.7356 283.832,-89.0231"/>
<polygon fill="midnightblue" stroke="midnightblue" points="115.826,-98.4362 106.124,-102.693 116.363,-105.416 115.826,-98.4362"/>
</g>
<!-- Node3 -->
<g id="node3" class="node"><title>Node3</title>
<g id="a_node3"><a xlink:href="classboundary__conditions.html#afd8110e2b16915ce0cb12ce4958fe09c" target="_top" xlink:title=" Initialize the external winds information (filenames, nfiles, etc) and read the initial conditions ...">
<polygon fill="white" stroke="black" points="288,-157.702 288,-187.702 394,-187.702 394,-157.702 288,-157.702"/>
<text text-anchor="start" x="296" y="-175.702" font-family="Helvetica,sans-Serif" font-size="10.00">boundary_conditions</text>
<text text-anchor="middle" x="341" y="-164.702" font-family="Helvetica,sans-Serif" font-size="10.00">::ext_winds_init</text>
</a>
</g>
</g>
<!-- Node2&#45;&gt;Node3 -->
<g id="edge2" class="edge"><title>Node2&#45;&gt;Node3</title>
<path fill="none" stroke="midnightblue" d="M254.951,-146.715C266.786,-150.332 279.108,-154.097 290.579,-157.602"/>
<polygon fill="midnightblue" stroke="midnightblue" points="255.74,-143.297 245.154,-143.722 253.695,-149.991 255.74,-143.297"/>
</g>
<!-- Node2&#45;&gt;Node4 -->
<g id="edge5" class="edge"><title>Node2&#45;&gt;Node4</title>
<path fill="none" stroke="midnightblue" d="M216.85,-151.366C233.298,-167.465 257.776,-187.751 284,-196.702 337.81,-215.07 403.833,-200.842 445.424,-187.753"/>
<polygon fill="midnightblue" stroke="midnightblue" points="218.964,-148.526 209.448,-143.867 213.982,-153.443 218.964,-148.526"/>
</g>
<!-- Node6 -->
<g id="node6" class="node"><title>Node6</title>
<g id="a_node6"><a xlink:href="classboundary__conditions.html#a40ba01db58736c2bb018af7ebe72f55f" target="_top" xlink:title=" Update the external wind field ">
<polygon fill="white" stroke="black" points="288,-20.7025 288,-50.7025 394,-50.7025 394,-20.7025 288,-20.7025"/>
<text text-anchor="start" x="296" y="-38.7025" font-family="Helvetica,sans-Serif" font-size="10.00">boundary_conditions</text>
<text text-anchor="middle" x="341" y="-27.7025" font-family="Helvetica,sans-Serif" font-size="10.00">::update_ext_winds</text>
</a>
</g>
</g>
<!-- Node2&#45;&gt;Node6 -->
<g id="edge6" class="edge"><title>Node2&#45;&gt;Node6</title>
<path fill="none" stroke="midnightblue" d="M220.348,-106.784C237.352,-92.2063 261.035,-73.3108 284,-59.7025 289.369,-56.5211 295.238,-53.5313 301.09,-50.8139"/>
<polygon fill="midnightblue" stroke="midnightblue" points="217.817,-104.347 212.57,-113.551 222.412,-109.628 217.817,-104.347"/>
</g>
<!-- Node2&#45;&gt;Node7 -->
<g id="edge9" class="edge"><title>Node2&#45;&gt;Node7</title>
<path fill="none" stroke="midnightblue" d="M258.399,-125.234C298.513,-122.338 351.614,-117.262 398,-108.702 410.614,-106.375 424.056,-103.118 436.538,-99.7518"/>
<polygon fill="midnightblue" stroke="midnightblue" points="257.965,-121.755 248.232,-125.941 258.451,-128.738 257.965,-121.755"/>
</g>
<!-- Node3&#45;&gt;Node4 -->
<g id="edge3" class="edge"><title>Node3&#45;&gt;Node4</title>
<path fill="none" stroke="midnightblue" d="M404.495,-172.702C414.301,-172.702 424.346,-172.702 433.885,-172.702"/>
<polygon fill="midnightblue" stroke="midnightblue" points="404.395,-169.203 394.395,-172.702 404.395,-176.203 404.395,-169.203"/>
</g>
<!-- Node5 -->
<g id="node5" class="node"><title>Node5</title>
<g id="a_node5"><a xlink:href="driver_8f90.html#ab1e5a5816a57fc6e95d9563c2bb53590" target="_top" xlink:title=" Main Program ">
<polygon fill="white" stroke="black" points="576,-119.202 576,-138.202 608,-138.202 608,-119.202 576,-119.202"/>
<text text-anchor="middle" x="592" y="-126.202" font-family="Helvetica,sans-Serif" font-size="10.00">icar</text>
</a>
</g>
</g>
<!-- Node4&#45;&gt;Node5 -->
<g id="edge4" class="edge"><title>Node4&#45;&gt;Node5</title>
<path fill="none" stroke="midnightblue" d="M532.625,-153.639C548.084,-147.035 564.386,-140.072 575.821,-135.187"/>
<polygon fill="midnightblue" stroke="midnightblue" points="530.98,-150.536 523.159,-157.683 533.73,-156.973 530.98,-150.536"/>
</g>
<!-- Node6&#45;&gt;Node7 -->
<g id="edge7" class="edge"><title>Node6&#45;&gt;Node7</title>
<path fill="none" stroke="midnightblue" d="M396.043,-54.0921C411.036,-59.194 427.14,-64.6736 441.519,-69.5665"/>
<polygon fill="midnightblue" stroke="midnightblue" points="396.974,-50.7119 386.38,-50.8039 394.719,-57.3388 396.974,-50.7119"/>
</g>
<!-- Node7&#45;&gt;Node5 -->
<g id="edge8" class="edge"><title>Node7&#45;&gt;Node5</title>
<path fill="none" stroke="midnightblue" d="M532.625,-103.765C548.084,-110.37 564.386,-117.333 575.821,-122.218"/>
<polygon fill="midnightblue" stroke="midnightblue" points="533.73,-100.432 523.159,-99.7217 530.98,-106.869 533.73,-100.432"/>
</g>
<!-- Node8&#45;&gt;Node4 -->
<g id="edge11" class="edge"><title>Node8&#45;&gt;Node4</title>
<path fill="none" stroke="midnightblue" d="M375.57,-105.217C401.721,-121.198 437.439,-143.026 461.087,-157.478"/>
<polygon fill="midnightblue" stroke="midnightblue" points="377.112,-102.058 366.754,-99.8302 373.462,-108.031 377.112,-102.058"/>
</g>
<!-- Node8&#45;&gt;Node7 -->
<g id="edge12" class="edge"><title>Node8&#45;&gt;Node7</title>
<path fill="none" stroke="midnightblue" d="M408.338,-84.7025C416.811,-84.7025 425.389,-84.7025 433.599,-84.7025"/>
<polygon fill="midnightblue" stroke="midnightblue" points="408.087,-81.2026 398.086,-84.7025 408.086,-88.2026 408.087,-81.2026"/>
</g>
</g>
</svg>
