<?xml version="1.0" encoding="UTF-8" standalone="no"?>
<!DOCTYPE svg PUBLIC "-//W3C//DTD SVG 1.1//EN"
 "http://www.w3.org/Graphics/SVG/1.1/DTD/svg11.dtd">
<!-- Generated by graphviz version 2.32.0 (20130809.1645)
 -->
<!-- Title: linear_theory_winds::spatial_winds Pages: 1 -->
<svg width="612pt" height="87pt"
 viewBox="0.00 0.00 612.00 87.00" xmlns="http://www.w3.org/2000/svg" xmlns:xlink="http://www.w3.org/1999/xlink">
<g id="graph0" class="graph" transform="scale(1 1) rotate(0) translate(4 83)">
<title>linear_theory_winds::spatial_winds</title>
<polygon fill="white" stroke="white" points="-4,5 -4,-83 609,-83 609,5 -4,5"/>
<!-- Node1 -->
<g id="node1" class="node"><title>Node1</title>
<polygon fill="#bfbfbf" stroke="black" points="0.5,-24 0.5,-54 103.5,-54 103.5,-24 0.5,-24"/>
<text text-anchor="start" x="8.5" y="-42" font-family="Helvetica,sans-Serif" font-size="10.00">linear_theory_winds</text>
<text text-anchor="middle" x="52" y="-31" font-family="Helvetica,sans-Serif" font-size="10.00">::spatial_winds</text>
</g>
<!-- Node2 -->
<g id="node2" class="node"><title>Node2</title>
<g id="a_node2"><a xlink:href="classlinear__theory__winds.html#a248a832d459ec9cd399c372d2ae9cb0a" target="_top" xlink:title="linear_theory_winds\l::linear_perturb">
<polygon fill="white" stroke="black" points="140.5,-24 140.5,-54 243.5,-54 243.5,-24 140.5,-24"/>
<text text-anchor="start" x="148.5" y="-42" font-family="Helvetica,sans-Serif" font-size="10.00">linear_theory_winds</text>
<text text-anchor="middle" x="192" y="-31" font-family="Helvetica,sans-Serif" font-size="10.00">::linear_perturb</text>
</a>
</g>
</g>
<!-- Node1&#45;&gt;Node2 -->
<g id="edge1" class="edge"><title>Node1&#45;&gt;Node2</title>
<path fill="none" stroke="midnightblue" d="M113.882,-39C122.74,-39 131.779,-39 140.404,-39"/>
<polygon fill="midnightblue" stroke="midnightblue" points="113.603,-35.5001 103.603,-39 113.602,-42.5001 113.603,-35.5001"/>
</g>
<!-- Node3 -->
<g id="node3" class="node"><title>Node3</title>
<g id="a_node3"><a xlink:href="classboundary__conditions.html#ac4cfb5127bfecdc6e088ef949694ea4a" target="_top" xlink:title=" Remove linear theory topographic winds perturbations from the low resolution wind field...">
<polygon fill="white" stroke="black" points="280,-46 280,-76 394,-76 394,-46 280,-46"/>
<text text-anchor="start" x="288" y="-64" font-family="Helvetica,sans-Serif" font-size="10.00">boundary_conditions</text>
<text text-anchor="middle" x="337" y="-53" font-family="Helvetica,sans-Serif" font-size="10.00">::remove_linear_winds</text>
</a>
</g>
</g>
<!-- Node2&#45;&gt;Node3 -->
<g id="edge2" class="edge"><title>Node2&#45;&gt;Node3</title>
<path fill="none" stroke="midnightblue" d="M253.869,-48.3645C262.541,-49.6986 271.426,-51.0655 279.999,-52.3844"/>
<polygon fill="midnightblue" stroke="midnightblue" points="254.235,-44.8797 243.819,-46.8183 253.171,-51.7983 254.235,-44.8797"/>
</g>
<!-- Node7 -->
<g id="node7" class="node"><title>Node7</title>
<g id="a_node7"><a xlink:href="classwind.html#a582192f02996b37543b966df84af1e78" target="_top" xlink:title="wind::update_winds">
<polygon fill="white" stroke="black" points="285.5,-7.5 285.5,-26.5 388.5,-26.5 388.5,-7.5 285.5,-7.5"/>
<text text-anchor="middle" x="337" y="-14.5" font-family="Helvetica,sans-Serif" font-size="10.00">wind::update_winds</text>
</a>
</g>
</g>
<!-- Node2&#45;&gt;Node7 -->
<g id="edge7" class="edge"><title>Node2&#45;&gt;Node7</title>
<path fill="none" stroke="midnightblue" d="M253.776,-29.6498C264.295,-28.0315 275.131,-26.3645 285.345,-24.7931"/>
<polygon fill="midnightblue" stroke="midnightblue" points="253.171,-26.2017 243.819,-31.1817 254.235,-33.1203 253.171,-26.2017"/>
</g>
<!-- Node4 -->
<g id="node4" class="node"><title>Node4</title>
<g id="a_node4"><a xlink:href="classboundary__conditions.html#a07a42f467f470ada98e0a35fd5a75f66" target="_top" xlink:title=" Initialize the boundary conditions (read inital conditions, etc.) ">
<polygon fill="white" stroke="black" points="430,-49 430,-79 536,-79 536,-49 430,-49"/>
<text text-anchor="start" x="438" y="-67" font-family="Helvetica,sans-Serif" font-size="10.00">boundary_conditions</text>
<text text-anchor="middle" x="483" y="-56" font-family="Helvetica,sans-Serif" font-size="10.00">::bc_init</text>
</a>
</g>
</g>
<!-- Node3&#45;&gt;Node4 -->
<g id="edge3" class="edge"><title>Node3&#45;&gt;Node4</title>
<path fill="none" stroke="midnightblue" d="M404.338,-62.382C412.811,-62.5586 421.389,-62.7373 429.599,-62.9083"/>
<polygon fill="midnightblue" stroke="midnightblue" points="404.157,-58.8776 394.086,-62.1685 404.011,-65.8761 404.157,-58.8776"/>
</g>
<!-- Node6 -->
<g id="node6" class="node"><title>Node6</title>
<g id="a_node6"><a xlink:href="classboundary__conditions.html#a1e8385c37634f3d7f70ea7c749dcda11" target="_top" xlink:title=" Read in the next timestep of input data and apply to the dXdt grids as appropriate. ">
<polygon fill="white" stroke="black" points="430,-0 430,-30 536,-30 536,-0 430,-0"/>
<text text-anchor="start" x="438" y="-18" font-family="Helvetica,sans-Serif" font-size="10.00">boundary_conditions</text>
<text text-anchor="middle" x="483" y="-7" font-family="Helvetica,sans-Serif" font-size="10.00">::bc_update</text>
</a>
</g>
</g>
<!-- Node3&#45;&gt;Node6 -->
<g id="edge5" class="edge"><title>Node3&#45;&gt;Node6</title>
<path fill="none" stroke="midnightblue" d="M395.045,-42.7772C408.202,-38.5743 422.056,-34.1487 434.743,-30.096"/>
<polygon fill="midnightblue" stroke="midnightblue" points="393.612,-39.5608 385.151,-45.9379 395.742,-46.2289 393.612,-39.5608"/>
</g>
<!-- Node5 -->
<g id="node5" class="node"><title>Node5</title>
<g id="a_node5"><a xlink:href="driver_8f90.html#ab1e5a5816a57fc6e95d9563c2bb53590" target="_top" xlink:title=" Main Program ">
<polygon fill="white" stroke="black" points="572,-29.5 572,-48.5 604,-48.5 604,-29.5 572,-29.5"/>
<text text-anchor="middle" x="588" y="-36.5" font-family="Helvetica,sans-Serif" font-size="10.00">icar</text>
</a>
</g>
</g>
<!-- Node4&#45;&gt;Node5 -->
<g id="edge4" class="edge"><title>Node4&#45;&gt;Node5</title>
<path fill="none" stroke="midnightblue" d="M546.071,-48.9343C555.517,-46.6414 564.468,-44.4689 571.576,-42.7436"/>
<polygon fill="midnightblue" stroke="midnightblue" points="544.996,-45.5935 536.104,-51.3535 546.647,-52.396 544.996,-45.5935"/>
</g>
<!-- Node6&#45;&gt;Node5 -->
<g id="edge6" class="edge"><title>Node6&#45;&gt;Node5</title>
<path fill="none" stroke="midnightblue" d="M546.071,-29.4631C555.517,-31.6642 564.468,-33.7498 571.576,-35.4061"/>
<polygon fill="midnightblue" stroke="midnightblue" points="546.637,-26.0013 536.104,-27.1406 545.048,-32.8187 546.637,-26.0013"/>
</g>
<!-- Node7&#45;&gt;Node4 -->
<g id="edge8" class="edge"><title>Node7&#45;&gt;Node4</title>
<path fill="none" stroke="midnightblue" d="M376.84,-29.6768C395.041,-35.6175 416.859,-42.7388 435.893,-48.9512"/>
<polygon fill="midnightblue" stroke="midnightblue" points="377.733,-26.2868 367.141,-26.5112 375.561,-32.9413 377.733,-26.2868"/>
</g>
<!-- Node7&#45;&gt;Node6 -->
<g id="edge9" class="edge"><title>Node7&#45;&gt;Node6</title>
<path fill="none" stroke="midnightblue" d="M398.895,-16.1542C409.156,-16.0117 419.725,-15.8649 429.742,-15.7258"/>
<polygon fill="midnightblue" stroke="midnightblue" points="398.719,-12.6562 388.769,-16.2949 398.817,-19.6556 398.719,-12.6562"/>
</g>
</g>
</svg>
