<?xml version="1.0" encoding="UTF-8" standalone="no"?>
<!DOCTYPE svg PUBLIC "-//W3C//DTD SVG 1.1//EN"
 "http://www.w3.org/Graphics/SVG/1.1/DTD/svg11.dtd">
<!-- Generated by graphviz version 2.32.0 (20130809.1645)
 -->
<!-- Title: radiation::rad Pages: 1 -->
<svg width="702pt" height="202pt"
 viewBox="0.00 0.00 702.00 202.00" xmlns="http://www.w3.org/2000/svg" xmlns:xlink="http://www.w3.org/1999/xlink">
<g id="graph0" class="graph" transform="scale(1 1) rotate(0) translate(4 198)">
<title>radiation::rad</title>
<polygon fill="white" stroke="white" points="-4,5 -4,-198 699,-198 699,5 -4,5"/>
<!-- Node1 -->
<g id="node1" class="node"><title>Node1</title>
<polygon fill="#bfbfbf" stroke="black" points="0.5,-76.5 0.5,-95.5 73.5,-95.5 73.5,-76.5 0.5,-76.5"/>
<text text-anchor="middle" x="37" y="-83.5" font-family="Helvetica,sans-Serif" font-size="10.00">radiation::rad</text>
</g>
<!-- Node2 -->
<g id="node2" class="node"><title>Node2</title>
<g id="a_node2"><a xlink:href="classmodule__ra__simple.html#ad1c74605b2817f833d31e806f791e246" target="_top" xlink:title="module_ra_simple::ra\l_simple">
<polygon fill="white" stroke="black" points="110,-71 110,-101 220,-101 220,-71 110,-71"/>
<text text-anchor="start" x="118" y="-89" font-family="Helvetica,sans-Serif" font-size="10.00">module_ra_simple::ra</text>
<text text-anchor="middle" x="165" y="-78" font-family="Helvetica,sans-Serif" font-size="10.00">_simple</text>
</a>
</g>
</g>
<!-- Node1&#45;&gt;Node2 -->
<g id="edge1" class="edge"><title>Node1&#45;&gt;Node2</title>
<path fill="none" stroke="midnightblue" d="M73.7695,-86C81.9102,-86 90.8021,-86 99.728,-86"/>
<polygon fill="midnightblue" stroke="midnightblue" points="99.782,-89.5001 109.782,-86 99.7819,-82.5001 99.782,-89.5001"/>
</g>
<!-- Node3 -->
<g id="node3" class="node"><title>Node3</title>
<g id="a_node3"><a xlink:href="classmodule__ra__simple.html#a383e37e85086ad3fd8f2da8601d997d0" target="_top" xlink:title="module_ra_simple::relative\l_humidity">
<polygon fill="white" stroke="black" points="262.5,-164 262.5,-194 395.5,-194 395.5,-164 262.5,-164"/>
<text text-anchor="start" x="270.5" y="-182" font-family="Helvetica,sans-Serif" font-size="10.00">module_ra_simple::relative</text>
<text text-anchor="middle" x="329" y="-171" font-family="Helvetica,sans-Serif" font-size="10.00">_humidity</text>
</a>
</g>
</g>
<!-- Node2&#45;&gt;Node3 -->
<g id="edge2" class="edge"><title>Node2&#45;&gt;Node3</title>
<path fill="none" stroke="midnightblue" d="M182.494,-101.005C199.763,-116.079 228.19,-139.144 256,-154 259.981,-156.127 264.179,-158.13 268.466,-160.006"/>
<polygon fill="midnightblue" stroke="midnightblue" points="267.364,-163.337 277.943,-163.906 270.028,-156.864 267.364,-163.337"/>
</g>
<!-- Node4 -->
<g id="node4" class="node"><title>Node4</title>
<g id="a_node4"><a xlink:href="classmodule__ra__simple.html#a4529da23ec7082aeafd82ffcad0e6e43" target="_top" xlink:title="module_ra_simple::calc\l_solar_elevation">
<polygon fill="white" stroke="black" points="269.5,-115 269.5,-145 388.5,-145 388.5,-115 269.5,-115"/>
<text text-anchor="start" x="277.5" y="-133" font-family="Helvetica,sans-Serif" font-size="10.00">module_ra_simple::calc</text>
<text text-anchor="middle" x="329" y="-122" font-family="Helvetica,sans-Serif" font-size="10.00">_solar_elevation</text>
</a>
</g>
</g>
<!-- Node2&#45;&gt;Node4 -->
<g id="edge3" class="edge"><title>Node2&#45;&gt;Node4</title>
<path fill="none" stroke="midnightblue" d="M220.394,-100.774C234.062,-104.486 248.866,-108.507 262.994,-112.344"/>
<polygon fill="midnightblue" stroke="midnightblue" points="262.077,-115.722 272.644,-114.965 263.911,-108.966 262.077,-115.722"/>
</g>
<!-- Node8 -->
<g id="node8" class="node"><title>Node8</title>
<g id="a_node8"><a xlink:href="classmodule__ra__simple.html#af96b45b6aa6ee7f751648e8edb2eff97" target="_top" xlink:title="module_ra_simple::cloudfrac">
<polygon fill="white" stroke="black" points="258.5,-76.5 258.5,-95.5 399.5,-95.5 399.5,-76.5 258.5,-76.5"/>
<text text-anchor="middle" x="329" y="-83.5" font-family="Helvetica,sans-Serif" font-size="10.00">module_ra_simple::cloudfrac</text>
</a>
</g>
</g>
<!-- Node2&#45;&gt;Node8 -->
<g id="edge7" class="edge"><title>Node2&#45;&gt;Node8</title>
<path fill="none" stroke="midnightblue" d="M220.394,-86C229.305,-86 238.698,-86 248.073,-86"/>
<polygon fill="midnightblue" stroke="midnightblue" points="248.214,-89.5001 258.214,-86 248.214,-82.5001 248.214,-89.5001"/>
</g>
<!-- Node9 -->
<g id="node9" class="node"><title>Node9</title>
<g id="a_node9"><a xlink:href="classmodule__ra__simple.html#a9fdfe8ded9ed1a2131513bf2d17db5e6" target="_top" xlink:title="module_ra_simple::shortwave">
<polygon fill="white" stroke="black" points="256,-38.5 256,-57.5 402,-57.5 402,-38.5 256,-38.5"/>
<text text-anchor="middle" x="329" y="-45.5" font-family="Helvetica,sans-Serif" font-size="10.00">module_ra_simple::shortwave</text>
</a>
</g>
</g>
<!-- Node2&#45;&gt;Node9 -->
<g id="edge8" class="edge"><title>Node2&#45;&gt;Node9</title>
<path fill="none" stroke="midnightblue" d="M220.394,-73.2408C238.853,-68.9111 259.385,-64.0949 277.525,-59.8398"/>
<polygon fill="midnightblue" stroke="midnightblue" points="278.392,-63.2316 287.328,-57.5403 276.793,-56.4166 278.392,-63.2316"/>
</g>
<!-- Node10 -->
<g id="node10" class="node"><title>Node10</title>
<g id="a_node10"><a xlink:href="classmodule__ra__simple.html#ac17356062eed2cca6633da58b0899d09" target="_top" xlink:title="module_ra_simple::longwave">
<polygon fill="white" stroke="black" points="257.5,-0.5 257.5,-19.5 400.5,-19.5 400.5,-0.5 257.5,-0.5"/>
<text text-anchor="middle" x="329" y="-7.5" font-family="Helvetica,sans-Serif" font-size="10.00">module_ra_simple::longwave</text>
</a>
</g>
</g>
<!-- Node2&#45;&gt;Node10 -->
<g id="edge9" class="edge"><title>Node2&#45;&gt;Node10</title>
<path fill="none" stroke="midnightblue" d="M185.734,-70.9864C203.335,-58.2265 230.232,-40.2391 256,-29 261.466,-26.616 267.299,-24.4744 273.191,-22.565"/>
<polygon fill="midnightblue" stroke="midnightblue" points="274.545,-25.8122 283.105,-19.5693 272.52,-19.1114 274.545,-25.8122"/>
</g>
<!-- Node5 -->
<g id="node5" class="node"><title>Node5</title>
<g id="a_node5"><a xlink:href="classtime.html#adfcbe10943e169e25a9ee15ddb3ce70b" target="_top" xlink:title="time::calc_day_of_year">
<polygon fill="white" stroke="black" points="438,-120.5 438,-139.5 556,-139.5 556,-120.5 438,-120.5"/>
<text text-anchor="middle" x="497" y="-127.5" font-family="Helvetica,sans-Serif" font-size="10.00">time::calc_day_of_year</text>
</a>
</g>
</g>
<!-- Node4&#45;&gt;Node5 -->
<g id="edge4" class="edge"><title>Node4&#45;&gt;Node5</title>
<path fill="none" stroke="midnightblue" d="M388.525,-130C401.12,-130 414.541,-130 427.478,-130"/>
<polygon fill="midnightblue" stroke="midnightblue" points="427.724,-133.5 437.724,-130 427.723,-126.5 427.724,-133.5"/>
</g>
<!-- Node6 -->
<g id="node6" class="node"><title>Node6</title>
<g id="a_node6"><a xlink:href="classtime.html#a8736f37f83c6d8f62957c70df2239693" target="_top" xlink:title="time::calendar_date">
<polygon fill="white" stroke="black" points="592,-139.5 592,-158.5 694,-158.5 694,-139.5 592,-139.5"/>
<text text-anchor="middle" x="643" y="-146.5" font-family="Helvetica,sans-Serif" font-size="10.00">time::calendar_date</text>
</a>
</g>
</g>
<!-- Node5&#45;&gt;Node6 -->
<g id="edge5" class="edge"><title>Node5&#45;&gt;Node6</title>
<path fill="none" stroke="midnightblue" d="M556.155,-137.673C564.683,-138.798 573.48,-139.959 582.043,-141.089"/>
<polygon fill="midnightblue" stroke="midnightblue" points="581.586,-144.559 591.958,-142.397 582.502,-137.619 581.586,-144.559"/>
</g>
<!-- Node7 -->
<g id="node7" class="node"><title>Node7</title>
<g id="a_node7"><a xlink:href="classtime.html#a22e63418fe5d559327ca090619d097e0" target="_top" xlink:title="time::date_to_mjd">
<polygon fill="white" stroke="black" points="595.5,-101.5 595.5,-120.5 690.5,-120.5 690.5,-101.5 595.5,-101.5"/>
<text text-anchor="middle" x="643" y="-108.5" font-family="Helvetica,sans-Serif" font-size="10.00">time::date_to_mjd</text>
</a>
</g>
</g>
<!-- Node5&#45;&gt;Node7 -->
<g id="edge6" class="edge"><title>Node5&#45;&gt;Node7</title>
<path fill="none" stroke="midnightblue" d="M556.155,-122.327C565.671,-121.071 575.522,-119.771 585.009,-118.52"/>
<polygon fill="midnightblue" stroke="midnightblue" points="585.671,-121.963 595.128,-117.185 584.756,-115.023 585.671,-121.963"/>
</g>
</g>
</svg>
