<?xml version="1.0" encoding="UTF-8" standalone="no"?>
<!DOCTYPE svg PUBLIC "-//W3C//DTD SVG 1.1//EN"
 "http://www.w3.org/Graphics/SVG/1.1/DTD/svg11.dtd">
<!-- Generated by graphviz version 2.38.0 (20140413.2041)
 -->
<!-- Title: time_step::forcing_update Pages: 1 -->
<svg width="391pt" height="127pt"
 viewBox="0.00 0.00 391.00 127.00" xmlns="http://www.w3.org/2000/svg" xmlns:xlink="http://www.w3.org/1999/xlink">
<g id="graph0" class="graph" transform="scale(1 1) rotate(0) translate(4 123)">
<title>time_step::forcing_update</title>
<polygon fill="white" stroke="none" points="-4,4 -4,-123 387,-123 387,4 -4,4"/>
<!-- Node1 -->
<g id="node1" class="node"><title>Node1</title>
<polygon fill="#bfbfbf" stroke="black" points="0,-44.5 0,-74.5 95,-74.5 95,-44.5 0,-44.5"/>
<text text-anchor="start" x="8" y="-62.5" font-family="Helvetica,sans-Serif" font-size="10.00">time_step::forcing</text>
<text text-anchor="middle" x="47.5" y="-51.5" font-family="Helvetica,sans-Serif" font-size="10.00">_update</text>
</g>
<!-- Node2 -->
<g id="node2" class="node"><title>Node2</title>
<g id="a_node2"><a xlink:href="classtime__step.html#acb28dd872d2a7e0e9f322753cb9debe7" target="_top" xlink:title=" Update the edges of curdata by adding dXdt ">
<polygon fill="white" stroke="black" points="133.5,-88.5 133.5,-118.5 238.5,-118.5 238.5,-88.5 133.5,-88.5"/>
<text text-anchor="start" x="141.5" y="-106.5" font-family="Helvetica,sans-Serif" font-size="10.00">time_step::boundary</text>
<text text-anchor="middle" x="186" y="-95.5" font-family="Helvetica,sans-Serif" font-size="10.00">_update</text>
</a>
</g>
</g>
<!-- Node1&#45;&gt;Node2 -->
<g id="edge1" class="edge"><title>Node1&#45;&gt;Node2</title>
<path fill="none" stroke="midnightblue" d="M95.0938,-74.5192C105.846,-77.9852 117.398,-81.7089 128.52,-85.2941"/>
<polygon fill="midnightblue" stroke="midnightblue" points="127.561,-88.6622 138.153,-88.3991 129.709,-81.9998 127.561,-88.6622"/>
</g>
<!-- Node3 -->
<g id="node3" class="node"><title>Node3</title>
<g id="a_node3"><a xlink:href="classwind.html#a73845b488c0d184ff37959a9a03b64c2" target="_top" xlink:title="wind::balance_uvw">
<polygon fill="white" stroke="black" points="136,-50 136,-69 236,-69 236,-50 136,-50"/>
<text text-anchor="middle" x="186" y="-57" font-family="Helvetica,sans-Serif" font-size="10.00">wind::balance_uvw</text>
</a>
</g>
</g>
<!-- Node1&#45;&gt;Node3 -->
<g id="edge2" class="edge"><title>Node1&#45;&gt;Node3</title>
<path fill="none" stroke="midnightblue" d="M95.0938,-59.5C104.941,-59.5 115.459,-59.5 125.703,-59.5"/>
<polygon fill="midnightblue" stroke="midnightblue" points="125.821,-63.0001 135.821,-59.5 125.821,-56.0001 125.821,-63.0001"/>
</g>
<!-- Node4 -->
<g id="node4" class="node"><title>Node4</title>
<g id="a_node4"><a xlink:href="classtime__step.html#ac561f85b36df27574da9e51a9c2abf7e" target="_top" xlink:title=" Update model diagnostic fields ">
<polygon fill="white" stroke="black" points="131,-0.5 131,-30.5 241,-30.5 241,-0.5 131,-0.5"/>
<text text-anchor="start" x="139" y="-18.5" font-family="Helvetica,sans-Serif" font-size="10.00">time_step::diagnostic</text>
<text text-anchor="middle" x="186" y="-7.5" font-family="Helvetica,sans-Serif" font-size="10.00">_update</text>
</a>
</g>
</g>
<!-- Node1&#45;&gt;Node4 -->
<g id="edge3" class="edge"><title>Node1&#45;&gt;Node4</title>
<path fill="none" stroke="midnightblue" d="M95.0938,-44.4808C105.846,-41.0148 117.398,-37.2911 128.52,-33.7059"/>
<polygon fill="midnightblue" stroke="midnightblue" points="129.709,-37.0002 138.153,-30.6009 127.561,-30.3378 129.709,-37.0002"/>
</g>
<!-- Node5 -->
<g id="node5" class="node"><title>Node5</title>
<g id="a_node5"><a xlink:href="classboundary__conditions.html#a3f59398683169f1de9bf8f548f1d7b96" target="_top" xlink:title=" Adjust the pressure field for the vertical shift between the low and high&#45;res domains ...">
<polygon fill="white" stroke="black" points="277,-0.5 277,-30.5 383,-30.5 383,-0.5 277,-0.5"/>
<text text-anchor="start" x="285" y="-18.5" font-family="Helvetica,sans-Serif" font-size="10.00">boundary_conditions</text>
<text text-anchor="middle" x="330" y="-7.5" font-family="Helvetica,sans-Serif" font-size="10.00">::update_pressure</text>
</a>
</g>
</g>
<!-- Node4&#45;&gt;Node5 -->
<g id="edge4" class="edge"><title>Node4&#45;&gt;Node5</title>
<path fill="none" stroke="midnightblue" d="M241.089,-15.5C249.447,-15.5 258.138,-15.5 266.659,-15.5"/>
<polygon fill="midnightblue" stroke="midnightblue" points="266.936,-19.0001 276.935,-15.5 266.935,-12.0001 266.936,-19.0001"/>
</g>
</g>
</svg>
