<?xml version="1.0" encoding="UTF-8" standalone="no"?>
<!DOCTYPE svg PUBLIC "-//W3C//DTD SVG 1.1//EN"
 "http://www.w3.org/Graphics/SVG/1.1/DTD/svg11.dtd">
<!-- Generated by graphviz version 2.38.0 (20140413.2041)
 -->
<!-- Title: wind::balance_uvw Pages: 1 -->
<svg width="457pt" height="132pt"
 viewBox="0.00 0.00 457.00 132.00" xmlns="http://www.w3.org/2000/svg" xmlns:xlink="http://www.w3.org/1999/xlink">
<g id="graph0" class="graph" transform="scale(1 1) rotate(0) translate(4 128)">
<title>wind::balance_uvw</title>
<polygon fill="white" stroke="none" points="-4,4 -4,-128 453,-128 453,4 -4,4"/>
<!-- Node1 -->
<g id="node1" class="node"><title>Node1</title>
<polygon fill="#bfbfbf" stroke="black" points="0,-77 0,-96 100,-96 100,-77 0,-77"/>
<text text-anchor="middle" x="50" y="-84" font-family="Helvetica,sans-Serif" font-size="10.00">wind::balance_uvw</text>
</g>
<!-- Node2 -->
<g id="node2" class="node"><title>Node2</title>
<g id="a_node2"><a xlink:href="classtime__step.html#ab024d227ede8d503dbe333dd3b38515a" target="_top" xlink:title=" Updated all fields in domain using the respective dXdt variables ">
<polygon fill="white" stroke="black" points="140,-93.5 140,-123.5 235,-123.5 235,-93.5 140,-93.5"/>
<text text-anchor="start" x="148" y="-111.5" font-family="Helvetica,sans-Serif" font-size="10.00">time_step::forcing</text>
<text text-anchor="middle" x="187.5" y="-100.5" font-family="Helvetica,sans-Serif" font-size="10.00">_update</text>
</a>
</g>
</g>
<!-- Node1&#45;&gt;Node2 -->
<g id="edge1" class="edge"><title>Node1&#45;&gt;Node2</title>
<path fill="none" stroke="midnightblue" d="M110.408,-96.1455C120.221,-97.7388 130.272,-99.3707 139.719,-100.905"/>
<polygon fill="midnightblue" stroke="midnightblue" points="110.734,-92.6527 100.302,-94.5047 109.612,-99.5622 110.734,-92.6527"/>
</g>
<!-- Node5 -->
<g id="node5" class="node"><title>Node5</title>
<g id="a_node5"><a xlink:href="classwind.html#a582192f02996b37543b966df84af1e78" target="_top" xlink:title="wind::update_winds">
<polygon fill="white" stroke="black" points="136,-55 136,-74 239,-74 239,-55 136,-55"/>
<text text-anchor="middle" x="187.5" y="-62" font-family="Helvetica,sans-Serif" font-size="10.00">wind::update_winds</text>
</a>
</g>
</g>
<!-- Node1&#45;&gt;Node5 -->
<g id="edge4" class="edge"><title>Node1&#45;&gt;Node5</title>
<path fill="none" stroke="midnightblue" d="M110.433,-76.8503C118.838,-75.4856 127.417,-74.0928 135.641,-72.7575"/>
<polygon fill="midnightblue" stroke="midnightblue" points="109.612,-73.4378 100.302,-78.4953 110.734,-80.3473 109.612,-73.4378"/>
</g>
<!-- Node3 -->
<g id="node3" class="node"><title>Node3</title>
<g id="a_node3"><a xlink:href="classtime__step.html#a2c022f11247af72e607b1493289aa974" target="_top" xlink:title=" Step forward one IO time step. ">
<polygon fill="white" stroke="black" points="286,-99 286,-118 370,-118 370,-99 286,-99"/>
<text text-anchor="middle" x="328" y="-106" font-family="Helvetica,sans-Serif" font-size="10.00">time_step::step</text>
</a>
</g>
</g>
<!-- Node2&#45;&gt;Node3 -->
<g id="edge2" class="edge"><title>Node2&#45;&gt;Node3</title>
<path fill="none" stroke="midnightblue" d="M245.264,-108.5C258.898,-108.5 273.201,-108.5 285.962,-108.5"/>
<polygon fill="midnightblue" stroke="midnightblue" points="245.004,-105 235.004,-108.5 245.004,-112 245.004,-105"/>
</g>
<!-- Node4 -->
<g id="node4" class="node"><title>Node4</title>
<g id="a_node4"><a xlink:href="driver_8f90.html#ab1e5a5816a57fc6e95d9563c2bb53590" target="_top" xlink:title=" Main Program ">
<polygon fill="white" stroke="black" points="417,-55 417,-74 449,-74 449,-55 417,-55"/>
<text text-anchor="middle" x="433" y="-62" font-family="Helvetica,sans-Serif" font-size="10.00">icar</text>
</a>
</g>
</g>
<!-- Node3&#45;&gt;Node4 -->
<g id="edge3" class="edge"><title>Node3&#45;&gt;Node4</title>
<path fill="none" stroke="midnightblue" d="M366.222,-95.4419C371.222,-93.5299 376.259,-91.5216 381,-89.5 393.155,-84.3174 406.558,-77.7107 416.573,-72.5907"/>
<polygon fill="midnightblue" stroke="midnightblue" points="364.886,-92.2047 356.739,-98.978 367.331,-98.7636 364.886,-92.2047"/>
</g>
<!-- Node6 -->
<g id="node6" class="node"><title>Node6</title>
<g id="a_node6"><a xlink:href="classboundary__conditions.html#a07a42f467f470ada98e0a35fd5a75f66" target="_top" xlink:title=" Initialize the boundary conditions (read inital conditions, etc.) ">
<polygon fill="white" stroke="black" points="275,-49.5 275,-79.5 381,-79.5 381,-49.5 275,-49.5"/>
<text text-anchor="start" x="283" y="-67.5" font-family="Helvetica,sans-Serif" font-size="10.00">boundary_conditions</text>
<text text-anchor="middle" x="328" y="-56.5" font-family="Helvetica,sans-Serif" font-size="10.00">::bc_init</text>
</a>
</g>
</g>
<!-- Node5&#45;&gt;Node6 -->
<g id="edge5" class="edge"><title>Node5&#45;&gt;Node6</title>
<path fill="none" stroke="midnightblue" d="M249.48,-64.5C257.933,-64.5 266.554,-64.5 274.827,-64.5"/>
<polygon fill="midnightblue" stroke="midnightblue" points="249.286,-61.0001 239.286,-64.5 249.286,-68.0001 249.286,-61.0001"/>
</g>
<!-- Node7 -->
<g id="node7" class="node"><title>Node7</title>
<g id="a_node7"><a xlink:href="classboundary__conditions.html#a1e8385c37634f3d7f70ea7c749dcda11" target="_top" xlink:title=" Read in the next timestep of input data and apply to the dXdt grids as appropriate. ">
<polygon fill="white" stroke="black" points="275,-0.5 275,-30.5 381,-30.5 381,-0.5 275,-0.5"/>
<text text-anchor="start" x="283" y="-18.5" font-family="Helvetica,sans-Serif" font-size="10.00">boundary_conditions</text>
<text text-anchor="middle" x="328" y="-7.5" font-family="Helvetica,sans-Serif" font-size="10.00">::bc_update</text>
</a>
</g>
</g>
<!-- Node5&#45;&gt;Node7 -->
<g id="edge7" class="edge"><title>Node5&#45;&gt;Node7</title>
<path fill="none" stroke="midnightblue" d="M225.211,-51.5119C243.433,-45.0653 265.544,-37.2424 284.498,-30.537"/>
<polygon fill="midnightblue" stroke="midnightblue" points="223.793,-48.301 215.533,-54.936 226.128,-54.9002 223.793,-48.301"/>
</g>
<!-- Node6&#45;&gt;Node4 -->
<g id="edge6" class="edge"><title>Node6&#45;&gt;Node4</title>
<path fill="none" stroke="midnightblue" d="M391.369,-64.5C400.706,-64.5 409.543,-64.5 416.576,-64.5"/>
<polygon fill="midnightblue" stroke="midnightblue" points="391.104,-61.0001 381.104,-64.5 391.103,-68.0001 391.104,-61.0001"/>
</g>
<!-- Node7&#45;&gt;Node4 -->
<g id="edge8" class="edge"><title>Node7&#45;&gt;Node4</title>
<path fill="none" stroke="midnightblue" d="M371.306,-34.9258C374.591,-36.4644 377.852,-38.0022 381,-39.5 393.11,-45.2617 406.746,-51.9573 416.87,-56.9683"/>
<polygon fill="midnightblue" stroke="midnightblue" points="372.607,-31.6705 362.064,-30.6197 369.651,-38.0156 372.607,-31.6705"/>
</g>
</g>
</svg>
