<?xml version="1.0" encoding="UTF-8" standalone="no"?>
<!DOCTYPE svg PUBLIC "-//W3C//DTD SVG 1.1//EN"
 "http://www.w3.org/Graphics/SVG/1.1/DTD/svg11.dtd">
<!-- Generated by graphviz version 2.32.0 (20130809.1645)
 -->
<!-- Title: linear_theory_winds::linear_perturb Pages: 1 -->
<svg width="472pt" height="87pt"
 viewBox="0.00 0.00 472.00 87.00" xmlns="http://www.w3.org/2000/svg" xmlns:xlink="http://www.w3.org/1999/xlink">
<g id="graph0" class="graph" transform="scale(1 1) rotate(0) translate(4 83)">
<title>linear_theory_winds::linear_perturb</title>
<polygon fill="white" stroke="white" points="-4,5 -4,-83 469,-83 469,5 -4,5"/>
<!-- Node1 -->
<g id="node1" class="node"><title>Node1</title>
<polygon fill="#bfbfbf" stroke="black" points="0.5,-24 0.5,-54 103.5,-54 103.5,-24 0.5,-24"/>
<text text-anchor="start" x="8.5" y="-42" font-family="Helvetica,sans-Serif" font-size="10.00">linear_theory_winds</text>
<text text-anchor="middle" x="52" y="-31" font-family="Helvetica,sans-Serif" font-size="10.00">::linear_perturb</text>
</g>
<!-- Node2 -->
<g id="node2" class="node"><title>Node2</title>
<g id="a_node2"><a xlink:href="classboundary__conditions.html#ac4cfb5127bfecdc6e088ef949694ea4a" target="_top" xlink:title=" Remove linear theory topographic winds perturbations from the low resolution wind field...">
<polygon fill="white" stroke="black" points="140,-46 140,-76 254,-76 254,-46 140,-46"/>
<text text-anchor="start" x="148" y="-64" font-family="Helvetica,sans-Serif" font-size="10.00">boundary_conditions</text>
<text text-anchor="middle" x="197" y="-53" font-family="Helvetica,sans-Serif" font-size="10.00">::remove_linear_winds</text>
</a>
</g>
</g>
<!-- Node1&#45;&gt;Node2 -->
<g id="edge1" class="edge"><title>Node1&#45;&gt;Node2</title>
<path fill="none" stroke="midnightblue" d="M113.869,-48.3645C122.541,-49.6986 131.426,-51.0655 139.999,-52.3844"/>
<polygon fill="midnightblue" stroke="midnightblue" points="114.235,-44.8797 103.819,-46.8183 113.171,-51.7983 114.235,-44.8797"/>
</g>
<!-- Node6 -->
<g id="node6" class="node"><title>Node6</title>
<g id="a_node6"><a xlink:href="classwind.html#a582192f02996b37543b966df84af1e78" target="_top" xlink:title="wind::update_winds">
<polygon fill="white" stroke="black" points="145.5,-7.5 145.5,-26.5 248.5,-26.5 248.5,-7.5 145.5,-7.5"/>
<text text-anchor="middle" x="197" y="-14.5" font-family="Helvetica,sans-Serif" font-size="10.00">wind::update_winds</text>
</a>
</g>
</g>
<!-- Node1&#45;&gt;Node6 -->
<g id="edge6" class="edge"><title>Node1&#45;&gt;Node6</title>
<path fill="none" stroke="midnightblue" d="M113.776,-29.6498C124.295,-28.0315 135.131,-26.3645 145.345,-24.7931"/>
<polygon fill="midnightblue" stroke="midnightblue" points="113.171,-26.2017 103.819,-31.1817 114.235,-33.1203 113.171,-26.2017"/>
</g>
<!-- Node3 -->
<g id="node3" class="node"><title>Node3</title>
<g id="a_node3"><a xlink:href="classboundary__conditions.html#a07a42f467f470ada98e0a35fd5a75f66" target="_top" xlink:title=" Initialize the boundary conditions (read inital conditions, etc.) ">
<polygon fill="white" stroke="black" points="290,-49 290,-79 396,-79 396,-49 290,-49"/>
<text text-anchor="start" x="298" y="-67" font-family="Helvetica,sans-Serif" font-size="10.00">boundary_conditions</text>
<text text-anchor="middle" x="343" y="-56" font-family="Helvetica,sans-Serif" font-size="10.00">::bc_init</text>
</a>
</g>
</g>
<!-- Node2&#45;&gt;Node3 -->
<g id="edge2" class="edge"><title>Node2&#45;&gt;Node3</title>
<path fill="none" stroke="midnightblue" d="M264.338,-62.382C272.811,-62.5586 281.389,-62.7373 289.599,-62.9083"/>
<polygon fill="midnightblue" stroke="midnightblue" points="264.157,-58.8776 254.086,-62.1685 264.011,-65.8761 264.157,-58.8776"/>
</g>
<!-- Node5 -->
<g id="node5" class="node"><title>Node5</title>
<g id="a_node5"><a xlink:href="classboundary__conditions.html#a1e8385c37634f3d7f70ea7c749dcda11" target="_top" xlink:title=" Read in the next timestep of input data and apply to the dXdt grids as appropriate. ">
<polygon fill="white" stroke="black" points="290,-0 290,-30 396,-30 396,-0 290,-0"/>
<text text-anchor="start" x="298" y="-18" font-family="Helvetica,sans-Serif" font-size="10.00">boundary_conditions</text>
<text text-anchor="middle" x="343" y="-7" font-family="Helvetica,sans-Serif" font-size="10.00">::bc_update</text>
</a>
</g>
</g>
<!-- Node2&#45;&gt;Node5 -->
<g id="edge4" class="edge"><title>Node2&#45;&gt;Node5</title>
<path fill="none" stroke="midnightblue" d="M255.045,-42.7772C268.202,-38.5743 282.056,-34.1487 294.743,-30.096"/>
<polygon fill="midnightblue" stroke="midnightblue" points="253.612,-39.5608 245.151,-45.9379 255.742,-46.2289 253.612,-39.5608"/>
</g>
<!-- Node4 -->
<g id="node4" class="node"><title>Node4</title>
<g id="a_node4"><a xlink:href="driver_8f90.html#ab1e5a5816a57fc6e95d9563c2bb53590" target="_top" xlink:title=" Main Program ">
<polygon fill="white" stroke="black" points="432,-29.5 432,-48.5 464,-48.5 464,-29.5 432,-29.5"/>
<text text-anchor="middle" x="448" y="-36.5" font-family="Helvetica,sans-Serif" font-size="10.00">icar</text>
</a>
</g>
</g>
<!-- Node3&#45;&gt;Node4 -->
<g id="edge3" class="edge"><title>Node3&#45;&gt;Node4</title>
<path fill="none" stroke="midnightblue" d="M406.071,-48.9343C415.517,-46.6414 424.468,-44.4689 431.576,-42.7436"/>
<polygon fill="midnightblue" stroke="midnightblue" points="404.996,-45.5935 396.104,-51.3535 406.647,-52.396 404.996,-45.5935"/>
</g>
<!-- Node5&#45;&gt;Node4 -->
<g id="edge5" class="edge"><title>Node5&#45;&gt;Node4</title>
<path fill="none" stroke="midnightblue" d="M406.071,-29.4631C415.517,-31.6642 424.468,-33.7498 431.576,-35.4061"/>
<polygon fill="midnightblue" stroke="midnightblue" points="406.637,-26.0013 396.104,-27.1406 405.048,-32.8187 406.637,-26.0013"/>
</g>
<!-- Node6&#45;&gt;Node3 -->
<g id="edge7" class="edge"><title>Node6&#45;&gt;Node3</title>
<path fill="none" stroke="midnightblue" d="M236.84,-29.6768C255.041,-35.6175 276.859,-42.7388 295.893,-48.9512"/>
<polygon fill="midnightblue" stroke="midnightblue" points="237.733,-26.2868 227.141,-26.5112 235.561,-32.9413 237.733,-26.2868"/>
</g>
<!-- Node6&#45;&gt;Node5 -->
<g id="edge8" class="edge"><title>Node6&#45;&gt;Node5</title>
<path fill="none" stroke="midnightblue" d="M258.895,-16.1542C269.156,-16.0117 279.725,-15.8649 289.742,-15.7258"/>
<polygon fill="midnightblue" stroke="midnightblue" points="258.719,-12.6562 248.769,-16.2949 258.817,-19.6556 258.719,-12.6562"/>
</g>
</g>
</svg>
