<?xml version="1.0" encoding="UTF-8" standalone="no"?>
<!DOCTYPE svg PUBLIC "-//W3C//DTD SVG 1.1//EN"
 "http://www.w3.org/Graphics/SVG/1.1/DTD/svg11.dtd">
<!-- Generated by graphviz version 2.32.0 (20130809.1645)
 -->
<!-- Title: output::create_file Pages: 1 -->
<svg width="458pt" height="115pt"
 viewBox="0.00 0.00 458.00 115.00" xmlns="http://www.w3.org/2000/svg" xmlns:xlink="http://www.w3.org/1999/xlink">
<g id="graph0" class="graph" transform="scale(1 1) rotate(0) translate(4 111)">
<title>output::create_file</title>
<polygon fill="white" stroke="white" points="-4,5 -4,-111 455,-111 455,5 -4,5"/>
<!-- Node1 -->
<g id="node1" class="node"><title>Node1</title>
<polygon fill="#bfbfbf" stroke="black" points="0.5,-38.5 0.5,-57.5 95.5,-57.5 95.5,-38.5 0.5,-38.5"/>
<text text-anchor="middle" x="48" y="-45.5" font-family="Helvetica,sans-Serif" font-size="10.00">output::create_file</text>
</g>
<!-- Node2 -->
<g id="node2" class="node"><title>Node2</title>
<g id="a_node2"><a xlink:href="classoutput.html#a96fb2c72004c645360fa3e6f2b551b50" target="_top" xlink:title=" Simple routine to write all domain data from this current time step to the output file...">
<polygon fill="white" stroke="black" points="132.5,-38.5 132.5,-57.5 239.5,-57.5 239.5,-38.5 132.5,-38.5"/>
<text text-anchor="middle" x="186" y="-45.5" font-family="Helvetica,sans-Serif" font-size="10.00">output::write_domain</text>
</a>
</g>
</g>
<!-- Node1&#45;&gt;Node2 -->
<g id="edge1" class="edge"><title>Node1&#45;&gt;Node2</title>
<path fill="none" stroke="midnightblue" d="M105.842,-48C114.522,-48 123.45,-48 132.042,-48"/>
<polygon fill="midnightblue" stroke="midnightblue" points="105.804,-44.5001 95.8035,-48 105.803,-51.5001 105.804,-44.5001"/>
</g>
<!-- Node3 -->
<g id="node3" class="node"><title>Node3</title>
<g id="a_node3"><a xlink:href="classboundary__conditions.html#a07a42f467f470ada98e0a35fd5a75f66" target="_top" xlink:title=" Initialize the boundary conditions (read inital conditions, etc.) ">
<polygon fill="white" stroke="black" points="276,-77 276,-107 382,-107 382,-77 276,-77"/>
<text text-anchor="start" x="284" y="-95" font-family="Helvetica,sans-Serif" font-size="10.00">boundary_conditions</text>
<text text-anchor="middle" x="329" y="-84" font-family="Helvetica,sans-Serif" font-size="10.00">::bc_init</text>
</a>
</g>
</g>
<!-- Node2&#45;&gt;Node3 -->
<g id="edge2" class="edge"><title>Node2&#45;&gt;Node3</title>
<path fill="none" stroke="midnightblue" d="M227.375,-60.5992C243.698,-65.6931 262.676,-71.6151 279.722,-76.9346"/>
<polygon fill="midnightblue" stroke="midnightblue" points="228.184,-57.1852 217.595,-57.5473 226.098,-63.8674 228.184,-57.1852"/>
</g>
<!-- Node4 -->
<g id="node4" class="node"><title>Node4</title>
<g id="a_node4"><a xlink:href="driver_8f90.html#ab1e5a5816a57fc6e95d9563c2bb53590" target="_top" xlink:title=" Main Program ">
<polygon fill="white" stroke="black" points="418,-38.5 418,-57.5 450,-57.5 450,-38.5 418,-38.5"/>
<text text-anchor="middle" x="434" y="-45.5" font-family="Helvetica,sans-Serif" font-size="10.00">icar</text>
</a>
</g>
</g>
<!-- Node2&#45;&gt;Node4 -->
<g id="edge4" class="edge"><title>Node2&#45;&gt;Node4</title>
<path fill="none" stroke="midnightblue" d="M250.042,-48C306.514,-48 385.309,-48 417.934,-48"/>
<polygon fill="midnightblue" stroke="midnightblue" points="249.773,-44.5001 239.773,-48 249.773,-51.5001 249.773,-44.5001"/>
</g>
<!-- Node5 -->
<g id="node5" class="node"><title>Node5</title>
<g id="a_node5"><a xlink:href="classtime__step.html#a2c022f11247af72e607b1493289aa974" target="_top" xlink:title=" Step forward one IO time step. ">
<polygon fill="white" stroke="black" points="287,-0.5 287,-19.5 371,-19.5 371,-0.5 287,-0.5"/>
<text text-anchor="middle" x="329" y="-7.5" font-family="Helvetica,sans-Serif" font-size="10.00">time_step::step</text>
</a>
</g>
</g>
<!-- Node2&#45;&gt;Node5 -->
<g id="edge5" class="edge"><title>Node2&#45;&gt;Node5</title>
<path fill="none" stroke="midnightblue" d="M232.44,-35.7538C251.875,-30.516 274.231,-24.4909 292.431,-19.5859"/>
<polygon fill="midnightblue" stroke="midnightblue" points="231.325,-32.4293 222.58,-38.411 233.147,-39.1882 231.325,-32.4293"/>
</g>
<!-- Node3&#45;&gt;Node4 -->
<g id="edge3" class="edge"><title>Node3&#45;&gt;Node4</title>
<path fill="none" stroke="midnightblue" d="M374.625,-72.937C390.084,-66.3328 406.386,-59.3692 417.821,-54.4842"/>
<polygon fill="midnightblue" stroke="midnightblue" points="372.98,-69.8337 365.159,-76.9808 375.73,-76.2709 372.98,-69.8337"/>
</g>
<!-- Node5&#45;&gt;Node4 -->
<g id="edge6" class="edge"><title>Node5&#45;&gt;Node4</title>
<path fill="none" stroke="midnightblue" d="M365.572,-23.1236C383.456,-29.7216 404.183,-37.3684 417.885,-42.4236"/>
<polygon fill="midnightblue" stroke="midnightblue" points="366.585,-19.7667 355.991,-19.589 364.162,-26.334 366.585,-19.7667"/>
</g>
</g>
</svg>
