<?xml version="1.0" encoding="UTF-8" standalone="no"?>
<!DOCTYPE svg PUBLIC "-//W3C//DTD SVG 1.1//EN"
 "http://www.w3.org/Graphics/SVG/1.1/DTD/svg11.dtd">
<!-- Generated by graphviz version 2.32.0 (20130809.1645)
 -->
<!-- Title: Graphical Class Hierarchy Pages: 1 -->
<svg width="554pt" height="85pt"
 viewBox="0.00 0.00 554.00 85.00" xmlns="http://www.w3.org/2000/svg" xmlns:xlink="http://www.w3.org/1999/xlink">
<g id="graph0" class="graph" transform="scale(1 1) rotate(0) translate(4 81)">
<title>Graphical Class Hierarchy</title>
<polygon fill="white" stroke="white" points="-4,5 -4,-81 551,-81 551,5 -4,5"/>
<!-- Node1 -->
<g id="node1" class="node"><title>Node1</title>
<g id="a_node1"><a xlink:href="structdata__structures_1_1interpolable__type.html" target="_top" xlink:title="data_structures::interpolable_type">
<polygon fill="white" stroke="black" points="0,-19.5 0,-38.5 164,-38.5 164,-19.5 0,-19.5"/>
<text text-anchor="middle" x="82" y="-26.5" font-family="Helvetica,sans-Serif" font-size="10.00">data_structures::interpolable_type</text>
</a>
</g>
</g>
<!-- Node2 -->
<g id="node2" class="node"><title>Node2</title>
<g id="a_node2"><a xlink:href="structdata__structures_1_1linearizable__type.html" target="_top" xlink:title="data_structures::linearizable_type">
<polygon fill="white" stroke="black" points="200.5,-38.5 200.5,-57.5 363.5,-57.5 363.5,-38.5 200.5,-38.5"/>
<text text-anchor="middle" x="282" y="-45.5" font-family="Helvetica,sans-Serif" font-size="10.00">data_structures::linearizable_type</text>
</a>
</g>
</g>
<!-- Node1&#45;&gt;Node2 -->
<g id="edge1" class="edge"><title>Node1&#45;&gt;Node2</title>
<path fill="none" stroke="midnightblue" d="M174.267,-37.758C182.969,-38.5929 191.75,-39.4356 200.341,-40.26"/>
<polygon fill="midnightblue" stroke="midnightblue" points="174.394,-34.2541 164.105,-36.7828 173.725,-41.2221 174.394,-34.2541"/>
</g>
<!-- Node5 -->
<g id="node5" class="node"><title>Node5</title>
<g id="a_node5"><a xlink:href="structdata__structures_1_1wind__type.html" target="_top" xlink:title="data_structures::wind_type">
<polygon fill="white" stroke="black" points="215,-0.5 215,-19.5 349,-19.5 349,-0.5 215,-0.5"/>
<text text-anchor="middle" x="282" y="-7.5" font-family="Helvetica,sans-Serif" font-size="10.00">data_structures::wind_type</text>
</a>
</g>
</g>
<!-- Node1&#45;&gt;Node5 -->
<g id="edge4" class="edge"><title>Node1&#45;&gt;Node5</title>
<path fill="none" stroke="midnightblue" d="M174.46,-20.2236C188.071,-18.9174 201.874,-17.5929 214.83,-16.3496"/>
<polygon fill="midnightblue" stroke="midnightblue" points="173.725,-16.7779 164.105,-21.2172 174.394,-23.7459 173.725,-16.7779"/>
</g>
<!-- Node3 -->
<g id="node3" class="node"><title>Node3</title>
<g id="a_node3"><a xlink:href="structdata__structures_1_1bc__type.html" target="_top" xlink:title="data_structures::bc_type">
<polygon fill="white" stroke="black" points="410.5,-57.5 410.5,-76.5 535.5,-76.5 535.5,-57.5 410.5,-57.5"/>
<text text-anchor="middle" x="473" y="-64.5" font-family="Helvetica,sans-Serif" font-size="10.00">data_structures::bc_type</text>
</a>
</g>
</g>
<!-- Node2&#45;&gt;Node3 -->
<g id="edge2" class="edge"><title>Node2&#45;&gt;Node3</title>
<path fill="none" stroke="midnightblue" d="M373.658,-57.1138C386.118,-58.3664 398.667,-59.6279 410.437,-60.8111"/>
<polygon fill="midnightblue" stroke="midnightblue" points="374.001,-53.6307 363.701,-56.1128 373.301,-60.5956 374.001,-53.6307"/>
</g>
<!-- Node4 -->
<g id="node4" class="node"><title>Node4</title>
<g id="a_node4"><a xlink:href="structdata__structures_1_1domain__type.html" target="_top" xlink:title="data_structures::domain_type">
<polygon fill="white" stroke="black" points="400,-19.5 400,-38.5 546,-38.5 546,-19.5 400,-19.5"/>
<text text-anchor="middle" x="473" y="-26.5" font-family="Helvetica,sans-Serif" font-size="10.00">data_structures::domain_type</text>
</a>
</g>
</g>
<!-- Node2&#45;&gt;Node4 -->
<g id="edge3" class="edge"><title>Node2&#45;&gt;Node4</title>
<path fill="none" stroke="midnightblue" d="M373.914,-38.8605C382.646,-37.9827 391.418,-37.1009 399.932,-36.2449"/>
<polygon fill="midnightblue" stroke="midnightblue" points="373.301,-35.4044 363.701,-39.8872 374.001,-42.3693 373.301,-35.4044"/>
</g>
</g>
</svg>
