<?xml version="1.0" encoding="UTF-8" standalone="no"?>
<!DOCTYPE svg PUBLIC "-//W3C//DTD SVG 1.1//EN"
 "http://www.w3.org/Graphics/SVG/1.1/DTD/svg11.dtd">
<!-- Generated by graphviz version 2.32.0 (20130809.1645)
 -->
<!-- Title: io_routines::io_read::io_read2d Pages: 1 -->
<!--zoomable 281 -->
<svg id="main" version="1.1" xmlns="http://www.w3.org/2000/svg" xmlns:xlink="http://www.w3.org/1999/xlink" xml:space="preserve" onload="init(evt)">
<style type="text/css"><![CDATA[
.edge:hover path { stroke: red; }
.edge:hover polygon { stroke: red; fill: red; }
]]></style>
<script type="text/javascript"><![CDATA[
var edges = document.getElementsByTagName('g');
if (edges && edges.length) {
  for (var i=0;i<edges.length;i++) {
    if (edges[i].id.substr(0,4)=='edge') {
      edges[i].setAttribute('class','edge');
    }
  }
}
]]></script>
        <defs>
                <circle id="rim" cx="0" cy="0" r="7"/>
                <circle id="rim2" cx="0" cy="0" r="3.5"/>
                <g id="zoomPlus">
                        <use xlink:href="#rim" fill="#404040">
                                <set attributeName="fill" to="#808080" begin="zoomplus.mouseover" end="zoomplus.mouseout"/>
                        </use>
                        <path d="M-4,0h8M0,-4v8" fill="none" stroke="white" stroke-width="1.5" pointer-events="none"/>
                </g>
                <g id="zoomMin">
                        <use xlink:href="#rim" fill="#404040">
                                <set attributeName="fill" to="#808080" begin="zoomminus.mouseover" end="zoomminus.mouseout"/>
                        </use>
                        <path d="M-4,0h8" fill="none" stroke="white" stroke-width="1.5" pointer-events="none"/>
                </g>
                <g id="dirArrow">
                        <path fill="none" stroke="white" stroke-width="1.5" d="M0,-3.0v7 M-2.5,-0.5L0,-3.0L2.5,-0.5"/>
                </g>
               <g id="resetDef">
                       <use xlink:href="#rim2" fill="#404040">
                               <set attributeName="fill" to="#808080" begin="reset.mouseover" end="reset.mouseout"/>
                       </use>
               </g>
        </defs>

<script type="text/javascript">
var viewWidth = 754;
var viewHeight = 281;
var sectionId = 'dynsection-0';
</script>
<script xlink:href="svgpan.js"/>
<svg id="graph" class="graph">
<g id="viewport">
<title>io_routines::io_read::io_read2d</title>
<polygon fill="white" stroke="white" points="-4,5 -4,-277 751,-277 751,5 -4,5"/>
<!-- Node1 -->
<g id="node1" class="node"><title>Node1</title>
<polygon fill="#bfbfbf" stroke="black" points="0.5,-109 0.5,-139 101.5,-139 101.5,-109 0.5,-109"/>
<text text-anchor="start" x="8.5" y="-127" font-family="Helvetica,sans-Serif" font-size="10.00">io_routines::io_read</text>
<text text-anchor="middle" x="51" y="-116" font-family="Helvetica,sans-Serif" font-size="10.00">::io_read2d</text>
</g>
<!-- Node2 -->
<g id="node2" class="node"><title>Node2</title>
<g id="a_node2"><a xlink:href="classboundary__conditions.html#a092406b0b0b0676f3fcd8e514b1a2663" target="_top" xlink:title=" Same as read_var but for 2&#45;dimensional data ">
<polygon fill="white" stroke="black" points="426,-115 426,-145 532,-145 532,-115 426,-115"/>
<text text-anchor="start" x="434" y="-133" font-family="Helvetica,sans-Serif" font-size="10.00">boundary_conditions</text>
<text text-anchor="middle" x="479" y="-122" font-family="Helvetica,sans-Serif" font-size="10.00">::read_2dvar</text>
</a>
</g>
</g>
<!-- Node1&#45;&gt;Node2 -->
<g id="edge1" class="edge"><title>Node1&#45;&gt;Node2</title>
<path fill="none" stroke="midnightblue" d="M111.555,-138.909C120.371,-140.605 129.386,-142.06 138,-143 239.589,-154.088 359.146,-144.253 425.992,-136.71"/>
<polygon fill="midnightblue" stroke="midnightblue" points="112.215,-135.471 101.718,-136.906 110.819,-142.331 112.215,-135.471"/>
</g>
<!-- Node6 -->
<g id="node6" class="node"><title>Node6</title>
<g id="a_node6"><a xlink:href="classboundary__conditions.html#ad2ea45f7b77ad1c1d998b3ad7d236d89" target="_top" xlink:title=" Load restart file ">
<polygon fill="white" stroke="black" points="139,-243 139,-273 245,-273 245,-243 139,-243"/>
<text text-anchor="start" x="147" y="-261" font-family="Helvetica,sans-Serif" font-size="10.00">boundary_conditions</text>
<text text-anchor="middle" x="192" y="-250" font-family="Helvetica,sans-Serif" font-size="10.00">::load_restart_file</text>
</a>
</g>
</g>
<!-- Node1&#45;&gt;Node6 -->
<g id="edge6" class="edge"><title>Node1&#45;&gt;Node6</title>
<path fill="none" stroke="midnightblue" d="M67.1708,-147.863C82.7902,-171.028 108.9,-206.099 138,-230 143.871,-234.822 150.703,-239.17 157.471,-242.923"/>
<polygon fill="midnightblue" stroke="midnightblue" points="69.9579,-145.732 61.5228,-139.322 64.119,-149.593 69.9579,-145.732"/>
</g>
<!-- Node7 -->
<g id="node7" class="node"><title>Node7</title>
<g id="a_node7"><a xlink:href="classinit.html#a78428952f4f16f84b944bbea4900ef3d" target="_top" xlink:title="init::init_domain_land">
<polygon fill="white" stroke="black" points="138,-114.5 138,-133.5 246,-133.5 246,-114.5 138,-114.5"/>
<text text-anchor="middle" x="192" y="-121.5" font-family="Helvetica,sans-Serif" font-size="10.00">init::init_domain_land</text>
</a>
</g>
</g>
<!-- Node1&#45;&gt;Node7 -->
<g id="edge8" class="edge"><title>Node1&#45;&gt;Node7</title>
<path fill="none" stroke="midnightblue" d="M111.808,-124C120.45,-124 129.296,-124 137.798,-124"/>
<polygon fill="midnightblue" stroke="midnightblue" points="111.79,-120.5 101.79,-124 111.79,-127.5 111.79,-120.5"/>
</g>
<!-- Node8 -->
<g id="node8" class="node"><title>Node8</title>
<g id="a_node8"><a xlink:href="classinit.html#a2c0d47bd2656d1121f0522d0f77a0e07" target="_top" xlink:title="init::init_domain">
<polygon fill="white" stroke="black" points="291.5,-76.5 291.5,-95.5 376.5,-95.5 376.5,-76.5 291.5,-76.5"/>
<text text-anchor="middle" x="334" y="-83.5" font-family="Helvetica,sans-Serif" font-size="10.00">init::init_domain</text>
</a>
</g>
</g>
<!-- Node1&#45;&gt;Node8 -->
<g id="edge14" class="edge"><title>Node1&#45;&gt;Node8</title>
<path fill="none" stroke="midnightblue" d="M111.656,-109.85C120.458,-108.045 129.441,-106.357 138,-105 190.576,-96.6619 251.745,-91.4177 291.352,-88.6008"/>
<polygon fill="midnightblue" stroke="midnightblue" points="110.89,-106.434 101.829,-111.926 112.337,-113.283 110.89,-106.434"/>
</g>
<!-- Node11 -->
<g id="node11" class="node"><title>Node11</title>
<g id="a_node11"><a xlink:href="classinit.html#a7c8bdf3006c76dd9d3464a56db072726" target="_top" xlink:title="init::init_bc_data">
<polygon fill="white" stroke="black" points="290,-38.5 290,-57.5 378,-57.5 378,-38.5 290,-38.5"/>
<text text-anchor="middle" x="334" y="-45.5" font-family="Helvetica,sans-Serif" font-size="10.00">init::init_bc_data</text>
</a>
</g>
</g>
<!-- Node1&#45;&gt;Node11 -->
<g id="edge15" class="edge"><title>Node1&#45;&gt;Node11</title>
<path fill="none" stroke="midnightblue" d="M94.213,-105.062C107.984,-99.3603 123.472,-93.4444 138,-89 189.276,-73.3141 249.945,-61.5926 289.836,-54.7851"/>
<polygon fill="midnightblue" stroke="midnightblue" points="92.8396,-101.842 84.9861,-108.954 95.5603,-108.292 92.8396,-101.842"/>
</g>
<!-- Node12 -->
<g id="node12" class="node"><title>Node12</title>
<g id="a_node12"><a xlink:href="classinit.html#a8b5935b5b45a47c58fdd67157c16764b" target="_top" xlink:title="init::init_ext_winds">
<polygon fill="white" stroke="black" points="285,-0.5 285,-19.5 383,-19.5 383,-0.5 285,-0.5"/>
<text text-anchor="middle" x="334" y="-7.5" font-family="Helvetica,sans-Serif" font-size="10.00">init::init_ext_winds</text>
</a>
</g>
</g>
<!-- Node1&#45;&gt;Node12 -->
<g id="edge17" class="edge"><title>Node1&#45;&gt;Node12</title>
<path fill="none" stroke="midnightblue" d="M76.135,-101.999C92.5162,-88.1316 115.259,-70.856 138,-60 185.31,-37.4154 244.126,-24.131 284.723,-17.0019"/>
<polygon fill="midnightblue" stroke="midnightblue" points="73.4489,-99.6955 68.1822,-108.889 78.0323,-104.986 73.4489,-99.6955"/>
</g>
<!-- Node13 -->
<g id="node13" class="node"><title>Node13</title>
<g id="a_node13"><a xlink:href="classlinear__theory__winds.html#a5aed1fad471120ba77c203fa6158a5ba" target="_top" xlink:title="linear_theory_winds\l::setup_linwinds">
<polygon fill="white" stroke="black" points="140.5,-191 140.5,-221 243.5,-221 243.5,-191 140.5,-191"/>
<text text-anchor="start" x="148.5" y="-209" font-family="Helvetica,sans-Serif" font-size="10.00">linear_theory_winds</text>
<text text-anchor="middle" x="192" y="-198" font-family="Helvetica,sans-Serif" font-size="10.00">::setup_linwinds</text>
</a>
</g>
</g>
<!-- Node1&#45;&gt;Node13 -->
<g id="edge19" class="edge"><title>Node1&#45;&gt;Node13</title>
<path fill="none" stroke="midnightblue" d="M85.6198,-144.634C101.449,-154.271 120.628,-165.834 138,-176 146.396,-180.913 155.602,-186.169 163.952,-190.887"/>
<polygon fill="midnightblue" stroke="midnightblue" points="87.0851,-141.428 76.7255,-139.208 83.4393,-147.404 87.0851,-141.428"/>
</g>
<!-- Node3 -->
<g id="node3" class="node"><title>Node3</title>
<g id="a_node3"><a xlink:href="classboundary__conditions.html#a07a42f467f470ada98e0a35fd5a75f66" target="_top" xlink:title=" Initialize the boundary conditions (read inital conditions, etc.) ">
<polygon fill="white" stroke="black" points="572,-186 572,-216 678,-216 678,-186 572,-186"/>
<text text-anchor="start" x="580" y="-204" font-family="Helvetica,sans-Serif" font-size="10.00">boundary_conditions</text>
<text text-anchor="middle" x="625" y="-193" font-family="Helvetica,sans-Serif" font-size="10.00">::bc_init</text>
</a>
</g>
</g>
<!-- Node2&#45;&gt;Node3 -->
<g id="edge2" class="edge"><title>Node2&#45;&gt;Node3</title>
<path fill="none" stroke="midnightblue" d="M526.388,-149.26C529.666,-150.811 532.899,-152.398 536,-154 552.66,-162.604 555.529,-167.037 572,-176 578.159,-179.351 584.838,-182.739 591.292,-185.893"/>
<polygon fill="midnightblue" stroke="midnightblue" points="527.649,-145.988 517.1,-145.008 524.736,-152.353 527.649,-145.988"/>
</g>
<!-- Node5 -->
<g id="node5" class="node"><title>Node5</title>
<g id="a_node5"><a xlink:href="classboundary__conditions.html#a1e8385c37634f3d7f70ea7c749dcda11" target="_top" xlink:title=" Read in the next timestep of input data and apply to the dXdt grids as appropriate. ">
<polygon fill="white" stroke="black" points="572,-137 572,-167 678,-167 678,-137 572,-137"/>
<text text-anchor="start" x="580" y="-155" font-family="Helvetica,sans-Serif" font-size="10.00">boundary_conditions</text>
<text text-anchor="middle" x="625" y="-144" font-family="Helvetica,sans-Serif" font-size="10.00">::bc_update</text>
</a>
</g>
</g>
<!-- Node2&#45;&gt;Node5 -->
<g id="edge4" class="edge"><title>Node2&#45;&gt;Node5</title>
<path fill="none" stroke="midnightblue" d="M542.495,-139.548C552.301,-141.046 562.346,-142.581 571.885,-144.038"/>
<polygon fill="midnightblue" stroke="midnightblue" points="542.809,-136.055 532.395,-138.005 541.751,-142.975 542.809,-136.055"/>
</g>
<!-- Node4 -->
<g id="node4" class="node"><title>Node4</title>
<g id="a_node4"><a xlink:href="driver_8f90.html#ab1e5a5816a57fc6e95d9563c2bb53590" target="_top" xlink:title=" Main Program ">
<polygon fill="white" stroke="black" points="714,-142.5 714,-161.5 746,-161.5 746,-142.5 714,-142.5"/>
<text text-anchor="middle" x="730" y="-149.5" font-family="Helvetica,sans-Serif" font-size="10.00">icar</text>
</a>
</g>
</g>
<!-- Node3&#45;&gt;Node4 -->
<g id="edge3" class="edge"><title>Node3&#45;&gt;Node4</title>
<path fill="none" stroke="midnightblue" d="M667.213,-181.394C683.675,-173.562 701.598,-165.036 713.88,-159.193"/>
<polygon fill="midnightblue" stroke="midnightblue" points="665.27,-178.442 657.744,-185.899 668.278,-184.763 665.27,-178.442"/>
</g>
<!-- Node5&#45;&gt;Node4 -->
<g id="edge5" class="edge"><title>Node5&#45;&gt;Node4</title>
<path fill="none" stroke="midnightblue" d="M688.369,-152C697.706,-152 706.543,-152 713.576,-152"/>
<polygon fill="midnightblue" stroke="midnightblue" points="688.104,-148.5 678.104,-152 688.103,-155.5 688.104,-148.5"/>
</g>
<!-- Node6&#45;&gt;Node3 -->
<g id="edge7" class="edge"><title>Node6&#45;&gt;Node3</title>
<path fill="none" stroke="midnightblue" d="M255.367,-262.254C324.906,-265.357 440.196,-265.578 536,-242 558.094,-236.562 581.358,-225.458 598.414,-216.176"/>
<polygon fill="midnightblue" stroke="midnightblue" points="255.185,-258.742 245.029,-261.757 254.849,-265.734 255.185,-258.742"/>
</g>
<!-- Node7&#45;&gt;Node8 -->
<g id="edge9" class="edge"><title>Node7&#45;&gt;Node8</title>
<path fill="none" stroke="midnightblue" d="M238.118,-111.754C257.415,-106.516 279.612,-100.491 297.683,-95.5859"/>
<polygon fill="midnightblue" stroke="midnightblue" points="237.062,-108.414 228.328,-114.411 238.896,-115.169 237.062,-108.414"/>
</g>
<!-- Node9 -->
<g id="node9" class="node"><title>Node9</title>
<g id="a_node9"><a xlink:href="classinit.html#a1dd1e2b38eef39cba464f65c9ce82568" target="_top" xlink:title="init::init_model">
<polygon fill="white" stroke="black" points="585,-76.5 585,-95.5 665,-95.5 665,-76.5 585,-76.5"/>
<text text-anchor="middle" x="625" y="-83.5" font-family="Helvetica,sans-Serif" font-size="10.00">init::init_model</text>
</a>
</g>
</g>
<!-- Node8&#45;&gt;Node9 -->
<g id="edge10" class="edge"><title>Node8&#45;&gt;Node9</title>
<path fill="none" stroke="midnightblue" d="M386.913,-86C443.676,-86 533.367,-86 584.617,-86"/>
<polygon fill="midnightblue" stroke="midnightblue" points="386.714,-82.5001 376.714,-86 386.714,-89.5001 386.714,-82.5001"/>
</g>
<!-- Node10 -->
<g id="node10" class="node"><title>Node10</title>
<g id="a_node10"><a xlink:href="classinit.html#a1c6cab46bb16bea719da3b193c43ccb3" target="_top" xlink:title="init::init_bc">
<polygon fill="white" stroke="black" points="447,-38.5 447,-57.5 511,-57.5 511,-38.5 447,-38.5"/>
<text text-anchor="middle" x="479" y="-45.5" font-family="Helvetica,sans-Serif" font-size="10.00">init::init_bc</text>
</a>
</g>
</g>
<!-- Node8&#45;&gt;Node10 -->
<g id="edge12" class="edge"><title>Node8&#45;&gt;Node10</title>
<path fill="none" stroke="midnightblue" d="M380.995,-73.7775C402.493,-68.0648 427.531,-61.4114 446.784,-56.2952"/>
<polygon fill="midnightblue" stroke="midnightblue" points="379.851,-70.4601 371.085,-76.411 381.648,-77.2253 379.851,-70.4601"/>
</g>
<!-- Node9&#45;&gt;Node4 -->
<g id="edge11" class="edge"><title>Node9&#45;&gt;Node4</title>
<path fill="none" stroke="midnightblue" d="M649.689,-101.179C669.518,-113.886 697.206,-131.627 714.075,-142.436"/>
<polygon fill="midnightblue" stroke="midnightblue" points="651.506,-98.1868 641.198,-95.7385 647.729,-104.081 651.506,-98.1868"/>
</g>
<!-- Node10&#45;&gt;Node9 -->
<g id="edge13" class="edge"><title>Node10&#45;&gt;Node9</title>
<path fill="none" stroke="midnightblue" d="M520.917,-58.7976C542.053,-64.3752 567.612,-71.1199 587.992,-76.4979"/>
<polygon fill="midnightblue" stroke="midnightblue" points="521.808,-55.4129 511.246,-56.2454 520.022,-62.1812 521.808,-55.4129"/>
</g>
<!-- Node11&#45;&gt;Node10 -->
<g id="edge16" class="edge"><title>Node11&#45;&gt;Node10</title>
<path fill="none" stroke="midnightblue" d="M388.35,-48C407.99,-48 429.586,-48 446.659,-48"/>
<polygon fill="midnightblue" stroke="midnightblue" points="388.293,-44.5001 378.293,-48 388.293,-51.5001 388.293,-44.5001"/>
</g>
<!-- Node12&#45;&gt;Node10 -->
<g id="edge18" class="edge"><title>Node12&#45;&gt;Node10</title>
<path fill="none" stroke="midnightblue" d="M380.995,-22.2225C402.493,-27.9352 427.531,-34.5886 446.784,-39.7048"/>
<polygon fill="midnightblue" stroke="midnightblue" points="381.648,-18.7747 371.085,-19.589 379.851,-25.5399 381.648,-18.7747"/>
</g>
<!-- Node14 -->
<g id="node14" class="node"><title>Node14</title>
<g id="a_node14"><a xlink:href="classlinear__theory__winds.html#a248a832d459ec9cd399c372d2ae9cb0a" target="_top" xlink:title="linear_theory_winds\l::linear_perturb">
<polygon fill="white" stroke="black" points="282.5,-191 282.5,-221 385.5,-221 385.5,-191 282.5,-191"/>
<text text-anchor="start" x="290.5" y="-209" font-family="Helvetica,sans-Serif" font-size="10.00">linear_theory_winds</text>
<text text-anchor="middle" x="334" y="-198" font-family="Helvetica,sans-Serif" font-size="10.00">::linear_perturb</text>
</a>
</g>
</g>
<!-- Node13&#45;&gt;Node14 -->
<g id="edge20" class="edge"><title>Node13&#45;&gt;Node14</title>
<path fill="none" stroke="midnightblue" d="M253.687,-206C263.15,-206 272.844,-206 282.061,-206"/>
<polygon fill="midnightblue" stroke="midnightblue" points="253.543,-202.5 243.543,-206 253.543,-209.5 253.543,-202.5"/>
</g>
<!-- Node15 -->
<g id="node15" class="node"><title>Node15</title>
<g id="a_node15"><a xlink:href="classboundary__conditions.html#ac4cfb5127bfecdc6e088ef949694ea4a" target="_top" xlink:title=" Remove linear theory topographic winds perturbations from the low resolution wind field...">
<polygon fill="white" stroke="black" points="422,-164 422,-194 536,-194 536,-164 422,-164"/>
<text text-anchor="start" x="430" y="-182" font-family="Helvetica,sans-Serif" font-size="10.00">boundary_conditions</text>
<text text-anchor="middle" x="479" y="-171" font-family="Helvetica,sans-Serif" font-size="10.00">::remove_linear_winds</text>
</a>
</g>
</g>
<!-- Node14&#45;&gt;Node15 -->
<g id="edge21" class="edge"><title>Node14&#45;&gt;Node15</title>
<path fill="none" stroke="midnightblue" d="M395.869,-194.507C404.541,-192.87 413.426,-191.192 421.999,-189.574"/>
<polygon fill="midnightblue" stroke="midnightblue" points="394.996,-191.11 385.819,-196.405 396.295,-197.989 394.996,-191.11"/>
</g>
<!-- Node16 -->
<g id="node16" class="node"><title>Node16</title>
<g id="a_node16"><a xlink:href="classwind.html#a582192f02996b37543b966df84af1e78" target="_top" xlink:title="wind::update_winds">
<polygon fill="white" stroke="black" points="427.5,-213.5 427.5,-232.5 530.5,-232.5 530.5,-213.5 427.5,-213.5"/>
<text text-anchor="middle" x="479" y="-220.5" font-family="Helvetica,sans-Serif" font-size="10.00">wind::update_winds</text>
</a>
</g>
</g>
<!-- Node14&#45;&gt;Node16 -->
<g id="edge24" class="edge"><title>Node14&#45;&gt;Node16</title>
<path fill="none" stroke="midnightblue" d="M395.776,-213.225C406.295,-214.476 417.131,-215.764 427.345,-216.978"/>
<polygon fill="midnightblue" stroke="midnightblue" points="396.162,-209.746 385.819,-212.041 395.336,-216.698 396.162,-209.746"/>
</g>
<!-- Node15&#45;&gt;Node3 -->
<g id="edge22" class="edge"><title>Node15&#45;&gt;Node3</title>
<path fill="none" stroke="midnightblue" d="M546.058,-189.092C554.622,-190.401 563.299,-191.726 571.599,-192.994"/>
<polygon fill="midnightblue" stroke="midnightblue" points="546.5,-185.619 536.086,-187.569 545.443,-192.539 546.5,-185.619"/>
</g>
<!-- Node15&#45;&gt;Node5 -->
<g id="edge23" class="edge"><title>Node15&#45;&gt;Node5</title>
<path fill="none" stroke="midnightblue" d="M546.058,-166.614C554.622,-165.008 563.299,-163.382 571.599,-161.825"/>
<polygon fill="midnightblue" stroke="midnightblue" points="545.27,-163.201 536.086,-168.484 546.56,-170.081 545.27,-163.201"/>
</g>
<!-- Node16&#45;&gt;Node3 -->
<g id="edge25" class="edge"><title>Node16&#45;&gt;Node3</title>
<path fill="none" stroke="midnightblue" d="M540.895,-213.697C551.156,-212.129 561.725,-210.514 571.742,-208.984"/>
<polygon fill="midnightblue" stroke="midnightblue" points="540.126,-210.273 530.769,-215.244 541.183,-217.193 540.126,-210.273"/>
</g>
<!-- Node16&#45;&gt;Node5 -->
<g id="edge26" class="edge"><title>Node16&#45;&gt;Node5</title>
<path fill="none" stroke="midnightblue" d="M521.603,-209.735C526.553,-207.694 531.456,-205.443 536,-203 553.616,-193.53 554.825,-186.248 572,-176 577.294,-172.841 583.074,-169.805 588.793,-167.017"/>
<polygon fill="midnightblue" stroke="midnightblue" points="520.18,-206.532 512.11,-213.397 522.7,-213.063 520.18,-206.532"/>
</g>
</g>
</svg>
        <g id="navigator" transform="translate(0 0)" fill="#404254">
                <rect fill="#f2f5e9" fill-opacity="0.5" stroke="#606060" stroke-width=".5" x="0" y="0" width="60" height="60"/>
                <use id="zoomplus" xlink:href="#zoomPlus" x="17" y="9" onmousedown="handleZoom(evt,'in')"/>
                <use id="zoomminus" xlink:href="#zoomMin" x="42" y="9" onmousedown="handleZoom(evt,'out')"/>
                <use id="reset" xlink:href="#resetDef" x="30" y="36" onmousedown="handleReset()"/>
                <g id="arrowUp" xlink:href="#dirArrow" transform="translate(30 24)" onmousedown="handlePan(0,-1)">
                  <use xlink:href="#rim" fill="#404040">
                        <set attributeName="fill" to="#808080" begin="arrowUp.mouseover" end="arrowUp.mouseout"/>
                  </use>
                  <path fill="none" stroke="white" stroke-width="1.5" d="M0,-3.0v7 M-2.5,-0.5L0,-3.0L2.5,-0.5"/>
                </g>
                <g id="arrowRight" xlink:href="#dirArrow" transform="rotate(90) translate(36 -43)" onmousedown="handlePan(1,0)">
                  <use xlink:href="#rim" fill="#404040">
                        <set attributeName="fill" to="#808080" begin="arrowRight.mouseover" end="arrowRight.mouseout"/>
                  </use>
                  <path fill="none" stroke="white" stroke-width="1.5" d="M0,-3.0v7 M-2.5,-0.5L0,-3.0L2.5,-0.5"/>
                </g>
                <g id="arrowDown" xlink:href="#dirArrow" transform="rotate(180) translate(-30 -48)" onmousedown="handlePan(0,1)">
                  <use xlink:href="#rim" fill="#404040">
                        <set attributeName="fill" to="#808080" begin="arrowDown.mouseover" end="arrowDown.mouseout"/>
                  </use>
                  <path fill="none" stroke="white" stroke-width="1.5" d="M0,-3.0v7 M-2.5,-0.5L0,-3.0L2.5,-0.5"/>
                </g>
                <g id="arrowLeft" xlink:href="#dirArrow" transform="rotate(270) translate(-36 17)" onmousedown="handlePan(-1,0)">
                  <use xlink:href="#rim" fill="#404040">
                        <set attributeName="fill" to="#808080" begin="arrowLeft.mouseover" end="arrowLeft.mouseout"/>
                  </use>
                  <path fill="none" stroke="white" stroke-width="1.5" d="M0,-3.0v7 M-2.5,-0.5L0,-3.0L2.5,-0.5"/>
                </g>
        </g>
        <svg viewBox="0 0 15 15" width="100%" height="30px" preserveAspectRatio="xMaxYMin meet">
         <g id="arrow_out" transform="scale(0.3 0.3)">
          <a xlink:href="interfaceio__routines_1_1io__read_a35290f3b01bd8f36bae0173749f6b870_icgraph_org.svg" target="_base">
           <rect id="button" ry="5" rx="5" y="6" x="6" height="38" width="38"
                fill="#f2f5e9" fill-opacity="0.5" stroke="#606060" stroke-width="1.0"/>
           <path id="arrow"
             d="M 11.500037,31.436501 C 11.940474,20.09759 22.043105,11.32322 32.158766,21.979434 L 37.068811,17.246167 C 37.068811,17.246167 37.088388,32 37.088388,32 L 22.160133,31.978069 C 22.160133,31.978069 26.997745,27.140456 26.997745,27.140456 C 18.528582,18.264221 13.291696,25.230495 11.500037,31.436501 z"
             style="fill:#404040;"/>
          </a>
         </g>
        </svg>
</svg>
