<?xml version="1.0" encoding="UTF-8" standalone="no"?>
<!DOCTYPE svg PUBLIC "-//W3C//DTD SVG 1.1//EN"
 "http://www.w3.org/Graphics/SVG/1.1/DTD/svg11.dtd">
<!-- Generated by graphviz version 2.38.0 (20140413.2041)
 -->
<!-- Title: io_routines::io_read::io_read3d Pages: 1 -->
<svg width="729pt" height="402pt"
 viewBox="0.00 0.00 729.00 401.61" xmlns="http://www.w3.org/2000/svg" xmlns:xlink="http://www.w3.org/1999/xlink">
<g id="graph0" class="graph" transform="scale(1 1) rotate(0) translate(4 397.606)">
<title>io_routines::io_read::io_read3d</title>
<polygon fill="white" stroke="none" points="-4,4 -4,-397.606 725,-397.606 725,4 -4,4"/>
<!-- Node1 -->
<g id="node1" class="node"><title>Node1</title>
<polygon fill="#bfbfbf" stroke="black" points="0,-134 0,-164 101,-164 101,-134 0,-134"/>
<text text-anchor="start" x="8" y="-152" font-family="Helvetica,sans-Serif" font-size="10.00">io_routines::io_read</text>
<text text-anchor="middle" x="50.5" y="-141" font-family="Helvetica,sans-Serif" font-size="10.00">::io_read3d</text>
</g>
<!-- Node2 -->
<g id="node2" class="node"><title>Node2</title>
<g id="a_node2"><a xlink:href="classboundary__conditions.html#a3d4ddfc81942b206888c807998f4bb3c" target="_top" xlink:title=" Generic routine to read a forcing variable (varname) from a netcdf file (filename) at a time step (c...">
<polygon fill="white" stroke="black" points="138,-159 138,-189 244,-189 244,-159 138,-159"/>
<text text-anchor="start" x="146" y="-177" font-family="Helvetica,sans-Serif" font-size="10.00">boundary_conditions</text>
<text text-anchor="middle" x="191" y="-166" font-family="Helvetica,sans-Serif" font-size="10.00">::read_var</text>
</a>
</g>
</g>
<!-- Node1&#45;&gt;Node2 -->
<g id="edge1" class="edge"><title>Node1&#45;&gt;Node2</title>
<path fill="none" stroke="midnightblue" d="M111.074,-159.753C120.011,-161.367 129.167,-163.019 137.93,-164.601"/>
<polygon fill="midnightblue" stroke="midnightblue" points="111.573,-156.287 101.11,-157.955 110.33,-163.176 111.573,-156.287"/>
</g>
<!-- Node7 -->
<g id="node7" class="node"><title>Node7</title>
<g id="a_node7"><a xlink:href="classboundary__conditions.html#a1e8385c37634f3d7f70ea7c749dcda11" target="_top" xlink:title=" Read in the next timestep of input data and apply to the dXdt grids as appropriate. ">
<polygon fill="white" stroke="black" points="431,-159 431,-189 537,-189 537,-159 431,-159"/>
<text text-anchor="start" x="439" y="-177" font-family="Helvetica,sans-Serif" font-size="10.00">boundary_conditions</text>
<text text-anchor="middle" x="484" y="-166" font-family="Helvetica,sans-Serif" font-size="10.00">::bc_update</text>
</a>
</g>
</g>
<!-- Node1&#45;&gt;Node7 -->
<g id="edge18" class="edge"><title>Node1&#45;&gt;Node7</title>
<path fill="none" stroke="midnightblue" d="M110.914,-134.979C194.917,-116.246 343.871,-87.3452 395,-105 425.83,-115.646 454.094,-142.035 469.882,-158.919"/>
<polygon fill="midnightblue" stroke="midnightblue" points="109.991,-131.599 101.003,-137.209 111.527,-138.428 109.991,-131.599"/>
</g>
<!-- Node8 -->
<g id="node8" class="node"><title>Node8</title>
<g id="a_node8"><a xlink:href="classboundary__conditions.html#ac4cfb5127bfecdc6e088ef949694ea4a" target="_top" xlink:title=" Remove linear theory topographic winds perturbations from the low resolution wind field...">
<polygon fill="white" stroke="black" points="281,-203 281,-233 395,-233 395,-203 281,-203"/>
<text text-anchor="start" x="289" y="-221" font-family="Helvetica,sans-Serif" font-size="10.00">boundary_conditions</text>
<text text-anchor="middle" x="338" y="-210" font-family="Helvetica,sans-Serif" font-size="10.00">::remove_linear_winds</text>
</a>
</g>
</g>
<!-- Node1&#45;&gt;Node8 -->
<g id="edge10" class="edge"><title>Node1&#45;&gt;Node8</title>
<path fill="none" stroke="midnightblue" d="M80.4535,-169.689C96.3766,-179.982 116.929,-191.57 137,-198 184.023,-213.065 240.166,-217.586 280.982,-218.617"/>
<polygon fill="midnightblue" stroke="midnightblue" points="82.3811,-166.768 72.116,-164.145 78.5051,-172.597 82.3811,-166.768"/>
</g>
<!-- Node9 -->
<g id="node9" class="node"><title>Node9</title>
<g id="a_node9"><a xlink:href="classboundary__conditions.html#afe9c319bf80aa129881d9561771af7f3" target="_top" xlink:title=" Compute the mean wind field and make them constant everywhere... ">
<polygon fill="white" stroke="black" points="285,-340 285,-370 391,-370 391,-340 285,-340"/>
<text text-anchor="start" x="293" y="-358" font-family="Helvetica,sans-Serif" font-size="10.00">boundary_conditions</text>
<text text-anchor="middle" x="338" y="-347" font-family="Helvetica,sans-Serif" font-size="10.00">::mean_winds</text>
</a>
</g>
</g>
<!-- Node1&#45;&gt;Node9 -->
<g id="edge13" class="edge"><title>Node1&#45;&gt;Node9</title>
<path fill="none" stroke="midnightblue" d="M75.7324,-171.048C92.5068,-185.968 115.583,-205.827 137,-222 197.897,-267.985 273.931,-316.189 312.342,-339.941"/>
<polygon fill="midnightblue" stroke="midnightblue" points="77.8233,-168.222 68.0389,-164.158 73.1534,-173.437 77.8233,-168.222"/>
</g>
<!-- Node10 -->
<g id="node10" class="node"><title>Node10</title>
<g id="a_node10"><a xlink:href="classboundary__conditions.html#ad2ea45f7b77ad1c1d998b3ad7d236d89" target="_top" xlink:title=" Load restart file ">
<polygon fill="white" stroke="black" points="138,-359 138,-389 244,-389 244,-359 138,-359"/>
<text text-anchor="start" x="146" y="-377" font-family="Helvetica,sans-Serif" font-size="10.00">boundary_conditions</text>
<text text-anchor="middle" x="191" y="-366" font-family="Helvetica,sans-Serif" font-size="10.00">::load_restart_file</text>
</a>
</g>
</g>
<!-- Node1&#45;&gt;Node10 -->
<g id="edge16" class="edge"><title>Node1&#45;&gt;Node10</title>
<path fill="none" stroke="midnightblue" d="M65.0357,-173.14C81.5316,-202.314 110.491,-252.75 137,-295 151.132,-317.524 168.452,-342.963 179.36,-358.742"/>
<polygon fill="midnightblue" stroke="midnightblue" points="67.901,-171.095 59.9407,-164.103 61.8035,-174.533 67.901,-171.095"/>
</g>
<!-- Node11 -->
<g id="node11" class="node"><title>Node11</title>
<g id="a_node11"><a xlink:href="classinit.html#a78428952f4f16f84b944bbea4900ef3d" target="_top" xlink:title="init::init_domain_land">
<polygon fill="white" stroke="black" points="137,-38.5 137,-57.5 245,-57.5 245,-38.5 137,-38.5"/>
<text text-anchor="middle" x="191" y="-45.5" font-family="Helvetica,sans-Serif" font-size="10.00">init::init_domain_land</text>
</a>
</g>
</g>
<!-- Node1&#45;&gt;Node11 -->
<g id="edge19" class="edge"><title>Node1&#45;&gt;Node11</title>
<path fill="none" stroke="midnightblue" d="M72.4683,-126.706C88.8979,-110.125 112.934,-87.7391 137,-72 145.538,-66.4162 155.589,-61.5027 164.63,-57.5997"/>
<polygon fill="midnightblue" stroke="midnightblue" points="69.9573,-124.267 65.4819,-133.871 74.9691,-129.154 69.9573,-124.267"/>
</g>
<!-- Node12 -->
<g id="node12" class="node"><title>Node12</title>
<g id="a_node12"><a xlink:href="classinit.html#a2c0d47bd2656d1121f0522d0f77a0e07" target="_top" xlink:title="init::init_domain">
<polygon fill="white" stroke="black" points="295.5,-38.5 295.5,-57.5 380.5,-57.5 380.5,-38.5 295.5,-38.5"/>
<text text-anchor="middle" x="338" y="-45.5" font-family="Helvetica,sans-Serif" font-size="10.00">init::init_domain</text>
</a>
</g>
</g>
<!-- Node1&#45;&gt;Node12 -->
<g id="edge25" class="edge"><title>Node1&#45;&gt;Node12</title>
<path fill="none" stroke="midnightblue" d="M91.0375,-129.695C105.349,-123.046 121.744,-115.817 137,-110 193.555,-88.4359 261.146,-68.6955 301.494,-57.5283"/>
<polygon fill="midnightblue" stroke="midnightblue" points="89.5275,-126.537 81.9666,-133.959 92.5056,-132.872 89.5275,-126.537"/>
</g>
<!-- Node15 -->
<g id="node15" class="node"><title>Node15</title>
<g id="a_node15"><a xlink:href="classinit.html#a7c8bdf3006c76dd9d3464a56db072726" target="_top" xlink:title="init::init_bc_data">
<polygon fill="white" stroke="black" points="147,-0.5 147,-19.5 235,-19.5 235,-0.5 147,-0.5"/>
<text text-anchor="middle" x="191" y="-7.5" font-family="Helvetica,sans-Serif" font-size="10.00">init::init_bc_data</text>
</a>
</g>
</g>
<!-- Node1&#45;&gt;Node15 -->
<g id="edge26" class="edge"><title>Node1&#45;&gt;Node15</title>
<path fill="none" stroke="midnightblue" d="M63.0803,-124.703C77.0737,-97.7601 103.032,-54.7144 137,-29 142.066,-25.1651 147.976,-22.0528 153.975,-19.5432"/>
<polygon fill="midnightblue" stroke="midnightblue" points="59.8509,-123.334 58.4735,-133.839 66.1012,-126.486 59.8509,-123.334"/>
</g>
<!-- Node3 -->
<g id="node3" class="node"><title>Node3</title>
<g id="a_node3"><a xlink:href="classboundary__conditions.html#afd8110e2b16915ce0cb12ce4958fe09c" target="_top" xlink:title=" Initialize the external winds information (filenames, nfiles, etc) and read the initial conditions ...">
<polygon fill="white" stroke="black" points="285,-252 285,-282 391,-282 391,-252 285,-252"/>
<text text-anchor="start" x="293" y="-270" font-family="Helvetica,sans-Serif" font-size="10.00">boundary_conditions</text>
<text text-anchor="middle" x="338" y="-259" font-family="Helvetica,sans-Serif" font-size="10.00">::ext_winds_init</text>
</a>
</g>
</g>
<!-- Node2&#45;&gt;Node3 -->
<g id="edge2" class="edge"><title>Node2&#45;&gt;Node3</title>
<path fill="none" stroke="midnightblue" d="M217.104,-195.711C234.345,-209.971 258.158,-228.427 281,-242 286.949,-245.535 293.488,-248.887 299.933,-251.92"/>
<polygon fill="midnightblue" stroke="midnightblue" points="219.114,-192.829 209.202,-189.087 214.618,-198.193 219.114,-192.829"/>
</g>
<!-- Node4 -->
<g id="node4" class="node"><title>Node4</title>
<g id="a_node4"><a xlink:href="classboundary__conditions.html#a07a42f467f470ada98e0a35fd5a75f66" target="_top" xlink:title=" Initialize the boundary conditions (read inital conditions, etc.) ">
<polygon fill="white" stroke="black" points="431,-274 431,-304 537,-304 537,-274 431,-274"/>
<text text-anchor="start" x="439" y="-292" font-family="Helvetica,sans-Serif" font-size="10.00">boundary_conditions</text>
<text text-anchor="middle" x="484" y="-281" font-family="Helvetica,sans-Serif" font-size="10.00">::bc_init</text>
</a>
</g>
</g>
<!-- Node2&#45;&gt;Node4 -->
<g id="edge5" class="edge"><title>Node2&#45;&gt;Node4</title>
<path fill="none" stroke="midnightblue" d="M202.232,-198.235C215.648,-226.479 242.137,-271.734 281,-291 327.661,-314.133 388.159,-309.755 430.74,-301.999"/>
<polygon fill="midnightblue" stroke="midnightblue" points="205.367,-196.673 198.034,-189.025 198.997,-199.576 205.367,-196.673"/>
</g>
<!-- Node6 -->
<g id="node6" class="node"><title>Node6</title>
<g id="a_node6"><a xlink:href="classboundary__conditions.html#a40ba01db58736c2bb018af7ebe72f55f" target="_top" xlink:title=" Update the external wind field ">
<polygon fill="white" stroke="black" points="285,-115 285,-145 391,-145 391,-115 285,-115"/>
<text text-anchor="start" x="293" y="-133" font-family="Helvetica,sans-Serif" font-size="10.00">boundary_conditions</text>
<text text-anchor="middle" x="338" y="-122" font-family="Helvetica,sans-Serif" font-size="10.00">::update_ext_winds</text>
</a>
</g>
</g>
<!-- Node2&#45;&gt;Node6 -->
<g id="edge6" class="edge"><title>Node2&#45;&gt;Node6</title>
<path fill="none" stroke="midnightblue" d="M251.361,-155.987C263.278,-152.371 275.685,-148.606 287.236,-145.101"/>
<polygon fill="midnightblue" stroke="midnightblue" points="250.048,-152.728 241.495,-158.981 252.081,-159.426 250.048,-152.728"/>
</g>
<!-- Node2&#45;&gt;Node7 -->
<g id="edge9" class="edge"><title>Node2&#45;&gt;Node7</title>
<path fill="none" stroke="midnightblue" d="M254.246,-174C306.879,-174 381.419,-174 430.936,-174"/>
<polygon fill="midnightblue" stroke="midnightblue" points="254.025,-170.5 244.025,-174 254.025,-177.5 254.025,-170.5"/>
</g>
<!-- Node3&#45;&gt;Node4 -->
<g id="edge3" class="edge"><title>Node3&#45;&gt;Node4</title>
<path fill="none" stroke="midnightblue" d="M401.495,-276.548C411.301,-278.046 421.346,-279.581 430.885,-281.038"/>
<polygon fill="midnightblue" stroke="midnightblue" points="401.809,-273.055 391.395,-275.005 400.751,-279.975 401.809,-273.055"/>
</g>
<!-- Node5 -->
<g id="node5" class="node"><title>Node5</title>
<g id="a_node5"><a xlink:href="driver_8f90.html#ab1e5a5816a57fc6e95d9563c2bb53590" target="_top" xlink:title=" Main Program ">
<polygon fill="white" stroke="black" points="689,-164.5 689,-183.5 721,-183.5 721,-164.5 689,-164.5"/>
<text text-anchor="middle" x="705" y="-171.5" font-family="Helvetica,sans-Serif" font-size="10.00">icar</text>
</a>
</g>
</g>
<!-- Node4&#45;&gt;Node5 -->
<g id="edge4" class="edge"><title>Node4&#45;&gt;Node5</title>
<path fill="none" stroke="midnightblue" d="M522.654,-269.227C571.653,-243.497 655.013,-199.724 688.953,-181.902"/>
<polygon fill="midnightblue" stroke="midnightblue" points="520.857,-266.218 513.63,-273.966 524.111,-272.415 520.857,-266.218"/>
</g>
<!-- Node6&#45;&gt;Node7 -->
<g id="edge7" class="edge"><title>Node6&#45;&gt;Node7</title>
<path fill="none" stroke="midnightblue" d="M397.951,-148.013C409.786,-151.629 422.108,-155.394 433.579,-158.899"/>
<polygon fill="midnightblue" stroke="midnightblue" points="398.74,-144.594 388.154,-145.019 396.695,-151.289 398.74,-144.594"/>
</g>
<!-- Node7&#45;&gt;Node5 -->
<g id="edge8" class="edge"><title>Node7&#45;&gt;Node5</title>
<path fill="none" stroke="midnightblue" d="M547.328,-174C596.081,-174 660.256,-174 688.977,-174"/>
<polygon fill="midnightblue" stroke="midnightblue" points="547.178,-170.5 537.178,-174 547.178,-177.5 547.178,-170.5"/>
</g>
<!-- Node8&#45;&gt;Node4 -->
<g id="edge11" class="edge"><title>Node8&#45;&gt;Node4</title>
<path fill="none" stroke="midnightblue" d="M384.666,-237.185C388.179,-238.778 391.657,-240.394 395,-242 415.922,-252.047 439.052,-264.454 456.346,-273.997"/>
<polygon fill="midnightblue" stroke="midnightblue" points="385.913,-233.909 375.353,-233.043 383.068,-240.305 385.913,-233.909"/>
</g>
<!-- Node8&#45;&gt;Node7 -->
<g id="edge12" class="edge"><title>Node8&#45;&gt;Node7</title>
<path fill="none" stroke="midnightblue" d="M397.951,-199.987C409.786,-196.371 422.108,-192.606 433.579,-189.101"/>
<polygon fill="midnightblue" stroke="midnightblue" points="396.695,-196.711 388.154,-202.981 398.74,-203.406 396.695,-196.711"/>
</g>
<!-- Node9&#45;&gt;Node4 -->
<g id="edge14" class="edge"><title>Node9&#45;&gt;Node4</title>
<path fill="none" stroke="midnightblue" d="M381.155,-335.679C403.15,-325.598 429.659,-313.448 450.117,-304.071"/>
<polygon fill="midnightblue" stroke="midnightblue" points="379.669,-332.51 372.037,-339.858 382.585,-338.873 379.669,-332.51"/>
</g>
<!-- Node9&#45;&gt;Node7 -->
<g id="edge15" class="edge"><title>Node9&#45;&gt;Node7</title>
<path fill="none" stroke="midnightblue" d="M359.885,-331.968C370.601,-319.942 383.735,-304.877 395,-291 423.993,-255.282 455.979,-211.584 472.232,-189.045"/>
<polygon fill="midnightblue" stroke="midnightblue" points="356.973,-329.973 352.905,-339.756 362.186,-334.645 356.973,-329.973"/>
</g>
<!-- Node10&#45;&gt;Node4 -->
<g id="edge17" class="edge"><title>Node10&#45;&gt;Node4</title>
<path fill="none" stroke="midnightblue" d="M254.204,-388.42C295.695,-394.995 350.572,-397.696 395,-379 431.256,-363.743 460.033,-325.447 473.924,-304.053"/>
<polygon fill="midnightblue" stroke="midnightblue" points="254.672,-384.949 244.227,-386.724 253.499,-391.85 254.672,-384.949"/>
</g>
<!-- Node11&#45;&gt;Node12 -->
<g id="edge20" class="edge"><title>Node11&#45;&gt;Node12</title>
<path fill="none" stroke="midnightblue" d="M255.364,-48C268.845,-48 282.755,-48 295.188,-48"/>
<polygon fill="midnightblue" stroke="midnightblue" points="255.169,-44.5001 245.169,-48 255.169,-51.5001 255.169,-44.5001"/>
</g>
<!-- Node13 -->
<g id="node13" class="node"><title>Node13</title>
<g id="a_node13"><a xlink:href="classinit.html#a1dd1e2b38eef39cba464f65c9ce82568" target="_top" xlink:title="init::init_model">
<polygon fill="white" stroke="black" points="573,-57.5 573,-76.5 653,-76.5 653,-57.5 573,-57.5"/>
<text text-anchor="middle" x="613" y="-64.5" font-family="Helvetica,sans-Serif" font-size="10.00">init::init_model</text>
</a>
</g>
</g>
<!-- Node12&#45;&gt;Node13 -->
<g id="edge21" class="edge"><title>Node12&#45;&gt;Node13</title>
<path fill="none" stroke="midnightblue" d="M390.973,-51.6171C443.998,-55.3076 525.088,-60.9512 572.9,-64.2788"/>
<polygon fill="midnightblue" stroke="midnightblue" points="390.979,-48.1092 380.76,-50.9064 390.493,-55.0923 390.979,-48.1092"/>
</g>
<!-- Node14 -->
<g id="node14" class="node"><title>Node14</title>
<g id="a_node14"><a xlink:href="classinit.html#a1c6cab46bb16bea719da3b193c43ccb3" target="_top" xlink:title="init::init_bc">
<polygon fill="white" stroke="black" points="452,-19.5 452,-38.5 516,-38.5 516,-19.5 452,-19.5"/>
<text text-anchor="middle" x="484" y="-26.5" font-family="Helvetica,sans-Serif" font-size="10.00">init::init_bc</text>
</a>
</g>
</g>
<!-- Node12&#45;&gt;Node14 -->
<g id="edge23" class="edge"><title>Node12&#45;&gt;Node14</title>
<path fill="none" stroke="midnightblue" d="M390.794,-41.1661C411.277,-38.4634 434.135,-35.4475 451.967,-33.0946"/>
<polygon fill="midnightblue" stroke="midnightblue" points="390.107,-37.7263 380.651,-42.5044 391.023,-44.6661 390.107,-37.7263"/>
</g>
<!-- Node13&#45;&gt;Node5 -->
<g id="edge22" class="edge"><title>Node13&#45;&gt;Node5</title>
<path fill="none" stroke="midnightblue" d="M628.952,-84.7765C648.187,-107.644 680.909,-146.547 695.974,-164.457"/>
<polygon fill="midnightblue" stroke="midnightblue" points="631.421,-82.2744 622.306,-76.8745 626.064,-86.7803 631.421,-82.2744"/>
</g>
<!-- Node14&#45;&gt;Node13 -->
<g id="edge24" class="edge"><title>Node14&#45;&gt;Node13</title>
<path fill="none" stroke="midnightblue" d="M526.007,-41.2698C543.481,-46.4983 563.565,-52.5077 579.927,-57.4033"/>
<polygon fill="midnightblue" stroke="midnightblue" points="526.651,-37.8094 516.068,-38.2958 524.645,-44.5156 526.651,-37.8094"/>
</g>
<!-- Node15&#45;&gt;Node14 -->
<g id="edge27" class="edge"><title>Node15&#45;&gt;Node14</title>
<path fill="none" stroke="midnightblue" d="M245.36,-13.484C305.782,-17.4291 402.224,-23.7259 451.613,-26.9507"/>
<polygon fill="midnightblue" stroke="midnightblue" points="245.458,-9.98304 235.251,-12.824 245.002,-16.9682 245.458,-9.98304"/>
</g>
</g>
</svg>
