<?xml version="1.0" encoding="UTF-8" standalone="no"?>
<!DOCTYPE svg PUBLIC "-//W3C//DTD SVG 1.1//EN"
 "http://www.w3.org/Graphics/SVG/1.1/DTD/svg11.dtd">
<!-- Generated by graphviz version 2.32.0 (20130809.1645)
 -->
<!-- Title: io_routines::io_read::io_read3d Pages: 1 -->
<svg width="730pt" height="402pt"
 viewBox="0.00 0.00 730.00 401.61" xmlns="http://www.w3.org/2000/svg" xmlns:xlink="http://www.w3.org/1999/xlink">
<g id="graph0" class="graph" transform="scale(1 1) rotate(0) translate(4 397.606)">
<title>io_routines::io_read::io_read3d</title>
<polygon fill="white" stroke="white" points="-4,5 -4,-397.606 727,-397.606 727,5 -4,5"/>
<!-- Node1 -->
<g id="node1" class="node"><title>Node1</title>
<polygon fill="#bfbfbf" stroke="black" points="0.5,-134 0.5,-164 101.5,-164 101.5,-134 0.5,-134"/>
<text text-anchor="start" x="8.5" y="-152" font-family="Helvetica,sans-Serif" font-size="10.00">io_routines::io_read</text>
<text text-anchor="middle" x="51" y="-141" font-family="Helvetica,sans-Serif" font-size="10.00">::io_read3d</text>
</g>
<!-- Node2 -->
<g id="node2" class="node"><title>Node2</title>
<g id="a_node2"><a xlink:href="classboundary__conditions.html#a3d4ddfc81942b206888c807998f4bb3c" target="_top" xlink:title=" Generic routine to read a forcing variable (varname) from a netcdf file (filename) at a time step (c...">
<polygon fill="white" stroke="black" points="139,-159 139,-189 245,-189 245,-159 139,-159"/>
<text text-anchor="start" x="147" y="-177" font-family="Helvetica,sans-Serif" font-size="10.00">boundary_conditions</text>
<text text-anchor="middle" x="192" y="-166" font-family="Helvetica,sans-Serif" font-size="10.00">::read_var</text>
</a>
</g>
</g>
<!-- Node1&#45;&gt;Node2 -->
<g id="edge1" class="edge"><title>Node1&#45;&gt;Node2</title>
<path fill="none" stroke="midnightblue" d="M111.789,-159.753C120.758,-161.367 129.947,-163.019 138.742,-164.601"/>
<polygon fill="midnightblue" stroke="midnightblue" points="112.251,-156.28 101.79,-157.955 111.012,-163.17 112.251,-156.28"/>
</g>
<!-- Node7 -->
<g id="node7" class="node"><title>Node7</title>
<g id="a_node7"><a xlink:href="classboundary__conditions.html#a1e8385c37634f3d7f70ea7c749dcda11" target="_top" xlink:title=" Read in the next timestep of input data and apply to the dXdt grids as appropriate. ">
<polygon fill="white" stroke="black" points="432,-159 432,-189 538,-189 538,-159 432,-159"/>
<text text-anchor="start" x="440" y="-177" font-family="Helvetica,sans-Serif" font-size="10.00">boundary_conditions</text>
<text text-anchor="middle" x="485" y="-166" font-family="Helvetica,sans-Serif" font-size="10.00">::bc_update</text>
</a>
</g>
</g>
<!-- Node1&#45;&gt;Node7 -->
<g id="edge18" class="edge"><title>Node1&#45;&gt;Node7</title>
<path fill="none" stroke="midnightblue" d="M111.501,-134.972C195.626,-116.231 344.798,-87.3199 396,-105 426.83,-115.646 455.094,-142.035 470.882,-158.919"/>
<polygon fill="midnightblue" stroke="midnightblue" points="110.564,-131.595 101.575,-137.204 112.099,-138.425 110.564,-131.595"/>
</g>
<!-- Node8 -->
<g id="node8" class="node"><title>Node8</title>
<g id="a_node8"><a xlink:href="classboundary__conditions.html#ac4cfb5127bfecdc6e088ef949694ea4a" target="_top" xlink:title=" Remove linear theory topographic winds perturbations from the low resolution wind field...">
<polygon fill="white" stroke="black" points="282,-203 282,-233 396,-233 396,-203 282,-203"/>
<text text-anchor="start" x="290" y="-221" font-family="Helvetica,sans-Serif" font-size="10.00">boundary_conditions</text>
<text text-anchor="middle" x="339" y="-210" font-family="Helvetica,sans-Serif" font-size="10.00">::remove_linear_winds</text>
</a>
</g>
</g>
<!-- Node1&#45;&gt;Node8 -->
<g id="edge10" class="edge"><title>Node1&#45;&gt;Node8</title>
<path fill="none" stroke="midnightblue" d="M81.1396,-169.687C97.1607,-179.979 117.833,-191.567 138,-198 185.042,-213.006 241.183,-217.533 281.993,-218.582"/>
<polygon fill="midnightblue" stroke="midnightblue" points="83.0229,-166.736 72.7503,-164.143 79.1638,-172.576 83.0229,-166.736"/>
</g>
<!-- Node9 -->
<g id="node9" class="node"><title>Node9</title>
<g id="a_node9"><a xlink:href="classboundary__conditions.html#afe9c319bf80aa129881d9561771af7f3" target="_top" xlink:title=" Compute the mean wind field and make them constant everywhere... ">
<polygon fill="white" stroke="black" points="286,-340 286,-370 392,-370 392,-340 286,-340"/>
<text text-anchor="start" x="294" y="-358" font-family="Helvetica,sans-Serif" font-size="10.00">boundary_conditions</text>
<text text-anchor="middle" x="339" y="-347" font-family="Helvetica,sans-Serif" font-size="10.00">::mean_winds</text>
</a>
</g>
</g>
<!-- Node1&#45;&gt;Node9 -->
<g id="edge13" class="edge"><title>Node1&#45;&gt;Node9</title>
<path fill="none" stroke="midnightblue" d="M76.393,-171.033C93.2738,-185.946 116.487,-205.804 138,-222 198.963,-267.897 274.968,-316.139 313.358,-339.92"/>
<polygon fill="midnightblue" stroke="midnightblue" points="78.4484,-168.177 68.65,-164.147 73.7965,-173.408 78.4484,-168.177"/>
</g>
<!-- Node10 -->
<g id="node10" class="node"><title>Node10</title>
<g id="a_node10"><a xlink:href="classboundary__conditions.html#ad2ea45f7b77ad1c1d998b3ad7d236d89" target="_top" xlink:title=" Load restart file ">
<polygon fill="white" stroke="black" points="139,-359 139,-389 245,-389 245,-359 139,-359"/>
<text text-anchor="start" x="147" y="-377" font-family="Helvetica,sans-Serif" font-size="10.00">boundary_conditions</text>
<text text-anchor="middle" x="192" y="-366" font-family="Helvetica,sans-Serif" font-size="10.00">::load_restart_file</text>
</a>
</g>
</g>
<!-- Node1&#45;&gt;Node10 -->
<g id="edge16" class="edge"><title>Node1&#45;&gt;Node10</title>
<path fill="none" stroke="midnightblue" d="M65.6357,-173.13C82.2486,-202.294 111.397,-252.72 138,-295 152.161,-317.506 169.473,-342.95 180.371,-358.735"/>
<polygon fill="midnightblue" stroke="midnightblue" points="68.487,-171.063 60.5042,-164.097 62.4006,-174.52 68.487,-171.063"/>
</g>
<!-- Node11 -->
<g id="node11" class="node"><title>Node11</title>
<g id="a_node11"><a xlink:href="classinit.html#a78428952f4f16f84b944bbea4900ef3d" target="_top" xlink:title="init::init_domain_land">
<polygon fill="white" stroke="black" points="138,-38.5 138,-57.5 246,-57.5 246,-38.5 138,-38.5"/>
<text text-anchor="middle" x="192" y="-45.5" font-family="Helvetica,sans-Serif" font-size="10.00">init::init_domain_land</text>
</a>
</g>
</g>
<!-- Node1&#45;&gt;Node11 -->
<g id="edge19" class="edge"><title>Node1&#45;&gt;Node11</title>
<path fill="none" stroke="midnightblue" d="M73.1139,-126.715C89.6517,-110.139 113.833,-87.755 138,-72 146.546,-66.4286 156.599,-61.5177 165.638,-57.6133"/>
<polygon fill="midnightblue" stroke="midnightblue" points="70.5898,-124.29 66.0808,-133.877 75.5845,-129.194 70.5898,-124.29"/>
</g>
<!-- Node12 -->
<g id="node12" class="node"><title>Node12</title>
<g id="a_node12"><a xlink:href="classinit.html#a2c0d47bd2656d1121f0522d0f77a0e07" target="_top" xlink:title="init::init_domain">
<polygon fill="white" stroke="black" points="296.5,-38.5 296.5,-57.5 381.5,-57.5 381.5,-38.5 296.5,-38.5"/>
<text text-anchor="middle" x="339" y="-45.5" font-family="Helvetica,sans-Serif" font-size="10.00">init::init_domain</text>
</a>
</g>
</g>
<!-- Node1&#45;&gt;Node12 -->
<g id="edge25" class="edge"><title>Node1&#45;&gt;Node12</title>
<path fill="none" stroke="midnightblue" d="M91.7786,-129.707C106.175,-123.06 122.663,-115.828 138,-110 194.579,-88.4981 262.162,-68.739 302.503,-57.5511"/>
<polygon fill="midnightblue" stroke="midnightblue" points="90.2323,-126.566 82.6537,-133.97 93.1952,-132.908 90.2323,-126.566"/>
</g>
<!-- Node15 -->
<g id="node15" class="node"><title>Node15</title>
<g id="a_node15"><a xlink:href="classinit.html#a7c8bdf3006c76dd9d3464a56db072726" target="_top" xlink:title="init::init_bc_data">
<polygon fill="white" stroke="black" points="148,-0.5 148,-19.5 236,-19.5 236,-0.5 148,-0.5"/>
<text text-anchor="middle" x="192" y="-7.5" font-family="Helvetica,sans-Serif" font-size="10.00">init::init_bc_data</text>
</a>
</g>
</g>
<!-- Node1&#45;&gt;Node15 -->
<g id="edge26" class="edge"><title>Node1&#45;&gt;Node15</title>
<path fill="none" stroke="midnightblue" d="M63.6832,-124.704C77.7904,-97.7627 103.929,-54.7181 138,-29 143.071,-25.1721 148.984,-22.0632 154.984,-19.5549"/>
<polygon fill="midnightblue" stroke="midnightblue" points="60.4507,-123.34 59.0378,-133.84 66.6903,-126.513 60.4507,-123.34"/>
</g>
<!-- Node3 -->
<g id="node3" class="node"><title>Node3</title>
<g id="a_node3"><a xlink:href="classboundary__conditions.html#afd8110e2b16915ce0cb12ce4958fe09c" target="_top" xlink:title=" Initialize the external winds information (filenames, nfiles, etc) and read the initial conditions ...">
<polygon fill="white" stroke="black" points="286,-252 286,-282 392,-282 392,-252 286,-252"/>
<text text-anchor="start" x="294" y="-270" font-family="Helvetica,sans-Serif" font-size="10.00">boundary_conditions</text>
<text text-anchor="middle" x="339" y="-259" font-family="Helvetica,sans-Serif" font-size="10.00">::ext_winds_init</text>
</a>
</g>
</g>
<!-- Node2&#45;&gt;Node3 -->
<g id="edge2" class="edge"><title>Node2&#45;&gt;Node3</title>
<path fill="none" stroke="midnightblue" d="M218.104,-195.711C235.345,-209.971 259.158,-228.427 282,-242 287.949,-245.535 294.488,-248.887 300.933,-251.92"/>
<polygon fill="midnightblue" stroke="midnightblue" points="220.114,-192.829 210.202,-189.087 215.618,-198.193 220.114,-192.829"/>
</g>
<!-- Node4 -->
<g id="node4" class="node"><title>Node4</title>
<g id="a_node4"><a xlink:href="classboundary__conditions.html#a07a42f467f470ada98e0a35fd5a75f66" target="_top" xlink:title=" Initialize the boundary conditions (read inital conditions, etc.) ">
<polygon fill="white" stroke="black" points="432,-274 432,-304 538,-304 538,-274 432,-274"/>
<text text-anchor="start" x="440" y="-292" font-family="Helvetica,sans-Serif" font-size="10.00">boundary_conditions</text>
<text text-anchor="middle" x="485" y="-281" font-family="Helvetica,sans-Serif" font-size="10.00">::bc_init</text>
</a>
</g>
</g>
<!-- Node2&#45;&gt;Node4 -->
<g id="edge5" class="edge"><title>Node2&#45;&gt;Node4</title>
<path fill="none" stroke="midnightblue" d="M203.232,-198.235C216.648,-226.479 243.137,-271.734 282,-291 328.661,-314.133 389.159,-309.755 431.74,-301.999"/>
<polygon fill="midnightblue" stroke="midnightblue" points="206.367,-196.673 199.034,-189.025 199.997,-199.576 206.367,-196.673"/>
</g>
<!-- Node6 -->
<g id="node6" class="node"><title>Node6</title>
<g id="a_node6"><a xlink:href="classboundary__conditions.html#a40ba01db58736c2bb018af7ebe72f55f" target="_top" xlink:title=" Update the external wind field ">
<polygon fill="white" stroke="black" points="286,-115 286,-145 392,-145 392,-115 286,-115"/>
<text text-anchor="start" x="294" y="-133" font-family="Helvetica,sans-Serif" font-size="10.00">boundary_conditions</text>
<text text-anchor="middle" x="339" y="-122" font-family="Helvetica,sans-Serif" font-size="10.00">::update_ext_winds</text>
</a>
</g>
</g>
<!-- Node2&#45;&gt;Node6 -->
<g id="edge6" class="edge"><title>Node2&#45;&gt;Node6</title>
<path fill="none" stroke="midnightblue" d="M252.361,-155.987C264.278,-152.371 276.685,-148.606 288.236,-145.101"/>
<polygon fill="midnightblue" stroke="midnightblue" points="251.048,-152.728 242.495,-158.981 253.081,-159.426 251.048,-152.728"/>
</g>
<!-- Node2&#45;&gt;Node7 -->
<g id="edge9" class="edge"><title>Node2&#45;&gt;Node7</title>
<path fill="none" stroke="midnightblue" d="M255.246,-174C307.879,-174 382.419,-174 431.936,-174"/>
<polygon fill="midnightblue" stroke="midnightblue" points="255.025,-170.5 245.025,-174 255.025,-177.5 255.025,-170.5"/>
</g>
<!-- Node3&#45;&gt;Node4 -->
<g id="edge3" class="edge"><title>Node3&#45;&gt;Node4</title>
<path fill="none" stroke="midnightblue" d="M402.495,-276.548C412.301,-278.046 422.346,-279.581 431.885,-281.038"/>
<polygon fill="midnightblue" stroke="midnightblue" points="402.809,-273.055 392.395,-275.005 401.751,-279.975 402.809,-273.055"/>
</g>
<!-- Node5 -->
<g id="node5" class="node"><title>Node5</title>
<g id="a_node5"><a xlink:href="driver_8f90.html#ab1e5a5816a57fc6e95d9563c2bb53590" target="_top" xlink:title=" Main Program ">
<polygon fill="white" stroke="black" points="690,-164.5 690,-183.5 722,-183.5 722,-164.5 690,-164.5"/>
<text text-anchor="middle" x="706" y="-171.5" font-family="Helvetica,sans-Serif" font-size="10.00">icar</text>
</a>
</g>
</g>
<!-- Node4&#45;&gt;Node5 -->
<g id="edge4" class="edge"><title>Node4&#45;&gt;Node5</title>
<path fill="none" stroke="midnightblue" d="M523.654,-269.227C572.653,-243.497 656.013,-199.724 689.953,-181.902"/>
<polygon fill="midnightblue" stroke="midnightblue" points="521.857,-266.218 514.63,-273.966 525.111,-272.415 521.857,-266.218"/>
</g>
<!-- Node6&#45;&gt;Node7 -->
<g id="edge7" class="edge"><title>Node6&#45;&gt;Node7</title>
<path fill="none" stroke="midnightblue" d="M398.951,-148.013C410.786,-151.629 423.108,-155.394 434.579,-158.899"/>
<polygon fill="midnightblue" stroke="midnightblue" points="399.74,-144.594 389.154,-145.019 397.695,-151.289 399.74,-144.594"/>
</g>
<!-- Node7&#45;&gt;Node5 -->
<g id="edge8" class="edge"><title>Node7&#45;&gt;Node5</title>
<path fill="none" stroke="midnightblue" d="M548.328,-174C597.081,-174 661.256,-174 689.977,-174"/>
<polygon fill="midnightblue" stroke="midnightblue" points="548.178,-170.5 538.178,-174 548.178,-177.5 548.178,-170.5"/>
</g>
<!-- Node8&#45;&gt;Node4 -->
<g id="edge11" class="edge"><title>Node8&#45;&gt;Node4</title>
<path fill="none" stroke="midnightblue" d="M385.666,-237.185C389.179,-238.778 392.657,-240.394 396,-242 416.922,-252.047 440.052,-264.454 457.346,-273.997"/>
<polygon fill="midnightblue" stroke="midnightblue" points="386.913,-233.909 376.353,-233.043 384.068,-240.305 386.913,-233.909"/>
</g>
<!-- Node8&#45;&gt;Node7 -->
<g id="edge12" class="edge"><title>Node8&#45;&gt;Node7</title>
<path fill="none" stroke="midnightblue" d="M398.951,-199.987C410.786,-196.371 423.108,-192.606 434.579,-189.101"/>
<polygon fill="midnightblue" stroke="midnightblue" points="397.695,-196.711 389.154,-202.981 399.74,-203.406 397.695,-196.711"/>
</g>
<!-- Node9&#45;&gt;Node4 -->
<g id="edge14" class="edge"><title>Node9&#45;&gt;Node4</title>
<path fill="none" stroke="midnightblue" d="M382.155,-335.679C404.15,-325.598 430.659,-313.448 451.117,-304.071"/>
<polygon fill="midnightblue" stroke="midnightblue" points="380.669,-332.51 373.037,-339.858 383.585,-338.873 380.669,-332.51"/>
</g>
<!-- Node9&#45;&gt;Node7 -->
<g id="edge15" class="edge"><title>Node9&#45;&gt;Node7</title>
<path fill="none" stroke="midnightblue" d="M360.885,-331.968C371.601,-319.942 384.735,-304.877 396,-291 424.993,-255.282 456.979,-211.584 473.232,-189.045"/>
<polygon fill="midnightblue" stroke="midnightblue" points="357.973,-329.973 353.905,-339.756 363.186,-334.645 357.973,-329.973"/>
</g>
<!-- Node10&#45;&gt;Node4 -->
<g id="edge17" class="edge"><title>Node10&#45;&gt;Node4</title>
<path fill="none" stroke="midnightblue" d="M255.204,-388.42C296.695,-394.995 351.572,-397.696 396,-379 432.256,-363.743 461.033,-325.447 474.924,-304.053"/>
<polygon fill="midnightblue" stroke="midnightblue" points="255.672,-384.949 245.227,-386.724 254.499,-391.85 255.672,-384.949"/>
</g>
<!-- Node11&#45;&gt;Node12 -->
<g id="edge20" class="edge"><title>Node11&#45;&gt;Node12</title>
<path fill="none" stroke="midnightblue" d="M256.364,-48C269.845,-48 283.755,-48 296.188,-48"/>
<polygon fill="midnightblue" stroke="midnightblue" points="256.169,-44.5001 246.169,-48 256.169,-51.5001 256.169,-44.5001"/>
</g>
<!-- Node13 -->
<g id="node13" class="node"><title>Node13</title>
<g id="a_node13"><a xlink:href="classinit.html#a1dd1e2b38eef39cba464f65c9ce82568" target="_top" xlink:title="init::init_model">
<polygon fill="white" stroke="black" points="574,-57.5 574,-76.5 654,-76.5 654,-57.5 574,-57.5"/>
<text text-anchor="middle" x="614" y="-64.5" font-family="Helvetica,sans-Serif" font-size="10.00">init::init_model</text>
</a>
</g>
</g>
<!-- Node12&#45;&gt;Node13 -->
<g id="edge21" class="edge"><title>Node12&#45;&gt;Node13</title>
<path fill="none" stroke="midnightblue" d="M391.973,-51.6171C444.998,-55.3076 526.088,-60.9512 573.9,-64.2788"/>
<polygon fill="midnightblue" stroke="midnightblue" points="391.979,-48.1092 381.76,-50.9064 391.493,-55.0923 391.979,-48.1092"/>
</g>
<!-- Node14 -->
<g id="node14" class="node"><title>Node14</title>
<g id="a_node14"><a xlink:href="classinit.html#a1c6cab46bb16bea719da3b193c43ccb3" target="_top" xlink:title="init::init_bc">
<polygon fill="white" stroke="black" points="453,-19.5 453,-38.5 517,-38.5 517,-19.5 453,-19.5"/>
<text text-anchor="middle" x="485" y="-26.5" font-family="Helvetica,sans-Serif" font-size="10.00">init::init_bc</text>
</a>
</g>
</g>
<!-- Node12&#45;&gt;Node14 -->
<g id="edge23" class="edge"><title>Node12&#45;&gt;Node14</title>
<path fill="none" stroke="midnightblue" d="M391.794,-41.1661C412.277,-38.4634 435.135,-35.4475 452.967,-33.0946"/>
<polygon fill="midnightblue" stroke="midnightblue" points="391.107,-37.7263 381.651,-42.5044 392.023,-44.6661 391.107,-37.7263"/>
</g>
<!-- Node13&#45;&gt;Node5 -->
<g id="edge22" class="edge"><title>Node13&#45;&gt;Node5</title>
<path fill="none" stroke="midnightblue" d="M629.952,-84.7765C649.187,-107.644 681.909,-146.547 696.974,-164.457"/>
<polygon fill="midnightblue" stroke="midnightblue" points="632.421,-82.2744 623.306,-76.8745 627.064,-86.7803 632.421,-82.2744"/>
</g>
<!-- Node14&#45;&gt;Node13 -->
<g id="edge24" class="edge"><title>Node14&#45;&gt;Node13</title>
<path fill="none" stroke="midnightblue" d="M527.007,-41.2698C544.481,-46.4983 564.565,-52.5077 580.927,-57.4033"/>
<polygon fill="midnightblue" stroke="midnightblue" points="527.651,-37.8094 517.068,-38.2958 525.645,-44.5156 527.651,-37.8094"/>
</g>
<!-- Node15&#45;&gt;Node14 -->
<g id="edge27" class="edge"><title>Node15&#45;&gt;Node14</title>
<path fill="none" stroke="midnightblue" d="M246.36,-13.484C306.782,-17.4291 403.224,-23.7259 452.613,-26.9507"/>
<polygon fill="midnightblue" stroke="midnightblue" points="246.458,-9.98304 236.251,-12.824 246.002,-16.9682 246.458,-9.98304"/>
</g>
</g>
</svg>
