<?xml version="1.0" encoding="UTF-8" standalone="no"?>
<!DOCTYPE svg PUBLIC "-//W3C//DTD SVG 1.1//EN"
 "http://www.w3.org/Graphics/SVG/1.1/DTD/svg11.dtd">
<!-- Generated by graphviz version 2.38.0 (20140413.2041)
 -->
<!-- Title: io_routines::io_read::io_read2d Pages: 1 -->
<svg width="752pt" height="282pt"
 viewBox="0.00 0.00 752.00 281.50" xmlns="http://www.w3.org/2000/svg" xmlns:xlink="http://www.w3.org/1999/xlink">
<g id="graph0" class="graph" transform="scale(1 1) rotate(0) translate(4 277.5)">
<title>io_routines::io_read::io_read2d</title>
<polygon fill="white" stroke="none" points="-4,4 -4,-277.5 748,-277.5 748,4 -4,4"/>
<!-- Node1 -->
<g id="node1" class="node"><title>Node1</title>
<polygon fill="#bfbfbf" stroke="black" points="0,-109 0,-139 101,-139 101,-109 0,-109"/>
<text text-anchor="start" x="8" y="-127" font-family="Helvetica,sans-Serif" font-size="10.00">io_routines::io_read</text>
<text text-anchor="middle" x="50.5" y="-116" font-family="Helvetica,sans-Serif" font-size="10.00">::io_read2d</text>
</g>
<!-- Node2 -->
<g id="node2" class="node"><title>Node2</title>
<g id="a_node2"><a xlink:href="classboundary__conditions.html#a092406b0b0b0676f3fcd8e514b1a2663" target="_top" xlink:title=" Same as read_var but for 2&#45;dimensional data ">
<polygon fill="white" stroke="black" points="424,-115 424,-145 530,-145 530,-115 424,-115"/>
<text text-anchor="start" x="432" y="-133" font-family="Helvetica,sans-Serif" font-size="10.00">boundary_conditions</text>
<text text-anchor="middle" x="477" y="-122" font-family="Helvetica,sans-Serif" font-size="10.00">::read_2dvar</text>
</a>
</g>
</g>
<!-- Node1&#45;&gt;Node2 -->
<g id="edge1" class="edge"><title>Node1&#45;&gt;Node2</title>
<path fill="none" stroke="midnightblue" d="M111.322,-139.028C119.89,-140.672 128.635,-142.082 137,-143 238.138,-154.102 357.147,-144.301 423.853,-136.752"/>
<polygon fill="midnightblue" stroke="midnightblue" points="111.874,-135.568 101.377,-137.003 110.478,-142.428 111.874,-135.568"/>
</g>
<!-- Node6 -->
<g id="node6" class="node"><title>Node6</title>
<g id="a_node6"><a xlink:href="classboundary__conditions.html#ad2ea45f7b77ad1c1d998b3ad7d236d89" target="_top" xlink:title=" Load restart file ">
<polygon fill="white" stroke="black" points="138,-243 138,-273 244,-273 244,-243 138,-243"/>
<text text-anchor="start" x="146" y="-261" font-family="Helvetica,sans-Serif" font-size="10.00">boundary_conditions</text>
<text text-anchor="middle" x="191" y="-250" font-family="Helvetica,sans-Serif" font-size="10.00">::load_restart_file</text>
</a>
</g>
</g>
<!-- Node1&#45;&gt;Node6 -->
<g id="edge6" class="edge"><title>Node1&#45;&gt;Node6</title>
<path fill="none" stroke="midnightblue" d="M66.5532,-147.869C82.0595,-171.038 108.001,-206.113 137,-230 142.864,-234.83 149.693,-239.182 156.46,-242.936"/>
<polygon fill="midnightblue" stroke="midnightblue" points="69.3596,-145.766 60.9471,-139.326 63.5071,-149.607 69.3596,-145.766"/>
</g>
<!-- Node7 -->
<g id="node7" class="node"><title>Node7</title>
<g id="a_node7"><a xlink:href="classinit.html#a78428952f4f16f84b944bbea4900ef3d" target="_top" xlink:title="init::init_domain_land">
<polygon fill="white" stroke="black" points="137,-114.5 137,-133.5 245,-133.5 245,-114.5 137,-114.5"/>
<text text-anchor="middle" x="191" y="-121.5" font-family="Helvetica,sans-Serif" font-size="10.00">init::init_domain_land</text>
</a>
</g>
</g>
<!-- Node1&#45;&gt;Node7 -->
<g id="edge8" class="edge"><title>Node1&#45;&gt;Node7</title>
<path fill="none" stroke="midnightblue" d="M111.374,-124C119.896,-124 128.61,-124 136.989,-124"/>
<polygon fill="midnightblue" stroke="midnightblue" points="111.111,-120.5 101.11,-124 111.11,-127.5 111.111,-120.5"/>
</g>
<!-- Node8 -->
<g id="node8" class="node"><title>Node8</title>
<g id="a_node8"><a xlink:href="classinit.html#a2c0d47bd2656d1121f0522d0f77a0e07" target="_top" xlink:title="init::init_domain">
<polygon fill="white" stroke="black" points="290,-76.5 290,-95.5 375,-95.5 375,-76.5 290,-76.5"/>
<text text-anchor="middle" x="332.5" y="-83.5" font-family="Helvetica,sans-Serif" font-size="10.00">init::init_domain</text>
</a>
</g>
</g>
<!-- Node1&#45;&gt;Node8 -->
<g id="edge14" class="edge"><title>Node1&#45;&gt;Node8</title>
<path fill="none" stroke="midnightblue" d="M111.089,-109.789C119.75,-108.007 128.581,-106.342 137,-105 189.436,-96.6442 250.45,-91.404 289.957,-88.5928"/>
<polygon fill="midnightblue" stroke="midnightblue" points="110.092,-106.423 101.037,-111.924 111.546,-113.27 110.092,-106.423"/>
</g>
<!-- Node11 -->
<g id="node11" class="node"><title>Node11</title>
<g id="a_node11"><a xlink:href="classinit.html#a7c8bdf3006c76dd9d3464a56db072726" target="_top" xlink:title="init::init_bc_data">
<polygon fill="white" stroke="black" points="288.5,-38.5 288.5,-57.5 376.5,-57.5 376.5,-38.5 288.5,-38.5"/>
<text text-anchor="middle" x="332.5" y="-45.5" font-family="Helvetica,sans-Serif" font-size="10.00">init::init_bc_data</text>
</a>
</g>
</g>
<!-- Node1&#45;&gt;Node11 -->
<g id="edge15" class="edge"><title>Node1&#45;&gt;Node11</title>
<path fill="none" stroke="midnightblue" d="M93.8554,-104.893C107.447,-99.242 122.689,-93.398 137,-89 188.13,-73.2873 248.647,-61.5714 288.44,-54.7726"/>
<polygon fill="midnightblue" stroke="midnightblue" points="92.1275,-101.824 84.2873,-108.95 94.8602,-108.268 92.1275,-101.824"/>
</g>
<!-- Node12 -->
<g id="node12" class="node"><title>Node12</title>
<g id="a_node12"><a xlink:href="classinit.html#a8b5935b5b45a47c58fdd67157c16764b" target="_top" xlink:title="init::init_ext_winds">
<polygon fill="white" stroke="black" points="283.5,-0.5 283.5,-19.5 381.5,-19.5 381.5,-0.5 283.5,-0.5"/>
<text text-anchor="middle" x="332.5" y="-7.5" font-family="Helvetica,sans-Serif" font-size="10.00">init::init_ext_winds</text>
</a>
</g>
</g>
<!-- Node1&#45;&gt;Node12 -->
<g id="edge17" class="edge"><title>Node1&#45;&gt;Node12</title>
<path fill="none" stroke="midnightblue" d="M75.4755,-101.998C91.7536,-88.1298 114.363,-70.8541 137,-60 184.157,-37.3892 242.829,-24.1093 283.33,-16.9884"/>
<polygon fill="midnightblue" stroke="midnightblue" points="72.8109,-99.6777 67.5736,-108.888 77.4111,-104.954 72.8109,-99.6777"/>
</g>
<!-- Node13 -->
<g id="node13" class="node"><title>Node13</title>
<g id="a_node13"><a xlink:href="classlinear__theory__winds.html#a5aed1fad471120ba77c203fa6158a5ba" target="_top" xlink:title="linear_theory_winds\l::setup_linwinds">
<polygon fill="white" stroke="black" points="139.5,-191 139.5,-221 242.5,-221 242.5,-191 139.5,-191"/>
<text text-anchor="start" x="147.5" y="-209" font-family="Helvetica,sans-Serif" font-size="10.00">linear_theory_winds</text>
<text text-anchor="middle" x="191" y="-198" font-family="Helvetica,sans-Serif" font-size="10.00">::setup_linwinds</text>
</a>
</g>
</g>
<!-- Node1&#45;&gt;Node13 -->
<g id="edge19" class="edge"><title>Node1&#45;&gt;Node13</title>
<path fill="none" stroke="midnightblue" d="M84.9116,-144.653C100.647,-154.294 119.715,-165.855 137,-176 145.389,-180.924 154.594,-186.183 162.944,-190.901"/>
<polygon fill="midnightblue" stroke="midnightblue" points="86.424,-141.475 76.071,-139.224 82.7608,-147.44 86.424,-141.475"/>
</g>
<!-- Node3 -->
<g id="node3" class="node"><title>Node3</title>
<g id="a_node3"><a xlink:href="classboundary__conditions.html#a07a42f467f470ada98e0a35fd5a75f66" target="_top" xlink:title=" Initialize the boundary conditions (read inital conditions, etc.) ">
<polygon fill="white" stroke="black" points="570,-186 570,-216 676,-216 676,-186 570,-186"/>
<text text-anchor="start" x="578" y="-204" font-family="Helvetica,sans-Serif" font-size="10.00">boundary_conditions</text>
<text text-anchor="middle" x="623" y="-193" font-family="Helvetica,sans-Serif" font-size="10.00">::bc_init</text>
</a>
</g>
</g>
<!-- Node2&#45;&gt;Node3 -->
<g id="edge2" class="edge"><title>Node2&#45;&gt;Node3</title>
<path fill="none" stroke="midnightblue" d="M524.388,-149.26C527.666,-150.811 530.899,-152.398 534,-154 550.66,-162.604 553.529,-167.037 570,-176 576.159,-179.351 582.838,-182.739 589.292,-185.893"/>
<polygon fill="midnightblue" stroke="midnightblue" points="525.649,-145.988 515.1,-145.008 522.736,-152.353 525.649,-145.988"/>
</g>
<!-- Node5 -->
<g id="node5" class="node"><title>Node5</title>
<g id="a_node5"><a xlink:href="classboundary__conditions.html#a1e8385c37634f3d7f70ea7c749dcda11" target="_top" xlink:title=" Read in the next timestep of input data and apply to the dXdt grids as appropriate. ">
<polygon fill="white" stroke="black" points="570,-137 570,-167 676,-167 676,-137 570,-137"/>
<text text-anchor="start" x="578" y="-155" font-family="Helvetica,sans-Serif" font-size="10.00">boundary_conditions</text>
<text text-anchor="middle" x="623" y="-144" font-family="Helvetica,sans-Serif" font-size="10.00">::bc_update</text>
</a>
</g>
</g>
<!-- Node2&#45;&gt;Node5 -->
<g id="edge4" class="edge"><title>Node2&#45;&gt;Node5</title>
<path fill="none" stroke="midnightblue" d="M540.495,-139.548C550.301,-141.046 560.346,-142.581 569.885,-144.038"/>
<polygon fill="midnightblue" stroke="midnightblue" points="540.809,-136.055 530.395,-138.005 539.751,-142.975 540.809,-136.055"/>
</g>
<!-- Node4 -->
<g id="node4" class="node"><title>Node4</title>
<g id="a_node4"><a xlink:href="driver_8f90.html#ab1e5a5816a57fc6e95d9563c2bb53590" target="_top" xlink:title=" Main Program ">
<polygon fill="white" stroke="black" points="712,-142.5 712,-161.5 744,-161.5 744,-142.5 712,-142.5"/>
<text text-anchor="middle" x="728" y="-149.5" font-family="Helvetica,sans-Serif" font-size="10.00">icar</text>
</a>
</g>
</g>
<!-- Node3&#45;&gt;Node4 -->
<g id="edge3" class="edge"><title>Node3&#45;&gt;Node4</title>
<path fill="none" stroke="midnightblue" d="M665.213,-181.394C681.675,-173.562 699.598,-165.036 711.88,-159.193"/>
<polygon fill="midnightblue" stroke="midnightblue" points="663.27,-178.442 655.744,-185.899 666.278,-184.763 663.27,-178.442"/>
</g>
<!-- Node5&#45;&gt;Node4 -->
<g id="edge5" class="edge"><title>Node5&#45;&gt;Node4</title>
<path fill="none" stroke="midnightblue" d="M686.369,-152C695.706,-152 704.543,-152 711.576,-152"/>
<polygon fill="midnightblue" stroke="midnightblue" points="686.104,-148.5 676.104,-152 686.103,-155.5 686.104,-148.5"/>
</g>
<!-- Node6&#45;&gt;Node3 -->
<g id="edge7" class="edge"><title>Node6&#45;&gt;Node3</title>
<path fill="none" stroke="midnightblue" d="M254.485,-262.244C323.852,-265.314 438.614,-265.482 534,-242 556.094,-236.561 579.358,-225.457 596.413,-216.175"/>
<polygon fill="midnightblue" stroke="midnightblue" points="254.325,-258.733 244.17,-261.752 253.991,-265.725 254.325,-258.733"/>
</g>
<!-- Node7&#45;&gt;Node8 -->
<g id="edge9" class="edge"><title>Node7&#45;&gt;Node8</title>
<path fill="none" stroke="midnightblue" d="M236.956,-111.754C256.185,-106.516 278.303,-100.491 296.31,-95.5859"/>
<polygon fill="midnightblue" stroke="midnightblue" points="235.93,-108.406 227.202,-114.411 237.77,-115.16 235.93,-108.406"/>
</g>
<!-- Node9 -->
<g id="node9" class="node"><title>Node9</title>
<g id="a_node9"><a xlink:href="classinit.html#a1dd1e2b38eef39cba464f65c9ce82568" target="_top" xlink:title="init::init_model">
<polygon fill="white" stroke="black" points="583,-76.5 583,-95.5 663,-95.5 663,-76.5 583,-76.5"/>
<text text-anchor="middle" x="623" y="-83.5" font-family="Helvetica,sans-Serif" font-size="10.00">init::init_model</text>
</a>
</g>
</g>
<!-- Node8&#45;&gt;Node9 -->
<g id="edge10" class="edge"><title>Node8&#45;&gt;Node9</title>
<path fill="none" stroke="midnightblue" d="M385.324,-86C441.988,-86 531.524,-86 582.686,-86"/>
<polygon fill="midnightblue" stroke="midnightblue" points="385.142,-82.5001 375.142,-86 385.142,-89.5001 385.142,-82.5001"/>
</g>
<!-- Node10 -->
<g id="node10" class="node"><title>Node10</title>
<g id="a_node10"><a xlink:href="classinit.html#a1c6cab46bb16bea719da3b193c43ccb3" target="_top" xlink:title="init::init_bc">
<polygon fill="white" stroke="black" points="445,-38.5 445,-57.5 509,-57.5 509,-38.5 445,-38.5"/>
<text text-anchor="middle" x="477" y="-45.5" font-family="Helvetica,sans-Serif" font-size="10.00">init::init_bc</text>
</a>
</g>
</g>
<!-- Node8&#45;&gt;Node10 -->
<g id="edge12" class="edge"><title>Node8&#45;&gt;Node10</title>
<path fill="none" stroke="midnightblue" d="M379.335,-73.7775C400.757,-68.0648 425.707,-61.4114 444.893,-56.2952"/>
<polygon fill="midnightblue" stroke="midnightblue" points="378.219,-70.4525 369.459,-76.411 380.023,-77.2161 378.219,-70.4525"/>
</g>
<!-- Node9&#45;&gt;Node4 -->
<g id="edge11" class="edge"><title>Node9&#45;&gt;Node4</title>
<path fill="none" stroke="midnightblue" d="M647.689,-101.179C667.518,-113.886 695.206,-131.627 712.075,-142.436"/>
<polygon fill="midnightblue" stroke="midnightblue" points="649.506,-98.1868 639.198,-95.7385 645.729,-104.081 649.506,-98.1868"/>
</g>
<!-- Node10&#45;&gt;Node9 -->
<g id="edge13" class="edge"><title>Node10&#45;&gt;Node9</title>
<path fill="none" stroke="midnightblue" d="M518.917,-58.7976C540.053,-64.3752 565.612,-71.1199 585.992,-76.4979"/>
<polygon fill="midnightblue" stroke="midnightblue" points="519.808,-55.4129 509.246,-56.2454 518.022,-62.1812 519.808,-55.4129"/>
</g>
<!-- Node11&#45;&gt;Node10 -->
<g id="edge16" class="edge"><title>Node11&#45;&gt;Node10</title>
<path fill="none" stroke="midnightblue" d="M386.664,-48C406.235,-48 427.755,-48 444.769,-48"/>
<polygon fill="midnightblue" stroke="midnightblue" points="386.641,-44.5001 376.641,-48 386.641,-51.5001 386.641,-44.5001"/>
</g>
<!-- Node12&#45;&gt;Node10 -->
<g id="edge18" class="edge"><title>Node12&#45;&gt;Node10</title>
<path fill="none" stroke="midnightblue" d="M379.335,-22.2225C400.757,-27.9352 425.707,-34.5886 444.893,-39.7048"/>
<polygon fill="midnightblue" stroke="midnightblue" points="380.023,-18.7839 369.459,-19.589 378.219,-25.5475 380.023,-18.7839"/>
</g>
<!-- Node14 -->
<g id="node14" class="node"><title>Node14</title>
<g id="a_node14"><a xlink:href="classlinear__theory__winds.html#a248a832d459ec9cd399c372d2ae9cb0a" target="_top" xlink:title="linear_theory_winds\l::linear_perturb">
<polygon fill="white" stroke="black" points="281,-191 281,-221 384,-221 384,-191 281,-191"/>
<text text-anchor="start" x="289" y="-209" font-family="Helvetica,sans-Serif" font-size="10.00">linear_theory_winds</text>
<text text-anchor="middle" x="332.5" y="-198" font-family="Helvetica,sans-Serif" font-size="10.00">::linear_perturb</text>
</a>
</g>
</g>
<!-- Node13&#45;&gt;Node14 -->
<g id="edge20" class="edge"><title>Node13&#45;&gt;Node14</title>
<path fill="none" stroke="midnightblue" d="M253.011,-206C262.201,-206 271.597,-206 280.547,-206"/>
<polygon fill="midnightblue" stroke="midnightblue" points="252.757,-202.5 242.757,-206 252.757,-209.5 252.757,-202.5"/>
</g>
<!-- Node15 -->
<g id="node15" class="node"><title>Node15</title>
<g id="a_node15"><a xlink:href="classboundary__conditions.html#ac4cfb5127bfecdc6e088ef949694ea4a" target="_top" xlink:title=" Remove linear theory topographic winds perturbations from the low resolution wind field...">
<polygon fill="white" stroke="black" points="420,-164 420,-194 534,-194 534,-164 420,-164"/>
<text text-anchor="start" x="428" y="-182" font-family="Helvetica,sans-Serif" font-size="10.00">boundary_conditions</text>
<text text-anchor="middle" x="477" y="-171" font-family="Helvetica,sans-Serif" font-size="10.00">::remove_linear_winds</text>
</a>
</g>
</g>
<!-- Node14&#45;&gt;Node15 -->
<g id="edge21" class="edge"><title>Node14&#45;&gt;Node15</title>
<path fill="none" stroke="midnightblue" d="M394.018,-194.534C402.538,-192.919 411.269,-191.265 419.706,-189.666"/>
<polygon fill="midnightblue" stroke="midnightblue" points="393.315,-191.104 384.141,-196.405 394.618,-197.982 393.315,-191.104"/>
</g>
<!-- Node16 -->
<g id="node16" class="node"><title>Node16</title>
<g id="a_node16"><a xlink:href="classwind.html#a582192f02996b37543b966df84af1e78" target="_top" xlink:title="wind::update_winds">
<polygon fill="white" stroke="black" points="425.5,-213.5 425.5,-232.5 528.5,-232.5 528.5,-213.5 425.5,-213.5"/>
<text text-anchor="middle" x="477" y="-220.5" font-family="Helvetica,sans-Serif" font-size="10.00">wind::update_winds</text>
</a>
</g>
</g>
<!-- Node14&#45;&gt;Node16 -->
<g id="edge24" class="edge"><title>Node14&#45;&gt;Node16</title>
<path fill="none" stroke="midnightblue" d="M394.265,-213.249C404.519,-214.472 415.07,-215.731 425.042,-216.921"/>
<polygon fill="midnightblue" stroke="midnightblue" points="394.486,-209.751 384.141,-212.041 393.656,-216.701 394.486,-209.751"/>
</g>
<!-- Node15&#45;&gt;Node3 -->
<g id="edge22" class="edge"><title>Node15&#45;&gt;Node3</title>
<path fill="none" stroke="midnightblue" d="M544.058,-189.092C552.622,-190.401 561.299,-191.726 569.599,-192.994"/>
<polygon fill="midnightblue" stroke="midnightblue" points="544.5,-185.619 534.086,-187.569 543.443,-192.539 544.5,-185.619"/>
</g>
<!-- Node15&#45;&gt;Node5 -->
<g id="edge23" class="edge"><title>Node15&#45;&gt;Node5</title>
<path fill="none" stroke="midnightblue" d="M544.058,-166.614C552.622,-165.008 561.299,-163.382 569.599,-161.825"/>
<polygon fill="midnightblue" stroke="midnightblue" points="543.27,-163.201 534.086,-168.484 544.56,-170.081 543.27,-163.201"/>
</g>
<!-- Node16&#45;&gt;Node3 -->
<g id="edge25" class="edge"><title>Node16&#45;&gt;Node3</title>
<path fill="none" stroke="midnightblue" d="M538.895,-213.697C549.156,-212.129 559.725,-210.514 569.742,-208.984"/>
<polygon fill="midnightblue" stroke="midnightblue" points="538.126,-210.273 528.769,-215.244 539.183,-217.193 538.126,-210.273"/>
</g>
<!-- Node16&#45;&gt;Node5 -->
<g id="edge26" class="edge"><title>Node16&#45;&gt;Node5</title>
<path fill="none" stroke="midnightblue" d="M519.603,-209.735C524.553,-207.694 529.456,-205.443 534,-203 551.616,-193.53 552.825,-186.248 570,-176 575.294,-172.841 581.074,-169.805 586.793,-167.017"/>
<polygon fill="midnightblue" stroke="midnightblue" points="518.18,-206.532 510.11,-213.397 520.7,-213.063 518.18,-206.532"/>
</g>
</g>
</svg>
