<?xml version="1.0" encoding="UTF-8" standalone="no"?>
<!DOCTYPE svg PUBLIC "-//W3C//DTD SVG 1.1//EN"
 "http://www.w3.org/Graphics/SVG/1.1/DTD/svg11.dtd">
<!-- Generated by graphviz version 2.38.0 (20140413.2041)
 -->
<!-- Title: data_structures::interpolable_type Pages: 1 -->
<svg width="382pt" height="140pt"
 viewBox="0.00 0.00 381.50 140.00" xmlns="http://www.w3.org/2000/svg" xmlns:xlink="http://www.w3.org/1999/xlink">
<g id="graph0" class="graph" transform="scale(1 1) rotate(0) translate(4 136)">
<title>data_structures::interpolable_type</title>
<polygon fill="white" stroke="none" points="-4,4 -4,-136 377.5,-136 377.5,4 -4,4"/>
<!-- Node1 -->
<g id="node1" class="node"><title>Node1</title>
<polygon fill="#bfbfbf" stroke="black" points="140.5,-112.5 140.5,-131.5 304.5,-131.5 304.5,-112.5 140.5,-112.5"/>
<text text-anchor="middle" x="222.5" y="-119.5" font-family="Helvetica,sans-Serif" font-size="10.00">data_structures::interpolable_type</text>
</g>
<!-- Node2 -->
<g id="node2" class="node"><title>Node2</title>
<g id="a_node2"><a xlink:href="structdata__structures_1_1linearizable__type.html" target="_top" xlink:title="data_structures::linearizable_type">
<polygon fill="white" stroke="black" points="58,-56.5 58,-75.5 221,-75.5 221,-56.5 58,-56.5"/>
<text text-anchor="middle" x="139.5" y="-63.5" font-family="Helvetica,sans-Serif" font-size="10.00">data_structures::linearizable_type</text>
</a>
</g>
</g>
<!-- Node1&#45;&gt;Node2 -->
<g id="edge1" class="edge"><title>Node1&#45;&gt;Node2</title>
<path fill="none" stroke="midnightblue" d="M200.401,-106.622C185.238,-96.7574 165.617,-83.9919 152.802,-75.6545"/>
<polygon fill="midnightblue" stroke="midnightblue" points="198.874,-109.804 209.165,-112.324 202.691,-103.937 198.874,-109.804"/>
</g>
<!-- Node5 -->
<g id="node5" class="node"><title>Node5</title>
<g id="a_node5"><a xlink:href="structdata__structures_1_1wind__type.html" target="_top" xlink:title="data_structures::wind_type">
<polygon fill="white" stroke="black" points="239.5,-56.5 239.5,-75.5 373.5,-75.5 373.5,-56.5 239.5,-56.5"/>
<text text-anchor="middle" x="306.5" y="-63.5" font-family="Helvetica,sans-Serif" font-size="10.00">data_structures::wind_type</text>
</a>
</g>
</g>
<!-- Node1&#45;&gt;Node5 -->
<g id="edge4" class="edge"><title>Node1&#45;&gt;Node5</title>
<path fill="none" stroke="midnightblue" d="M244.432,-106.901C259.835,-96.9986 279.946,-84.0705 293.037,-75.6545"/>
<polygon fill="midnightblue" stroke="midnightblue" points="242.515,-103.972 235.996,-112.324 246.301,-109.86 242.515,-103.972"/>
</g>
<!-- Node3 -->
<g id="node3" class="node"><title>Node3</title>
<g id="a_node3"><a xlink:href="structdata__structures_1_1bc__type.html" target="_top" xlink:title="data_structures::bc_type">
<polygon fill="white" stroke="black" points="0,-0.5 0,-19.5 125,-19.5 125,-0.5 0,-0.5"/>
<text text-anchor="middle" x="62.5" y="-7.5" font-family="Helvetica,sans-Serif" font-size="10.00">data_structures::bc_type</text>
</a>
</g>
</g>
<!-- Node2&#45;&gt;Node3 -->
<g id="edge2" class="edge"><title>Node2&#45;&gt;Node3</title>
<path fill="none" stroke="midnightblue" d="M118.599,-50.3422C104.589,-40.5169 86.617,-27.9132 74.8407,-19.6545"/>
<polygon fill="midnightblue" stroke="midnightblue" points="116.932,-53.4477 127.129,-56.324 120.951,-47.7166 116.932,-53.4477"/>
</g>
<!-- Node4 -->
<g id="node4" class="node"><title>Node4</title>
<g id="a_node4"><a xlink:href="structdata__structures_1_1domain__type.html" target="_top" xlink:title="data_structures::domain_type">
<polygon fill="white" stroke="black" points="143.5,-0.5 143.5,-19.5 289.5,-19.5 289.5,-0.5 143.5,-0.5"/>
<text text-anchor="middle" x="216.5" y="-7.5" font-family="Helvetica,sans-Serif" font-size="10.00">data_structures::domain_type</text>
</a>
</g>
</g>
<!-- Node2&#45;&gt;Node4 -->
<g id="edge3" class="edge"><title>Node2&#45;&gt;Node4</title>
<path fill="none" stroke="midnightblue" d="M160.401,-50.3422C174.411,-40.5169 192.383,-27.9132 204.159,-19.6545"/>
<polygon fill="midnightblue" stroke="midnightblue" points="158.049,-47.7166 151.871,-56.324 162.068,-53.4477 158.049,-47.7166"/>
</g>
</g>
</svg>
