<?xml version="1.0" encoding="UTF-8" standalone="no"?>
<!DOCTYPE svg PUBLIC "-//W3C//DTD SVG 1.1//EN"
 "http://www.w3.org/Graphics/SVG/1.1/DTD/svg11.dtd">
<!-- Generated by graphviz version 2.38.0 (20140413.2041)
 -->
<!-- Title: data_structures::linearizable_type Pages: 1 -->
<svg width="239pt" height="184pt"
 viewBox="0.00 0.00 238.50 184.00" xmlns="http://www.w3.org/2000/svg" xmlns:xlink="http://www.w3.org/1999/xlink">
<g id="graph0" class="graph" transform="scale(1 1) rotate(0) translate(4 180)">
<title>data_structures::linearizable_type</title>
<polygon fill="white" stroke="none" points="-4,4 -4,-180 234.5,-180 234.5,4 -4,4"/>
<!-- Node1 -->
<g id="node1" class="node"><title>Node1</title>
<polygon fill="#bfbfbf" stroke="black" points="33.5,-0.5 33.5,-19.5 196.5,-19.5 196.5,-0.5 33.5,-0.5"/>
<text text-anchor="middle" x="115" y="-7.5" font-family="Helvetica,sans-Serif" font-size="10.00">data_structures::linearizable_type</text>
</g>
<!-- Node2 -->
<g id="node2" class="node"><title>Node2</title>
<g id="a_node2"><a xlink:href="structdata__structures_1_1interpolable__type.html" target="_top" xlink:title="data_structures::interpolable_type">
<polygon fill="white" stroke="black" points="33,-78.5 33,-97.5 197,-97.5 197,-78.5 33,-78.5"/>
<text text-anchor="middle" x="115" y="-85.5" font-family="Helvetica,sans-Serif" font-size="10.00">data_structures::interpolable_type</text>
</a>
</g>
</g>
<!-- Node2&#45;&gt;Node1 -->
<g id="edge1" class="edge"><title>Node2&#45;&gt;Node1</title>
<path fill="none" stroke="midnightblue" d="M113.44,-68.3825C113.257,-65.5753 113.1,-62.7126 113,-60 112.639,-50.2289 112.639,-47.7711 113,-38 113.229,-31.7998 113.754,-24.8151 114.208,-19.5033"/>
<polygon fill="midnightblue" stroke="midnightblue" points="109.961,-68.7906 114.208,-78.4967 116.941,-68.2602 109.961,-68.7906"/>
</g>
<!-- Node2&#45;&gt;Node1 -->
<g id="edge4" class="edge"><title>Node2&#45;&gt;Node1</title>
<path fill="none" stroke="#9a32cd" stroke-dasharray="5,2" d="M115,-68.2239C115,-52.6974 115,-31.3582 115,-19.6165"/>
<polygon fill="#9a32cd" stroke="#9a32cd" points="111.5,-68.2818 115,-78.2818 118.5,-68.2819 111.5,-68.2818"/>
<text text-anchor="middle" x="130" y="-52" font-family="Helvetica,sans-Serif" font-size="10.00"> v_geo</text>
<text text-anchor="middle" x="130" y="-41" font-family="Helvetica,sans-Serif" font-size="10.00">u_geo</text>
</g>
<!-- Node3 -->
<g id="node3" class="node"><title>Node3</title>
<g id="a_node3"><a xlink:href="structdata__structures_1_1geo__look__up__table.html" target="_top" xlink:title="data_structures::geo\l_look_up_table">
<polygon fill="white" stroke="black" points="0,-145.5 0,-175.5 106,-175.5 106,-145.5 0,-145.5"/>
<text text-anchor="start" x="8" y="-163.5" font-family="Helvetica,sans-Serif" font-size="10.00">data_structures::geo</text>
<text text-anchor="middle" x="53" y="-152.5" font-family="Helvetica,sans-Serif" font-size="10.00">_look_up_table</text>
</a>
</g>
</g>
<!-- Node3&#45;&gt;Node2 -->
<g id="edge2" class="edge"><title>Node3&#45;&gt;Node2</title>
<path fill="none" stroke="#9a32cd" stroke-dasharray="5,2" d="M72.4491,-137.385C84.1881,-124.036 98.5057,-107.756 107.179,-97.8932"/>
<polygon fill="#9a32cd" stroke="#9a32cd" points="69.5223,-135.413 65.5466,-145.233 74.7788,-140.035 69.5223,-135.413"/>
<text text-anchor="middle" x="105" y="-119" font-family="Helvetica,sans-Serif" font-size="10.00"> geolut</text>
</g>
<!-- Node4 -->
<g id="node4" class="node"><title>Node4</title>
<g id="a_node4"><a xlink:href="structdata__structures_1_1vert__look__up__table.html" target="_top" xlink:title="data_structures::vert\l_look_up_table">
<polygon fill="white" stroke="black" points="123.5,-145.5 123.5,-175.5 230.5,-175.5 230.5,-145.5 123.5,-145.5"/>
<text text-anchor="start" x="131.5" y="-163.5" font-family="Helvetica,sans-Serif" font-size="10.00">data_structures::vert</text>
<text text-anchor="middle" x="177" y="-152.5" font-family="Helvetica,sans-Serif" font-size="10.00">_look_up_table</text>
</a>
</g>
</g>
<!-- Node4&#45;&gt;Node2 -->
<g id="edge3" class="edge"><title>Node4&#45;&gt;Node2</title>
<path fill="none" stroke="#9a32cd" stroke-dasharray="5,2" d="M157.551,-137.385C145.812,-124.036 131.494,-107.756 122.821,-97.8932"/>
<polygon fill="#9a32cd" stroke="#9a32cd" points="155.221,-140.035 164.453,-145.233 160.478,-135.413 155.221,-140.035"/>
<text text-anchor="middle" x="165" y="-119" font-family="Helvetica,sans-Serif" font-size="10.00"> vert_lut</text>
</g>
</g>
</svg>
