<?xml version="1.0" encoding="UTF-8" standalone="no"?>
<!DOCTYPE svg PUBLIC "-//W3C//DTD SVG 1.1//EN"
 "http://www.w3.org/Graphics/SVG/1.1/DTD/svg11.dtd">
<!-- Generated by graphviz version 2.38.0 (20140413.2041)
 -->
<!-- Title: data_structures::bc_type Pages: 1 -->
<svg width="1004pt" height="134pt"
 viewBox="0.00 0.00 1004.00 133.78" xmlns="http://www.w3.org/2000/svg" xmlns:xlink="http://www.w3.org/1999/xlink">
<g id="graph0" class="graph" transform="scale(1 1) rotate(0) translate(4 129.776)">
<title>data_structures::bc_type</title>
<polygon fill="white" stroke="none" points="-4,4 -4,-129.776 1000,-129.776 1000,4 -4,4"/>
<!-- Node1 -->
<g id="node1" class="node"><title>Node1</title>
<polygon fill="#bfbfbf" stroke="black" points="871,-48.2759 871,-67.2759 996,-67.2759 996,-48.2759 871,-48.2759"/>
<text text-anchor="middle" x="933.5" y="-55.2759" font-family="Helvetica,sans-Serif" font-size="10.00">data_structures::bc_type</text>
</g>
<!-- Node2 -->
<g id="node2" class="node"><title>Node2</title>
<g id="a_node2"><a xlink:href="structdata__structures_1_1linearizable__type.html" target="_top" xlink:title="data_structures::linearizable_type">
<polygon fill="white" stroke="black" points="409,-58.2759 409,-77.2759 572,-77.2759 572,-58.2759 409,-58.2759"/>
<text text-anchor="middle" x="490.5" y="-65.2759" font-family="Helvetica,sans-Serif" font-size="10.00">data_structures::linearizable_type</text>
</a>
</g>
</g>
<!-- Node2&#45;&gt;Node1 -->
<g id="edge1" class="edge"><title>Node2&#45;&gt;Node1</title>
<path fill="none" stroke="midnightblue" d="M582.175,-65.7197C668.422,-63.764 795.828,-60.875 870.877,-59.1732"/>
<polygon fill="midnightblue" stroke="midnightblue" points="582.048,-62.2216 572.13,-65.9475 582.206,-69.2198 582.048,-62.2216"/>
</g>
<!-- Node6 -->
<g id="node6" class="node"><title>Node6</title>
<g id="a_node6"><a xlink:href="structdata__structures_1_1domain__type.html" target="_top" xlink:title="data_structures::domain_type">
<polygon fill="white" stroke="black" points="630,-86.2759 630,-105.276 776,-105.276 776,-86.2759 630,-86.2759"/>
<text text-anchor="middle" x="703" y="-93.2759" font-family="Helvetica,sans-Serif" font-size="10.00">data_structures::domain_type</text>
</a>
</g>
</g>
<!-- Node2&#45;&gt;Node6 -->
<g id="edge7" class="edge"><title>Node2&#45;&gt;Node6</title>
<path fill="none" stroke="midnightblue" d="M573.107,-78.6309C591.962,-81.139 611.885,-83.789 630.281,-86.236"/>
<polygon fill="midnightblue" stroke="midnightblue" points="573.434,-75.1436 563.059,-77.2944 572.511,-82.0825 573.434,-75.1436"/>
</g>
<!-- Node3 -->
<g id="node3" class="node"><title>Node3</title>
<g id="a_node3"><a xlink:href="structdata__structures_1_1interpolable__type.html" target="_top" xlink:title="data_structures::interpolable_type">
<polygon fill="white" stroke="black" points="179,-33.2759 179,-52.2759 343,-52.2759 343,-33.2759 179,-33.2759"/>
<text text-anchor="middle" x="261" y="-40.2759" font-family="Helvetica,sans-Serif" font-size="10.00">data_structures::interpolable_type</text>
</a>
</g>
</g>
<!-- Node3&#45;&gt;Node2 -->
<g id="edge2" class="edge"><title>Node3&#45;&gt;Node2</title>
<path fill="none" stroke="midnightblue" d="M288.744,-56.8615C308.189,-66.2763 335.47,-77.8133 361,-82.7759 392.969,-88.9903 429.948,-83.3527 456.006,-77.2955"/>
<polygon fill="midnightblue" stroke="midnightblue" points="290.117,-53.6355 279.605,-52.3132 286.998,-59.9023 290.117,-53.6355"/>
</g>
<!-- Node3&#45;&gt;Node2 -->
<g id="edge5" class="edge"><title>Node3&#45;&gt;Node2</title>
<path fill="none" stroke="#9a32cd" stroke-dasharray="5,2" d="M353.306,-52.6493C365.968,-54.029 378.809,-55.4336 391,-56.7759 396.815,-57.4161 402.823,-58.0803 408.87,-58.7509"/>
<polygon fill="#9a32cd" stroke="#9a32cd" points="353.525,-49.1526 343.205,-51.5499 352.767,-56.1115 353.525,-49.1526"/>
<text text-anchor="middle" x="376" y="-70.7759" font-family="Helvetica,sans-Serif" font-size="10.00"> v_geo</text>
<text text-anchor="middle" x="376" y="-59.7759" font-family="Helvetica,sans-Serif" font-size="10.00">u_geo</text>
</g>
<!-- Node8 -->
<g id="node8" class="node"><title>Node8</title>
<g id="a_node8"><a xlink:href="structdata__structures_1_1wind__type.html" target="_top" xlink:title="data_structures::wind_type">
<polygon fill="white" stroke="black" points="423.5,-9.27585 423.5,-28.2759 557.5,-28.2759 557.5,-9.27585 423.5,-9.27585"/>
<text text-anchor="middle" x="490.5" y="-16.2759" font-family="Helvetica,sans-Serif" font-size="10.00">data_structures::wind_type</text>
</a>
</g>
</g>
<!-- Node3&#45;&gt;Node8 -->
<g id="edge10" class="edge"><title>Node3&#45;&gt;Node8</title>
<path fill="none" stroke="midnightblue" d="M353.133,-33.1618C376.603,-30.6859 401.411,-28.0687 423.341,-25.7553"/>
<polygon fill="midnightblue" stroke="midnightblue" points="352.747,-29.683 343.169,-34.2129 353.481,-36.6444 352.747,-29.683"/>
</g>
<!-- Node3&#45;&gt;Node8 -->
<g id="edge11" class="edge"><title>Node3&#45;&gt;Node8</title>
<path fill="none" stroke="#9a32cd" stroke-dasharray="5,2" d="M288.744,-28.6902C308.189,-19.2754 335.47,-7.73846 361,-2.77585 393.661,3.573 431.506,-2.76666 457.625,-9.24572"/>
<polygon fill="#9a32cd" stroke="#9a32cd" points="286.998,-25.6494 279.605,-33.2385 290.117,-31.9162 286.998,-25.6494"/>
<text text-anchor="middle" x="376" y="-16.7759" font-family="Helvetica,sans-Serif" font-size="10.00"> v_geo</text>
<text text-anchor="middle" x="376" y="-5.77585" font-family="Helvetica,sans-Serif" font-size="10.00">u_geo</text>
</g>
<!-- Node4 -->
<g id="node4" class="node"><title>Node4</title>
<g id="a_node4"><a xlink:href="structdata__structures_1_1geo__look__up__table.html" target="_top" xlink:title="data_structures::geo\l_look_up_table">
<polygon fill="white" stroke="black" points="0.5,-52.7759 0.5,-82.7759 106.5,-82.7759 106.5,-52.7759 0.5,-52.7759"/>
<text text-anchor="start" x="8.5" y="-70.7759" font-family="Helvetica,sans-Serif" font-size="10.00">data_structures::geo</text>
<text text-anchor="middle" x="53.5" y="-59.7759" font-family="Helvetica,sans-Serif" font-size="10.00">_look_up_table</text>
</a>
</g>
</g>
<!-- Node4&#45;&gt;Node3 -->
<g id="edge3" class="edge"><title>Node4&#45;&gt;Node3</title>
<path fill="none" stroke="#9a32cd" stroke-dasharray="5,2" d="M116.78,-60.1992C137.293,-57.7037 160.368,-54.8966 181.906,-52.2763"/>
<polygon fill="#9a32cd" stroke="#9a32cd" points="116.126,-56.7529 106.622,-61.435 116.972,-63.7016 116.126,-56.7529"/>
<text text-anchor="middle" x="143" y="-61.7759" font-family="Helvetica,sans-Serif" font-size="10.00"> geolut</text>
</g>
<!-- Node5 -->
<g id="node5" class="node"><title>Node5</title>
<g id="a_node5"><a xlink:href="structdata__structures_1_1vert__look__up__table.html" target="_top" xlink:title="data_structures::vert\l_look_up_table">
<polygon fill="white" stroke="black" points="0,-3.77585 0,-33.7759 107,-33.7759 107,-3.77585 0,-3.77585"/>
<text text-anchor="start" x="8" y="-21.7759" font-family="Helvetica,sans-Serif" font-size="10.00">data_structures::vert</text>
<text text-anchor="middle" x="53.5" y="-10.7759" font-family="Helvetica,sans-Serif" font-size="10.00">_look_up_table</text>
</a>
</g>
</g>
<!-- Node5&#45;&gt;Node3 -->
<g id="edge4" class="edge"><title>Node5&#45;&gt;Node3</title>
<path fill="none" stroke="#9a32cd" stroke-dasharray="5,2" d="M117.09,-26.0856C136.52,-28.3548 158.223,-30.8895 178.732,-33.2847"/>
<polygon fill="#9a32cd" stroke="#9a32cd" points="117.493,-22.609 107.155,-24.9253 116.681,-29.5617 117.493,-22.609"/>
<text text-anchor="middle" x="143" y="-33.7759" font-family="Helvetica,sans-Serif" font-size="10.00"> vert_lut</text>
</g>
<!-- Node6&#45;&gt;Node1 -->
<g id="edge6" class="edge"><title>Node6&#45;&gt;Node1</title>
<path fill="none" stroke="#9a32cd" stroke-dasharray="5,2" d="M771.377,-84.5709C804.339,-79.0892 843.598,-72.5604 875.111,-67.3197"/>
<polygon fill="#9a32cd" stroke="#9a32cd" points="770.656,-81.1427 761.365,-86.2359 771.804,-88.0479 770.656,-81.1427"/>
<text text-anchor="middle" x="823.5" y="-82.7759" font-family="Helvetica,sans-Serif" font-size="10.00"> next_domain</text>
</g>
<!-- Node7 -->
<g id="node7" class="node"><title>Node7</title>
<g id="a_node7"><a xlink:href="structdata__structures_1_1tendencies__type.html" target="_top" xlink:title="data_structures::tendencies_type">
<polygon fill="white" stroke="black" points="410,-106.276 410,-125.276 571,-125.276 571,-106.276 410,-106.276"/>
<text text-anchor="middle" x="490.5" y="-113.276" font-family="Helvetica,sans-Serif" font-size="10.00">data_structures::tendencies_type</text>
</a>
</g>
</g>
<!-- Node7&#45;&gt;Node6 -->
<g id="edge8" class="edge"><title>Node7&#45;&gt;Node6</title>
<path fill="none" stroke="#9a32cd" stroke-dasharray="5,2" d="M581.141,-107.259C597.427,-105.712 614.222,-104.116 629.921,-102.624"/>
<polygon fill="#9a32cd" stroke="#9a32cd" points="580.705,-103.784 571.081,-108.215 581.367,-110.753 580.705,-103.784"/>
<text text-anchor="middle" x="601" y="-108.776" font-family="Helvetica,sans-Serif" font-size="10.00"> tend</text>
</g>
<!-- Node8&#45;&gt;Node1 -->
<g id="edge9" class="edge"><title>Node8&#45;&gt;Node1</title>
<path fill="none" stroke="#9a32cd" stroke-dasharray="5,2" d="M567.72,-25.5164C653.517,-33.1039 791.261,-45.2853 870.661,-52.3071"/>
<polygon fill="#9a32cd" stroke="#9a32cd" points="567.792,-22.0092 557.522,-24.6145 567.175,-28.9819 567.792,-22.0092"/>
<text text-anchor="middle" x="703" y="-45.7759" font-family="Helvetica,sans-Serif" font-size="10.00"> ext_winds</text>
</g>
</g>
</svg>
