<?xml version="1.0" encoding="UTF-8" standalone="no"?>
<!DOCTYPE svg PUBLIC "-//W3C//DTD SVG 1.1//EN"
 "http://www.w3.org/Graphics/SVG/1.1/DTD/svg11.dtd">
<!-- Generated by graphviz version 2.32.0 (20130809.1645)
 -->
<!-- Title: data_structures::bc_type Pages: 1 -->
<svg width="1008pt" height="134pt"
 viewBox="0.00 0.00 1008.00 133.79" xmlns="http://www.w3.org/2000/svg" xmlns:xlink="http://www.w3.org/1999/xlink">
<g id="graph0" class="graph" transform="scale(1 1) rotate(0) translate(4 129.792)">
<title>data_structures::bc_type</title>
<polygon fill="white" stroke="white" points="-4,5 -4,-129.792 1005,-129.792 1005,5 -4,5"/>
<!-- Node1 -->
<g id="node1" class="node"><title>Node1</title>
<polygon fill="#bfbfbf" stroke="black" points="874.5,-48.2922 874.5,-67.2922 999.5,-67.2922 999.5,-48.2922 874.5,-48.2922"/>
<text text-anchor="middle" x="937" y="-55.2922" font-family="Helvetica,sans-Serif" font-size="10.00">data_structures::bc_type</text>
</g>
<!-- Node2 -->
<g id="node2" class="node"><title>Node2</title>
<g id="a_node2"><a xlink:href="structdata__structures_1_1linearizable__type.html" target="_top" xlink:title="data_structures::linearizable_type">
<polygon fill="white" stroke="black" points="410.5,-58.2922 410.5,-77.2922 573.5,-77.2922 573.5,-58.2922 410.5,-58.2922"/>
<text text-anchor="middle" x="492" y="-65.2922" font-family="Helvetica,sans-Serif" font-size="10.00">data_structures::linearizable_type</text>
</a>
</g>
</g>
<!-- Node2&#45;&gt;Node1 -->
<g id="edge1" class="edge"><title>Node2&#45;&gt;Node1</title>
<path fill="none" stroke="midnightblue" d="M583.84,-65.7416C670.583,-63.7835 798.935,-60.8862 874.362,-59.1835"/>
<polygon fill="midnightblue" stroke="midnightblue" points="583.656,-62.2447 573.738,-65.9696 583.814,-69.243 583.656,-62.2447"/>
</g>
<!-- Node6 -->
<g id="node6" class="node"><title>Node6</title>
<g id="a_node6"><a xlink:href="structdata__structures_1_1domain__type.html" target="_top" xlink:title="data_structures::domain_type">
<polygon fill="white" stroke="black" points="632,-86.2922 632,-105.292 778,-105.292 778,-86.2922 632,-86.2922"/>
<text text-anchor="middle" x="705" y="-93.2922" font-family="Helvetica,sans-Serif" font-size="10.00">data_structures::domain_type</text>
</a>
</g>
</g>
<!-- Node2&#45;&gt;Node6 -->
<g id="edge7" class="edge"><title>Node2&#45;&gt;Node6</title>
<path fill="none" stroke="midnightblue" d="M574.801,-78.6472C593.701,-81.1553 613.671,-83.8053 632.111,-86.2523"/>
<polygon fill="midnightblue" stroke="midnightblue" points="575.103,-75.1567 564.729,-77.3107 574.182,-82.0959 575.103,-75.1567"/>
</g>
<!-- Node3 -->
<g id="node3" class="node"><title>Node3</title>
<g id="a_node3"><a xlink:href="structdata__structures_1_1interpolable__type.html" target="_top" xlink:title="data_structures::interpolable_type">
<polygon fill="white" stroke="black" points="180,-33.2922 180,-52.2922 344,-52.2922 344,-33.2922 180,-33.2922"/>
<text text-anchor="middle" x="262" y="-40.2922" font-family="Helvetica,sans-Serif" font-size="10.00">data_structures::interpolable_type</text>
</a>
</g>
</g>
<!-- Node3&#45;&gt;Node2 -->
<g id="edge2" class="edge"><title>Node3&#45;&gt;Node2</title>
<path fill="none" stroke="midnightblue" d="M289.744,-56.8778C309.189,-66.2926 336.47,-77.8296 362,-82.7922 394.092,-89.0304 431.215,-83.3897 457.374,-77.3252"/>
<polygon fill="midnightblue" stroke="midnightblue" points="291.117,-53.6518 280.605,-52.3295 287.998,-59.9186 291.117,-53.6518"/>
</g>
<!-- Node3&#45;&gt;Node2 -->
<g id="edge5" class="edge"><title>Node3&#45;&gt;Node2</title>
<path fill="none" stroke="#9a32cd" stroke-dasharray="5,2" d="M354.305,-52.6719C366.967,-54.0506 379.808,-55.4533 392,-56.7922 398.016,-57.4529 404.238,-58.1385 410.497,-58.83"/>
<polygon fill="#9a32cd" stroke="#9a32cd" points="354.524,-49.1752 344.204,-51.5731 353.767,-56.1341 354.524,-49.1752"/>
<text text-anchor="middle" x="377" y="-70.7922" font-family="Helvetica,sans-Serif" font-size="10.00"> v_geo</text>
<text text-anchor="middle" x="377" y="-59.7922" font-family="Helvetica,sans-Serif" font-size="10.00">u_geo</text>
</g>
<!-- Node8 -->
<g id="node8" class="node"><title>Node8</title>
<g id="a_node8"><a xlink:href="structdata__structures_1_1wind__type.html" target="_top" xlink:title="data_structures::wind_type">
<polygon fill="white" stroke="black" points="425,-9.29215 425,-28.2922 559,-28.2922 559,-9.29215 425,-9.29215"/>
<text text-anchor="middle" x="492" y="-16.2922" font-family="Helvetica,sans-Serif" font-size="10.00">data_structures::wind_type</text>
</a>
</g>
</g>
<!-- Node3&#45;&gt;Node8 -->
<g id="edge10" class="edge"><title>Node3&#45;&gt;Node8</title>
<path fill="none" stroke="midnightblue" d="M354.071,-33.2057C377.735,-30.7148 402.774,-28.0791 424.878,-25.7523"/>
<polygon fill="midnightblue" stroke="midnightblue" points="353.605,-29.7354 344.026,-34.2631 354.338,-36.6969 353.605,-29.7354"/>
</g>
<!-- Node3&#45;&gt;Node8 -->
<g id="edge11" class="edge"><title>Node3&#45;&gt;Node8</title>
<path fill="none" stroke="#9a32cd" stroke-dasharray="5,2" d="M289.744,-28.7065C309.189,-19.2917 336.47,-7.75476 362,-2.79215 394.786,3.58103 432.779,-2.76244 459,-9.24903"/>
<polygon fill="#9a32cd" stroke="#9a32cd" points="287.998,-25.6657 280.605,-33.2548 291.117,-31.9325 287.998,-25.6657"/>
<text text-anchor="middle" x="377" y="-16.7922" font-family="Helvetica,sans-Serif" font-size="10.00"> v_geo</text>
<text text-anchor="middle" x="377" y="-5.79215" font-family="Helvetica,sans-Serif" font-size="10.00">u_geo</text>
</g>
<!-- Node4 -->
<g id="node4" class="node"><title>Node4</title>
<g id="a_node4"><a xlink:href="structdata__structures_1_1geo__look__up__table.html" target="_top" xlink:title="data_structures::geo\l_look_up_table">
<polygon fill="white" stroke="black" points="1,-52.7922 1,-82.7922 107,-82.7922 107,-52.7922 1,-52.7922"/>
<text text-anchor="start" x="9" y="-70.7922" font-family="Helvetica,sans-Serif" font-size="10.00">data_structures::geo</text>
<text text-anchor="middle" x="54" y="-59.7922" font-family="Helvetica,sans-Serif" font-size="10.00">_look_up_table</text>
</a>
</g>
</g>
<!-- Node4&#45;&gt;Node3 -->
<g id="edge3" class="edge"><title>Node4&#45;&gt;Node3</title>
<path fill="none" stroke="#9a32cd" stroke-dasharray="5,2" d="M117.432,-60.2155C137.995,-57.72 161.125,-54.9128 182.716,-52.2926"/>
<polygon fill="#9a32cd" stroke="#9a32cd" points="116.754,-56.7719 107.249,-61.4513 117.598,-63.7209 116.754,-56.7719"/>
<text text-anchor="middle" x="144" y="-61.7922" font-family="Helvetica,sans-Serif" font-size="10.00"> geolut</text>
</g>
<!-- Node5 -->
<g id="node5" class="node"><title>Node5</title>
<g id="a_node5"><a xlink:href="structdata__structures_1_1vert__look__up__table.html" target="_top" xlink:title="data_structures::vert\l_look_up_table">
<polygon fill="white" stroke="black" points="0.5,-3.79215 0.5,-33.7922 107.5,-33.7922 107.5,-3.79215 0.5,-3.79215"/>
<text text-anchor="start" x="8.5" y="-21.7922" font-family="Helvetica,sans-Serif" font-size="10.00">data_structures::vert</text>
<text text-anchor="middle" x="54" y="-10.7922" font-family="Helvetica,sans-Serif" font-size="10.00">_look_up_table</text>
</a>
</g>
</g>
<!-- Node5&#45;&gt;Node3 -->
<g id="edge4" class="edge"><title>Node5&#45;&gt;Node3</title>
<path fill="none" stroke="#9a32cd" stroke-dasharray="5,2" d="M117.532,-26.0775C137.128,-28.3605 159.048,-30.9142 179.74,-33.325"/>
<polygon fill="#9a32cd" stroke="#9a32cd" points="117.853,-22.5913 107.516,-24.9105 117.043,-29.5443 117.853,-22.5913"/>
<text text-anchor="middle" x="144" y="-33.7922" font-family="Helvetica,sans-Serif" font-size="10.00"> vert_lut</text>
</g>
<!-- Node6&#45;&gt;Node1 -->
<g id="edge6" class="edge"><title>Node6&#45;&gt;Node1</title>
<path fill="none" stroke="#9a32cd" stroke-dasharray="5,2" d="M773.819,-84.5872C806.998,-79.1055 846.515,-72.5767 878.234,-67.336"/>
<polygon fill="#9a32cd" stroke="#9a32cd" points="773.038,-81.1689 763.742,-86.2522 774.179,-88.0752 773.038,-81.1689"/>
<text text-anchor="middle" x="826" y="-82.7922" font-family="Helvetica,sans-Serif" font-size="10.00"> next_domain</text>
</g>
<!-- Node7 -->
<g id="node7" class="node"><title>Node7</title>
<g id="a_node7"><a xlink:href="structdata__structures_1_1tendencies__type.html" target="_top" xlink:title="data_structures::tendencies_type">
<polygon fill="white" stroke="black" points="411.5,-106.292 411.5,-125.292 572.5,-125.292 572.5,-106.292 411.5,-106.292"/>
<text text-anchor="middle" x="492" y="-113.292" font-family="Helvetica,sans-Serif" font-size="10.00">data_structures::tendencies_type</text>
</a>
</g>
</g>
<!-- Node7&#45;&gt;Node6 -->
<g id="edge8" class="edge"><title>Node7&#45;&gt;Node6</title>
<path fill="none" stroke="#9a32cd" stroke-dasharray="5,2" d="M582.854,-107.275C599.178,-105.728 616.014,-104.132 631.75,-102.64"/>
<polygon fill="#9a32cd" stroke="#9a32cd" points="582.395,-103.803 572.77,-108.231 583.056,-110.772 582.395,-103.803"/>
<text text-anchor="middle" x="603" y="-108.792" font-family="Helvetica,sans-Serif" font-size="10.00"> tend</text>
</g>
<!-- Node8&#45;&gt;Node1 -->
<g id="edge9" class="edge"><title>Node8&#45;&gt;Node1</title>
<path fill="none" stroke="#9a32cd" stroke-dasharray="5,2" d="M569.318,-25.5109C655.613,-33.1079 794.453,-45.3309 874.233,-52.3545"/>
<polygon fill="#9a32cd" stroke="#9a32cd" points="569.59,-22.0214 559.322,-24.6308 568.976,-28.9944 569.59,-22.0214"/>
<text text-anchor="middle" x="705" y="-45.7922" font-family="Helvetica,sans-Serif" font-size="10.00"> ext_winds</text>
</g>
</g>
</svg>
