<?xml version="1.0" encoding="UTF-8" standalone="no"?>
<!DOCTYPE svg PUBLIC "-//W3C//DTD SVG 1.1//EN"
 "http://www.w3.org/Graphics/SVG/1.1/DTD/svg11.dtd">
<!-- Generated by graphviz version 2.32.0 (20130809.1645)
 -->
<!-- Title: data_structures::linearizable_type Pages: 1 -->
<svg width="297pt" height="140pt"
 viewBox="0.00 0.00 297.00 140.00" xmlns="http://www.w3.org/2000/svg" xmlns:xlink="http://www.w3.org/1999/xlink">
<g id="graph0" class="graph" transform="scale(1 1) rotate(0) translate(4 136)">
<title>data_structures::linearizable_type</title>
<polygon fill="white" stroke="white" points="-4,5 -4,-136 294,-136 294,5 -4,5"/>
<!-- Node1 -->
<g id="node1" class="node"><title>Node1</title>
<polygon fill="#bfbfbf" stroke="black" points="57.5,-56.5 57.5,-75.5 220.5,-75.5 220.5,-56.5 57.5,-56.5"/>
<text text-anchor="middle" x="139" y="-63.5" font-family="Helvetica,sans-Serif" font-size="10.00">data_structures::linearizable_type</text>
</g>
<!-- Node3 -->
<g id="node3" class="node"><title>Node3</title>
<g id="a_node3"><a xlink:href="structdata__structures_1_1bc__type.html" target="_top" xlink:title="data_structures::bc_type">
<polygon fill="white" stroke="black" points="-0.5,-0.5 -0.5,-19.5 124.5,-19.5 124.5,-0.5 -0.5,-0.5"/>
<text text-anchor="middle" x="62" y="-7.5" font-family="Helvetica,sans-Serif" font-size="10.00">data_structures::bc_type</text>
</a>
</g>
</g>
<!-- Node1&#45;&gt;Node3 -->
<g id="edge2" class="edge"><title>Node1&#45;&gt;Node3</title>
<path fill="none" stroke="midnightblue" d="M118.099,-50.3422C104.089,-40.5169 86.117,-27.9132 74.3407,-19.6545"/>
<polygon fill="midnightblue" stroke="midnightblue" points="116.432,-53.4477 126.629,-56.324 120.451,-47.7166 116.432,-53.4477"/>
</g>
<!-- Node4 -->
<g id="node4" class="node"><title>Node4</title>
<g id="a_node4"><a xlink:href="structdata__structures_1_1domain__type.html" target="_top" xlink:title="data_structures::domain_type">
<polygon fill="white" stroke="black" points="143,-0.5 143,-19.5 289,-19.5 289,-0.5 143,-0.5"/>
<text text-anchor="middle" x="216" y="-7.5" font-family="Helvetica,sans-Serif" font-size="10.00">data_structures::domain_type</text>
</a>
</g>
</g>
<!-- Node1&#45;&gt;Node4 -->
<g id="edge3" class="edge"><title>Node1&#45;&gt;Node4</title>
<path fill="none" stroke="midnightblue" d="M159.901,-50.3422C173.911,-40.5169 191.883,-27.9132 203.659,-19.6545"/>
<polygon fill="midnightblue" stroke="midnightblue" points="157.549,-47.7166 151.371,-56.324 161.568,-53.4477 157.549,-47.7166"/>
</g>
<!-- Node2 -->
<g id="node2" class="node"><title>Node2</title>
<g id="a_node2"><a xlink:href="structdata__structures_1_1interpolable__type.html" target="_top" xlink:title="data_structures::interpolable_type">
<polygon fill="white" stroke="black" points="57,-112.5 57,-131.5 221,-131.5 221,-112.5 57,-112.5"/>
<text text-anchor="middle" x="139" y="-119.5" font-family="Helvetica,sans-Serif" font-size="10.00">data_structures::interpolable_type</text>
</a>
</g>
</g>
<!-- Node2&#45;&gt;Node1 -->
<g id="edge1" class="edge"><title>Node2&#45;&gt;Node1</title>
<path fill="none" stroke="midnightblue" d="M139,-101.805C139,-92.9102 139,-82.7798 139,-75.7511"/>
<polygon fill="midnightblue" stroke="midnightblue" points="135.5,-102.083 139,-112.083 142.5,-102.083 135.5,-102.083"/>
</g>
</g>
</svg>
