<?xml version="1.0" encoding="UTF-8" standalone="no"?>
<!DOCTYPE svg PUBLIC "-//W3C//DTD SVG 1.1//EN"
 "http://www.w3.org/Graphics/SVG/1.1/DTD/svg11.dtd">
<!-- Generated by graphviz version 2.32.0 (20130809.1645)
 -->
<!-- Title: data_structures::interpolable_type Pages: 1 -->
<svg width="381pt" height="140pt"
 viewBox="0.00 0.00 381.00 140.00" xmlns="http://www.w3.org/2000/svg" xmlns:xlink="http://www.w3.org/1999/xlink">
<g id="graph0" class="graph" transform="scale(1 1) rotate(0) translate(4 136)">
<title>data_structures::interpolable_type</title>
<polygon fill="white" stroke="white" points="-4,5 -4,-136 378,-136 378,5 -4,5"/>
<!-- Node1 -->
<g id="node1" class="node"><title>Node1</title>
<polygon fill="#bfbfbf" stroke="black" points="140,-112.5 140,-131.5 304,-131.5 304,-112.5 140,-112.5"/>
<text text-anchor="middle" x="222" y="-119.5" font-family="Helvetica,sans-Serif" font-size="10.00">data_structures::interpolable_type</text>
</g>
<!-- Node2 -->
<g id="node2" class="node"><title>Node2</title>
<g id="a_node2"><a xlink:href="structdata__structures_1_1linearizable__type.html" target="_top" xlink:title="data_structures::linearizable_type">
<polygon fill="white" stroke="black" points="57.5,-56.5 57.5,-75.5 220.5,-75.5 220.5,-56.5 57.5,-56.5"/>
<text text-anchor="middle" x="139" y="-63.5" font-family="Helvetica,sans-Serif" font-size="10.00">data_structures::linearizable_type</text>
</a>
</g>
</g>
<!-- Node1&#45;&gt;Node2 -->
<g id="edge1" class="edge"><title>Node1&#45;&gt;Node2</title>
<path fill="none" stroke="midnightblue" d="M199.901,-106.622C184.738,-96.7574 165.117,-83.9919 152.302,-75.6545"/>
<polygon fill="midnightblue" stroke="midnightblue" points="198.374,-109.804 208.665,-112.324 202.191,-103.937 198.374,-109.804"/>
</g>
<!-- Node5 -->
<g id="node5" class="node"><title>Node5</title>
<g id="a_node5"><a xlink:href="structdata__structures_1_1wind__type.html" target="_top" xlink:title="data_structures::wind_type">
<polygon fill="white" stroke="black" points="239,-56.5 239,-75.5 373,-75.5 373,-56.5 239,-56.5"/>
<text text-anchor="middle" x="306" y="-63.5" font-family="Helvetica,sans-Serif" font-size="10.00">data_structures::wind_type</text>
</a>
</g>
</g>
<!-- Node1&#45;&gt;Node5 -->
<g id="edge4" class="edge"><title>Node1&#45;&gt;Node5</title>
<path fill="none" stroke="midnightblue" d="M243.932,-106.901C259.335,-96.9986 279.446,-84.0705 292.537,-75.6545"/>
<polygon fill="midnightblue" stroke="midnightblue" points="242.015,-103.972 235.496,-112.324 245.801,-109.86 242.015,-103.972"/>
</g>
<!-- Node3 -->
<g id="node3" class="node"><title>Node3</title>
<g id="a_node3"><a xlink:href="structdata__structures_1_1bc__type.html" target="_top" xlink:title="data_structures::bc_type">
<polygon fill="white" stroke="black" points="-0.5,-0.5 -0.5,-19.5 124.5,-19.5 124.5,-0.5 -0.5,-0.5"/>
<text text-anchor="middle" x="62" y="-7.5" font-family="Helvetica,sans-Serif" font-size="10.00">data_structures::bc_type</text>
</a>
</g>
</g>
<!-- Node2&#45;&gt;Node3 -->
<g id="edge2" class="edge"><title>Node2&#45;&gt;Node3</title>
<path fill="none" stroke="midnightblue" d="M118.099,-50.3422C104.089,-40.5169 86.117,-27.9132 74.3407,-19.6545"/>
<polygon fill="midnightblue" stroke="midnightblue" points="116.432,-53.4477 126.629,-56.324 120.451,-47.7166 116.432,-53.4477"/>
</g>
<!-- Node4 -->
<g id="node4" class="node"><title>Node4</title>
<g id="a_node4"><a xlink:href="structdata__structures_1_1domain__type.html" target="_top" xlink:title="data_structures::domain_type">
<polygon fill="white" stroke="black" points="143,-0.5 143,-19.5 289,-19.5 289,-0.5 143,-0.5"/>
<text text-anchor="middle" x="216" y="-7.5" font-family="Helvetica,sans-Serif" font-size="10.00">data_structures::domain_type</text>
</a>
</g>
</g>
<!-- Node2&#45;&gt;Node4 -->
<g id="edge3" class="edge"><title>Node2&#45;&gt;Node4</title>
<path fill="none" stroke="midnightblue" d="M159.901,-50.3422C173.911,-40.5169 191.883,-27.9132 203.659,-19.6545"/>
<polygon fill="midnightblue" stroke="midnightblue" points="157.549,-47.7166 151.371,-56.324 161.568,-53.4477 157.549,-47.7166"/>
</g>
</g>
</svg>
