<?xml version="1.0" encoding="UTF-8" standalone="no"?>
<!DOCTYPE svg PUBLIC "-//W3C//DTD SVG 1.1//EN"
 "http://www.w3.org/Graphics/SVG/1.1/DTD/svg11.dtd">
<!-- Generated by graphviz version 2.38.0 (20140413.2041)
 -->
<!-- Title: data_structures::linearizable_type Pages: 1 -->
<svg width="298pt" height="140pt"
 viewBox="0.00 0.00 297.50 140.00" xmlns="http://www.w3.org/2000/svg" xmlns:xlink="http://www.w3.org/1999/xlink">
<g id="graph0" class="graph" transform="scale(1 1) rotate(0) translate(4 136)">
<title>data_structures::linearizable_type</title>
<polygon fill="white" stroke="none" points="-4,4 -4,-136 293.5,-136 293.5,4 -4,4"/>
<!-- Node1 -->
<g id="node1" class="node"><title>Node1</title>
<polygon fill="#bfbfbf" stroke="black" points="58,-56.5 58,-75.5 221,-75.5 221,-56.5 58,-56.5"/>
<text text-anchor="middle" x="139.5" y="-63.5" font-family="Helvetica,sans-Serif" font-size="10.00">data_structures::linearizable_type</text>
</g>
<!-- Node3 -->
<g id="node3" class="node"><title>Node3</title>
<g id="a_node3"><a xlink:href="structdata__structures_1_1bc__type.html" target="_top" xlink:title="data_structures::bc_type">
<polygon fill="white" stroke="black" points="0,-0.5 0,-19.5 125,-19.5 125,-0.5 0,-0.5"/>
<text text-anchor="middle" x="62.5" y="-7.5" font-family="Helvetica,sans-Serif" font-size="10.00">data_structures::bc_type</text>
</a>
</g>
</g>
<!-- Node1&#45;&gt;Node3 -->
<g id="edge2" class="edge"><title>Node1&#45;&gt;Node3</title>
<path fill="none" stroke="midnightblue" d="M118.599,-50.3422C104.589,-40.5169 86.617,-27.9132 74.8407,-19.6545"/>
<polygon fill="midnightblue" stroke="midnightblue" points="116.932,-53.4477 127.129,-56.324 120.951,-47.7166 116.932,-53.4477"/>
</g>
<!-- Node4 -->
<g id="node4" class="node"><title>Node4</title>
<g id="a_node4"><a xlink:href="structdata__structures_1_1domain__type.html" target="_top" xlink:title="data_structures::domain_type">
<polygon fill="white" stroke="black" points="143.5,-0.5 143.5,-19.5 289.5,-19.5 289.5,-0.5 143.5,-0.5"/>
<text text-anchor="middle" x="216.5" y="-7.5" font-family="Helvetica,sans-Serif" font-size="10.00">data_structures::domain_type</text>
</a>
</g>
</g>
<!-- Node1&#45;&gt;Node4 -->
<g id="edge3" class="edge"><title>Node1&#45;&gt;Node4</title>
<path fill="none" stroke="midnightblue" d="M160.401,-50.3422C174.411,-40.5169 192.383,-27.9132 204.159,-19.6545"/>
<polygon fill="midnightblue" stroke="midnightblue" points="158.049,-47.7166 151.871,-56.324 162.068,-53.4477 158.049,-47.7166"/>
</g>
<!-- Node2 -->
<g id="node2" class="node"><title>Node2</title>
<g id="a_node2"><a xlink:href="structdata__structures_1_1interpolable__type.html" target="_top" xlink:title="data_structures::interpolable_type">
<polygon fill="white" stroke="black" points="57.5,-112.5 57.5,-131.5 221.5,-131.5 221.5,-112.5 57.5,-112.5"/>
<text text-anchor="middle" x="139.5" y="-119.5" font-family="Helvetica,sans-Serif" font-size="10.00">data_structures::interpolable_type</text>
</a>
</g>
</g>
<!-- Node2&#45;&gt;Node1 -->
<g id="edge1" class="edge"><title>Node2&#45;&gt;Node1</title>
<path fill="none" stroke="midnightblue" d="M139.5,-101.805C139.5,-92.9102 139.5,-82.7798 139.5,-75.7511"/>
<polygon fill="midnightblue" stroke="midnightblue" points="136,-102.083 139.5,-112.083 143,-102.083 136,-102.083"/>
</g>
</g>
</svg>
