<?xml version="1.0" encoding="UTF-8" standalone="no"?>
<!DOCTYPE svg PUBLIC "-//W3C//DTD SVG 1.1//EN"
 "http://www.w3.org/Graphics/SVG/1.1/DTD/svg11.dtd">
<!-- Generated by graphviz version 2.32.0 (20130809.1645)
 -->
<!-- Title: data_structures::interpolable_type Pages: 1 -->
<svg width="238pt" height="108pt"
 viewBox="0.00 0.00 238.00 108.00" xmlns="http://www.w3.org/2000/svg" xmlns:xlink="http://www.w3.org/1999/xlink">
<g id="graph0" class="graph" transform="scale(1 1) rotate(0) translate(4 104)">
<title>data_structures::interpolable_type</title>
<polygon fill="white" stroke="white" points="-4,5 -4,-104 235,-104 235,5 -4,5"/>
<!-- Node1 -->
<g id="node1" class="node"><title>Node1</title>
<polygon fill="#bfbfbf" stroke="black" points="33,-0.5 33,-19.5 197,-19.5 197,-0.5 33,-0.5"/>
<text text-anchor="middle" x="115" y="-7.5" font-family="Helvetica,sans-Serif" font-size="10.00">data_structures::interpolable_type</text>
</g>
<!-- Node2 -->
<g id="node2" class="node"><title>Node2</title>
<g id="a_node2"><a xlink:href="structdata__structures_1_1geo__look__up__table.html" target="_top" xlink:title="data_structures::geo\l_look_up_table">
<polygon fill="white" stroke="black" points="0,-69 0,-99 106,-99 106,-69 0,-69"/>
<text text-anchor="start" x="8" y="-87" font-family="Helvetica,sans-Serif" font-size="10.00">data_structures::geo</text>
<text text-anchor="middle" x="53" y="-76" font-family="Helvetica,sans-Serif" font-size="10.00">_look_up_table</text>
</a>
</g>
</g>
<!-- Node2&#45;&gt;Node1 -->
<g id="edge1" class="edge"><title>Node2&#45;&gt;Node1</title>
<path fill="none" stroke="#9a32cd" stroke-dasharray="5,2" d="M71.897,-61.0551C83.8618,-47.1605 98.6802,-29.952 107.458,-19.7589"/>
<polygon fill="#9a32cd" stroke="#9a32cd" points="69.1223,-58.9136 65.2492,-68.7751 74.4267,-63.4812 69.1223,-58.9136"/>
<text text-anchor="middle" x="107" y="-41.5" font-family="Helvetica,sans-Serif" font-size="10.00"> geolut</text>
</g>
<!-- Node3 -->
<g id="node3" class="node"><title>Node3</title>
<g id="a_node3"><a xlink:href="structdata__structures_1_1vert__look__up__table.html" target="_top" xlink:title="data_structures::vert\l_look_up_table">
<polygon fill="white" stroke="black" points="123.5,-69 123.5,-99 230.5,-99 230.5,-69 123.5,-69"/>
<text text-anchor="start" x="131.5" y="-87" font-family="Helvetica,sans-Serif" font-size="10.00">data_structures::vert</text>
<text text-anchor="middle" x="177" y="-76" font-family="Helvetica,sans-Serif" font-size="10.00">_look_up_table</text>
</a>
</g>
</g>
<!-- Node3&#45;&gt;Node1 -->
<g id="edge2" class="edge"><title>Node3&#45;&gt;Node1</title>
<path fill="none" stroke="#9a32cd" stroke-dasharray="5,2" d="M158.103,-61.0551C146.138,-47.1605 131.32,-29.952 122.542,-19.7589"/>
<polygon fill="#9a32cd" stroke="#9a32cd" points="155.573,-63.4812 164.751,-68.7751 160.878,-58.9136 155.573,-63.4812"/>
<text text-anchor="middle" x="165" y="-41.5" font-family="Helvetica,sans-Serif" font-size="10.00"> vert_lut</text>
</g>
</g>
</svg>
