<?xml version="1.0" encoding="UTF-8" standalone="no"?>
<!DOCTYPE svg PUBLIC "-//W3C//DTD SVG 1.1//EN"
 "http://www.w3.org/Graphics/SVG/1.1/DTD/svg11.dtd">
<!-- Generated by graphviz version 2.38.0 (20140413.2041)
 -->
<!-- Title: data_structures::interpolable_type Pages: 1 -->
<svg width="239pt" height="106pt"
 viewBox="0.00 0.00 238.50 106.00" xmlns="http://www.w3.org/2000/svg" xmlns:xlink="http://www.w3.org/1999/xlink">
<g id="graph0" class="graph" transform="scale(1 1) rotate(0) translate(4 102)">
<title>data_structures::interpolable_type</title>
<polygon fill="white" stroke="none" points="-4,4 -4,-102 234.5,-102 234.5,4 -4,4"/>
<!-- Node1 -->
<g id="node1" class="node"><title>Node1</title>
<polygon fill="#bfbfbf" stroke="black" points="33,-0.5 33,-19.5 197,-19.5 197,-0.5 33,-0.5"/>
<text text-anchor="middle" x="115" y="-7.5" font-family="Helvetica,sans-Serif" font-size="10.00">data_structures::interpolable_type</text>
</g>
<!-- Node2 -->
<g id="node2" class="node"><title>Node2</title>
<g id="a_node2"><a xlink:href="structdata__structures_1_1geo__look__up__table.html" target="_top" xlink:title="data_structures::geo\l_look_up_table">
<polygon fill="white" stroke="black" points="0,-67.5 0,-97.5 106,-97.5 106,-67.5 0,-67.5"/>
<text text-anchor="start" x="8" y="-85.5" font-family="Helvetica,sans-Serif" font-size="10.00">data_structures::geo</text>
<text text-anchor="middle" x="53" y="-74.5" font-family="Helvetica,sans-Serif" font-size="10.00">_look_up_table</text>
</a>
</g>
</g>
<!-- Node2&#45;&gt;Node1 -->
<g id="edge1" class="edge"><title>Node2&#45;&gt;Node1</title>
<path fill="none" stroke="#9a32cd" stroke-dasharray="5,2" d="M72.4491,-59.3845C84.1881,-46.0362 98.5057,-29.7556 107.179,-19.8932"/>
<polygon fill="#9a32cd" stroke="#9a32cd" points="69.5223,-57.4126 65.5466,-67.2333 74.7788,-62.0354 69.5223,-57.4126"/>
<text text-anchor="middle" x="105" y="-41" font-family="Helvetica,sans-Serif" font-size="10.00"> geolut</text>
</g>
<!-- Node3 -->
<g id="node3" class="node"><title>Node3</title>
<g id="a_node3"><a xlink:href="structdata__structures_1_1vert__look__up__table.html" target="_top" xlink:title="data_structures::vert\l_look_up_table">
<polygon fill="white" stroke="black" points="123.5,-67.5 123.5,-97.5 230.5,-97.5 230.5,-67.5 123.5,-67.5"/>
<text text-anchor="start" x="131.5" y="-85.5" font-family="Helvetica,sans-Serif" font-size="10.00">data_structures::vert</text>
<text text-anchor="middle" x="177" y="-74.5" font-family="Helvetica,sans-Serif" font-size="10.00">_look_up_table</text>
</a>
</g>
</g>
<!-- Node3&#45;&gt;Node1 -->
<g id="edge2" class="edge"><title>Node3&#45;&gt;Node1</title>
<path fill="none" stroke="#9a32cd" stroke-dasharray="5,2" d="M157.551,-59.3845C145.812,-46.0362 131.494,-29.7556 122.821,-19.8932"/>
<polygon fill="#9a32cd" stroke="#9a32cd" points="155.221,-62.0354 164.453,-67.2333 160.478,-57.4126 155.221,-62.0354"/>
<text text-anchor="middle" x="165" y="-41" font-family="Helvetica,sans-Serif" font-size="10.00"> vert_lut</text>
</g>
</g>
</svg>
