<?xml version="1.0" encoding="UTF-8" standalone="no"?>
<!DOCTYPE svg PUBLIC "-//W3C//DTD SVG 1.1//EN"
 "http://www.w3.org/Graphics/SVG/1.1/DTD/svg11.dtd">
<!-- Generated by graphviz version 2.32.0 (20130809.1645)
 -->
<!-- Title: data_structures::domain_type Pages: 1 -->
<svg width="383pt" height="254pt"
 viewBox="0.00 0.00 383.00 254.00" xmlns="http://www.w3.org/2000/svg" xmlns:xlink="http://www.w3.org/1999/xlink">
<g id="graph0" class="graph" transform="scale(1 1) rotate(0) translate(4 250)">
<title>data_structures::domain_type</title>
<polygon fill="white" stroke="white" points="-4,5 -4,-250 380,-250 380,5 -4,5"/>
<!-- Node1 -->
<g id="node1" class="node"><title>Node1</title>
<polygon fill="#bfbfbf" stroke="black" points="177,-0.5 177,-19.5 323,-19.5 323,-0.5 177,-0.5"/>
<text text-anchor="middle" x="250" y="-7.5" font-family="Helvetica,sans-Serif" font-size="10.00">data_structures::domain_type</text>
</g>
<!-- Node2 -->
<g id="node2" class="node"><title>Node2</title>
<g id="a_node2"><a xlink:href="structdata__structures_1_1linearizable__type.html" target="_top" xlink:title="data_structures::linearizable_type">
<polygon fill="white" stroke="black" points="33.5,-68.5 33.5,-87.5 196.5,-87.5 196.5,-68.5 33.5,-68.5"/>
<text text-anchor="middle" x="115" y="-75.5" font-family="Helvetica,sans-Serif" font-size="10.00">data_structures::linearizable_type</text>
</a>
</g>
</g>
<!-- Node2&#45;&gt;Node1 -->
<g id="edge1" class="edge"><title>Node2&#45;&gt;Node1</title>
<path fill="none" stroke="midnightblue" d="M141.873,-63.8621C168.747,-50.7239 209.302,-30.8969 232.347,-19.6305"/>
<polygon fill="midnightblue" stroke="midnightblue" points="140.095,-60.8351 132.649,-68.3717 143.17,-67.1238 140.095,-60.8351"/>
</g>
<!-- Node3 -->
<g id="node3" class="node"><title>Node3</title>
<g id="a_node3"><a xlink:href="structdata__structures_1_1interpolable__type.html" target="_top" xlink:title="data_structures::interpolable_type">
<polygon fill="white" stroke="black" points="33,-146.5 33,-165.5 197,-165.5 197,-146.5 33,-146.5"/>
<text text-anchor="middle" x="115" y="-153.5" font-family="Helvetica,sans-Serif" font-size="10.00">data_structures::interpolable_type</text>
</a>
</g>
</g>
<!-- Node3&#45;&gt;Node2 -->
<g id="edge2" class="edge"><title>Node3&#45;&gt;Node2</title>
<path fill="none" stroke="midnightblue" d="M113.44,-136.382C113.257,-133.575 113.1,-130.713 113,-128 112.639,-118.229 112.639,-115.771 113,-106 113.229,-99.7998 113.754,-92.8151 114.208,-87.5033"/>
<polygon fill="midnightblue" stroke="midnightblue" points="109.961,-136.791 114.208,-146.497 116.941,-136.26 109.961,-136.791"/>
</g>
<!-- Node3&#45;&gt;Node2 -->
<g id="edge5" class="edge"><title>Node3&#45;&gt;Node2</title>
<path fill="none" stroke="#9a32cd" stroke-dasharray="5,2" d="M115,-136.224C115,-120.697 115,-99.3582 115,-87.6165"/>
<polygon fill="#9a32cd" stroke="#9a32cd" points="111.5,-136.282 115,-146.282 118.5,-136.282 111.5,-136.282"/>
<text text-anchor="middle" x="130" y="-120" font-family="Helvetica,sans-Serif" font-size="10.00"> v_geo</text>
<text text-anchor="middle" x="130" y="-109" font-family="Helvetica,sans-Serif" font-size="10.00">u_geo</text>
</g>
<!-- Node4 -->
<g id="node4" class="node"><title>Node4</title>
<g id="a_node4"><a xlink:href="structdata__structures_1_1geo__look__up__table.html" target="_top" xlink:title="data_structures::geo\l_look_up_table">
<polygon fill="white" stroke="black" points="0,-215 0,-245 106,-245 106,-215 0,-215"/>
<text text-anchor="start" x="8" y="-233" font-family="Helvetica,sans-Serif" font-size="10.00">data_structures::geo</text>
<text text-anchor="middle" x="53" y="-222" font-family="Helvetica,sans-Serif" font-size="10.00">_look_up_table</text>
</a>
</g>
</g>
<!-- Node4&#45;&gt;Node3 -->
<g id="edge3" class="edge"><title>Node4&#45;&gt;Node3</title>
<path fill="none" stroke="#9a32cd" stroke-dasharray="5,2" d="M71.897,-207.055C83.8618,-193.16 98.6802,-175.952 107.458,-165.759"/>
<polygon fill="#9a32cd" stroke="#9a32cd" points="69.1223,-204.914 65.2492,-214.775 74.4267,-209.481 69.1223,-204.914"/>
<text text-anchor="middle" x="107" y="-187.5" font-family="Helvetica,sans-Serif" font-size="10.00"> geolut</text>
</g>
<!-- Node5 -->
<g id="node5" class="node"><title>Node5</title>
<g id="a_node5"><a xlink:href="structdata__structures_1_1vert__look__up__table.html" target="_top" xlink:title="data_structures::vert\l_look_up_table">
<polygon fill="white" stroke="black" points="123.5,-215 123.5,-245 230.5,-245 230.5,-215 123.5,-215"/>
<text text-anchor="start" x="131.5" y="-233" font-family="Helvetica,sans-Serif" font-size="10.00">data_structures::vert</text>
<text text-anchor="middle" x="177" y="-222" font-family="Helvetica,sans-Serif" font-size="10.00">_look_up_table</text>
</a>
</g>
</g>
<!-- Node5&#45;&gt;Node3 -->
<g id="edge4" class="edge"><title>Node5&#45;&gt;Node3</title>
<path fill="none" stroke="#9a32cd" stroke-dasharray="5,2" d="M158.103,-207.055C146.138,-193.16 131.32,-175.952 122.542,-165.759"/>
<polygon fill="#9a32cd" stroke="#9a32cd" points="155.573,-209.481 164.751,-214.775 160.878,-204.914 155.573,-209.481"/>
<text text-anchor="middle" x="166" y="-187.5" font-family="Helvetica,sans-Serif" font-size="10.00"> vert_lut</text>
</g>
<!-- Node6 -->
<g id="node6" class="node"><title>Node6</title>
<g id="a_node6"><a xlink:href="structdata__structures_1_1tendencies__type.html" target="_top" xlink:title="data_structures::tendencies_type">
<polygon fill="white" stroke="black" points="214.5,-68.5 214.5,-87.5 375.5,-87.5 375.5,-68.5 214.5,-68.5"/>
<text text-anchor="middle" x="295" y="-75.5" font-family="Helvetica,sans-Serif" font-size="10.00">data_structures::tendencies_type</text>
</a>
</g>
</g>
<!-- Node6&#45;&gt;Node1 -->
<g id="edge6" class="edge"><title>Node6&#45;&gt;Node1</title>
<path fill="none" stroke="#9a32cd" stroke-dasharray="5,2" d="M283.367,-59.9377C274.622,-47.112 262.995,-30.0591 256.028,-19.8411"/>
<polygon fill="#9a32cd" stroke="#9a32cd" points="280.592,-62.0811 289.117,-68.3717 286.375,-58.1377 280.592,-62.0811"/>
<text text-anchor="middle" x="287" y="-41.5" font-family="Helvetica,sans-Serif" font-size="10.00"> tend</text>
</g>
</g>
</svg>
