<?xml version="1.0" encoding="UTF-8" standalone="no"?>
<!DOCTYPE svg PUBLIC "-//W3C//DTD SVG 1.1//EN"
 "http://www.w3.org/Graphics/SVG/1.1/DTD/svg11.dtd">
<!-- Generated by graphviz version 2.38.0 (20140413.2041)
 -->
<!-- Title: data_structures::options_type Pages: 1 -->
<svg width="394pt" height="225pt"
 viewBox="0.00 0.00 394.00 224.50" xmlns="http://www.w3.org/2000/svg" xmlns:xlink="http://www.w3.org/1999/xlink">
<g id="graph0" class="graph" transform="scale(1 1) rotate(0) translate(4 220.5)">
<title>data_structures::options_type</title>
<polygon fill="white" stroke="none" points="-4,4 -4,-220.5 390,-220.5 390,4 -4,4"/>
<!-- Node1 -->
<g id="node1" class="node"><title>Node1</title>
<polygon fill="#bfbfbf" stroke="black" points="240,-93.5 240,-112.5 386,-112.5 386,-93.5 240,-93.5"/>
<text text-anchor="middle" x="313" y="-100.5" font-family="Helvetica,sans-Serif" font-size="10.00">data_structures::options_type</text>
</g>
<!-- Node2 -->
<g id="node2" class="node"><title>Node2</title>
<g id="a_node2"><a xlink:href="structdata__structures_1_1lt__options__type.html" target="_top" xlink:title="data_structures::lt\l_options_type">
<polygon fill="white" stroke="black" points="26.5,-186 26.5,-216 121.5,-216 121.5,-186 26.5,-186"/>
<text text-anchor="start" x="34.5" y="-204" font-family="Helvetica,sans-Serif" font-size="10.00">data_structures::lt</text>
<text text-anchor="middle" x="74" y="-193" font-family="Helvetica,sans-Serif" font-size="10.00">_options_type</text>
</a>
</g>
</g>
<!-- Node2&#45;&gt;Node1 -->
<g id="edge1" class="edge"><title>Node2&#45;&gt;Node1</title>
<path fill="none" stroke="#9a32cd" stroke-dasharray="5,2" d="M131.105,-182.981C136.83,-181.015 142.543,-179 148,-177 181.32,-164.784 189.595,-161.469 222,-147 246.933,-135.867 275.135,-121.84 293.218,-112.657"/>
<polygon fill="#9a32cd" stroke="#9a32cd" points="129.853,-179.71 121.504,-186.233 132.098,-186.34 129.853,-179.71"/>
<text text-anchor="middle" x="194" y="-173" font-family="Helvetica,sans-Serif" font-size="10.00"> lt_options</text>
</g>
<!-- Node3 -->
<g id="node3" class="node"><title>Node3</title>
<g id="a_node3"><a xlink:href="structdata__structures_1_1lsm__options__type.html" target="_top" xlink:title="data_structures::lsm\l_options_type">
<polygon fill="white" stroke="black" points="21,-137 21,-167 127,-167 127,-137 21,-137"/>
<text text-anchor="start" x="29" y="-155" font-family="Helvetica,sans-Serif" font-size="10.00">data_structures::lsm</text>
<text text-anchor="middle" x="74" y="-144" font-family="Helvetica,sans-Serif" font-size="10.00">_options_type</text>
</a>
</g>
</g>
<!-- Node3&#45;&gt;Node1 -->
<g id="edge2" class="edge"><title>Node3&#45;&gt;Node1</title>
<path fill="none" stroke="#9a32cd" stroke-dasharray="5,2" d="M136.997,-139.182C177.302,-130.849 228.995,-120.161 265.724,-112.568"/>
<polygon fill="#9a32cd" stroke="#9a32cd" points="136.095,-135.794 127.011,-141.247 137.512,-142.649 136.095,-135.794"/>
<text text-anchor="middle" x="194" y="-135" font-family="Helvetica,sans-Serif" font-size="10.00"> lsm_options</text>
</g>
<!-- Node4 -->
<g id="node4" class="node"><title>Node4</title>
<g id="a_node4"><a xlink:href="structdata__structures_1_1mp__options__type.html" target="_top" xlink:title="data_structures::mp\l_options_type">
<polygon fill="white" stroke="black" points="22,-88 22,-118 126,-118 126,-88 22,-88"/>
<text text-anchor="start" x="30" y="-106" font-family="Helvetica,sans-Serif" font-size="10.00">data_structures::mp</text>
<text text-anchor="middle" x="74" y="-95" font-family="Helvetica,sans-Serif" font-size="10.00">_options_type</text>
</a>
</g>
</g>
<!-- Node4&#45;&gt;Node1 -->
<g id="edge3" class="edge"><title>Node4&#45;&gt;Node1</title>
<path fill="none" stroke="#9a32cd" stroke-dasharray="5,2" d="M136.147,-103C167.818,-103 206.692,-103 239.829,-103"/>
<polygon fill="#9a32cd" stroke="#9a32cd" points="136.134,-99.5001 126.134,-103 136.134,-106.5 136.134,-99.5001"/>
<text text-anchor="middle" x="194" y="-106" font-family="Helvetica,sans-Serif" font-size="10.00"> mp_options</text>
</g>
<!-- Node5 -->
<g id="node5" class="node"><title>Node5</title>
<g id="a_node5"><a xlink:href="structdata__structures_1_1adv__options__type.html" target="_top" xlink:title="data_structures::adv\l_options_type">
<polygon fill="white" stroke="black" points="21,-39 21,-69 127,-69 127,-39 21,-39"/>
<text text-anchor="start" x="29" y="-57" font-family="Helvetica,sans-Serif" font-size="10.00">data_structures::adv</text>
<text text-anchor="middle" x="74" y="-46" font-family="Helvetica,sans-Serif" font-size="10.00">_options_type</text>
</a>
</g>
</g>
<!-- Node5&#45;&gt;Node1 -->
<g id="edge4" class="edge"><title>Node5&#45;&gt;Node1</title>
<path fill="none" stroke="#9a32cd" stroke-dasharray="5,2" d="M136.997,-66.8179C177.302,-75.1511 228.995,-85.8387 265.724,-93.4323"/>
<polygon fill="#9a32cd" stroke="#9a32cd" points="137.512,-63.3505 127.011,-64.7533 136.095,-70.2055 137.512,-63.3505"/>
<text text-anchor="middle" x="194" y="-88" font-family="Helvetica,sans-Serif" font-size="10.00"> adv_options</text>
</g>
<!-- Node6 -->
<g id="node6" class="node"><title>Node6</title>
<g id="a_node6"><a xlink:href="structdata__structures_1_1physics__type.html" target="_top" xlink:title="data_structures::physics_type">
<polygon fill="white" stroke="black" points="0,-0.5 0,-19.5 148,-19.5 148,-0.5 0,-0.5"/>
<text text-anchor="middle" x="74" y="-7.5" font-family="Helvetica,sans-Serif" font-size="10.00">data_structures::physics_type</text>
</a>
</g>
</g>
<!-- Node6&#45;&gt;Node1 -->
<g id="edge5" class="edge"><title>Node6&#45;&gt;Node1</title>
<path fill="none" stroke="#9a32cd" stroke-dasharray="5,2" d="M125.655,-22.1865C133.198,-24.2886 140.84,-26.582 148,-29 202.75,-47.4886 264.015,-77.9005 293.787,-93.3476"/>
<polygon fill="#9a32cd" stroke="#9a32cd" points="126.413,-18.7658 115.846,-19.5389 124.588,-25.5239 126.413,-18.7658"/>
<text text-anchor="middle" x="194" y="-62" font-family="Helvetica,sans-Serif" font-size="10.00"> physics</text>
</g>
</g>
</svg>
